<?xml version="1.0" encoding="utf-8" ?>
<svg baseProfile="full" height="200mm" version="1.1" viewBox="0,0,200,200" width="200mm" xmlns="http://www.w3.org/2000/svg" xmlns:ev="http://www.w3.org/2001/xml-events" xmlns:xlink="http://www.w3.org/1999/xlink"><defs /><rect fill="#1a1a1a" height="200" width="200" x="0" y="0" /><text alignment-baseline="middle" fill="#e1ed5e" style="dominant-baseline: central; font-size:9.0px; font-family:Arial;" text-anchor="middle" x="100.0" y="100.0">2025</text><line stroke="#e1ed5e" stroke-width="0.3" x1="100.0" x2="100.0" y1="15.0" y2="10.0" /><path d="M 100.0 14.0 a86.0,86.0 0 0,1 42.46469731375804,11.215312516191453" fill="none" id="id133" stroke="none" /><text fill="#e1ed5e" style="font-size:6.75px; font-family:Arial;" text-anchor="middle"><textPath startOffset="22.20632615414155" xlink:href="#id133">January</textPath></text><path d="M 100.0 79.0 l 0.0 -11.321610447642861 a32.32161044764286,32.32161044764286 0 0,0 0.5563633921654239,0.004788795366559426 l -0.19488291289289553 11.319933028884861" fill="#ff7d0b" stroke="none" /><path d="M 100.36148047927253 79.00311137660856 l 0.1959166728653962 -11.379979820483676 a32.38166613714013,32.38166613714013 0 0,0 0.5572319833321303,0.014391658134982997 l -0.3917752913923943 11.374921370206334" fill="#ff7e0b" stroke="none" /><path d="M 102.16513564639614 79.11191278185805 l 2.550527909784184 -24.60614858960667 a45.73798174937459,45.73798174937459 0 0,0 0.7824098075542789,0.08791285826155078 l -2.973704420848188 24.558599777874516" fill="#d4ff1c" stroke="none" /><path d="M 102.52436894288641 79.15227682838746 l 3.0918335626398696 -25.534179695981585 a46.720687539911225,46.720687539911225 0 0,0 0.797556112240246,0.10354567338247112 l -3.5309044033879617 25.477175699434977" fill="#c8ff1d" stroke="none" /><path d="M 103.2404852339499 79.25152402106235 l 1.1309678056096948 -7.241464365212207 a28.329249233718542,28.329249233718542 0 0,0 0.4811531339847645,0.0793943897866243 l -1.2554501457333345 7.220923712485958" fill="#ff4506" stroke="none" /><path d="M 105.01212808612495 79.60689891045804 l 5.924364199369667 -24.10476267425481 a45.82212067388524,45.82212067388524 0 0,0 0.7643372177935309,0.19484657549364426 l -6.338410305848223 23.9992131025923" fill="#d3ff1c" stroke="none" /><path d="M 105.36241919743992 79.69619591428918 l 2.9449945874081647 -11.150674897770154 a32.533019717126336,32.533019717126336 0 0,0 0.5402063164423136,0.14765879269550977 l -3.1364987930741894 11.09832956424835" fill="#ff800b" stroke="none" /><path d="M 105.71112130821622 79.79150937346287 l 10.640895088164333 -37.65222572628163 a60.126956825444324,60.126956825444324 0 0,0 0.9935543903309682,0.29004577159287986 l -11.287439696218728 37.46348162577005" fill="#36ff2f" stroke="none" /><path d="M 106.0581310904928 79.89281104454417 l 7.1322219684357995 -23.672141234554623 a45.72324535403351,45.72324535403351 0 0,0 0.7516349096832886,0.23353662520985963 l -7.538642250829806 23.545864474462242" fill="#d4ff1c" stroke="none" /><path d="M 106.40334571778207 80.00007090966166 l 7.540640995076617 -23.55210726455476 a45.72980030687113,45.72980030687113 0 0,0 0.7476107609891822,0.24647551367159903 l -7.944934578308217 23.418818026623924" fill="#d4ff1c" stroke="none" /><path d="M 106.74666289553966 80.11325718540242 l 8.379583517408669 -24.700007230881177 a47.082710310295774,47.082710310295774 0 0,0 0.7652464917323617,0.2669794749566729 l -8.803512013204305 24.552106902752296" fill="#c4ff1e" stroke="none" /><path d="M 107.08798089147638 80.2323363322302 l 8.19721845285457 -22.861215326091763 a45.28640682665413,45.28640682665413 0 0,0 0.7315214094216443,0.26942550865311976 l -8.58952218804879 22.716726549632316" fill="#d9ff1c" stroke="none" /><path d="M 108.43124777332544 80.76684994638697 l 9.528803090159998 -21.736865597070963 a44.73371893143108,44.73371893143108 0 0,0 0.7025704957650993,0.3152229020114076 l -9.901555704391876 21.569622364543026" fill="#e0ff1b" stroke="none" /><path d="M 109.73455568895987 81.39251694778311 l 2.8285545404824206 -5.406747093140471 a27.101936980800986,27.101936980800986 0 0,0 0.4115041359526639,0.2198112581352014 l -2.9212037229633956 5.357257108503515" fill="#ff3304" stroke="none" /><line stroke="#e1ed5e" stroke-width="0.3" x1="143.23703022742887" x2="145.7803849466894" y1="26.81831364943548" y2="22.513508569990506" /><path d="M 143.74570117128098 25.957352633546492 a86.0,86.0 0 0,1 28.547481713284135,27.462654790039103" fill="none" id="id134" stroke="none" /><text fill="#e1ed5e" style="font-size:6.75px; font-family:Arial;" text-anchor="middle"><textPath startOffset="19.985693538727396" xlink:href="#id134">February</textPath></text><path d="M 110.68208982089419 81.91981866633111 l 12.806605209045925 -21.676071661123345 a46.17660063707007,46.17660063707007 0 0,0 0.6808584385883666,0.4102095910724247 l -13.177825713851929 21.452415460592306" fill="#ceff1d" stroke="none" /><path d="M 111.2981086023043 82.29822771554956 l 1.4165573037587231 -2.219448909696066 a23.63298083122214,23.63298083122214 0 0,0 0.34102726051754,0.22181361653100648 l -1.4545515900605432 2.1947363690055317" fill="#ff0000" stroke="none" /><path d="M 113.06298171725822 83.55741782278167 l 15.098462195518598 -19.00467372402825 a45.2722307179681,45.2722307179681 0 0,0 0.6059938187726228,0.4900048574021773 l -15.423359412855714 18.741962769361944" fill="#d9ff1c" stroke="none" /><path d="M 114.42810811169701 84.74124197986012 l 4.009521404981554 -4.2403561452097325 a26.835827459343122,26.835827459343122 0 0,0 0.33291346308023184,0.3202624877161919 l -4.081918111674204 4.170710570731239" fill="#ff2f04" stroke="none" /><path d="M 114.68862486808459 84.99185889309783 l 17.046882682397648 -17.417697233600403 a45.37154870148387,45.37154870148387 0 0,0 0.5534555461088081,0.5510788321062235 l -17.34417402867378 17.12168255084406" fill="#d8ff1c" stroke="none" /><path d="M 115.19652480421416 85.50635884689758 l 22.80378847296595 -21.749046661429315 a52.51243880439603,52.51243880439603 0 0,0 0.6182281369272863,0.6594826717637536 l -23.1747839318637 21.353294572787508" fill="#86ff25" stroke="none" /><path d="M 115.4437574822437 85.77008943001954 l 18.108163123983193 -16.684899522487395 a45.62298608618144,45.62298608618144 0 0,0 0.5271765575189548,0.5821215218205935 l -18.39268332211818 16.37072521339725" fill="#d5ff1c" stroke="none" /><path d="M 115.68641384162765 86.03803664274999 l 17.864544373408943 -15.900646027430179 a44.91594634880937,44.91594634880937 0 0,0 0.5090647945770225,0.5819490609492398 l -18.135601031563812 15.590781410277991" fill="#deff1b" stroke="none" /><path d="M 115.9244219780498 86.31012108654704 l 24.14833466239321 -20.759797620622187 a52.84511366310587,52.84511366310587 0 0,0 0.5870573403175966,0.6948907235190146 l -24.502102616197927 20.341047947474067" fill="#82ff25" stroke="none" /><path d="M 116.38621287248628 86.86637796730983 l 36.71709604324123 -29.428914742076422 a68.0553521370843,68.0553521370843 0 0,0 0.7247762761523692,0.9203922685302993 l -37.21822639998756 28.792530079593085" fill="#39ff87" stroke="none" /><path d="M 117.65298651832404 88.62581576622439 l 22.529325044351207 -14.51610997669271 a47.800894309882054,47.800894309882054 0 0,0 0.43970541216347314,0.6955083665594799 l -22.775858052760636 14.126153962419025" fill="#bbff1f" stroke="none" /><line stroke="#e1ed5e" stroke-width="0.3" x1="172.23445277983987" x2="176.4835382374775" y1="55.19839476539836" y2="52.563006222186495" /><path d="M 173.08426987136738 54.67131705675599 a86.0,86.0 0 0,1 12.851231095245387,41.99856678651699" fill="none" id="id135" stroke="none" /><text fill="#e1ed5e" style="font-size:6.75px; font-family:Arial;" text-anchor="middle"><textPath startOffset="22.20632615414155" xlink:href="#id135">March</textPath></text><path d="M 117.84615892207809 88.93136811851018 l 8.532371427363499 -5.291989095131918 a31.040244556657182,31.040244556657182 0 0,0 0.2777129318822818,0.4564870403156765 l -8.622200157532005 5.14433428160916" fill="#ff6b09" stroke="none" /><path d="M 118.3937258080291 89.86733742301442 l 21.104039806193438 -11.62570958158387 a45.09434828786054,45.09434828786054 0 0,0 0.36868258914511154,0.683112844504658 l -21.301030494557015 11.260715753746753" fill="#dbff1b" stroke="none" /><path d="M 118.56541770881063 90.18545643968196 l 19.251484076474703 -10.177230161628 a42.776033911378576,42.776033911378576 0 0,0 0.3385225391854329,0.6539177961461446 l -19.42381604882025 9.844339643221511" fill="#f8ff18" stroke="none" /><path d="M 119.04729006885535 91.15688171328212 l 27.04904582785045 -12.558107265329681 a50.822088093972894,50.822088093972894 0 0,0 0.36155724801543904,0.7966434697726531 l -27.261205392829236 12.090641786714965" fill="#99ff23" stroke="none" /><path d="M 119.196687751892 91.48605970444005 l 43.56173076447511 -19.320102493381658 a68.65386393096985,68.65386393096985 0 0,0 0.4698189548608029,1.0844069234922702 l -43.88784042917859 18.567396425302785" fill="#39ff8e" stroke="none" /><path d="M 119.7369772167798 92.82701384747503 l 16.829034085586116 -6.116155839388212 a38.90596968905906,38.90596968905906 0 0,0 0.2233330849582382,0.631392705533596 l -16.931820251354164 5.825565507428002" fill="#ffd513" stroke="none" /><path d="M 120.08093135843002 93.85539295169968 l 60.24279407529006 -18.433821144900946 a84.0,84.0 0 0,0 0.41117641155319085,1.3862824530138804 l -60.551176383954946 17.394109305140535" fill="#4dd2ff" stroke="none" /><line stroke="#e1ed5e" stroke-width="0.3" x1="184.98032266829074" x2="189.97916517819016" y1="98.17113171792111" y2="98.06355123074" /><path d="M 185.9800911702706 98.14961562048488 a86.0,86.0 0 0,1 -9.607161424134198,41.387399972396054" fill="none" id="id136" stroke="none" /><text fill="#e1ed5e" style="font-size:6.75px; font-family:Arial;" text-anchor="middle"><textPath startOffset="21.466115282336823" xlink:href="#id136">April</textPath></text><line stroke="#e1ed5e" stroke-width="0.3" x1="174.80103733775053" x2="179.2010983576182" y1="140.37084112569926" y2="142.7455964860345" /><path d="M 175.68104954172406 140.8457921977663 a86.0,86.0 0 0,1 -30.038265399797805,32.042727171017184" fill="none" id="id137" stroke="none" /><text fill="#e1ed5e" style="font-size:6.75px; font-family:Arial;" text-anchor="middle"><textPath startOffset="22.206326154141568" xlink:href="#id137">May</textPath></text><line stroke="#e1ed5e" stroke-width="0.3" x1="143.8653032363475" x2="146.44561519142675" y1="172.8068346515853" y2="177.08958963109032" /><path d="M 144.38136562736335 173.6633856474863 a86.0,86.0 0 0,1 -40.68145358897372,12.25698825130547" fill="none" id="id138" stroke="none" /><text fill="#e1ed5e" style="font-size:6.75px; font-family:Arial;" text-anchor="middle"><textPath startOffset="21.466115282336833" xlink:href="#id138">June</textPath></text><line stroke="#e1ed5e" stroke-width="0.3" x1="102.19456741930631" x2="102.32365962044197" y1="184.97166512339345" y2="189.96999836594603" /><path d="M 102.22038585953345 185.97133177190398 a86.0,86.0 0 0,1 -42.740103519485714,-10.115201625700543" fill="none" id="id139" stroke="none" /><text fill="#e1ed5e" style="font-size:6.75px; font-family:Arial;" text-anchor="middle"><textPath startOffset="22.20632615414155" xlink:href="#id139">July</textPath></text><line stroke="#e1ed5e" stroke-width="0.3" x1="58.666819895761336" x2="56.23545636021788" y1="174.27360380694188" y2="178.64263932499728" /><path d="M 58.180547188652646 175.14741091055294 a86.0,86.0 0 0,1 -31.652253787137756,-30.449443065178592" fill="none" id="id140" stroke="none" /><text fill="#e1ed5e" style="font-size:6.75px; font-family:Arial;" text-anchor="middle"><textPath startOffset="22.20632615414155" xlink:href="#id140">August</textPath></text><line stroke="#e1ed5e" stroke-width="0.3" x1="26.63291911575756" x2="22.317208475507996" y1="142.92168965132927" y2="145.44649492493687" /><path d="M 25.769776987707644 143.4266507060508 a86.0,86.0 0 0,1 -11.730757126820373,-40.83630448921669" fill="none" id="id141" stroke="none" /><text fill="#e1ed5e" style="font-size:6.75px; font-family:Arial;" text-anchor="middle"><textPath startOffset="21.46611528233685" xlink:href="#id141">September</textPath></text><line stroke="#e1ed5e" stroke-width="0.3" x1="15.007084014347285" x2="10.007500721073583" y1="101.09737516637583" y2="101.16192664675087" /><path d="M 14.007167355692545 101.11028546245083 a86.0,86.0 0 0,1 10.666146001902534,-42.60595125391555" fill="none" id="id142" stroke="none" /><text fill="#e1ed5e" style="font-size:6.75px; font-family:Arial;" text-anchor="middle"><textPath startOffset="22.20632615414155" xlink:href="#id142">October</textPath></text><line stroke="#e1ed5e" stroke-width="0.3" x1="26.266209847984243" x2="21.928928074336255" y1="57.711370442889674" y2="55.22380399835377" /><path d="M 25.398753493254645 57.213857153982495 a86.0,86.0 0 0,1 29.58750427330803,-30.492523968695096" fill="none" id="id143" stroke="none" /><text fill="#e1ed5e" style="font-size:6.75px; font-family:Arial;" text-anchor="middle"><textPath startOffset="21.46611528233685" xlink:href="#id143">November</textPath></text><line stroke="#e1ed5e" stroke-width="0.3" x1="56.762969772571076" x2="54.21961505331055" y1="26.818313649435495" y2="22.513508569990535" /><path d="M 56.25429882871897 25.957352633546506 a86.0,86.0 0 0,1 42.265352541879196,-11.944610805530505" fill="none" id="id144" stroke="none" /><text fill="#e1ed5e" style="font-size:6.75px; font-family:Arial;" text-anchor="middle"><textPath startOffset="22.20632615414155" xlink:href="#id144">December</textPath></text></svg>