<?xml version="1.0" encoding="utf-8" ?>
<svg baseProfile="full" height="200mm" version="1.1" viewBox="0,0,200,200" width="200mm" xmlns="http://www.w3.org/2000/svg" xmlns:ev="http://www.w3.org/2001/xml-events" xmlns:xlink="http://www.w3.org/1999/xlink"><defs /><rect fill="#1a1a1a" height="200" width="200" x="0" y="0" /><text alignment-baseline="middle" fill="#e1ed5e" style="dominant-baseline: central; font-size:9.0px; font-family:Arial;" text-anchor="middle" x="100.0" y="100.0">2022</text><line stroke="#e1ed5e" stroke-width="0.3" x1="100.0" x2="100.0" y1="15.0" y2="10.0" /><path d="M 100.0 14.0 a86.0,86.0 0 0,1 42.46469731375804,11.215312516191453" fill="none" id="id85" stroke="none" /><text fill="#e1ed5e" style="font-size:6.75px; font-family:Arial;" text-anchor="middle"><textPath startOffset="22.20632615414155" xlink:href="#id85">January</textPath></text><path d="M 100.0 79.0 l 0.0 -3.5413019878780645 a24.541301987878064,24.541301987878064 0 0,0 0.42243817164523884,0.0036360587118410993 l -0.06095769237271049 3.5407773057747822" fill="#ff1f03" stroke="none" /><path d="M 100.36148047927253 79.00311137660856 l 0.19600493882514336 -11.385106820784708 a32.386793897174144,32.386793897174144 0 0,0 0.5573202231367687,0.014393937108804024 l -0.3919517971567798 11.380046091533545" fill="#ff8c0c" stroke="none" /><path d="M 101.08401301168833 79.027996857942 l 0.4895116972143607 -9.470403714125679 a30.483046357064545,30.483046357064545 0 0,0 0.5237828567909668,0.031596012310567946 l -0.6524566028449393 9.460574432434807" fill="#ff730a" stroke="none" /><path d="M 101.80526077348638 79.07773832637324 l 0.432218443790627 -5.009241608729546 a26.02785384411482,26.02785384411482 0 0,0 0.4460366949649771,0.04235655869338807 l -0.5183802658458483 5.00105950552098" fill="#ff3505" stroke="none" /><path d="M 102.16513564639614 79.11191278185805 l 1.1985555639223244 -11.563032180764498 a32.624983813029786,32.624983813029786 0 0,0 0.558094308718883,0.06270839831666807 l -1.3974165761509327 11.540687828977228" fill="#ff900d" stroke="none" /><path d="M 102.52436894288641 79.15227682838746 l 1.3875023169043974 -11.458810046093783 a32.54250797495392,32.54250797495392 0 0,0 0.5555242764969971,0.07212299474280046 l -1.5845413219092406 11.433228728186846" fill="#ff8f0d" stroke="none" /><path d="M 102.88285421437855 79.19881850522331 l 1.2773486026147247 -9.216685319210939 a30.304778757496614,30.304778757496614 0 0,0 0.5160918535679775,0.07605852365721759 l -1.4358094366113578 9.193332311392751" fill="#ff700a" stroke="none" /><path d="M 103.2404852339499 79.25152402106235 l 1.4479415660997674 -9.271013022486995 a30.383401155336102,30.383401155336102 0 0,0 0.5160415147749878,0.0851512715521931 l -1.6073122870136303 9.244715487995178" fill="#ff710a" stroke="none" /><path d="M 103.59715602781102 79.31037775812273 l 1.6223281748008207 -9.33108178502023 a30.471063086342994,30.471063086342994 0 0,0 0.5159837475564223,0.09429273178082281 l -1.7827070434601437 9.301773571888669" fill="#ff730a" stroke="none" /><path d="M 103.95276090670814 79.375362276772 l 1.4647419992620605 -7.642701849613135 a28.781796751810102,28.781796751810102 0 0,0 0.4857731221300706,0.09744151838302637 l -1.5960815308592564 7.6163563751529" fill="#ff5b08" stroke="none" /><path d="M 104.307194497241 79.44645832069477 l 2.948034848155712 -14.06775504621989 a35.37333091201847,35.37333091201847 0 0,0 0.5948737705954401,0.13001636541885309 l -3.18975134290468 14.014925182705166" fill="#ffb410" stroke="none" /><path d="M 104.66035177308747 79.52364482259891 l 0.645188880883477 -2.834789587724117 a23.907284076020908,23.907284076020908 0 0,0 0.40047696414296224,0.09477995852086936 l -0.6938895319889629 2.823263717062379" fill="#ff1602" stroke="none" /><path d="M 105.36241919743992 79.69619591428918 l 2.931838720776847 -11.100862652806624 a32.48149946309816,32.48149946309816 0 0,0 0.5393508297124396,0.14742495585603677 l -3.122487439712997 11.048751156124293" fill="#ff8e0d" stroke="none" /><path d="M 105.71112130821622 79.79150937346287 l 5.504540603749514 -19.47751609377191 a41.24039526396337,41.24039526396337 0 0,0 0.6814676467403684,0.1989390931567941 l -5.838998468213309 19.379878671696414" fill="#fffe18" stroke="none" /><path d="M 106.0581310904928 79.89281104454417 l 4.9661494899048675 -16.48285662409381 a38.21473796624612,38.21473796624612 0 0,0 0.6282041201892962,0.19518607808377994 l -5.249138982804881 16.39493041112751" fill="#ffd814" stroke="none" /><path d="M 106.40334571778207 80.00007090966166 l 2.9930831339413455 -9.348464549411961 a30.815922579070005,30.815922579070005 0 0,0 0.503792169992499,0.16609235763050698 l -3.1535581261762617 9.295558467522218" fill="#ff770b" stroke="none" /><path d="M 106.74666289553966 80.11325718540242 l 6.075920456782736 -17.90963463816663 a39.91221357403117,39.91221357403117 0 0,0 0.6487027024041393,0.22631963525734627 l -6.383305163250149 17.802394149737076" fill="#ffee16" stroke="none" /><path d="M 107.08798089147638 80.2323363322302 l 5.004768973933468 -13.957795785055948 a35.82793902266167,35.82793902266167 0 0,0 0.5787366736966305,0.21315360108217188 l -5.244287973402676 13.869578916167452" fill="#ffba11" stroke="none" /><path d="M 107.4271985657038 80.35727306442388 l 4.248735131484436 -11.236638319421242 a33.01306750746852,33.01306750746852 0 0,0 0.5298075964294939,0.20555711635978233 l -4.441525892913597 11.161838499170914" fill="#ff950d" stroke="none" /><path d="M 108.43124777332544 80.76684994638697 l 3.8478904337976916 -8.777710736628423 a30.58407358936865,30.58407358936865 0 0,0 0.48034163618579356,0.21551529053394564 l -3.998414188450265 8.710175115577947" fill="#ff740a" stroke="none" /><path d="M 108.76106565485865 80.91482961587045 l 4.009114270559275 -8.733484253783224 a30.609721351084097,30.609721351084097 0 0,0 0.4769603701010774,0.22393928910278468 l -4.15885285195995 8.663179982040438" fill="#ff740a" stroke="none" /><path d="M 109.08828744355905 81.06846463323043 l 27.264862330677165 -56.79460610030869 a84.0,84.0 0 0,0 1.2981149319582728,0.6369793594606721 l -28.23844852964587 56.31687158071319" fill="#4dd2ff" stroke="none" /><path d="M 109.41281617654863 81.2277094730956 l 4.325008623898485 -8.62550770102888 a30.649097506881397,30.649097506881397 0 0,0 0.4695726517956528,0.24053335055047897 l -4.472841763282894 8.5497818251659" fill="#ff750a" stroke="none" /><path d="M 109.73455568895987 81.39251694778311 l 6.611025209071679 -12.636893091596662 a35.26172224254226,35.26172224254226 0 0,0 0.5353988002370205,0.2859914970519629 l -6.827569055837011 12.521222868042946" fill="#ffb210" stroke="none" /><path d="M 110.05341064243156 81.56283822128135 l 3.6666801471895396 -6.724402043145697 a28.659120454703395,28.659120454703395 0 0,0 0.4310821800011289,0.23989676644785485 l -3.7818864162627035 6.660289879137663" fill="#ff5a08" stroke="none" /><path d="M 110.36928655335952 81.73862282372117 l 2.038569302838225 -3.590129634044253 a25.1285343151919,25.1285343151919 0 0,0 0.3742994115309119,0.21681837851401195 l -2.1000654468344653 3.554507098140191" fill="#ff2803" stroke="none" /><line stroke="#e1ed5e" stroke-width="0.3" x1="143.23703022742887" x2="145.7803849466894" y1="26.81831364943548" y2="22.513508569990506" /><path d="M 143.74570117128098 25.957352633546492 a86.0,86.0 0 0,1 28.547481713284135,27.462654790039103" fill="none" id="id86" stroke="none" /><text fill="#e1ed5e" style="font-size:6.75px; font-family:Arial;" text-anchor="middle"><textPath startOffset="19.985693538727396" xlink:href="#id86">February</textPath></text><path d="M 110.68208982089419 81.91981866633111 l 11.688874265290213 -19.784234157021135 a43.979245043508406,43.979245043508406 0 0,0 0.6484591697419119,0.39068939411032916 l -12.027695501249763 19.58009815345219" fill="#dfff1b" stroke="none" /><path d="M 110.99172775467656 82.1063720568725 l 2.632804308336314 -4.2859886809323005 a26.030045476839554,26.030045476839554 0 0,0 0.37976701890393516,0.23781007239775093 l -2.7061904796125122 4.240034267211605" fill="#ff3505" stroke="none" /><path d="M 111.60114157652 82.49532879139004 l 2.6446984111655576 -3.9905190216007362 a25.787344958093048,25.787344958093048 0 0,0 0.36789369015065754,0.24840346183177017 l -2.712996795722757 3.944403647470296" fill="#ff3104" stroke="none" /><path d="M 112.19680574252982 82.90503203632743 l 10.815959719984278 -15.159582665547413 a39.62251141113593,39.62251141113593 0 0,0 0.551799478095817,0.4009057877677712 l -11.075304514433883 14.971157642962968" fill="#ffea16" stroke="none" /><path d="M 112.48926042617603 83.11751280151076 l 2.348930957962726 -3.1751917627425637 a24.949597368778736,24.949597368778736 0 0,0 0.34306153344831375,0.2583868345818065 l -2.4032386451694228 3.1342883386549096" fill="#ff2503" stroke="none" /><path d="M 113.06298171725822 83.55741782278167 l 11.839310692590013 -14.902328059400343 a40.0328310890857,40.0328310890857 0 0,0 0.5358615602373223,0.43329611503829385 l -12.094075651391826 14.69632584709792" fill="#ffef16" stroke="none" /><path d="M 113.34407831869373 83.78471172551755 l 13.0099027693451 -15.809209058102224 a41.47409732101991,41.47409732101991 0 0,0 0.5473444516164158,0.4583852374449913 l -13.280104757920633 15.582922663263412" fill="#fdff18" stroke="none" /><path d="M 113.89432698308785 84.25364557470407 l 12.381446648737313 -14.031816543990843 a39.71342022826783,39.71342022826783 0 0,0 0.5086892231612951,0.4567062071565769 l -12.6211468594946 13.816611328064967" fill="#ffeb16" stroke="none" /><path d="M 114.16331599549186 84.49514656593476 l 0.9660955998719803 -1.0576033666182567 a22.432433450172912,22.432433450172912 0 0,0 0.2828538821382167,0.26288185691778015 l -0.9841573658050439 1.040816923625836" fill="#ff0100" stroke="none" /><path d="M 114.42810811169701 84.74124197986012 l 13.031836027118096 -13.782100255731152 a39.96773675736559,39.96773675736559 0 0,0 0.49582214953245757,0.47698051501085 l -13.267141420262972 13.555736653958" fill="#ffee16" stroke="none" /><path d="M 114.68862486808459 84.99185889309783 l 13.398227672072556 -13.689674376651691 a40.15514785355218,40.15514785355218 0 0,0 0.48982434852705,0.48772088710880945 l -13.631887820766929 13.457017638892763" fill="#fff116" stroke="none" /><path d="M 115.4437574822437 85.77008943001954 l 6.264803735769281 -5.772403315771629 a29.5187091679221,29.5187091679221 0 0,0 0.34109059525723945,0.37664075452121604 l -6.3632379716425564 5.663709773980864" fill="#ff6509" stroke="none" /><path d="M 115.68641384162765 86.03803664274999 l 7.511261933193961 -6.685528313658162 a31.05561259505226,31.05561259505226 0 0,0 0.3519756418665092,0.40236900379531065 l -7.6252294386383195 6.555243753659903" fill="#ff7a0b" stroke="none" /><path d="M 115.9244219780498 86.31012108654704 l 4.480819770901443 -3.852063213421518 a26.90898779991096,26.90898779991096 0 0,0 0.29893244073923214,0.3538417216897604 l -4.546462825127792 3.774362542102651" fill="#ff4106" stroke="none" /><path d="M 116.38621287248628 86.86637796730983 l 16.16755320445657 -12.95836534244433 a41.71977338117375,41.71977338117375 0 0,0 0.4443074797735271,0.5642253791813767 l -16.388214764824063 12.678147569309914" fill="#faff18" stroke="none" /><path d="M 116.60985879189232 87.15038557335679 l 9.707976149904567 -7.510223413230486 a33.273885148711116,33.273885148711116 0 0,0 0.34656186877346057,0.4560347957802399 l -9.835813958902142 7.342003841569213" fill="#ff980e" stroke="none" /><path d="M 116.82858285166822 87.43820079747576 l 7.795061982150609 -5.818671973397915 a30.727277874080507,30.727277874080507 0 0,0 0.3127413379701819,0.4265788335255434 l -7.894065932634417 5.683630696200878" fill="#ff760a" stroke="none" /><path d="M 117.04232023915458 87.72973835380427 l 7.781925383574099 -5.602890875636023 a30.5890953087244,30.5890953087244 0 0,0 0.30397896012128717,0.42995668161716705 l -7.877216963499269 5.468107693687062" fill="#ff740a" stroke="none" /><path d="M 117.2510076193507 88.02491185347247 l 4.730744266273183 -3.2839287325892057 a26.758830543921356,26.758830543921356 0 0,0 0.25940205838374325,0.380640512145353 l -4.786570790325659 3.202010197173446" fill="#ff3f05" stroke="none" /><path d="M 117.45458315368197 88.32363383020206 l 3.637145560291789 -2.43309410490638 a25.375931300886755,25.375931300886755 0 0,0 0.23974619766771818,0.3651499070891191 l -3.6784883933174317 2.370126133839587" fill="#ff2b04" stroke="none" /><line stroke="#e1ed5e" stroke-width="0.3" x1="172.23445277983987" x2="176.4835382374775" y1="55.19839476539836" y2="52.563006222186495" /><path d="M 173.08426987136738 54.67131705675599 a86.0,86.0 0 0,1 12.851231095245387,41.99856678651699" fill="none" id="id87" stroke="none" /><text fill="#e1ed5e" style="font-size:6.75px; font-family:Arial;" text-anchor="middle"><textPath startOffset="22.20632615414155" xlink:href="#id87">March</textPath></text><path d="M 117.84615892207809 88.93136811851018 l 9.481861235186146 -5.880886302867396 a32.15753181445516,32.15753181445516 0 0,0 0.28770915209734593,0.47291819802011 l -9.581686185569716 5.716800331640205" fill="#ff890c" stroke="none" /><path d="M 118.03404312379186 89.2402003453031 l 16.903501262977194 -10.085275154554951 a40.68352432595736,40.68352432595736 0 0,0 0.35363732257879116,0.6044808175095148 l -17.074598260026313 9.792814924691541" fill="#fff717" stroke="none" /><path d="M 118.21658344932153 89.55222093294921 l 17.840252677324166 -10.23194162569416 a41.56616748503194,41.56616748503194 0 0,0 0.35062518813011123,0.6237230858736076 l -18.01373550674671 9.92333502988576" fill="#fcff18" stroke="none" /><path d="M 118.56541770881063 90.18545643968196 l 9.532199530940243 -5.0391641593745575 a31.782207720257595,31.782207720257595 0 0,0 0.2515191960215493,0.48585502976145467 l -9.617528160121909 4.874336407352758" fill="#ff840c" stroke="none" /><path d="M 119.04729006885535 91.15688171328212 l 17.839578782261018 -8.282412079958268 a40.66847530925405,40.66847530925405 0 0,0 0.28932266589694694,0.637484143131258 l -17.97950376512131 7.974105927984947" fill="#fff717" stroke="none" /><path d="M 119.196687751892 91.48605970444005 l 19.451636997911187 -8.62701306556379 a42.27889885148937,42.27889885148937 0 0,0 0.28932716869431613,0.6678069959512154 l -19.597254876448186 8.290906925025972" fill="#f4ff19" stroke="none" /><path d="M 119.34039704204932 91.81776055985345 l 8.832182325506924 -3.7365846424562608 a30.590073483620284,30.590073483620284 0 0,0 0.20098889225224714,0.48671054488474524 l -8.89519290464537 3.5839995271182126" fill="#ff740a" stroke="none" /><path d="M 119.47837535516314 92.15188598940014 l 8.725004356810311 -3.5154281446310214 a30.406590033929554,30.406590033929554 0 0,0 0.19142606326610917,0.4871584511734059 l -8.78422396995812 3.3647206885618313" fill="#ff720a" stroke="none" /><path d="M 119.85752413597 93.16781622104841 l 9.165511236391195 -3.1534876536616894 a30.692836561410182,30.692836561410182 0 0,0 0.16758684295009765,0.5010633295648003 l -9.218435373113063 2.995251221174575" fill="#ff760a" stroke="none" /><path d="M 119.97218684219823 93.5106431181261 l 9.246440416445711 -3.0043506113472085 a30.722282806562617,30.722282806562617 0 0,0 0.1590895133969528,0.5043572325982356 l -9.29678541361087 2.844743212322554" fill="#ff760a" stroke="none" /><path d="M 120.08093135843002 93.85539295169968 l 18.56689680599099 -5.6813243839540934 a40.416670769213496,40.416670769213496 0 0,0 0.1978378768310946,0.6670109701976152 l -18.661940579933788 5.3608840270099485" fill="#fff417" stroke="none" /><path d="M 120.53481517161879 95.60439243477599 l 18.715320371929096 -4.006133151183246 a40.139287328658654,40.139287328658654 0 0,0 0.13880682415606832,0.6768713708252154 l -18.78150649200016 3.6833861241946186" fill="#fff016" stroke="none" /><path d="M 120.6074358757038 95.95851677861258 l 18.984009732144212 -3.723100596788643 a40.34564818154083,40.34564818154083 0 0,0 0.1277886467706043,0.682652060851626 l -19.045284102824674 3.3957704584744546" fill="#fff316" stroke="none" /><path d="M 120.67395015179393 96.31383870115 l 18.905901312726346 -3.370918534056827 a40.20406717885031,40.20406717885031 0 0,0 0.11561184648793661,0.6823476623831919 l -18.961125020734507 3.044985083357797" fill="#fff116" stroke="none" /><path d="M 120.73433829027371 96.67025291283417 l 19.08479954704187 -3.064846093049229 a40.329326302922425,40.329326302922425 0 0,0 0.10417277492842714,0.6863684293949439 l -19.1347282154096 2.735878551262203" fill="#fff316" stroke="none" /><path d="M 120.78858239683441 97.02765380044208 l 18.107210746215177 -2.5889643660503983 a39.2913590937505,39.2913590937505 0 0,0 0.08996598798489502,0.6703511085067407 l -18.14909273325791 2.276894915478993" fill="#ffe615" stroke="none" /><path d="M 120.83666639777658 97.38593545837742 l 4.885490352167194 -0.6129093231248456 a25.923786532689256,25.923786532689256 0 0,0 0.05173603535215821,0.4432427562329492 l -4.895316740522941 0.5287228285670437" fill="#ff3304" stroke="none" /><path d="M 120.94382443527127 98.46500227214037 l 38.5811538441125 -2.8276585144201527 a59.68463628648006,59.68463628648006 0 0,0 0.06627668782462531,1.0252710258905744 l -38.62411112294154 2.163128424276543" fill="#35ff2f" stroke="none" /><path d="M 120.98425023603335 99.18683210126433 l 19.360195853241486 -0.7502336087308922 a40.374726680486056,40.374726680486056 0 0,0 0.020933921922235785,0.6946949542483801 l -19.37024146961937 0.41686850705751294" fill="#fff316" stroke="none" /><line stroke="#e1ed5e" stroke-width="0.3" x1="184.98032266829074" x2="189.97916517819016" y1="98.17113171792111" y2="98.06355123074" /><path d="M 185.9800911702706 98.14961562048488 a86.0,86.0 0 0,1 -9.607161424134198,41.387399972396054" fill="none" id="id88" stroke="none" /><text fill="#e1ed5e" style="font-size:6.75px; font-family:Arial;" text-anchor="middle"><textPath startOffset="21.466115282336823" xlink:href="#id88">April</textPath></text><path d="M 120.99513854157772 99.54816195383933 l 28.326534397626165 -0.6096175993971099 a49.33309345266402,49.33309345266402 0 0,0 0.01096367600022174,0.8491487886120392 l -28.332831080744104 0.12193255272460794" fill="#a2ff22" stroke="none" /><path d="M 120.99824983174949 100.27111621757518 l 56.54652360247893 0.7300932086706546 a77.5512366586183,77.5512366586183 0 0,0 -0.028723269401470714,1.334657463166459 l -56.52557827039245 -1.7033404876272285" fill="#45ffef" stroke="none" /><path d="M 120.9764740272857 100.99374915477107 l 12.012457477584325 0.5690837006040634 a33.02592993947099,33.02592993947099 0 0,0 -0.031789264733786064,0.5676186766418962 l -12.000881861963009 -0.775774093581383" fill="#ff950d" stroke="none" /><path d="M 120.95626037817324 101.35467743843564 l 19.178941954953522 1.2397860825637954 a40.218971981924405,40.218971981924405 0 0,0 -0.05060588794023934,0.6904771343794038 l -19.154759508348945 -1.5697363534399695" fill="#fff116" stroke="none" /><path d="M 120.92983693683757 101.71520430193887 l 18.36093996513978 1.50468268390664 a39.42249131856806,39.42249131856806 0 0,0 -0.061246414049132177,0.6758490754508051 l -18.332318954813573 -1.8205131479060155" fill="#ffe715" stroke="none" /><path d="M 120.89721153311464 102.0752229133903 l 6.488410011634033 0.6443394185045644 a27.520324973903644,27.520324973903644 0 0,0 -0.050870270353812565,0.47099552469270484 l -6.47635743977917 -0.7559312650820607" fill="#ff4a06" stroke="none" /><path d="M 120.70491114924044 103.5080841355445 l 3.204567904054986 0.5429578395415038 a24.25023978611101,24.25023978611101 0 0,0 -0.07327447564554739,0.4109621728619142 l -3.1947469860702498 -0.5980387631366364" fill="#ff1b02" stroke="none" /><path d="M 120.64145759157962 103.86396538481128 l 3.0203452793791974 0.565391739314969 a24.072808719324033,24.072808719324033 0 0,0 -0.0797498531460662,0.4066427830523469 l -3.010165493257467 -0.6172982494352608" fill="#ff1902" stroke="none" /><path d="M 120.32669344350535 105.2749913415812 l 1.4040754717508028 0.3643723942114404 a22.450584424304775,22.450584424304775 0 0,0 -0.10029202438549356,0.3732239322872672 l -1.397595371023532 -0.3884872596742559" fill="#ff0100" stroke="none" /><path d="M 120.13307415673323 105.97154293290107 l 4.60683662550255 1.3664044785157305 a25.805206019826784,25.805206019826784 0 0,0 -0.12997618699339297,0.42476969946625737 l -4.582633666003024 -1.445501150534045" fill="#ff3104" stroke="none" /><path d="M 120.02730092923936 106.31721596034902 l 6.269927828464574 1.977724721277118 a27.574449790461948,27.574449790461948 0 0,0 -0.14667998645514402,0.4514345795460891 l -6.2349555909931835 -2.0853582008010023" fill="#ff4a06" stroke="none" /><path d="M 119.9155931802556 106.66101706037122 l 9.642162305209608 3.224940730238657 a31.167179384350277,31.167179384350277 0 0,0 -0.17454981282079543,0.5073234610134923 l -9.585221661445582 -3.390436894341449" fill="#ff7c0b" stroke="none" /><path d="M 119.79798401119884 107.00284435728193 l 9.244152732281844 3.2697956904346563 a30.805402775762907,30.805402775762907 0 0,0 -0.18112951775090308,0.4983906408180424 l -9.186498953525714 -3.42843412825883" fill="#ff770b" stroke="none" /><path d="M 119.54520255179757 107.68017299344265 l 12.976800199809537 5.099157717693352 a34.94269532248656,34.94269532248656 0 0,0 -0.22479365661277975,0.5579194205193193 l -12.887103928939364 -5.3217765060554845" fill="#ffae10" stroke="none" /><path d="M 119.41010516605496 108.01547362559984 l 8.356965886757921 3.4510395014495505 a30.04149061123224,30.04149061123224 0 0,0 -0.20149116552916785,0.47626559578285665 l -8.296323740036446 -3.5943796228985705" fill="#ff6d0a" stroke="none" /><path d="M 118.81262510543309 109.33194174019688 l 13.103591243507267 6.499993987359517 a35.627167371457475,35.627167371457475 0 0,0 -0.2772494801709911,0.5470395270423645 l -12.989763093550007 -6.724587726104575" fill="#ffb711" stroke="none" /><path d="M 118.64920377521936 109.65438752849418 l 39.124426132287496 20.254074986995278 a65.05619449929429,65.05619449929429 0 0,0 -0.5233848040518704,0.9900468065528799 l -38.76998882001073 -20.924536808634294" fill="#35ff68" stroke="none" /><line stroke="#e1ed5e" stroke-width="0.3" x1="174.80103733775053" x2="179.2010983576182" y1="140.37084112569926" y2="142.7455964860345" /><path d="M 175.68104954172406 140.8457921977663 a86.0,86.0 0 0,1 -30.038265399797805,32.042727171017184" fill="none" id="id89" stroke="none" /><text fill="#e1ed5e" style="font-size:6.75px; font-family:Arial;" text-anchor="middle"><textPath startOffset="22.206326154141568" xlink:href="#id89">May</textPath></text><path d="M 118.48025628344425 109.97397251340804 l 26.17334215128294 14.126005137428043 a50.74202179595005,50.74202179595005 0 0,0 -0.42145741111139856,0.7650676217475687 l -25.926308330720033 -14.574443277573417" fill="#92ff23" stroke="none" /><path d="M 118.30583269289576 110.29060199501025 l 17.38983692800371 9.775676069281817 a40.94919223913817,40.94919223913817 0 0,0 -0.350696689684832,0.6114692387774492 l -17.2189882421665 -10.07356515391758" fill="#fffa17" stroke="none" /><path d="M 118.12598468904814 110.60418214915192 l 24.433394273949215 14.29418416973237 a49.307498243830764,49.307498243830764 0 0,0 -0.43489007839207305,0.7289007862156867 l -24.183723319858917 -14.71264704983416" fill="#a2ff22" stroke="none" /><path d="M 117.94076556474637 110.91462005526583 l 48.415767621618926 29.454691126023995 a77.67155709630785,77.67155709630785 0 0,0 -0.7047227675664481,1.1362374899313046 l -47.901580214384516 -30.283724947320575" fill="#45fff0" stroke="none" /><path d="M 117.75023020441432 111.22182372390056 l 16.177862386554096 10.227761434118326 a40.13975797525977,40.13975797525977 0 0,0 -0.37424616175133907,0.5808383539553351 l -15.999411361425707 -10.504721387995115" fill="#fff016" stroke="none" /><path d="M 117.55443506779139 111.5257021239791 l 8.427641418377807 5.533330136846855 a31.081809474498847,31.081809474498847 0 0,0 -0.29749272298047125,0.44471125651310056 l -8.331145589986615 -5.677578307565763" fill="#ff7b0b" stroke="none" /><path d="M 117.14729908036423 112.12312394758627 l 11.40669825629041 8.064524689610035 a34.969585662409195,34.969585662409195 0 0,0 -0.35172776876920064,0.48851910784041913 l -11.266190695145607 -8.259677402901586" fill="#ffaf10" stroke="none" /><path d="M 116.71984013943494 112.70617746262583 l 13.47957839696476 10.2437531582165 a37.93025435504114,37.93025435504114 0 0,0 -0.39951969926284625,0.5164330670946617 l -13.301251880483846 -10.474264219424414" fill="#ffd513" stroke="none" /><path d="M 116.498646956653 112.99209946851258 l 15.29503692002159 12.04429924233041 a40.46800705320461,40.46800705320461 0 0,0 -0.435671025217495,0.5435665914413367 l -15.08544798274924 -12.305793667349997" fill="#fff417" stroke="none" /><path d="M 116.27256486870786 113.27417163493432 l 14.9905394749739 12.228373062055745 a40.34552613643685,40.34552613643685 0 0,0 -0.44361635101442204,0.5343644724129554 l -14.777827124065936 -12.48459879158247" fill="#fff316" stroke="none" /><path d="M 116.0416608686014 113.55231037782055 l 3.6467891720097114 3.0808791649676457 a25.773980277946173,25.773980277946173 0 0,0 -0.2892300719368113,0.3364399161878177 l -3.5932165905021214 -3.143196180316991" fill="#ff3104" stroke="none" /><path d="M 115.80600337817218 113.82643327865902 l 15.284887025056058 13.370582402609715 a41.30764006854818,41.30764006854818 0 0,0 -0.4727583682089173,0.5311490383597701 l -15.052469807198802 -13.631705610710352" fill="#ffff18" stroke="none" /><path d="M 115.56566222782051 114.09645910891815 l 14.044623940464973 12.718987742329954 a39.947931570982135,39.947931570982135 0 0,0 -0.4659709205453893,0.5057194038775116 l -13.823606611923863 -12.9588584010088" fill="#ffee16" stroke="none" /><path d="M 115.07121518719521 114.62390073753431 l 15.083363205412645 14.635688201940011 a42.01692686219377,42.01692686219377 0 0,0 -0.5081234515719051,0.5147263737627862 l -14.829199128785204 -14.893155069683463" fill="#f7ff19" stroke="none" /><path d="M 114.55890576462653 115.13401014063108 l 12.05800514946627 12.534319210389192 a38.39266070078085,38.39266070078085 0 0,0 -0.480208389927973,0.45406700577333436 l -11.84046092514749 -12.740020852908449" fill="#ffdb14" stroke="none" /><path d="M 114.29624159901734 115.38237550388516 l 13.315818524963113 14.32746636756977 a40.559839352704145,40.559839352704145 0 0,0 -0.5154971141327789,0.4708943914416875 l -13.067221861363471 -14.55455352559804" fill="#fff617" stroke="none" /><path d="M 114.0293411484842 115.62618273729858 l 12.613866577531727 14.04959663310419 a39.881228656756015,39.881228656756015 0 0,0 -0.5147672382330787,0.4542222367801841 l -12.370156986392061 -14.264642011656663" fill="#ffed16" stroke="none" /><path d="M 113.48314897796784 116.09983520530334 l 3.9968013762922276 4.772464029862916 a27.225016799805992,27.225016799805992 0 0,0 -0.3618721637951653,0.2977961546719408 l -3.9140590839523712 -4.840555303392035" fill="#ff4606" stroke="none" /><path d="M 113.20401910651253 116.32954008644616 l 7.527816496142392 9.309724580490649 a32.972426360775216,32.972426360775216 0 0,0 -0.44440943944506306,0.3530657362619872 l -7.366449563979978 -9.437924230757762" fill="#ff940d" stroke="none" /><path d="M 112.92097659922987 116.55440617244103 l 6.029199079240198 7.72463363629949 a30.799041093502993,30.799041093502993 0 0,0 -0.4207314323654448,0.3225989214291787 l -5.895338918381259 -7.82727189955604" fill="#ff770b" stroke="none" /><path d="M 112.04921762599082 117.19931262002967 l 18.961212094460162 27.065642317211502 a54.04658164068309,54.04658164068309 0 0,0 -0.7665429643497491,0.5272352405916825 l -18.49251224548753 -27.38801834716828" fill="#6eff28" stroke="none" /><line stroke="#e1ed5e" stroke-width="0.3" x1="143.8653032363475" x2="146.44561519142675" y1="172.8068346515853" y2="177.08958963109032" /><path d="M 144.38136562736335 173.6633856474863 a86.0,86.0 0 0,1 -40.68145358897372,12.25698825130547" fill="none" id="id90" stroke="none" /><text fill="#e1ed5e" style="font-size:6.75px; font-family:Arial;" text-anchor="middle"><textPath startOffset="21.466115282336833" xlink:href="#id90">June</textPath></text><path d="M 110.8373102113329 117.98757091392108 l 2.8632850945012995 4.75242866354942 a26.548331256740124,26.548331256740124 0 0,0 -0.39346160274661796,0.2324640502241833 l -2.7810556207262995 -4.801011286067353" fill="#ff3c05" stroke="none" /><path d="M 110.21172684928248 118.3499491758327 l 13.73481870041905 24.680764459507134 a49.245094778369065,49.245094778369065 0 0,0 -0.7442509385724125,0.4058249526844228 l -13.307944949977989 -24.913530063951328" fill="#a2ff22" stroke="none" /><path d="M 109.89434966115114 118.52300852407294 l 9.19358241700326 17.211116577530166 a40.512675149849784,40.512675149849784 0 0,0 -0.6179323054040787,0.32327297690306006 l -8.895959209072686 -17.366818973377946" fill="#fff517" stroke="none" /><path d="M 109.57404056367764 118.69057910512821 l 10.93311094430865 21.3437757664199 a44.98102747773279,44.98102747773279 0 0,0 -0.692163964659225,0.34706538096833583 l -10.564093071966665 -21.528808988297538" fill="#d3ff1c" stroke="none" /><path d="M 109.2508944713604 118.85261126421891 l 4.346576236143654 8.857987988512608 a30.866948676325542,30.866948676325542 0 0,0 -0.47900702624292757,0.22995248180565223 l -4.193456541900494 -8.931494746817819" fill="#ff780b" stroke="none" /><path d="M 108.2653958097858 119.30500536409082 l 23.645971170390286 55.22852272156961 a81.07763040098918,81.07763040098918 0 0,0 -1.2877001778593427,0.538258778780782 l -22.691799533033482 -55.627366543370364" fill="#49edff" stroke="none" /><path d="M 107.59598834532513 119.57807347666477 l 17.34680371906891 44.71004724569208 a68.95727185714301,68.95727185714301 0 0,0 -1.1103098623823564,0.41982418451469095 l -16.57462363592628 -45.0020196803134" fill="#3aff94" stroke="none" /><path d="M 106.57524785965236 119.94407469862006 l 3.1870029960716324 9.666833429719423 a31.17863726905083,31.17863726905083 0 0,0 -0.5111494905183951,0.16365392529509779 l -3.0201321604622966 -9.720260201674229" fill="#ff7c0b" stroke="none" /><path d="M 106.2309692047433 120.05430185196036 l 10.795295369799438 34.74453248175645 a57.38297595712921,57.38297595712921 0 0,0 -0.9457944771360051,0.28496011749067823 l -10.195625918223188 -34.92520796835286" fill="#4cff2c" stroke="none" /><path d="M 105.18746579009965 120.34920634021253 l 4.760322270507673 18.673622930361283 a40.27082928844543,40.27082928844543 0 0,0 -0.6731877305893169,0.1654531656027419 l -4.438181255175144 -18.752797354278055" fill="#fff216" stroke="none" /><path d="M 104.83641907484287 120.43548508189849 l 8.201251906248439 34.65302704118476 a56.61029087141561,56.61029087141561 0 0,0 -0.9501898509134856,0.2162601165153502 l -7.603541905942091 -34.78906389127779" fill="#54ff2b" stroke="none" /><path d="M 104.48393922423573 120.51570834832081 l 2.291637548762732 10.485103664287621 a31.73261391766968,31.73261391766968 0 0,0 -0.5346318931064995,0.11203731132899658 l -2.110814194226854 -10.522996956343158" fill="#ff840c" stroke="none" /><path d="M 104.13013068566511 120.58985236759428 l 5.685429756016187 28.343451631930485 a49.908050123143504,49.908050123143504 0 0,0 -0.8437606708235516,0.16170874073065544 l -5.196701470620932 -28.43711757100961" fill="#9bff22" stroke="none" /><path d="M 103.7750983002368 120.6578951692458 l 1.858571149602248 10.170375688140213 a31.33880207548473,31.33880207548473 0 0,0 -0.5314926948579877,0.09240681771251696 l -1.6832294832722103 -10.200861084373736" fill="#ff7e0b" stroke="none" /><path d="M 103.41894727170886 120.7198165907248 l 1.4222588756851993 8.619303167550346 a29.735857565437335,29.735857565437335 0 0,0 -0.5057419946295032,0.07898649845168881 l -1.2736810174471789 -8.64250797334914" fill="#ff6809" stroke="none" /><path d="M 103.06178313531738 120.77559828337769 l 1.8682452732789623 12.676898257341644 a33.8138241687687,33.8138241687687 0 0,0 -0.5765601741653242,0.07990598651104205 l -1.6497565079268075 -12.707178809345288" fill="#ff9f0e" stroke="none" /><path d="M 102.70371172650421 120.8252237178851 l 1.308239677177183 10.07666005467769 a31.16122871066672,31.16122871066672 0 0,0 -0.5325195451562991,0.06448070085192557 l -1.1345927089695036 -10.097686284254968" fill="#ff7c0b" stroke="none" /><path d="M 102.34483914955558 120.86867818915974 l 1.4968177724841945 13.321429065916004 a34.40525776709483,34.40525776709483 0 0,0 -0.5890956761156766,0.061062175496287986 l -1.2672894997629152 -13.34522060986805" fill="#ffa70f" stroke="none" /><path d="M 101.98527174616119 120.90594882070398 l 1.989872722644239 20.95439950714822 a42.04866865522609,42.04866865522609 0 0,0 -0.7211460451229906,0.062223515197518064 l -1.6288823597797066 -20.985547274624402" fill="#f6ff19" stroke="none" /><path d="M 101.62511606390274 120.93702456842531 l 0.5769102017125817 7.432566408841108 a28.454922454504356,28.454922454504356 0 0,0 -0.48866212744009874,0.0337010013382978 l -0.4488853134935526 -7.441395754695691" fill="#ff5708" stroke="none" /><path d="M 101.26447882468166 120.96189622390904 l 3.718359392790362 61.64109844582935 a82.75314740304641,82.75314740304641 0 0,0 -1.4226130280398968,0.07353284388461126 l -2.656758296336986 -61.695971096476164" fill="#4bddff" stroke="none" /><path d="M 100.90346689309514 120.98055641714683 l 0.4600279627608423 10.682895742979456 a31.692796041349077,31.692796041349077 0 0,0 -0.5452362956316936,0.018779040456343023 l -0.27607131545449637 -10.689231581861893" fill="#ff830c" stroke="none" /><line stroke="#e1ed5e" stroke-width="0.3" x1="102.19456741930631" x2="102.32365962044197" y1="184.97166512339345" y2="189.96999836594603" /><path d="M 102.22038585953345 185.97133177190398 a86.0,86.0 0 0,1 -42.740103519485714,-10.115201625700543" fill="none" id="id91" stroke="none" /><text fill="#e1ed5e" style="font-size:6.75px; font-family:Arial;" text-anchor="middle"><textPath startOffset="22.20632615414155" xlink:href="#id91">July</textPath></text><path d="M 100.54218724476979 120.99299961872073 l 0.5559314369922675 21.52516230766135 a42.53234014532097,42.53234014532097 0 0,0 -0.7320429624626352,0.01260278347260807 l -0.18532878463696437 -21.53154256841312" fill="#f0ff19" stroke="none" /><path d="M 100.18074693466247 120.99922214144158 l 0.26753062108114695 31.0817716063185 a52.08292294525344,52.08292294525344 0 0,0 -0.8965551114871834,0.0 l 0.2675306210811255 -31.0817716063185" fill="#83ff25" stroke="none" /><path d="M 99.45781275523022 120.99299961872073 l -0.24356800712290932 9.430732887924993 a30.433877685102978,30.433877685102978 0 0,0 -0.5235781251071873,-0.018033089271968696 l 0.4058664839047396 -9.425143000226932" fill="#ff720a" stroke="none" /><path d="M 99.09653310690486 120.98055641714683 l -0.6648549020354003 15.439443202598326 a36.453751597816634,36.453751597816634 0 0,0 -0.626678060852507,-0.03239209757418809 l 0.9305210313013962 -15.425711298261936" fill="#ffc212" stroke="none" /><path d="M 98.73552117531835 120.96189622390904 l -0.5654511969625972 9.373766550340818 a30.39080584382591,30.39080584382591 0 0,0 -0.5219074436771873,-0.0359937929914336 l 0.7267214014187146 -9.3626444128331" fill="#ff710a" stroke="none" /><path d="M 98.37488393609728 120.93702456842531 l -0.7244939537647371 9.333947307874201 a30.36202242227681,30.36202242227681 0 0,0 -0.5207169000115102,-0.04492964519543995 l 0.8850551715177889 -9.320093410400098" fill="#ff710a" stroke="none" /><path d="M 97.65516085044442 120.86867818915974 l -2.217930012201242 19.73920798766913 a40.86342230129249,40.86342230129249 0 0,0 -0.698321984009722,-0.0845570671702602 l 2.5573794192623533 -19.69810539177352" fill="#fff917" stroke="none" /><path d="M 97.2962882734958 120.8252237178851 l -0.9177512738023902 7.068939860323213 a28.128266139071428,28.128266139071428 0 0,0 -0.47961561351852683,-0.06647035376624134 l 1.0392954785077482 -7.052094941064367" fill="#ff5207" stroke="none" /><path d="M 96.93821686468263 120.77559828337769 l -0.9351284716993381 6.345274179374766 a27.41381085393254,27.41381085393254 0 0,0 -0.4662490513735369,-0.0728185129285067 l 1.044213386681392 -6.328237359099153" fill="#ff4806" stroke="none" /><path d="M 96.58105272829116 120.7198165907248 l -1.5366050943348513 9.312274567802344 a30.438199661062175,30.438199661062175 0 0,0 -0.5162188626583998,-0.08975126620354275 l 1.6966729284653008 -9.284444723077796" fill="#ff720a" stroke="none" /><path d="M 96.22490169976321 120.6578951692458 l -1.7179915173938094 9.401103188690135 a30.556790047826567,30.556790047826567 0 0,0 -0.516602383891036,-0.09900807639675077 l 1.8795615158565404 -9.370137913944916" fill="#ff740a" stroke="none" /><path d="M 95.86986931433489 120.58985236759428 l -1.8415251616360215 9.180516088969688 a30.363390976605103,30.363390976605103 0 0,0 -0.5115631898800379,-0.10720304027509402 l 1.9992798129454463 -9.147457067968054" fill="#ff710a" stroke="none" /><path d="M 94.81253420990036 120.34920634021253 l -1.1842633889918464 4.645586311093836 a25.794158106313233,25.794158106313233 0 0,0 -0.429300227513713,-0.11338209193542173 l 1.2640540593170486 -4.624512869854833" fill="#ff3104" stroke="none" /><path d="M 94.46302465271185 120.25689768951611 l -2.46960354841923 9.034988107450364 a30.36642684208521,30.36642684208521 0 0,0 -0.5030254016377562,-0.14216000308775767 l 2.6247601181616 -8.991139311024083" fill="#ff710a" stroke="none" /><path d="M 94.11515582081647 120.15858648285463 l -3.8463956993959445 13.175862944311787 a34.72581961864646,34.72581961864646 0 0,0 -0.5723559620517819,-0.17244615625865237 l 4.072626635887972 -13.107701418947409" fill="#ffab0f" stroke="none" /><path d="M 93.76903079525671 120.05430185196036 l -2.78754862425925 8.971692797864653 a30.394769767900975,30.394769767900975 0 0,0 -0.49829859295064277,-0.15953947371187313 l 2.9415685623008336 -8.922380477493075" fill="#ff720a" stroke="none" /><path d="M 93.42475214034765 119.94407469862007 l -1.0379225177432017 3.1482317727174935 a24.31491273604394,24.31491273604394 0 0,0 -0.3963681224065701,-0.13446958757128238 l 1.0919603730869976 -3.129899198248088" fill="#ff1c02" stroke="none" /><path d="M 93.08242187328487 119.8279376855182 l -3.0920846746272073 8.862879626914673 a30.386779155612622,30.386779155612622 0 0,0 -0.4923822172437775,-0.17655074498343098 l 3.244186452500711 -8.808341340891284" fill="#ff710a" stroke="none" /><path d="M 92.7421414339146 119.70592522655815 l -1.9729927954208193 5.3569035749439715 a26.70868780737132,26.70868780737132 0 0,0 -0.43004774819471364,-0.16260726064419298 l 2.0649107643758158 -5.322148064193145" fill="#ff3e05" stroke="none" /><path d="M 91.07499286063937 119.00905698771935 l -4.031838784781204 8.587270803090187 a30.486671904944913,30.486671904944913 0 0,0 -0.4731057223168798,-0.2271194972995034 l 4.179057175098325 -8.516597029291122" fill="#ff730a" stroke="none" /><line stroke="#e1ed5e" stroke-width="0.3" x1="58.666819895761336" x2="56.23545636021788" y1="174.27360380694188" y2="178.64263932499728" /><path d="M 58.180547188652646 175.14741091055294 a86.0,86.0 0 0,1 -31.652253787137756,-30.449443065178592" fill="none" id="id92" stroke="none" /><text fill="#e1ed5e" style="font-size:6.75px; font-family:Arial;" text-anchor="middle"><textPath startOffset="22.20632615414155" xlink:href="#id92">August</textPath></text><path d="M 89.7882731507175 118.34994917583269 l -4.456598507543254 8.008278846222424 a30.16481316428711,30.16481316428711 0 0,0 -0.4515402958945264,-0.256396364486744 l 4.593787570358988 -7.930379315941047" fill="#ff6e0a" stroke="none" /><path d="M 89.1626897886671 117.98757091392108 l -4.901378161349942 8.135218567521536 a30.497646499102043,30.497646499102043 0 0,0 -0.4473290226111922,-0.27478602153434495 l 5.040686383893443 -8.049644079158814" fill="#ff730a" stroke="none" /><path d="M 88.54995079064634 117.60387380957326 l -2.5740570520632713 3.9574830373783 a25.720957709873456,25.720957709873456 0 0,0 -0.3690654919344915,-0.24459648352801142 l 2.6417972427377245 -3.91258853275897" fill="#ff3004" stroke="none" /><path d="M 87.95078237400918 117.19931262002967 l -3.2131894238543293 4.586575753187061 a26.600112803622153,26.600112803622153 0 0,0 -0.3727469654401394,-0.26594506279578684 l 3.2916637171433556 -4.530586428547055" fill="#ff3d05" stroke="none" /><path d="M 87.36589467227662 116.77436683061367 l -6.120470935917596 8.126180840831363 a31.17324822931726,31.17324822931726 0 0,0 -0.4258433026920193,-0.3265184856142618 l 6.259442967103102 -8.019623013389735" fill="#ff7c0b" stroke="none" /><path d="M 87.07902340077011 116.55440617244103 l -5.288875901594385 6.77612866165605 a29.59582037630978,29.59582037630978 0 0,0 -0.39889881925702014,-0.3169093471346658 l 5.404732213568764 -6.6840854005162536" fill="#ff6709" stroke="none" /><path d="M 86.79598089348748 116.32954008644616 l -0.8763604076712666 1.0838035216250144 a22.39378536282332,22.39378536282332 0 0,0 -0.2976559252248906,-0.24495056214786365 l 0.8948864614408459 -1.06855784061997" fill="#ff0000" stroke="none" /><path d="M 86.51685102203217 116.09983520530335 l -6.062830446550116 7.2394491247299335 a30.442856382110662,30.442856382110662 0 0,0 -0.39885146582500614,-0.33990987207383383 l 6.186547388952178 -7.134014862433148" fill="#ff720a" stroke="none" /><path d="M 85.18274418774928 114.88116024355367 l -6.617952516961234 6.6464946773548315 a30.379402273751758,30.379402273751758 0 0,0 -0.36738733393469086,-0.37216142962419285 l 6.7313804759514575 -6.531592753749974" fill="#ff710a" stroke="none" /><path d="M 84.67929136418377 114.36230785411682 l -4.341138179918553 4.069574355816273 a26.950371092181058,26.950371092181058 0 0,0 -0.3143614383275152,-0.341177254166403 l 4.410546026241797 -3.9942458468485253" fill="#ff4206" stroke="none" /><path d="M 84.43433777217949 114.09645910891817 l -1.8703865923727694 1.6938455769731338 a23.523382421187733,23.523382421187733 0 0,0 -0.2692207995843008,-0.30247242232306565 l 1.8992662416054085 -1.661398984909204" fill="#ff1101" stroke="none" /><path d="M 84.19399662182784 113.82643327865904 l -4.894417488233478 4.281432517749333 a27.50276763794979,27.50276763794979 0 0,0 -0.3086301524484404,-0.359006592666723 l 4.967390150252697 -4.19654882592108" fill="#ff4906" stroke="none" /><path d="M 83.72743513129214 113.27417163493432 l -7.352342138831317 5.997594863320205 a30.488312762075225,30.488312762075225 0 0,0 -0.3282314955797332,-0.40951925863534067 l 7.454491546465912 -5.870147771106605" fill="#ff730a" stroke="none" /><path d="M 83.50135304334701 112.99209946851258 l -4.167959385240481 3.2821202281638606 a26.305110614222535,26.305110614222535 0 0,0 -0.2770719590566978,-0.35815285675672737 l 4.223838161515248 -3.20988937729388" fill="#ff3905" stroke="none" /><path d="M 83.28015986056508 112.70617746262583 l -8.391131011823184 6.376807365334766 a31.539200720745786,31.539200720745786 0 0,0 -0.32476175301445376,-0.43507143997003833 l 8.499654031532723 -6.231423045855419" fill="#ff810b" stroke="none" /><path d="M 83.06392112726016 112.41649034213515 l -8.20475678038859 6.0152225369733445 a31.173540976211015,31.173540976211015 0 0,0 -0.3135467522563238,-0.43548901531010625 l 8.307083325020521 -5.8730999162121" fill="#ff7c0b" stroke="none" /><path d="M 82.44556493220864 111.52570212397912 l -5.067545630513293 3.3271945927859874 a27.062197833756226,27.062197833756226 0 0,0 -0.2523165105798914,-0.3916008276348138 l 5.12406700447023 -3.239472165229725" fill="#ff4306" stroke="none" /><path d="M 82.05923443525364 110.91462005526583 l -8.226278416341925 5.004619399276753 a30.62901199058295,30.62901199058295 0 0,0 -0.27014660852972044,-0.45278125469970315 l 8.311205900569878 -4.862276050690938" fill="#ff750a" stroke="none" /><line stroke="#e1ed5e" stroke-width="0.3" x1="26.63291911575756" x2="22.317208475507996" y1="142.92168965132927" y2="145.44649492493687" /><path d="M 25.769776987707644 143.4266507060508 a86.0,86.0 0 0,1 -11.730757126820373,-40.83630448921669" fill="none" id="id93" stroke="none" /><text fill="#e1ed5e" style="font-size:6.75px; font-family:Arial;" text-anchor="middle"><textPath startOffset="21.46611528233685" xlink:href="#id93">September</textPath></text><path d="M 81.87401531095188 110.60418214915194 l -8.200476041562084 4.797496144141751 a30.500725054504457,30.500725054504457 0 0,0 -0.2612140246170382,-0.45544866971547177 l 8.2818420623315 -4.655627628567972" fill="#ff730a" stroke="none" /><path d="M 81.69416730710424 110.29060199501025 l -8.482836857868286 4.768616612933606 a30.731301329131426,30.731301329131426 0 0,0 -0.25525066285973735,-0.4633540956572948 l 8.563663930179539 -4.621891998878489" fill="#ff760a" stroke="none" /><path d="M 81.18737489456691 109.33194174019688 l -6.3827618899124055 3.1661483585833827 a28.12489612358513,28.12489612358513 0 0,0 -0.2114011076741537,-0.43554889674852554 l 6.436316254201278 -3.0558105058695726" fill="#ff5207" stroke="none" /><path d="M 81.02952815118164 109.00673069616217 l -12.881932053223043 6.116036215349394 a35.260086690175505,35.260086690175505 0 0,0 -0.25559429555585206,-0.550527373891308 l 12.985300965618721 -5.893388774179258" fill="#ffb210" stroke="none" /><path d="M 80.87730276802145 108.67885076344099 l -3.395786334124546 1.5411802247809798 a24.729155576304503,24.729155576304503 0 0,0 -0.1725846769892671,-0.3891328855867024 l 3.421812095845093 -1.4824990027015814" fill="#ff2203" stroke="none" /><path d="M 80.73074385275274 108.34839909993369 l -8.941727743657882 3.8740007022881198 a30.744864107981698,30.744864107981698 0 0,0 -0.20620875918976628,-0.48741659364187123 l 9.007087484039955 -3.71950958298009" fill="#ff760a" stroke="none" /><path d="M 80.58989483394504 108.01547362559985 l -4.295738663287912 1.773940927340791 a25.647605520798997,25.647605520798997 0 0,0 -0.16499640268655869,-0.4095075402115361 l 4.325637680231858 -1.6997340192864492" fill="#ff2f04" stroke="none" /><path d="M 80.45479744820244 107.68017299344265 l -1.4351388089135377 0.5639293986771965 a22.541959716575693,22.541959716575693 0 0,0 -0.13880020669171036,-0.3623635408434411 l 1.4446332951987573 -0.5391422910005976" fill="#ff0200" stroke="none" /><path d="M 80.32549172779594 107.34259656027581 l -8.944514466215118 3.33812465573814 a30.547115546256805,30.547115546256805 0 0,0 -0.17961084124918367,-0.4942118953309256 l 9.000649568469525 -3.183664963401097" fill="#ff740a" stroke="none" /><path d="M 80.20201598880116 107.00284435728193 l -14.464929509435114 5.116462864922515 a36.343154107322846,36.343154107322846 0 0,0 -0.20353753121259208,-0.5915753395102518 l 14.550857871590935 -4.866714822322967" fill="#ffc011" stroke="none" /><path d="M 80.0844068197444 106.66101706037122 l -9.03001507859302 3.0202005006584263 a30.52170065606952,30.52170065606952 0 0,0 -0.16235764168787584,-0.4996854409573762 l 9.080664971297146 -2.8643161597232467" fill="#ff730a" stroke="none" /><path d="M 79.86692584326677 105.97154293290107 l -4.478859920223825 1.3284461228252982 a25.671718665142084,25.671718665142084 0 0,0 -0.12201078793188647,-0.4247355591025119 l 4.501063345041816 -1.2511530882181903" fill="#ff3004" stroke="none" /><path d="M 79.67330655649465 105.27499134158121 l -9.27045015972012 2.405779595239997 a30.577526905455706,30.577526905455706 0 0,0 -0.12782670948273536,-0.5106041631343112 l 9.310488183497915 -2.245847592708294" fill="#ff740a" stroke="none" /><path d="M 79.58551787078972 104.9243191809786 l -9.19238082823639 2.2173580963180433 a30.456032054653534,30.456032054653534 0 0,0 -0.11854565829277386,-0.5106915932971433 l 9.22918705245972 -2.0587978456723253" fill="#ff720a" stroke="none" /><path d="M 79.4281124754447 104.21870165774334 l -9.362518834074129 1.919982970877905 a30.557358083008815,30.557358083008815 0 0,0 -0.10123225952007066,-0.5161811103341167 l 9.394181026569866 -1.7585381334758334" fill="#ff740a" stroke="none" /><path d="M 79.35854240842038 103.8639653848113 l -1.9477463779628406 0.36460722550475916 a22.98157875991787,22.98157875991787 0 0,0 -0.06944109204661546,-0.38946252186679114 l 1.9537339123486448 -0.33102595290475434" fill="#ff0901" stroke="none" /><path d="M 79.29508885075956 103.50808413554451 l -6.38584033001527 1.0819686688039087 a27.47685208420903,27.47685208420903 0 0,0 -0.07499642653053205,-0.46700281959531015 l 6.403518510907093 -0.9718866195153848" fill="#ff4906" stroke="none" /><path d="M 79.23777060512086 103.15116336523772 l -8.401746395417874 1.2751653467324098 a29.497963824024225,29.497963824024225 0 0,0 -0.07187101486353482,-0.5026657105612099 l 8.422451461298008 -1.1303541641907995" fill="#ff6509" stroke="none" /><path d="M 79.18660465613746 102.79330883721812 l -2.398020615922571 0.32183178513749766 a23.419520318640547,23.419520318640547 0 0,0 -0.05018300326198091,-0.4000079114953169 l 2.4032051284314 -0.28050611935477215" fill="#ff0f01" stroke="none" /><path d="M 79.1416061653843 102.43462659150553 l -9.459991085300553 1.104185971091208 a30.52421429792088,30.52421429792088 0 0,0 -0.05642284512066543,-0.5224054709642804 l 9.47759623192227 -0.9411841782421456" fill="#ff730a" stroke="none" /><path d="M 79.0235259727143 100.99374915477108 l -9.438671514076304 0.44715197735683937 a30.449257369840744,30.449257369840744 0 0,0 -0.020296412354410657,-0.5237602177863439 l 9.444970059281916 -0.2846145125564987" fill="#ff720a" stroke="none" /><line stroke="#e1ed5e" stroke-width="0.3" x1="15.007084014347285" x2="10.007500721073583" y1="101.09737516637583" y2="101.16192664675087" /><path d="M 14.007167355692545 101.11028546245083 a86.0,86.0 0 0,1 10.666146001902534,-42.60595125391555" fill="none" id="id94" stroke="none" /><text fill="#e1ed5e" style="font-size:6.75px; font-family:Arial;" text-anchor="middle"><textPath startOffset="22.20632615414155" xlink:href="#id94">October</textPath></text><path d="M 79.00175016825051 100.2711162175752 l -9.349089624013429 0.12070957517619596 a30.3498688546618,30.3498688546618 0 0,0 -0.0022483511066869258,-0.522437615653415 l 9.349782272409618 0.04023751868089441" fill="#ff710a" stroke="none" /><path d="M 79.00019446554 99.90962569577889 l -9.341038762958773 -0.040199890304680436 a30.341125264243,30.341125264243 0 0,0 0.00674294360232014,-0.5222484129842488 l 9.338962812238737 0.20098456134940126" fill="#ff710a" stroke="none" /><path d="M 79.00486145842228 99.54816195383935 l -9.56558138709945 -0.2058616377204858 a30.567796313002717,30.567796313002717 0 0,0 0.015849119336837136,-0.5259551112057177 l 9.560620573306966 0.37048689635119786" fill="#ff740a" stroke="none" /><path d="M 79.01574976396665 99.18683210126434 l -9.359060647077557 -0.3626761783204037 a30.36608510563495,30.36608510563495 0 0,0 0.02473591182056706,-0.5221360031897738 l 9.351431127023492 0.5237232881331867" fill="#ff710a" stroke="none" /><path d="M 79.03285615573316 98.82574320788736 l -11.390108679007605 -0.6378986369611344 a32.40795732770075,32.40795732770075 0 0,0 0.03598735293505613,-0.5567084215258682 l 11.377440735068136 0.8338661227400144" fill="#ff8d0d" stroke="none" /><path d="M 79.05617556472873 98.46500227214037 l -7.094587625202777 -0.5199707397492936 a28.113616741283987,28.113616741283987 0 0,0 0.039527097427963724,-0.48233070708757286 l 7.0845860439553165 0.642015364044645" fill="#ff5207" stroke="none" /><path d="M 79.08570108090925 98.10471618934814 l -9.436470182137946 -0.8551464830398694 a30.47513825787434,30.47513825787434 0 0,0 0.051840930181083315,-0.522031092215379 l 9.420352126274635 1.0174531059596787" fill="#ff730a" stroke="none" /><path d="M 79.12142395522702 97.74499172005258 l -9.293512797631383 -1.0037537168969313 a30.34756126719278,30.34756126719278 0 0,0 0.060564551424286066,-0.5188800904550219 l 9.274857893203508 1.163577545676815" fill="#ff710a" stroke="none" /><path d="M 79.16333360222342 97.38593545837743 l -9.460307186521524 -1.1868430917424426 a30.53446425279195,30.53446425279195 0 0,0 0.0699152003761803,-0.5209494512694138 l 9.438475987087509 1.3495108850765158" fill="#ff730a" stroke="none" /><path d="M 79.21141760316559 97.0276538004421 l -9.373392311957973 -1.3402052378355573 a30.46871868382384,30.46871868382384 0 0,0 0.07870230585967923,-0.5185498619940138 l 9.348934112658991 1.5013542122216632" fill="#ff730a" stroke="none" /><path d="M 79.26566170972629 96.67025291283419 l -9.530325890332666 -1.530484090151169 a30.65243456989743,30.65243456989743 0 0,0 0.08814492683567948,-0.5202363477824121 l 9.502569101976764 1.694306226249409" fill="#ff750a" stroke="none" /><path d="M 79.32604984820605 96.31383870115002 l -9.291792897374322 -1.6567248698845445 a30.43833420377716,30.43833420377716 0 0,0 0.0964087507120922,-0.5150194013391824 l 9.261898422752367 1.8164223486862998" fill="#ff720a" stroke="none" /><path d="M 79.3925641242962 95.95851677861259 l -9.425035466778768 -1.8484164128773122 a30.604578948888488,30.604578948888488 0 0,0 0.10583457483301988,-0.516086973270023 l 9.391821596030754 2.0103790423107375" fill="#ff740a" stroke="none" /><path d="M 79.46518482838121 95.60439243477599 l -39.019462207949445 -8.352363624352705 a60.90338844147205,60.90338844147205 0 0,0 0.2282589771875751,-1.023240237644287 l 38.86990884375984 9.022782031546951" fill="#30ff37" stroke="none" /><path d="M 79.54389044137918 95.25157060432595 l -9.437181629527936 -2.1906311429135124 a30.688098983443663,30.688098983443663 0 0,0 0.12387353410216458,-0.5135357711943026 l 9.398075295164958 2.352752145767212" fill="#ff760a" stroke="none" /><path d="M 79.62865764111835 94.90015583598534 l -9.448253959704958 -2.3653140754134823 a30.73982615668419,30.73982615668419 0 0,0 0.13291852250933317,-0.5121892881062062 l 9.406139105325318 2.5275997890685526" fill="#ff760a" stroke="none" /><path d="M 79.71946130924805 94.55025226153421 l -9.132592404901795 -2.4540928406225695 a30.456575262983154,30.456575262983154 0 0,0 0.14040949565228997,-0.5051276619365371 l 9.088996138683145 2.610931805978049" fill="#ff720a" stroke="none" /><path d="M 79.81627453868168 94.20196356495316 l -9.118679018942107 -2.6194585976037295 a30.48745858462924,30.48745858462924 0 0,0 0.14923480735956912,-0.5031455818197355 l 9.07223831447083 2.776033566170004" fill="#ff730a" stroke="none" /><path d="M 79.91906864156998 93.8553929516997 l -9.129669900789436 -2.793607179853028 a30.547518712875455,30.547518712875455 0 0,0 0.1581845306911134,-0.5014881901118954 l 9.08022988633012 2.950345536391338" fill="#ff740a" stroke="none" /><path d="M 80.02781315780177 93.51064311812611 l -9.17351298436085 -2.9806550522671467 a30.645602366614682,30.645602366614682 0 0,0 0.1673289381595341,-0.5002922270677549 l 9.120846752429543 3.138120382257224" fill="#ff750a" stroke="none" /><path d="M 80.14247586403 93.16781622104843 l -9.005699485719344 -3.098502790334826 a30.523830257244107,30.523830257244107 0 0,0 0.17521684282833788,-0.4953616096295247 l 8.951029562081196 3.2530620263909618" fill="#ff730a" stroke="none" /><path d="M 80.2630227832202 92.82701384747504 l -9.019268707803485 -3.277862097949537 a30.59643621125766,30.59643621125766 0 0,0 0.18415472120502926,-0.49344309686240984 l 8.961509398096828 3.4326283318412885" fill="#ff740a" stroke="none" /><path d="M 80.38941819471856 92.48833698450439 l -9.01651078224367 -3.453696134275667 a30.655334467237633,30.655334467237633 0 0,0 0.1929920451001394,-0.49114370413120495 l 8.955725187261839 3.6083888433026354" fill="#ff750a" stroke="none" /><path d="M 80.52162464483688 92.15188598940014 l -9.042541846673682 -3.643368508118621 a30.748933128029712,30.748933128029712 0 0,0 0.2020326630025995,-0.4892381185478731 l 8.978487496784883 3.7984811971198056" fill="#ff760a" stroke="none" /><path d="M 80.65960295795068 91.81776055985345 l -8.838529060679111 -3.7392697221228817 a30.59696483328214,30.59696483328214 0 0,0 0.20938419510283032,-0.48328759086921075 l 8.772854155733599 3.8908564575786917" fill="#ff740a" stroke="none" /><path d="M 80.803312248108 91.48605970444005 l -8.72062013527864 -3.8676901000643986 a30.539824015880136,30.539824015880136 0 0,0 0.2172656642056896,-0.47871609142210003 l 8.652752154109598 4.017228200328569" fill="#ff730a" stroke="none" /><path d="M 80.95270993114464 91.15688171328213 l -9.596990028508229 -4.455611150549894 a31.580864252611452,31.580864252611452 0 0,0 0.23315972541730207,-0.4910938448722412 l 9.518872109249175 4.620147411062667" fill="#ff820b" stroke="none" /><path d="M 81.10775173730289 90.83032412892265 l -8.742902578093032 -4.2435173251356755 a30.71832211746207,30.71832211746207 0 0,0 0.2349805174781905,-0.47370638453049374 l 8.66856204766143 4.39338329816513" fill="#ff760a" stroke="none" /><path d="M 81.26839172434947 90.50648371742162 l -8.613878598998413 -4.365668741965238 a30.65701652079229,30.65701652079229 0 0,0 0.24261461681953428,-0.4686542170138033 l 8.537454549018765 4.513295681239377" fill="#ff750a" stroke="none" /><path d="M 81.43458229118936 90.18545643968196 l -8.504406990035129 -4.495825204016925 a30.619635259053858,30.619635259053858 0 0,0 0.2503401608982884,-0.46384229806326477 l 8.425758729918368 4.641548485412663" fill="#ff750a" stroke="none" /><path d="M 81.6062741919709 89.86733742301443 l -16.741348356824023 -9.222407453166554 a40.11349115250159,40.11349115250159 0 0,0 0.33837135422615927,-0.6019248826780178 l 16.580119361305435 9.509215845779357" fill="#fff016" stroke="none" /><line stroke="#e1ed5e" stroke-width="0.3" x1="26.266209847984243" x2="21.928928074336255" y1="57.711370442889674" y2="55.22380399835377" /><path d="M 25.398753493254645 57.213857153982495 a86.0,86.0 0 0,1 29.58750427330803,-30.492523968695096" fill="none" id="id95" stroke="none" /><text fill="#e1ed5e" style="font-size:6.75px; font-family:Arial;" text-anchor="middle"><textPath startOffset="21.46611528233685" xlink:href="#id95">November</textPath></text><path d="M 82.15384107792192 88.93136811851018 l -3.9780922960076563 -2.4673118404558116 a25.681115896194935,25.681115896194935 0 0,0 0.23623251851209495,-0.3736631129241055 l 3.9350321812495985 2.5354226010941328" fill="#ff3004" stroke="none" /><path d="M 82.7489923806493 88.02491185347247 l -33.16196279073254 -23.019955488596246 a61.368727089553886,61.368727089553886 0 0,0 0.6098513753471319,-0.8625915212003399 l 32.76079879558153 23.587373510128373" fill="#31ff3d" stroke="none" /><path d="M 82.95767976084542 87.72973835380427 l -3.955935197770448 -2.8482248456121257 a25.874608503266835,25.874608503266835 0 0,0 0.26335101065337047,-0.359210482571382 l 3.906321574603444 2.9158977718550085" fill="#ff3204" stroke="none" /><path d="M 83.84228863543731 86.58626213691792 l -3.2607342644549338 -2.7069820519567145 a25.237940510791326,25.237940510791326 0 0,0 0.2803687456481411,-0.33186816199275254 l 3.2136549053196686 2.762709163578583" fill="#ff2904" stroke="none" /><path d="M 84.31358615837235 86.03803664274999 l -7.989012468954465 -7.110758423072553 a31.695195443768533,31.695195443768533 0 0,0 0.3662400350641805,-0.4044113941002117 l 7.86542879327424 7.247222604442321" fill="#ff830c" stroke="none" /><path d="M 84.5562425177563 85.77008943001954 l -4.423855979107795 -4.076150187514575 a27.015438643612192,27.015438643612192 0 0,0 0.31805234495252743,-0.33927606603690963 l 4.353036312184812 4.151695670429535" fill="#ff4306" stroke="none" /><path d="M 84.80347519578584 85.50635884689758 l -6.3733642101479795 -6.078577503081147 a29.80731944556114,29.80731944556114 0 0,0 0.3573127384602234,-0.3682421856596951 l 6.267787207984638 6.187383884290965" fill="#ff6909" stroke="none" /><path d="M 85.05521093208273 85.24692304244772 l -7.424463842068258 -7.329222642943739 a31.43264913107012,31.43264913107012 0 0,0 0.3834247339658179,-0.3817781863061895 l 7.297203307935127 7.455936679900038" fill="#ff800b" stroke="none" /><path d="M 85.31137513191541 84.99185889309783 l -5.7029837360868125 -5.827038637737382 a29.15342889708097,29.15342889708097 0 0,0 0.36166460637348846,-0.3479210647848001 l 5.601835886100896 5.924342789284496" fill="#ff6008" stroke="none" /><path d="M 85.57189188830299 84.74124197986013 l -5.520833739519524 -5.83867721593084 a29.035530897908803,29.035530897908803 0 0,0 0.36611331769510064,-0.3402624283268204 l 5.419512538029568 5.932844230332308" fill="#ff5f08" stroke="none" /><path d="M 86.37877921826538 84.01681056812374 l -3.7816128667778877 -4.437358132303506 a26.830158065481598,26.830158065481598 0 0,0 0.3540845757163791,-0.2965356492352071 l 3.704670754102398 4.501794938932525" fill="#ff4006" stroke="none" /><path d="M 86.65592168130627 83.78471172551755 l -6.912924409193834 -8.400360027694848 a31.879088770762067,31.879088770762067 0 0,0 0.4267192147772292,-0.3450439286842677 l 6.767301795852104 8.51811005364325" fill="#ff860c" stroke="none" /><path d="M 87.80319425747018 82.90503203632743 l -6.135820774735349 -8.599928685359307 a31.56442473459581,31.56442473459581 0 0,0 0.44501158385090994,-0.3117590533043757 l 5.986878051300779 8.704272581427626" fill="#ff810b" stroke="none" /><line stroke="#e1ed5e" stroke-width="0.3" x1="56.762969772571076" x2="54.21961505331055" y1="26.818313649435495" y2="22.513508569990535" /><path d="M 56.25429882871897 25.957352633546506 a86.0,86.0 0 0,1 42.265352541879196,-11.944610805530505" fill="none" id="id96" stroke="none" /><text fill="#e1ed5e" style="font-size:6.75px; font-family:Arial;" text-anchor="middle"><textPath startOffset="22.20632615414155" xlink:href="#id96">December</textPath></text><path d="M 89.94658935756843 81.56283822128135 l -5.129379780784809 -9.406877745913343 a31.714470862440372,31.714470862440372 0 0,0 0.4815388633915639,-0.25722138407685735 l 4.966695870864941 9.49377785649195" fill="#ff830c" stroke="none" /><path d="M 90.26544431104013 81.39251694778311 l -5.294403259256354 -10.120186484724991 a32.421421993658875,32.421421993658875 0 0,0 0.4967263097104161,-0.25444250878821534 l 5.119416461957175 10.209821518825711" fill="#ff8d0d" stroke="none" /><path d="M 91.23893434514133 80.91482961587045 l -4.290723803391902 -9.34694454818531 a31.28473058197661,31.28473058197661 0 0,0 0.4913458840421544,-0.2204525757809685 l 4.129195800882973 9.419417454482808" fill="#ff7e0b" stroke="none" /><path d="M 94.63758080256005 79.69619591428918 l -1.2365922344077631 -4.6821267672085565 a25.84267192966945,25.84267192966945 0 0,0 0.4310694414091849,-0.10988919877669069 l 1.1558139043135789 4.702718962154111" fill="#ff3204" stroke="none" /><path d="M 96.04723909329186 79.375362276772 l -1.7869268116526604 -9.323791394949719 a30.493481627239902,30.493481627239902 0 0,0 0.5163633733907521,-0.09436210597554069 l 1.626168317159015 9.353168982275996" fill="#ff730a" stroke="none" /><path d="M 96.40284397218896 79.31037775812273 l -1.7572841983876635 -10.107303090320888 a31.258928965224058,31.258928965224058 0 0,0 0.5309117623464117,-0.08760498981467496 l 1.5830432299023662 10.136054343075191" fill="#ff7d0b" stroke="none" /><path d="M 96.75951476605007 79.25152402106235 l -0.9602364911888622 -6.148290250730822 a27.22282308331535,27.22282308331535 0 0,0 0.46360599880459924,-0.06832347300956272 l 0.8542615119556142 6.163908207901354" fill="#ff4606" stroke="none" /><path d="M 98.19473922651362 79.07773832637324 l -0.20329134881043245 -2.3560667014230057 a23.364820854537495,23.364820854537495 0 0,0 0.400995745703183,-0.031124987496154152 l 0.16270541374491523 2.359216951107622" fill="#ff0e01" stroke="none" /><path d="M 98.55514903715128 79.0497635885617 l -0.6437527466125916 -9.334369134831439 a30.356541281053865,30.356541281053865 0 0,0 0.5216091504843278,-0.031464888410014644 l 0.48298154728864084 9.34406729262176" fill="#ff710a" stroke="none" /><path d="M 98.91598698831166 79.02799685794201 l -0.5005949512496266 -9.684827375046245 a30.697756265738057,30.697756265738057 0 0,0 0.5279417190690174,-0.022734280978021118 l 0.3338123997912851 9.692009382548457" fill="#ff760a" stroke="none" /><path d="M 99.27714615592234 79.0124445844662 l -0.16385701412131917 -4.757473716534067 a25.76029466363052,25.76029466363052 0 0,0 0.4432897314746459,-0.011448865931891778 l 0.08194064745179427 4.759589374608318" fill="#ff3104" stroke="none" /><path d="M 99.63851952072746 79.00311137660856 l -0.2300047751971033 -13.360015061893879 a34.3619947856091,34.3619947856091 0 0,0 0.5914852544696357,-0.005091100323779333 l 3.2727448288839613e-15 13.361994785609099" fill="#ffa70f" stroke="none" /></svg>