<?xml version="1.0" encoding="utf-8" ?>
<svg baseProfile="full" height="200mm" version="1.1" viewBox="0,0,200,200" width="200mm" xmlns="http://www.w3.org/2000/svg" xmlns:ev="http://www.w3.org/2001/xml-events" xmlns:xlink="http://www.w3.org/1999/xlink"><defs /><rect fill="#1a1a1a" height="200" width="200" x="0" y="0" /><text alignment-baseline="middle" fill="#e1ed5e" style="dominant-baseline: central; font-size:9.0px; font-family:Arial;" text-anchor="middle" x="100.0" y="100.0">2024</text><line stroke="#e1ed5e" stroke-width="0.3" x1="100.0" x2="100.0" y1="15.0" y2="10.0" /><path d="M 100.0 14.0 a86.0,86.0 0 0,1 42.35913384403234,11.155469271406648" fill="none" id="id121" stroke="none" /><text fill="#e1ed5e" style="font-size:6.75px; font-family:Arial;" text-anchor="middle"><textPath startOffset="22.145653131862478" xlink:href="#id121">January</textPath></text><path d="M 100.0 79.0 l 0.0 -8.682129253348549 a29.68212925334855,29.68212925334855 0 0,0 0.5095332185848273,0.004373729865168829 l -0.1490402937359725 8.680849921677815" fill="#ff6f0a" stroke="none" /><path d="M 101.08105385017728 79.02784411241856 l 0.41956745847002824 -8.139496605970958 a29.15030317539291,29.15030317539291 0 0,0 0.499519106415055,0.030049829026564973 l -0.5592309170175456 8.131094799119703" fill="#ff6809" stroke="none" /><path d="M 102.15924093988457 79.11130261209362 l 0.8862622117558092 -8.573782946470708 a29.619467194738792,29.619467194738792 0 0,0 0.5053138909327559,0.05662147546292925 l -1.0333120042893618 8.557305710500808" fill="#ff6e0a" stroke="none" /><path d="M 104.9986988182912 79.60360301121754 l 1.9430817561059164 -7.928436643187272 a29.163067702521296,29.163067702521296 0 0,0 0.4852105470747809,0.12333862366532486 l -2.0788975964060916 7.89391278768668" fill="#ff6809" stroke="none" /><path d="M 106.04205211174951 79.88797359093562 l 2.348363577353904 -7.816938585150808 a29.162067160680678,29.162067160680678 0 0,0 0.47820147579081024,0.14814803958634043 l -2.4822056860163446 7.7754739577578205" fill="#ff6809" stroke="none" /><path d="M 106.38641147887787 79.99465700312896 l 2.836927444258866 -8.886634813202992 a30.328474453372348,30.328474453372348 0 0,0 0.4946101381957783,0.16258817663061842 l -2.989060320102386 8.836625715170351" fill="#ff780b" stroke="none" /><path d="M 106.72888874123014 80.10723608172694 l 2.623671124995968 -7.756417485243371 a29.1881415704375,29.1881415704375 0 0,0 0.47325684426032494,0.16462329704821435 l -2.7564337413013114 7.710235755626567" fill="#ff6809" stroke="none" /><path d="M 107.40779381753099 80.34994680014964 l 2.9005969818783854 -7.694178106084584 a29.222763500152084,29.222763500152084 0 0,0 0.4678811264449004,0.18098647094025871 l -3.032250370816812 7.643251747006286" fill="#ff6909" stroke="none" /><path d="M 107.74402155503746 80.48000691201159 l 3.035545635407696 -7.651557966401469 a29.231699497542685,29.231699497542685 0 0,0 0.4648474113821926,0.18904939541004553 l -3.1664475079803287 7.5983213144121295" fill="#ff6909" stroke="none" /><path d="M 108.4095320186766 80.7573450057729 l 3.891361992410828 -8.904197773587121 a30.71737804899724,30.71737804899724 0 0,0 0.48136559120674377,0.2153087062236392 l -4.0436409864732035 8.836085316453628" fill="#ff7d0b" stroke="none" /><path d="M 108.73861861582097 80.90454125486305 l 10.858981666259258 -23.728834674949557 a47.09549918777648,47.09549918777648 0 0,0 0.7322481909840185,0.34272912675918465 l -11.26471857111478 23.53892931661984" fill="#b7ff1f" stroke="none" /><path d="M 109.3889696526874 81.21577127319529 l 4.737363617766873 -9.477900669612364 a31.595905584232984,31.595905584232984 0 0,0 0.4830754851621492,0.24666178477290002 l -4.899366324642601 9.39518093316663" fill="#ff890c" stroke="none" /><path d="M 110.02825361518725 81.54914285379988 l 3.992783054424579 -7.346271103613374 a29.361220942391423,29.361220942391423 0 0,0 0.44077597832960563,0.24449100502472593 l -4.118303220910285 7.276647183155501" fill="#ff6b09" stroke="none" /><path d="M 110.34350942703115 81.72400993836675 l 4.078779540061381 -7.206812626181443 a29.280977645502468,29.280977645502468 0 0,0 0.43532103663510463,0.2513327176851846 l -4.201893044556884 7.135733011220086" fill="#ff6909" stroke="none" /><line stroke="#e1ed5e" stroke-width="0.3" x1="143.13028292997686" x2="145.6673583964461" y1="26.7553504044142" y2="22.446841604673864" /><path d="M 143.63769802327073 25.89364864446614 a86.0,86.0 0 0,1 29.32050498858742,28.57503671076993" fill="none" id="id122" stroke="none" /><text fill="#e1ed5e" style="font-size:6.75px; font-family:Arial;" text-anchor="middle"><textPath startOffset="20.669276256404974" xlink:href="#id122">February</textPath></text><path d="M 110.96478420261332 82.08984904055464 l 4.307191285417634 -7.0354732667380135 a29.249229106781,29.249229106781 0 0,0 0.42597445076674595,0.2658395622126111 l -4.427329864974093 6.960497907683857" fill="#ff6909" stroke="none" /><path d="M 111.8722381534696 82.67804972795209 l 4.707564261739562 -6.868476945140438 a29.326892386979267,29.326892386979267 0 0,0 0.41281777858142554,0.28817887049420643 l -4.8247771314947485 6.786653258841105" fill="#ff6a09" stroke="none" /><path d="M 112.16784306229584 82.88440491214696 l 4.789646603043649 -6.737237771058025 a29.2662619947482,29.2662619947482 0 0,0 0.4069668694208149,0.29461262907063185 l -4.904594482838432 6.6540243706143185" fill="#ff6909" stroke="none" /><path d="M 112.7482090630111 83.31218511350987 l 5.800447353948 -7.592971783179438 a30.555020146817142,30.555020146817142 0 0,0 0.41407880358354643,0.32199018219981823 l -5.9299361021667725 7.492280549358829" fill="#ff7b0b" stroke="none" /><path d="M 113.03279911837588 83.53348406188908 l 5.339796452071772 -6.7466583798051625 a29.60411677299614,29.60411677299614 0 0,0 0.39577776087293365,0.3188105485215361 l -5.4548249832999645 6.653999537490218" fill="#ff6e0a" stroke="none" /><path d="M 113.86319453409587 84.22622945171908 l 7.374944705709135 -8.391333275170108 a32.171583752863526,32.171583752863526 0 0,0 0.4116966522321574,0.3681416850735289 l -7.517906384764667 8.263496060213193" fill="#ff900d" stroke="none" /><path d="M 114.13192950727249 84.46653392183569 l 6.559834624639595 -7.210407366366298 a30.747892320474712,30.747892320474712 0 0,0 0.38737985251626555,0.3585530082436613 l -6.682644248469826 7.096736611990262" fill="#ff7d0b" stroke="none" /><path d="M 114.39649973595853 84.71141617570332 l 5.641640836852499 -5.991227063711814 a29.22939323771775,29.22939323771775 0 0,0 0.36234358482096757,0.34711695771499573 l -5.743656907538779 5.893497975691238" fill="#ff6909" stroke="none" /><path d="M 114.91283532996326 85.21462403516908 l 5.813625247044861 -5.7639364409452725 a29.186647776002964,29.186647776002964 0 0,0 0.3497021814573643,0.3588252452559748 l -5.911714229653037 5.663288503621556" fill="#ff6809" stroke="none" /><path d="M 115.16444852881244 85.47280134310134 l 8.713626323103606 -8.347456907331441 a33.06678584041498,33.06678584041498 0 0,0 0.3891553913119526,0.4132695398096841 l -8.855637548151819 8.196645907577263" fill="#ff9c0e" stroke="none" /><path d="M 116.1254893667686 86.54754324733833 l 1.9252932170691286 -1.6061480771051744 a23.50728251644705,23.50728251644705 0 0,0 0.25584115191381773,0.31208460614544253 l -1.952581188221574 1.5728611892612367" fill="#ff1902" stroke="none" /><path d="M 116.35404254752997 86.82634096563983 l 6.398466655462016 -5.15415181395076 a29.21618259669971,29.21618259669971 0 0,0 0.31126861025655156,0.3932777207159084 l -6.486001696360128 5.043554149320173" fill="#ff6909" stroke="none" /><path d="M 116.57777611688842 87.10902102172516 l 0.6309153543946124 -0.4906035956346558 a21.799215911040648,21.799215911040648 0 0,0 0.22717691892179906,0.29738187934570287 l -0.6392442506707183 0.47970080304807095" fill="#ff0000" stroke="none" /><path d="M 116.7966241395341 87.39550010848427 l 5.861046759479937 -4.3982387550217945 a28.32778092351197,28.32778092351197 0 0,0 0.28853595853385894,0.3914544426865093 l -5.935684737597621 4.2969780030664095" fill="#ff5c08" stroke="none" /><path d="M 117.21940702142032 87.97951657250589 l 6.7644156996794305 -4.7220875093741 a29.24957151640353,29.24957151640353 0 0,0 0.2838744223236751,0.41418126586013776 l -6.84447985881843 4.605271508443914" fill="#ff6909" stroke="none" /><path d="M 117.62189284568427 88.57770195909679 l 8.285594897568908 -5.370622508886564 a30.87393887663778,30.87393887663778 0 0,0 0.284455283926336,0.44721095309903514 l -8.376567873121134 5.227597881108857" fill="#ff7f0b" stroke="none" /><path d="M 117.81537515405839 88.88188828441811 l 9.647589056767574 -6.0208091040245355 a32.37216412453523,32.37216412453523 0 0,0 0.2901656356259555,0.47396375900089677 l -9.749522656848931 5.854308228899083" fill="#ff930d" stroke="none" /><line stroke="#e1ed5e" stroke-width="0.3" x1="172.87174338648825" x2="177.1583165268699" y1="56.24261187166439" y2="53.66864786411523" /><path d="M 173.72905801456457 55.72781907015455 a86.0,86.0 0 0,1 12.242430191666344,42.057860355516425" fill="none" id="id123" stroke="none" /><text fill="#e1ed5e" style="font-size:6.75px; font-family:Arial;" text-anchor="middle"><textPath startOffset="22.145653131862474" xlink:href="#id123">March</textPath></text><path d="M 118.36410011445183 89.81374322990088 l 4.041165399929523 -2.2415663254704037 a25.62121600675303,25.62121600675303 0 0,0 0.21003864209868522,0.38644744431629274 l -4.079049391643549 2.1718640476795077" fill="#ff3705" stroke="none" /><path d="M 118.53625476483649 90.13048839642627 l 15.639775504740575 -8.327299542415776 a38.7185353657632,38.7185353657632 0 0,0 0.3073365441229033,0.589358347197979 l -15.780420117838423 8.0575949521133" fill="#ffe415" stroke="none" /><path d="M 118.70294669586156 90.45014215332178 l 2.8408109306001275 -1.450538302743699 a24.18971285716187,24.18971285716187 0 0,0 0.18566190560478626,0.37144818118956424 l -2.8652927494166507 1.4015582653903844" fill="#ff2203" stroke="none" /><path d="M 118.8641267826498 90.77261029715802 l 7.4070384823679305 -3.6231536931578767 a29.245693528353026,29.245693528353026 0 0,0 0.2167255489694904,0.45287304304075787 l -7.468143289297333 3.4954681480520153" fill="#ff6909" stroke="none" /><path d="M 119.0197475246899 91.09779779509293 l 18.819479627243872 -8.808466716783387 a41.77888108972492,41.77888108972492 0 0,0 0.29845148592534554,0.6521703586644957 l -18.967915578024268 8.484107375904207" fill="#f5ff19" stroke="none" /><path d="M 119.16976305983485 91.42560881287824 l 3.6977768577240173 -1.6539685546371468 a25.0508228385413,25.0508228385413 0 0,0 0.17221381168956323,0.3940589031855055 l -3.725624551430551 1.5902475816757917" fill="#ff2f04" stroke="none" /><path d="M 119.31412917781788 91.75594674310238 l 3.9359649842045235 -1.6800294048117306 a25.279523239557903,25.279523239557903 0 0,0 0.16693412075076375,0.4005811195689801 l -3.9642249494917703 1.6122157758014726" fill="#ff3204" stroke="none" /><path d="M 119.58574465831526 92.42381321644754 l 11.372290508283033 -4.399046273228813 a33.19346544337551,33.19346544337551 0 0,0 0.2010090620125266,0.5332004183014121 l -11.44613025411 4.203177574733243" fill="#ff9e0e" stroke="none" /><path d="M 119.71291397450082 92.76114493625339 l 15.969626548560248 -5.864268071007747 a38.012307665602606,38.012307665602606 0 0,0 0.21967462831118312,0.6144690323698 l -16.067941346915372 5.5892640822570305" fill="#ffdb14" stroke="none" /><path d="M 119.94978838288452 93.4421083053983 l 12.665728951068512 -4.163476679559581 a34.33248768696868,34.33248768696868 0 0,0 0.17924057360164905,0.5614685439102005 l -12.735334240447418 3.9454391019579935" fill="#ffac10" stroke="none" /><path d="M 120.26092885502905 94.47779374421319 l 2.922342199665713 -0.7964973615974258 a24.028942386209863,24.028942386209863 0 0,0 0.10505284172338814,0.39890275119693164 l -2.9355845221938313 0.7462141060276956" fill="#ff2003" stroke="none" /><path d="M 120.43855184770803 95.1765574152323 l 7.866025193489246 -1.8563605275872996 a29.082105341616856,29.082105341616856 0 0,0 0.1104969585379427,0.4868699873752825 l -7.896733013584854 1.7210562062729908" fill="#ff6709" stroke="none" /><path d="M 120.51834098615036 95.52812308129327 l 7.907285333909236 -1.72335603537366 a29.092905373011284,29.092905373011284 0 0,0 0.10216083052266337,0.48887655668791175 l -7.935703875256266 1.5873630274003436" fill="#ff6709" stroke="none" /><path d="M 120.65975698304385 96.23510406497455 l 9.874826206159796 -1.799522282530564 a31.03745351407339,31.03745351407339 0 0,0 0.09102129710669062,0.5249866537429573 l -9.90426232075872 1.629742595867014" fill="#ff810b" stroke="none" /><path d="M 120.86939407059847 97.66154086499901 l 4.877406544110698 -0.546523576564107 a25.90793058388913,25.90793058388913 0 0,0 0.04573071440456392,0.44240317830430353 l -4.886069650996928 0.462715875976872" fill="#ff3b05" stroke="none" /><path d="M 120.93736805541906 98.37931529534042 l 4.844084483701917 -0.3749627751699448 a25.858575055302204,25.858575055302204 0 0,0 0.030458986513524227,0.44286697907800665 l -4.8498074313805075 0.29175237193760395" fill="#ff3a05" stroke="none" /><path d="M 120.98066250479742 99.09900007780936 l 2.9889289547068327 -0.1283574698848727 a23.991683796185708,23.991683796185708 0 0,0 0.014138314116687853,0.4116215892535345 l -2.9906919558203686 0.07702961606721828" fill="#ff2003" stroke="none" /><path d="M 120.99303781780057 99.45929381324524 l 2.9751057244672965 -0.07662817003573201 a23.976092395776902,23.976092395776902 0 0,0 0.00706560418037946,0.41153602128897143 l -2.975982760246342 0.02554523277769418" fill="#ff1f03" stroke="none" /><line stroke="#e1ed5e" stroke-width="0.3" x1="184.99686870605535" x2="189.99668451229388" y1="99.2704041080226" y2="99.22748670261217" /><path d="M 185.99683186730306 99.26182062694052 a86.0,86.0 0 0,1 -10.086455211305974,41.156179273409016" fill="none" id="id124" stroke="none" /><text fill="#e1ed5e" style="font-size:6.75px; font-family:Arial;" text-anchor="middle"><textPath startOffset="21.40746469413373" xlink:href="#id124">April</textPath></text><path d="M 120.99922638620191 99.81974689727618 l 62.99767915860572 -0.5407593081714844 a84.0,84.0 0 0,0 0.0,1.442024821790615 l -62.99767915860572 -0.5407593081714768" fill="#4dd2ff" stroke="none" /><path d="M 120.99922638620191 100.18025310272382 l 14.138959728055308 0.12136596431684767 a35.13948060887897,35.13948060887897 0 0,0 -0.010355384730253062,0.6031492455578786 l -14.134792911726386 -0.3640621258437973" fill="#ffb711" stroke="none" /><path d="M 120.99303781780057 100.54070618675476 l 4.454183834677231 0.11472397550348062 a25.455661031054234,25.455661031054234 0 0,0 -0.01500103680769005,0.43673881908896817 l -4.4515581108726945 -0.19116905915655946" fill="#ff3405" stroke="none" /><path d="M 120.98066250479742 100.90099992219065 l 3.646161121046975 0.1565818470034817 a24.649521721465096,24.649521721465096 0 0,0 -0.021783616371718037,0.4225963380714477 l -3.6429359152186844 -0.21914997845166007" fill="#ff2904" stroke="none" /><path d="M 120.86939407059847 102.33845913500097 l 8.051806504421489 0.9022217132816256 a29.102196739438078,29.102196739438078 0 0,0 -0.059892201349492025,0.4959933442125643 l -8.035132216812332 -1.0403087344175985" fill="#ff6709" stroke="none" /><path d="M 120.82617615685814 102.69636545807757 l 5.752488699095051 0.7447748309337968 a26.800501338850697,26.800501338850697 0 0,0 -0.0629881761972244,0.45575106543823135 l -5.738856006342616 -0.8434142045721132" fill="#ff4706" stroke="none" /><path d="M 120.65975698304385 103.76489593502545 l 17.52833423101954 3.194246396426397 a38.81700622875275,38.81700622875275 0 0,0 -0.12509003495267704,0.6545239208898668 l -17.470917903784702 -3.4946728823495787" fill="#ffe515" stroke="none" /><path d="M 120.51834098615036 104.47187691870673 l 16.45129406728967 3.585482972138302 a37.837480946743014,37.837480946743014 0 0,0 -0.1437628574080441,0.6334456757672126 l -16.38732034832396 -3.8673629818445314" fill="#ffd914" stroke="none" /><path d="M 120.26092885502905 105.52220625578681 l 7.81013142410842 2.1286860497525186 a29.095026692992235,29.095026692992235 0 0,0 -0.13547407538910167,0.48074970077613144 l -7.772438856644738 -2.2624436744316587" fill="#ff6709" stroke="none" /><path d="M 120.16314734710363 105.8691983318838 l 7.742876119183165 2.253838392408547 a29.064236981643813,29.064236981643813 0 0,0 -0.14355474362012835,0.4778470528614029 l -7.703045055559408 -2.3864230488606735" fill="#ff6609" stroke="none" /><path d="M 120.05942366710727 106.21446072829308 l 7.159107461535938 2.2179097918101265 a28.494794426161853,28.494794426161853 0 0,0 -0.148763565989569,0.465999751644864 l -7.119979179769114 -2.340478577146374" fill="#ff5f08" stroke="none" /><path d="M 119.94978838288452 106.5578916946017 l 4.978344871246434 1.636480841672439 a26.24041860944587,26.24041860944587 0 0,0 -0.14434051873499087,0.4267170960106116 l -4.949518930939078 -1.721699612157211" fill="#ff3f05" stroke="none" /><path d="M 119.83427380445688 106.89939002012753 l 31.700635094315405 11.02712645583614 a54.56378678361461,54.56378678361461 0 0,0 -0.31532628027704795,0.882023726691516 l -31.506668643994413 -11.569685138908577" fill="#66ff29" stroke="none" /><path d="M 119.58574465831526 107.57618678355244 l 2.456976886371789 0.9504114415236629 a23.634391263336617,23.634391263336617 0 0,0 -0.1496184424246201,0.3771362129105108 l -2.4402997689810446 -0.9924486716477378" fill="#ff1b02" stroke="none" /><path d="M 119.4528033332814 107.91128576633889 l 7.517264290981907 3.0572059444668653 a29.11515684428559,29.11515684428559 0 0,0 -0.1922628469794794,0.46136084191888194 l -7.463675599465942 -3.185799295827025" fill="#ff6709" stroke="none" /><path d="M 119.31412917781788 108.2440532568976 l 7.397684155536077 3.157631472507183 a29.04340521055836,29.04340521055836 0 0,0 -0.19966112682174011,0.45686373161510935 l -7.342389146697371 -3.284157273898137" fill="#ff6609" stroke="none" /><path d="M 119.16976305983485 108.57439118712176 l 7.378612670638388 3.30035959541233 a29.08308718265092,29.08308718265092 0 0,0 -0.20775785177963987,0.45398840046113026 l -7.3208703540036915 -3.426536978088149" fill="#ff6709" stroke="none" /><path d="M 119.0197475246899 108.90220220490707 l 5.925377066769471 2.7733756570757113 a27.542301270857045,27.542301270857045 0 0,0 -0.2041025410124968,0.42649581131614867 l -5.876895267797062 -2.8746839704569638" fill="#ff5207" stroke="none" /><path d="M 118.8641267826498 109.22738970284198 l 2.770103218348118 1.3549962957365334 a24.083745579933975,24.083745579933975 0 0,0 -0.18484858108382457,0.3698209873231381 l -2.7464347240525613 -1.4023491392234173" fill="#ff2103" stroke="none" /><path d="M 118.70294669586154 109.54985784667822 l 6.075909729467979 3.1024028004371895 a27.822139120305607,27.822139120305607 0 0,0 -0.22084409977196898,0.4234976806988033 l -6.021757560721061 -3.2062467242404957" fill="#ff5507" stroke="none" /><path d="M 118.5362547648365 109.86951160357373 l 7.153843680080111 3.8090188177949322 a29.10469640105896,29.10469640105896 0 0,0 -0.23859565873695274,0.43898913848688254 l -7.087402671727819 -3.931262789756418" fill="#ff6709" stroke="none" /><line stroke="#e1ed5e" stroke-width="0.3" x1="174.33088141563837" x2="178.70328620479359" y1="141.23008692659167" y2="143.65538615756765" /><path d="M 175.20536237346943 141.71514677278685 a86.0,86.0 0 0,1 -30.301960400862466,31.631185727798858" fill="none" id="id125" stroke="none" /><text fill="#e1ed5e" style="font-size:6.75px; font-family:Arial;" text-anchor="middle"><textPath startOffset="22.145653131862474" xlink:href="#id125">May</textPath></text><path d="M 118.36410011445183 110.18625677009912 l 0.8232565669487054 0.4566465400616297 a21.94142309169386,21.94142309169386 0 0,0 -0.18552688881115736,0.32780823568617734 l -0.8152963131161698 -0.47071154584692976" fill="#ff0200" stroke="none" /><path d="M 118.18653347947321 110.5 l 5.34389250586237 3.085297776780062 a27.170595553560126,27.170595553560126 0 0,0 -0.2366769637227356,0.40192922692771105 l -5.290141832009869 -3.176578172001322" fill="#ff4c07" stroke="none" /><path d="M 118.00360718960297 110.81064883170644 l 5.148769500868306 3.0916881491078123 a27.00569421336163,27.00569421336163 0 0,0 -0.24206365681314088,0.39539279161421564 l -5.09493787959976 -3.179618056846585" fill="#ff4a06" stroke="none" /><line stroke="#e1ed5e" stroke-width="0.3" x1="143.1302829299769" x2="145.66735839644613" y1="173.24464959558577" y2="177.55315839532614" /><path d="M 143.63769802327073 174.10635135553383 a86.0,86.0 0 0,1 -40.68552437913181,11.842963189579606" fill="none" id="id126" stroke="none" /><text fill="#e1ed5e" style="font-size:6.75px; font-family:Arial;" text-anchor="middle"><textPath startOffset="21.407464694133747" xlink:href="#id126">June</textPath></text><line stroke="#e1ed5e" stroke-width="0.3" x1="101.45913802915013" x2="101.54496967792366" y1="184.9874750549273" y2="189.98673829345242" /><path d="M 101.47630435890484 185.9873277026323 a86.0,86.0 0 0,1 -42.54439059252881,-10.42667462771756" fill="none" id="id127" stroke="none" /><text fill="#e1ed5e" style="font-size:6.75px; font-family:Arial;" text-anchor="middle"><textPath startOffset="22.145653131862474" xlink:href="#id127">July</textPath></text><line stroke="#e1ed5e" stroke-width="0.3" x1="58.13341422392154" x2="55.67067388415222" y1="173.97424548756322" y2="178.32567169271397" /><path d="M 57.64086615596768 174.84453072859336 a86.0,86.0 0 0,1 -31.369924170532247,-30.572349798747897" fill="none" id="id128" stroke="none" /><text fill="#e1ed5e" style="font-size:6.75px; font-family:Arial;" text-anchor="middle"><textPath startOffset="22.145653131862474" xlink:href="#id128">August</textPath></text><line stroke="#e1ed5e" stroke-width="0.3" x1="26.387840678322732" x2="22.057713659400548" y1="142.50000000000003" y2="145.00000000000006" /><path d="M 25.521815274538298 143.00000000000003 a86.0,86.0 0 0,1 -11.493303480769221,-40.785679425670985" fill="none" id="id129" stroke="none" /><text fill="#e1ed5e" style="font-size:6.75px; font-family:Arial;" text-anchor="middle"><textPath startOffset="21.40746469413373" xlink:href="#id129">September</textPath></text><line stroke="#e1ed5e" stroke-width="0.3" x1="15.003131293944662" x2="10.003315487706104" y1="100.72959589197737" y2="100.7725132973878" /><path d="M 14.003168132696942 100.73817937305945 a86.0,86.0 0 0,1 10.791469493833604,-42.45332614584628" fill="none" id="id130" stroke="none" /><text fill="#e1ed5e" style="font-size:6.75px; font-family:Arial;" text-anchor="middle"><textPath startOffset="22.145653131862435" xlink:href="#id130">October</textPath></text><line stroke="#e1ed5e" stroke-width="0.3" x1="26.387840678322718" x2="22.05771365940052" y1="57.49999999999999" y2="54.99999999999999" /><path d="M 25.521815274538284 56.99999999999999 a86.0,86.0 0 0,1 29.574782752854787,-30.34633250058573" fill="none" id="id131" stroke="none" /><text fill="#e1ed5e" style="font-size:6.75px; font-family:Arial;" text-anchor="middle"><textPath startOffset="21.40746469413373" xlink:href="#id131">November</textPath></text><line stroke="#e1ed5e" stroke-width="0.3" x1="56.869717070023135" x2="54.33264160355391" y1="26.7553504044142" y2="22.446841604673864" /><path d="M 56.362301976729285 25.89364864446614 a86.0,86.0 0 0,1 42.16139366436587,-11.88097634709845" fill="none" id="id132" stroke="none" /><text fill="#e1ed5e" style="font-size:6.75px; font-family:Arial;" text-anchor="middle"><textPath startOffset="22.145653131862474" xlink:href="#id132">December</textPath></text></svg>