<?xml version="1.0" encoding="utf-8" ?>
<svg baseProfile="full" height="200mm" version="1.1" viewBox="0,0,200,200" width="200mm" xmlns="http://www.w3.org/2000/svg" xmlns:ev="http://www.w3.org/2001/xml-events" xmlns:xlink="http://www.w3.org/1999/xlink"><defs /><rect fill="#1a1a1a" height="200" width="200" x="0" y="0" /><text alignment-baseline="middle" fill="#e1ed5e" style="dominant-baseline: central; font-size:9.0px; font-family:Arial;" text-anchor="middle" x="100.0" y="100.0">2018</text><line stroke="#e1ed5e" stroke-width="0.3" x1="100.0" x2="100.0" y1="15.0" y2="10.0" /><path d="M 100.0 14.0 a86.0,86.0 0 0,1 42.46469731375804,11.215312516191453" fill="none" id="id37" stroke="none" /><text fill="#e1ed5e" style="font-size:6.75px; font-family:Arial;" text-anchor="middle"><textPath startOffset="22.20632615414155" xlink:href="#id37">January</textPath></text><path d="M 100.0 79.0 l 0.0 -12.179001841762997 a33.179001841763,33.179001841763 0 0,0 0.5711219755973614,0.0049158271536091916 l -0.20964149632483303 12.177197391217947" fill="#ff9c0e" stroke="none" /><path d="M 101.08401301168833 79.027996857942 l 0.5169246034965227 -10.000751182729438 a31.01410182016162,31.01410182016162 0 0,0 0.5329078551365134,0.032146457130060896 l -0.688994507472648 9.990371456219073" fill="#ff7f0b" stroke="none" /><path d="M 101.44485096284872 79.0497635885617 l 0.6334844718869523 -9.18547988011162 a30.207298366190663,30.207298366190663 0 0,0 0.5184288897159066,0.04024005960900037 l -0.7915035509652001 9.173214558314154" fill="#ff740a" stroke="none" /><path d="M 101.80526077348638 79.07773832637324 l 0.7942208517851834 -9.204707005076767 a30.238907825642578,30.238907825642578 0 0,0 0.5182011005087116,0.049209438542716734 l -0.9525470793841392 9.18967202201887" fill="#ff750a" stroke="none" /><path d="M 104.307194497241 79.44645832069477 l 1.5050866178077849 -7.182136899063259 a28.338145280926923,28.338145280926923 0 0,0 0.4765629614263671,0.10415820498503633 l -1.62849230338768 7.155165195982352" fill="#ff5b08" stroke="none" /><path d="M 105.36241919743992 79.69619591428918 l 2.88350825245194 -10.917868313104865 a32.2922304415141,32.2922304415141 0 0,0 0.5362080436490622,0.14656591370548439 l -3.0710141853247133 10.866615858573088" fill="#ff900d" stroke="none" /><path d="M 106.0581310904928 79.89281104454417 l 3.563365941346996 -11.826959705863938 a33.352107217640274,33.352107217640274 0 0,0 0.5482683458309453,0.17034964388322893 l -3.7664196598886597 11.763869927098188" fill="#ff9e0e" stroke="none" /><path d="M 106.74666289553966 80.11325718540242 l 3.4956175924513544 -10.303827109135913 a31.880633963497694,31.880633963497694 0 0,0 0.5181635282673032,0.18077708060487863 l -3.672463124781931 10.242129175358826" fill="#ff8b0c" stroke="none" /><path d="M 107.4271985657038 80.35727306442388 l 2.989129855009975 -7.905357719674127 a29.451602094640002,29.451602094640002 0 0,0 0.4726517011249881,0.1833815169517445 l -3.12476472113463 7.852733498831836" fill="#ff6a09" stroke="none" /><path d="M 108.09893153111575 80.62456947434976 l 2.9405146930642605 -7.034722781175474 a28.624562365678177,28.624562365678177 0 0,0 0.45297176191709215,0.19393886882129638 l -3.061170212771668 6.983064384391387" fill="#ff5f08" stroke="none" /><path d="M 108.76106565485865 80.91482961587045 l 3.1173144342546366 -6.790780877856125 a28.472105072405547,28.472105072405547 0 0,0 0.44365205475515873,0.20830058843212795 l -3.2337447003093933 6.7361153067839945" fill="#ff5d08" stroke="none" /><path d="M 109.41281617654863 81.2277094730956 l 7.691649941630045 -15.339711795845309 a38.16007682978643,38.16007682978643 0 0,0 0.5846478339424339,0.29947932839038394 l -7.954558263161235 15.205039942142426" fill="#ffdc14" stroke="none" /><path d="M 110.05341064243156 81.56283822128135 l 7.112200902635665 -13.043215214068614 a35.85627358390934,35.85627358390934 0 0,0 0.5393396705142709,0.3001419427105203 l -7.335664662221972 12.918857873797913" fill="#ffbf11" stroke="none" /><line stroke="#e1ed5e" stroke-width="0.3" x1="143.23703022742887" x2="145.7803849466894" y1="26.81831364943548" y2="22.513508569990506" /><path d="M 143.74570117128098 25.957352633546492 a86.0,86.0 0 0,1 28.547481713284135,27.462654790039103" fill="none" id="id38" stroke="none" /><text fill="#e1ed5e" style="font-size:6.75px; font-family:Arial;" text-anchor="middle"><textPath startOffset="19.985693538727396" xlink:href="#id38">February</textPath></text><path d="M 110.68208982089419 81.91981866633111 l 5.070524953232972 -8.582216789829511 a30.968182799737864,30.968182799737864 0 0,0 0.45661543500501567,0.2751056904855482 l -5.217502454455626 8.493664489885349" fill="#ff7e0b" stroke="none" /><path d="M 113.89432698308785 84.25364557470407 l 10.002099055022358 -11.33531670220546 a36.11725471921993,36.11725471921993 0 0,0 0.46262593703176363,0.4153501340582563 l -10.195735979650111 11.161467559377906" fill="#ffc212" stroke="none" /><path d="M 114.16331599549186 84.49514656593476 l 5.019851952803778 -5.495328128928458 a28.44295269853707,28.44295269853707 0 0,0 0.35864141124612875,0.333318105600281 l -5.113701247844754 5.408105437253536" fill="#ff5c08" stroke="none" /><path d="M 115.4437574822437 85.77008943001954 l 5.78452529287699 -5.329873750094075 a28.865639646962954,28.865639646962954 0 0,0 0.33354433466768824,0.36830798509930107 l -5.875413268160713 5.229512977725225" fill="#ff6209" stroke="none" /><path d="M 116.15771136456269 86.58626213691792 l 12.539620014633996 -10.410086675261647 a37.29760641007966,37.29760641007966 0 0,0 0.40583615745922863,0.49750714243760397 l -12.716954664169634 10.192695363215941" fill="#ffd113" stroke="none" /><path d="M 116.38621287248628 86.86637796730983 l 14.213406628051935 -11.392108225519676 a39.215407154282985,39.215407154282985 0 0,0 0.41763646609055516,0.5303559002878477 l -14.407397174736454 11.14575993127879" fill="#ffe915" stroke="none" /><path d="M 117.04232023915458 87.72973835380427 l 11.558888431553248 -8.322257967462019 a35.24316957176599,35.24316957176599 0 0,0 0.3502287965590169,0.4953737953284869 l -11.700429847916148 8.122057671801738" fill="#ffb710" stroke="none" /><path d="M 117.45458315368197 88.32363383020206 l 31.943205714092667 -21.368632139247005 a59.431586368445714,59.431586368445714 0 0,0 0.5614965095959864,0.8551977061759527 l -32.30629885904658 20.815616369093377" fill="#36ff2f" stroke="none" /><path d="M 117.65298651832404 88.62581576622439 l 13.038534830312896 -8.400997595763124 a36.51064637999656,36.51064637999656 0 0,0 0.3358499678018015,0.5312339945182262 l -13.181212394360653 8.175315953530692" fill="#ffc712" stroke="none" /><line stroke="#e1ed5e" stroke-width="0.3" x1="172.23445277983987" x2="176.4835382374775" y1="55.19839476539836" y2="52.563006222186495" /><path d="M 173.08426987136738 54.67131705675599 a86.0,86.0 0 0,1 12.851231095245387,41.99856678651699" fill="none" id="id39" stroke="none" /><text fill="#e1ed5e" style="font-size:6.75px; font-family:Arial;" text-anchor="middle"><textPath startOffset="22.20632615414155" xlink:href="#id39">March</textPath></text><path d="M 117.84615892207809 88.93136811851018 l 17.332488652614327 -10.75004079721307 a41.39555196690567,41.39555196690567 0 0,0 0.37036048741920025,0.608775261583879 l -17.51496493831975 10.450097762422109" fill="#fbff18" stroke="none" /><path d="M 118.3937258080291 89.86733742301442 l 7.6337318426482605 -4.205239861245565 a29.715383189284946,29.715383189284946 0 0,0 0.2429471724866671,0.4501442133368816 l -7.704987114353393 4.073214664576225" fill="#ff6e0a" stroke="none" /><path d="M 119.04729006885535 91.15688171328212 l 14.484226950897865 -6.724617084920269 a36.969136022462756,36.969136022462756 0 0,0 0.2630049174106096,0.5794964728913725 l -14.597834185271822 6.474298603186834" fill="#ffcd13" stroke="none" /><path d="M 119.34039704204932 91.81776055985345 l 3.368954110014726 -1.4252855890742058 a24.658044669739247,24.658044669739247 0 0,0 0.16201311467692442,0.3923276079551555 l -3.3929889115778478 1.3670834106657472" fill="#ff2703" stroke="none" /><path d="M 119.97218684219823 93.5106431181261 l 7.038790059534046 -2.2870415279910032 a28.401021851943874,28.401021851943874 0 0,0 0.14706930389420197,0.4662498836560611 l -7.077114847196454 2.165541477908523" fill="#ff5c08" stroke="none" /><path d="M 120.28053869075195 94.5502522615342 l 29.133059366024845 -7.82858023721938 a51.16656786170594,51.16656786170594 0 0,0 0.22124343083095155,0.8525411898670583 l -29.2634991287261 7.3259426218034704" fill="#8bff24" stroke="none" /><path d="M 120.37134235888165 94.90015583598534 l 3.335757627449883 -0.8350870438098882 a24.43869878294526,24.43869878294526 0 0,0 0.09864762195712333,0.40895807958829816 l -3.3496380496678255 0.7775437325621839" fill="#ff2403" stroke="none" /><path d="M 120.67395015179393 96.31383870115 l 5.621155181460285 -1.0022508776790793 a26.7098066863832,26.7098066863832 0 0,0 0.07680740499739913,0.4533216521125538 l -5.637574447977907 0.9053434372506877" fill="#ff4406" stroke="none" /><path d="M 120.78858239683441 97.02765380044208 l 30.501510641917907 -4.361098198359372 a51.811707660153544,51.811707660153544 0 0,0 0.11863400952123518,0.8839611676638448 l -30.57206065049698 3.8354186886308623" fill="#84ff25" stroke="none" /><path d="M 120.83666639777658 97.38593545837742 l 6.4065212979298956 -0.8037303012086147 a27.456740473172996,27.456740473172996 0 0,0 0.05479534766203588,0.4694530758134386 l -6.41940699859552 0.6933334870703233" fill="#ff4e07" stroke="none" /><path d="M 120.96714384426684 98.82574320788733 l 11.691157310494077 -0.6547587492828298 a32.70947771160104,32.70947771160104 0 0,0 0.026644816200588697,0.5624299576105558 l -11.700695734928162 0.4534176850492742" fill="#ff960d" stroke="none" /><line stroke="#e1ed5e" stroke-width="0.3" x1="184.98032266829074" x2="189.97916517819016" y1="98.17113171792111" y2="98.06355123074" /><path d="M 185.9800911702706 98.14961562048488 a86.0,86.0 0 0,1 -9.607161424134198,41.387399972396054" fill="none" id="id40" stroke="none" /><text fill="#e1ed5e" style="font-size:6.75px; font-family:Arial;" text-anchor="middle"><textPath startOffset="21.466115282336823" xlink:href="#id40">April</textPath></text><path d="M 120.95626037817324 101.35467743843564 l 62.86878113451971 4.064032315306923 a84.0,84.0 0 0,0 -0.10569376534264929,1.4421074540129188 l -62.789510810512716 -5.145612905816612" fill="#4dd2ff" stroke="none" /><path d="M 120.92983693683757 101.71520430193887 l 45.19140219019057 3.7034444024185715 a66.34289726470251,66.34289726470251 0 0,0 -0.10306970511473494,1.137365607281097 l -45.12095788879876 -4.480791398248239" fill="#37ff78" stroke="none" /><path d="M 120.5718875245553 104.21870165774334 l 4.907103216768804 1.0063055444275633 a26.009222776915436,26.009222776915436 0 0,0 -0.09371489730692459,0.4378048009221819 l -4.889054280737436 -1.0906241647659143" fill="#ff3a05" stroke="none" /><path d="M 120.41448212921028 104.9243191809786 l 29.433409296948263 7.099837313784607 a51.27760348382759,51.27760348382759 0 0,0 -0.21436159123543966,0.856268000199878 l -29.30683639141776 -7.605433153381881" fill="#8aff24" stroke="none" /><path d="M 120.23288151984713 105.62410040840565 l 9.732823568015672 2.70541677171007 a31.10183817504376,31.10183817504376 0 0,0 -0.1478186883926842,0.514576246285008 l -9.684812242736887 -2.87255049349966" fill="#ff800b" stroke="none" /><path d="M 120.13307415673323 105.97154293290107 l 6.987280585269646 2.0724528044918347 a28.288151384550968,28.288151384550968 0 0,0 -0.14248233675138414,0.46564052047635474 l -6.950571476012129 -2.1924202975202465" fill="#ff5a08" stroke="none" /><path d="M 120.02730092923936 106.31721596034902 l 13.14825950273777 4.147358402161901 a34.786852783261196,34.786852783261196 0 0,0 -0.18504576279272913,0.5695122977712236 l -13.074921488928794 -4.37306959991092" fill="#ffb110" stroke="none" /><path d="M 119.79798401119884 107.00284435728193 l 30.005155009186982 10.613274075107757 a52.82688979021816,52.82688979021816 0 0,0 -0.3106113931258395,0.8546691515971876 l -29.818019355055913 -11.128191023711077" fill="#79ff26" stroke="none" /><path d="M 118.97047184881838 109.00673069616215 l 3.3681484078785924 1.5991170855541665 a24.728484833120064,24.728484833120064 0 0,0 -0.18587194284573486,0.38295125571313465 l -3.3401232084181434 -1.6568572972325766" fill="#ff2803" stroke="none" /><path d="M 118.81262510543309 109.33194174019688 l 6.48183343711345 3.2152924786309502 a28.235486882693017,28.235486882693017 0 0,0 -0.21972765836200212,0.4335435155165802 l -6.425527108965179 -3.326390205850225" fill="#ff5908" stroke="none" /><path d="M 118.64920377521936 109.65438752849418 l 28.429251363688877 14.717358076956065 a53.012856196614976,53.012856196614976 0 0,0 -0.42649471839297787,0.806767278468387 l -28.171704137071007 -15.204540370510585" fill="#77ff27" stroke="none" /><line stroke="#e1ed5e" stroke-width="0.3" x1="174.80103733775053" x2="179.2010983576182" y1="140.37084112569926" y2="142.7455964860345" /><path d="M 175.68104954172406 140.8457921977663 a86.0,86.0 0 0,1 -30.038265399797805,32.042727171017184" fill="none" id="id41" stroke="none" /><text fill="#e1ed5e" style="font-size:6.75px; font-family:Arial;" text-anchor="middle"><textPath startOffset="22.206326154141568" xlink:href="#id41">May</textPath></text><path d="M 118.12598468904814 110.60418214915192 l 6.676107795854661 3.9057002601017703 a28.734656412771702,28.734656412771702 0 0,0 -0.25343847132789976,0.4247774556991942 l -6.607888448828534 -4.020039809687069" fill="#ff6008" stroke="none" /><path d="M 117.75023020441432 111.22182372390056 l 4.176414001897575 2.640359093239773 a25.941045441655042,25.941045441655042 0 0,0 -0.24186335887576166,0.3753773040559533 l -4.130345779644763 -2.7118579972171792" fill="#ff3905" stroke="none" /><path d="M 116.93607887273984 112.41649034213515 l 9.794919140723403 7.1810316795668 a33.1452730293004,33.1452730293004 0 0,0 -0.34129961213815463,0.45722660484455224 l -9.669858261890157 -7.348571163920667" fill="#ff9b0e" stroke="none" /><path d="M 116.27256486870786 113.27417163493432 l 3.0541718873893386 2.491408217628856 a24.941456688153245,24.941456688153245 0 0,0 -0.2742420056084057,0.3303421623330612 l -3.010833881887389 -2.543611637075688" fill="#ff2b04" stroke="none" /><path d="M 116.0416608686014 113.55231037782055 l 1.9157739594488694 1.6184834927545066 a23.507923180645935,23.507923180645935 0 0,0 -0.26380086580733036,0.3068600045222202 l -1.8876305840707603 -1.6512205964382547" fill="#ff1702" stroke="none" /><path d="M 115.80600337817218 113.82643327865902 l 1.3171378900218211 1.1521773543544829 a22.749961393065124,22.749961393065124 0 0,0 -0.26036913769834114,0.292527486358364 l -1.2971099026751416 -1.1746790104537133" fill="#ff0c01" stroke="none" /><path d="M 115.56566222782051 114.09645910891815 l 3.895804118548555 3.5280891136980603 a26.25592071137823,26.25592071137823 0 0,0 -0.3062610518872198,0.33238588453121654 l -3.8344966586656133 -3.5946262530306115" fill="#ff3e05" stroke="none" /><path d="M 115.32070863581623 114.36230785411682 l 5.152239990259581 4.8299369590130965 a28.062143296851936,28.062143296851936 0 0,0 -0.3333962336585364,0.34956461809039846 l -5.06833720522208 -4.917908693686003" fill="#ff5708" stroke="none" /><path d="M 114.81725581225074 114.88116024355365 l 3.3655618772489717 3.3800770020808275 a25.76989803765105,25.76989803765105 0 0,0 -0.3170311612046703,0.3102817174531372 l -3.306880763668507 -3.437508822456537" fill="#ff3705" stroke="none" /><path d="M 114.29624159901734 115.38237550388516 l 1.909591493091747 2.0546696278398806 a23.805032432977566,23.805032432977566 0 0,0 -0.30255113720560134,0.27637329041909164 l -1.8739408064192817 -2.087235684845555" fill="#ff1b02" stroke="none" /><path d="M 113.48314897796784 116.09983520530334 l 9.435104567188281 11.266183361524417 a35.69517219120847,35.69517219120847 0 0,0 -0.47445661072891127,0.39044548978829013 l -9.239777827914677 -11.426923970169884" fill="#ffbd11" stroke="none" /><path d="M 112.92097659922987 116.55440617244103 l 3.5197219000986752 4.509481578330715 a26.720477808657098,26.720477808657098 0 0,0 -0.36501606877289744,0.2798787564513967 l -3.441577102832284 -4.569399676609484" fill="#ff4406" stroke="none" /><path d="M 112.34349029814194 116.9893568818739 l 17.516749576290465 24.10973742222728 a50.80127437354347,50.80127437354347 0 0,0 -0.7118774646945056,0.5079056695405555 l -17.099144783747075 -24.407687353612054" fill="#8fff24" stroke="none" /><path d="M 111.45004920935366 117.60387380957326 l 2.9812804221661984 4.5835684531287315 a26.467827056528797,26.467827056528797 0 0,0 -0.38405850306661676,0.245124307756269 l -2.901940117052651 -4.6342071897088095" fill="#ff4106" stroke="none" /><path d="M 111.1453310114006 117.79835938074945 l 5.841022029766556 9.327727380220301 a32.00563657549756,32.00563657549756 0 0,0 -0.4694477040314534,0.28837312221826816 l -5.679595125802794 -9.426888969266948" fill="#ff8c0c" stroke="none" /><line stroke="#e1ed5e" stroke-width="0.3" x1="143.8653032363475" x2="146.44561519142675" y1="172.8068346515853" y2="177.08958963109032" /><path d="M 144.38136562736335 173.6633856474863 a86.0,86.0 0 0,1 -40.68145358897372,12.25698825130547" fill="none" id="id42" stroke="none" /><text fill="#e1ed5e" style="font-size:6.75px; font-family:Arial;" text-anchor="middle"><textPath startOffset="21.466115282336833" xlink:href="#id42">June</textPath></text><path d="M 110.21172684928248 118.3499491758327 l 14.892796949411256 26.761591956104315 a51.626429844195364,51.626429844195364 0 0,0 -0.7802405303433906,0.4254493476574468 l -14.429933607199215 -27.013981955521533" fill="#86ff25" stroke="none" /><path d="M 109.2508944713604 118.85261126421891 l 2.1547284400420974 4.391170798221931 a25.89134292699697,25.89134292699697 0 0,0 -0.40179336516048036,0.19288523221962092 l -2.0788224068813843 -4.427610306941112" fill="#ff3905" stroke="none" /><path d="M 108.59647513512805 119.15986991738527 l 3.823223568514639 8.521221208270369 a30.3396064871665,30.3396064871665 0 0,0 -0.4783245927104915,0.20968344478025594 l -3.675978301146394 -8.58576920634508" fill="#ff760a" stroke="none" /><path d="M 108.2653958097858 119.30500536409082 l 4.658077231706243 10.879600688689672 a32.834838175567796,32.834838175567796 0 0,0 -0.5214931263968654,0.2179841691282346 l -4.470112645811916 -10.958169900837879" fill="#ff970e" stroke="none" /><path d="M 107.2578585660854 119.70592522655815 l 1.2907957480424432 3.5046597094827243 a24.73480834079019,24.73480834079019 0 0,0 -0.4007986404734946,0.14371213274119596 l -1.2302775469392138 -3.5263593832638804" fill="#ff2803" stroke="none" /><path d="M 106.91757812671514 119.82793768551818 l 3.076911045208147 8.81938726975249 a30.340715893013563,30.340715893013563 0 0,0 -0.4945973987871931,0.1677942913898687 l -2.9246439134837265 -8.871044548040482" fill="#ff760a" stroke="none" /><path d="M 105.53697534728816 120.25689768951611 l 2.9552090805059437 10.811564841851274 a32.208175366180676,32.208175366180676 0 0,0 -0.536050719527783,0.1415758671164611 l -2.7686679181666634 -10.860832058271319" fill="#ff8f0d" stroke="none" /><path d="M 101.62511606390274 120.93702456842531 l 0.3570918074951253 4.600557531105869 a25.61439531856505,25.61439531856505 0 0,0 -0.4398811815240186,0.030336781704144198 l -0.27784786519217636 -4.606022657326299" fill="#ff3505" stroke="none" /><path d="M 101.26447882468166 120.96189622390904 l 0.0950950350900377 1.576437831980458 a22.579303423601058,22.579303423601058 0 0,0 -0.3881618068015405,0.020063531669489147 l -0.06794515987501758 -1.5778411704121489" fill="#ff0901" stroke="none" /><path d="M 100.90346689309514 120.98055641714683 l 1.268115751489734 29.448532393318267 a50.47582361325111,50.47582361325111 0 0,0 -0.8683756097108402,0.029908611801362794 l -0.7610197901042416 -29.465997803545722" fill="#92ff23" stroke="none" /><line stroke="#e1ed5e" stroke-width="0.3" x1="102.19456741930631" x2="102.32365962044197" y1="184.97166512339345" y2="189.96999836594603" /><path d="M 102.22038585953345 185.97133177190398 a86.0,86.0 0 0,1 -42.740103519485714,-10.115201625700543" fill="none" id="id43" stroke="none" /><text fill="#e1ed5e" style="font-size:6.75px; font-family:Arial;" text-anchor="middle"><textPath startOffset="22.20632615414155" xlink:href="#id43">July</textPath></text><path d="M 99.45781275523022 120.99299961872073 l -0.3305825014024075 12.79985538730862 a33.80412366100261,33.80412366100261 0 0,0 -0.581559138485424,-0.020030072606814667 l 0.5508619915624745 -12.792268516275712" fill="#ffa40f" stroke="none" /><path d="M 98.37488393609728 120.93702456842531 l -1.6838033794995824 21.69311688441391 a42.75836652834165,42.75836652834165 0 0,0 -0.7333175556796244,-0.06327372434338989 l 2.0569652529207483 -21.660918907791856" fill="#eaff1a" stroke="none" /><path d="M 96.58105272829116 120.7198165907248 l -1.926964156065672 11.677964214588687 a32.83587931063746,32.83587931063746 0 0,0 -0.5568824851953889,-0.09682115821082644 l 2.127695612733111 -11.643064477856855" fill="#ff970e" stroke="none" /><path d="M 95.86986931433489 120.58985236759428 l -0.8072919356344656 4.024575258588051 a25.104744362488304,25.104744362488304 0 0,0 -0.42296537686099184,-0.08863650713655187 l 0.8764487739248442 -4.010082770724957" fill="#ff2d04" stroke="none" /><path d="M 95.16358092515715 120.4354850818985 l -1.284017808079182 5.425403869234953 a26.57527657392654,26.57527657392654 0 0,0 -0.4442458832532199,-0.10918482965500091 l 1.3772169760756123 -5.4024977812659225" fill="#ff4206" stroke="none" /><path d="M 94.46302465271185 120.25689768951611 l -1.9031851649254214 6.962759404190062 a28.218180677471945,28.218180677471945 0 0,0 -0.46743931192786287,-0.1321030186758994 l 2.0227556449578983 -6.928967592175642" fill="#ff5908" stroke="none" /><path d="M 93.08242187328487 119.8279376855182 l -2.064289671988458 5.916898404511724 a27.266656092302465,27.266656092302465 0 0,0 -0.4418242721546107,-0.15842246463998283 l 2.1658335047727952 -5.880488398831784" fill="#ff4c07" stroke="none" /><path d="M 92.40401165467489 119.57807347666478 l -2.569694179844334 6.623188343425098 a28.104220718024457,28.104220718024457 0 0,0 -0.4495054958786749,-0.17886751354630334 l 2.6833207517648665 -6.577973985472728" fill="#ff5708" stroke="none" /><path d="M 91.7346041902142 119.30500536409082 l -3.1755703535699142 7.416995401131762 a29.068213423731542,29.068213423731542 0 0,0 -0.4582802137730366,-0.20089657810407038 l 3.302771242000694 -7.361234269733239" fill="#ff6509" stroke="none" /><path d="M 90.7491055286396 118.85261126421891 l -3.118221413884836 6.354695357700801 a28.078520881878788,28.078520881878788 0 0,0 -0.43206972862034,-0.21664873155066985 l 3.2271450501879366 -6.300078785240829" fill="#ff5708" stroke="none" /><path d="M 90.10565033884886 118.52300852407294 l -6.0210588269809096 11.27190040736204 a33.77923660440847,33.77923660440847 0 0,0 -0.5105123395586214,-0.27837203194340904 l 6.214193978408171 -11.166587723658864" fill="#ffa40f" stroke="none" /><line stroke="#e1ed5e" stroke-width="0.3" x1="58.666819895761336" x2="56.23545636021788" y1="174.27360380694188" y2="178.64263932499728" /><path d="M 58.180547188652646 175.14741091055294 a86.0,86.0 0 0,1 -31.652253787137756,-30.449443065178592" fill="none" id="id44" stroke="none" /><text fill="#e1ed5e" style="font-size:6.75px; font-family:Arial;" text-anchor="middle"><textPath startOffset="22.20632615414155" xlink:href="#id44">August</textPath></text><path d="M 89.1626897886671 117.98757091392108 l -1.826000038783225 3.030761743083497 a24.538331935386342,24.538331935386342 0 0,0 -0.3599198397649657,-0.221092162236601 l 1.8778990784804994 -2.998881114018518" fill="#ff2503" stroke="none" /><path d="M 88.54995079064634 117.60387380957326 l -1.9646692371366208 3.0205799726913067 a24.60330800553808,24.60330800553808 0 0,0 -0.3530285331791558,-0.2339680617336077 l 2.0163724690557383 -2.9863138898663806" fill="#ff2603" stroke="none" /><path d="M 88.24862548938628 117.40417183066458 l -5.916438850925932 8.762440367646576 a31.572824120040398,31.572824120040398 0 0,0 -0.447797537960304,-0.30799922984504624 l 6.066393273509126 -8.659300348436428" fill="#ff870c" stroke="none" /><path d="M 87.95078237400918 117.19931262002967 l -2.0390592436122135 2.91059705868362 a24.553777966752868,24.553777966752868 0 0,0 -0.3440717073181662,-0.245486027501083 l 2.0888582787792664 -2.875066769338318" fill="#ff2603" stroke="none" /><path d="M 87.07902340077011 116.55440617244103 l -3.068203065804034 3.930993867280599 a25.986640435965576,25.986640435965576 0 0,0 -0.350253517373723,-0.27826257728531356 l 3.135414075895115 -3.8775973759901543" fill="#ff3a05" stroke="none" /><path d="M 86.79598089348748 116.32954008644616 l -26.463695102169837 32.72791159422285 a63.088518099119085,63.088518099119085 0 0,0 -0.8385661879672945,-0.6900828834016549 l 27.02313141868182 -32.26753359196402" fill="#33ff53" stroke="none" /><path d="M 86.24171649860922 115.8653595955263 l -2.293208201114771 2.64441219970631 a24.5002456678947,24.5002456678947 0 0,0 -0.3162370925690526,-0.2790424659359117 l 2.338387646590411 -2.6045465919981097" fill="#ff2503" stroke="none" /><path d="M 84.9287848128048 114.62390073753433 l -2.6217600552802636 2.5439460806468888 a24.653120234635296,24.653120234635296 0 0,0 -0.29289485650516023,-0.3070990860674551 l 2.665161463164381 -2.4984398779969337" fill="#ff2703" stroke="none" /><path d="M 84.67929136418377 114.36230785411682 l -3.1229605885280503 2.9276009651314743 a25.28062264729539,25.28062264729539 0 0,0 -0.294884729788549,-0.3200391337440096 l 3.1728917263123284 -2.8734105765861204" fill="#ff3004" stroke="none" /><path d="M 84.43433777217949 114.09645910891817 l -4.871857005018053 4.412014860054527 a27.57273655357382,27.57273655357382 0 0,0 -0.31556491531567826,-0.3545405276378664 l 4.94708076998207 -4.327500162675797" fill="#ff5007" stroke="none" /><path d="M 84.19399662182784 113.82643327865904 l -3.26859417167481 2.8592300120653107 a25.342683976644114,25.342683976644114 0 0,0 -0.2843901574607995,-0.33081000222429946 l 3.3173268387063883 -2.802542910679481" fill="#ff3104" stroke="none" /><path d="M 83.95833913139862 113.55231037782056 l -4.434960744581547 3.7467419998674707 a26.805768891331294,26.805768891331294 0 0,0 -0.29474091728275237,-0.35503442197780644 l 4.498797661757836 -3.669846320775903" fill="#ff4506" stroke="none" /><path d="M 83.72743513129214 113.27417163493432 l -4.1259333917020955 3.3656862601346806 a26.324581706990863,26.324581706990863 0 0,0 -0.2834055426951861,-0.3535919901065252 l 4.183256846452142 -3.294166436449896" fill="#ff3f05" stroke="none" /><path d="M 83.06392112726016 112.41649034213515 l -24.447776482992232 17.923604564475202 a51.314177797625064,51.314177797625064 0 0,0 -0.5161233946899695,-0.7168502537965962 l 24.752679670057812 -17.500120705227467" fill="#89ff24" stroke="none" /><path d="M 82.44556493220864 111.52570212397912 l -6.260533972045699 4.110474043749963 a28.489344596123246,28.489344596123246 0 0,0 -0.2656226246426846,-0.4122522121503079 l 6.330361460065429 -4.002100231678207" fill="#ff5d08" stroke="none" /><path d="M 82.24976979558568 111.22182372390057 l -34.14625093832433 21.587506440713977 a61.397857461391226,61.397857461391226 0 0,0 -0.5570696616676981,-0.8981736694500939 l 34.51278523965998 -20.99653643989862" fill="#31ff3f" stroke="none" /><line stroke="#e1ed5e" stroke-width="0.3" x1="26.63291911575756" x2="22.317208475507996" y1="142.92168965132927" y2="145.44649492493687" /><path d="M 25.769776987707644 143.4266507060508 a86.0,86.0 0 0,1 -11.730757126820373,-40.83630448921669" fill="none" id="id45" stroke="none" /><text fill="#e1ed5e" style="font-size:6.75px; font-family:Arial;" text-anchor="middle"><textPath startOffset="21.46611528233685" xlink:href="#id45">September</textPath></text><path d="M 81.87401531095188 110.60418214915194 l -2.656292074782651 1.554001367956753 a24.07746776395214,24.07746776395214 0 0,0 -0.20620402452629893,-0.3595340977505599 l 2.682648095461327 -1.508047424347886" fill="#ff1f03" stroke="none" /><path d="M 81.35079622478065 109.6543875284942 l -13.226057649087751 6.846913549637384 a35.89324766775872,35.89324766775872 0 0,0 -0.27932010855029094,-0.5511250732752965 l 13.341956427424309 -6.618234264659403" fill="#ffbf11" stroke="none" /><path d="M 81.18737489456691 109.33194174019688 l -7.4429164586058265 3.6920345980212472 a29.308316609444503,29.308316609444503 0 0,0 -0.22029630147169318,-0.4538756306408301 l 7.505366016692239 -3.5633700114151323" fill="#ff6809" stroke="none" /><path d="M 80.87730276802145 108.67885076344099 l -6.542965940796192 2.9695300961773428 a28.185298344155377,28.185298344155377 0 0,0 -0.19670508342117454,-0.44351803448932425 l 6.593112108948646 -2.8564637251953227" fill="#ff5908" stroke="none" /><path d="M 80.58989483394504 108.01547362559985 l -27.62531786235538 11.407975630743422 a50.88812632112972,50.88812632112972 0 0,0 -0.3273739443487828,-0.8125152821319033 l 27.81759442096155 -10.930760980768714" fill="#8eff24" stroke="none" /><path d="M 80.45479744820244 107.68017299344265 l -2.5313895655515486 0.9946947198786387 a23.719807110502085,23.719807110502085 0 0,0 -0.14605270220602273,-0.3812975180842283 l 2.5481365473510804 -0.9509736349612525" fill="#ff1a02" stroke="none" /><path d="M 80.32549172779594 107.34259656027581 l -3.7152643971061785 1.386549905353796 a24.965565556190107,24.965565556190107 0 0,0 -0.14679245983205189,-0.40390980460494247 l 3.7385811179434545 -1.3223923037427363" fill="#ff2b04" stroke="none" /><path d="M 80.20201598880116 107.00284435728193 l -6.474818114386329 2.290240434132541 a27.8679306097631,27.8679306097631 0 0,0 -0.15607257915933367,-0.4536199709919221 l 6.513281524488891 -2.1784477600513217" fill="#ff5407" stroke="none" /><path d="M 80.0844068197444 106.66101706037122 l -17.80702942752807 5.955781770481747 a39.77662465754837,39.77662465754837 0 0,0 -0.21158843822220386,-0.6512022529731027 l 17.906910116766525 -5.648380617530841" fill="#fff016" stroke="none" /><path d="M 79.86692584326677 105.97154293290107 l -4.346291888869613 1.2891259631418301 a25.53344228286852,25.53344228286852 0 0,0 -0.12135359740352201,-0.42244779265797766 l 4.36783812315924 -1.2141206949792567" fill="#ff3404" stroke="none" /><path d="M 79.76711848015287 105.62410040840567 l -30.482981449432344 8.473303629589502 a52.638726782941994,52.638726782941994 0 0,0 -0.23514953421083445,-0.8750788945724117 l 30.624319059984952 -7.947333801841552" fill="#7bff26" stroke="none" /><path d="M 79.29508885075956 103.50808413554451 l -2.763141823479053 0.4681659305532444 a23.80252244865049,23.80252244865049 0 0,0 -0.06496756326345904,-0.4045530784579479 l 2.770791141103803 -0.4205336224020828" fill="#ff1b02" stroke="none" /><path d="M 79.04373962182676 101.35467743843564 l -29.137467093809953 1.883535925439099 a50.198282419095776,50.198282419095776 0 0,0 -0.04831859366039009,-0.8627609484015817 l 29.165572038357872 -1.3817032607020798" fill="#95ff23" stroke="none" /><line stroke="#e1ed5e" stroke-width="0.3" x1="15.007084014347285" x2="10.007500721073583" y1="101.09737516637583" y2="101.16192664675087" /><path d="M 14.007167355692545 101.11028546245083 a86.0,86.0 0 0,1 10.666146001902534,-42.60595125391555" fill="none" id="id46" stroke="none" /><text fill="#e1ed5e" style="font-size:6.75px; font-family:Arial;" text-anchor="middle"><textPath startOffset="22.20632615414155" xlink:href="#id46">October</textPath></text><path d="M 79.00175016825051 100.2711162175752 l -3.642497498113877 0.0470296406666527 a24.642801094057578,24.642801094057578 0 0,0 -0.0018255653550601659,-0.424197096476853 l 3.64276736075844 0.01567693401387568" fill="#ff2703" stroke="none" /><path d="M 79.01574976396665 99.18683210126434 l -0.9493704811334881 -0.03678938206423646 a21.950083032729403,21.950083032729403 0 0,0 0.017880319984052373,-0.3774252948486345 l 0.9485965529159369 0.05312578353588005" fill="#ff0000" stroke="none" /><path d="M 79.03285615573316 98.82574320788736 l -1.473434312806179 -0.08251911955178279 a22.475743229442784,22.475743229442784 0 0,0 0.02495814518319846,-0.3860914592475345 l 1.4717955766185675 0.1078696430523291" fill="#ff0801" stroke="none" /><path d="M 79.05617556472873 98.46500227214037 l -5.243640819095855 -0.384312653493646 a26.257705322222193,26.257705322222193 0 0,0 0.03691772873114995,-0.45048979969790015 l 5.236248606545208 0.47451637039932454" fill="#ff3e05" stroke="none" /><path d="M 79.26566170972629 96.67025291283419 l -2.862760000826238 -0.4597333486392213 a23.899439527595234,23.899439527595234 0 0,0 0.06872584113245127,-0.40562380471054266 l 2.8544222981735636 0.508942941665592" fill="#ff1c02" stroke="none" /><path d="M 79.3925641242962 95.95851677861259 l -5.475027579333744 -1.0737498945513497 a26.57932485436313,26.57932485436313 0 0,0 0.09191472785847309,-0.44820885588910053 l 5.455733555560276 1.1678344066038526" fill="#ff4206" stroke="none" /><path d="M 79.46518482838121 95.60439243477599 l -30.338031647462156 -6.49404829354875 a52.025293350448095,52.025293350448095 0 0,0 0.19498488593075405,-0.874079010933592 l 30.221752374529363 7.015305474032301" fill="#81ff25" stroke="none" /><path d="M 80.14247586403 93.16781622104843 l -27.655749306817807 -9.51524271178039 a50.24688553650873,50.24688553650873 0 0,0 0.2884336785870603,-0.8154408502625029 l 27.487862547420935 9.989881188469505" fill="#95ff23" stroke="none" /><path d="M 80.52162464483688 92.15188598940014 l -6.780132718630269 -2.7318117457215956 a28.309787623201043,28.309787623201043 0 0,0 0.1860065114694867,-0.4504295214275038 l 6.732104520274582 2.848115837602411" fill="#ff5a08" stroke="none" /><path d="M 80.95270993114464 91.15688171328213 l -3.8569735355131485 -1.7906837707613543 a25.252386767512675,25.252386767512675 0 0,0 0.18643693591627708,-0.3926837343861871 l 3.82557840575512 1.8568099207880735" fill="#ff3004" stroke="none" /><path d="M 81.10775173730289 90.83032412892265 l -27.639733527507573 -13.415417481604209 a51.7234160808553,51.7234160808553 0 0,0 0.395659470915897,-0.7976253498982673 l 27.404714043638265 13.889202420001437" fill="#85ff25" stroke="none" /><line stroke="#e1ed5e" stroke-width="0.3" x1="26.266209847984243" x2="21.928928074336255" y1="57.711370442889674" y2="55.22380399835377" /><path d="M 25.398753493254645 57.213857153982495 a86.0,86.0 0 0,1 29.58750427330803,-30.492523968695096" fill="none" id="id47" stroke="none" /><text fill="#e1ed5e" style="font-size:6.75px; font-family:Arial;" text-anchor="middle"><textPath startOffset="21.46611528233685" xlink:href="#id47">November</textPath></text><path d="M 82.34701348167596 88.62581576622439 l -26.1776226027624 -16.866783531330537 a52.14091058118596,52.14091058118596 0 0,0 0.49261581403852917,-0.7502876812090534 l 25.88341015336595 17.314889276517256" fill="#80ff25" stroke="none" /><path d="M 82.95767976084542 87.72973835380427 l -5.913401656930483 -4.2575766991445665 a28.2866507055908,28.2866507055908 0 0,0 0.287900705835827,-0.39269623921075064 l 5.839238338581023 4.358735382026818" fill="#ff5a08" stroke="none" /><path d="M 83.84228863543731 86.58626213691792 l -11.456952875555128 -9.511282824338302 a35.89047582037739,35.89047582037739 0 0,0 0.3987079564662402,-0.4719444614928491 l 11.291534305601763 9.707086235460267" fill="#ffbf11" stroke="none" /><path d="M 84.80347519578584 85.50635884689758 l -5.172639274843517 -4.933389602551482 a28.148043791011407,28.148043791011407 0 0,0 0.33742231090700586,-0.3477433516481615 l 5.086952700233392 5.021697149749767" fill="#ff5808" stroke="none" /><path d="M 85.05521093208273 85.24692304244772 l -3.3788573874457 -3.335513324346132 a25.747875986331884,25.747875986331884 0 0,0 0.314080192829998,-0.3127314326676294 l 3.3209413944483885 3.3931806076638704" fill="#ff3705" stroke="none" /><path d="M 85.31137513191541 84.99185889309783 l -9.931582827656733 -10.147620885616345 a35.19896288821135,35.19896288821135 0 0,0 0.4366628399925409,-0.42006930610530513 l 9.755436744051764 10.317073278483964" fill="#ffb610" stroke="none" /><path d="M 85.57189188830299 84.74124197986013 l -9.088976539616356 -9.612243864204176 a34.228935204415635,34.228935204415635 0 0,0 0.4315977232488555,-0.4011230465407017 l 8.922170932572643 9.767271496819525" fill="#ffaa0f" stroke="none" /><path d="M 86.65592168130627 83.78471172551755 l -9.211282374212077 -11.193249582945295 a35.49608772060845,35.49608772060845 0 0,0 0.47513474392949534,-0.38419258618436825 l 9.017244231718081 11.350148266393797" fill="#ffba11" stroke="none" /><path d="M 87.22198572758235 83.33499621200491 l -10.446366031560219 -13.624083192841507 a38.16805772680188,38.16805772680188 0 0,0 0.5248177843898022,-0.39528187458868097 l 10.210302093412025 13.801881656936043" fill="#ffdc14" stroke="none" /><path d="M 89.00827224532344 82.1063720568725 l -16.002093737857212 -26.050091309297816 a51.57244284021024,51.57244284021024 0 0,0 0.7604183162452901,-0.4581435271591799 l 15.551313355394274 26.321681445915615" fill="#86ff25" stroke="none" /><line stroke="#e1ed5e" stroke-width="0.3" x1="56.762969772571076" x2="54.21961505331055" y1="26.818313649435495" y2="22.513508569990535" /><path d="M 56.25429882871897 25.957352633546506 a86.0,86.0 0 0,1 42.265352541879196,-11.944610805530505" fill="none" id="id48" stroke="none" /><text fill="#e1ed5e" style="font-size:6.75px; font-family:Arial;" text-anchor="middle"><textPath startOffset="22.20632615414155" xlink:href="#id48">December</textPath></text><path d="M 89.63071344664047 81.73862282372117 l -14.443664864187685 -25.43677528202188 a50.251478449080984,50.251478449080984 0 0,0 0.7558681681228536,-0.4206398171992692 l 14.003672606992785 25.681630496781334" fill="#95ff23" stroke="none" /><path d="M 91.56875222667455 80.76684994638697 l -5.446126015801132 -12.423565489817756 a34.564854148120304,34.564854148120304 0 0,0 0.5469744020490198,-0.23418589352819075 l 5.231467855961805 12.515470911308732" fill="#ffae10" stroke="none" /><path d="M 91.90106846888425 80.62456947434976 l -2.319461952723505 -5.5489509633738106 a27.014213210724996,27.014213210724996 0 0,0 0.4305758529527773,-0.17564270153525233 l 2.223602230182347 5.58805455109264" fill="#ff4806" stroke="none" /><path d="M 93.94186890950719 79.89281104454417 l -1.0675429122287088 -3.54321930866209 a24.70054738366172,24.70054738366172 0 0,0 0.408158646176989,-0.11915270126608542 l 1.0063940483282985 3.561070338846874" fill="#ff2803" stroke="none" /><path d="M 94.28887869178378 79.79150937346287 l -2.0867704049523046 -7.383923032337927 a28.67313039576908,28.67313039576908 0 0,0 0.47611338531276753,-0.1301397734933061 l 1.9593591304158147 7.418749346657529" fill="#ff5f08" stroke="none" /><path d="M 94.98787191387505 79.60689891045804 l -1.6599682344751563 -6.753997389809811 a27.95499642566582,27.95499642566582 0 0,0 0.4682812177902982,-0.11082703469161999 l 1.5434633297223241 6.781570336642302" fill="#ff5507" stroke="none" /><path d="M 96.40284397218896 79.31037775812273 l -2.7737395316646207 -15.953609647125731 a37.19293956520502,37.19293956520502 0 0,0 0.6316969181309583,-0.10423540407966286 l 2.4987134073947765 15.998991314145021" fill="#ffd013" stroke="none" /><path d="M 96.75951476605007 79.25152402106235 l -2.403389899741202 -15.388645219042635 a36.57519453129693,36.57519453129693 0 0,0 0.6228773386308681,-0.09179592831832914 l 2.1381435806816853 15.427735631521934" fill="#ffc812" stroke="none" /><path d="M 98.55514903715128 79.0497635885617 l -0.6556296267903963 -9.506583054435124 a30.529164264425205,30.529164264425205 0 0,0 0.5245752897054186,-0.03164381402800568 l 0.4918922882453548 9.516460137843435" fill="#ff790b" stroke="none" /><path d="M 99.63851952072746 79.00311137660856 l -0.514681737608614 -29.895708733178488 a50.90013876138491,50.90013876138491 0 0,0 0.8761622168811424,-0.0075414048149796955 l 7.323421845638347e-15 29.90013876138491" fill="#8eff24" stroke="none" /></svg>