<?xml version="1.0" encoding="utf-8" ?>
<svg baseProfile="full" height="200mm" version="1.1" viewBox="0,0,200,200" width="200mm" xmlns="http://www.w3.org/2000/svg" xmlns:ev="http://www.w3.org/2001/xml-events" xmlns:xlink="http://www.w3.org/1999/xlink"><defs /><rect fill="#1a1a1a" height="200" width="200" x="0" y="0" /><text alignment-baseline="middle" fill="#e1ed5e" style="dominant-baseline: central; font-size:9.0px; font-family:Arial;" text-anchor="middle" x="100.0" y="100.0">2024</text><line stroke="#e1ed5e" stroke-width="0.3" x1="100.0" x2="100.0" y1="15.0" y2="10.0" /><path d="M 100.0 14.0 a86.0,86.0 0 0,1 42.35913384403234,11.155469271406648" fill="none" id="id121" stroke="none" /><text fill="#e1ed5e" style="font-size:6.75px; font-family:Arial;" text-anchor="middle"><textPath startOffset="22.145653131862478" xlink:href="#id121">January</textPath></text><path d="M 100.0 79.0 l 0.0 -20.96047824282163 a41.96047824282163,41.96047824282163 0 0,0 0.7203074061815001,0.00618297276724822 l -0.3598144813326454 20.957389668248815" fill="#ffde14" stroke="none" /><path d="M 101.08105385017728 79.02784411241856 l 1.012923711227309 -19.650449393064996 a40.676538714778445,40.676538714778445 0 0,0 0.6970324853435987,0.041931743433919456 l -1.3501005487033702 19.630165671806385" fill="#ffcc13" stroke="none" /><path d="M 102.15924093988457 79.11130261209362 l 2.1396225816124526 -20.698907567963598 a41.80919891055027,41.80919891055027 0 0,0 0.7132730929752975,0.07992373781318206 l -2.4946315761885467 20.659128069643444" fill="#ffdc14" stroke="none" /><path d="M 104.9986988182912 79.60360301121754 l 4.691006282493853 -19.14090644239399 a40.70735495643382,40.70735495643382 0 0,0 0.6772825880272848,0.17216258538357795 l -5.018894163746532 19.057558625175147" fill="#ffcd13" stroke="none" /><path d="M 106.04205211174951 79.88797359093562 l 5.669441473746415 -18.871726780194326 a40.70493943889551,40.70493943889551 0 0,0 0.6674822468655561,0.2067877063078654 l -5.992564353483602 18.771622486079814" fill="#ffcd13" stroke="none" /><path d="M 106.38641147887787 79.99465700312896 l 6.848936964272624 -21.454197492188015 a43.520890914313014,43.520890914313014 0 0,0 0.7097578845459601,0.23331151423316623 l -7.2162175864663265 21.33346505655283" fill="#fff316" stroke="none" /><path d="M 106.72888874123014 80.10723608172694 l 6.334091549096364 -18.725616170593337 a40.76788852459262,40.76788852459262 0 0,0 0.6610109870731391,0.22993393417722496 l -6.654608308214521 18.61412380384752" fill="#ffce13" stroke="none" /><path d="M 107.40779381753099 80.34994680014964 l 7.002648561861395 -18.575357275034797 a40.85147311350288,40.85147311350288 0 0,0 0.6540665894647443,0.2530070077556242 l -7.320487413819666 18.452410379141135" fill="#ffcf13" stroke="none" /><path d="M 107.74402155503746 80.48000691201159 l 7.328442872641583 -18.472463332262706 a40.873046482594496,40.873046482594496 0 0,0 0.6499700728770582,0.2643371702268196 l -7.644467406709081 18.343938905456593" fill="#ffcf13" stroke="none" /><path d="M 108.4095320186766 80.7573450057729 l 9.394562784862027 -21.496598156618237 a44.45978563895751,44.45978563895751 0 0,0 0.6967199793186946,0.3116339848288832 l -9.762196167036354 21.3321604208795" fill="#ffff18" stroke="none" /><path d="M 108.73861861582097 80.90454125486305 l 26.21585584746289 -57.286376235410856 a84.0,84.0 0 0,0 1.3060451445139798,0.6112950737178657 l -27.195389705848374 56.82790493012246" fill="#4dd2ff" stroke="none" /><path d="M 109.3889696526874 81.21577127319529 l 11.436987879469777 -22.881637093390918 a46.58073509164234,46.58073509164234 0 0,0 0.7121812395474952,0.36364481540518806 l -11.828096340730852 22.681934326312895" fill="#e3ff1b" stroke="none" /><path d="M 110.02825361518725 81.54914285379988 l 9.639414468322414 -17.73543691183466 a41.18573837504516,41.18573837504516 0 0,0 0.618287780372158,0.3429538093036831 l -9.942446436850673 17.567350187097833" fill="#ffd313" stroke="none" /><path d="M 110.34350942703115 81.72400993836675 l 9.847027994169677 -17.398754941699103 a40.9920142516771,40.9920142516771 0 0,0 0.6094293146165488,0.35185417884591363 l -10.144249776646623 17.227153865577016" fill="#ffd113" stroke="none" /><line stroke="#e1ed5e" stroke-width="0.3" x1="143.13028292997686" x2="145.6673583964461" y1="26.7553504044142" y2="22.446841604673864" /><path d="M 143.63769802327073 25.89364864446614 a86.0,86.0 0 0,1 29.32050498858742,28.57503671076993" fill="none" id="id122" stroke="none" /><text fill="#e1ed5e" style="font-size:6.75px; font-family:Arial;" text-anchor="middle"><textPath startOffset="20.669276256404974" xlink:href="#id122">February</textPath></text><path d="M 110.96478420261332 82.08984904055464 l 10.39846178180859 -16.98510584584304 a40.91536663037428,40.91536663037428 0 0,0 0.5958755618708972,0.3718704213734482 l -10.6885014724692 16.804099627628048" fill="#ffd013" stroke="none" /><path d="M 111.8722381534696 82.67804972795209 l 11.365045993391583 -16.581941752872744 a41.10286205313986,41.10286205313986 0 0,0 0.5785813233198046,0.40389469856724497 l -11.648022407885149 16.38440223850037" fill="#ffd213" stroke="none" /><path d="M 112.16784306229584 82.88440491214696 l 11.563209955113372 -16.265102902322422 a40.95648758898144,40.95648758898144 0 0,0 0.569527244017404,0.41229380397994836 l -11.840718209504745 16.0642083269694" fill="#ffd013" stroke="none" /><path d="M 112.7482090630111 83.31218511350987 l 14.00349465128822 -18.331024016753595 a44.06781966184613,44.06781966184613 0 0,0 0.5972030113033174,0.46438867373958026 l -14.316107607226762 18.087934291393225" fill="#fffa17" stroke="none" /><path d="M 113.03279911837588 83.53348406188908 l 12.891386903918649 -16.287846224716787 a41.77213977775391,41.77213977775391 0 0,0 0.5584521934865158,0.4498495563161565 l -13.169089867760425 16.06414837460722" fill="#ffdb14" stroke="none" /><path d="M 113.86319453409587 84.22622945171908 l 17.804660992164923 -20.258435852545258 a47.970542750148915,47.970542750148915 0 0,0 0.6138744056775898,0.5489302788943271 l -18.149800424665887 19.949810043767542" fill="#d1ff1c" stroke="none" /><path d="M 114.13192950727249 84.46653392183569 l 15.83681455482086 -17.407433397321515 a44.53345348065112,44.53345348065112 0 0,0 0.5610583795978462,0.5193072600405181 l -16.13330270573267 17.13300839114862" fill="#feff18" stroke="none" /><path d="M 114.39649973595853 84.71141617570332 l 13.620102461507729 -14.464076824046582 a40.86747868839653,40.86747868839653 0 0,0 0.5066156731382193,0.485326354756253 l -13.866390620511261 14.228138338984749" fill="#ffcf13" stroke="none" /><path d="M 114.91283532996326 85.21462403516908 l 14.035308844959255 -13.915349661126497 a40.76428219199485,40.76428219199485 0 0,0 0.488420544815182,0.5011625064819103 l -14.27211619092525 13.672364462576844" fill="#ffce13" stroke="none" /><path d="M 115.16444852881244 85.47280134310134 l 21.036518765376503 -20.152509111924385 a50.131748064134996,50.131748064134996 0 0,0 0.5899890037454527,0.6265478765401556 l -21.379363602858216 19.788419775439735" fill="#b6ff1f" stroke="none" /><path d="M 116.1254893667686 86.54754324733833 l 4.507346243724938 -3.7601885458396147 a26.869854177156768,26.869854177156768 0 0,0 0.2924376494658776,0.35672638265168877 l -4.571230712429443 3.682259881489431" fill="#ff0000" stroke="none" /><path d="M 116.35404254752997 86.82634096563983 l 15.279084567542922 -12.307748977965414 a40.619661315291275,40.619661315291275 0 0,0 0.4327610386762424,0.5467794351796815 l -15.488112036860723 12.043649598871054" fill="#ffcc13" stroke="none" /><path d="M 116.7966241395341 87.39550010848427 l 13.76573677901235 -10.33006551175396 a38.21062934776593,38.21062934776593 0 0,0 0.3891988784722919,0.528023026456535 l -13.941037677068469 10.09223617602855" fill="#ffaa0f" stroke="none" /><path d="M 117.21940702142032 87.97951657250589 l 16.096294272144434 -11.236463503167785 a40.63030313962297,40.63030313962297 0 0,0 0.394327275055223,0.5753352789189626 l -16.28681128401498 10.958493489178775" fill="#ffcc13" stroke="none" /><path d="M 117.62189284568427 88.57770195909679 l 20.330026289032126 -13.177677420141269 a45.22728113309536,45.22728113309536 0 0,0 0.41669898833886315,0.6551200215309956 l -20.55324296899688 12.826743723931601" fill="#f5ff19" stroke="none" /><path d="M 117.81537515405839 88.88188828441811 l 22.958330795702924 -14.32769640732275 a48.06229549142738,48.06229549142738 0 0,0 0.4308030339665388,0.7036843798794321 l -23.200901794124867 13.931474911318762" fill="#d0ff1d" stroke="none" /><line stroke="#e1ed5e" stroke-width="0.3" x1="172.87174338648825" x2="177.1583165268699" y1="56.24261187166439" y2="53.66864786411523" /><path d="M 173.72905801456457 55.72781907015455 a86.0,86.0 0 0,1 12.242430191666344,42.057860355516425" fill="none" id="id123" stroke="none" /><text fill="#e1ed5e" style="font-size:6.75px; font-family:Arial;" text-anchor="middle"><textPath startOffset="22.145653131862474" xlink:href="#id123">March</textPath></text><line stroke="#e1ed5e" stroke-width="0.3" x1="184.99686870605535" x2="189.99668451229388" y1="99.2704041080226" y2="99.22748670261217" /><path d="M 185.99683186730306 99.26182062694052 a86.0,86.0 0 0,1 -10.086455211305974,41.156179273409016" fill="none" id="id124" stroke="none" /><text fill="#e1ed5e" style="font-size:6.75px; font-family:Arial;" text-anchor="middle"><textPath startOffset="21.40746469413373" xlink:href="#id124">April</textPath></text><line stroke="#e1ed5e" stroke-width="0.3" x1="174.33088141563837" x2="178.70328620479359" y1="141.23008692659167" y2="143.65538615756765" /><path d="M 175.20536237346943 141.71514677278685 a86.0,86.0 0 0,1 -30.301960400862466,31.631185727798858" fill="none" id="id125" stroke="none" /><text fill="#e1ed5e" style="font-size:6.75px; font-family:Arial;" text-anchor="middle"><textPath startOffset="22.145653131862474" xlink:href="#id125">May</textPath></text><line stroke="#e1ed5e" stroke-width="0.3" x1="143.1302829299769" x2="145.66735839644613" y1="173.24464959558577" y2="177.55315839532614" /><path d="M 143.63769802327073 174.10635135553383 a86.0,86.0 0 0,1 -40.68552437913181,11.842963189579606" fill="none" id="id126" stroke="none" /><text fill="#e1ed5e" style="font-size:6.75px; font-family:Arial;" text-anchor="middle"><textPath startOffset="21.407464694133747" xlink:href="#id126">June</textPath></text><line stroke="#e1ed5e" stroke-width="0.3" x1="101.45913802915013" x2="101.54496967792366" y1="184.9874750549273" y2="189.98673829345242" /><path d="M 101.47630435890484 185.9873277026323 a86.0,86.0 0 0,1 -42.54439059252881,-10.42667462771756" fill="none" id="id127" stroke="none" /><text fill="#e1ed5e" style="font-size:6.75px; font-family:Arial;" text-anchor="middle"><textPath startOffset="22.145653131862474" xlink:href="#id127">July</textPath></text><line stroke="#e1ed5e" stroke-width="0.3" x1="58.13341422392154" x2="55.67067388415222" y1="173.97424548756322" y2="178.32567169271397" /><path d="M 57.64086615596768 174.84453072859336 a86.0,86.0 0 0,1 -31.369924170532247,-30.572349798747897" fill="none" id="id128" stroke="none" /><text fill="#e1ed5e" style="font-size:6.75px; font-family:Arial;" text-anchor="middle"><textPath startOffset="22.145653131862474" xlink:href="#id128">August</textPath></text><line stroke="#e1ed5e" stroke-width="0.3" x1="26.387840678322732" x2="22.057713659400548" y1="142.50000000000003" y2="145.00000000000006" /><path d="M 25.521815274538298 143.00000000000003 a86.0,86.0 0 0,1 -11.493303480769221,-40.785679425670985" fill="none" id="id129" stroke="none" /><text fill="#e1ed5e" style="font-size:6.75px; font-family:Arial;" text-anchor="middle"><textPath startOffset="21.40746469413373" xlink:href="#id129">September</textPath></text><line stroke="#e1ed5e" stroke-width="0.3" x1="15.003131293944662" x2="10.003315487706104" y1="100.72959589197737" y2="100.7725132973878" /><path d="M 14.003168132696942 100.73817937305945 a86.0,86.0 0 0,1 10.791469493833604,-42.45332614584628" fill="none" id="id130" stroke="none" /><text fill="#e1ed5e" style="font-size:6.75px; font-family:Arial;" text-anchor="middle"><textPath startOffset="22.145653131862435" xlink:href="#id130">October</textPath></text><line stroke="#e1ed5e" stroke-width="0.3" x1="26.387840678322718" x2="22.05771365940052" y1="57.49999999999999" y2="54.99999999999999" /><path d="M 25.521815274538284 56.99999999999999 a86.0,86.0 0 0,1 29.574782752854787,-30.34633250058573" fill="none" id="id131" stroke="none" /><text fill="#e1ed5e" style="font-size:6.75px; font-family:Arial;" text-anchor="middle"><textPath startOffset="21.40746469413373" xlink:href="#id131">November</textPath></text><line stroke="#e1ed5e" stroke-width="0.3" x1="56.869717070023135" x2="54.33264160355391" y1="26.7553504044142" y2="22.446841604673864" /><path d="M 56.362301976729285 25.89364864446614 a86.0,86.0 0 0,1 42.16139366436587,-11.88097634709845" fill="none" id="id132" stroke="none" /><text fill="#e1ed5e" style="font-size:6.75px; font-family:Arial;" text-anchor="middle"><textPath startOffset="22.145653131862474" xlink:href="#id132">December</textPath></text></svg>