<?xml version="1.0" encoding="utf-8" ?>
<svg baseProfile="full" height="200mm" version="1.1" viewBox="0,0,200,200" width="200mm" xmlns="http://www.w3.org/2000/svg" xmlns:ev="http://www.w3.org/2001/xml-events" xmlns:xlink="http://www.w3.org/1999/xlink"><defs /><rect fill="#1a1a1a" height="200" width="200" x="0" y="0" /><text alignment-baseline="middle" fill="#e1ed5e" style="dominant-baseline: central; font-size:9.0px; font-family:Arial;" text-anchor="middle" x="100.0" y="100.0">2023</text><line stroke="#e1ed5e" stroke-width="0.3" x1="100.0" x2="100.0" y1="15.0" y2="10.0" /><path d="M 100.0 14.0 a86.0,86.0 0 0,1 42.46469731375804,11.215312516191453" fill="none" id="id97" stroke="none" /><text fill="#e1ed5e" style="font-size:6.75px; font-family:Arial;" text-anchor="middle"><textPath startOffset="22.20632615414155" xlink:href="#id97">January</textPath></text><path d="M 100.0 79.0 l 0.0 -3.9883664452092233 a24.988366445209223,24.988366445209223 0 0,0 0.43013365137389503,0.003702296135415301 l -0.06865317210136668 3.987775525682367" fill="#ff2703" stroke="none" /><path d="M 100.72285384407766 79.0124445844662 l 0.4274933006932542 -12.41196877014215 a33.419328454997945,33.419328454997945 0 0,0 0.5747474689006945,0.024749835024280364 l -0.6410816019832802 12.402771208593675" fill="#ff9b0e" stroke="none" /><path d="M 101.08401301168833 79.027996857942 l 0.2652109557884639 -5.130939332029931 a26.137788948569412,26.137788948569412 0 0,0 0.4491193434316391,0.027092105287522636 l -0.3534923480597149 5.125613957362105" fill="#ff3805" stroke="none" /><path d="M 101.44485096284872 79.0497635885617 l 0.979454753345562 -14.202024405644552 a35.235758807748,35.235758807748 0 0,0 0.6047291980749845,0.0469386244874882 l -1.2237741407828877 14.183060518968599" fill="#ffb310" stroke="none" /><path d="M 101.80526077348638 79.07773832637324 l 0.5490683153569117 -6.363485618983026 a27.387129655638176,27.387129655638176 0 0,0 0.4693304668659901,0.044568583013030925 l -0.658523909313146 6.353091491454816" fill="#ff4906" stroke="none" /><path d="M 102.88285421437855 79.19881850522331 l 1.1362556323908184 -8.198631590851576 a29.27699443183631,29.27699443183631 0 0,0 0.4985886366020089,0.07347900446411297 l -1.2772132494214832 8.177858102226494" fill="#ff6409" stroke="none" /><path d="M 103.2404852339499 79.25152402106235 l 0.8518564236495411 -5.454344416824297 a26.5204648702673,26.5204648702673 0 0,0 0.4504321551830624,0.07432516505683966 l -0.9456177849714786 5.438872988827832" fill="#ff3d05" stroke="none" /><path d="M 106.74666289553966 80.11325718540242 l 3.142658504534035 -9.263430291603026 a30.781995872188283,30.781995872188283 0 0,0 0.500307102001328,0.17454732410080057 l -3.3016476105986365 9.207962114330018" fill="#ff780b" stroke="none" /><path d="M 107.08798089147638 80.2323363322302 l 4.314586441315916 -12.032946327496036 a33.78309248499703,33.78309248499703 0 0,0 0.5457058124271734,0.2009880561177256 l -4.521074579515666 11.956895003571987" fill="#ffa00e" stroke="none" /><path d="M 107.4271985657038 80.35727306442388 l 1.5147258080693817 -4.0059983810810245 a25.282804840622,25.282804840622 0 0,0 0.4057490889198821,0.15742434281060605 l -1.583458061988931 3.979331334379871" fill="#ff2c04" stroke="none" /><path d="M 108.43124777332544 80.76684994638697 l 5.085346854209924 -11.600565153728311 a33.666249030929336,33.666249030929336 0 0,0 0.5287490921214727,0.237234304968813 l -5.284278064798176 11.511310518242968" fill="#ff9f0e" stroke="none" /><path d="M 108.76106565485865 80.91482961587045 l 5.713809073479029 -12.44700405244162 a34.69582140689887,34.69582140689887 0 0,0 0.5406299400569118,0.2538330059127746 l -5.927217224835539 12.346806063888843" fill="#ffac0f" stroke="none" /><path d="M 109.08828744355905 81.06846463323043 l 5.963687102257521 -12.422775357171407 a34.78009112554695,34.78009112554695 0 0,0 0.5374828050588323,0.26374047818017504 l -6.176641174326785 12.3182797188564" fill="#ffad10" stroke="none" /><path d="M 109.41281617654863 81.2277094730956 l 1.5048372043531255 -3.0011465926841847 a24.357292939614478,24.357292939614478 0 0,0 0.3731763597166385,0.19115542569531058 l -1.5562740516585196 2.9747986416763736" fill="#ff1e03" stroke="none" /><path d="M 109.73455568895987 81.39251694778311 l 6.925318425284253 -13.237660695272172 a35.93973547204686,35.93973547204686 0 0,0 0.5456934610344909,0.29149054832329063 l -7.152156932847055 13.116491420447128" fill="#ffbc11" stroke="none" /><line stroke="#e1ed5e" stroke-width="0.3" x1="143.23703022742887" x2="145.7803849466894" y1="26.81831364943548" y2="22.513508569990506" /><path d="M 143.74570117128098 25.957352633546492 a86.0,86.0 0 0,1 28.547481713284135,27.462654790039103" fill="none" id="id98" stroke="none" /><text fill="#e1ed5e" style="font-size:6.75px; font-family:Arial;" text-anchor="middle"><textPath startOffset="19.985693538727396" xlink:href="#id98">February</textPath></text><path d="M 111.2981086023043 82.29822771554956 l 4.040103968595382 -6.3299976106614695 a28.509414746039806,28.509414746039806 0 0,0 0.4113948925543783,0.2675826818107934 l -4.148465886934041 6.259516004691148" fill="#ff5908" stroke="none" /><path d="M 111.60114157652 82.49532879139004 l 14.381948897788062 -21.700561546834276 a47.033724772812086,47.033724772812086 0 0,0 0.6710039593575828,0.45306486865537254 l -14.753357551552186 21.44978476588023" fill="#bbff1f" stroke="none" /><path d="M 111.90073688211348 82.69761687909136 l 7.070205328751291 -10.27931316802793 a33.476060379666954,33.476060379666954 0 0,0 0.4719628118017566,0.3306401108234575 l -7.246099280136698 10.156088214440537" fill="#ff9c0e" stroke="none" /><path d="M 113.06298171725822 83.55741782278167 l 7.779338282904228 -9.791976423884998 a33.50603479947897,33.50603479947897 0 0,0 0.44849678617683,0.3626532102274981 l -7.94673846764555 9.65661711639337" fill="#ff9d0e" stroke="none" /><path d="M 114.42810811169701 84.74124197986012 l 7.851973491136135 -8.304024516191904 a32.42848681457964,32.42848681457964 0 0,0 0.40229353330913104,0.38700606030663537 l -7.993750268057684 8.167635369122966" fill="#ff8e0d" stroke="none" /><path d="M 114.94478906791727 85.2469230424477 l 9.044758151086164 -8.928731777946652 a33.709441418652276,33.709441418652276 0 0,0 0.40408909788958775,0.41644933580973087 l -9.19711151267886 8.771718246586806" fill="#ff9f0e" stroke="none" /><path d="M 115.19652480421416 85.50635884689758 l 9.015345717873593 -8.598359650607978 a33.458260195307574,33.458260195307574 0 0,0 0.3939035842997597,0.4201888795978207 l -9.162016624143817 8.441901354132103" fill="#ff9c0e" stroke="none" /><path d="M 116.15771136456269 86.58626213691792 l 19.32657151443268 -16.044448266063288 a46.118532733120816,46.118532733120816 0 0,0 0.5018168701305525,0.6151681472854342 l -19.59988687663964 15.709395949169753" fill="#c5ff1e" stroke="none" /><path d="M 116.60985879189232 87.15038557335679 l 20.17313826922796 -15.606216270873418 a46.50508760860593,46.50508760860593 0 0,0 0.4843705505708363,0.6373748672734803 l -20.43878476002291 15.256656627718904" fill="#c1ff1e" stroke="none" /><path d="M 117.04232023915458 87.72973835380427 l 11.4508298502417 -8.24445711363443 a35.11001691557256,35.11001691557256 0 0,0 0.3489055927977235,0.4935022174466425 l -11.591048062843306 8.046128395855995" fill="#ffb210" stroke="none" /><path d="M 117.2510076193507 88.02491185347247 l 6.785391718585533 -4.710198136347356 a29.259994386093688,29.259994386093688 0 0,0 0.28364852341328023,0.41621920771955795 l -6.865464707667547 4.592700905357391" fill="#ff6309" stroke="none" /><path d="M 117.45458315368197 88.32363383020206 l 21.589353979613634 -14.4423501962679 a46.974635405500855,46.974635405500855 0 0,0 0.44380598653743414,0.6759469652751023 l -21.834756601508996 14.068585167015124" fill="#bbff1f" stroke="none" /><line stroke="#e1ed5e" stroke-width="0.3" x1="172.23445277983987" x2="176.4835382374775" y1="55.19839476539836" y2="52.563006222186495" /><path d="M 173.08426987136738 54.67131705675599 a86.0,86.0 0 0,1 12.851231095245387,41.99856678651699" fill="none" id="id99" stroke="none" /><text fill="#e1ed5e" style="font-size:6.75px; font-family:Arial;" text-anchor="middle"><textPath startOffset="22.20632615414155" xlink:href="#id99">March</textPath></text><path d="M 117.84615892207809 88.93136811851018 l 21.89836862543438 -13.581913182462849 a46.76833161365646,46.76833161365646 0 0,0 0.4184300309865238,0.6877889521731035 l -22.128914454707125 13.202956457082664" fill="#beff1f" stroke="none" /><path d="M 118.03404312379186 89.2402003453031 l 22.21456678425833 -13.254059911787904 a46.86807069646936,46.86807069646936 0 0,0 0.40739585151815383,0.6963715695500737 l -22.43942231024681 12.869708929883934" fill="#bdff1f" stroke="none" /><path d="M 118.56541770881063 90.18545643968196 l 22.88991482458779 -12.100673933733905 a46.891591498543136,46.891591498543136 0 0,0 0.37109238910319775,0.7168323794122505 l -23.094816646851104 11.70486883206131" fill="#bcff1f" stroke="none" /><path d="M 118.89224826269711 90.83032412892265 l 23.19427672303323 -11.257738976161711 a46.78199293227798,46.78199293227798 0 0,0 0.345388794281075,0.7274768858802863 l -23.384623711156063 10.856819674640885" fill="#beff1f" stroke="none" /><path d="M 119.196687751892 91.48605970444005 l 11.722888436470182 -5.199228821637744 a33.824121554074374,33.824121554074374 0 0,0 0.2314685951776624,0.534261431099676 l -11.810647741490525 4.996668245951465" fill="#ffa10e" stroke="none" /><path d="M 119.34039704204932 91.81776055985345 l 11.74237582306689 -4.967784806673264 a33.74999121001891,33.74999121001891 0 0,0 0.2217508026078131,0.5369871576307054 l -11.8261483125609 4.764923078589256" fill="#ffa00e" stroke="none" /><path d="M 119.7369772167798 92.82701384747503 l 23.886493537173187 -8.681039932946483 a46.415055140975554,46.415055140975554 0 0,0 0.2664377095851149,0.7532552838849541 l -24.03238432756811 8.268587022634915" fill="#c2ff1e" stroke="none" /><path d="M 119.85752413597 93.16781622104841 l 12.184207418718836 -4.192100873983707 a33.885209356468295,33.885209356468295 0 0,0 0.18501760980584725,0.5531791038336095 l -12.254562322296453 3.9817486672277833" fill="#ffa20e" stroke="none" /><path d="M 120.08093135843002 93.85539295169968 l 12.013095356961552 -3.67591268974194 a33.56291344227353,33.56291344227353 0 0,0 0.16428902750552837,0.5539009282981845 l -12.074590281578782 3.4685823746972253" fill="#ff9d0e" stroke="none" /><path d="M 120.28053869075195 94.5502522615342 l 52.81270955100136 -14.19173074377292 a75.68626437801525,75.68626437801525 0 0,0 0.3272662110741823,1.2610902115582023 l -53.04917209394585 13.280544106665866" fill="#43ffdc" stroke="none" /><path d="M 120.37134235888165 94.90015583598534 l 12.390348164584074 -3.101849827275332 a33.77271310217919,33.77271310217919 0 0,0 0.1363246817745935,0.5651538167159829 l -12.441905646619487 2.888110778899943" fill="#ffa00e" stroke="none" /><path d="M 120.45610955862082 95.25157060432595 l 3.7587018315263325 -0.8724987620567313 a24.858638820634802,24.858638820634802 0 0,0 0.09316735269871465,0.41765097386631894 l -3.7731635712270846 0.8076696186404484" fill="#ff2503" stroke="none" /><path d="M 120.53481517161879 95.60439243477599 l 12.597289117850412 -2.6965297172125626 a33.88266143444447,33.88266143444447 0 0,0 0.1171706061734828,0.5713654879957105 l -12.641839019938892 2.4792885730534406" fill="#ffa20e" stroke="none" /><path d="M 120.6074358757038 95.95851677861258 l 12.366948442589957 -2.4253776613430196 a33.6025342920311,33.6025342920311 0 0,0 0.10643086872517037,0.5685579565130787 l -12.406865035224985 2.212141627367378" fill="#ff9e0e" stroke="none" /><path d="M 120.67395015179393 96.31383870115 l 12.544799818282444 -2.236735372410705 a33.74264445109305,33.74264445109305 0 0,0 0.09703121360888024,0.5726837153416808 l -12.581442893411547 2.0204658687531865" fill="#ffa00e" stroke="none" /><path d="M 120.87857604477298 97.74499172005257 l 7.437799570213069 -0.803325838862411 a28.481055730981137,28.481055730981137 0 0,0 0.04844881782453714,0.487872983704981 l -7.4505255137198345 0.6751773244529952" fill="#ff5908" stroke="none" /><path d="M 120.91429891909075 98.10471618934814 l 12.478455907974144 -1.1308155992132434 a33.52958920981366,33.52958920981366 0 0,0 0.04714182994000226,0.5752497311445918 l -12.496072221733641 0.915851950860883" fill="#ff9d0e" stroke="none" /><path d="M 120.94382443527127 98.46500227214037 l 14.921233020449087 -1.093594861532596 a35.9612547793195,35.9612547793195 0 0,0 0.03993310515206519,0.6177474618917489 l -14.937846716605566 0.8365883353878119" fill="#ffbd11" stroke="none" /><path d="M 120.96714384426684 98.82574320788733 l 12.589972045277333 -0.705096521323192 a33.609700916566055,33.609700916566055 0 0,0 0.02737812909684722,0.5779090338426089 l -12.600243782607677 0.4882763808575833" fill="#ff9e0e" stroke="none" /><line stroke="#e1ed5e" stroke-width="0.3" x1="184.98032266829074" x2="189.97916517819016" y1="98.17113171792111" y2="98.06355123074" /><path d="M 185.9800911702706 98.14961562048488 a86.0,86.0 0 0,1 -9.607161424134198,41.387399972396054" fill="none" id="id100" stroke="none" /><text fill="#e1ed5e" style="font-size:6.75px; font-family:Arial;" text-anchor="middle"><textPath startOffset="21.466115282336823" xlink:href="#id100">April</textPath></text><path d="M 120.99980553446 99.90962569577887 l 53.1005761316375 -0.22852247911358048 a74.10106786153449,74.10106786153449 0 0,0 -0.005489487243948112,1.2755635089014414 l -53.09664234710405 -0.6855505079915457" fill="#41ffcc" stroke="none" /><path d="M 120.95626037817324 101.35467743843564 l 12.425979664384029 0.803253729340639 a33.451915000247354,33.451915000247354 0 0,0 -0.04209117683688564,0.5743006663436105 l -12.410311928882805 -1.0170275321810198" fill="#ff9c0e" stroke="none" /><path d="M 120.8583938346157 102.4346265915055 l 52.44313510762445 6.121250384248054 a73.79916785502598,73.79916785502598 0 0,0 -0.15813577011022334,1.2604976789505817 l -52.32999782826738 -7.023065817486031" fill="#40ffc9" stroke="none" /><path d="M 120.70491114924044 103.5080841355445 l 13.94225240568104 2.3622701940414306 a35.14095904149981,35.14095904149981 0 0,0 -0.10618185099028649,0.5955242097200838 l -13.899524112351566 -2.6019131544947327" fill="#ffb210" stroke="none" /><path d="M 120.64145759157962 103.86396538481128 l 5.616688598167508 1.0514126836390052 a26.714250558043624,26.714250558043624 0 0,0 -0.08850058103942843,0.45126255605397464 l -5.5977580841524155 -1.1479389667609248" fill="#ff4006" stroke="none" /><path d="M 120.41448212921028 104.9243191809786 l 51.37556376612459 12.392656962143729 a73.84909175064888,73.84909175064888 0 0,0 -0.30871974787109185,1.233181931559047 l -51.154632703958434 -13.275166733100171" fill="#40ffc9" stroke="none" /><path d="M 120.32669344350535 105.2749913415812 l 4.53897266752557 1.1779112814101724 a25.689322751039594,25.689322751039594 0 0,0 -0.11476022784533199,0.42706549966512336 l -4.518024363338461 -1.255867714250844" fill="#ff3104" stroke="none" /><path d="M 120.13307415673323 105.97154293290107 l 11.8437370074897 3.512895421515196 a33.3537257758574,33.3537257758574 0 0,0 -0.1679967249646586,0.5490230174099578 l -11.78151351001891 -3.7162454114772108" fill="#ff9b0e" stroke="none" /><path d="M 119.9155931802556 106.66101706037122 l 19.355033077130088 6.47353078383971 a41.408917321262294,41.408917321262294 0 0,0 -0.23190801703305314,0.674033251234559 l -19.2407342291538 -6.80573673816357" fill="#fdff18" stroke="none" /><path d="M 119.54520255179757 107.68017299344265 l 12.892317363911934 5.065960681594561 a34.851924221540024,34.851924221540024 0 0,0 -0.22420970716331046,0.5564701058750824 l -12.803205042491232 -5.287130155312457" fill="#ffae10" stroke="none" /><path d="M 119.26925614724726 108.34839909993367 l 11.359820219235822 4.921638498599989 a33.380147047764034,33.380147047764034 0 0,0 -0.2329599115633762,0.5252631009548726 l -11.273419222941172 -5.116449936047549" fill="#ff9b0e" stroke="none" /><path d="M 118.97047184881838 109.00673069616215 l 11.299423643238258 5.364698705838119 a33.50827593530751,33.50827593530751 0 0,0 -0.2518653444211347,0.518917209558333 l -11.20540504220241 -5.558404871361728" fill="#ff9d0e" stroke="none" /><path d="M 118.64920377521936 109.65438752849418 l 3.098731407454823 1.604162526983444 a24.48933715030876,24.48933715030876 0 0,0 -0.19701962317998142,0.37268687827295216 l -3.0706592760499483 -1.6572644203425306" fill="#ff2003" stroke="none" /><line stroke="#e1ed5e" stroke-width="0.3" x1="174.80103733775053" x2="179.2010983576182" y1="140.37084112569926" y2="142.7455964860345" /><path d="M 175.68104954172406 140.8457921977663 a86.0,86.0 0 0,1 -30.038265399797805,32.042727171017184" fill="none" id="id101" stroke="none" /><text fill="#e1ed5e" style="font-size:6.75px; font-family:Arial;" text-anchor="middle"><textPath startOffset="22.206326154141568" xlink:href="#id101">May</textPath></text><path d="M 118.48025628344425 109.97397251340804 l 6.686359138536031 3.6086925007786665 a28.598030014066836,28.598030014066836 0 0,0 -0.23753195607938257,0.4311894961046664 l -6.6232507730051395 -3.7232525152811378" fill="#ff5a08" stroke="none" /><path d="M 118.30583269289576 110.29060199501025 l 3.5235788442257827 1.9807756408719737 a25.042162788773762,25.042162788773762 0 0,0 -0.2144658566470534,0.37393929844499246 l -3.4889609914263495 -2.0411347851752812" fill="#ff2803" stroke="none" /><path d="M 117.75023020441432 111.22182372390056 l 10.483063785927605 6.627468632087335 a33.40233715108279,33.40233715108279 0 0,0 -0.31142929362009913,0.48334517963596435 l -10.367429628930456 -6.806935411644752" fill="#ff9b0e" stroke="none" /><path d="M 116.93607887273984 112.41649034213515 l 10.138937937998662 7.433245081853004 a33.571841351110045,33.571841351110045 0 0,0 -0.345692021356065,0.4631109547891989 l -10.009484649947506 -7.606668916151517" fill="#ff9d0e" stroke="none" /><path d="M 116.71984013943494 112.70617746262583 l 9.895691964625044 7.52019260767021 a33.42891854970505,33.42891854970505 0 0,0 -0.3521070900460577,0.45514587839792214 l -9.76477805736092 -7.689416480181384" fill="#ff9c0e" stroke="none" /><path d="M 116.27256486870786 113.27417163493432 l 3.206646919300598 2.61578810242036 a25.13822810654801,25.13822810654801 0 0,0 -0.2764055916852615,0.33294834114012123 l -3.161145327721793 -2.6705977006742514" fill="#ff2904" stroke="none" /><path d="M 115.80600337817218 113.82643327865902 l 25.802116563552058 22.57061665612465 a55.28092699150446,55.28092699150446 0 0,0 -0.6326800755068765,0.7108227718274064 l -25.409777638396843 -23.011413597692922" fill="#61ff29" stroke="none" /><path d="M 114.0293411484842 115.62618273729858 l 35.36117556024999 39.386039961674456 a73.93083109932658,73.93083109932658 0 0,0 -0.954262720259235,0.8420259004047854 l -34.67797048708417 -39.98888900385153" fill="#40ffca" stroke="none" /><path d="M 112.34349029814194 116.9893568818739 l 30.70389709138455 42.260288844589134 a73.23658976068822,73.23658976068822 0 0,0 -1.0262631889577496,0.7322115363436851 l -29.971906574577915 -42.78254464277704" fill="#40ffc3" stroke="none" /><path d="M 111.1453310114006 117.79835938074945 l 6.6823669921118904 10.67129985803077 a33.590896285700794,33.590896285700794 0 0,0 -0.4926997499482094,0.3026564279441136 l -6.497688042231372 -10.784744752803261" fill="#ff9e0e" stroke="none" /><line stroke="#e1ed5e" stroke-width="0.3" x1="143.8653032363475" x2="146.44561519142675" y1="172.8068346515853" y2="177.08958963109032" /><path d="M 144.38136562736335 173.6633856474863 a86.0,86.0 0 0,1 -40.68145358897372,12.25698825130547" fill="none" id="id102" stroke="none" /><text fill="#e1ed5e" style="font-size:6.75px; font-family:Arial;" text-anchor="middle"><textPath startOffset="21.466115282336833" xlink:href="#id102">June</textPath></text><path d="M 110.8373102113329 117.98757091392108 l 6.531170290493492 10.840317981143867 a33.65577651887611,33.65577651887611 0 0,0 -0.49879804657918086,0.2946986779454019 l -6.343604372885928 -10.95113523138302" fill="#ff9f0e" stroke="none" /><path d="M 110.21172684928248 118.3499491758327 l 3.019626971754326 5.426114728632676 a27.209739776901337,27.209739776901337 0 0,0 -0.4112262238180347,0.22423332531318063 l -2.9257779360676426 -5.477288705705628" fill="#ff4706" stroke="none" /><path d="M 109.89434966115114 118.52300852407294 l 2.9528677126476808 5.528002919341868 a27.267235754672818,27.267235754672818 0 0,0 -0.41590207977031046,0.21758031138961514 l -2.8572747303508748 -5.5780126496762" fill="#ff4806" stroke="none" /><path d="M 109.57404056367764 118.69057910512821 l 2.8619005996374627 5.587043337947875 a27.277382281039845,27.277382281039845 0 0,0 -0.41974188060769213,0.21046729263520153 l -2.76530481134701 -5.635478471492379" fill="#ff4806" stroke="none" /><path d="M 108.92500713936063 119.00905698771935 l 0.5438713823557574 1.1583724180562303 a22.27969634658344,22.27969634658344 0 0,0 -0.34855206163982666,0.16000315609978422 l -0.5238513249485113 -1.1675626444900888" fill="#ff0000" stroke="none" /><path d="M 108.59647513512805 119.15986991738527 l 2.6080329653660077 5.812797870196011 a27.371063885112996,27.371063885112996 0 0,0 -0.43152349357060626,0.18916721827485225 l -2.5075887971376476 -5.856829641765318" fill="#ff4906" stroke="none" /><path d="M 108.2653958097858 119.30500536409082 l 0.593124134402888 1.3853256225990962 a22.506958300498308,22.506958300498308 0 0,0 -0.3574625215769859,0.149419363010249 l -0.569190153328441 -1.3953300286293184" fill="#ff0300" stroke="none" /><path d="M 107.93186726928326 119.44442032107085 l 2.2131080146738378 5.425280201031053 a26.859309886352925,26.859309886352925 0 0,0 -0.4295941001374421,0.17094435825649235 l -2.1193928384945298 -5.462571403693615" fill="#ff4206" stroke="none" /><path d="M 107.59598834532513 119.57807347666477 l 4.498017263530775 11.593292206524946 a33.43529587460198,33.43529587460198 0 0,0 -0.5383556768044792,0.20356005170335276 l -4.297791365966021 -11.66900050833493" fill="#ff9c0e" stroke="none" /><path d="M 107.2578585660854 119.70592522655815 l 4.371341273976961 11.868697013094124 a33.64810631368206,33.64810631368206 0 0,0 -0.5452282095427202,0.19549943765148525 l -4.166393503804507 -11.94218399178557" fill="#ff9e0e" stroke="none" /><path d="M 106.91757812671514 119.82793768551818 l 4.102805371797042 11.759920561450997 a33.45506898939081,33.45506898939081 0 0,0 -0.5453658429400787,0.18501770407357515 l -3.899769795919737 -11.828801252422696" fill="#ff9c0e" stroke="none" /><path d="M 106.57524785965236 119.94407469862006 l 4.06936343896465 12.343213538848302 a33.996716480095664,33.996716480095664 0 0,0 -0.5573497057662855,0.1784457752627612 l -3.8562923881074234 -12.411432160770769" fill="#ffa30f" stroke="none" /><path d="M 106.2309692047433 120.05430185196036 l 7.187454862644713 23.1327398076517 a45.223607460720395,45.223607460720395 0 0,0 -0.7453820137260064,0.2245774862737515 l -6.788197874478461 -23.253032663031178" fill="#d0ff1d" stroke="none" /><path d="M 105.88484417918355 120.15858648285463 l 3.19661072066766 10.950018675522418 a32.40706925962042,32.40706925962042 0 0,0 -0.5368290156427283,0.15171324206073666 l -3.007650536920326 -11.003420710921676" fill="#ff8e0d" stroke="none" /><path d="M 105.53697534728816 120.25689768951611 l 3.899766978785315 14.267208312729421 a35.79058536798459,35.79058536798459 0 0,0 -0.5956738877848378,0.15732288775969278 l -3.6536026481889796 -14.332222549792698" fill="#ffba11" stroke="none" /><path d="M 105.18746579009965 120.34920634021253 l 4.510131408064416 17.692183111710307 a39.25800176843831,39.25800176843831 0 0,0 -0.6562567889693085,0.1612919520803069 l -4.204921334351897 -17.767196322104645" fill="#ffe615" stroke="none" /><path d="M 104.83641907484287 120.43548508189849 l 1.431482039938729 6.048489475268218 a27.215574451577066,27.215574451577066 0 0,0 -0.45680674366092017,0.10396772762215392 l -1.3271551468849465 -6.072233936468056" fill="#ff4706" stroke="none" /><path d="M 104.13013068566511 120.58985236759428 l 0.38792729476788607 1.933925663987733 a22.97244925406367,22.97244925406367 0 0,0 -0.3883792122762236,0.07443380038305407 l -0.3545804679199581 -1.940316662719255" fill="#ff0a01" stroke="none" /><path d="M 102.34483914955558 120.86867818915974 l 2.122351706879281 18.888576977005822 a40.007438464558234,40.007438464558234 0 0,0 -0.6850176554839209,0.07100488085911755 l -1.7969014547897575 -18.922311226320698" fill="#fff016" stroke="none" /><path d="M 101.98527174616119 120.90594882070398 l 0.6019603163609916 6.338956664381947 a27.3674742100291,27.3674742100291 0 0,0 -0.46935958789541876,0.04049832020576427 l -0.49275641072403115 -6.348379236866375" fill="#ff4906" stroke="none" /><path d="M 100.90346689309514 120.98055641714683 l 0.14396111873069475 3.3431046521887806 a24.34620285087328,24.34620285087328 0 0,0 -0.4188470287629084,0.014425938553934588 l -0.08639373829313407 -3.345087389168809" fill="#ff1e03" stroke="none" /><line stroke="#e1ed5e" stroke-width="0.3" x1="102.19456741930631" x2="102.32365962044197" y1="184.97166512339345" y2="189.96999836594603" /><path d="M 102.22038585953345 185.97133177190398 a86.0,86.0 0 0,1 -42.740103519485714,-10.115201625700543" fill="none" id="id103" stroke="none" /><text fill="#e1ed5e" style="font-size:6.75px; font-family:Arial;" text-anchor="middle"><textPath startOffset="22.20632615414155" xlink:href="#id103">July</textPath></text><path d="M 100.54218724476979 120.99299961872073 l 1.626561734309384 62.97899885616221 a84.0,84.0 0 0,0 -1.4457612404293283,0.02489009088336136 l -0.5422408039873879 -62.99766642432473" fill="#4dd2ff" stroke="none" /><path d="M 98.37488393609728 120.93702456842531 l -0.6270737735789895 8.078843902452745 a29.10314385394388,29.10314385394388 0 0,0 -0.4991267919325341,-0.043066759823948926 l 0.7660448832530654 -8.066852890350132" fill="#ff6109" stroke="none" /><path d="M 98.01472825383883 120.90594882070398 l -1.2801307047089587 13.48044520766805 a34.54109071006022,34.54109071006022 0 0,0 -0.5914214427155722,-0.061303250713847623 l 1.5119847440301242 -13.45641258849844" fill="#ffaa0f" stroke="none" /><path d="M 97.65516085044442 120.86867818915974 l -1.445911882426817 12.868375116462186 a33.94935285293154,33.94935285293154 0 0,0 -0.5801662735271051,-0.07025005611146277 l 1.6672055790053115 -12.841579531625374" fill="#ffa20f" stroke="none" /><path d="M 97.2962882734958 120.8252237178851 l -1.6287921490793897 12.545701733657262 a33.650991892132154,33.650991892132154 0 0,0 -0.5737837178464898,-0.0795211949643756 l 1.8445044581127106 -12.515805973200282" fill="#ff9f0e" stroke="none" /><path d="M 96.93821686468263 120.77559828337769 l -0.36183404990774526 2.4552094429613347 a23.481728689538635,23.481728689538635 0 0,0 -0.39937292135134156,-0.062373836796118715 l 0.40404283486760395 -2.4486172988181103" fill="#ff1201" stroke="none" /><path d="M 96.22490169976321 120.6578951692458 l -3.98831337340801 21.824639523902146 a43.18606621086255,43.18606621086255 0 0,0 -0.73011676686225,-0.1399286160616973 l 4.363397754841955 -21.75275370949198" fill="#e8ff1a" stroke="none" /><path d="M 95.86986931433489 120.58985236759428 l -0.8404176894627802 4.189716372223401 a25.273175069247547,25.273175069247547 0 0,0 -0.42580310172808244,-0.0892311799731328 l 0.9124122526202494 -4.174629211523727" fill="#ff2b04" stroke="none" /><path d="M 95.51606077576429 120.51570834832081 l -3.797316630357163 17.374151744421724 a38.78428414160602,38.78428414160602 0 0,0 -0.6509846990541932,-0.14816199808051234 l 4.095821478804218 -17.30621301276352" fill="#ffe015" stroke="none" /><path d="M 95.16358092515715 120.4354850818985 l -0.327607848537899 1.3842525219398263 a22.422491457591363,22.422491457591363 0 0,0 -0.37482580828861284,-0.09212306421073312 l 0.35138694156972233 -1.3784081994150634" fill="#ff0200" stroke="none" /><path d="M 94.81253420990036 120.34920634021253 l -2.6679841675361367 10.465873421513239 a31.80058544678763,31.80058544678763 0 0,0 -0.5292670732305782,-0.13978424447376783 l 2.847741683578204 -10.41839782773589" fill="#ff860c" stroke="none" /><path d="M 93.42475214034765 119.94407469862007 l -2.538540633476381 7.6999141477553525 a29.107580800128588,29.107580800128588 0 0,0 -0.47449551946949037,-0.1609746425118322 l 2.670705885883097 -7.655076518345398" fill="#ff6109" stroke="none" /><path d="M 93.08242187328487 119.8279376855182 l -4.250098539845257 12.18210874697852 a33.902213419472076,33.902213419472076 0 0,0 -0.5493457180001303,-0.19697582969037755 l 4.459163818475114 -12.107145376248184" fill="#ffa20e" stroke="none" /><path d="M 92.06813273071674 119.44442032107085 l -6.77954258380351 16.619576590063904 a38.9491649855531,38.9491649855531 0 0,0 -0.6186027691154319,-0.2585760076604215 l 7.064616812416404 -16.500415539383507" fill="#ffe315" stroke="none" /><path d="M 91.40352486487194 119.15986991738527 l -8.897253834222045 19.8302470961678 a42.73476076899974,42.73476076899974 0 0,0 -0.6685588859923496,-0.30690259381644364 l 9.237280715981814 -19.67415743201728" fill="#edff1a" stroke="none" /><line stroke="#e1ed5e" stroke-width="0.3" x1="58.666819895761336" x2="56.23545636021788" y1="174.27360380694188" y2="178.64263932499728" /><path d="M 58.180547188652646 175.14741091055294 a86.0,86.0 0 0,1 -31.652253787137756,-30.449443065178592" fill="none" id="id104" stroke="none" /><text fill="#e1ed5e" style="font-size:6.75px; font-family:Arial;" text-anchor="middle"><textPath startOffset="22.20632615414155" xlink:href="#id104">August</textPath></text><path d="M 89.1626897886671 117.98757091392108 l -7.467916439176461 12.395112247359215 a35.47095655328826,35.47095655328826 0 0,0 -0.5202758293671508,-0.31959590821484096 l 7.680171468475921 -12.264727872315996" fill="#ffb610" stroke="none" /><path d="M 87.95078237400918 117.19931262002967 l -9.381585173447894 13.39147663176987 a37.350712117394025,37.350712117394025 0 0,0 -0.5233949457872619,-0.37342839682150125 l 9.610707447084042 -13.22800397310415" fill="#ffce13" stroke="none" /><path d="M 87.36589467227662 116.77436683061367 l -8.389608641291035 11.138926680110346 a34.944935307806176,34.944935307806176 0 0,0 -0.477366572593486,-0.36602433190976835 l 8.580103942378008 -10.992863006373211" fill="#ffaf10" stroke="none" /><path d="M 86.24171649860922 115.8653595955263 l -8.183899533972708 9.437260759091927 a33.49152121309711,33.49152121309711 0 0,0 -0.43229204464767657,-0.3814474676673956 l 8.345133931526973 -9.294990149652243" fill="#ff9c0e" stroke="none" /><path d="M 85.44109423537348 115.13401014063109 l -5.367614003930794 5.579644932097407 a28.742332830838148,28.742332830838148 0 0,0 -0.3535991931275147,-0.3460712332401273 l 5.462863149434103 -5.48642359593471" fill="#ff5c08" stroke="none" /><path d="M 84.9287848128048 114.62390073753433 l -2.5502119570290294 2.474521533668463 a24.553426212314356,24.553426212314356 0 0,0 -0.2917104276748862,-0.3058572171741969 l 2.592428936082873 -2.430257199911766" fill="#ff2103" stroke="none" /><path d="M 84.19399662182784 113.82643327865904 l -10.699842552377227 9.359776510417817 a35.21590823586842,35.21590823586842 0 0,0 -0.39518535990716647,-0.45968985339417173 l 10.859370421855171 -9.174209557862113" fill="#ffb310" stroke="none" /><path d="M 83.95833913139862 113.55231037782056 l -10.286960083332502 8.690626053967177 a34.46657079459984,34.46657079459984 0 0,0 -0.37897471744884365,-0.45649946059093116 l 10.435030800674882 -8.512265336262484" fill="#ffa90f" stroke="none" /><path d="M 83.72743513129214 113.27417163493432 l -12.503751480210017 10.199802217291854 a37.13628725422072,37.13628725422072 0 0,0 -0.3998023505221274,-0.4988149046980049 l 12.677471742787006 -9.98305947901559" fill="#ffcc13" stroke="none" /><path d="M 83.50135304334701 112.99209946851258 l -13.921254423136888 10.962494237682433 a38.71941321333551,38.71941321333551 0 0,0 -0.40783191638602173,-0.5271777282245104 l 14.107893156740978 -10.721238515344671" fill="#ffe015" stroke="none" /><path d="M 83.28015986056508 112.70617746262583 l -9.877578674090586 7.506427483001349 a33.40616838594443,33.40616838594443 0 0,0 -0.34398607315939617,-0.4608255583976872 l 10.005326013945067 -7.335289045094353" fill="#ff9b0e" stroke="none" /><path d="M 83.06392112726016 112.41649034213515 l -4.325455428995007 3.171157619364823 a26.363376298105322,26.363376298105322 0 0,0 -0.26516561025551405,-0.36829184060524184 l 4.379400831626128 -3.096232173308443" fill="#ff3b05" stroke="none" /><path d="M 82.24976979558568 111.22182372390057 l -17.663903640576322 11.167247446808725 a41.897868488480384,41.897868488480384 0 0,0 -0.38014406998081934,-0.6129132813160413 l 17.853512350225095 -10.86153783412742" fill="#f7ff18" stroke="none" /><line stroke="#e1ed5e" stroke-width="0.3" x1="26.63291911575756" x2="22.317208475507996" y1="142.92168965132927" y2="145.44649492493687" /><path d="M 25.769776987707644 143.4266507060508 a86.0,86.0 0 0,1 -11.730757126820373,-40.83630448921669" fill="none" id="id105" stroke="none" /><text fill="#e1ed5e" style="font-size:6.75px; font-family:Arial;" text-anchor="middle"><textPath startOffset="21.46611528233685" xlink:href="#id105">September</textPath></text><path d="M 81.87401531095188 110.60418214915194 l -12.772859917077653 7.472462073088399 a35.7980958199031,35.7980958199031 0 0,0 -0.30658171784550003,-0.5345510669135386 l 12.899593631075529 -7.251491160316553" fill="#ffbb11" stroke="none" /><path d="M 81.35079622478065 109.6543875284942 l -11.186569662235565 5.791104002907935 a33.59667521136214,33.59667521136214 0 0,0 -0.2614482549428362,-0.5158622106045966 l 11.284596586964668 -5.597687580600653" fill="#ff9e0e" stroke="none" /><path d="M 81.02952815118164 109.00673069616217 l -11.592460201748978 5.5038255229078175 a33.832662580920044,33.832662580920044 0 0,0 -0.2452471440337815,-0.5282405300385813 l 11.685481962622585 -5.303464925590409" fill="#ffa10e" stroke="none" /><path d="M 80.87730276802145 108.67885076344099 l -5.0201876647996615 2.278416011021875 a26.51302672849384,26.51302672849384 0 0,0 -0.1850343065627924,-0.41720351366878133 l 5.058663056093733 -2.1916641608603977" fill="#ff3d05" stroke="none" /><path d="M 80.73074385275274 108.34839909993369 l -5.8151218343292745 2.519399686046236 a27.337429820214417,27.337429820214417 0 0,0 -0.18335476985244661,-0.43339651380776095 l 5.857627585374027 -2.4189286465723168" fill="#ff4906" stroke="none" /><path d="M 79.86692584326677 105.97154293290107 l -19.396952777263916 5.753206657620571 a41.23218139224478,41.23218139224478 0 0,0 -0.19596549048541895,-0.6821815806368547 l 19.49311090463544 -5.41846760147912" fill="#ffff18" stroke="none" /><path d="M 79.58551787078972 104.9243191809786 l -12.304312549588557 2.96800878480274 a33.657218630671935,33.657218630671935 0 0,0 -0.13100580967727138,-0.5643695993490995 l 12.353578925196384 -2.755770528105066" fill="#ff9f0e" stroke="none" /><path d="M 79.4281124754447 104.21870165774334 l -12.455079556546151 2.5541781088297246 a33.714276722311766,33.714276722311766 0 0,0 -0.11169069005943609,-0.5695084223367849 l 12.497200179581252 -2.339405959424985" fill="#ff9f0e" stroke="none" /><path d="M 79.35854240842038 103.8639653848113 l -14.483870599116862 2.7112995477559565 a35.735455634951485,35.735455634951485 0 0,0 -0.10797818069846465,-0.6055989806897312 l 14.528395222154515 -2.461581816333012" fill="#ffba11" stroke="none" /><path d="M 79.29508885075956 103.50808413554451 l -12.42273027647872 2.1048138139275325 a33.599780502589766,33.599780502589766 0 0,0 -0.09170859391686446,-0.5710695018630133 l 12.457120624756875 -1.8906650823713056" fill="#ff9e0e" stroke="none" /><path d="M 79.18660465613746 102.79330883721812 l -12.833701648549306 1.7223759812780657 a33.94876353266445,33.94876353266445 0 0,0 -0.07274491056693053,-0.579848511574372 l 12.861448068363083 -1.5012097154162851" fill="#ffa20f" stroke="none" /><path d="M 79.07016306316243 101.71520430193888 l -12.618130086472863 1.0340582715506246 a33.66042982635716,33.66042982635716 0 0,0 -0.04235354251666691,-0.5778804375936873 l 12.634060187653866 -0.8167046974601765" fill="#ff9f0e" stroke="none" /><line stroke="#e1ed5e" stroke-width="0.3" x1="15.007084014347285" x2="10.007500721073583" y1="101.09737516637583" y2="101.16192664675087" /><path d="M 14.007167355692545 101.11028546245083 a86.0,86.0 0 0,1 10.666146001902534,-42.60595125391555" fill="none" id="id106" stroke="none" /><text fill="#e1ed5e" style="font-size:6.75px; font-family:Arial;" text-anchor="middle"><textPath startOffset="22.20632615414155" xlink:href="#id106">October</textPath></text><line stroke="#e1ed5e" stroke-width="0.3" x1="26.266209847984243" x2="21.928928074336255" y1="57.711370442889674" y2="55.22380399835377" /><path d="M 25.398753493254645 57.213857153982495 a86.0,86.0 0 0,1 29.58750427330803,-30.492523968695096" fill="none" id="id107" stroke="none" /><text fill="#e1ed5e" style="font-size:6.75px; font-family:Arial;" text-anchor="middle"><textPath startOffset="21.46611528233685" xlink:href="#id107">November</textPath></text><line stroke="#e1ed5e" stroke-width="0.3" x1="56.762969772571076" x2="54.21961505331055" y1="26.818313649435495" y2="22.513508569990535" /><path d="M 56.25429882871897 25.957352633546506 a86.0,86.0 0 0,1 42.265352541879196,-11.944610805530505" fill="none" id="id108" stroke="none" /><text fill="#e1ed5e" style="font-size:6.75px; font-family:Arial;" text-anchor="middle"><textPath startOffset="22.20632615414155" xlink:href="#id108">December</textPath></text></svg>