<?xml version="1.0" encoding="utf-8" ?>
<svg baseProfile="full" height="200mm" version="1.1" viewBox="0,0,200,200" width="200mm" xmlns="http://www.w3.org/2000/svg" xmlns:ev="http://www.w3.org/2001/xml-events" xmlns:xlink="http://www.w3.org/1999/xlink"><defs /><rect fill="#1a1a1a" height="200" width="200" x="0" y="0" /><text alignment-baseline="middle" fill="#e1ed5e" style="dominant-baseline: central; font-size:9.0px; font-family:Arial;" text-anchor="middle" x="100.0" y="100.0">2015</text><line stroke="#e1ed5e" stroke-width="0.3" x1="100.0" x2="100.0" y1="15.0" y2="10.0" /><path d="M 100.0 14.0 a86.0,86.0 0 0,1 42.46469731375804,11.215312516191453" fill="none" id="id1" stroke="none" /><text fill="#e1ed5e" style="font-size:6.75px; font-family:Arial;" text-anchor="middle"><textPath startOffset="22.20632615414155" xlink:href="#id1">January</textPath></text><path d="M 110.36928655335952 81.73862282372117 l 15.206569534775145 -26.780328656446546 a51.796521880940446,51.796521880940446 0 0,0 0.77152958529949,0.4469197345943686 l -15.665295852539963 26.514604764462128" fill="#99ff23" stroke="none" /><line stroke="#e1ed5e" stroke-width="0.3" x1="143.23703022742887" x2="145.7803849466894" y1="26.81831364943548" y2="22.513508569990506" /><path d="M 143.74570117128098 25.957352633546492 a86.0,86.0 0 0,1 28.547481713284135,27.462654790039103" fill="none" id="id2" stroke="none" /><text fill="#e1ed5e" style="font-size:6.75px; font-family:Arial;" text-anchor="middle"><textPath startOffset="19.985693538727396" xlink:href="#id2">February</textPath></text><path d="M 111.2981086023043 82.29822771554956 l 13.13984625714264 -20.587389844100812 a45.42327128486949,45.42327128486949 0 0,0 0.6554642379076907,0.42633217325911404 l -13.49227752083461 20.35815874668217" fill="#e6ff1a" stroke="none" /><path d="M 111.60114157652 82.49532879139004 l 6.22065983788927 -9.38619742243681 a32.260431202742105,32.260431202742105 0 0,0 0.4602416068934406,0.31075718744871494 l -6.3813061391892525 9.277728322689425" fill="#ff6609" stroke="none" /><path d="M 111.90073688211348 82.69761687909136 l 6.201457347969593 -9.016247649657167 a31.94307063481884,31.94307063481884 0 0,0 0.450349929573798,0.3154989056344601 l -6.355738417127042 8.90816390125877" fill="#ff6209" stroke="none" /><path d="M 112.48926042617603 83.11751280151076 l 37.46778127852809 -50.647461595467746 a84.0,84.0 0 0,0 1.1550153849664682,0.8699336419766106 l -38.33404281725294 49.995011363985284" fill="#4dd2ff" stroke="none" /><path d="M 113.34407831869373 83.78471172551755 l 12.540948203724742 -15.239350781827268 a40.73608862211776,40.73608862211776 0 0,0 0.5376047588278758,0.4502285248331589 l -12.801410499511734 15.02122109960029" fill="#ffdc14" stroke="none" /><path d="M 113.6212207817346 84.01681056812373 l 19.15164046646284 -22.472603771104986 a50.52631458224577,50.52631458224577 0 0,0 0.657097611615988,0.5698285736459969 l -19.535631876725592 22.139610204039318" fill="#a8ff21" stroke="none" /><path d="M 114.16331599549186 84.49514656593476 l 7.421422770939389 -8.124373725212047 a32.003770461616035,32.003770461616035 0 0,0 0.4035402908131087,0.3750467209011234 l -7.560170945547346 7.995422418236284" fill="#ff6209" stroke="none" /><path d="M 114.94478906791727 85.2469230424477 l 7.902380671726804 -7.801008744120521 a32.104204505804375,32.104204505804375 0 0,0 0.38484645521402994,0.39661810105652395 l -8.035491390643942 7.663826447513882" fill="#ff6409" stroke="none" /><path d="M 115.19652480421416 85.50635884689758 l 8.02904159460481 -7.657674973377112 a32.09529156560477,32.09529156560477 0 0,0 0.37785737551920384,0.40307190286027594 l -8.159666292094476 7.5183336536387815" fill="#ff6409" stroke="none" /><path d="M 115.4437574822437 85.77008943001954 l 26.721385305822963 -24.621140525227194 a57.33501057417262,57.33501057417262 0 0,0 0.6625097586271347,0.731559822629547 l -27.141238705066133 24.157527915328096" fill="#5bff2a" stroke="none" /><path d="M 116.15771136456269 86.58626213691792 l 8.863413304575062 -7.358189532985365 a32.51968092488041,32.51968092488041 0 0,0 0.35384743469186747,0.4337751155405942 l -8.988759231343339 7.2045302478366695" fill="#ff6a09" stroke="none" /><line stroke="#e1ed5e" stroke-width="0.3" x1="172.23445277983987" x2="176.4835382374775" y1="55.19839476539836" y2="52.563006222186495" /><path d="M 173.08426987136738 54.67131705675599 a86.0,86.0 0 0,1 12.851231095245387,41.99856678651699" fill="none" id="id3" stroke="none" /><text fill="#e1ed5e" style="font-size:6.75px; font-family:Arial;" text-anchor="middle"><textPath startOffset="22.20632615414155" xlink:href="#id3">March</textPath></text><path d="M 119.04729006885535 91.15688171328212 l 16.707353101096775 -7.756751705721272 a39.42017493589401,39.42017493589401 0 0,0 0.28044203811057655,0.6179168569758122 l -16.8383974561707 7.4680128399033965" fill="#ffca12" stroke="none" /><path d="M 119.34039704204932 91.81776055985345 l 10.345634836252815 -4.376872988000055 a32.23339562724345,32.23339562724345 0 0,0 0.21178616926556537,0.5128570076048257 l -10.419442692404578 4.198141409941925" fill="#ff6609" stroke="none" /><path d="M 119.85752413597 93.16781622104841 l 17.382371903344406 -5.980582400129726 a39.38244322256752,39.38244322256752 0 0,0 0.21503321513234305,0.6429219433014746 l -17.48274241224852 5.680487353905937" fill="#ffca12" stroke="none" /><path d="M 120.08093135843002 93.85539295169968 l 10.790380034495866 -3.3017714183843525 a32.284236606350774,32.284236606350774 0 0,0 0.15802995901825564,0.5327984609087199 l -10.845615890625824 3.115543570729103" fill="#ff6709" stroke="none" /><path d="M 120.18372546131832 94.20196356495316 l 25.073018672531497 -7.202549206218359 a47.087027052178826,47.087027052178826 0 0,0 0.21707843587383124,0.780946632279996 l -25.19328387897169 6.769891270519411" fill="#d1ff1c" stroke="none" /><path d="M 120.37134235888165 94.90015583598534 l 10.866941108163509 -2.7204739488851724 a32.20229385237045,32.20229385237045 0 0,0 0.12998563214493677,0.5388743635317378 l -10.912159540569265 2.5330143536940284" fill="#ff6509" stroke="none" /><path d="M 120.53481517161879 95.60439243477599 l 18.28180310338146 -3.913336027403094 a39.69594938948485,39.69594938948485 0 0,0 0.13727370447557327,0.6693953347867494 l -18.34645610377203 3.5980650364529327" fill="#ffce13" stroke="none" /><path d="M 120.6074358757038 95.95851677861258 l 53.83260409394663 -10.557527269357436 a75.85809553364777,75.85809553364777 0 0,0 0.24026887190463417,1.283525921192586 l -54.00635868976112 9.629323270702287" fill="#42ffd9" stroke="none" /><path d="M 120.73433829027371 96.67025291283417 l 16.70840871706404 -2.6832192316895838 a37.92248762155761,37.92248762155761 0 0,0 0.09795578379002866,0.6454062255354746 l -16.752120394293367 2.395213893762027" fill="#ffb610" stroke="none" /><path d="M 120.78858239683441 97.02765380044208 l 23.885194225927595 -3.4150989676885937 a45.1281040318006,45.1281040318006 0 0,0 0.10333046651348413,0.7699319967615155 l -23.940440691498914 3.003448628862414" fill="#eaff1a" stroke="none" /><path d="M 120.83666639777658 97.38593545837742 l 11.199083797811383 -1.4049813581333004 a32.28687071455607,32.28687071455607 0 0,0 0.06443482639360991,0.5520382428551093 l -11.221608977208582 1.2119993769533384" fill="#ff6709" stroke="none" /><path d="M 120.96714384426684 98.82574320788733 l 30.760620132130285 -1.7227366487318865 a51.80882296476292,51.80882296476292 0 0,0 0.04220295345698377,0.8908376453100552 l -30.785716693820763 1.1929878967988317" fill="#99ff23" stroke="none" /><line stroke="#e1ed5e" stroke-width="0.3" x1="184.98032266829074" x2="189.97916517819016" y1="98.17113171792111" y2="98.06355123074" /><path d="M 185.9800911702706 98.14961562048488 a86.0,86.0 0 0,1 -9.607161424134198,41.387399972396054" fill="none" id="id4" stroke="none" /><text fill="#e1ed5e" style="font-size:6.75px; font-family:Arial;" text-anchor="middle"><textPath startOffset="21.466115282336823" xlink:href="#id4">April</textPath></text><path d="M 120.99513854157772 99.54816195383933 l 15.176676913829924 -0.3266184707653427 a36.18019109801399,36.18019109801399 0 0,0 0.00804060449210107,0.6227536789702701 l -15.180050525439741 0.06532853373460985" fill="#ff9e0e" stroke="none" /><path d="M 120.92983693683757 101.71520430193887 l 11.110397113361454 0.9104992543705008 a32.14764248210355,32.14764248210355 0 0,0 -0.049944276891374866,0.5511309337068526 l -11.093078240193005 -1.101611576625924" fill="#ff6509" stroke="none" /><line stroke="#e1ed5e" stroke-width="0.3" x1="174.80103733775053" x2="179.2010983576182" y1="140.37084112569926" y2="142.7455964860345" /><path d="M 175.68104954172406 140.8457921977663 a86.0,86.0 0 0,1 -30.038265399797805,32.042727171017184" fill="none" id="id5" stroke="none" /><text fill="#e1ed5e" style="font-size:6.75px; font-family:Arial;" text-anchor="middle"><textPath startOffset="22.206326154141568" xlink:href="#id5">May</textPath></text><path d="M 112.92097659922987 116.55440617244103 l 6.62267586517805 8.484998434802076 a31.763597635261434,31.763597635261434 0 0,0 -0.4339077924404049,0.3327019924658406 l -6.4756393442441516 -8.597739769095288" fill="#ff5f08" stroke="none" /><path d="M 112.63410532772338 116.77436683061366 l 15.59654581661167 20.707614352733955 a46.9240724731131,46.9240724731131 0 0,0 -0.6493733671359617,0.4803908926825418 l -15.237787479057145 -20.973015194156268" fill="#d3ff1c" stroke="none" /><path d="M 112.34349029814194 116.9893568818739 l 6.431982557143441 8.852864504438177 a31.942742323080576,31.942742323080576 0 0,0 -0.44761314948797376,0.31936009729344195 l -6.278642079806583 -8.962268863575838" fill="#ff6209" stroke="none" /><path d="M 112.04921762599082 117.19931262002967 l 24.644862817546706 35.17860770996535 a63.95234223773286,63.95234223773286 0 0,0 -0.9070364213214248,0.6238679213845382 l -24.0356695116024 -35.597616420714985" fill="#33ff4f" stroke="none" /><line stroke="#e1ed5e" stroke-width="0.3" x1="143.8653032363475" x2="146.44561519142675" y1="172.8068346515853" y2="177.08958963109032" /><path d="M 144.38136562736335 173.6633856474863 a86.0,86.0 0 0,1 -40.68145358897372,12.25698825130547" fill="none" id="id6" stroke="none" /><text fill="#e1ed5e" style="font-size:6.75px; font-family:Arial;" text-anchor="middle"><textPath startOffset="21.466115282336833" xlink:href="#id6">June</textPath></text><path d="M 105.53697534728816 120.25689768951611 l 3.1306138362671962 11.453279129680002 a32.873430246318506,32.873430246318506 0 0,0 -0.5471227642218052,0.14450009475240058 l -2.9330006292338937 -11.505470573735987" fill="#ff6f0a" stroke="none" /><path d="M 101.26447882468166 120.96189622390904 l 0.2672404725258454 4.4301786179183145 a25.438231636228156,25.438231636228156 0 0,0 -0.437309768530479,0.022603919902851738 l -0.1909426355818868 -4.4341223445833675" fill="#ff0000" stroke="none" /><line stroke="#e1ed5e" stroke-width="0.3" x1="102.19456741930631" x2="102.32365962044197" y1="184.97166512339345" y2="189.96999836594603" /><path d="M 102.22038585953345 185.97133177190398 a86.0,86.0 0 0,1 -42.740103519485714,-10.115201625700543" fill="none" id="id7" stroke="none" /><text fill="#e1ed5e" style="font-size:6.75px; font-family:Arial;" text-anchor="middle"><textPath startOffset="22.20632615414155" xlink:href="#id7">July</textPath></text><path d="M 99.45781275523022 120.99299961872073 l -0.8520532267630345 32.990730116052944 a54.00173129233495,54.00173129233495 0 0,0 -0.9290345947740569,-0.03199782989573537 l 1.4198081732117345 -32.97117548773112" fill="#7fff26" stroke="none" /><path d="M 98.37488393609728 120.93702456842531 l -2.408455285407422 31.029099153343655 a52.122430032531824,52.122430032531824 0 0,0 -0.8939137785397742,-0.07713064220542745 l 2.9422133816887377 -30.983044258859564" fill="#95ff23" stroke="none" /><path d="M 97.65516085044442 120.86867818915974 l -3.4747707742995346 30.92488159953229 a52.119484794562666,52.119484794562666 0 0,0 -0.8906787532123159,-0.10784879308833115 l 4.00657695056324 -30.86048727771861" fill="#95ff23" stroke="none" /><path d="M 95.51606077576429 120.51570834832081 l -6.692671449095374 30.621488975283317 a52.344336620655,52.344336620655 0 0,0 -0.8785868548656278,-0.19996350773419305 l 7.218778453353864 -30.501748733971436" fill="#92ff23" stroke="none" /><path d="M 94.81253420990036 120.34920634021253 l -7.447588090895066 29.215133734042844 a51.14947109767682,51.14947109767682 0 0,0 -0.8512966187512169,-0.22483517432676173 l 7.949375152457772 -29.0826072104125" fill="#a0ff22" stroke="none" /><path d="M 93.08242187328487 119.8279376855182 l -4.171683936887211 11.957348023990473 a33.66416671700557,33.66416671700557 0 0,0 -0.5454884495950851,-0.1955927504753648 l 4.376891947112023 -11.883767732475151" fill="#ff7a0b" stroke="none" /><path d="M 91.40352486487194 119.15986991738527 l -9.703846510324531 21.6279851815475 a44.7051551378424,44.7051551378424 0 0,0 -0.6993844865220861,-0.3210531151194152 l 10.074698992614037 -21.45774499609401" fill="#efff19" stroke="none" /><line stroke="#e1ed5e" stroke-width="0.3" x1="58.666819895761336" x2="56.23545636021788" y1="174.27360380694188" y2="178.64263932499728" /><path d="M 58.180547188652646 175.14741091055294 a86.0,86.0 0 0,1 -31.652253787137756,-30.449443065178592" fill="none" id="id8" stroke="none" /><text fill="#e1ed5e" style="font-size:6.75px; font-family:Arial;" text-anchor="middle"><textPath startOffset="22.20632615414155" xlink:href="#id8">August</textPath></text><path d="M 87.36589467227662 116.77436683061367 l -10.040728844071724 13.331127492470626 a37.68937374321398,37.68937374321398 0 0,0 -0.5148570746666661,-0.39477045022246227 l 10.268714647231878 -13.156317700420798" fill="#ffb310" stroke="none" /><path d="M 83.50135304334701 112.99209946851258 l -24.35925379060097 19.182048628455075 a52.005229152827155,52.005229152827155 0 0,0 -0.5477715313151206,-0.7080685445702994 l 24.68583213913416 -18.759902089771522" fill="#96ff23" stroke="none" /><path d="M 83.28015986056508 112.70617746262583 l -10.318213916797339 7.841286521331151 a33.95960310898447,33.95960310898447 0 0,0 -0.34968483618211677,-0.46845998274516487 l 10.451660019674542 -7.662513659076678" fill="#ff7f0b" stroke="none" /><path d="M 82.85270091963577 112.12312394758628 l -13.07689159518806 9.245349772848702 a37.01504249805831,37.01504249805831 0 0,0 -0.36334510866213343,-0.5234257285865469 l 13.234097611012327 -9.018882782075142" fill="#ffa90f" stroke="none" /><line stroke="#e1ed5e" stroke-width="0.3" x1="26.63291911575756" x2="22.317208475507996" y1="142.92168965132927" y2="145.44649492493687" /><path d="M 25.769776987707644 143.4266507060508 a86.0,86.0 0 0,1 -11.730757126820373,-40.83630448921669" fill="none" id="id9" stroke="none" /><text fill="#e1ed5e" style="font-size:6.75px; font-family:Arial;" text-anchor="middle"><textPath startOffset="21.46611528233685" xlink:href="#id9">September</textPath></text><path d="M 80.87730276802145 108.67885076344099 l -28.447698320494936 12.911009639063431 a52.24044989486994,52.24044989486994 0 0,0 -0.3645858890353363,-0.8220449319109402 l 28.665725294261552 -12.419416370659796" fill="#94ff23" stroke="none" /><path d="M 80.58989483394504 108.01547362559985 l -29.05829920281552 11.999730494623403 a52.4384841317762,52.4384841317762 0 0,0 -0.33734771992897233,-0.8372693751785514 l 29.26054953700188 -11.497761751602045" fill="#91ff24" stroke="none" /><path d="M 79.67330655649465 105.27499134158121 l -30.088858764267588 7.808376207409384 a52.08552976438522,52.08552976438522 0 0,0 -0.21773905725052325,-0.8697592980289724 l 30.21880913581317 -7.2892890699830195" fill="#95ff23" stroke="none" /><path d="M 79.04373962182676 101.35467743843564 l -13.619398162585306 0.8803999894533866 a34.6478243853173,34.6478243853173 0 0,0 -0.03335042688739185,-0.5954942756239878 l 13.632534940360229 -0.6458339974939612" fill="#ff880c" stroke="none" /><line stroke="#e1ed5e" stroke-width="0.3" x1="15.007084014347285" x2="10.007500721073583" y1="101.09737516637583" y2="101.16192664675087" /><path d="M 14.007167355692545 101.11028546245083 a86.0,86.0 0 0,1 10.666146001902534,-42.60595125391555" fill="none" id="id10" stroke="none" /><text fill="#e1ed5e" style="font-size:6.75px; font-family:Arial;" text-anchor="middle"><textPath startOffset="22.20632615414155" xlink:href="#id10">October</textPath></text><path d="M 79.32604984820605 96.31383870115002 l -30.605454928259384 -5.456946672595987 a52.088135009248674,52.088135009248674 0 0,0 0.16498117109645566,-0.8813360129940625 l 30.50698803325307 5.982960763052622" fill="#95ff23" stroke="none" /><path d="M 79.54389044137918 95.25157060432595 l -30.48807550134557 -7.077126445439299 a52.29869752083118,52.29869752083118 0 0,0 0.21110543518321562,-0.8751683177999128 l 30.36173726590154 7.600879994898608" fill="#93ff23" stroke="none" /><path d="M 79.81627453868168 94.20196356495316 l -22.79595798035603 -6.548434043814439 a44.71787698484722,44.71787698484722 0 0,0 0.21889209751078176,-0.7379953357157772 l 22.67985998573354 6.939858766276755" fill="#efff19" stroke="none" /><path d="M 81.10775173730289 90.83032412892265 l -10.359410216168232 -5.028116959766679 a32.51517868675706,32.51517868675706 0 0,0 0.24872561347895825,-0.5014156593309144 l 10.271324589735862 5.205692207596556" fill="#ff6a09" stroke="none" /><line stroke="#e1ed5e" stroke-width="0.3" x1="26.266209847984243" x2="21.928928074336255" y1="57.711370442889674" y2="55.22380399835377" /><path d="M 25.398753493254645 57.213857153982495 a86.0,86.0 0 0,1 29.58750427330803,-30.492523968695096" fill="none" id="id11" stroke="none" /><text fill="#e1ed5e" style="font-size:6.75px; font-family:Arial;" text-anchor="middle"><textPath startOffset="21.46611528233685" xlink:href="#id11">November</textPath></text><line stroke="#e1ed5e" stroke-width="0.3" x1="56.762969772571076" x2="54.21961505331055" y1="26.818313649435495" y2="22.513508569990535" /><path d="M 56.25429882871897 25.957352633546506 a86.0,86.0 0 0,1 42.265352541879196,-11.944610805530505" fill="none" id="id12" stroke="none" /><text fill="#e1ed5e" style="font-size:6.75px; font-family:Arial;" text-anchor="middle"><textPath startOffset="22.20632615414155" xlink:href="#id12">December</textPath></text></svg>