<?xml version="1.0" encoding="utf-8" ?>
<svg baseProfile="full" height="200mm" version="1.1" viewBox="0,0,200,200" width="200mm" xmlns="http://www.w3.org/2000/svg" xmlns:ev="http://www.w3.org/2001/xml-events" xmlns:xlink="http://www.w3.org/1999/xlink"><defs /><rect fill="#1a1a1a" height="200" width="200" x="0" y="0" /><text alignment-baseline="middle" fill="#e1ed5e" style="dominant-baseline: central; font-size:9.0px; font-family:Arial;" text-anchor="middle" x="100.0" y="100.0">2024</text><line stroke="#e1ed5e" stroke-width="0.3" x1="100.0" x2="100.0" y1="15.0" y2="10.0" /><path d="M 100.0 14.0 a86.0,86.0 0 0,1 42.35913384403234,11.155469271406648" fill="none" id="id121" stroke="none" /><text fill="#e1ed5e" style="font-size:6.75px; font-family:Arial;" text-anchor="middle"><textPath startOffset="22.145653131862478" xlink:href="#id121">January</textPath></text><path d="M 100.0 79.0 l 0.0 -21.524182090322938 a42.52418209032294,42.52418209032294 0 0,0 0.7299841323117049,0.006266035822862699 l -0.36949120746285014 21.52101045269451" fill="#ff1f03" stroke="none" /><path d="M 101.08105385017728 79.02784411241856 l 1.040164930947078 -20.17892177807816 a41.20571273698033,41.20571273698033 0 0,0 0.7061004025147478,0.042477246813311054 l -1.386409685594288 20.158092553440156" fill="#ff0400" stroke="none" /><path d="M 102.15924093988457 79.11130261209362 l 2.1971648508051262 -21.25557682426413 a42.368834304046814,42.368834304046814 0 0,0 0.7228205820078366,0.08099355387343447 l -2.5617213344137593 21.214727509883723" fill="#ff1c02" stroke="none" /><path d="M 104.9986988182912 79.60360301121754 l 4.817164581911483 -19.65567535564316 a41.237357739973376,41.237357739973376 0 0,0 0.6861006912246433,0.17440411273342218 l -5.153870566361521 19.570086011074473" fill="#ff0400" stroke="none" /><path d="M 106.04205211174951 79.88797359093562 l 5.821913470563992 -19.379256468770603 a41.234877260342394,41.234877260342394 0 0,0 0.6761722017613103,0.2094798765479733 l -6.1537263051969315 19.27646000441598" fill="#ff0400" stroke="none" /><path d="M 106.38641147887787 79.99465700312896 l 7.033129904592418 -22.03117925430697 a44.12655996014708,44.12655996014708 0 0,0 0.7196354024844722,0.23655845057199076 l -7.410288044724632 21.907199882332957" fill="#ff4006" stroke="none" /><path d="M 106.72888874123014 80.10723608172694 l 6.504438415006921 -19.229216411003453 a41.299519276963736,41.299519276963736 0 0,0 0.6696308538629357,0.23293237130129993 l -6.833575040914875 19.11472560713356" fill="#ff0600" stroke="none" /><path d="M 107.40779381753099 80.34994680014964 l 7.190975368687603 -19.074916504711947 a41.38535176087977,41.38535176087977 0 0,0 0.6626144375461991,0.25631349902222184 l -7.517362068727328 18.948663117551686" fill="#ff0701" stroke="none" /><path d="M 107.74402155503746 80.48000691201159 l 7.5255314789054415 -18.96925536785424 a41.40750531669326,41.40750531669326 0 0,0 0.6584691273210888,0.2677936616794094 l -7.85005506741697 18.837274449595537" fill="#ff0801" stroke="none" /><path d="M 108.4095320186766 80.7573450057729 l 9.492126512883067 -21.71984305943685 a44.70341849318669,44.70341849318669 0 0,0 0.7005378986973064,0.31334169160496234 l -9.863577814436004 21.553697616922033" fill="#ff4c07" stroke="none" /><path d="M 108.73861861582097 80.90454125486305 l 26.21585584746289 -57.286376235410856 a84.0,84.0 0 0,0 1.3060451445139798,0.6112950737178657 l -27.195389705848374 56.82790493012246" fill="#4dd2ff" stroke="none" /><path d="M 109.3889696526874 81.21577127319529 l 11.562738303923961 -23.133222179169103 a46.86199693519106,46.86199693519106 0 0,0 0.7164815024776927,0.3658405602979334 l -11.958147028115231 22.931323667198335" fill="#ff760a" stroke="none" /><path d="M 110.02825361518725 81.54914285379988 l 9.742595345676161 -17.92527810466114 a41.40180774340928,41.40180774340928 0 0,0 0.6215314529501689,0.3447530198041609 l -10.04887098678243 17.755392169423832" fill="#ff0801" stroke="none" /><path d="M 110.34350942703115 81.72400993836675 l 9.94597846051099 -17.573590934473643 a41.192909296809184,41.192909296809184 0 0,0 0.6124160263432042,0.35357855766528995 l -10.246186954714592 17.40026547953218" fill="#ff0300" stroke="none" /><line stroke="#e1ed5e" stroke-width="0.3" x1="143.13028292997686" x2="145.6673583964461" y1="26.7553504044142" y2="22.446841604673864" /><path d="M 143.63769802327073 25.89364864446614 a86.0,86.0 0 0,1 29.32050498858742,28.57503671076993" fill="none" id="id122" stroke="none" /><text fill="#e1ed5e" style="font-size:6.75px; font-family:Arial;" text-anchor="middle"><textPath startOffset="20.669276256404974" xlink:href="#id122">February</textPath></text><path d="M 110.96478420261332 82.08984904055464 l 10.458414341122532 -17.083033845872617 a41.030189113181805,41.030189113181805 0 0,0 0.5975477920644194,0.3729140166918165 l -10.750126261976664 16.900984032339256" fill="#ff0000" stroke="none" /><line stroke="#e1ed5e" stroke-width="0.3" x1="172.87174338648825" x2="177.1583165268699" y1="56.24261187166439" y2="53.66864786411523" /><path d="M 173.72905801456457 55.72781907015455 a86.0,86.0 0 0,1 12.242430191666344,42.057860355516425" fill="none" id="id123" stroke="none" /><text fill="#e1ed5e" style="font-size:6.75px; font-family:Arial;" text-anchor="middle"><textPath startOffset="22.145653131862474" xlink:href="#id123">March</textPath></text><line stroke="#e1ed5e" stroke-width="0.3" x1="184.99686870605535" x2="189.99668451229388" y1="99.2704041080226" y2="99.22748670261217" /><path d="M 185.99683186730306 99.26182062694052 a86.0,86.0 0 0,1 -10.086455211305974,41.156179273409016" fill="none" id="id124" stroke="none" /><text fill="#e1ed5e" style="font-size:6.75px; font-family:Arial;" text-anchor="middle"><textPath startOffset="21.40746469413373" xlink:href="#id124">April</textPath></text><line stroke="#e1ed5e" stroke-width="0.3" x1="174.33088141563837" x2="178.70328620479359" y1="141.23008692659167" y2="143.65538615756765" /><path d="M 175.20536237346943 141.71514677278685 a86.0,86.0 0 0,1 -30.301960400862466,31.631185727798858" fill="none" id="id125" stroke="none" /><text fill="#e1ed5e" style="font-size:6.75px; font-family:Arial;" text-anchor="middle"><textPath startOffset="22.145653131862474" xlink:href="#id125">May</textPath></text><line stroke="#e1ed5e" stroke-width="0.3" x1="143.1302829299769" x2="145.66735839644613" y1="173.24464959558577" y2="177.55315839532614" /><path d="M 143.63769802327073 174.10635135553383 a86.0,86.0 0 0,1 -40.68552437913181,11.842963189579606" fill="none" id="id126" stroke="none" /><text fill="#e1ed5e" style="font-size:6.75px; font-family:Arial;" text-anchor="middle"><textPath startOffset="21.407464694133747" xlink:href="#id126">June</textPath></text><line stroke="#e1ed5e" stroke-width="0.3" x1="101.45913802915013" x2="101.54496967792366" y1="184.9874750549273" y2="189.98673829345242" /><path d="M 101.47630435890484 185.9873277026323 a86.0,86.0 0 0,1 -42.54439059252881,-10.42667462771756" fill="none" id="id127" stroke="none" /><text fill="#e1ed5e" style="font-size:6.75px; font-family:Arial;" text-anchor="middle"><textPath startOffset="22.145653131862474" xlink:href="#id127">July</textPath></text><line stroke="#e1ed5e" stroke-width="0.3" x1="58.13341422392154" x2="55.67067388415222" y1="173.97424548756322" y2="178.32567169271397" /><path d="M 57.64086615596768 174.84453072859336 a86.0,86.0 0 0,1 -31.369924170532247,-30.572349798747897" fill="none" id="id128" stroke="none" /><text fill="#e1ed5e" style="font-size:6.75px; font-family:Arial;" text-anchor="middle"><textPath startOffset="22.145653131862474" xlink:href="#id128">August</textPath></text><line stroke="#e1ed5e" stroke-width="0.3" x1="26.387840678322732" x2="22.057713659400548" y1="142.50000000000003" y2="145.00000000000006" /><path d="M 25.521815274538298 143.00000000000003 a86.0,86.0 0 0,1 -11.493303480769221,-40.785679425670985" fill="none" id="id129" stroke="none" /><text fill="#e1ed5e" style="font-size:6.75px; font-family:Arial;" text-anchor="middle"><textPath startOffset="21.40746469413373" xlink:href="#id129">September</textPath></text><line stroke="#e1ed5e" stroke-width="0.3" x1="15.003131293944662" x2="10.003315487706104" y1="100.72959589197737" y2="100.7725132973878" /><path d="M 14.003168132696942 100.73817937305945 a86.0,86.0 0 0,1 10.791469493833604,-42.45332614584628" fill="none" id="id130" stroke="none" /><text fill="#e1ed5e" style="font-size:6.75px; font-family:Arial;" text-anchor="middle"><textPath startOffset="22.145653131862435" xlink:href="#id130">October</textPath></text><line stroke="#e1ed5e" stroke-width="0.3" x1="26.387840678322718" x2="22.05771365940052" y1="57.49999999999999" y2="54.99999999999999" /><path d="M 25.521815274538284 56.99999999999999 a86.0,86.0 0 0,1 29.574782752854787,-30.34633250058573" fill="none" id="id131" stroke="none" /><text fill="#e1ed5e" style="font-size:6.75px; font-family:Arial;" text-anchor="middle"><textPath startOffset="21.40746469413373" xlink:href="#id131">November</textPath></text><line stroke="#e1ed5e" stroke-width="0.3" x1="56.869717070023135" x2="54.33264160355391" y1="26.7553504044142" y2="22.446841604673864" /><path d="M 56.362301976729285 25.89364864446614 a86.0,86.0 0 0,1 42.16139366436587,-11.88097634709845" fill="none" id="id132" stroke="none" /><text fill="#e1ed5e" style="font-size:6.75px; font-family:Arial;" text-anchor="middle"><textPath startOffset="22.145653131862474" xlink:href="#id132">December</textPath></text></svg>