<?xml version="1.0" encoding="utf-8" ?>
<svg baseProfile="full" height="200mm" version="1.1" viewBox="0,0,200,200" width="200mm" xmlns="http://www.w3.org/2000/svg" xmlns:ev="http://www.w3.org/2001/xml-events" xmlns:xlink="http://www.w3.org/1999/xlink"><defs /><rect fill="#1a1a1a" height="200" width="200" x="0" y="0" /><text alignment-baseline="middle" fill="#e1ed5e" style="dominant-baseline: central; font-size:9.0px; font-family:Arial;" text-anchor="middle" x="100.0" y="100.0">2025</text><line stroke="#e1ed5e" stroke-width="0.3" x1="100.0" x2="100.0" y1="15.0" y2="10.0" /><path d="M 100.0 14.0 a86.0,86.0 0 0,1 42.46469731375804,11.215312516191453" fill="none" id="id133" stroke="none" /><text fill="#e1ed5e" style="font-size:6.75px; font-family:Arial;" text-anchor="middle"><textPath startOffset="22.20632615414155" xlink:href="#id133">January</textPath></text><path d="M 100.0 79.0 l 0.0 -15.157924142690227 a36.15792414269023,36.15792414269023 0 0,0 0.6223992261237804,0.0053571866376958275 l -0.260918746851252 15.15567833266109" fill="#ffa80f" stroke="none" /><path d="M 100.36148047927253 79.00311137660856 l 0.2623027951116456 -15.236071905313667 a36.23832962828314,36.23832962828314 0 0,0 0.6235984339376283,0.0161057077540216 l -0.5245278642441417 15.229299405417285" fill="#ffa90f" stroke="none" /><path d="M 102.16513564639614 79.11191278185805 l 3.4147711369429787 -32.94391160072773 a54.120416263601854,54.120416263601854 0 0,0 0.9258026448475987,0.10402471429783225 l -3.9813404853003025 32.8802509329593" fill="#79ff26" stroke="none" /><path d="M 102.52436894288641 79.15227682838746 l 4.139497540659173 -34.18640489949837 a55.43611069562836,55.43611069562836 0 0,0 0.9463347234853061,0.12286140709681334 l -4.7273469926523255 34.11008516923742" fill="#6bff28" stroke="none" /><path d="M 103.2404852339499 79.25152402106235 l 1.514194847502967 -9.695225607478312 a30.812756270085778,30.812756270085778 0 0,0 0.5233338209476593,0.08635456455357428 l -1.6808578745895015 9.667724779985114" fill="#ff5d08" stroke="none" /><path d="M 105.01212808612495 79.60689891045804 l 7.931827679728334 -32.272631688186756 a54.23306555860083,54.23306555860083 0 0,0 0.9046362287876275,0.2306119172838295 l -8.486172797200986 32.13131677473406" fill="#78ff26" stroke="none" /><path d="M 105.36241919743992 79.69619591428918 l 3.9429023603139637 -14.929067293195024 a36.44096918161923,36.44096918161923 0 0,0 0.6050972796363966,0.1653959442067884 l -4.199297529174071 14.858984808161942" fill="#ffac0f" stroke="none" /><path d="M 105.71112130821622 79.79150937346287 l 14.246549225715597 -50.41063583681696 a73.38507774464892,73.38507774464892 0 0,0 1.2126352309771427,0.35400147656970465 l -15.112174674416167 50.15793603132855" fill="#3fffc0" stroke="none" /><path d="M 106.0581310904928 79.89281104454417 l 9.548966559690003 -31.693417008808517 a54.10068645892878,54.10068645892878 0 0,0 0.8893499196196852,0.2763253491594165 l -10.093101852020407 31.52435152476658" fill="#79ff26" stroke="none" /><path d="M 106.40334571778207 80.00007090966166 l 10.095777868282747 -31.53270967655944 a54.10946254942676,54.10946254942676 0 0,0 0.884605141545181,0.29164040706209277 l -10.637065832070345 31.35425554523811" fill="#79ff26" stroke="none" /><path d="M 106.74666289553966 80.11325718540242 l 11.218995026512564 -33.06957412649245 a55.92080443392581,55.92080443392581 0 0,0 0.9088941381217694,0.31709531818646297 l -11.786571168697607 32.87155795513378" fill="#65ff29" stroke="none" /><path d="M 107.08798089147638 80.2323363322302 l 10.974835785424794 -30.607709859400146 a53.51582573692788,53.51582573692788 0 0,0 0.8644530448019414,0.3183853518199026 l -11.500071155999311 30.414261239773918" fill="#80ff26" stroke="none" /><path d="M 108.43124777332544 80.76684994638697 l 12.757626229875182 -29.102375615551487 a52.77586023209828,52.77586023209828 0 0,0 0.8288772579925693,0.371893064469126 l -13.256685606334532 28.87846222056583" fill="#88ff25" stroke="none" /><path d="M 109.73455568895987 81.39251694778311 l 3.7870067475268985 -7.238816657359647 a29.16957077848535,29.16957077848535 0 0,0 0.4428981968268134,0.2365808782089926 l -3.911049990882023 7.1725570526489" fill="#ff4506" stroke="none" /><line stroke="#e1ed5e" stroke-width="0.3" x1="143.23703022742887" x2="145.7803849466894" y1="26.81831364943548" y2="22.513508569990506" /><path d="M 143.74570117128098 25.957352633546492 a86.0,86.0 0 0,1 28.547481713284135,27.462654790039103" fill="none" id="id134" stroke="none" /><text fill="#e1ed5e" style="font-size:6.75px; font-family:Arial;" text-anchor="middle"><textPath startOffset="19.985693538727396" xlink:href="#id134">February</textPath></text><path d="M 110.68208982089419 81.91981866633111 l 17.146107542016285 -29.02098172961175 a54.70766061880959,54.70766061880959 0 0,0 0.8066460474321392,0.48599521795363604 l -17.64311565566606 28.721539902199503" fill="#72ff27" stroke="none" /><path d="M 111.2981086023043 82.29822771554956 l 1.8965559938179086 -2.9715064272286242 a24.52516312881371,24.52516312881371 0 0,0 0.35390157743095846,0.23018743037391706 l -1.9474245970331472 2.938420072695179" fill="#ff0000" stroke="none" /><path d="M 113.06298171725822 83.55741782278167 l 20.214557433266535 -25.444383906123036 a53.49684607134982,53.49684607134982 0 0,0 0.7160848389607137,0.5790241394103436 l -20.649545670791742 25.092653669448563" fill="#80ff26" stroke="none" /><path d="M 114.42810811169701 84.74124197986012 l 5.368142773173814 -5.677195579579533 a28.813290374866124,28.813290374866124 0 0,0 0.3574449975863644,0.34386180447478215 l -5.4650710143725965 5.583950688342449" fill="#ff4006" stroke="none" /><path d="M 114.68862486808459 84.99185889309783 l 22.823197791876044 -23.319662395046286 a53.629817830720896,53.629817830720896 0 0,0 0.6541923510370894,0.6513830411800915 l -23.221225943080455 22.923343503216074" fill="#7eff26" stroke="none" /><path d="M 115.19652480421416 85.50635884689758 l 30.530823988131218 -29.118684218499364 a63.19038971153185,63.19038971153185 0 0,0 0.7439394892434346,0.79358277744406 l -31.027530799345115 28.58883202417725" fill="#32ff4a" stroke="none" /><path d="M 115.4437574822437 85.77008943001954 l 24.244091798260417 -22.338557086013093 a53.96645446218844,53.96645446218844 0 0,0 0.623585874697864,0.6885790978137238 l -24.625021313574315 21.917925200929822" fill="#7bff26" stroke="none" /><path d="M 115.68641384162765 86.03803664274999 l 23.917923135417023 -21.288560264298393 a53.019835184434996,53.019835184434996 0 0,0 0.6009120078884289,0.6869463031603988 l -24.2808270068833 20.873698404935045" fill="#85ff25" stroke="none" /><path d="M 115.9244219780498 86.31012108654704 l 32.33096799060614 -27.794229363942396 a63.63579103458779,63.63579103458779 0 0,0 0.7069311738438567,0.836783532260655 l -32.80460977793711 27.233586882052634" fill="#33ff4f" stroke="none" /><path d="M 116.38621287248628 86.86637796730983 l 49.158638617458855 -39.400866098070516 a84.0,84.0 0 0,0 0.8945836776241438,1.1360304241878465 l -49.829576375676965 38.54884327992963" fill="#4dd2ff" stroke="none" /><path d="M 117.65298651832404 88.62581576622439 l 30.163358966249007 -19.434875885476842 a56.88234419335899,56.88234419335899 0 0,0 0.5232428170950505,0.8276444796100478 l -30.49342937959001 18.912783758152585" fill="#5bff2a" stroke="none" /><line stroke="#e1ed5e" stroke-width="0.3" x1="172.23445277983987" x2="176.4835382374775" y1="55.19839476539836" y2="52.563006222186495" /><path d="M 173.08426987136738 54.67131705675599 a86.0,86.0 0 0,1 12.851231095245387,41.99856678651699" fill="none" id="id135" stroke="none" /><text fill="#e1ed5e" style="font-size:6.75px; font-family:Arial;" text-anchor="middle"><textPath startOffset="22.20632615414155" xlink:href="#id135">March</textPath></text><line stroke="#e1ed5e" stroke-width="0.3" x1="184.98032266829074" x2="189.97916517819016" y1="98.17113171792111" y2="98.06355123074" /><path d="M 185.9800911702706 98.14961562048488 a86.0,86.0 0 0,1 -9.607161424134198,41.387399972396054" fill="none" id="id136" stroke="none" /><text fill="#e1ed5e" style="font-size:6.75px; font-family:Arial;" text-anchor="middle"><textPath startOffset="21.466115282336823" xlink:href="#id136">April</textPath></text><line stroke="#e1ed5e" stroke-width="0.3" x1="174.80103733775053" x2="179.2010983576182" y1="140.37084112569926" y2="142.7455964860345" /><path d="M 175.68104954172406 140.8457921977663 a86.0,86.0 0 0,1 -30.038265399797805,32.042727171017184" fill="none" id="id137" stroke="none" /><text fill="#e1ed5e" style="font-size:6.75px; font-family:Arial;" text-anchor="middle"><textPath startOffset="22.206326154141568" xlink:href="#id137">May</textPath></text><line stroke="#e1ed5e" stroke-width="0.3" x1="143.8653032363475" x2="146.44561519142675" y1="172.8068346515853" y2="177.08958963109032" /><path d="M 144.38136562736335 173.6633856474863 a86.0,86.0 0 0,1 -40.68145358897372,12.25698825130547" fill="none" id="id138" stroke="none" /><text fill="#e1ed5e" style="font-size:6.75px; font-family:Arial;" text-anchor="middle"><textPath startOffset="21.466115282336833" xlink:href="#id138">June</textPath></text><line stroke="#e1ed5e" stroke-width="0.3" x1="102.19456741930631" x2="102.32365962044197" y1="184.97166512339345" y2="189.96999836594603" /><path d="M 102.22038585953345 185.97133177190398 a86.0,86.0 0 0,1 -42.740103519485714,-10.115201625700543" fill="none" id="id139" stroke="none" /><text fill="#e1ed5e" style="font-size:6.75px; font-family:Arial;" text-anchor="middle"><textPath startOffset="22.20632615414155" xlink:href="#id139">July</textPath></text><line stroke="#e1ed5e" stroke-width="0.3" x1="58.666819895761336" x2="56.23545636021788" y1="174.27360380694188" y2="178.64263932499728" /><path d="M 58.180547188652646 175.14741091055294 a86.0,86.0 0 0,1 -31.652253787137756,-30.449443065178592" fill="none" id="id140" stroke="none" /><text fill="#e1ed5e" style="font-size:6.75px; font-family:Arial;" text-anchor="middle"><textPath startOffset="22.20632615414155" xlink:href="#id140">August</textPath></text><line stroke="#e1ed5e" stroke-width="0.3" x1="26.63291911575756" x2="22.317208475507996" y1="142.92168965132927" y2="145.44649492493687" /><path d="M 25.769776987707644 143.4266507060508 a86.0,86.0 0 0,1 -11.730757126820373,-40.83630448921669" fill="none" id="id141" stroke="none" /><text fill="#e1ed5e" style="font-size:6.75px; font-family:Arial;" text-anchor="middle"><textPath startOffset="21.46611528233685" xlink:href="#id141">September</textPath></text><line stroke="#e1ed5e" stroke-width="0.3" x1="15.007084014347285" x2="10.007500721073583" y1="101.09737516637583" y2="101.16192664675087" /><path d="M 14.007167355692545 101.11028546245083 a86.0,86.0 0 0,1 10.666146001902534,-42.60595125391555" fill="none" id="id142" stroke="none" /><text fill="#e1ed5e" style="font-size:6.75px; font-family:Arial;" text-anchor="middle"><textPath startOffset="22.20632615414155" xlink:href="#id142">October</textPath></text><line stroke="#e1ed5e" stroke-width="0.3" x1="26.266209847984243" x2="21.928928074336255" y1="57.711370442889674" y2="55.22380399835377" /><path d="M 25.398753493254645 57.213857153982495 a86.0,86.0 0 0,1 29.58750427330803,-30.492523968695096" fill="none" id="id143" stroke="none" /><text fill="#e1ed5e" style="font-size:6.75px; font-family:Arial;" text-anchor="middle"><textPath startOffset="21.46611528233685" xlink:href="#id143">November</textPath></text><line stroke="#e1ed5e" stroke-width="0.3" x1="56.762969772571076" x2="54.21961505331055" y1="26.818313649435495" y2="22.513508569990535" /><path d="M 56.25429882871897 25.957352633546506 a86.0,86.0 0 0,1 42.265352541879196,-11.944610805530505" fill="none" id="id144" stroke="none" /><text fill="#e1ed5e" style="font-size:6.75px; font-family:Arial;" text-anchor="middle"><textPath startOffset="22.20632615414155" xlink:href="#id144">December</textPath></text></svg>