<?xml version="1.0" encoding="utf-8" ?>
<svg baseProfile="full" height="200mm" version="1.1" viewBox="0,0,200,200" width="200mm" xmlns="http://www.w3.org/2000/svg" xmlns:ev="http://www.w3.org/2001/xml-events" xmlns:xlink="http://www.w3.org/1999/xlink"><defs /><rect fill="#1a1a1a" height="200" width="200" x="0" y="0" /><text alignment-baseline="middle" fill="#e1ed5e" style="dominant-baseline: central; font-size:9.0px; font-family:Arial;" text-anchor="middle" x="100.0" y="100.0">2024</text><line stroke="#e1ed5e" stroke-width="0.3" x1="100.0" x2="100.0" y1="15.0" y2="10.0" /><path d="M 100.0 14.0 a86.0,86.0 0 0,1 42.35913384403234,11.155469271406648" fill="none" id="id121" stroke="none" /><text fill="#e1ed5e" style="font-size:6.75px; font-family:Arial;" text-anchor="middle"><textPath startOffset="22.145653131862478" xlink:href="#id121">January</textPath></text><path d="M 100.0 79.0 l 0.0 -8.682129253348549 a29.68212925334855,29.68212925334855 0 0,0 0.5095332185848273,0.004373729865168829 l -0.1490402937359725 8.680849921677815" fill="#ff6f0a" stroke="none" /><path d="M 101.08105385017728 79.02784411241856 l 0.41956745847002824 -8.139496605970958 a29.15030317539291,29.15030317539291 0 0,0 0.499519106415055,0.030049829026564973 l -0.5592309170175456 8.131094799119703" fill="#ff6809" stroke="none" /><path d="M 102.15924093988457 79.11130261209362 l 0.8862622117558092 -8.573782946470708 a29.619467194738792,29.619467194738792 0 0,0 0.5053138909327559,0.05662147546292925 l -1.0333120042893618 8.557305710500808" fill="#ff6e0a" stroke="none" /><path d="M 104.9986988182912 79.60360301121754 l 1.9430817561059164 -7.928436643187272 a29.163067702521296,29.163067702521296 0 0,0 0.4852105470747809,0.12333862366532486 l -2.0788975964060916 7.89391278768668" fill="#ff6809" stroke="none" /><path d="M 106.04205211174951 79.88797359093562 l 2.348363577353904 -7.816938585150808 a29.162067160680678,29.162067160680678 0 0,0 0.47820147579081024,0.14814803958634043 l -2.4822056860163446 7.7754739577578205" fill="#ff6809" stroke="none" /><path d="M 106.38641147887787 79.99465700312896 l 2.836927444258866 -8.886634813202992 a30.328474453372348,30.328474453372348 0 0,0 0.4946101381957783,0.16258817663061842 l -2.989060320102386 8.836625715170351" fill="#ff780b" stroke="none" /><path d="M 106.72888874123014 80.10723608172694 l 2.623671124995968 -7.756417485243371 a29.1881415704375,29.1881415704375 0 0,0 0.47325684426032494,0.16462329704821435 l -2.7564337413013114 7.710235755626567" fill="#ff6809" stroke="none" /><path d="M 107.40779381753099 80.34994680014964 l 2.9005969818783854 -7.694178106084584 a29.222763500152084,29.222763500152084 0 0,0 0.4678811264449004,0.18098647094025871 l -3.032250370816812 7.643251747006286" fill="#ff6909" stroke="none" /><path d="M 107.74402155503746 80.48000691201159 l 3.035545635407696 -7.651557966401469 a29.231699497542685,29.231699497542685 0 0,0 0.4648474113821926,0.18904939541004553 l -3.1664475079803287 7.5983213144121295" fill="#ff6909" stroke="none" /><path d="M 108.4095320186766 80.7573450057729 l 3.891361992410828 -8.904197773587121 a30.71737804899724,30.71737804899724 0 0,0 0.48136559120674377,0.2153087062236392 l -4.0436409864732035 8.836085316453628" fill="#ff7d0b" stroke="none" /><path d="M 108.73861861582097 80.90454125486305 l 10.858981666259258 -23.728834674949557 a47.09549918777648,47.09549918777648 0 0,0 0.7322481909840185,0.34272912675918465 l -11.26471857111478 23.53892931661984" fill="#b7ff1f" stroke="none" /><path d="M 109.3889696526874 81.21577127319529 l 4.737363617766873 -9.477900669612364 a31.595905584232984,31.595905584232984 0 0,0 0.4830754851621492,0.24666178477290002 l -4.899366324642601 9.39518093316663" fill="#ff890c" stroke="none" /><path d="M 110.02825361518725 81.54914285379988 l 3.992783054424579 -7.346271103613374 a29.361220942391423,29.361220942391423 0 0,0 0.44077597832960563,0.24449100502472593 l -4.118303220910285 7.276647183155501" fill="#ff6b09" stroke="none" /><path d="M 110.34350942703115 81.72400993836675 l 4.078779540061381 -7.206812626181443 a29.280977645502468,29.280977645502468 0 0,0 0.43532103663510463,0.2513327176851846 l -4.201893044556884 7.135733011220086" fill="#ff6909" stroke="none" /><line stroke="#e1ed5e" stroke-width="0.3" x1="143.13028292997686" x2="145.6673583964461" y1="26.7553504044142" y2="22.446841604673864" /><path d="M 143.63769802327073 25.89364864446614 a86.0,86.0 0 0,1 29.32050498858742,28.57503671076993" fill="none" id="id122" stroke="none" /><text fill="#e1ed5e" style="font-size:6.75px; font-family:Arial;" text-anchor="middle"><textPath startOffset="20.669276256404974" xlink:href="#id122">February</textPath></text><path d="M 110.96478420261332 82.08984904055464 l 4.307191285417634 -7.0354732667380135 a29.249229106781,29.249229106781 0 0,0 0.42597445076674595,0.2658395622126111 l -4.427329864974093 6.960497907683857" fill="#ff6909" stroke="none" /><path d="M 111.8722381534696 82.67804972795209 l 4.707564261739562 -6.868476945140438 a29.326892386979267,29.326892386979267 0 0,0 0.41281777858142554,0.28817887049420643 l -4.8247771314947485 6.786653258841105" fill="#ff6a09" stroke="none" /><path d="M 112.16784306229584 82.88440491214696 l 4.789646603043649 -6.737237771058025 a29.2662619947482,29.2662619947482 0 0,0 0.4069668694208149,0.29461262907063185 l -4.904594482838432 6.6540243706143185" fill="#ff6909" stroke="none" /><path d="M 112.7482090630111 83.31218511350987 l 5.800447353948 -7.592971783179438 a30.555020146817142,30.555020146817142 0 0,0 0.41407880358354643,0.32199018219981823 l -5.9299361021667725 7.492280549358829" fill="#ff7b0b" stroke="none" /><path d="M 113.03279911837588 83.53348406188908 l 5.339796452071772 -6.7466583798051625 a29.60411677299614,29.60411677299614 0 0,0 0.39577776087293365,0.3188105485215361 l -5.4548249832999645 6.653999537490218" fill="#ff6e0a" stroke="none" /><path d="M 113.86319453409587 84.22622945171908 l 7.374944705709135 -8.391333275170108 a32.171583752863526,32.171583752863526 0 0,0 0.4116966522321574,0.3681416850735289 l -7.517906384764667 8.263496060213193" fill="#ff900d" stroke="none" /><path d="M 114.13192950727249 84.46653392183569 l 6.559834624639595 -7.210407366366298 a30.747892320474712,30.747892320474712 0 0,0 0.38737985251626555,0.3585530082436613 l -6.682644248469826 7.096736611990262" fill="#ff7d0b" stroke="none" /><path d="M 114.39649973595853 84.71141617570332 l 5.641640836852499 -5.991227063711814 a29.22939323771775,29.22939323771775 0 0,0 0.36234358482096757,0.34711695771499573 l -5.743656907538779 5.893497975691238" fill="#ff6909" stroke="none" /><path d="M 114.91283532996326 85.21462403516908 l 5.813625247044861 -5.7639364409452725 a29.186647776002964,29.186647776002964 0 0,0 0.3497021814573643,0.3588252452559748 l -5.911714229653037 5.663288503621556" fill="#ff6809" stroke="none" /><path d="M 115.16444852881244 85.47280134310134 l 8.713626323103606 -8.347456907331441 a33.06678584041498,33.06678584041498 0 0,0 0.3891553913119526,0.4132695398096841 l -8.855637548151819 8.196645907577263" fill="#ff9c0e" stroke="none" /><path d="M 116.1254893667686 86.54754324733833 l 1.9252932170691286 -1.6061480771051744 a23.50728251644705,23.50728251644705 0 0,0 0.25584115191381773,0.31208460614544253 l -1.952581188221574 1.5728611892612367" fill="#ff1902" stroke="none" /><path d="M 116.35404254752997 86.82634096563983 l 6.398466655462016 -5.15415181395076 a29.21618259669971,29.21618259669971 0 0,0 0.31126861025655156,0.3932777207159084 l -6.486001696360128 5.043554149320173" fill="#ff6909" stroke="none" /><path d="M 116.57777611688842 87.10902102172516 l 0.6309153543946124 -0.4906035956346558 a21.799215911040648,21.799215911040648 0 0,0 0.22717691892179906,0.29738187934570287 l -0.6392442506707183 0.47970080304807095" fill="#ff0000" stroke="none" /><path d="M 116.7966241395341 87.39550010848427 l 5.861046759479937 -4.3982387550217945 a28.32778092351197,28.32778092351197 0 0,0 0.28853595853385894,0.3914544426865093 l -5.935684737597621 4.2969780030664095" fill="#ff5c08" stroke="none" /><path d="M 117.21940702142032 87.97951657250589 l 6.7644156996794305 -4.7220875093741 a29.24957151640353,29.24957151640353 0 0,0 0.2838744223236751,0.41418126586013776 l -6.84447985881843 4.605271508443914" fill="#ff6909" stroke="none" /><path d="M 117.62189284568427 88.57770195909679 l 8.285594897568908 -5.370622508886564 a30.87393887663778,30.87393887663778 0 0,0 0.284455283926336,0.44721095309903514 l -8.376567873121134 5.227597881108857" fill="#ff7f0b" stroke="none" /><path d="M 117.81537515405839 88.88188828441811 l 9.647589056767574 -6.0208091040245355 a32.37216412453523,32.37216412453523 0 0,0 0.2901656356259555,0.47396375900089677 l -9.749522656848931 5.854308228899083" fill="#ff930d" stroke="none" /><line stroke="#e1ed5e" stroke-width="0.3" x1="172.87174338648825" x2="177.1583165268699" y1="56.24261187166439" y2="53.66864786411523" /><path d="M 173.72905801456457 55.72781907015455 a86.0,86.0 0 0,1 12.242430191666344,42.057860355516425" fill="none" id="id123" stroke="none" /><text fill="#e1ed5e" style="font-size:6.75px; font-family:Arial;" text-anchor="middle"><textPath startOffset="22.145653131862474" xlink:href="#id123">March</textPath></text><path d="M 118.36410011445183 89.81374322990088 l 4.041165399929523 -2.2415663254704037 a25.62121600675303,25.62121600675303 0 0,0 0.21003864209868522,0.38644744431629274 l -4.079049391643549 2.1718640476795077" fill="#ff3705" stroke="none" /><path d="M 118.53625476483649 90.13048839642627 l 15.639775504740575 -8.327299542415776 a38.7185353657632,38.7185353657632 0 0,0 0.3073365441229033,0.589358347197979 l -15.780420117838423 8.0575949521133" fill="#ffe415" stroke="none" /><path d="M 118.70294669586156 90.45014215332178 l 2.8408109306001275 -1.450538302743699 a24.18971285716187,24.18971285716187 0 0,0 0.18566190560478626,0.37144818118956424 l -2.8652927494166507 1.4015582653903844" fill="#ff2203" stroke="none" /><path d="M 118.8641267826498 90.77261029715802 l 7.4070384823679305 -3.6231536931578767 a29.245693528353026,29.245693528353026 0 0,0 0.2167255489694904,0.45287304304075787 l -7.468143289297333 3.4954681480520153" fill="#ff6909" stroke="none" /><path d="M 119.0197475246899 91.09779779509293 l 18.819479627243872 -8.808466716783387 a41.77888108972492,41.77888108972492 0 0,0 0.29845148592534554,0.6521703586644957 l -18.967915578024268 8.484107375904207" fill="#f5ff19" stroke="none" /><path d="M 119.16976305983485 91.42560881287824 l 3.6977768577240173 -1.6539685546371468 a25.0508228385413,25.0508228385413 0 0,0 0.17221381168956323,0.3940589031855055 l -3.725624551430551 1.5902475816757917" fill="#ff2f04" stroke="none" /><path d="M 119.31412917781788 91.75594674310238 l 3.9359649842045235 -1.6800294048117306 a25.279523239557903,25.279523239557903 0 0,0 0.16693412075076375,0.4005811195689801 l -3.9642249494917703 1.6122157758014726" fill="#ff3204" stroke="none" /><path d="M 119.58574465831526 92.42381321644754 l 11.372290508283033 -4.399046273228813 a33.19346544337551,33.19346544337551 0 0,0 0.2010090620125266,0.5332004183014121 l -11.44613025411 4.203177574733243" fill="#ff9e0e" stroke="none" /><path d="M 119.71291397450082 92.76114493625339 l 15.969626548560248 -5.864268071007747 a38.012307665602606,38.012307665602606 0 0,0 0.21967462831118312,0.6144690323698 l -16.067941346915372 5.5892640822570305" fill="#ffdb14" stroke="none" /><path d="M 119.94978838288452 93.4421083053983 l 12.665728951068512 -4.163476679559581 a34.33248768696868,34.33248768696868 0 0,0 0.17924057360164905,0.5614685439102005 l -12.735334240447418 3.9454391019579935" fill="#ffac10" stroke="none" /><path d="M 120.26092885502905 94.47779374421319 l 2.922342199665713 -0.7964973615974258 a24.028942386209863,24.028942386209863 0 0,0 0.10505284172338814,0.39890275119693164 l -2.9355845221938313 0.7462141060276956" fill="#ff2003" stroke="none" /><path d="M 120.43855184770803 95.1765574152323 l 7.866025193489246 -1.8563605275872996 a29.082105341616856,29.082105341616856 0 0,0 0.1104969585379427,0.4868699873752825 l -7.896733013584854 1.7210562062729908" fill="#ff6709" stroke="none" /><path d="M 120.51834098615036 95.52812308129327 l 7.907285333909236 -1.72335603537366 a29.092905373011284,29.092905373011284 0 0,0 0.10216083052266337,0.48887655668791175 l -7.935703875256266 1.5873630274003436" fill="#ff6709" stroke="none" /><path d="M 120.65975698304385 96.23510406497455 l 9.874826206159796 -1.799522282530564 a31.03745351407339,31.03745351407339 0 0,0 0.09102129710669062,0.5249866537429573 l -9.90426232075872 1.629742595867014" fill="#ff810b" stroke="none" /><path d="M 120.86939407059847 97.66154086499901 l 4.877406544110698 -0.546523576564107 a25.90793058388913,25.90793058388913 0 0,0 0.04573071440456392,0.44240317830430353 l -4.886069650996928 0.462715875976872" fill="#ff3b05" stroke="none" /><path d="M 120.93736805541906 98.37931529534042 l 4.844084483701917 -0.3749627751699448 a25.858575055302204,25.858575055302204 0 0,0 0.030458986513524227,0.44286697907800665 l -4.8498074313805075 0.29175237193760395" fill="#ff3a05" stroke="none" /><path d="M 120.98066250479742 99.09900007780936 l 2.9889289547068327 -0.1283574698848727 a23.991683796185708,23.991683796185708 0 0,0 0.014138314116687853,0.4116215892535345 l -2.9906919558203686 0.07702961606721828" fill="#ff2003" stroke="none" /><path d="M 120.99303781780057 99.45929381324524 l 2.9751057244672965 -0.07662817003573201 a23.976092395776902,23.976092395776902 0 0,0 0.00706560418037946,0.41153602128897143 l -2.975982760246342 0.02554523277769418" fill="#ff1f03" stroke="none" /><line stroke="#e1ed5e" stroke-width="0.3" x1="184.99686870605535" x2="189.99668451229388" y1="99.2704041080226" y2="99.22748670261217" /><path d="M 185.99683186730306 99.26182062694052 a86.0,86.0 0 0,1 -10.086455211305974,41.156179273409016" fill="none" id="id124" stroke="none" /><text fill="#e1ed5e" style="font-size:6.75px; font-family:Arial;" text-anchor="middle"><textPath startOffset="21.40746469413373" xlink:href="#id124">April</textPath></text><path d="M 120.99922638620191 99.81974689727618 l 62.99767915860572 -0.5407593081714844 a84.0,84.0 0 0,0 0.0,1.442024821790615 l -62.99767915860572 -0.5407593081714768" fill="#4dd2ff" stroke="none" /><path d="M 120.99922638620191 100.18025310272382 l 14.138959728055308 0.12136596431684767 a35.13948060887897,35.13948060887897 0 0,0 -0.010355384730253062,0.6031492455578786 l -14.134792911726386 -0.3640621258437973" fill="#ffb711" stroke="none" /><path d="M 120.99303781780057 100.54070618675476 l 4.454183834677231 0.11472397550348062 a25.455661031054234,25.455661031054234 0 0,0 -0.01500103680769005,0.43673881908896817 l -4.4515581108726945 -0.19116905915655946" fill="#ff3405" stroke="none" /><path d="M 120.98066250479742 100.90099992219065 l 3.646161121046975 0.1565818470034817 a24.649521721465096,24.649521721465096 0 0,0 -0.021783616371718037,0.4225963380714477 l -3.6429359152186844 -0.21914997845166007" fill="#ff2904" stroke="none" /><path d="M 120.86939407059847 102.33845913500097 l 8.051806504421489 0.9022217132816256 a29.102196739438078,29.102196739438078 0 0,0 -0.059892201349492025,0.4959933442125643 l -8.035132216812332 -1.0403087344175985" fill="#ff6709" stroke="none" /><path d="M 120.82617615685814 102.69636545807757 l 5.752488699095051 0.7447748309337968 a26.800501338850697,26.800501338850697 0 0,0 -0.0629881761972244,0.45575106543823135 l -5.738856006342616 -0.8434142045721132" fill="#ff4706" stroke="none" /><path d="M 120.65975698304385 103.76489593502545 l 17.52833423101954 3.194246396426397 a38.81700622875275,38.81700622875275 0 0,0 -0.12509003495267704,0.6545239208898668 l -17.470917903784702 -3.4946728823495787" fill="#ffe515" stroke="none" /><path d="M 120.51834098615036 104.47187691870673 l 16.45129406728967 3.585482972138302 a37.837480946743014,37.837480946743014 0 0,0 -0.1437628574080441,0.6334456757672126 l -16.38732034832396 -3.8673629818445314" fill="#ffd914" stroke="none" /><path d="M 120.26092885502905 105.52220625578681 l 7.81013142410842 2.1286860497525186 a29.095026692992235,29.095026692992235 0 0,0 -0.13547407538910167,0.48074970077613144 l -7.772438856644738 -2.2624436744316587" fill="#ff6709" stroke="none" /><path d="M 120.16314734710363 105.8691983318838 l 7.742876119183165 2.253838392408547 a29.064236981643813,29.064236981643813 0 0,0 -0.14355474362012835,0.4778470528614029 l -7.703045055559408 -2.3864230488606735" fill="#ff6609" stroke="none" /><path d="M 120.05942366710727 106.21446072829308 l 7.159107461535938 2.2179097918101265 a28.494794426161853,28.494794426161853 0 0,0 -0.148763565989569,0.465999751644864 l -7.119979179769114 -2.340478577146374" fill="#ff5f08" stroke="none" /><path d="M 119.94978838288452 106.5578916946017 l 4.978344871246434 1.636480841672439 a26.24041860944587,26.24041860944587 0 0,0 -0.14434051873499087,0.4267170960106116 l -4.949518930939078 -1.721699612157211" fill="#ff3f05" stroke="none" /><path d="M 119.83427380445688 106.89939002012753 l 31.700635094315405 11.02712645583614 a54.56378678361461,54.56378678361461 0 0,0 -0.31532628027704795,0.882023726691516 l -31.506668643994413 -11.569685138908577" fill="#66ff29" stroke="none" /><path d="M 119.58574465831526 107.57618678355244 l 2.456976886371789 0.9504114415236629 a23.634391263336617,23.634391263336617 0 0,0 -0.1496184424246201,0.3771362129105108 l -2.4402997689810446 -0.9924486716477378" fill="#ff1b02" stroke="none" /><path d="M 119.4528033332814 107.91128576633889 l 7.517264290981907 3.0572059444668653 a29.11515684428559,29.11515684428559 0 0,0 -0.1922628469794794,0.46136084191888194 l -7.463675599465942 -3.185799295827025" fill="#ff6709" stroke="none" /><path d="M 119.31412917781788 108.2440532568976 l 7.397684155536077 3.157631472507183 a29.04340521055836,29.04340521055836 0 0,0 -0.19966112682174011,0.45686373161510935 l -7.342389146697371 -3.284157273898137" fill="#ff6609" stroke="none" /><path d="M 119.16976305983485 108.57439118712176 l 7.378612670638388 3.30035959541233 a29.08308718265092,29.08308718265092 0 0,0 -0.20775785177963987,0.45398840046113026 l -7.3208703540036915 -3.426536978088149" fill="#ff6709" stroke="none" /><path d="M 119.0197475246899 108.90220220490707 l 5.925377066769471 2.7733756570757113 a27.542301270857045,27.542301270857045 0 0,0 -0.2041025410124968,0.42649581131614867 l -5.876895267797062 -2.8746839704569638" fill="#ff5207" stroke="none" /><path d="M 118.8641267826498 109.22738970284198 l 2.770103218348118 1.3549962957365334 a24.083745579933975,24.083745579933975 0 0,0 -0.18484858108382457,0.3698209873231381 l -2.7464347240525613 -1.4023491392234173" fill="#ff2103" stroke="none" /><path d="M 118.70294669586154 109.54985784667822 l 6.075909729467979 3.1024028004371895 a27.822139120305607,27.822139120305607 0 0,0 -0.22084409977196898,0.4234976806988033 l -6.021757560721061 -3.2062467242404957" fill="#ff5507" stroke="none" /><path d="M 118.5362547648365 109.86951160357373 l 7.153843680080111 3.8090188177949322 a29.10469640105896,29.10469640105896 0 0,0 -0.23859565873695274,0.43898913848688254 l -7.087402671727819 -3.931262789756418" fill="#ff6709" stroke="none" /><line stroke="#e1ed5e" stroke-width="0.3" x1="174.33088141563837" x2="178.70328620479359" y1="141.23008692659167" y2="143.65538615756765" /><path d="M 175.20536237346943 141.71514677278685 a86.0,86.0 0 0,1 -30.301960400862466,31.631185727798858" fill="none" id="id125" stroke="none" /><text fill="#e1ed5e" style="font-size:6.75px; font-family:Arial;" text-anchor="middle"><textPath startOffset="22.145653131862474" xlink:href="#id125">May</textPath></text><path d="M 118.36410011445183 110.18625677009912 l 0.8232565669487054 0.4566465400616297 a21.94142309169386,21.94142309169386 0 0,0 -0.18552688881115736,0.32780823568617734 l -0.8152963131161698 -0.47071154584692976" fill="#ff0200" stroke="none" /><path d="M 118.18653347947321 110.5 l 5.34389250586237 3.085297776780062 a27.170595553560126,27.170595553560126 0 0,0 -0.2366769637227356,0.40192922692771105 l -5.290141832009869 -3.176578172001322" fill="#ff4c07" stroke="none" /><path d="M 118.00360718960297 110.81064883170644 l 5.148769500868306 3.0916881491078123 a27.00569421336163,27.00569421336163 0 0,0 -0.24206365681314088,0.39539279161421564 l -5.09493787959976 -3.179618056846585" fill="#ff4a06" stroke="none" /><path d="M 117.01052211995028 112.31430620078461 l 6.354413292137738 4.600105185128121 a28.84471388908094,28.84471388908094 0 0,0 -0.2938012403122246,0.3985978086455082 l -6.274510032241686 -4.708509303042507" fill="#ff6309" stroke="none" /><path d="M 116.79662413953412 112.60449989151573 l 6.4765456618523185 4.8601206060254505 a29.09730918362213,29.09730918362213 0 0,0 -0.30323278948314963,0.39694145533675723 l -6.3921608950148645 -4.970582974603086" fill="#ff6709" stroke="none" /><path d="M 116.1254893667686 113.45245675266167 l 6.1875232445996105 5.161851957535048 a29.057925262371754,29.057925262371754 0 0,0 -0.3228272350912041,0.38028967119990187 l -6.098001446001292 -5.267308411184507" fill="#ff6609" stroke="none" /><path d="M 115.89218393027572 113.72728997021213 l 4.442841273136573 3.837620475294489 a26.87078951169988,26.87078951169988 0 0,0 -0.30452145745153586,0.34648951834692404 l -4.376308751726452 -3.913322271452706" fill="#ff4806" stroke="none" /><path d="M 115.6541949942343 113.99807769240083 l 0.6329871832920652 0.5660210424924308 a21.84914815830704,21.84914815830704 0 0,0 -0.252412075135795,0.2774450866616089 l -0.6231774073143903 -0.5768037047117115" fill="#ff0100" stroke="none" /><path d="M 115.16444852881244 114.52719865689866 l 5.626840521484594 5.39038593530017 a28.792149561302253,28.792149561302253 0 0,0 -0.3449754691839831,0.3539752220628616 l -5.533478251149804 -5.486183849430769" fill="#ff6309" stroke="none" /><path d="M 114.65682725009322 115.03919595460226 l 3.321317879656157 3.4079647366625925 a25.75871580408616,25.75871580408616 0 0,0 -0.31931916440855473,0.30590053621166824 l -3.26232622938229 -3.4644774031798407" fill="#ff3905" stroke="none" /><path d="M 114.13192950727249 115.5334660781643 l 5.467300536429365 6.009521019620911 a29.12439031810427,29.12439031810427 0 0,0 -0.3727020119486297,0.3332724372791172 l -5.363333497657358 -6.102488986783414" fill="#ff6709" stroke="none" /><path d="M 113.86319453409587 115.77377054828091 l 2.5216790559511137 2.869207867432744 a24.819845421972,24.819845421972 0 0,0 -0.3224458638203766,0.278521057381258 l -2.4720537123678814 -2.91207305727872" fill="#ff2b04" stroke="none" /><path d="M 113.59037401385872 116.0094264158162 l 5.757308401739259 6.7820948207027865 a29.896258212852246,29.896258212852246 0 0,0 -0.39409769456384464,0.32877031337537677 l -5.640036373013519 -6.879927317990034" fill="#ff720a" stroke="none" /><path d="M 113.31354834802062 116.24036423190432 l 5.138526402279792 6.268166698075485 a29.105206187493877,29.105206187493877 0 0,0 -0.38910781979954495,0.31343771613316795 l -5.030167812124994 -6.355452708002057" fill="#ff6709" stroke="none" /><path d="M 111.8722381534696 117.32195027204791 l 6.870090240733624 10.023666976364641 a33.15203849437972,33.15203849437972 0 0,0 -0.472185608134286,0.3177075501268945 l -6.697008344502335 -10.140124200548657" fill="#ff9d0e" stroke="none" /><path d="M 111.5731344415666 117.5232005979908 l 3.3752488628878394 5.11055697064189 a27.12454875371256,27.12454875371256 0 0,0 -0.39074122459729865,0.25327374098242417 l -3.2870220060335313 -5.167744553328209" fill="#ff4c07" stroke="none" /><path d="M 111.27062007382361 117.71928675628689 l 4.375517312353328 6.879039969127769 a29.15268928928124,29.15268928928124 0 0,0 -0.4245684822338131,0.26496213386307677 l -4.256784701329801 -6.953137899832393" fill="#ff6809" stroke="none" /><line stroke="#e1ed5e" stroke-width="0.3" x1="143.1302829299769" x2="145.66735839644613" y1="173.24464959558577" y2="177.55315839532614" /><path d="M 143.63769802327073 174.10635135553383 a86.0,86.0 0 0,1 -40.68552437913181,11.842963189579606" fill="none" id="id126" stroke="none" /><text fill="#e1ed5e" style="font-size:6.75px; font-family:Arial;" text-anchor="middle"><textPath startOffset="21.407464694133747" xlink:href="#id126">June</textPath></text><path d="M 110.65571695917076 118.09573695890943 l 0.5631160655808964 0.9562941882871566 a22.109773976027146,22.109773976027146 0 0,0 -0.3287065699628485,0.18977882665244988 l -0.5466170277576494 -0.9658199122157781" fill="#ff0500" stroke="none" /><path d="M 110.02825361518725 118.45085714620011 l 2.739671450243007 5.040686892820741 a26.737100662070645,26.737100662070645 0 0,0 -0.40514497448150566,0.21571687902996353 l -2.6527376599749477 -5.086974239573273" fill="#ff4606" stroke="none" /><path d="M 109.71004243097381 118.62028667847754 l 3.6689532375740357 7.035701602665957 a28.93487963999841,28.93487963999841 0 0,0 -0.4423905807332091,0.22588778268006124 l -3.547635435127244 -7.097647337018854" fill="#ff6509" stroke="none" /><path d="M 109.3889696526874 118.78422872680471 l 1.8261004440658577 3.6534241443239237 a25.084378876909746,25.084378876909746 0 0,0 -0.38682471442448874,0.1892153518586521 l -1.7631154803792997 -3.684233246279799" fill="#ff2f04" stroke="none" /><path d="M 109.06512990194946 118.94263497670748 l 3.4718349531504433 7.254799757779558 a29.04274564234102,29.04274564234102 0 0,0 -0.45156115392302265,0.21135342069528665 l -3.346785085355915 -7.3133294100453785" fill="#ff6609" stroke="none" /><path d="M 108.4095320186766 119.2426549942271 l 0.37852319414004554 0.8661351447349611 a21.945235366163917,21.945235366163917 0 0,0 -0.3464890625975874,0.14789557730967562 l -0.363599056372027 -0.8725053717040406" fill="#ff0200" stroke="none" /><path d="M 108.07796709384702 119.3841803445677 l 0.6179165251905431 1.482774715844729 a22.60637532664442,22.60637532664442 0 0,0 -0.3594903899517807,0.1462016119957047 l -0.5923716740483215 -1.493163584419725" fill="#ff0c01" stroke="none" /><path d="M 107.74402155503746 119.51999308798841 l 12.462360730708271 31.413290057954473 a54.79504737750017,54.79504737750017 0 0,0 -0.8773149907760356,0.33936428530471613 l -11.921273477438707 -31.62259423139723" fill="#64ff29" stroke="none" /><path d="M 107.06938296918513 119.77432235084164 l 2.7361770658990756 7.653574229308605 a29.12796797603736,29.12796797603736 0 0,0 -0.4722811889475319,0.16428391348446508 l -2.604390104906522 -7.69941657536166" fill="#ff6709" stroke="none" /><path d="M 106.72888874123015 119.89276391827305 l 2.5933092764315036 7.666658074909456 a29.093386129476343,29.093386129476343 0 0,0 -0.4744677730562114,0.15596698113103433 l -2.461318765727558 -7.71004597744251" fill="#ff6709" stroke="none" /><path d="M 105.69591212413111 120.21278271476187 l 2.343646034476686 8.316772980836134 a29.640682238670987,29.640682238670987 0 0,0 -0.49093240817116224,0.1338058109265007 l -2.200532225370829 -8.355779285906777" fill="#ff6e0a" stroke="none" /><path d="M 105.3480935250658 120.30758222061773 l 2.0664944214830645 7.8468159122551695 a29.114364987775787,29.114364987775787 0 0,0 -0.4844002389444133,0.1231326465072685 l -1.9314888893132538 -7.8811337905977075" fill="#ff6709" stroke="none" /><path d="M 104.9986988182912 120.39639698878246 l 1.9220290321843956 7.842534345327806 a29.07462324558898,29.07462324558898 0 0,0 -0.48577859233353576,0.11464242508418443 l -1.7871182861109807 -7.874372914058216" fill="#ff6709" stroke="none" /><path d="M 104.64783097203109 120.47920084513623 l 1.8070856443099874 7.962352778507877 a29.164840494172765,29.164840494172765 0 0,0 -0.48918823501694203,0.10661629897620553 l -1.6701349926739095 -7.992200535617801" fill="#ff6809" stroke="none" /><path d="M 104.29559338865022 120.5559693870025 l 1.7234607964037627 8.247383810623402 a29.42553599698403,29.42553599698403 0 0,0 -0.4953347804794829,0.0990808287554966 l -1.5816295303933212 -8.27575403604176" fill="#ff6b09" stroke="none" /><path d="M 103.94208987418118 120.62667999033965 l 0.3251252289203842 1.7011925825561414 a22.731982279766328,22.731982279766328 0 0,0 -0.3839164072459986,0.0699623583286277 l -0.29587408812332844 -1.7065231148161326" fill="#ff0e01" stroke="none" /><path d="M 103.58742460773223 120.69131181640829 l 0.7148571386635634 4.123106009919314 a25.18461753302868,25.18461753302868 0 0,0 -0.42660643016677796,0.07019792574115519 l -0.6439732054437132 -4.13476993415614" fill="#ff3104" stroke="none" /><path d="M 103.2317021107853 120.74984581791261 l 5.318530055066409 34.14877820955629 a55.56046607255335,55.56046607255335 0 0,0 -0.9436677794674162,0.138686666597005 l -4.731537169991308 -34.23504594945218" fill="#5cff2a" stroke="none" /><path d="M 101.08105385017728 120.97215588758144 l 0.4198173301751885 8.144344050297274 a29.155157055527994,29.155157055527994 0 0,0 -0.5000445960494359,0.02147406651383486 l -0.2799469735249231 -8.150350685236939" fill="#ff6809" stroke="none" /><path d="M 100.72087961077811 120.9876233191556 l 0.15492700868542 4.510530817681819 a25.51319073774615,25.51319073774615 0 0,0 -0.43783877416463474,0.011277173701427196 l -0.07747492045004145 -4.512525708733292" fill="#ff3505" stroke="none" /><line stroke="#e1ed5e" stroke-width="0.3" x1="101.45913802915013" x2="101.54496967792366" y1="184.9874750549273" y2="189.98673829345242" /><path d="M 101.47630435890484 185.9873277026323 a86.0,86.0 0 0,1 -42.54439059252881,-10.42667462771756" fill="none" id="id127" stroke="none" /><text fill="#e1ed5e" style="font-size:6.75px; font-family:Arial;" text-anchor="middle"><textPath startOffset="22.145653131862474" xlink:href="#id127">July</textPath></text><path d="M 100.36049292484886 120.99690560180557 l 0.13551709620359872 7.893191461693136 a28.894354712977425,28.894354712977425 0 0,0 -0.49601002105245,0.004257649478723771 l -9.667796230581625e-16 -7.8943547129774245" fill="#ff6409" stroke="none" /><path d="M 100.0 121.0 l 1.3622698561873966e-15 11.123777542519704 a32.123777542519704,32.123777542519704 0 0,0 -0.5514473582617524,-0.0047335123440953196 l 0.1909544334128989 -11.122138428370043" fill="#ff900d" stroke="none" /><path d="M 99.63950707515114 120.99690560180557 l -0.026226837178076067 1.527581781786376 a22.527806907640493,22.527806907640493 0 0,0 -0.3866057939380362,-0.009957593866679663 l 0.05244594518685617 -1.526906470569649" fill="#ff0b01" stroke="none" /><path d="M 99.27912038922189 120.98762331915562 l -0.33198062786513716 9.665253757655435 a30.670953486453662,30.670953486453662 0 0,0 -0.5260422544585953,-0.02259051782696743 l 0.4978486429245712 -9.65813067140264" fill="#ff7c0b" stroke="none" /><path d="M 98.91894614982273 120.97215588758144 l -0.41952494158142234 8.138671789690559 a29.149477264028278,29.149477264028278 0 0,0 -0.499504953611782,-0.03004897762906324 l 0.5591742473256507 -8.130270834236804" fill="#ff6809" stroke="none" /><path d="M 98.55909050195518 120.95050786540614 l -0.9402669064154324 13.671274459060339 a34.703570600039086,34.703570600039086 0 0,0 -0.5939780602695529,-0.04597765844466158 l 1.1748139614602215 -13.653119033620623" fill="#ffb110" stroke="none" /><path d="M 98.19965949673042 120.92268563240118 l -0.11056648655911161 1.2849501722336136 a22.289698372904773,22.289698372904773 0 0,0 -0.3809420227643732,-0.03607560561971412 l 0.1326080727085001 -1.282862811108716" fill="#ff0701" stroke="none" /><path d="M 97.84075906011543 120.88869738790638 l -0.848620363547371 8.209632210986037 a29.253376131080344,29.253376131080344 0 0,0 -0.49906830593972373,-0.055921644637416744 l 0.9894245710878941 -8.19385480584165" fill="#ff6909" stroke="none" /><path d="M 97.48249496171623 120.84855314841334 l -0.8404345538434154 6.960003732708502 a28.01056218848462,28.01056218848462 0 0,0 -0.47687605731858995,-0.06174115301116509 l 0.9597884330527994 -6.94455098349694" fill="#ff5808" stroke="none" /><path d="M 96.41257539226777 120.69131181640829 l -2.6115390949826027 15.062663510351632 a36.28737938531981,36.28737938531981 0 0,0 -0.6128510989727775,-0.11168188537707269 l 2.869724927506437 -15.015613451043192" fill="#ffc612" stroke="none" /><path d="M 95.35216902796893 120.47920084513623 l -2.1328645656313863 9.397794816094997 a30.63678673940375,30.63678673940375 0 0,0 -0.5118792085516646,-0.12080209944336909 l 2.293875927922939 -9.3597965730054" fill="#ff7c0b" stroke="none" /><path d="M 95.00130118170881 120.39639698878247 l -2.2837301703182016 9.318398419729801 a30.594163465338937,30.594163465338937 0 0,0 -0.5090208939517585,-0.12939112073181638 l 2.4433563574953387 -9.277822067162722" fill="#ff7b0b" stroke="none" /><path d="M 94.6519064749342 120.30758222061772 l -2.47073187598009 9.381771369817125 a30.701657076938165,30.701657076938165 0 0,0 -0.5085051120706684,-0.138595329516651 l 2.631418388985453 -9.33797554615633" fill="#ff7d0b" stroke="none" /><path d="M 94.30408787586889 120.21278271476187 l -2.134036779040004 7.572943679608805 a28.86788338429227,28.86788338429227 0 0,0 -0.4758251808194355,-0.13850577538605108 l 2.263721972241046 -7.535194209920238" fill="#ff6409" stroke="none" /><path d="M 93.95794788825049 120.11202640906438 l -1.8694862582853553 6.222911736378752 a27.49766183705171,27.49766183705171 0 0,0 -0.45090844893890275,-0.13969259010074114 l 1.9760353400958917 -6.189902558471362" fill="#ff5107" stroke="none" /><path d="M 91.26138138417905 119.09545874513695 l -2.1330301364120032 4.661055798710212 a26.125939789105203,26.125939789105203 0 0,0 -0.40621020008841696,-0.1901268843967895 l 2.2127290503719097 -4.623752682742896" fill="#ff3e05" stroke="none" /><path d="M 90.28995756902619 118.62028667847754 l -4.003497061796959 7.677233496870076 a29.658400711983756,29.658400711983756 0 0,0 -0.44941118154462034,-0.2392861409870434 l 4.134697059128142 -7.607376888160459" fill="#ff6f0a" stroke="none" /><line stroke="#e1ed5e" stroke-width="0.3" x1="58.13341422392154" x2="55.67067388415222" y1="173.97424548756322" y2="178.32567169271397" /><path d="M 57.64086615596768 174.84453072859336 a86.0,86.0 0 0,1 -31.369924170532247,-30.572349798747897" fill="none" id="id128" stroke="none" /><text fill="#e1ed5e" style="font-size:6.75px; font-family:Arial;" text-anchor="middle"><textPath startOffset="22.145653131862474" xlink:href="#id128">August</textPath></text><path d="M 89.65649057296885 118.27599006163327 l -3.860973766784403 6.821970694547132 a28.83877557945482,28.83877557945482 0 0,0 -0.42874680731377907,-0.24753708461680482 l 3.9775130419585816 -6.754686712654156" fill="#ff6309" stroke="none" /><path d="M 89.34428304082925 118.09573695890944 l -4.759258420058156 8.082261270531113 a30.3794183164001,30.3794183164001 0 0,0 -0.44710871792564677,-0.2684759386374538 l 4.89729989454123 -7.99937133135774" fill="#ff780b" stroke="none" /><path d="M 88.72937992617639 117.7192867562869 l -4.264019396258166 6.703746725714558 a28.94494062748077,28.94494062748077 0 0,0 -0.4169647815847971,-0.27027153379769353 l 4.378469810099973 -6.6295613502129696" fill="#ff6509" stroke="none" /><path d="M 88.1277618465304 117.32195027204791 l -5.806779298038847 8.472264533540452 a31.271219603456053,31.271219603456053 0 0,0 -0.4401869533221327,-0.30728468006044923 l 5.951361342534745 -8.371335037674873" fill="#ff840c" stroke="none" /><path d="M 87.83215693770417 117.11559508785305 l -4.600957141666006 6.471822413401747 a28.94061030211511,28.94061030211511 0 0,0 -0.4024384656945141,-0.29133441399332627 l 4.711376617734474 -6.391887228035356" fill="#ff6509" stroke="none" /><path d="M 86.68645165197938 116.24036423190432 l -0.8631075277386517 1.0528508445202116 a22.36141452366502,22.36141452366502 0 0,0 -0.2947720697426425,-0.24590934451126603 l 0.8810539316431869 -1.0378793160970752" fill="#ff0801" stroke="none" /><path d="M 86.40962598614128 116.0094264158162 l -12.551274594478086 14.785369912564134 a40.39437179692469,40.39437179692469 0 0,0 -0.524781596585207,-0.45329384425461144 l 12.803235670826156 -14.5677319358448" fill="#fff917" stroke="none" /><path d="M 85.34317274990678 115.03919595460226 l -0.9340739686983766 0.9584421793098893 a22.338321930658026,22.338321930658026 0 0,0 -0.27232337642792903,-0.26999584018802536 l 0.9503892652562681 -0.9422663288932045" fill="#ff0801" stroke="none" /><path d="M 85.08716467003676 114.78537596483092 l -5.8639428871759 5.813824018360262 a29.257504217408762,29.257504217408762 0 0,0 -0.3505511536421858,-0.3596963655079722 l 5.962880841968895 -5.712304960784552" fill="#ff6909" stroke="none" /><path d="M 84.1078160697243 113.72728997021213 l -5.552680301179023 4.796272994359112 a28.3373355629629,28.3373355629629 0 0,0 -0.31482164012202346,-0.3708591004559887 l 5.634196504808158 -4.700247111453568" fill="#ff5d08" stroke="none" /><path d="M 83.8745106332314 113.45245675266167 l -4.445838332515119 3.708876458703716 a26.789753281858168,26.789753281858168 0 0,0 -0.2915658725895732,-0.3556629566115384 l 4.508851024343322 -3.6320112203936823" fill="#ff4706" stroke="none" /><path d="M 83.4222238831116 112.89097897827486 l -9.208390489997894 7.160500141474314 a32.66478536846424,32.66478536846424 0 0,0 -0.34041065181117863,-0.44560847054955316 l 9.329953119163369 -7.00137075768389" fill="#ff970d" stroke="none" /><path d="M 81.99639281039703 110.81064883170644 l -5.972763545201449 3.586472897457992 a27.966827987763736,27.966827987763736 0 0,0 -0.24361276586859665,-0.4137077352825622 l 6.033450021199815 -3.483413993881871" fill="#ff5708" stroke="none" /><line stroke="#e1ed5e" stroke-width="0.3" x1="26.387840678322732" x2="22.057713659400548" y1="142.50000000000003" y2="145.00000000000006" /><path d="M 25.521815274538298 143.00000000000003 a86.0,86.0 0 0,1 -11.493303480769221,-40.785679425670985" fill="none" id="id129" stroke="none" /><text fill="#e1ed5e" style="font-size:6.75px; font-family:Arial;" text-anchor="middle"><textPath startOffset="21.40746469413373" xlink:href="#id129">September</textPath></text><path d="M 81.81346652052679 110.50000000000001 l -29.13365430719842 16.820323156738528 a54.64064631347703,54.64064631347703 0 0,0 -0.46201693804481647,-0.816339659917229 l 29.418104610264617 -16.317726726722178" fill="#65ff29" stroke="none" /><path d="M 81.63589988554817 110.18625677009913 l -4.77046254618451 2.646095158745916 a26.455193167403678,26.455193167403678 0 0,0 -0.2168754538377762,-0.3990264078700594 l 4.815183349637616 -2.5638139174012697" fill="#ff4206" stroke="none" /><path d="M 81.4637452351635 109.86951160357371 l -4.689682675439194 2.496991877244196 a26.313011578317706,26.313011578317706 0 0,0 -0.20886508147972843,-0.4005263336306652 l 4.731855825893871 -2.416119300509028" fill="#ff4006" stroke="none" /><path d="M 81.29705330413844 109.54985784667822 l -7.391549390677655 3.7741777857545773 a29.299362647415194,29.299362647415194 0 0,0 -0.22487970544529393,-0.44991005183319294 l 7.455249009334686 -3.6467358777576315" fill="#ff6a09" stroke="none" /><path d="M 81.1358732173502 109.22738970284198 l -7.464242349466013 3.6511349710778847 a29.309374250121955,29.309374250121955 0 0,0 -0.2171974556921251,-0.4538591465921242 l 7.52581906311805 -3.5224633224206556" fill="#ff6a09" stroke="none" /><path d="M 80.9802524753101 108.90220220490708 l -4.515472689554352 2.113469218293624 a25.985603849764427,25.985603849764427 0 0,0 -0.1856306794089012,-0.4056365355122465 l 4.551087833818309 -2.0356437005666885" fill="#ff3c05" stroke="none" /><path d="M 80.83023694016515 108.57439118712176 l -9.176157525855935 4.10437854530363 a31.052252990373415,31.052252990373415 0 0,0 -0.2134711056593908,-0.4884636657922212 l 9.245262513532293 -3.94625280973556" fill="#ff810b" stroke="none" /><path d="M 80.68587082218212 108.24405325689762 l -7.3094980971407395 3.1199900880453906 a28.947521662858527,28.947521662858527 0 0,0 -0.1911558628266046,-0.45870448293540855 l 7.36197980450383 -2.9940530956687006" fill="#ff6509" stroke="none" /><path d="M 80.41425534168474 107.57618678355246 l -2.4220565313793503 0.9369034980379239 a23.59694936528094,23.59694936528094 0 0,0 -0.14289561499276934,-0.3790475957886619 l 2.437782830186556 -0.8951876220551171" fill="#ff1a02" stroke="none" /><path d="M 80.28708602549918 107.23885506374661 l -7.651486733909402 2.8097319128260745 a29.15106389750104,29.15106389750104 0 0,0 -0.16846515036375578,-0.47122700845274934 l 7.698592054317101 -2.6779699479924037" fill="#ff6809" stroke="none" /><path d="M 80.16572619554312 106.89939002012753 l -7.470401895413404 2.5985935654460603 a28.909462244512824,28.909462244512824 0 0,0 -0.15902211160687918,-0.4701206165882654 l 7.51390942859265 -2.4699712743836333" fill="#ff6409" stroke="none" /><path d="M 80.05021161711548 106.5578916946017 l -4.209909495847951 1.3838808707129875 a25.431530686744264,25.431530686744264 0 0,0 -0.13277109976479393,-0.41590357897407654 l 4.23304531139 -1.311408258047519" fill="#ff3404" stroke="none" /><path d="M 79.94057633289273 106.21446072829308 l -3.8467092753341117 1.1917203665189804 a25.02707954737892,25.02707954737892 0 0,0 -0.12361432334362077,-0.41147187903112564 l 3.866599918681362 -1.1255108838971313" fill="#ff2e04" stroke="none" /><path d="M 79.73907114497094 105.5222062557868 l -32.457943981904386 8.846556966333758 a54.641933619978374,54.641933619978374 0 0,0 -0.23889068073731196,-0.9071068256519838 l 32.60502414344643 -8.288069636308972" fill="#65ff29" stroke="none" /><path d="M 79.48165901384964 104.47187691870673 l -7.930191547640273 1.7283483380431552 a29.11634930001671,29.11634930001671 0 0,0 -0.10224315475336082,-0.48927050793349963 l 7.958692413218 -1.5919613788242466" fill="#ff6709" stroke="none" /><path d="M 79.2786578344484 103.40968896794605 l -33.16480466075716 5.4572559862393 a54.610800512417505,54.610800512417505 0 0,0 -0.14427265359826943,-0.9263339303193877 l 33.253598806493706 -4.887133873988462" fill="#66ff29" stroke="none" /><path d="M 79.22317932658666 103.0534771498775 l -1.2218041866359346 0.17956314029756587 a22.23492849664854,22.23492849664854 0 0,0 -0.052257887872017614,-0.3781120444042041 l 1.2247065910631647 -0.1585627876932761" fill="#ff0601" stroke="none" /><path d="M 79.17382384314188 102.69636545807758 l -3.262839833677516 0.42243994079875824 a24.290072838679226,24.290072838679226 0 0,0 -0.049988870128027725,-0.413979555093071 l 3.269610790065205 -0.36636670878228794" fill="#ff2403" stroke="none" /><path d="M 79.0935383218832 101.97986365728391 l -12.108308177810986 1.1466693733992475 a33.16248237740702,33.16248237740702 0 0,0 -0.048806294887412525,-0.5672031279400056 l 12.12620809539614 -0.9386451980835798" fill="#ff9d0e" stroke="none" /><path d="M 79.03789590574601 101.26102812881392 l -8.189169796945038 0.4926401194816969 a29.203974417958637,29.203974417958637 0 0,0 -0.025808540321344074,-0.5006787874271181 l 8.196419926722953 -0.351989538677848" fill="#ff6809" stroke="none" /><path d="M 79.01933749520258 100.90099992219065 l -11.275441705177592 0.48421598206001465 a32.28583407480991,32.28583407480991 0 0,0 -0.01902606201159994,-0.5539230362131564 l 11.28209245418604 -0.2905866812827383" fill="#ff920d" stroke="none" /><path d="M 79.00696218219943 100.54070618675478 l -2.4393560203385456 0.06282915809241045 a23.440165014311226,23.440165014311226 0 0,0 -0.006907669739505739,-0.40233713188584774 l 2.4400751216767174 -0.020945110237510316" fill="#ff1802" stroke="none" /><line stroke="#e1ed5e" stroke-width="0.3" x1="15.003131293944662" x2="10.003315487706104" y1="100.72959589197737" y2="100.7725132973878" /><path d="M 14.003168132696942 100.73817937305945 a86.0,86.0 0 0,1 10.791469493833604,-42.45332614584628" fill="none" id="id130" stroke="none" /><text fill="#e1ed5e" style="font-size:6.75px; font-family:Arial;" text-anchor="middle"><textPath startOffset="22.145653131862435" xlink:href="#id130">October</textPath></text><path d="M 79.00696218219943 99.45929381324524 l -3.5599762697348787 -0.09169236060317144 a24.56115690893682,24.56115690893682 0 0,0 0.014473904974645803,-0.4213919509212935 l 3.5578776777633823 0.15279057608860347" fill="#ff2803" stroke="none" /><path d="M 79.01933749520258 99.09900007780938 l -10.319350531032537 -0.44315731323508323 a31.32886168881137,31.32886168881137 0 0,0 0.02768637509901364,-0.5371082804462758 l 10.310222566476954 0.620237387058071" fill="#ff850c" stroke="none" /><path d="M 79.06263194458094 98.37931529534042 l -10.255177246071261 -0.7938155771197313 a31.28585453517673,31.28585453517673 0 0,0 0.04604440116608077,-0.5351057363762661 l 10.240039222207438 0.9697423608716781" fill="#ff840c" stroke="none" /><path d="M 79.0935383218832 98.0201363427161 l -15.902632863457017 -1.5059958660744222 a36.973783382108834,36.973783382108834 0 0,0 0.06526331861314257,-0.6313634054721629 l 15.87443715236221 1.7787637938294978" fill="#ffce13" stroke="none" /><path d="M 79.13060592940154 97.66154086499901 l -8.060432773638015 -0.9031883047400175 a29.1108769940221,29.1108769940221 0 0,0 0.059910065277764435,-0.49614128316498 l 8.043740622100582 1.0414232648284338" fill="#ff6709" stroke="none" /><path d="M 79.17382384314186 97.30363454192245 l -8.871892850145715 -1.1486441509340921 a29.94594132162411,29.94594132162411 0 0,0 0.07038078148276834,-0.5092402746622242 l 8.850867552107738 1.3007727337963835" fill="#ff720a" stroke="none" /><path d="M 79.22317932658666 96.9465228501225 l -8.020415634052174 -1.1787249000246147 a29.106568900150457,29.106568900150457 0 0,0 0.076894714835955,-0.4937192297933386 l 7.998999427077952 1.3162323117494032" fill="#ff6709" stroke="none" /><path d="M 79.2786578344484 96.59031103205396 l -8.337447472299559 -1.3719238087960326 a29.449568349359375,29.449568349359375 0 0,0 0.08636462102715317,-0.4981281835796977 l 8.31266803378017 1.5148450252963228" fill="#ff6c09" stroke="none" /><path d="M 79.34024301695615 96.23510406497455 l -5.282608393100539 -0.9626672221671659 a26.369607026169728,26.369607026169728 0 0,0 0.08497757516777762,-0.44463858138315177 l 5.265304525650603 1.0532083685836322" fill="#ff4106" stroke="none" /><path d="M 79.407916724674 95.88100663000787 l -33.01587683430987 -6.6041000304203665 a54.66990140095628,54.66990140095628 0 0,0 0.19197541325298437,-0.9186718482974399 l 32.89764371023252 7.169888330003215" fill="#65ff29" stroke="none" /><path d="M 79.48165901384962 95.52812308129327 l -3.4725662027009703 -0.7568296413935869 a24.55408316422576,24.55408316422576 0 0,0 0.0932928162340522,-0.4110653620070483 l 3.4590625249092564 0.8163293373396434" fill="#ff2803" stroke="none" /><path d="M 79.56144815229197 95.17655741523228 l -4.010690713796313 -0.9465120879113034 a25.120864610041707,25.120864610041707 0 0,0 0.10265159658270795,-0.4188535440006749 l 3.9938515906973064 1.015221456520096" fill="#ff3004" stroke="none" /><path d="M 79.73907114497095 94.47779374421319 l -7.804822999554138 -2.1272392150347366 a29.089524629565748,29.089524629565748 0 0,0 0.13544845633869163,-0.4806587878041643 l 7.767156051140864 2.260905926741914" fill="#ff6709" stroke="none" /><path d="M 79.83685265289637 94.1308016681162 l -7.787483428003944 -2.2668229298923923 a29.11069567527484,29.11069567527484 0 0,0 0.14378421346161568,-0.478610883332693 l 7.747422894538699 2.400171416815809" fill="#ff6709" stroke="none" /><path d="M 79.94057633289273 93.78553927170692 l -3.761367223974233 -1.1652811808549564 a24.937735849957733,24.937735849957733 0 0,0 0.1301931313229428,-0.4078281295476099 l 3.740809376874033 1.229678344093958" fill="#ff2d04" stroke="none" /><path d="M 80.28708602549916 92.7611449362534 l -7.618340693306507 -2.797560227596187 a29.115753701679093,29.115753701679093 0 0,0 0.17631573754618263,-0.46769844141100475 l 7.5691942719458885 2.9279269492013364" fill="#ff6709" stroke="none" /><path d="M 80.41425534168474 92.42381321644754 l -7.5902861008867495 -2.936085721739753 a29.138368537902338,29.138368537902338 0 0,0 0.18446158679780592,-0.46496369795746745 l 7.538765839122813 3.0659504369108035" fill="#ff6709" stroke="none" /><path d="M 80.9802524753101 91.09779779509293 l -30.57638883371014 -14.311293866556635 a54.759867983230855,54.759867983230855 0 0,0 0.4057986328365727,-0.8479630693672848 l 30.32621094291366 14.834069437989008" fill="#64ff29" stroke="none" /><path d="M 81.29705330413844 90.45014215332179 l -3.396599129408654 -1.7343277172030358 a24.81376169635156,24.81376169635156 0 0,0 0.1969644691981196,-0.37770534042613163 l 3.3663265912355946 1.792379300733654" fill="#ff2b04" stroke="none" /><line stroke="#e1ed5e" stroke-width="0.3" x1="26.387840678322718" x2="22.05771365940052" y1="57.49999999999999" y2="54.99999999999999" /><path d="M 25.521815274538284 56.99999999999999 a86.0,86.0 0 0,1 29.574782752854787,-30.34633250058573" fill="none" id="id131" stroke="none" /><text fill="#e1ed5e" style="font-size:6.75px; font-family:Arial;" text-anchor="middle"><textPath startOffset="21.40746469413373" xlink:href="#id131">November</textPath></text><path d="M 81.99639281039701 89.18935116829357 l -3.3920531614642626 -2.036830461855815 a24.9566024541952,24.9566024541952 0 0,0 0.22369676572527128,-0.3653918553476268 l 3.3565884312835985 2.094759433327985" fill="#ff2d04" stroke="none" /><path d="M 82.18462484594161 88.88188828441811 l -27.319639761557486 -17.049475763032458 a53.20321941197035,53.20321941197035 0 0,0 0.4901848430839184,-0.7706519908662671 l 27.022937226847677 17.515941428577396" fill="#74ff27" stroke="none" /><path d="M 83.2033758604659 87.39550010848427 l -0.9216304354408488 -0.691608660587317 a22.152269586047584,22.152269586047584 0 0,0 0.23085620933432588,-0.30219818860250697 l 0.9096222487522162 0.7073277624307083" fill="#ff0500" stroke="none" /><line stroke="#e1ed5e" stroke-width="0.3" x1="56.869717070023135" x2="54.33264160355391" y1="26.7553504044142" y2="22.446841604673864" /><path d="M 56.362301976729285 25.89364864446614 a86.0,86.0 0 0,1 42.16139366436587,-11.88097634709845" fill="none" id="id132" stroke="none" /><text fill="#e1ed5e" style="font-size:6.75px; font-family:Arial;" text-anchor="middle"><textPath startOffset="22.145653131862474" xlink:href="#id132">December</textPath></text></svg>