<?xml version="1.0" encoding="utf-8" ?>
<svg baseProfile="full" height="200mm" version="1.1" viewBox="0,0,200,200" width="200mm" xmlns="http://www.w3.org/2000/svg" xmlns:ev="http://www.w3.org/2001/xml-events" xmlns:xlink="http://www.w3.org/1999/xlink"><defs /><rect fill="#1a1a1a" height="200" width="200" x="0" y="0" /><text alignment-baseline="middle" fill="#e1ed5e" style="dominant-baseline: central; font-size:9.0px; font-family:Arial;" text-anchor="middle" x="100.0" y="100.0">2022</text><line stroke="#e1ed5e" stroke-width="0.3" x1="100.0" x2="100.0" y1="15.0" y2="10.0" /><path d="M 100.0 14.0 a86.0,86.0 0 0,1 42.46469731375804,11.215312516191453" fill="none" id="id97" stroke="none" /><text fill="#e1ed5e" style="font-size:6.75px; font-family:Arial;" text-anchor="middle"><textPath startOffset="22.20632615414155" xlink:href="#id97">January</textPath></text><path d="M 100.0 79.0 l 0.0 -4.652100017300878 a25.652100017300878,25.652100017300878 0 0,0 0.44155873374289306,0.0038006354263925004 l -0.08007825447036471 4.651410758483045" fill="#ff2904" stroke="none" /><path d="M 100.36148047927253 79.00311137660856 l 0.25748568815106215 -14.95626631652534 a35.95848257713439,35.95848257713439 0 0,0 0.6187827543897989,0.01598133295893974 l -0.5148950777357288 14.949618191424042" fill="#ffb711" stroke="none" /><path d="M 101.08401301168833 79.027996857942 l 0.6430565319972714 -12.440979457029972 a33.45758771004989,33.45758771004989 0 0,0 0.574893685717304,0.03467915708902404 l -0.8571122665541873 12.428067030560644" fill="#ff960d" stroke="none" /><path d="M 101.80526077348638 79.07773832637324 l 0.5677921388006095 -6.58048736154196 a27.604937685421206,27.604937685421206 0 0,0 0.47306302101060405,0.044923034004366966 l -0.6809802869014577 6.569738783022415" fill="#ff4506" stroke="none" /><path d="M 102.16513564639614 79.11191278185805 l 1.5745057548735377 -15.190001415388286 a36.27138537826965,36.27138537826965 0 0,0 0.6204709208430932,0.06971713748067834 l -1.8357433792263562 15.160648324437007" fill="#ffbb11" stroke="none" /><path d="M 102.52436894288641 79.15227682838746 l 1.822719320343434 -15.053087987455726 a36.16303939448939,36.16303939448939 0 0,0 0.617329380729285,0.08014707109051994 l -2.081563429580565 15.019482593201069" fill="#ffba11" stroke="none" /><path d="M 102.88285421437855 79.19881850522331 l 1.6780137578393455 -12.107677368303086 a33.223403021516425,33.223403021516425 0 0,0 0.5657961664864094,0.0833836473417641 l -1.8861789047544106 12.076999236800354" fill="#ff930d" stroke="none" /><path d="M 103.2404852339499 79.25152402106235 l 1.902116511881994 -12.179046009050365 a33.326686858817325,33.326686858817325 0 0,0 0.566031231366452,0.0934000031182048 l -2.1114769493873213 12.144499742992535" fill="#ff940d" stroke="none" /><path d="M 103.59715602781102 79.31037775812273 l 2.131202861516163 -12.257956503601985 a33.44184565412756,33.44184565412756 0 0,0 0.5662896892348339,0.10348582107506553 l -2.3418876718538977 12.219455201176181" fill="#ff960d" stroke="none" /><path d="M 103.95276090670814 79.375362276772 l 1.9241867266426942 -10.03998346611353 a31.222708181241455,31.222708181241455 0 0,0 0.5269703127065509,0.1057052872496214 l -2.09672344881637 10.0053742227867" fill="#ff780b" stroke="none" /><path d="M 104.307194497241 79.44645832069477 l 3.872743136579127 -18.48037917068979 a39.88180483148753,39.88180483148753 0 0,0 0.6706928357204192,0.14658747640789196 l -4.190278696453074 18.41097819618603" fill="#ffe915" stroke="none" /><path d="M 104.66035177308747 79.52364482259891 l 0.8475648826884824 -3.7239763045449186 a24.819210094663394,24.819210094663394 0 0,0 0.4157528676001527,0.09839527132454029 l -0.9115414372511585 3.7088351210795096" fill="#ff1d03" stroke="none" /><path d="M 105.36241919743992 79.69619591428918 l 3.8514667798274727 -14.582863454161465 a36.082894380019795,36.082894380019795 0 0,0 0.5991514968205145,0.16377073715996074 l -4.101916165871698 14.514406176175212" fill="#ffb911" stroke="none" /><path d="M 105.71112130821622 79.79150937346287 l 3.69904163654531 -13.088856671938585 a34.6015101370196,34.6015101370196 0 0,0 0.571764880908943,0.1669138475626908 l -3.92379673517768 13.02324449545719" fill="#ffa50f" stroke="none" /><path d="M 106.0581310904928 79.89281104454417 l 3.6336730168330473 -12.060311812410799 a33.59582075951528,33.59582075951528 0 0,0 0.552274701998742,0.1715944382465059 l -3.8407330915425075 11.995977239281773" fill="#ff980e" stroke="none" /><path d="M 106.40334571778207 80.00007090966166 l 3.9319216906250882 -12.280791709072826 a33.89487701309477,33.89487701309477 0 0,0 0.5541282626940979,0.18268737599063908 l -4.142732775561604 12.21129060882295" fill="#ff9c0e" stroke="none" /><path d="M 106.74666289553966 80.11325718540242 l 4.013880620412782 -11.831480662746449 a33.493805357370846,33.493805357370846 0 0,0 0.5443827867082193,0.18992446504627938 l -4.216945411184275 11.760635344527962" fill="#ff960d" stroke="none" /><path d="M 107.08798089147638 80.2323363322302 l 3.181828428006821 -8.873798501492066 a30.427000158605875,30.427000158605875 0 0,0 0.4914941060723682,0.18102142715584085 l -3.3341048598517653 8.8177138065299" fill="#ff6d0a" stroke="none" /><path d="M 107.4271985657038 80.35727306442388 l 5.58143328254506 -14.761227791111287 a36.78119904787269,36.78119904787269 0 0,0 0.5902801566967293,0.22901953024587748 l -5.834696604241456 14.66296555697486" fill="#ffc212" stroke="none" /><path d="M 108.43124777332544 80.76684994638697 l 5.054855873607155 -11.531009896786369 a33.59030409254383,33.59030409254383 0 0,0 0.5275563302790214,0.23669914749827828 l -5.252594322352957 11.44229041877156" fill="#ff980e" stroke="none" /><path d="M 108.76106565485865 80.91482961587045 l 5.266650692675182 -11.472910920106727 a33.62399677199579,33.62399677199579 0 0,0 0.5239287793804289,0.24599158703705043 l -5.463357683355209 11.380554350429675" fill="#ff980e" stroke="none" /><path d="M 109.08828744355905 81.06846463323043 l 17.591649141051512 -36.6446296886928 a61.64843175970365,61.64843175970365 0 0,0 0.9526994023700229,0.46748545921489265 l -18.219819810431968 36.33638906934308" fill="#31ff3e" stroke="none" /><path d="M 109.41281617654863 81.2277094730956 l 2.8421315121609023 -5.668156847137911 a27.340797550480097,27.340797550480097 0 0,0 0.41888642251552444,0.21456989524937123 l -2.939278422265182 5.61839442657604" fill="#ff4106" stroke="none" /><path d="M 109.73455568895987 81.39251694778311 l 4.3423017403870965 -8.300256182570383 a30.36748830268107,30.36748830268107 0 0,0 0.4610868604668299,0.2462966324121774 l -4.484533647382238 8.224280823656452" fill="#ff6c09" stroke="none" /><path d="M 110.05341064243156 81.56283822128135 l 4.816805467188695 -8.833641120790322 a31.06155208502429,31.06155208502429 0 0,0 0.4672188599854036,0.26000678973475044 l -4.968148416246134 8.749418933495392" fill="#ff750a" stroke="none" /><path d="M 110.36928655335952 81.73862282372117 l 2.678006089699599 -4.716243401387308 a26.42352914969556,26.42352914969556 0 0,0 0.39358886942011506,0.22799207757179407 l -2.7587916915850426 4.6694471664254635" fill="#ff3405" stroke="none" /><line stroke="#e1ed5e" stroke-width="0.3" x1="143.23703022742887" x2="145.7803849466894" y1="26.81831364943548" y2="22.513508569990506" /><path d="M 143.74570117128098 25.957352633546492 a86.0,86.0 0 0,1 28.547481713284135,27.462654790039103" fill="none" id="id98" stroke="none" /><text fill="#e1ed5e" style="font-size:6.75px; font-family:Arial;" text-anchor="middle"><textPath startOffset="19.985693538727396" xlink:href="#id98">February</textPath></text><path d="M 110.68208982089419 81.91981866633111 l 15.25560576791189 -25.821175749645846 a50.991109089862704,50.991109089862704 0 0,0 0.7518467457074347,0.4529792518180736 l -15.697814579836962 25.554749888369155" fill="#92ff23" stroke="none" /><path d="M 110.99172775467656 82.1063720568725 l 3.458634426063222 -5.6303721300718035 a27.607816766242763,27.607816766242763 0 0,0 0.4027860143806048,0.25222456525347475 l -3.5550395928160903 5.570003223495385" fill="#ff4506" stroke="none" /><path d="M 111.60114157652 82.49532879139004 l 3.474259344854987 -5.242222683344762 a27.288988524165596,27.288988524165596 0 0,0 0.3893168026777983,0.2628684430408093 l -3.563980841939327 5.181642328005283" fill="#ff4106" stroke="none" /><path d="M 112.19680574252982 82.90503203632743 l 14.208595192587405 -19.91467969183981 a45.463823179858764,45.463823179858764 0 0,0 0.6331480012101373,0.46000894940075165 l -14.54928851015133 19.667151507622386" fill="#d1ff1c" stroke="none" /><path d="M 112.48926042617603 83.11751280151076 l 3.0857186954351414 -4.171152221683079 a26.188465160701153,26.188465160701153 0 0,0 0.3600961924912879,0.2712169866074564 l -3.157061041684812 4.117418645569776" fill="#ff3104" stroke="none" /><path d="M 113.06298171725822 83.55741782278167 l 15.552940039104332 -19.576732190665368 a46.00284758032589,46.00284758032589 0 0,0 0.6157735291040634,0.49791270302360296 l -15.887616966772887 19.306113390377632" fill="#cbff1d" stroke="none" /><path d="M 113.34407831869373 83.78471172551755 l 17.09071101688746 -20.76807399777252 a47.89619491005584,47.89619491005584 0 0,0 0.632098544174241,0.5293643525649524 l -17.44566709802082 20.470808487813752" fill="#b5ff20" stroke="none" /><path d="M 113.89432698308785 84.25364557470407 l 16.265127449160115 -18.43316786043897 a45.58324731007973,45.58324731007973 0 0,0 0.5838758417193376,0.5242094956618338 l -16.580014278475442 18.15045935600784" fill="#cfff1d" stroke="none" /><path d="M 114.16331599549186 84.49514656593476 l 1.2691302160231064 -1.389341168017798 a22.88174397471386,22.88174397471386 0 0,0 0.2885193052156665,0.26814725022815755 l -1.2928574050336197 1.3672893317150001" fill="#ff0100" stroke="none" /><path d="M 114.42810811169701 84.74124197986012 l 17.119524066216353 -18.105123216714787 a45.91733514937313,45.91733514937313 0 0,0 0.5696302483369612,0.5479838475827024 l -17.428637558165732 17.807756282369784" fill="#ccff1d" stroke="none" /><path d="M 114.68862486808459 84.99185889309783 l 17.600841554435675 -17.983706168652688 a46.16353136951939,46.16353136951939 0 0,0 0.5631163845106495,0.560698183797763 l -17.907793739113647 17.678072134204807" fill="#c9ff1d" stroke="none" /><path d="M 115.4437574822437 85.77008943001954 l 8.229880893332728 -7.583029534642867 a32.19076746437478,32.19076746437478 0 0,0 0.3719664018419502,0.4107345913206337 l -8.359190935790714 7.440242156052683" fill="#ff850c" stroke="none" /><path d="M 115.68641384162765 86.03803664274999 l 9.86731487147214 -8.78257389234142 a34.20975044984622,34.20975044984622 0 0,0 0.3877237596207032,0.44323528207535073 l -10.01703049467069 8.611423054063122" fill="#ffa00e" stroke="none" /><path d="M 115.9244219780498 86.31012108654704 l 5.886315768913885 -5.060337526464397 a28.762456390415863,28.762456390415863 0 0,0 0.3195226574249363,0.3782140437569739 l -5.972549039825938 4.958264533078316" fill="#ff5607" stroke="none" /><path d="M 116.38621287248628 86.86637796730983 l 21.238819733426002 -17.02300787680018 a48.21893202979439,48.21893202979439 0 0,0 0.5135222565038343,0.6521211167582411 l -21.5286960705238 16.6548943660889" fill="#b1ff20" stroke="none" /><path d="M 116.60985879189232 87.15038557335679 l 12.753071093490325 -9.86595059958666 a37.12382719918267,37.12382719918267 0 0,0 0.38666067616303385,0.5088001259755496 l -12.921007709877472 9.644965697730076" fill="#ffc612" stroke="none" /><path d="M 116.82858285166822 87.43820079747576 l 10.240134308272644 -7.643811253818618 a33.77842717768766,33.77842717768766 0 0,0 0.343795846588461,0.4689371483811174 l -10.370192767374732 7.466411661766007" fill="#ff9a0e" stroke="none" /><path d="M 117.04232023915458 87.72973835380427 l 10.222877160852219 -7.3603462310480525 a33.596900971539675,33.596900971539675 0 0,0 0.3338690117361427,0.47223403989407353 l -10.348058792392246 7.183285690822186" fill="#ff980e" stroke="none" /><path d="M 117.2510076193507 88.02491185347247 l 6.21463392794766 -4.313996650380875 a28.565199399744568,28.565199399744568 0 0,0 0.27691313005153223,0.4063358490650808 l -6.287971523667926 4.206382778045387" fill="#ff5307" stroke="none" /><path d="M 117.45458315368197 88.32363383020206 l 4.7780067844758625 -3.196281245224146 a26.7485269966374,26.7485269966374 0 0,0 0.2527141788262971,0.384901032075683 l -4.832317598660085 3.1135621491707886" fill="#ff3905" stroke="none" /><line stroke="#e1ed5e" stroke-width="0.3" x1="172.23445277983987" x2="176.4835382374775" y1="55.19839476539836" y2="52.563006222186495" /><path d="M 173.08426987136738 54.67131705675599 a86.0,86.0 0 0,1 12.851231095245387,41.99856678651699" fill="none" id="id99" stroke="none" /><text fill="#e1ed5e" style="font-size:6.75px; font-family:Arial;" text-anchor="middle"><textPath startOffset="22.20632615414155" xlink:href="#id99">March</textPath></text><path d="M 117.84615892207809 88.93136811851018 l 12.456030851716466 -7.725540313975603 a35.65730799709738,35.65730799709738 0 0,0 0.31902118325223255,0.5243869442945012 l -12.587167833254924 7.509985596474021" fill="#ffb310" stroke="none" /><path d="M 118.03404312379186 89.2402003453031 l 22.205612169511852 -13.248717246252742 a46.85764336698006,46.85764336698006 0 0,0 0.4073052130362785,0.6962166390036532 l -22.430377057018458 12.864521194895193" fill="#c1ff1e" stroke="none" /><path d="M 118.21658344932153 89.55222093294921 l 23.436193827277055 -13.44138849972385 a48.0171446661228,48.0171446661228 0 0,0 0.40504144116949825,0.7205235281019928 l -23.664092909738986 13.035981461687063" fill="#b3ff20" stroke="none" /><path d="M 118.56541770881063 90.18545643968196 l 12.531003381692337 -6.624471394777527 a35.17426072189342,35.17426072189342 0 0,0 0.2783633489307296,0.5377093888597296 l -12.643176163783183 6.407789283657453" fill="#ffad10" stroke="none" /><path d="M 119.04729006885535 91.15688171328212 l 23.43530855196146 -10.880351213298894 a46.837873934408236,46.837873934408236 0 0,0 0.33321284972206827,0.7341903453255816 l -23.619123718646872 10.47533885913125" fill="#c1ff1e" stroke="none" /><path d="M 119.196687751892 91.48605970444005 l 25.503826782785 -11.311225214648461 a48.89962358926731,48.89962358926731 0 0,0 0.33463477118922424,0.772383189235862 l -25.694752263816905 10.870542880825997" fill="#a9ff21" stroke="none" /><path d="M 119.34039704204932 91.81776055985345 l 11.602567555645036 -4.908636862746854 a33.59818596995711,33.59818596995711 0 0,0 0.22075338208659578,0.5345718247238915 l -11.68534262461783 4.708190467569659" fill="#ff980e" stroke="none" /><path d="M 119.47837535516314 92.15188598940014 l 11.418669629059796 -4.600744131079748 a33.31068083646381,33.31068083646381 0 0,0 0.20970889830535952,0.5336862721441511 l -11.496172077246856 4.403508854039813" fill="#ff940d" stroke="none" /><path d="M 119.85752413597 93.16781622104841 l 12.040451542212574 -4.142640197976473 a33.733182679529094,33.733182679529094 0 0,0 0.18418752455838375,0.5506972545989381 l -12.109976360542728 3.9347698404552203" fill="#ff9a0e" stroke="none" /><path d="M 119.97218684219823 93.5106431181261 l 12.137773082282278 -3.9438015428391053 a33.76240988239589,33.76240988239589 0 0,0 0.17483223473717507,0.554265961333286 l -12.203860800787659 3.7342854150794005" fill="#ff9a0e" stroke="none" /><path d="M 120.08093135843002 93.85539295169968 l 24.39076397552019 -7.463381929966826 a46.50708601824381,46.50708601824381 0 0,0 0.22765019929496505,0.7675233010464115 l -24.515620071926858 7.042429242173885" fill="#c5ff1e" stroke="none" /><path d="M 120.53481517161879 95.60439243477599 l 24.585743470641496 -5.2627344874071 a46.14269588347946,46.14269588347946 0 0,0 0.15956738397325965,0.7781072334565906 l -24.672690150529753 4.838751597787097" fill="#c9ff1d" stroke="none" /><path d="M 120.6074358757038 95.95851677861258 l 24.938712458201426 -4.890923284718677 a46.41378581891833,46.41378581891833 0 0,0 0.14700854115943768,0.7853255052104238 l -25.01920672327072 4.4609197020456905" fill="#c6ff1e" stroke="none" /><path d="M 120.67395015179393 96.31383870115 l 24.836103818619442 -4.428272489690194 a46.22779518967502,46.22779518967502 0 0,0 0.13293383321566016,0.7845830085916631 l -24.908649513355325 4.000103692782693" fill="#c8ff1d" stroke="none" /><path d="M 120.73433829027371 96.67025291283417 l 25.071116952716196 -4.0261944932412215 a46.39234426661271,46.39234426661271 0 0,0 0.11983386980946785,0.7895554770999753 l -25.136706715964962 3.5940399037491635" fill="#c6ff1e" stroke="none" /><path d="M 120.78858239683441 97.02765380044208 l 23.78688847042174 -3.401043235883765 a45.0287985175421,45.0287985175421 0 0,0 0.10310308525438089,0.7682377422714841 l -23.841907554733957 2.9910871515476165" fill="#d6ff1c" stroke="none" /><path d="M 120.83666639777658 97.38593545837742 l 6.417919123993909 -0.8051602157830832 a27.468227644046443,27.468227644046443 0 0,0 0.05481827257995462,0.4696494825101549 l -6.430827749577452 0.6945669949480755" fill="#ff4306" stroke="none" /><path d="M 120.94382443527127 98.46500227214037 l 38.0109104216421 -2.785864697797777 a59.11286335604472,59.11286335604472 0 0,0 0.0656417636904622,1.0154490305591446 l -38.05323277633698 2.1311566029855973" fill="#3cff2e" stroke="none" /><path d="M 120.98425023603335 99.18683210126433 l 12.73630808753792 -0.4935490555392386 a33.745867344786994,33.745867344786994 0 0,0 0.01749691973853859,0.5806375844146392 l -12.742916701732103 0.2742413236996004" fill="#ff9a0e" stroke="none" /><line stroke="#e1ed5e" stroke-width="0.3" x1="184.98032266829074" x2="189.97916517819016" y1="98.17113171792111" y2="98.06355123074" /><path d="M 185.9800911702706 98.14961562048488 a86.0,86.0 0 0,1 -9.607161424134198,41.387399972396054" fill="none" id="id100" stroke="none" /><text fill="#e1ed5e" style="font-size:6.75px; font-family:Arial;" text-anchor="middle"><textPath startOffset="21.466115282336823" xlink:href="#id100">April</textPath></text><path d="M 120.99513854157772 99.54816195383933 l 18.65240899708483 -0.40141997733153034 a39.65672799267685,39.65672799267685 0 0,0 0.008813222251262538,0.6825937758719699 l -18.656555226453808 0.08028994339909766" fill="#ffe615" stroke="none" /><path d="M 120.99824983174949 100.27111621757518 l 37.8585938817343 0.4888063937791376 a58.86174933085751,58.86174933085751 0 0,0 -0.02180109507362924,1.0130112223133951 l -37.844570723975664 -1.1404074318826476" fill="#3fff2d" stroke="none" /><path d="M 120.9764740272857 100.99374915477107 l 7.927260910734428 0.3755497143821643 a28.936151657751417,28.936151657751417 0 0,0 -0.027852629346429736,0.49732740731857683 l -7.919621930500469 -0.5119488380361644" fill="#ff5808" stroke="none" /><path d="M 120.95626037817324 101.35467743843564 l 12.649311044892329 0.8176905600064952 a33.67571251497756,33.67571251497756 0 0,0 -0.04237277209886377,0.5781428099648248 l -12.633361714129126 -1.0353065064680902" fill="#ff990e" stroke="none" /><path d="M 120.92983693683757 101.71520430193887 l 12.162127122733065 0.996688737929132 a33.20289820451822,33.20289820451822 0 0,0 -0.05158371231874178,0.5692219670358957 l -12.143168814137248 -1.2058920935135982" fill="#ff930d" stroke="none" /><path d="M 120.89721153311464 102.0752229133903 l 8.52362561303745 0.8464489699645285 a29.565551322009696,29.565551322009696 0 0,0 -0.05465079319871187,0.5059984709825834 l -8.507792518337686 -0.9930437628319033" fill="#ff6108" stroke="none" /><path d="M 120.70491114924044 103.5080841355445 l 4.209742759280705 0.7132670931117586 a25.269740512657933,25.269740512657933 0 0,0 -0.07635499698541329,0.4282393724901004 l -4.196841319956103 -0.7856252163350774" fill="#ff2403" stroke="none" /><path d="M 120.64145759157962 103.86396538481128 l 3.967735136554642 0.7427378205113154 a25.036654751631378,25.036654751631378 0 0,0 -0.08294294043505487,0.42292426634668295 l -3.954362263143923 -0.8109258139259433" fill="#ff2003" stroke="none" /><path d="M 120.32669344350535 105.2749913415812 l 1.8444909665378595 0.47866486033028266 a22.90558835380435,22.90558835380435 0 0,0 -0.10232463361875098,0.3807880273934127 l -1.8359782565773313 -0.5103438208992436" fill="#ff0100" stroke="none" /><path d="M 120.13307415673323 105.97154293290107 l 6.051860253252335 1.7950037358863915 a27.312452054213285,27.312452054213285 0 0,0 -0.1375679145021736,0.44957990421936633 l -6.020065566244029 -1.898910612657815" fill="#ff4106" stroke="none" /><path d="M 120.02730092923936 106.31721596034902 l 8.236612257050938 2.598076425439958 a29.636653436686494,29.636653436686494 0 0,0 -0.15764970680113602,0.48519590726236533 l -8.190670299233556 -2.7394712326801187" fill="#ff6209" stroke="none" /><path d="M 119.9155931802556 106.66101706037122 l 12.666613460367794 4.236505917397675 a34.35631232573258,34.35631232573258 0 0,0 -0.1924103497373451,0.5592345416249962 l -12.591812279687218 -4.453913162111972" fill="#ffa20f" stroke="none" /><path d="M 119.79798401119884 107.00284435728193 l 12.143760468038652 4.2954305055345 a33.88105746951603,33.88105746951603 0 0,0 -0.1992137432844226,0.5481506626204737 l -12.068022463749003 -4.503828965161105" fill="#ff9c0e" stroke="none" /><path d="M 119.54520255179757 107.68017299344265 l 17.04722518460424 6.698607401430672 a39.31609203987321,39.31609203987321 0 0,0 -0.2529286310572673,0.6277481197580769 l -16.92939393928958 -6.991054889031562" fill="#ffe215" stroke="none" /><path d="M 119.41010516605496 108.01547362559984 l 10.97829026709598 4.533524951939873 a32.87752944338492,32.87752944338492 0 0,0 -0.22051275061532094,0.5212270040411239 l -10.89862653528835 -4.7218264816471605" fill="#ff8e0d" stroke="none" /><path d="M 118.81262510543309 109.33194174019688 l 17.21378669745993 8.538843127346421 a40.21526201796581,40.21526201796581 0 0,0 -0.3129538863747478,0.6174877077602706 l -17.064254141298914 -8.833885046809387" fill="#ffed16" stroke="none" /><path d="M 118.64920377521936 109.65438752849418 l 51.39530724205915 26.606509277365987 a78.87386234244454,78.87386234244454 0 0,0 -0.6345495813986222,1.2003286717527837 l -50.92970515243563 -27.487252964204906" fill="#47fffb" stroke="none" /><line stroke="#e1ed5e" stroke-width="0.3" x1="174.80103733775053" x2="179.2010983576182" y1="140.37084112569926" y2="142.7455964860345" /><path d="M 175.68104954172406 140.8457921977663 a86.0,86.0 0 0,1 -30.038265399797805,32.042727171017184" fill="none" id="id101" stroke="none" /><text fill="#e1ed5e" style="font-size:6.75px; font-family:Arial;" text-anchor="middle"><textPath startOffset="22.206326154141568" xlink:href="#id101">May</textPath></text><path d="M 118.48025628344425 109.97397251340804 l 17.122839035060444 9.24136133545945 a40.45750179116308,40.45750179116308 0 0,0 -0.3360353679541261,0.610001800907421 l -16.96122725765481 -9.534733654764677" fill="#fff016" stroke="none" /><path d="M 118.30583269289576 110.29060199501025 l 17.34812757970531 9.75222920892803 a40.901344302966095,40.901344302966095 0 0,0 -0.35028691083679503,0.6107547548155349 l -17.177688672716137 -10.04940380960188" fill="#fff617" stroke="none" /><path d="M 118.12598468904814 110.60418214915192 l 16.025615543804452 9.375410450471199 a39.566601053306215,39.566601053306215 0 0,0 -0.34897577136623703,0.5849034658586785 l -15.861858896739989 -9.649876010215982" fill="#ffe515" stroke="none" /><path d="M 117.94076556474637 110.91462005526583 l 32.371970351521824 19.694129303014826 a58.891993790821765,58.891993790821765 0 0,0 -0.5343336789336341,0.8615160259882847 l -32.028172032920224 -20.248441660368385" fill="#3fff2d" stroke="none" /><path d="M 117.75023020441432 111.22182372390056 l 10.619639914377677 6.7138130468193955 a33.56391808070579,33.56391808070579 0 0,0 -0.31293580601015625,0.48568332032058537 l -10.50249924499047 -6.895617967061434" fill="#ff970e" stroke="none" /><path d="M 117.55443506779139 111.5257021239791 l 5.5419301411360005 3.638660871282109 a27.62969400692303,27.62969400692303 0 0,0 -0.2644515568496924,0.39531919623187706 l -5.478475478875588 -3.733516981719793" fill="#ff4606" stroke="none" /><path d="M 117.14729908036423 112.12312394758627 l 12.492353955394815 8.832082224062658 a36.29916938135767,36.29916938135767 0 0,0 -0.3651008615868347,0.5070931641203615 l -12.338473301432376 -9.045808993634152" fill="#ffbb11" stroke="none" /><path d="M 116.71984013943494 112.70617746262583 l 9.97834571468723 7.583005003451712 a33.53273107044872,33.53273107044872 0 0,0 -0.35320054823062474,0.4565593205011216 l -9.846338349238536 -7.7536423180660865" fill="#ff970d" stroke="none" /><path d="M 116.498646956653 112.99209946851258 l 10.54499022701352 8.303805898980546 a34.42199729160138,34.42199729160138 0 0,0 -0.3705808104251144,0.4623565404097906 l -10.400491504533552 -8.484090272968587" fill="#ffa30f" stroke="none" /><path d="M 116.27256486870786 113.27417163493432 l 9.846965153103538 8.03255704187541 a33.707662859763694,33.707662859763694 0 0,0 -0.3706301994552038,0.44644795111654867 l -9.70723895375479 -8.20086625010573" fill="#ff990e" stroke="none" /><path d="M 116.0416608686014 113.55231037782055 l 4.790675301985341 4.047256649025834 a27.27143175296807,27.27143175296807 0 0,0 -0.3060341508245825,0.3559868562924773 l -4.72029864158998 -4.129120604479839" fill="#ff4006" stroke="none" /><path d="M 115.80600337817218 113.82643327865902 l 10.018926469955995 8.764139488413589 a34.311236929104496,34.311236929104496 0 0,0 -0.3926858168347329,0.44118667804758493 l -9.866581803472924 -8.93530033620204" fill="#ffa10e" stroke="none" /><path d="M 115.56566222782051 114.09645910891815 l 9.21867822904255 8.348550726079061 a33.437135020435306,33.437135020435306 0 0,0 -0.3900260156946508,0.4232962089629081 l -9.073605805352178 -8.505998189843304" fill="#ff960d" stroke="none" /><path d="M 115.07121518719521 114.62390073753431 l 9.883363102405697 9.590024372114893 a34.771326503708785,34.771326503708785 0 0,0 -0.4205002068986558,0.42596448952291166 l -9.716822270451505 -9.75872935561847" fill="#ffa70f" stroke="none" /><path d="M 114.55890576462653 115.13401014063108 l 15.840232252561469 16.465951453760663 a43.84820594910444,43.84820594910444 0 0,0 -0.5484453537657877,0.5185893142185225 l -15.554451064404873 -16.736175404725106" fill="#e4ff1a" stroke="none" /><path d="M 114.29624159901734 115.38237550388516 l 8.746539204757498 9.411043418312179 a33.84794482715881,33.84794482715881 0 0,0 -0.430191986856639,0.39297018023997954 l -8.583247668433994 -9.560206365138741" fill="#ff9b0e" stroke="none" /><path d="M 114.0293411484842 115.62618273729858 l 8.333246979532959 9.281750206159373 a33.47372807589755,33.47372807589755 0 0,0 -0.4320623796046421,0.38124481496961443 l -8.17224224702173 -9.423818162901275" fill="#ff960d" stroke="none" /><path d="M 113.48314897796784 116.09983520530334 l 5.250475620391364 6.269439904275558 a29.177614013491148,29.177614013491148 0 0,0 -0.3878258880456382,0.31915430280952906 l -5.141779603801035 -6.358889325942266" fill="#ff5b08" stroke="none" /><path d="M 113.20401910651253 116.32954008644616 l 9.889062094059316 12.229900197785176 a36.72781001754366,36.72781001754366 0 0,0 -0.4950253063983975,0.3932780421813509 l -9.677079294943567 -12.398312153971652" fill="#ffc111" stroke="none" /><path d="M 112.92097659922987 116.55440617244103 l 7.920374268236381 10.147614746237554 a33.872700322271115,33.872700322271115 0 0,0 -0.46271926718136946,0.35479340271290294 l -7.744526272561518 -10.282447490777828" fill="#ff9b0e" stroke="none" /><path d="M 112.04921762599082 117.19931262002967 l 13.238084565367405 18.896326881756423 a44.07201882328482,44.07201882328482 0 0,0 -0.625073685108861,0.42993138034404005 l -12.91085399563566 -19.121399051465556" fill="#e1ff1b" stroke="none" /><line stroke="#e1ed5e" stroke-width="0.3" x1="143.8653032363475" x2="146.44561519142675" y1="172.8068346515853" y2="177.08958963109032" /><path d="M 144.38136562736335 173.6633856474863 a86.0,86.0 0 0,1 -40.68145358897372,12.25698825130547" fill="none" id="id102" stroke="none" /><text fill="#e1ed5e" style="font-size:6.75px; font-family:Arial;" text-anchor="middle"><textPath startOffset="21.466115282336833" xlink:href="#id102">June</textPath></text><path d="M 110.8373102113329 117.98757091392108 l 3.761409979511045 6.243120056859923 a28.288672929850257,28.288672929850257 0 0,0 -0.41925447151138434,0.2477029317264774 l -3.6533876369712788 -6.3069415608801505" fill="#ff4f07" stroke="none" /><path d="M 110.21172684928248 118.3499491758327 l 9.015230394413523 16.199906439676646 a39.539453813924354,39.539453813924354 0 0,0 -0.5975676510339403,0.32584152889582885 l -8.735039931510935 -16.352688620332245" fill="#ffe515" stroke="none" /><path d="M 109.89434966115114 118.52300852407294 l 6.0456836303560895 11.31799999535345 a33.831500865182385,33.831500865182385 0 0,0 -0.5160255956333644,0.26996020275956806 l -5.849967132196229 -11.420389617057735" fill="#ff9b0e" stroke="none" /><path d="M 109.57404056367764 118.69057910512821 l 7.161749164183689 13.981269286877042 a36.70880460005971,36.70880460005971 0 0,0 -0.564871750483162,0.28323842223743895 l -6.920023506017767 -14.102475550023783" fill="#ffc111" stroke="none" /><path d="M 109.2508944713604 118.85261126421891 l 2.8586409467877587 5.8256903352009655 a27.489260045976394,27.489260045976394 0 0,0 -0.4265905530967165,0.20478938935164354 l -2.7579377256908093 -5.874034001052169" fill="#ff4406" stroke="none" /><path d="M 108.2653958097858 119.30500536409082 l 23.603810464401974 55.13005040711679 a80.97051213997301,80.97051213997301 0 0,0 -1.2859988922756336,0.5375476412688132 l -22.65134011262888 -55.52818309140557" fill="#49eeff" stroke="none" /><path d="M 107.59598834532513 119.57807347666477 l 22.787965035975386 58.73422042999433 a84.0,84.0 0 0,0 -1.3525191169589008,0.5114069995734765 l -21.77357569825621 -59.11777567967444" fill="#4dd2ff" stroke="none" /><path d="M 106.57524785965236 119.94407469862006 l 2.0979220199759467 6.3634275652222065 a27.700334855791148,27.700334855791148 0 0,0 -0.454125429746777,0.14539662179651264 l -1.9880752451382295 -6.398597033678426" fill="#ff4706" stroke="none" /><path d="M 106.2309692047433 120.05430185196036 l 11.521160942747164 37.08072237862812 a59.82933326223327,59.82933326223327 0 0,0 -0.9861156906958829,0.29710856837631106 l -10.881170277611034 -37.273546316110156" fill="#35ff2f" stroke="none" /><path d="M 105.18746579009965 120.34920634021253 l 3.116940401994791 12.22702297360471 a33.61805881531089,33.61805881531089 0 0,0 -0.5619766247821154,0.13812018154809316 l -2.9060104924694645 -12.278864413466833" fill="#ff980e" stroke="none" /><path d="M 104.83641907484287 120.43548508189849 l 8.357801771953515 35.31450248317657 a57.29003907539303,57.29003907539303 0 0,0 -0.9615992578367443,0.21885686038524407 l -7.7486823647239085 -35.45313607713949" fill="#4fff2b" stroke="none" /><path d="M 104.48393922423573 120.51570834832081 l 1.4622789842385724 6.6904763120714925 a27.848410991619556,27.848410991619556 0 0,0 -0.4691907425932838,0.09832348196656394 l -1.3468967802159106 -6.714655774764598" fill="#ff4906" stroke="none" /><path d="M 104.13013068566511 120.58985236759428 l 5.070137005335336 25.27604581270528 a46.77954191173394,46.77954191173394 0 0,0 -0.7908691597221826,0.1515719567452207 l -4.634300231041449 -25.35957496779897" fill="#c1ff1e" stroke="none" /><path d="M 103.7750983002368 120.6578951692458 l 2.4415480257870765 13.360511212178125 a34.58176780146687,34.58176780146687 0 0,0 -0.5864920081336747,0.10196915331063464 l -2.211207046181352 -13.400558944009765" fill="#ffa50f" stroke="none" /><path d="M 103.41894727170886 120.7198165907248 l 0.9105368590822606 5.5181186546493235 a26.592737331444795,26.592737331444795 0 0,0 -0.452284383965287,0.07063751907722858 l -0.8154166115084565 -5.532974481073658" fill="#ff3705" stroke="none" /><path d="M 103.06178313531738 120.77559828337769 l 1.2224208802498395 8.294684508624112 a29.384277184473305,29.384277184473305 0 0,0 -0.501031882304811,0.06943845347453774 l -1.079460406758198 -8.314497527591252" fill="#ff5e08" stroke="none" /><path d="M 102.70371172650421 120.8252237178851 l 0.8562394443685429 6.595147629924214 a27.65049759390886,27.65049759390886 0 0,0 -0.47252406311608003,0.057216083496393615 l -0.7425879582010826 -6.608909242145959" fill="#ff4606" stroke="none" /><path d="M 102.34483914955558 120.86867818915974 l 0.9823129052488406 8.742421374439203 a29.797435429264024,29.797435429264024 0 0,0 -0.5101993564339373,0.05288424937368713 l -0.8316809522093006 -8.75803499226865" fill="#ff6409" stroke="none" /><path d="M 101.98527174616119 120.90594882070398 l 1.3068224182008654 13.761522897549803 a34.82343290548697,34.82343290548697 0 0,0 -0.5972312969836813,0.05153162932199068 l -1.0697468034756425 -13.781978779150457" fill="#ffa80f" stroke="none" /><path d="M 101.62511606390274 120.93702456842531 l 0.7579377719666122 9.764817483185192 a30.79418859049043,30.79418859049043 0 0,0 -0.5288348170155919,0.036471545215391435 l -0.5897401941720899 -9.776417372916868" fill="#ff720a" stroke="none" /><path d="M 101.26447882468166 120.96189622390904 l 2.4628491850535634 40.82787945873966 a61.90209489996441,61.90209489996441 0 0,0 -1.0641616594803927,0.05500500250751679 l -1.7596994571596913 -40.86422426800938" fill="#31ff41" stroke="none" /><path d="M 100.90346689309514 120.98055641714683 l 0.3041693725207588 7.06350473859355 a28.07005079184819,28.07005079184819 0 0,0 -0.48291133707397915,0.01663244286632156 l -0.18253768377212737 -7.0676939798859655" fill="#ff4c07" stroke="none" /><line stroke="#e1ed5e" stroke-width="0.3" x1="102.19456741930631" x2="102.32365962044197" y1="184.97166512339345" y2="189.96999836594603" /><path d="M 102.22038585953345 185.97133177190398 a86.0,86.0 0 0,1 -42.740103519485714,-10.115201625700543" fill="none" id="id103" stroke="none" /><text fill="#e1ed5e" style="font-size:6.75px; font-family:Arial;" text-anchor="middle"><textPath startOffset="22.20632615414155" xlink:href="#id103">July</textPath></text><path d="M 100.54218724476979 120.99299961872073 l 0.7303101109429817 28.27694680844699 a49.28637611405685,49.28637611405685 0 0,0 -0.8482896698443482,0.01460407596179054 l -0.2434607512059656 -28.28532836168794" fill="#a5ff21" stroke="none" /><path d="M 100.18074693466247 120.99922214144158 l 0.3514467874302543 40.83117190300324 a61.83268438171799,61.83268438171799 0 0,0 -1.0643874441853916,0.0 l 0.35144678743022617 -40.83117190300324" fill="#31ff40" stroke="none" /><path d="M 99.45781275523022 120.99299961872073 l -0.31996783500222714 12.388865107029245 a33.39299633081535,33.39299633081535 0 0,0 -0.5744861890917574,-0.01978646592862124 l 0.5331743757686276 -12.381521842674529" fill="#ff950d" stroke="none" /><path d="M 99.09653310690486 120.98055641714683 l -0.8733995326715297 20.282323912443687 a41.30112041324212,41.30112041324212 0 0,0 -0.7100093931938867,-0.03669937561184123 l 1.2223969942789052 -20.264284730069644" fill="#fffb17" stroke="none" /><path d="M 98.73552117531835 120.96189622390904 l -0.7428159282029233 12.314030173163662 a33.336414171418575,33.336414171418575 0 0,0 -0.5724929701100261,-0.039482467063521515 l 0.9546716590918793 -12.299419361583855" fill="#ff940d" stroke="none" /><path d="M 98.37488393609728 120.93702456842531 l -0.9517455292941172 12.26172085325761 a33.29860227163005,33.29860227163005 0 0,0 -0.5710800390186653,-0.04927518874601433 l 1.162669886054324 -12.243521412232933" fill="#ff940d" stroke="none" /><path d="M 97.65516085044442 120.86867818915974 l -2.913626763109257 25.93079328881656 a47.09396983025083,47.09396983025083 0 0,0 -0.8047968719867733,-0.09744969329513974 l 3.3595510581474195 -25.87679806679607" fill="#beff1f" stroke="none" /><path d="M 97.2962882734958 120.8252237178851 l -1.2056217547524821 9.2862499044351 a30.364185020766804,30.364185020766804 0 0,0 -0.5177403098976043,-0.07175408929135668 l 1.3652906558369176 -9.26412124965114" fill="#ff6c09" stroke="none" /><path d="M 96.93821686468263 120.77559828337769 l -1.228449647689529 8.33559245178516 a29.425626983148867,29.425626983148867 0 0,0 -0.5004656499625848,-0.07816244192822483 l 1.371751161260631 -8.31321170250983" fill="#ff5f08" stroke="none" /><path d="M 96.58105272829116 120.7198165907248 l -2.0185910748106246 12.2332500380579 a33.39867397833126,33.39867397833126 0 0,0 -0.5664272423263028,-0.09848063658341683 l 2.2288672886089778 -12.196690822953478" fill="#ff950d" stroke="none" /><path d="M 96.22490169976321 120.6578951692458 l -2.256872866292729 12.349941478150672 a33.554462539207115,33.554462539207115 0 0,0 -0.5672819465266381,-0.10872093519423934 l 2.469122427391062 -12.309263344607965" fill="#ff970d" stroke="none" /><path d="M 95.86986931433489 120.58985236759428 l -2.419155233197222 12.060162957725556 a33.300400099557784,33.300400099557784 0 0,0 -0.5610459949067258,-0.1175726431807382 l 2.6263926895333345 -12.016734333818277" fill="#ff940d" stroke="none" /><path d="M 94.81253420990036 120.34920634021253 l -1.5557305621707036 6.102764529031893 a27.29793874842252,27.29793874842252 0 0,0 -0.4543281182914402,-0.11999218536477896 l 1.660549123273633 -6.075080994363532" fill="#ff4106" stroke="none" /><path d="M 94.46302465271185 120.25689768951611 l -3.2442425835621806 11.868987303217345 a33.30438822310694,33.30438822310694 0 0,0 -0.5516932680077459,-0.15591402825409437 l 3.44806701967454 -11.81138448162473" fill="#ff940d" stroke="none" /><path d="M 94.11515582081647 120.15858648285463 l -5.052892286779478 17.30872781846964 a39.03118906660513,39.03118906660513 0 0,0 -0.6433176815860142,-0.193826340246455 l 5.350084942805738 -17.21918610911746" fill="#ffdf14" stroke="none" /><path d="M 93.76903079525671 120.05430185196036 l -3.6619172969526543 11.785838192571973 a33.341621457134764,33.341621457134764 0 0,0 -0.5466099327499713,-0.175007239093791 l 3.864248574793566 -11.721058106818475" fill="#ff940d" stroke="none" /><path d="M 93.42475214034765 119.94407469862007 l -1.363487039308769 4.135735708069899 a25.35469938725596,25.35469938725596 0 0,0 -0.41331814345408047,-0.14021995499675702 l 1.4344749157000753 -4.111652766175019" fill="#ff2503" stroke="none" /><path d="M 93.08242187328487 119.8279376855182 l -4.061976984049382 11.642893660817347 a33.331124434375305,33.331124434375305 0 0,0 -0.5400918889159277,-0.1936577358162513 l 4.2617884335950365 -11.571248383961137" fill="#ff940d" stroke="none" /><path d="M 92.7421414339146 119.70592522655815 l -2.591860239293364 7.037200244141982 a28.499328421677625,28.499328421677625 0 0,0 -0.4588796013191452,-0.17350900045224987 l 2.712610061372792 -6.991542993583098" fill="#ff5207" stroke="none" /><path d="M 91.07499286063937 119.00905698771935 l -5.296503191379575 11.280834785728176 a33.46235048131727,33.46235048131727 0 0,0 -0.5192836247998716,-0.24928769671785228 l 5.489899484179689 -11.18799281251076" fill="#ff960d" stroke="none" /><line stroke="#e1ed5e" stroke-width="0.3" x1="58.666819895761336" x2="56.23545636021788" y1="174.27360380694188" y2="178.64263932499728" /><path d="M 58.180547188652646 175.14741091055294 a86.0,86.0 0 0,1 -31.652253787137756,-30.449443065178592" fill="none" id="id104" stroke="none" /><text fill="#e1ed5e" style="font-size:6.75px; font-family:Arial;" text-anchor="middle"><textPath startOffset="22.20632615414155" xlink:href="#id104">August</textPath></text><path d="M 89.7882731507175 118.34994917583269 l -5.854497036686759 10.520230775739314 a33.0395345062584,33.0395345062584 0 0,0 -0.4945723053519833,-0.28083106252314777 l 6.03471810895995 -10.417896547421533" fill="#ff900d" stroke="none" /><path d="M 89.1626897886671 117.98757091392108 l -6.438790452569375 10.686987601808704 a33.47676746971392,33.47676746971392 0 0,0 -0.4910257476048258,-0.30162811897973557 l 6.621795400106509 -10.57457101600059" fill="#ff960d" stroke="none" /><path d="M 88.54995079064634 117.60387380957326 l -3.3814599538324703 5.198824322149124 a27.20177762838543,27.20177762838543 0 0,0 -0.3903135161277051,-0.2586785153439273 l 3.470448168700137 -5.139847785713879" fill="#ff3f06" stroke="none" /><path d="M 87.95078237400918 117.19931262002967 l -4.221068585924401 6.025244165504933 a28.356696762884077,28.356696762884077 0 0,0 -0.39736194903774835,-0.2835072000243316 l 4.324157862811037 -5.9516927036363825" fill="#ff5007" stroke="none" /><path d="M 87.36589467227662 116.77436683061367 l -8.040275312395128 10.675115016913196 a34.36428478158993,34.36428478158993 0 0,0 -0.4694345747479346,-0.35994241419953926 l 8.22283861563655 -10.53513326088629" fill="#ffa20f" stroke="none" /><path d="M 87.07902340077011 116.55440617244103 l -6.947834372084233 8.9015927961037 a32.292066098352436,32.292066098352436 0 0,0 -0.4352393978006892,-0.34578050058210114 l 7.100031262602281 -8.780678381516468" fill="#ff860c" stroke="none" /><path d="M 86.79598089348748 116.32954008644616 l -1.1512478409479514 1.4237595096270272 a22.830973165434358,22.830973165434358 0 0,0 -0.3034669811841596,-0.24973266558766646 l 1.1755849506768 -1.40373172518218" fill="#ff0000" stroke="none" /><path d="M 86.51685102203217 116.09983520530335 l -7.96455476596854 9.510242705560701 a33.404791370223954,33.404791370223954 0 0,0 -0.43765768350902,-0.37298137266706427 l 8.127077926054616 -9.371736942670685" fill="#ff950d" stroke="none" /><path d="M 85.18274418774928 114.88116024355367 l -8.693801636809699 8.73129659920358 a33.32143365049129,33.32143365049129 0 0,0 -0.40296621248248987,-0.40820264575149745 l 8.842808474347722 -8.580353459471418" fill="#ff940d" stroke="none" /><path d="M 84.67929136418377 114.36230785411682 l -5.702820338687247 5.346075255910079 a28.816820354671005,28.816820354671005 0 0,0 -0.3361325550484978,-0.36480550151925584 l 5.793999301731474 -5.247118499589479" fill="#ff5608" stroke="none" /><path d="M 84.43433777217949 114.09645910891817 l -2.4570696112675896 2.2251530835028754 a24.314890242472142,24.314890242472142 0 0,0 -0.2782794615023881,-0.31264992501825245 l 2.4950079224183157 -2.182528988743759" fill="#ff1602" stroke="none" /><path d="M 84.19399662182784 113.82643327865904 l -6.429646429372152 5.624386837968826 a29.542486787221566,29.542486787221566 0 0,0 -0.3315194427292886,-0.3856320083854923 l 6.525508381672219 -5.5128777304218035" fill="#ff6008" stroke="none" /><path d="M 83.72743513129214 113.27417163493432 l -9.658546802373662 7.878856777231255 a33.46450602510045,33.46450602510045 0 0,0 -0.3602726378193998,-0.4494955101301651 l 9.792737352247922 -7.7114334335228305" fill="#ff960d" stroke="none" /><path d="M 83.50135304334701 112.99209946851258 l -5.475320657362204 4.311620873478129 a27.96916141709672,27.96916141709672 0 0,0 -0.29459942064710587,-0.3808094635879293 l 5.548726895227378 -4.216733415776948" fill="#ff4a06" stroke="none" /><path d="M 83.28015986056508 112.70617746262583 l -11.02317194605226 8.377016632906173 a34.84502536726532,34.84502536726532 0 0,0 -0.3588021022569087,-0.4806740505746766 l 11.165735315004254 -8.18602970282219" fill="#ffa80f" stroke="none" /><path d="M 83.06392112726016 112.41649034213515 l -10.778337823390833 7.9020137125018 a34.36466935422287,34.36466935422287 0 0,0 -0.34564345694964543,-0.480068530872006 l 10.912761072716087 -7.715311576178656" fill="#ffa20f" stroke="none" /><path d="M 82.44556493220864 111.52570212397912 l -6.657079570192144 4.370833686493287 a28.963723721906362,28.963723721906362 0 0,0 -0.27004553539238857,-0.4191166678538143 l 6.731329968961578 -4.255595418718025" fill="#ff5808" stroke="none" /><path d="M 82.05923443525364 110.91462005526583 l -10.806610137735545 6.574415306476077 a33.649338294592155,33.649338294592155 0 0,0 -0.2967857605837291,-0.49743000582338504 l 10.918176774017507 -6.38742320676658" fill="#ff980e" stroke="none" /><line stroke="#e1ed5e" stroke-width="0.3" x1="26.63291911575756" x2="22.317208475507996" y1="142.92168965132927" y2="145.44649492493687" /><path d="M 25.769776987707644 143.4266507060508 a86.0,86.0 0 0,1 -11.730757126820373,-40.83630448921669" fill="none" id="id105" stroke="none" /><text fill="#e1ed5e" style="font-size:6.75px; font-family:Arial;" text-anchor="middle"><textPath startOffset="21.46611528233685" xlink:href="#id105">September</textPath></text><path d="M 81.87401531095188 110.60418214915194 l -10.772714347833812 6.302323826535863 a33.48081167370721,33.48081167370721 0 0,0 -0.28673605460544893,-0.4999484802585763 l 10.879602398591638 -6.1159555004189805" fill="#ff960d" stroke="none" /><path d="M 81.69416730710424 110.29060199501025 l -11.143643108758337 6.264385670430303 a33.7837126674245,33.7837126674245 0 0,0 -0.28060364121478404,-0.5093771156420731 l 11.249823159424636 -6.071638036390407" fill="#ff9a0e" stroke="none" /><path d="M 81.18737489456691 109.33194174019688 l -8.384838909567545 4.159272178470329 a30.359757934583307,30.359757934583307 0 0,0 -0.22819947237806767,-0.47015850354986033 l 8.455191638560331 -4.014324718955184" fill="#ff6c09" stroke="none" /><path d="M 81.02952815118164 109.00673069616217 l -16.922599804479358 8.034449555737638 a39.73303936381541,39.73303936381541 0 0,0 -0.28801795910833566,-0.6203650606388338 l 17.05839238042752 -7.741964427819977" fill="#ffe715" stroke="none" /><path d="M 80.87730276802145 108.67885076344099 l -4.460940557401239 2.0246012836266023 a25.898877525957325,25.898877525957325 0 0,0 -0.18074816175627328,-0.4075393886392634 l 4.4951298038887915 -1.947513558494643" fill="#ff2d04" stroke="none" /><path d="M 80.73074385275274 108.34839909993369 l -11.746474018132483 5.089156134051433 a33.8015296748246,33.8015296748246 0 0,0 -0.2267101089951513,-0.5358757285809709 l 11.832335108319942 -4.8862058798043035" fill="#ff9b0e" stroke="none" /><path d="M 80.58989483394504 108.01547362559985 l -5.643180383431862 2.3303718934508977 a27.105417103010744,27.105417103010744 0 0,0 -0.174374809051421,-0.4327839756916161 l 5.682457806740671 -2.232888549916476" fill="#ff3e05" stroke="none" /><path d="M 80.45479744820244 107.68017299344265 l -1.8852979216766326 0.7408167883797535 a23.025625278135994,23.025625278135994 0 0,0 -0.14177833639996582,-0.3701384977537822 l 1.8977705376701075 -0.7082547237928134" fill="#ff0300" stroke="none" /><path d="M 80.32549172779594 107.34259656027581 l -11.750134850250472 4.385192175609115 a33.541753442644854,33.541753442644854 0 0,0 -0.19721870445291104,-0.5426611725912497 l 11.823877815708606 -4.182283206011748" fill="#ff970d" stroke="none" /><path d="M 80.20201598880116 107.00284435728193 l -19.002135104953428 6.7213406436110255 a41.1558318755233,41.1558318755233 0 0,0 -0.2304906280343089,-0.6699136553391182 l 19.11501656393097 -6.393254285182611" fill="#fff917" stroke="none" /><path d="M 80.0844068197444 106.66101706037122 l -11.858831792732902 3.9663333234673317 a33.50454683389926,33.50454683389926 0 0,0 -0.17822464321597797,-0.548519050344751 l 11.92534868696513 -3.7616153731447777" fill="#ff970d" stroke="none" /><path d="M 79.86692584326677 105.97154293290107 l -5.88374117307245 1.7451390059738823 a27.137093802597406,27.137093802597406 0 0,0 -0.12897532261960448,-0.44898001801157267 l 5.912909132578159 -1.6436015124577137" fill="#ff3f05" stroke="none" /><path d="M 79.67330655649465 105.27499134158121 l -12.17830659346353 3.1603990100105133 a33.58170391429049,33.58170391429049 0 0,0 -0.14038541192228815,-0.5607699365876815 l 12.230903319680875 -2.95030123402544" fill="#ff980e" stroke="none" /><path d="M 79.58551787078972 104.9243191809786 l -12.075749302504063 2.9128754547206377 a33.42209984791788,33.42209984791788 0 0,0 -0.130090644141966,-0.5604270901751112 l 12.124100512576584 -2.704579707196952" fill="#ff950d" stroke="none" /><path d="M 79.4281124754447 104.21870165774334 l -12.299254392612331 2.522222855495724 a33.555208749637686,33.555208749637686 0 0,0 -0.11116372008227607,-0.566821413776344 l 12.340848045670272 -2.3101377146514253" fill="#ff970d" stroke="none" /><path d="M 79.35854240842038 103.8639653848113 l -2.5586947935067372 0.47897335101180327 a23.603139358024837,23.603139358024837 0 0,0 -0.07131919829669492,-0.39999593911199677 l 2.566560434142621 -0.43485866116659283" fill="#ff0b01" stroke="none" /><path d="M 79.29508885075956 103.50808413554451 l -8.388882962095355 1.421349119643334 a29.508442317583437,29.508442317583437 0 0,0 -0.08054153072261572,-0.501532188692631 l 8.412106247179262 -1.2767377012574894" fill="#ff6008" stroke="none" /><path d="M 79.23777060512086 103.15116336523772 l -11.037117050528966 1.6751456814192451 a32.163514941139944,32.163514941139944 0 0,0 -0.07836556021929628,-0.5480885456529985 l 11.064316661764861 -1.484911663785846" fill="#ff840c" stroke="none" /><path d="M 79.18660465613746 102.79330883721812 l -3.150206276394349 0.4227805644169984 a24.17844977771918,24.17844977771918 0 0,0 -0.05180922613086874,-0.4129705078153058 l 3.157017011772066 -0.36849230231428404" fill="#ff1402" stroke="none" /><path d="M 79.1416061653843 102.43462659150553 l -12.427300705287438 1.4505353095556648 a33.51166877374499,33.51166877374499 0 0,0 -0.06194504069789749,-0.5735341436696592 l 12.450428047486387 -1.2364048440012234" fill="#ff970d" stroke="none" /><path d="M 79.0235259727143 100.99374915477108 l -12.39929383719184 0.5874098647103295 a33.41320015186183,33.41320015186183 0 0,0 -0.022272073178190334,-0.5747432449965653 l 12.40756804322123 -0.37388937269976746" fill="#ff950d" stroke="none" /><line stroke="#e1ed5e" stroke-width="0.3" x1="15.007084014347285" x2="10.007500721073583" y1="101.09737516637583" y2="101.16192664675087" /><path d="M 14.007167355692545 101.11028546245083 a86.0,86.0 0 0,1 10.666146001902534,-42.60595125391555" fill="none" id="id106" stroke="none" /><text fill="#e1ed5e" style="font-size:6.75px; font-family:Arial;" text-anchor="middle"><textPath startOffset="22.20632615414155" xlink:href="#id106">October</textPath></text><path d="M 79.00175016825051 100.2711162175752 l -12.281612850442375 0.15857247382114506 a33.28263650189181,33.28263650189181 0 0,0 -0.002465613705641859,-0.5729217921822033 l 12.28252276143752 0.05285879656473364" fill="#ff940d" stroke="none" /><path d="M 79.00019446554 99.90962569577889 l -12.271036680722917 -0.05280936531875822 a33.27115031481208,33.27115031481208 0 0,0 0.007394105795459237,-0.5726816424487848 l 12.268309567809743 0.264027265828015" fill="#ff930d" stroke="none" /><path d="M 79.00486145842228 99.54816195383935 l -12.566011452494791 -0.2704341317626242 a33.568921132851955,33.568921132851955 0 0,0 0.0174051747661355,-0.5775930154302565 l 12.559494583273011 0.48669729461787514" fill="#ff970e" stroke="none" /><path d="M 79.01574976396665 99.18683210126434 l -12.294711478214849 -0.47643659343775285 a33.30393929439326,33.30393929439326 0 0,0 0.027129058711317357,-0.5726515516622355 l 12.284688811270032 0.6879992517229975" fill="#ff940d" stroke="none" /><path d="M 79.03285615573316 98.82574320788736 l -14.96283710455893 -0.8379879124121968 a35.98628432797518,35.98628432797518 0 0,0 0.0399608991655014,-0.6181774229776639 l 14.946195614389016 1.0954243996428725" fill="#ffb711" stroke="none" /><path d="M 79.05617556472873 98.46500227214037 l -9.319942588043663 -0.6830696437817975 a30.344940555331863,30.344940555331863 0 0,0 0.04266428730299287,-0.5206123697734923 l 9.306803816921173 0.8433959307630682" fill="#ff6c09" stroke="none" /><path d="M 79.08570108090925 98.10471618934814 l -12.396402014810254 -1.1233797575473943 a33.44719908222163,33.44719908222163 0 0,0 0.05689667090931808,-0.5729417113940687 l 12.375228218218709 1.336596999645893" fill="#ff960d" stroke="none" /><path d="M 79.12142395522702 97.74499172005258 l -12.208603274908157 -1.3186005315914957 a33.27960509487221,33.27960509487221 0 0,0 0.06641602389076467,-0.5690119331137953 l 12.184096898013802 1.5285562030301527" fill="#ff940d" stroke="none" /><path d="M 79.16333360222342 97.38593545837743 l -12.427715957785132 -1.5591194387058755 a33.52513382569375,33.52513382569375 0 0,0 0.07676297935528115,-0.5719733585511297 l 12.399036979372017 1.7728111393216646" fill="#ff970d" stroke="none" /><path d="M 79.21141760316559 97.0276538004421 l -12.313538547656073 -1.7605865954000095 a33.438765884303564,33.438765884303564 0 0,0 0.0863740942803042,-0.5690973622649107 l 12.281408559936466 1.9722830700570122" fill="#ff960d" stroke="none" /><path d="M 79.26566170972629 96.67025291283419 l -12.519697385612016 -2.0105500989869647 a33.68010782003989,33.68010782003989 0 0,0 0.09685138166906612,-0.5716223370532113 l 12.483234142422727 2.225758224356004" fill="#ff990e" stroke="none" /><path d="M 79.32604984820605 96.31383870115002 l -12.206343894588993 -2.176388746917019 a33.39885072297739,33.39885072297739 0 0,0 0.1057857322895922,-0.5651116118775653 l 12.167072438389539 2.386178436257157" fill="#ff950d" stroke="none" /><path d="M 79.3925641242962 95.95851677861259 l -12.381380579275428 -2.4282080590021295 a33.6172413556475,33.6172413556475 0 0,0 0.11625274936393733,-0.5668896922221525 l 12.337748533996495 2.6409734073876843" fill="#ff980e" stroke="none" /><path d="M 79.46518482838121 95.60439243477599 l -51.25867306262697 -10.972244415855892 a73.41985989739538,73.41985989739538 0 0,0 0.27516928949757247,-1.233529969542123 l 51.062209386127364 11.852952554947974" fill="#40ffc4" stroke="none" /><path d="M 79.54389044137918 95.25157060432595 l -12.397336621468089 -2.8777650741822867 a33.72695906837832,33.72695906837832 0 0,0 0.1361399940925976,-0.5643881670403416 l 12.345963827114677 3.090738472882025" fill="#ff9a0e" stroke="none" /><path d="M 79.62865764111835 94.90015583598534 l -12.41188200268223 -3.10724069532021 a33.794911472423756,33.794911472423756 0 0,0 0.14612866313401474,-0.5630933486886086 l 12.356557007677907 3.3204304695576825" fill="#ff9a0e" stroke="none" /><path d="M 79.71946130924805 94.55025226153421 l -11.997207080976123 -3.2238666415340256 a33.42281344407214,33.42281344407214 0 0,0 0.1540843098227942,-0.5543232443098919 l 11.939936000586968 3.42990118926286" fill="#ff950d" stroke="none" /><path d="M 79.81627453868168 94.20196356495316 l -11.978929491748955 -3.441102574404576 a33.463383918337215,33.463383918337215 0 0,0 0.1638018347377146,-0.552258356481625 l 11.917921759899535 3.64679031763274" fill="#ff960d" stroke="none" /><path d="M 79.91906864156998 93.8553929516997 l -11.99336787678563 -3.669876235975396 a33.54228307029029,33.54228307029029 0 0,0 0.17369234979946113,-0.5506522145790796 l 11.928420043217965 3.87577861698089" fill="#ff970d" stroke="none" /><path d="M 80.02781315780177 93.51064311812611 l -12.050963193575685 -3.9155953001705432 a33.67113256373058,33.67113256373058 0 0,0 0.18384872292984514,-0.549684280853091 l 11.981777176874067 4.122452683945957" fill="#ff990e" stroke="none" /><path d="M 80.14247586403 93.16781622104843 l -11.830511737414707 -4.070408266187038 a33.51116427126392,33.51116427126392 0 0,0 0.1923651243512976,-0.5438421107073568 l 11.7586935322536 4.273448003321006" fill="#ff970d" stroke="none" /><path d="M 80.2630227832202 92.82701384747504 l -11.848337209093904 -4.306027098162858 a33.60654449048239,33.60654449048239 0 0,0 0.2022720485672801,-0.5419885268247832 l 11.772460572024997 4.5093387620169825" fill="#ff980e" stroke="none" /><path d="M 80.38941819471856 92.48833698450439 l -11.844714206709908 -4.537014889160319 a33.683917326405826,33.683917326405826 0 0,0 0.21205862551441487,-0.5396660715941941 l 11.7648620313138 4.740229965650276" fill="#ff990e" stroke="none" /><path d="M 80.52162464483688 92.15188598940014 l -11.878910419204567 -4.786181680542894 a33.80687502190332,33.80687502190332 0 0,0 0.22212455177006143,-0.5378922208726034 l 11.794764180548308 4.989948471868809" fill="#ff9b0e" stroke="none" /><path d="M 80.65960295795068 91.81776055985345 l -11.610905067358352 -4.9121641697108736 a33.6072389250541,33.6072389250541 0 0,0 0.22998440238414064,-0.5308357095010944 l 11.524629955131532 5.111299023798567" fill="#ff980e" stroke="none" /><path d="M 80.803312248108 91.48605970444005 l -11.456011721415793 -5.080866089086432 a33.5321747823929,33.5321747823929 0 0,0 0.23855377236521083,-0.5256216159059363 l 11.366855632087232 5.277309713834439" fill="#ff970d" stroke="none" /><path d="M 80.95270993114464 91.15688171328213 l -12.60727202325135 -5.853199976028949 a34.89975747369865,34.89975747369865 0 0,0 0.2576629253908128,-0.5427038331115387 l 12.504650904018785 6.069346224781021" fill="#ffa90f" stroke="none" /><path d="M 81.10775173730289 90.83032412892265 l -11.48528348444453 -5.574578810068995 a33.766662274366176,33.766662274366176 0 0,0 0.25829886620765086,-0.5207147526641588 l 11.387624605283467 5.771453151232115" fill="#ff9a0e" stroke="none" /><path d="M 81.26839172434947 90.50648371742162 l -11.315788632711211 -5.7350453871333915 a33.68612698867059,33.68612698867059 0 0,0 0.2665865018517879,-0.51496026879836 l 11.21539269769931 5.928978378192087" fill="#ff990e" stroke="none" /><path d="M 81.43458229118936 90.18545643968196 l -11.171979131094206 -5.906027947060536 a33.63702036941717,33.63702036941717 0 0,0 0.2750097125643912,-0.5095512306449799 l 11.068661319311342 6.097460161037988" fill="#ff980e" stroke="none" /><path d="M 81.6062741919709 89.86733742301443 l -21.992596860424207 -12.115194360518112 a46.108808236518726,46.108808236518726 0 0,0 0.38894395467675846,-0.6918878958372322 l 21.78079526445502 12.491965766290129" fill="#c9ff1d" stroke="none" /><line stroke="#e1ed5e" stroke-width="0.3" x1="26.266209847984243" x2="21.928928074336255" y1="57.711370442889674" y2="55.22380399835377" /><path d="M 25.398753493254645 57.213857153982495 a86.0,86.0 0 0,1 29.58750427330803,-30.492523968695096" fill="none" id="id107" stroke="none" /><text fill="#e1ed5e" style="font-size:6.75px; font-family:Arial;" text-anchor="middle"><textPath startOffset="21.46611528233685" xlink:href="#id107">November</textPath></text><path d="M 82.15384107792192 88.93136811851018 l -5.225898074332468 -3.241232036963003 a27.149438657369235,27.149438657369235 0 0,0 0.2497391583817523,-0.39502737357132284 l 5.169331319704753 3.3307070582485414" fill="#ff3f05" stroke="none" /><path d="M 82.7489923806493 88.02491185347247 l -43.56385538442535 -30.24061085254487 a74.03116103471788,74.03116103471788 0 0,0 0.7356842404386899,-1.0405731851008944 l 43.03685852418278 30.98601053797755" fill="#40ffca" stroke="none" /><path d="M 82.95767976084542 87.72973835380427 l -5.196790972637813 -3.7416257915604816 a27.403623972202027,27.403623972202027 0 0,0 0.2789132854989157,-0.38043740797146963 l 5.131615074625264 3.830525643203452" fill="#ff4206" stroke="none" /><path d="M 83.84228863543731 86.58626213691792 l -4.28352678760778 -3.5560794571735395 a26.567252719778857,26.567252719778857 0 0,0 0.2951360994442733,-0.3493480510242124 l 4.2216800746763825 3.629286457826868" fill="#ff3605" stroke="none" /><path d="M 84.31358615837235 86.03803664274999 l -10.494921125692976 -9.341185670194596 a35.04995085968508,35.04995085968508 0 0,0 0.40500445105703364,-0.4472160304376975 l 10.332573034019896 9.52045448790185" fill="#ffab0f" stroke="none" /><path d="M 84.5562425177563 85.77008943001954 l -5.811484179375389 -5.354713724716797 a28.90229760517793,28.90229760517793 0 0,0 0.340266306577858,-0.36297237147512906 l 5.718450550827075 5.453955513069976" fill="#ff5808" stroke="none" /><path d="M 84.80347519578584 85.50635884689758 l -8.372493465337055 -7.985241192094071 a32.56990595134756,32.56990595134756 0 0,0 0.3904290121801269,-0.40237141673069854 l 8.23380018945381 8.128176804374892" fill="#ff8a0c" stroke="none" /><path d="M 85.05521093208273 85.24692304244772 l -9.753290876170478 -9.628175428346042 a34.70505180560062,34.70505180560062 0 0,0 0.4233424679016012,-0.42152450080663845 l 9.586112608101564 9.794635779802789" fill="#ffa70f" stroke="none" /><path d="M 85.31137513191541 84.99185889309783 l -7.491835157840716 -7.654802284646154 a31.71090995430744,31.71090995430744 0 0,0 0.393391590637836,-0.37844239850984546 l 7.358960323590452 7.782627769918313" fill="#ff7e0b" stroke="none" /><path d="M 85.57189188830299 84.74124197986013 l -7.252550283214766 -7.670091528545851 a31.55603096181654,31.55603096181654 0 0,0 0.39789467701973535,-0.3697997381614038 l 7.1194477224001735 7.793795852781902" fill="#ff7c0b" stroke="none" /><path d="M 86.37877921826538 84.01681056812374 l -4.967789062661661 -5.829221544708921 a28.658900181383714,28.658900181383714 0 0,0 0.3782189611576991,-0.31674750297454385 l 4.8667125645448515 5.913870205077277" fill="#ff5407" stroke="none" /><path d="M 86.65592168130627 83.78471172551755 l -9.08129718213618 -11.035295821689868 a35.291525894126224,35.291525894126224 0 0,0 0.47239657087199094,-0.381978507332372 l 8.889997212699686 11.189980426286374" fill="#ffae10" stroke="none" /><path d="M 87.80319425747018 82.90503203632743 l -8.060439925770115 -11.29746305818976 a34.878161382117995,34.878161382117995 0 0,0 0.49173035684861255,-0.3444885393893614 l 7.864778429337843 11.434536440343063" fill="#ffa90f" stroke="none" /><line stroke="#e1ed5e" stroke-width="0.3" x1="56.762969772571076" x2="54.21961505331055" y1="26.818313649435495" y2="22.513508569990535" /><path d="M 56.25429882871897 25.957352633546506 a86.0,86.0 0 0,1 42.265352541879196,-11.944610805530505" fill="none" id="id108" stroke="none" /><text fill="#e1ed5e" style="font-size:6.75px; font-family:Arial;" text-anchor="middle"><textPath startOffset="22.20632615414155" xlink:href="#id108">December</textPath></text><path d="M 89.94658935756843 81.56283822128135 l -6.738309200574577 -12.357527337207582 a35.075272387146924,35.075272387146924 0 0,0 0.5325678259528929,-0.2844792886322327 l 6.524596328093378 12.471685352341563" fill="#ffab0f" stroke="none" /><path d="M 90.26544431104013 81.39251694778311 l -6.955095492644667 -13.294579192012797 a36.00397244747223,36.00397244747223 0 0,0 0.5516143114341572,-0.2825582751326685 l 6.725220693621747 13.412329992457972" fill="#ffb811" stroke="none" /><path d="M 91.23893434514133 80.91482961587045 l -5.636592515498304 -12.278794929990722 a34.510735735648794,34.510735735648794 0 0,0 0.5420122738326033,-0.24318510799012966 l 5.424398123198927 12.37400036849738" fill="#ffa40f" stroke="none" /><path d="M 94.63758080256005 79.69619591428918 l -1.624473364534922 -6.15076660767566 a27.361669873090033,27.361669873090033 0 0,0 0.45640713082280376,-0.11634833997541054 l 1.5183573450271188 6.177817943819934" fill="#ff4206" stroke="none" /><path d="M 96.04723909329186 79.375362276772 l -2.347431052155439 -12.248379341335326 a33.47129620504114,33.47129620504114 0 0,0 0.5667883920725163,-0.10357695583102518 l 2.1362475389800295 12.286971778517088" fill="#ff960d" stroke="none" /><path d="M 96.40284397218896 79.31037775812273 l -2.308490458510793 -13.277654671162734 a34.47684094154431,34.47684094154431 0 0,0 0.5855658204020942,-0.09662337768790245 l 2.079595431969813 13.315424311790263" fill="#ffa40f" stroke="none" /><path d="M 96.75951476605007 79.25152402106235 l -1.261433284301552 -8.076820694677378 a29.174732195290105,29.174732195290105 0 0,0 0.4968471057487012,-0.07322234808658817 l 1.1222171981242022 8.097337526924935" fill="#ff5b08" stroke="none" /><path d="M 98.19473922651362 79.07773832637324 l -0.26705762190160237 -3.09509270318389 a24.106592766153604,24.106592766153604 0 0,0 0.4137263111413688,-0.03211312438869814 l 0.21374112139789936 3.09923108976105" fill="#ff1302" stroke="none" /><path d="M 98.55514903715128 79.0497635885617 l -0.8456782770588852 -12.262274994418622 a33.29140186419082,33.29140186419082 0 0,0 0.5720381542824462,-0.034506903634752686 l 0.6344780739368161 12.275015167433681" fill="#ff940d" stroke="none" /><path d="M 98.91598698831166 79.02799685794201 l -0.657616263549594 -12.722661256575115 a33.73964554450564,33.73964554450564 0 0,0 0.5802563000158527,-0.02498705688023638 l 0.4385191311444172 12.732096039979545" fill="#ff9a0e" stroke="none" /><path d="M 99.27714615592234 79.0124445844662 l -0.21525394356029337 -6.249747588529771 a27.253453380377273,27.253453380377273 0 0,0 0.46898438812506826,-0.012112483106551063 l 0.10764292024034608 6.252526863778682" fill="#ff4006" stroke="none" /><path d="M 99.63851952072746 79.00311137660856 l -0.3021502324106714 -17.55064281818504 a38.55324352062763,38.55324352062763 0 0,0 0.6636307116832029,-0.005712079051150219 l 4.299304698438129e-15 17.553243520627632" fill="#ffd814" stroke="none" /></svg>