<?xml version="1.0" encoding="utf-8" ?>
<svg baseProfile="full" height="200mm" version="1.1" viewBox="0,0,200,200" width="200mm" xmlns="http://www.w3.org/2000/svg" xmlns:ev="http://www.w3.org/2001/xml-events" xmlns:xlink="http://www.w3.org/1999/xlink"><defs /><rect fill="#1a1a1a" height="200" width="200" x="0" y="0" /><text alignment-baseline="middle" fill="#e1ed5e" style="dominant-baseline: central; font-size:9.0px; font-family:Arial;" text-anchor="middle" x="100.0" y="100.0">2019</text><line stroke="#e1ed5e" stroke-width="0.3" x1="100.0" x2="100.0" y1="15.0" y2="10.0" /><path d="M 100.0 14.0 a86.0,86.0 0 0,1 42.46469731375804,11.215312516191453" fill="none" id="id61" stroke="none" /><text fill="#e1ed5e" style="font-size:6.75px; font-family:Arial;" text-anchor="middle"><textPath startOffset="22.20632615414155" xlink:href="#id61">January</textPath></text><path d="M 100.0 79.0 l 0.0 -3.976009646234644 a24.976009646234644,24.976009646234644 0 0,0 0.42992094939219955,0.0037004653423064354 l -0.06844047011967119 3.9754205575008963" fill="#ff2d04" stroke="none" /><path d="M 102.52436894288641 79.15227682838746 l 0.1038747956301399 -0.8578591453152862 a21.864125156657458,21.864125156657458 0 0,0 0.37323651632013244,0.048456811778096215 l -0.11862604045811842 0.8559440103730532" fill="#ff0000" stroke="none" /><path d="M 102.88285421437855 79.19881850522331 l 0.7046490294297031 -5.084382095417587 a26.132978818082066,26.132978818082066 0 0,0 0.4450458980546205,0.06558819661988034 l -0.7920639079129794 5.0714994146367385" fill="#ff3d05" stroke="none" /><path d="M 104.307194497241 79.44645832069477 l 1.2764233041722244 -6.0909762954854445 a27.223282789942903,27.223282789942903 0 0,0 0.457814304271161,0.10006047470964678 l -1.3810803325969132 6.068102322679927" fill="#ff4c07" stroke="none" /><path d="M 104.66035177308747 79.52364482259891 l 0.8648991783677746 -3.800138622833636 a24.897320123045215,24.897320123045215 0 0,0 0.4170613084475531,0.09870493699909169 l -0.9301841737778513 3.7846877736936757" fill="#ff2c04" stroke="none" /><path d="M 105.01212808612495 79.60689891045804 l 1.285136612470221 -5.228900858405431 a26.384513004882102,26.384513004882102 0 0,0 0.44010763723736,0.11219323613711966 l -1.3749531383926061 5.2060046260994435" fill="#ff4106" stroke="none" /><path d="M 107.76421540070413 80.48803036053334 l 6.123490506464787 -15.388723094785275 a37.562304624379486,37.562304624379486 0 0,0 0.5987004406292629,0.2442249422054865 l -6.387474816682437 15.281037266396211" fill="#ffd513" stroke="none" /><path d="M 108.76106565485865 80.91482961587045 l 1.8069310491170385 -3.9362319954362945 a25.33115713616576,25.33115713616576 0 0,0 0.3947098356165292,0.18532156030303049 l -1.8744190960331657 3.904545452493261" fill="#ff3204" stroke="none" /><path d="M 109.08828744355905 81.06846463323043 l 0.7881667487558877 -1.6418062007445255 a22.821190386710736,22.821190386710736 0 0,0 0.35267295245299757,0.17305508612686968 l -0.816310968219317 1.627995954482824" fill="#ff0e01" stroke="none" /><path d="M 110.36928655335952 81.73862282372117 l 8.420118964839558 -14.82869313089398 a38.05252307877849,38.05252307877849 0 0,0 0.5668073122371627,0.32833138012827884 l -8.674123009542049 14.681557593375652" fill="#ffdb14" stroke="none" /><line stroke="#e1ed5e" stroke-width="0.3" x1="143.23703022742887" x2="145.7803849466894" y1="26.81831364943548" y2="22.513508569990506" /><path d="M 143.74570117128098 25.957352633546492 a86.0,86.0 0 0,1 28.547481713284135,27.462654790039103" fill="none" id="id62" stroke="none" /><text fill="#e1ed5e" style="font-size:6.75px; font-family:Arial;" text-anchor="middle"><textPath startOffset="19.985693538727396" xlink:href="#id62">February</textPath></text><path d="M 110.99172775467656 82.1063720568725 l 6.6916413675220765 -10.893441288912667 a33.784565980373365,33.784565980373365 0 0,0 0.49290209341914243,0.308655245680142 l -6.878162613313482 10.77664170190958" fill="#ffa50f" stroke="none" /><path d="M 111.2981086023043 82.29822771554956 l 3.781886309480431 -5.925424565528547 a28.029460885416796,28.029460885416796 0 0,0 0.4044690903700493,0.26307794741638474 l -3.8833224256347605 5.859447693952634" fill="#ff5708" stroke="none" /><path d="M 111.60114157652 82.49532879139004 l 2.3917330972229034 -3.608826011603245 a25.329435574110747,25.329435574110747 0 0,0 0.36136095196835805,0.24399252784956665 l -2.453498743597803 3.5671215714550084" fill="#ff3204" stroke="none" /><path d="M 111.90073688211348 82.69761687909136 l 4.180839847781304 -6.0784885448729264 a28.377495836864117,28.377495836864117 0 0,0 0.40008061209000234,0.2802820362366159 l -4.284851599454957 6.005621665872375" fill="#ff5c08" stroke="none" /><path d="M 112.77801427241765 83.33499621200491 l 2.456535044318971 -3.2037971586310254 a25.03718722102647,25.03718722102647 0 0,0 0.339751584208137,0.2651815005247818 l -2.5113191836865383 3.1610372688830197" fill="#ff2e04" stroke="none" /><path d="M 113.06298171725822 83.55741782278167 l 5.319884538242946 -6.696223005334832 a29.55222626205667,29.55222626205667 0 0,0 0.39557287462463436,0.3198590876969687 l -5.434360811432072 6.6036578203737335" fill="#ff6c0a" stroke="none" /><path d="M 113.34407831869373 83.78471172551755 l 9.683725507262242 -11.767347052455506 a36.2395864889089,36.2395864889089 0 0,0 0.47826325043425255,0.4005317181239208 l -9.884846294655611 11.598914176937765" fill="#ffc412" stroke="none" /><path d="M 113.89432698308785 84.25364557470407 l 6.125526507217659 -6.942021124276038 a30.258171108837907,30.258171108837907 0 0,0 0.3875769316056122,0.34797039598155055 l -6.244114426419261 6.835551719525189" fill="#ff760a" stroke="none" /><path d="M 114.94478906791727 85.2469230424477 l 2.7728302467017367 -2.737260314207996 a24.896303582212514,24.896303582212514 0 0,0 0.2984423482542472,0.30757107369904163 l -2.819536858659093 2.6891250449588404" fill="#ff2c04" stroke="none" /><path d="M 115.19652480421416 85.50635884689758 l 23.899082967008482 -22.793680586497437 a54.02602067072606,54.02602067072606 0 0,0 0.6360475130334634,0.6784911397737547 l -24.287897802012406 22.378920029845627" fill="#6cff28" stroke="none" /><path d="M 115.68641384162765 86.03803664274999 l 23.183001235949916 -20.634430344330937 a52.035967230635826,52.035967230635826 0 0,0 0.5897611232137043,0.674198914351866 l -23.53475422274147 20.232315873776123" fill="#81ff25" stroke="none" /><path d="M 115.9244219780498 86.31012108654704 l 27.814633799411528 -23.911635176513464 a57.67996933218514,57.67996933218514 0 0,0 0.6407678409327316,0.7584670150833583 l -28.222112253831376 23.429309211800998" fill="#47ff2c" stroke="none" /><path d="M 116.15771136456269 86.58626213691792 l 26.571668238682825 -22.05915084732804 a55.534905372561816,55.534905372561816 0 0,0 0.6042766485725866,0.7407717206747949 l -26.94744337933182 21.598494957045144" fill="#5cff2a" stroke="none" /><path d="M 116.38621287248628 86.86637796730983 l 24.384488134435216 -19.544275001823394 a52.25031114925595,52.25031114925595 0 0,0 0.5564556607727047,0.7066421802242405 l -24.717297875801883 19.121640427646113" fill="#7fff26" stroke="none" /><path d="M 116.82858285166822 87.43820079747576 l 3.7023706332012356 -2.763657336897272 a25.62010283233794,25.62010283233794 0 0,0 0.260760659357912,0.3556772463154688 l -3.749393905072774 2.6995176469103095" fill="#ff3605" stroke="none" /><path d="M 117.04232023915458 87.72973835380427 l 13.303447632812412 -9.578319205388276 a37.392861791624185,37.392861791624185 0 0,0 0.37159135072997795,0.5255896132211089 l -13.466351603346274 9.347903091835374" fill="#ffd313" stroke="none" /><path d="M 117.45458315368197 88.32363383020206 l 22.52901847979566 -15.070945372920457 a48.1051668155082,48.1051668155082 0 0,0 0.45448699775548207,0.6922148781422485 l -22.785102112909065 14.680912430800534" fill="#acff21" stroke="none" /><path d="M 117.65298651832404 88.62581576622439 l 23.021045185959327 -14.832935431484934 a48.38584479194648,48.38584479194648 0 0,0 0.4450861879109718,0.7040194615959321 l -23.272958970116253 14.434468322174796" fill="#a9ff21" stroke="none" /><line stroke="#e1ed5e" stroke-width="0.3" x1="172.23445277983987" x2="176.4835382374775" y1="55.19839476539836" y2="52.563006222186495" /><path d="M 173.08426987136738 54.67131705675599 a86.0,86.0 0 0,1 12.851231095245387,41.99856678651699" fill="none" id="id63" stroke="none" /><text fill="#e1ed5e" style="font-size:6.75px; font-family:Arial;" text-anchor="middle"><textPath startOffset="22.20632615414155" xlink:href="#id63">March</textPath></text><path d="M 117.84615892207809 88.93136811851018 l 8.422959100379229 -5.224128847110264 a30.911496467126995,30.911496467126995 0 0,0 0.2765610398811602,0.4545936327354412 l -8.511635938546615 5.0783674411677415" fill="#ff7f0b" stroke="none" /><path d="M 118.3937258080291 89.86733742301442 l 7.299482503309781 -4.02110991348812 a29.33377284022537,29.33377284022537 0 0,0 0.2398272007634317,0.4443633795753107 l -7.367617803291677 3.8948655505803504" fill="#ff6909" stroke="none" /><path d="M 118.56541770881063 90.18545643968196 l 6.796011155324351 -3.5926876823614022 a28.687208362356543,28.687208362356543 0 0,0 0.22702587708542304,0.43854173364369486 l -6.85684646556989 3.4751732264573625" fill="#ff6108" stroke="none" /><path d="M 118.73160827565052 90.50648371742162 l 7.401807193145639 -3.7513691336358916 a29.298163658382414,29.298163658382414 0 0,0 0.22411698240816572,0.45180616073122254 l -7.465284188507213 3.623403384405719" fill="#ff6909" stroke="none" /><path d="M 118.89224826269711 90.83032412892265 l 7.016714194578289 -3.405682264472048 a28.799548049402343,28.799548049402343 0 0,0 0.2126254260057365,0.4478433734122389 l -7.0742978144257815 3.284396475419269" fill="#ff6209" stroke="none" /><path d="M 119.04729006885535 91.15688171328212 l 7.293607518377247 -3.386215770786593 a29.041341174111004,29.041341174111004 0 0,0 0.20660519446138745,0.4552271594393405 l -7.350815029801981 3.26016660250519" fill="#ff6509" stroke="none" /><path d="M 119.47837535516314 92.15188598940014 l 7.439907804383981 -2.99764449614017 a29.021103456693044,29.021103456693044 0 0,0 0.1827036698345381,0.46496091128698885 l -7.490405024100219 2.8691345799573966" fill="#ff6509" stroke="none" /><path d="M 119.61058180528143 92.48833698450437 l 7.406022210677252 -2.836812476257135 a28.930742084476893,28.930742084476893 0 0,0 0.1741291928914669,0.46657966536114676 l -7.453755992070343 2.708909673866655" fill="#ff6409" stroke="none" /><path d="M 119.85752413597 93.16781622104841 l 3.8362218768387453 -1.3198912764718935 a25.056933727588213,25.056933727588213 0 0,0 0.13681408718984162,0.40905670667191824 l -3.858373257800357 1.2536614668776613" fill="#ff2e04" stroke="none" /><path d="M 119.97218684219823 93.5106431181261 l 31.57010974210437 -10.25775046744407 a54.19477780887925,54.19477780887925 0 0,0 0.28063737595791094,0.8896971728651578 l -31.74200260183049 9.712803128152494" fill="#6aff28" stroke="none" /><path d="M 120.18372546131832 94.20196356495316 l 11.722040601815602 -3.3673079151159904 a33.19610587301604,33.19610587301604 0 0,0 0.15303915305655252,0.5505632593371063 l -11.778266525438518 3.1650333523599326" fill="#ff9d0e" stroke="none" /><path d="M 120.28053869075195 94.5502522615342 l 7.757343468404054 -2.084538565177035 a29.03253874665422,29.03253874665422 0 0,0 0.12553623872922706,0.4837423372783719 l -7.792076039003584 1.9506998023498128" fill="#ff6509" stroke="none" /><path d="M 120.37134235888165 94.90015583598534 l 7.776654654036072 -1.9468391505212748 a29.016641459248586,29.016641459248586 0 0,0 0.11712664011125298,0.4855655398297102 l -7.809014094408145 1.8126883790321584" fill="#ff6509" stroke="none" /><path d="M 120.45610955862082 95.25157060432595 l 7.770648316216536 -1.803782619682812 a28.977255605368846,28.977255605368846 0 0,0 0.10860346025805702,0.4868480173383241 l -7.80054616347663 1.669756432794524" fill="#ff6409" stroke="none" /><path d="M 120.53481517161879 95.60439243477599 l 7.591680260858312 -1.6250473602271058 a28.763658165200656,28.763658165200656 0 0,0 0.0994684337151057,0.4850434082900764 l -7.618527990488415 1.4941282957736175" fill="#ff6209" stroke="none" /><path d="M 120.6074358757038 95.95851677861258 l 7.870813274508585 -1.543605909025473 a29.02074939170642,29.02074939170642 0 0,0 0.09191876844679733,0.49103373653991844 l -7.896217766865242 1.4078940950229917" fill="#ff6509" stroke="none" /><path d="M 120.73433829027371 96.67025291283417 l 33.122239828292855 -5.319131965759505 a54.546623319078094,54.546623319078094 0 0,0 0.14089680227840198,0.9283338852501553 l -33.20889252401056 4.748198968117268" fill="#67ff29" stroke="none" /><path d="M 120.83666639777658 97.38593545837742 l 7.656305179471052 -0.9605219715775745 a28.71632110912179,28.71632110912179 0 0,0 0.057309089558042016,0.4909892812621137 l -7.671704622032682 0.828588951990608" fill="#ff6108" stroke="none" /><path d="M 120.87857604477298 97.74499172005257 l 7.928776165523531 -0.8563541816627656 a28.974887708765895,28.974887708765895 0 0,0 0.049288870094846726,0.4963321954254477 l -7.942342161300607 0.719746455532883" fill="#ff6409" stroke="none" /><path d="M 120.98425023603335 99.18683210126433 l 31.945180825534337 -1.2379186901814752 a52.969157334211786,52.969157334211786 0 0,0 0.02746401759437653,0.9113970385996559 l -31.96175653758436 0.6878515041568201" fill="#77ff27" stroke="none" /><line stroke="#e1ed5e" stroke-width="0.3" x1="184.98032266829074" x2="189.97916517819016" y1="98.17113171792111" y2="98.06355123074" /><path d="M 185.9800911702706 98.14961562048488 a86.0,86.0 0 0,1 -9.607161424134198,41.387399972396054" fill="none" id="id64" stroke="none" /><text fill="#e1ed5e" style="font-size:6.75px; font-family:Arial;" text-anchor="middle"><textPath startOffset="21.466115282336823" xlink:href="#id64">April</textPath></text><path d="M 120.9764740272857 100.99374915477107 l 4.651390746273529 0.2203571304026916 a25.656607471049963,25.656607471049963 0 0,0 -0.024695888611247534,0.4409616809134199 l -4.646908506774753 -0.30039052765153484" fill="#ff3605" stroke="none" /><path d="M 120.95626037817324 101.35467743843564 l 62.86878113451971 4.064032315306923 a84.0,84.0 0 0,0 -0.10569376534264929,1.4421074540129188 l -62.789510810512716 -5.145612905816612" fill="#4dd2ff" stroke="none" /><path d="M 120.76222939487914 103.15116336523771 l 16.31400411085703 2.476039114910724 a37.500833307067495,37.500833307067495 0 0,0 -0.10235628453099387,0.6373726814812023 l -16.26896607196475 -2.7564910260851314" fill="#ffd413" stroke="none" /><path d="M 120.70491114924044 103.5080841355445 l 8.019071336951866 1.3586910243752708 a29.1333600932727,29.1333600932727 0 0,0 -0.08802930212055513,0.4937150754920424 l -7.994495592492122 -1.4965248506005315" fill="#ff6709" stroke="none" /><path d="M 120.5718875245553 104.21870165774334 l 31.64565108961758 6.489611638833947 a53.30421477313298,53.30421477313298 0 0,0 -0.19206260242132614,0.8972525375797618 l -31.52925444847181 -7.033377995829878" fill="#73ff27" stroke="none" /><path d="M 120.49622156327973 104.57218783832717 l 3.7463380845567915 0.8357131276898404 a24.838419658608707,24.838419658608707 0 0,0 -0.09667992219400509,0.4164945744631278 l -3.7313975964322337 -0.9000763595015331" fill="#ff2b04" stroke="none" /><path d="M 120.32669344350535 105.2749913415812 l 3.827804804883407 0.9933557201097265 a24.95459798348242,24.95459798348242 0 0,0 -0.11147804004514726,0.41485125785680443 l -3.8101386884964827 -1.0590979111420793" fill="#ff2c04" stroke="none" /><path d="M 120.23288151984713 105.62410040840565 l 8.93622365450016 2.4839872192983807 a30.27503561766131,30.27503561766131 0 0,0 -0.1438891177703903,0.5008968954375687 l -8.89214189984367 -2.6374415902405315" fill="#ff760a" stroke="none" /><path d="M 120.02730092923936 106.31721596034902 l 12.882167492270895 4.063424940464697 a34.5078370417218,34.5078370417218 0 0,0 -0.18356156182042443,0.5649443968729019 l -12.810313679434225 -4.284568237315394" fill="#ffae10" stroke="none" /><path d="M 119.9155931802556 106.66101706037122 l 8.782637079961715 2.937461861927984 a30.26085289099227,30.26085289099227 0 0,0 -0.16947398873613015,0.4925707402828675 l -8.730772260282354 -3.088205305300152" fill="#ff760a" stroke="none" /><path d="M 119.41010516605496 108.01547362559984 l 7.584219082302455 3.131930893979896 a29.20544759370422,29.20544759370422 0 0,0 -0.19588374463869915,0.463011309203142 l -7.529184356471447 -3.2620167288492015" fill="#ff6809" stroke="none" /><path d="M 119.12269723197855 108.67885076344098 l 7.666900871442297 3.479628824017036 a29.419571587999762,29.419571587999762 0 0,0 -0.2132574074948226,0.45933748347423753 l -7.605868847107643 -3.611086374770104" fill="#ff6b09" stroke="none" /><path d="M 118.97047184881838 109.00673069616215 l 32.9444398601194 15.641239718267075 a57.46895251609675,57.46895251609675 0 0,0 -0.43196604763949964,0.8899780022543731 l -32.67032055586519 -16.206006676486723" fill="#49ff2c" stroke="none" /><line stroke="#e1ed5e" stroke-width="0.3" x1="174.80103733775053" x2="179.2010983576182" y1="140.37084112569926" y2="142.7455964860345" /><path d="M 175.68104954172406 140.8457921977663 a86.0,86.0 0 0,1 -30.038265399797805,32.042727171017184" fill="none" id="id65" stroke="none" /><text fill="#e1ed5e" style="font-size:6.75px; font-family:Arial;" text-anchor="middle"><textPath startOffset="22.206326154141568" xlink:href="#id65">May</textPath></text><path d="M 118.48025628344425 109.97397251340804 l 1.3268378245027215 0.716107168015628 a22.507749345420013,22.507749345420013 0 0,0 -0.18694678361874256,0.33936271463202294 l -1.3143146314324694 -0.738840401045456" fill="#ff0901" stroke="none" /><path d="M 117.94076556474637 110.91462005526583 l 28.370179629845975 17.259560660436534 a54.20782327134701,54.20782327134701 0 0,0 -0.4918336733248328,0.7929924846505096 l -28.06888131685318 -17.74534947645232" fill="#6aff28" stroke="none" /><path d="M 117.55443506779139 111.5257021239791 l 3.2792486556212492 2.1530538037362605 a24.92289592357189,24.92289592357189 0 0,0 -0.23854403260998805,0.35659096267256796 l -3.24170151760054 -2.2091816806146354" fill="#ff2c04" stroke="none" /><path d="M 116.27256486870786 113.27417163493432 l 27.52632579661463 22.45430736036126 a56.52315485560011,56.52315485560011 0 0,0 -0.6214963121330834,0.7486323445476332 l -27.135733484588002 -22.924800962022662" fill="#52ff2b" stroke="none" /><path d="M 114.55890576462653 115.13401014063108 l 22.36683497554256 23.25036735632489 a53.26228276218551,53.26228276218551 0 0,0 -0.6661949076271584,0.6299288669510309 l -21.963304233524592 -23.631930860021843" fill="#74ff27" stroke="none" /><path d="M 114.0293411484842 115.62618273729858 l 3.156112578949221 3.5153462572599676 a25.72426776542494,25.72426776542494 0 0,0 -0.33203616636652356,0.29298331163536767 l -3.095134059676109 -3.569152710667624" fill="#ff3705" stroke="none" /><path d="M 113.48314897796784 116.09983520530334 l 1.7641304351361309 2.1064967340168423 a23.747632559604217,23.747632559604217 0 0,0 -0.3156511249395349,0.2597593864060613 l -1.7276091816519048 -2.1365512392800823" fill="#ff1b02" stroke="none" /><path d="M 113.20401910651253 116.32954008644616 l 1.7399759453787715 2.151845337417056 a23.76730096784941,23.76730096784941 0 0,0 -0.32034078368006785,0.2544980925382132 l -1.7026776689813525 -2.181477343960395" fill="#ff1c02" stroke="none" /><path d="M 112.63410532772338 116.77436683061366 l 19.899204892883823 26.420277008322568 a54.07581280279397,54.07581280279397 0 0,0 -0.7483449493963881,0.5536077031624442 l -19.44147497306887 -26.75889466022478" fill="#6bff28" stroke="none" /><line stroke="#e1ed5e" stroke-width="0.3" x1="143.8653032363475" x2="146.44561519142675" y1="172.8068346515853" y2="177.08958963109032" /><path d="M 144.38136562736335 173.6633856474863 a86.0,86.0 0 0,1 -40.68145358897372,12.25698825130547" fill="none" id="id66" stroke="none" /><text fill="#e1ed5e" style="font-size:6.75px; font-family:Arial;" text-anchor="middle"><textPath startOffset="21.466115282336833" xlink:href="#id66">June</textPath></text><path d="M 110.5260780823613 118.17145234162733 l 17.197443045581366 29.688409515439307 a55.309673663012916,55.309673663012916 0 0,0 -0.8279363865311519,0.4701238880847629 l -16.683857892129016 -29.9800365693187" fill="#5fff29" stroke="none" /><path d="M 109.2508944713604 118.85261126421891 l 1.0796057225871583 2.2001534089026067 a23.45075978809607,23.45075978809607 0 0,0 -0.36391931146238365,0.17470338484208162 l -1.041573743124542 -2.2184110702442483" fill="#ff1702" stroke="none" /><path d="M 108.92500713936063 119.00905698771935 l 1.3512847993550412 2.878053693010158 a24.179491102176165,24.179491102176165 0 0,0 -0.3782731749105611,0.17364666147382707 l -1.3015436286770605 -2.9008874248180594" fill="#ff2103" stroke="none" /><path d="M 108.59647513512805 119.15986991738527 l 2.7722080882410323 6.178712265167312 a27.77212100750112,27.77212100750112 0 0,0 -0.4378464326898426,0.19193900897067326 l -2.665440980893436 -6.2255158274324405" fill="#ff5407" stroke="none" /><path d="M 105.88484417918355 120.15858648285463 l 9.26901548525866 31.75109562483413 a54.0763770906568,54.0763770906568 0 0,0 -0.8957850538886495,0.2531578039839874 l -8.721099263265403 -31.905942222156636" fill="#6bff28" stroke="none" /><path d="M 104.13013068566511 120.58985236759428 l 0.5422658053613889 2.7033461471661875 a23.75719651005555,23.75719651005555 0 0,0 -0.40164638800256197,0.0769764861871512 l -0.4956518027871225 -2.7122798317018066" fill="#ff1b02" stroke="none" /><path d="M 102.70371172650421 120.8252237178851 l 0.8521365334281787 6.5635451342180176 a27.618629873358987,27.618629873358987 0 0,0 -0.4719794702115462,0.05715014087985919 l -0.7390296401652523 -6.577240803823227" fill="#ff5207" stroke="none" /><path d="M 101.26447882468166 120.96189622390904 l 0.22509005695141732 3.7314301534762646 a24.738213012123612,24.738213012123612 0 0,0 -0.4252757173097875,0.021981896912573247 l -0.16082627122815019 -3.7347518571510396" fill="#ff2904" stroke="none" /><line stroke="#e1ed5e" stroke-width="0.3" x1="102.19456741930631" x2="102.32365962044197" y1="184.97166512339345" y2="189.96999836594603" /><path d="M 102.22038585953345 185.97133177190398 a86.0,86.0 0 0,1 -42.740103519485714,-10.115201625700543" fill="none" id="id67" stroke="none" /><text fill="#e1ed5e" style="font-size:6.75px; font-family:Arial;" text-anchor="middle"><textPath startOffset="22.20632615414155" xlink:href="#id67">July</textPath></text><path d="M 100.54218724476979 120.99299961872073 l 0.21963887680889596 8.504218610054393 a29.507054449326237,29.507054449326237 0 0,0 -0.5078589957389718,0.008743253177905027 l -0.07322019117725627 -8.506739340511457" fill="#ff6c09" stroke="none" /><path d="M 100.18074693466247 120.99922214144158 l 0.06476386144191933 7.524280927342598 a28.524559643681513,28.524559643681513 0 0,0 -0.49102159220874436,0.0 l 0.06476386144191414 -7.524280927342598" fill="#ff5e08" stroke="none" /><path d="M 99.45781275523022 120.99299961872073 l -0.19997792991283425 7.74296453284377 a28.745546522313887,28.745546522313887 0 0,0 -0.4945324256429404,-0.017032696653773834 l 0.33323070723041776 -7.738375037763902" fill="#ff6109" stroke="none" /><path d="M 99.09653310690486 120.98055641714683 l -0.32800261917239215 7.61696694047387 a28.624025910925003,28.624025910925003 0 0,0 -0.49207689923263703,-0.025434754987695263 l 0.4590675868185181 -7.610192378723973" fill="#ff6008" stroke="none" /><path d="M 98.73552117531835 120.96189622390904 l -0.9753584385325369 16.169003363722144 a37.198394792684695,37.198394792684695 0 0,0 -0.6388155429280588,-0.04405645999194599 l 1.2535367422395256 -16.149818559213912" fill="#ffd013" stroke="none" /><path d="M 98.37488393609728 120.93702456842531 l -0.3554997237595648 4.5800460753232555 a25.59382216739798,25.59382216739798 0 0,0 -0.4389409754428988,-0.03787367432851484 l 0.43428501694400523 -4.573248148716077" fill="#ff3605" stroke="none" /><path d="M 97.65516085044442 120.86867818915974 l -1.0444615611200316 9.295534068548978 a30.35402873483998,30.35402873483998 0 0,0 -0.5187251672782952,-0.06281039379657367 l 1.2043141514497162 -9.276178146027057" fill="#ff770b" stroke="none" /><path d="M 97.2962882734958 120.8252237178851 l -1.2279593285153776 9.458304109166656 a30.53768319530308,30.53768319530308 0 0,0 -0.5206986306491623,-0.07216408559124252 l 1.390586550351371 -9.435765458082809" fill="#ff7a0b" stroke="none" /><path d="M 95.86986931433489 120.58985236759428 l -1.5560511607482341 7.757348644543056 a28.911874190598578,28.911874190598578 0 0,0 -0.48710799784348163,-0.10207821701045512 l 1.6893506200211026 -7.729414446806059" fill="#ff6409" stroke="none" /><path d="M 95.51606077576429 120.51570834832081 l -1.3699042771967787 6.26782728547726 a27.415784956593797,27.415784956593797 0 0,0 -0.4601672278941707,-0.10473256289284152 l 1.477591654483812 -6.243317989006732" fill="#ff4f07" stroke="none" /><path d="M 95.16358092515715 120.4354850818985 l -1.765000731372282 7.457717281596444 a28.663731117019108,28.663731117019108 0 0,0 -0.47915755503016105,-0.11776526918101873 l 1.8931115711456536 -7.426230754101395" fill="#ff6008" stroke="none" /><path d="M 94.46302465271185 120.25689768951611 l -5.932090137757775 21.702416115036606 a43.49854570039325,43.49854570039325 0 0,0 -0.7205613467592319,-0.20363783408691113 l 6.30478265262162 -21.597089487611175" fill="#e1ff1b" stroke="none" /><path d="M 92.40401165467489 119.57807347666478 l -1.0007202841295553 2.5792792671061853 a23.766608505877215,23.766608505877215 0 0,0 -0.38012870909945057,-0.15126105831314804 l 1.0449700692708639 -2.561671364386971" fill="#ff1c02" stroke="none" /><path d="M 91.07499286063937 119.00905698771935 l -13.715115775416551 29.21133992355984 a53.27083483368289,53.27083483368289 0 0,0 -0.8266804874927945,-0.3968568712870397 l 14.215908930909588 -28.970928775773242" fill="#74ff27" stroke="none" /><line stroke="#e1ed5e" stroke-width="0.3" x1="58.666819895761336" x2="56.23545636021788" y1="174.27360380694188" y2="178.64263932499728" /><path d="M 58.180547188652646 175.14741091055294 a86.0,86.0 0 0,1 -31.652253787137756,-30.449443065178592" fill="none" id="id68" stroke="none" /><text fill="#e1ed5e" style="font-size:6.75px; font-family:Arial;" text-anchor="middle"><textPath startOffset="22.20632615414155" xlink:href="#id68">August</textPath></text><path d="M 89.1626897886671 117.98757091392108 l -20.87922897885316 34.65496553677828 a61.458730072836836,61.458730072836836 0 0,0 -0.9014555813418801,-0.5537476449458248 l 21.472663760127347 -34.29042942500408" fill="#31ff40" stroke="none" /><path d="M 87.07902340077011 116.55440617244103 l -19.835099603878827 25.41280783164681 a53.237276221542096,53.237276221542096 0 0,0 -0.7175434353639928,-0.5700599015698047 l 20.269600531960176 -25.067614016071875" fill="#74ff27" stroke="none" /><path d="M 84.9287848128048 114.62390073753433 l -11.490172345930254 11.149143433822681 a37.0102298499157,37.0102298499157 0 0,0 -0.43970523235775794,-0.46102917820875583 l 11.68038412966697 -10.949707139031426" fill="#ffce13" stroke="none" /><path d="M 84.19399662182784 113.82643327865904 l -6.343915216157512 5.549392744202677 a29.428583516772207,29.428583516772207 0 0,0 -0.33024124468806115,-0.3841451752945129 l 6.438498970416352 -5.439370469746635" fill="#ff6b09" stroke="none" /><path d="M 83.06392112726016 112.41649034213515 l -4.854991935076797 3.5593811841567637 a27.019978496954117,27.019978496954117 0 0,0 -0.2717697841968224,-0.37746446059234307 l 4.915541511649227 -3.475283118113283" fill="#ff4906" stroke="none" /><path d="M 82.6465618267979 111.8261652097733 l -7.735237982952574 5.271474241028222 a30.360680922173145,30.360680922173145 0 0,0 -0.2905905991891659,-0.4343935179375527 l 7.824831687552471 -5.137543808884849" fill="#ff770b" stroke="none" /><path d="M 82.05923443525364 110.91462005526583 l -5.261728616747244 3.201076814612928 a27.15895127512382,27.15895127512382 0 0,0 -0.2395408177206106,-0.40148418886183673 l 5.316050310166086 -3.11003053186498" fill="#ff4b07" stroke="none" /><line stroke="#e1ed5e" stroke-width="0.3" x1="26.63291911575756" x2="22.317208475507996" y1="142.92168965132927" y2="145.44649492493687" /><path d="M 25.769776987707644 143.4266507060508 a86.0,86.0 0 0,1 -11.730757126820373,-40.83630448921669" fill="none" id="id69" stroke="none" /><text fill="#e1ed5e" style="font-size:6.75px; font-family:Arial;" text-anchor="middle"><textPath startOffset="21.46611528233685" xlink:href="#id69">September</textPath></text><path d="M 81.87401531095188 110.60418214915194 l -28.099971099545975 16.439228932237324 a53.555439233434214,53.555439233434214 0 0,0 -0.45865899244360975,-0.7997106138069703 l 28.37878208814196 -15.953098472572048" fill="#71ff27" stroke="none" /><path d="M 81.35079622478065 109.6543875284942 l -2.794969034905319 1.446909718953939 a24.147284486804924,24.147284486804924 0 0,0 -0.18791339770871937,-0.3707709610279686 l 2.819461102400305 -1.3985845462232853" fill="#ff2103" stroke="none" /><path d="M 80.73074385275274 108.34839909993369 l -3.8709284119977116 1.677078503896789 a25.2186110367091,25.2186110367091 0 0,0 -0.1691436485815878,-0.3998056210208104 l 3.8992230417716063 -1.6101983572098197" fill="#ff3004" stroke="none" /><path d="M 80.58989483394504 108.01547362559985 l -5.895981911700354 2.4347672053264424 a27.378925775334817,27.378925775334817 0 0,0 -0.17613434746136933,-0.4371510057264131 l 5.937018873419111 -2.332916831757224" fill="#ff4e07" stroke="none" /><path d="M 80.20201598880116 107.00284435728193 l -4.1456176661240365 1.4663672454853678 a25.397314945772255,25.397314945772255 0 0,0 -0.1422360527164476,-0.4134045484144348 l 4.170244549783712 -1.3947899939816362" fill="#ff3304" stroke="none" /><path d="M 80.0844068197444 106.66101706037122 l -4.404241785634762 1.4730532707003439 a25.64405336367405,25.64405336367405 0 0,0 -0.13641140362262896,-0.4198311312123357 l 4.428945440273641 -1.397023239510205" fill="#ff3605" stroke="none" /><path d="M 79.76711848015287 105.62410040840567 l -7.2624513249103595 2.0187315100119902 a28.53780313859466,28.53780313859466 0 0,0 -0.12748505759101425,-0.4744193249016647 l 7.296124458843148 -1.8934212519347864" fill="#ff5e08" stroke="none" /><path d="M 79.67330655649465 105.27499134158121 l -9.35772792325477 2.4284290954273944 a30.667695679797763,30.667695679797763 0 0,0 -0.1282036522537408,-0.5121098621303787 l 9.398142889803568 -2.2669913938996236" fill="#ff7b0b" stroke="none" /><path d="M 79.58551787078972 104.9243191809786 l -3.8798158237485803 0.935877352098596 a24.99109474259644,24.99109474259644 0 0,0 -0.0972741876683672,-0.4190546545733082 l 3.895350577347503 -0.8689540401767136" fill="#ff2d04" stroke="none" /><path d="M 79.50377843672027 104.57218783832718 l -3.71544186576395 0.8288209639132755 a24.806764038930393,24.806764038930393 0 0,0 -0.0893822689115068,-0.41756420346504586 l 3.729158173399898 -0.7647429410320659" fill="#ff2a04" stroke="none" /><path d="M 79.29508885075956 103.50808413554451 l -3.9037910061605596 0.6614289333811314 a24.959428298844895,24.959428298844895 0 0,0 -0.0681252686778544,-0.4242161130876534 l 3.9145980291997047 -0.5941335906002644" fill="#ff2d04" stroke="none" /><path d="M 79.23777060512086 103.15116336523772 l -6.1003065182981135 0.9258669698507006 a27.17016768516472,27.17016768516472 0 0,0 -0.0661994006499804,-0.462998453961333 l 6.115339969964692 -0.820723043908967" fill="#ff4c07" stroke="none" /><path d="M 79.18660465613746 102.79330883721812 l -7.616132262351622 1.0221402708387117 a28.684415486613375,28.684415486613375 0 0,0 -0.06146454309685421,-0.4899328839853105 l 7.632598314695325 -0.8908896325659927" fill="#ff6008" stroke="none" /><path d="M 79.1416061653843 102.43462659150553 l -4.759285727364337 0.5555117848616193 a25.79159618267379,25.79159618267379 0 0,0 -0.047674781163126304,-0.44140926345311304 l 4.7681428100285155 -0.47350619952372425" fill="#ff3805" stroke="none" /><path d="M 79.10278846688536 102.07522291339032 l -3.872016146770873 0.38451525535180153 a24.891061683198124,24.891061683198124 0 0,0 -0.03867052078602664,-0.4267259745112847 l 3.878061263833975 -0.31780789229195067" fill="#ff2c04" stroke="none" /><path d="M 79.07016306316243 101.71520430193888 l -4.613602771898969 0.3780856652480889 a25.62906894603439,25.62906894603439 0 0,0 -0.03224800951348783,-0.4399984686486691 l 4.6194273400767925 -0.2986140601026591" fill="#ff3605" stroke="none" /><path d="M 79.04373962182676 101.35467743843564 l -3.8315783654480557 0.24768506745014282 a24.839575583734142,24.839575583734142 0 0,0 -0.023909450712011362,-0.4269193039234921 l 3.8352741670475985 -0.1816940471912131" fill="#ff2b04" stroke="none" /><line stroke="#e1ed5e" stroke-width="0.3" x1="15.007084014347285" x2="10.007500721073583" y1="101.09737516637583" y2="101.16192664675087" /><path d="M 14.007167355692545 101.11028546245083 a86.0,86.0 0 0,1 10.666146001902534,-42.60595125391555" fill="none" id="id70" stroke="none" /><text fill="#e1ed5e" style="font-size:6.75px; font-family:Arial;" text-anchor="middle"><textPath startOffset="22.20632615414155" xlink:href="#id70">October</textPath></text><path d="M 79.12142395522702 97.74499172005258 l -10.14618580054866 -1.0958473863858267 a31.205193177667137,31.205193177667137 0 0,0 0.06227612526337359,-0.5335438098677948 l 10.125819322281696 1.2703349345784831" fill="#ff830c" stroke="none" /><path d="M 79.16333360222342 97.38593545837743 l -3.5702629245613657 -0.44790743092961466 a24.598249354502748,24.598249354502748 0 0,0 0.05632296405416894,-0.41967150290657934 l 3.5620239614493627 0.5092972759008534" fill="#ff2703" stroke="none" /><path d="M 79.21141760316559 97.0276538004421 l -7.974701323412914 -1.1402207576628804 a29.055803161314767,29.055803161314767 0 0,0 0.07505267061376275,-0.49450332571497885 l 7.9538927593598485 1.2773231957699513" fill="#ff6609" stroke="none" /><path d="M 79.32604984820605 96.31383870115002 l -2.5017062416139044 -0.4460537372500352 a23.54116076938172,23.54116076938172 0 0,0 0.07456301270938048,-0.39831859539711306 l 2.4936575049946623 0.48905041010972095" fill="#ff1802" stroke="none" /><path d="M 79.46518482838121 95.60439243477599 l -4.826607778632632 -1.0331660396656084 a25.935947195247874,25.935947195247874 0 0,0 0.097204982032608,-0.43575087447061694 l 4.8081084095979865 1.1160950836861845" fill="#ff3a05" stroke="none" /><path d="M 79.62865764111835 94.90015583598534 l -2.783678678299408 -0.6968773688017587 a23.869582731193997,23.869582731193997 0 0,0 0.10321169851036106,-0.39771677706199493 l 2.7712706479187394 0.7446905714126174" fill="#ff1d02" stroke="none" /><path d="M 80.38941819471856 92.48833698450439 l -2.1552012432353496 -0.8255311153186267 a23.30789818259004,23.30789818259004 0 0,0 0.14673592754472442,-0.37342693034860225 l 2.1406717658089343 0.8625070505629923" fill="#ff1502" stroke="none" /><path d="M 80.52162464483688 92.15188598940014 l -1.0889303658864153 -0.4387455065042425 a22.17399615043116,22.17399615043116 0 0,0 0.1456919325632568,-0.352804570882354 l 1.0812167464369586 0.45742464783990777" fill="#ff0500" stroke="none" /><line stroke="#e1ed5e" stroke-width="0.3" x1="26.266209847984243" x2="21.928928074336255" y1="57.711370442889674" y2="55.22380399835377" /><path d="M 25.398753493254645 57.213857153982495 a86.0,86.0 0 0,1 29.58750427330803,-30.492523968695096" fill="none" id="id71" stroke="none" /><text fill="#e1ed5e" style="font-size:6.75px; font-family:Arial;" text-anchor="middle"><textPath startOffset="21.46611528233685" xlink:href="#id71">November</textPath></text><path d="M 82.95767976084542 87.72973835380427 l -3.6791947326614425 -2.648975103363071 a25.533601546130967,25.533601546130967 0 0,0 0.25988025178989926,-0.35447637138212446 l 3.63305186835791 2.711913918416696" fill="#ff3505" stroke="none" /><path d="M 85.83668400450813 84.49514656593479 l -3.588444670504429 -3.928339146717695 a26.320599929040554,26.320599929040554 0 0,0 0.33714058003781733,-0.30268814155478785 l 3.52029310287064 3.9895262970417615" fill="#ff4006" stroke="none" /><path d="M 89.00827224532344 82.1063720568725 l -10.0866082632106 -16.420167920659797 a40.27074416824979,40.27074416824979 0 0,0 0.5937785721968819,-0.357744945914835 l 9.80246762479607 16.59135947603325" fill="#fff717" stroke="none" /><line stroke="#e1ed5e" stroke-width="0.3" x1="56.762969772571076" x2="54.21961505331055" y1="26.818313649435495" y2="22.513508569990535" /><path d="M 56.25429882871897 25.957352633546506 a86.0,86.0 0 0,1 42.265352541879196,-11.944610805530505" fill="none" id="id72" stroke="none" /><text fill="#e1ed5e" style="font-size:6.75px; font-family:Arial;" text-anchor="middle"><textPath startOffset="22.20632615414155" xlink:href="#id72">December</textPath></text></svg>