<?xml version="1.0" encoding="utf-8" ?>
<svg baseProfile="full" height="200mm" version="1.1" viewBox="0,0,200,200" width="200mm" xmlns="http://www.w3.org/2000/svg" xmlns:ev="http://www.w3.org/2001/xml-events" xmlns:xlink="http://www.w3.org/1999/xlink"><defs /><rect fill="#1a1a1a" height="200" width="200" x="0" y="0" /><text alignment-baseline="middle" fill="#e1ed5e" style="dominant-baseline: central; font-size:9.0px; font-family:Arial;" text-anchor="middle" x="100.0" y="100.0">2015</text><line stroke="#e1ed5e" stroke-width="0.3" x1="100.0" x2="100.0" y1="15.0" y2="10.0" /><path d="M 100.0 14.0 a86.0,86.0 0 0,1 42.46469731375804,11.215312516191453" fill="none" id="id13" stroke="none" /><text fill="#e1ed5e" style="font-size:6.75px; font-family:Arial;" text-anchor="middle"><textPath startOffset="22.20632615414155" xlink:href="#id13">January</textPath></text><path d="M 110.36928655335952 81.73862282372117 l 11.321711826008393 -19.93869576966135 a43.928862764347684,43.928862764347684 0 0,0 0.654337705322387,0.37903463349918365 l -11.66324626379611 19.74085697877212" fill="#efff19" stroke="none" /><line stroke="#e1ed5e" stroke-width="0.3" x1="143.23703022742887" x2="145.7803849466894" y1="26.81831364943548" y2="22.513508569990506" /><path d="M 143.74570117128098 25.957352633546492 a86.0,86.0 0 0,1 28.547481713284135,27.462654790039103" fill="none" id="id14" stroke="none" /><text fill="#e1ed5e" style="font-size:6.75px; font-family:Arial;" text-anchor="middle"><textPath startOffset="19.985693538727396" xlink:href="#id14">February</textPath></text><path d="M 111.2981086023043 82.29822771554956 l 9.79935379884631 -15.353537090851004 a39.21423718070842,39.21423718070842 0 0,0 0.5658669964033685,0.36805563507528893 l -10.062187821033959 15.182582531616188" fill="#ffd313" stroke="none" /><path d="M 111.60114157652 82.49532879139004 l 4.639394032850769 -7.000265156370979 a29.39807652093936,29.39807652093936 0 0,0 0.4194059866262235,0.283184794358009 l -4.759204713883533 6.9193684497143" fill="#ff4b07" stroke="none" /><path d="M 111.90073688211348 82.69761687909136 l 4.624885304782369 -6.724082569531923 a29.16105694651587,29.16105694651587 0 0,0 0.4111276618424387,0.28802120055863895 l -4.739944106208459 6.643476526209349" fill="#ff4806" stroke="none" /><path d="M 112.48926042617603 83.11751280151076 l 27.940577562859687 -37.76896524911379 a67.98053437898449,67.98053437898449 0 0,0 0.9347447986424879,0.7040304030455495 l -28.58656851526056 37.282418256562394" fill="#38ff84" stroke="none" /><path d="M 113.34407831869373 83.78471172551755 l 9.360712076996505 -11.37483167872971 a35.73124999135719,35.73124999135719 0 0,0 0.4715546014349642,0.3949134175174336 l -9.555124215390586 11.212017103818457" fill="#ffa40f" stroke="none" /><path d="M 113.6212207817346 84.01681056812373 l 14.281734038339478 -16.75823806163915 a43.01832123647113,43.01832123647113 0 0,0 0.5594557286421841,0.48515449491020646 l -14.568083565628426 16.509918573309275" fill="#faff18" stroke="none" /><path d="M 114.16331599549186 84.49514656593476 l 5.5346179671963185 -6.058852349424187 a29.20619813524724,29.20619813524724 0 0,0 0.3682652862161484,0.3422624485371301 l -5.638091137207313 5.962685314812417" fill="#ff4906" stroke="none" /><path d="M 114.94478906791727 85.2469230424477 l 5.893351207578497 -5.81775115782254 a29.281172440555288,29.281172440555288 0 0,0 0.3510055954266389,0.3617421203500611 l -5.992621066708244 5.715444841922365" fill="#ff4a06" stroke="none" /><path d="M 115.19652480421416 85.50635884689758 l 5.987952907749924 -5.710992598948447 a29.274721535536692,29.274721535536692 0 0,0 0.3446508477999856,0.3676494943476028 l -6.085371077520373 5.60707368772279" fill="#ff4a06" stroke="none" /><path d="M 115.4437574822437 85.77008943001954 l 19.92745705852607 -18.361200773579814 a48.09681233405709,48.09681233405709 0 0,0 0.555761779950288,0.6136860383871511 l -20.240562479092393 18.015461947923114" fill="#bdff1f" stroke="none" /><path d="M 116.15771136456269 86.58626213691792 l 6.609829023097963 -5.487318830938131 a29.59072218541354,29.59072218541354 0 0,0 0.32197736380547887,0.39470617699348126 l -6.703304878979851 5.372728484336549" fill="#ff4e07" stroke="none" /><line stroke="#e1ed5e" stroke-width="0.3" x1="172.23445277983987" x2="176.4835382374775" y1="55.19839476539836" y2="52.563006222186495" /><path d="M 173.08426987136738 54.67131705675599 a86.0,86.0 0 0,1 12.851231095245387,41.99856678651699" fill="none" id="id15" stroke="none" /><text fill="#e1ed5e" style="font-size:6.75px; font-family:Arial;" text-anchor="middle"><textPath startOffset="22.20632615414155" xlink:href="#id15">March</textPath></text><path d="M 119.04729006885535 91.15688171328212 l 12.458659810889172 -5.784203527294318 a34.735909679691005,34.735909679691005 0 0,0 0.24711735353887068,0.544490331876392 l -12.55637948139139 5.568891186575864" fill="#ff970d" stroke="none" /><path d="M 119.34039704204932 91.81776055985345 l 7.715646216579841 -3.2642176188140763 a29.37772720983436,29.37772720983436 0 0,0 0.19302329731097162,0.46742122490912336 l -7.7706912007770095 3.13092182345165" fill="#ff4b07" stroke="none" /><path d="M 119.85752413597 93.16781622104841 l 12.963379663677777 -4.460183034507176 a34.709210225463764,34.709210225463764 0 0,0 0.18951676073791554,0.566630992457754 l -13.038233718187463 4.236378939127108" fill="#ff960d" stroke="none" /><path d="M 120.08093135843002 93.85539295169968 l 8.046904883972543 -2.462289601239176 a29.41519746007613,29.41519746007613 0 0,0 0.14398613496145996,0.48544966774811904 l -8.088096916045703 2.323410546744527" fill="#ff4c07" stroke="none" /><path d="M 120.18372546131832 94.20196356495316 l 18.698810456163066 -5.371475376270158 a40.4550317448569,40.4550317448569 0 0,0 0.1865039176218998,0.6709538226933874 l -18.78850114435133 5.048810250157819" fill="#ffe315" stroke="none" /><path d="M 120.37134235888165 94.90015583598534 l 8.104300908036233 -2.028863437722725 a29.354398844735925,29.354398844735925 0 0,0 0.11849000905215722,0.49121758427620343 l -8.138023717349208 1.8890606217871155" fill="#ff4b07" stroke="none" /><path d="M 120.53481517161879 95.60439243477599 l 13.630567219646139 -2.9177094552951806 a34.9393468711705,34.9393468711705 0 0,0 0.12082476047878818,0.5891844421348669 l -13.678771276039924 2.682649356996902" fill="#ff990e" stroke="none" /><path d="M 120.6074358757038 95.95851677861258 l 40.146010137799976 -7.873343746218355 a61.9107769631726,61.9107769631726 0 0,0 0.19609288151826598,1.0475360141114747 l -40.2755887432281 7.181129654644318" fill="#31ff3b" stroke="none" /><path d="M 120.73433829027371 96.67025291283417 l 12.82738593506737 -2.059962095500212 a33.99173867355951,33.99173867355951 0 0,0 0.08780245213295396,0.578508455869836 l -12.860944280639623 1.8388545272382935" fill="#ff8c0c" stroke="none" /><path d="M 120.78858239683441 97.02765380044208 l 17.813880175994168 -2.5470240360669867 a38.99504538379887,38.99504538379887 0 0,0 0.08928751423687167,0.6652956910176722 l -17.855083689288875 2.24001000298465" fill="#ffd013" stroke="none" /><path d="M 120.83666639777658 97.38593545837742 l 8.351946900304839 -1.0477937223168845 a29.417415797620922,29.417415797620922 0 0,0 0.05870826245833047,0.5029765402112947 l -8.368745515766758 0.903873443780737" fill="#ff4c07" stroke="none" /><path d="M 120.96714384426684 98.82574320788733 l 23.009621882382937 -1.2886449856984428 a44.04567866367579,44.04567866367579 0 0,0 0.03587917308773159,0.7573526365097923 l -23.028394663704162 0.8923812425656507" fill="#eeff19" stroke="none" /><line stroke="#e1ed5e" stroke-width="0.3" x1="184.98032266829074" x2="189.97916517819016" y1="98.17113171792111" y2="98.06355123074" /><path d="M 185.9800911702706 98.14961562048488 a86.0,86.0 0 0,1 -9.607161424134198,41.387399972396054" fill="none" id="id16" stroke="none" /><text fill="#e1ed5e" style="font-size:6.75px; font-family:Arial;" text-anchor="middle"><textPath startOffset="21.466115282336823" xlink:href="#id16">April</textPath></text><path d="M 120.99513854157772 99.54816195383933 l 11.31077572303122 -0.2434201038080833 a32.31339475151691,32.31339475151691 0 0,0 0.007181256347989384,0.5561962181739384 l -11.313289986496926 0.04868762757368216" fill="#ff750a" stroke="none" /><path d="M 120.92983693683757 101.71520430193887 l 8.285483132520799 0.6789969914925148 a29.31325854606619,29.31325854606619 0 0,0 -0.045540804499994335,0.5025389828034047 l -8.27256773174373 -0.8215173628444901" fill="#ff4a06" stroke="none" /><path d="M 118.81262510543309 109.33194174019688 l 49.267950148284555 24.43920706791394 a75.99641582796306,75.99641582796306 0 0,0 -0.591401684099122,1.1668916290198756 l -48.83996979439916 -25.28365290863651" fill="#43ffdc" stroke="none" /><line stroke="#e1ed5e" stroke-width="0.3" x1="174.80103733775053" x2="179.2010983576182" y1="140.37084112569926" y2="142.7455964860345" /><path d="M 175.68104954172406 140.8457921977663 a86.0,86.0 0 0,1 -30.038265399797805,32.042727171017184" fill="none" id="id17" stroke="none" /><text fill="#e1ed5e" style="font-size:6.75px; font-family:Arial;" text-anchor="middle"><textPath startOffset="22.206326154141568" xlink:href="#id17">May</textPath></text><path d="M 118.48025628344425 109.97397251340804 l 6.535702478648282 3.5273816487193015 a28.426831638399445,28.426831638399445 0 0,0 -0.23611000201366944,0.4286082364409186 l -6.474016067183102 -3.639360403558025" fill="#ff3d05" stroke="none" /><path d="M 115.32070863581623 114.36230785411682 l 35.17870863602291 32.97807270870543 a69.21923704165025,69.21923704165025 0 0,0 -0.8223688647827735,0.8622504669373436 l -34.605833219861175 -33.57873029222529" fill="#3aff92" stroke="none" /><path d="M 112.92097659922987 116.55440617244103 l 4.939128626391577 6.328031073447674 a29.02738866970823,29.02738866970823 0 0,0 -0.3965297093425121,0.3040420722296059 l -4.829470188555572 -6.412112487504651" fill="#ff4606" stroke="none" /><path d="M 112.63410532772338 116.77436683061366 l 11.631977465807095 15.443836497763309 a40.33429557896253,40.33429557896253 0 0,0 -0.558178690610789,0.412927251146022 l -11.364413804777742 -15.6417736976491" fill="#ffe115" stroke="none" /><path d="M 112.34349029814194 116.9893568818739 l 4.796645731296002 6.602016463461047 a29.16054113741061,29.16054113741061 0 0,0 -0.40862620770849273,0.2915439495012883 l -4.682292195738626 -6.6836046748065545" fill="#ff4806" stroke="none" /><path d="M 112.04921762599082 117.19931262002967 l 18.378860351406388 26.234380903026747 a53.03162888742301,53.03162888742301 0 0,0 -0.7521478838739604,0.5173341729790832 l -17.924555582909544 -26.546855865370926" fill="#84ff25" stroke="none" /><line stroke="#e1ed5e" stroke-width="0.3" x1="143.8653032363475" x2="146.44561519142675" y1="172.8068346515853" y2="177.08958963109032" /><path d="M 144.38136562736335 173.6633856474863 a86.0,86.0 0 0,1 -40.68145358897372,12.25698825130547" fill="none" id="id18" stroke="none" /><text fill="#e1ed5e" style="font-size:6.75px; font-family:Arial;" text-anchor="middle"><textPath startOffset="21.466115282336833" xlink:href="#id18">June</textPath></text><path d="M 105.53697534728816 120.25689768951611 l 2.3344728670424533 8.540615599777075 a29.85391881542365,29.85391881542365 0 0,0 -0.49686809264382026,0.13122737923105257 l -2.1871143315871358 -8.579534328311711" fill="#ff5207" stroke="none" /><path d="M 101.26447882468166 120.96189622390904 l 0.19931068067755636 3.3040725737193872 a24.3100785972295,24.3100785972295 0 0,0 -0.4179156395907595,0.021601464964302968 l -0.14240697267331726 -3.307013845445892" fill="#ff0000" stroke="none" /><line stroke="#e1ed5e" stroke-width="0.3" x1="102.19456741930631" x2="102.32365962044197" y1="184.97166512339345" y2="189.96999836594603" /><path d="M 102.22038585953345 185.97133177190398 a86.0,86.0 0 0,1 -42.740103519485714,-10.115201625700543" fill="none" id="id19" stroke="none" /><text fill="#e1ed5e" style="font-size:6.75px; font-family:Arial;" text-anchor="middle"><textPath startOffset="22.20632615414155" xlink:href="#id19">July</textPath></text><path d="M 99.45781275523022 120.99299961872073 l -0.6356963381565703 24.613587120090926 a45.621794832072084,45.621794832072084 0 0,0 -0.7848679044239328,-0.027032437583755512 l 1.059284594255146 -24.598997884081076" fill="#daff1b" stroke="none" /><path d="M 98.37488393609728 120.93702456842531 l -1.796254322225191 23.14186765544167 a44.21147492453011,44.21147492453011 0 0,0 -0.7582387578617554,-0.0654240305306141 l 2.1943373978284884 -23.107519372632392" fill="#ecff1a" stroke="none" /><path d="M 97.65516085044442 120.86867818915974 l -2.5913599760652755 23.062672517654082 a44.20780063216051,44.20780063216051 0 0,0 -0.7554746349568506,-0.0914774572707493 l 2.987962034073515 -23.014649531657984" fill="#ecff1a" stroke="none" /><path d="M 95.51606077576429 120.51570834832081 l -4.9913338201991495 22.837229454591885 a44.37632268913019,44.37632268913019 0 0,0 -0.7448456948551776,-0.16952445513964934 l 5.38369966444719 -22.74792826587455" fill="#eaff1a" stroke="none" /><path d="M 94.81253420990036 120.34920634021253 l -5.554407591295772 21.788632589854537 a43.4854609431498,43.4854609431498 0 0,0 -0.7237421046846936,-0.19114686783685517 l 5.9286401387919545 -21.6897943727141" fill="#f5ff19" stroke="none" /><path d="M 93.08242187328487 119.8279376855182 l -3.110909221245803 8.91683665211547 a30.443925670151263,30.443925670151263 0 0,0 -0.4933082096759531,-0.17688277292437649 l 3.2639369915514824 -8.861966338151134" fill="#ff5b08" stroke="none" /><path d="M 91.40352486487194 119.15986991738527 l -7.236576259681266 16.12892000538151 a38.67795509956336,38.67795509956336 0 0,0 -0.6050926718322529,-0.2777683677167752 l 7.513136927280939 -16.00196456733066" fill="#ffcc13" stroke="none" /><line stroke="#e1ed5e" stroke-width="0.3" x1="58.666819895761336" x2="56.23545636021788" y1="174.27360380694188" y2="178.64263932499728" /><path d="M 58.180547188652646 175.14741091055294 a86.0,86.0 0 0,1 -31.652253787137756,-30.449443065178592" fill="none" id="id20" stroke="none" /><text fill="#e1ed5e" style="font-size:6.75px; font-family:Arial;" text-anchor="middle"><textPath startOffset="22.20632615414155" xlink:href="#id20">August</textPath></text><path d="M 89.7882731507175 118.34994917583269 l -28.2516570454573 50.7667780943066 a79.09838107805334,79.09838107805334 0 0,0 -1.1840320774486817,-0.6723243149143913 l 29.12133788982719 -50.27295061359758" fill="#47fffc" stroke="none" /><path d="M 89.4739219176387 118.17145234162733 l -31.57823424708386 54.51435702488198 a84.0,84.0 0 0,0 -1.2449285158864716,-0.735525710825002 l 32.511930633998716 -53.962712741763234" fill="#4dd2ff" stroke="none" /><path d="M 89.1626897886671 117.98757091392108 l -30.023411611609212 49.83231400693111 a79.17787177342854,79.17787177342854 0 0,0 -1.1613538767289775,-0.7133984053103093 l 30.8767446882705 -49.308127134792414" fill="#47fffd" stroke="none" /><path d="M 88.8546689885994 117.79835938074946 l -26.55313607201526 42.40360901010864 a71.03134110076527,71.03134110076527 0 0,0 -1.0306924884959758,-0.657836711685406 l 27.279110362558157 -41.94025786959943" fill="#3cffa7" stroke="none" /><path d="M 87.36589467227662 116.77436683061367 l -7.503136758848084 9.961953387945922 a33.4714705037371,33.4714705037371 0 0,0 -0.45723825250475314,-0.3505907943813282 l 7.673503739846324 -9.831323251737226" fill="#ff850c" stroke="none" /><path d="M 83.50135304334701 112.99209946851258 l -18.166455625741357 14.305439658176198 a44.12283965726853,44.12283965726853 0 0,0 -0.4647462541508598,-0.6007471819155019 l 18.410008697110285 -13.990614482147443" fill="#edff1a" stroke="none" /><path d="M 83.28015986056508 112.70617746262583 l -7.68864357125989 5.842954768023707 a30.656881504245924,30.656881504245924 0 0,0 -0.31567643921700067,-0.4229001774375884 l 7.788081277171976 -5.709741711076811" fill="#ff5e08" stroke="none" /><path d="M 82.85270091963577 112.12312394758628 l -9.733136781499608 6.881318337536362 a32.920003929105675,32.920003929105675 0 0,0 -0.32314760696023015,-0.4655182293136099 l 9.85014529562197 -6.712758846035739" fill="#ff7e0b" stroke="none" /><line stroke="#e1ed5e" stroke-width="0.3" x1="26.63291911575756" x2="22.317208475507996" y1="142.92168965132927" y2="145.44649492493687" /><path d="M 25.769776987707644 143.4266507060508 a86.0,86.0 0 0,1 -11.730757126820373,-40.83630448921669" fill="none" id="id21" stroke="none" /><text fill="#e1ed5e" style="font-size:6.75px; font-family:Arial;" text-anchor="middle"><textPath startOffset="21.46611528233685" xlink:href="#id21">September</textPath></text><path d="M 80.87730276802145 108.67885076344099 l -21.215421639418633 9.628635336237048 a44.29817018086496,44.29817018086496 0 0,0 -0.3091567509569872,-0.6970668584093562 l 21.3780194751069 -9.262020141334997" fill="#ebff1a" stroke="none" /><path d="M 80.58989483394504 108.01547362559985 l -21.672268556625774 8.949642237196468 a44.44745872294738,44.44745872294738 0 0,0 -0.2859397845891836,-0.7096790955992891 l 21.823110955472345 -8.575263773754374" fill="#e9ff1a" stroke="none" /><path d="M 79.67330655649465 105.27499134158121 l -22.43915907459889 5.823198453789456 a44.18243947921292,44.18243947921292 0 0,0 -0.18470087110086766,-0.7377881672795031 l 22.536071259994817 -5.436082447112561" fill="#ecff1a" stroke="none" /><path d="M 79.04373962182676 101.35467743843564 l -10.157791883785528 0.6566310611229595 a31.17899308894208,31.17899308894208 0 0,0 -0.030011486951426258,-0.535875260094339 l 10.167589721624486 -0.481684084693183" fill="#ff6509" stroke="none" /><line stroke="#e1ed5e" stroke-width="0.3" x1="15.007084014347285" x2="10.007500721073583" y1="101.09737516637583" y2="101.16192664675087" /><path d="M 14.007167355692545 101.11028546245083 a86.0,86.0 0 0,1 10.666146001902534,-42.60595125391555" fill="none" id="id22" stroke="none" /><text fill="#e1ed5e" style="font-size:6.75px; font-family:Arial;" text-anchor="middle"><textPath startOffset="22.20632615414155" xlink:href="#id22">October</textPath></text><path d="M 79.32604984820605 96.31383870115002 l -22.82419765100622 -4.06955001055477 a44.184159154487446,44.184159154487446 0 0,0 0.13994654099105683,-0.7476000179272452 l 22.7507653861053 4.461828105944588" fill="#ecff1a" stroke="none" /><path d="M 79.54389044137918 95.25157060432595 l -22.73736678902704 -5.277972359887872 a44.34191167686336,44.34191167686336 0 0,0 0.17898760399666602,-0.7420191723668774 l 22.643146384769558 5.668576763914146" fill="#eaff1a" stroke="none" /><path d="M 79.81627453868168 94.20196356495316 l -17.001981343518548 -4.884039246700523 a38.68957910660013,38.68957910660013 0 0,0 0.189383836923267,-0.6385081503567948 l 16.915391609483574 5.175976783803856" fill="#ffcc13" stroke="none" /><path d="M 81.10775173730289 90.83032412892265 l -7.7388779309079005 -3.75619678746103 a29.602281437829497,29.602281437829497 0 0,0 0.22644333841535047,-0.45649595248553604 l 7.673074579539137 3.888852328445527" fill="#ff4e07" stroke="none" /><line stroke="#e1ed5e" stroke-width="0.3" x1="26.266209847984243" x2="21.928928074336255" y1="57.711370442889674" y2="55.22380399835377" /><path d="M 25.398753493254645 57.213857153982495 a86.0,86.0 0 0,1 29.58750427330803,-30.492523968695096" fill="none" id="id23" stroke="none" /><text fill="#e1ed5e" style="font-size:6.75px; font-family:Arial;" text-anchor="middle"><textPath startOffset="21.46611528233685" xlink:href="#id23">November</textPath></text><line stroke="#e1ed5e" stroke-width="0.3" x1="56.762969772571076" x2="54.21961505331055" y1="26.818313649435495" y2="22.513508569990535" /><path d="M 56.25429882871897 25.957352633546506 a86.0,86.0 0 0,1 42.265352541879196,-11.944610805530505" fill="none" id="id24" stroke="none" /><text fill="#e1ed5e" style="font-size:6.75px; font-family:Arial;" text-anchor="middle"><textPath startOffset="22.20632615414155" xlink:href="#id24">December</textPath></text></svg>