<?xml version="1.0" encoding="utf-8" ?>
<svg baseProfile="full" height="200mm" version="1.1" viewBox="0,0,200,200" width="200mm" xmlns="http://www.w3.org/2000/svg" xmlns:ev="http://www.w3.org/2001/xml-events" xmlns:xlink="http://www.w3.org/1999/xlink"><defs /><rect fill="#1a1a1a" height="200" width="200" x="0" y="0" /><text alignment-baseline="middle" fill="#e1ed5e" style="dominant-baseline: central; font-size:9.0px; font-family:Arial;" text-anchor="middle" x="100.0" y="100.0">2025</text><line stroke="#e1ed5e" stroke-width="0.3" x1="100.0" x2="100.0" y1="15.0" y2="10.0" /><path d="M 100.0 14.0 a86.0,86.0 0 0,1 42.46469731375804,11.215312516191453" fill="none" id="id133" stroke="none" /><text fill="#e1ed5e" style="font-size:6.75px; font-family:Arial;" text-anchor="middle"><textPath startOffset="22.20632615414155" xlink:href="#id133">January</textPath></text><path d="M 100.0 79.0 l 0.0 -14.967547211590485 a35.967547211590485,35.967547211590485 0 0,0 0.6191222002049057,0.005328980241018067 l -0.25764172093237736 14.965329607958026" fill="#ffa60f" stroke="none" /><path d="M 100.36148047927253 79.00311137660856 l 0.2590083861489039 -15.044713472322213 a36.04694283927366,36.04694283927366 0 0,0 0.6203050011793614,0.016020648102448656 l -0.5179400225231331 15.038026032077404" fill="#ffa70f" stroke="none" /><path d="M 102.16513564639614 79.11191278185805 l 3.3718830974370766 -32.53015040691729 a53.704438248033604,53.704438248033604 0 0,0 0.9186867803809289,0.10322516401327968 l -3.931336581327731 32.46728928943342" fill="#7dff26" stroke="none" /><path d="M 102.52436894288641 79.15227682838746 l 4.0875072528950245 -33.757038530539596 a55.00360813053233,55.00360813053233 0 0,0 0.9389515901772345,0.12190286449608088 l -4.667973571580105 33.681677342879375" fill="#6fff27" stroke="none" /><path d="M 103.2404852339499 79.25152402106235 l 1.4951772191363768 -9.573457792829275 a30.689512321459112,30.689512321459112 0 0,0 0.5212406058526473,0.08600916612753827 l -1.6597470311278995 9.546302363762111" fill="#ff5c08" stroke="none" /><path d="M 105.01212808612495 79.60689891045804 l 7.832207375690405 -31.86730147796321 a53.815672716907926,53.815672716907926 0 0,0 0.8976738953413645,0.22883706346555624 l -8.379590159716795 31.727761418328786" fill="#7cff26" stroke="none" /><path d="M 105.36241919743992 79.69619591428918 l 3.8933812224644604 -14.741564704535447 a36.247037328000616,36.247037328000616 0 0,0 0.6018770678886075,0.16451573869191416 l -4.146556179576779 14.672362425017239" fill="#ffa90f" stroke="none" /><path d="M 105.71112130821622 79.79150937346287 l 14.067618766978537 -49.77750018743268 a72.72714396410174,72.72714396410174 0 0,0 1.201763352027615,0.3508276769777873 l -14.922372336729579 49.52797418153619" fill="#3effb9" stroke="none" /><path d="M 106.0581310904928 79.89281104454417 l 9.429035695035 -31.295361482906515 a53.68495624112158,53.68495624112158 0 0,0 0.8825158171342946,0.27420196025049937 l -9.966336884880011 31.128419387773494" fill="#7eff26" stroke="none" /><path d="M 106.40334571778207 80.00007090966166 l 9.968979291542594 -31.136672564816976 a53.69362210774192,53.69362210774192 0 0,0 0.8778068002672427,0.28939910082891657 l -10.503468914052254 30.960459739728826" fill="#7dff26" stroke="none" /><path d="M 106.74666289553966 80.11325718540242 l 11.078089331044978 -32.654234666041795 a55.48221432639642,55.48221432639642 0 0,0 0.9017656287627406,0.3146083212430482 l -11.638536963870992 32.45870549162654" fill="#6aff28" stroke="none" /><path d="M 107.08798089147638 80.2323363322302 l 10.836996623776772 -30.223290342837664 a53.107441115280636,53.107441115280636 0 0,0 0.8578563171093022,0.3159557213386284 l -11.35563526665865 30.03227135369271" fill="#84ff25" stroke="none" /><path d="M 108.43124777332544 80.76684994638697 l 12.59739599604515 -28.73686244202948 a52.37676925518781,52.37676925518781 0 0,0 0.8226092893952534,0.3690808096664095 l -13.090187403907183 28.515761301846542" fill="#8cff24" stroke="none" /><path d="M 109.73455568895987 81.39251694778311 l 3.7394435907343606 -7.147900270191529 a29.066964524583483,29.066964524583483 0 0,0 0.44134026766901413,0.2357486864073997 l -3.8619289049316863 7.082472857282375" fill="#ff4406" stroke="none" /><line stroke="#e1ed5e" stroke-width="0.3" x1="143.23703022742887" x2="145.7803849466894" y1="26.81831364943548" y2="22.513508569990506" /><path d="M 143.74570117128098 25.957352633546492 a86.0,86.0 0 0,1 28.547481713284135,27.462654790039103" fill="none" id="id134" stroke="none" /><text fill="#e1ed5e" style="font-size:6.75px; font-family:Arial;" text-anchor="middle"><textPath startOffset="19.985693538727396" xlink:href="#id134">February</textPath></text><path d="M 110.68208982089419 81.91981866633111 l 16.930759892600232 -28.65649082787773 a54.284307069685575,54.284307069685575 0 0,0 0.8004038418030825,0.4822343589066449 l -17.421525800620955 28.360809859512468" fill="#77ff27" stroke="none" /><path d="M 111.2981086023043 82.29822771554956 l 1.8727360758421367 -2.934185599585367 a24.480888613928165,24.480888613928165 0 0,0 0.3532626899105906,0.22977188015885724 l -1.9229657915370075 2.9015147952669817" fill="#ff0000" stroke="none" /><path d="M 113.06298171725822 83.55741782278167 l 19.9606713884851 -25.124813516657323 a53.08869982604303,53.08869982604303 0 0,0 0.7106215759871708,0.5746065606968782 l -20.39019636303676 24.777500858696314" fill="#84ff25" stroke="none" /><path d="M 114.42810811169701 84.74124197986012 l 5.300721235947364 -5.605892473592254 a28.71515884779449,28.71515884779449 0 0,0 0.3562276210562662,0.34269068921735385 l -5.396432100616048 5.5138186976125985" fill="#ff3f05" stroke="none" /><path d="M 114.68862486808459 84.99185889309783 l 22.53654835936816 -23.026777583164453 a53.220001517980485,53.220001517980485 0 0,0 0.6491932906641595,0.6464054483610993 l -22.92957745019964 22.635436284153236" fill="#83ff25" stroke="none" /><path d="M 115.19652480421416 85.50635884689758 l 30.147370124654167 -28.7529662160212 a62.66049677635334,62.66049677635334 0 0,0 0.7377010678418577,0.7869280644542112 l -30.637838514466488 28.229768734688932" fill="#31ff43" stroke="none" /><path d="M 115.4437574822437 85.77008943001954 l 23.939596555349535 -22.057994529874275 a53.552410139847815,53.552410139847815 0 0,0 0.6188015657510652,0.6832961443795316 l -24.315741761716634 21.642645598225194" fill="#7fff26" stroke="none" /><path d="M 115.68641384162765 86.03803664274999 l 23.61752442897568 -21.021185211322987 a52.61767998829148,52.61767998829148 0 0,0 0.596354093184305,0.6817358187383605 l -23.975870385737835 20.61153383638168" fill="#89ff24" stroke="none" /><path d="M 115.9244219780498 86.31012108654704 l 31.92490510180987 -27.445145938086796 a63.10030405261283,63.10030405261283 0 0,0 0.7009824391052579,0.8297421066576786 l -32.39259815440224 26.891544881800012" fill="#32ff49" stroke="none" /><path d="M 116.38621287248628 86.86637796730983 l 48.54122750832976 -38.906008365586096 a83.2087474151223,83.2087474151223 0 0,0 0.8861569913466497,1.1253293883588187 l -49.203738580270375 38.06468658327424" fill="#4cd9ff" stroke="none" /><path d="M 117.65298651832404 88.62581576622439 l 29.784520303540468 -19.190782301648895 a56.4316775648754,56.4316775648754 0 0,0 0.5190972763371503,0.821087229684816 l -30.110445176123573 18.675247424249875" fill="#60ff29" stroke="none" /><line stroke="#e1ed5e" stroke-width="0.3" x1="172.23445277983987" x2="176.4835382374775" y1="55.19839476539836" y2="52.563006222186495" /><path d="M 173.08426987136738 54.67131705675599 a86.0,86.0 0 0,1 12.851231095245387,41.99856678651699" fill="none" id="id135" stroke="none" /><text fill="#e1ed5e" style="font-size:6.75px; font-family:Arial;" text-anchor="middle"><textPath startOffset="22.20632615414155" xlink:href="#id135">March</textPath></text><path d="M 117.84615892207809 88.93136811851018 l 11.28008005190442 -6.99618636331901 a34.273538699520294,34.273538699520294 0 0,0 0.30664078373645626,0.5040368226974344 l -11.3988366339271 6.800981767414495" fill="#ff8e0d" stroke="none" /><path d="M 118.3937258080291 89.86733742301442 l 27.900245606865052 -15.369576425129932 a52.85353331125611,52.85353331125611 0 0,0 0.4321201712966547,0.8006530497324729 l -28.160673877380173 14.887042392065" fill="#87ff25" stroke="none" /><path d="M 118.56541770881063 90.18545643968196 l 25.451105047322084 -13.454638245312907 a49.78864426196657,49.78864426196657 0 0,0 0.3940191910516926,0.761119663322249 l -25.678933671533894 13.014545859730314" fill="#aaff21" stroke="none" /><path d="M 119.04729006885535 91.15688171328212 l 35.759742161161974 -16.602237309902613 a60.42579667079801,60.42579667079801 0 0,0 0.4298797151552916,0.9471829696291075 l -36.04022419328061 15.984232331431441" fill="#36ff2f" stroke="none" /><path d="M 119.196687751892 91.48605970444005 l 57.59006325567602 -25.541820886679833 a84.0,84.0 0 0,0 0.574837160629277,1.3268034216535889 l -58.02119112614798 24.54671832043964" fill="#4dd2ff" stroke="none" /><line stroke="#e1ed5e" stroke-width="0.3" x1="184.98032266829074" x2="189.97916517819016" y1="98.17113171792111" y2="98.06355123074" /><path d="M 185.9800911702706 98.14961562048488 a86.0,86.0 0 0,1 -9.607161424134198,41.387399972396054" fill="none" id="id136" stroke="none" /><text fill="#e1ed5e" style="font-size:6.75px; font-family:Arial;" text-anchor="middle"><textPath startOffset="21.466115282336823" xlink:href="#id136">April</textPath></text><line stroke="#e1ed5e" stroke-width="0.3" x1="174.80103733775053" x2="179.2010983576182" y1="140.37084112569926" y2="142.7455964860345" /><path d="M 175.68104954172406 140.8457921977663 a86.0,86.0 0 0,1 -30.038265399797805,32.042727171017184" fill="none" id="id137" stroke="none" /><text fill="#e1ed5e" style="font-size:6.75px; font-family:Arial;" text-anchor="middle"><textPath startOffset="22.206326154141568" xlink:href="#id137">May</textPath></text><line stroke="#e1ed5e" stroke-width="0.3" x1="143.8653032363475" x2="146.44561519142675" y1="172.8068346515853" y2="177.08958963109032" /><path d="M 144.38136562736335 173.6633856474863 a86.0,86.0 0 0,1 -40.68145358897372,12.25698825130547" fill="none" id="id138" stroke="none" /><text fill="#e1ed5e" style="font-size:6.75px; font-family:Arial;" text-anchor="middle"><textPath startOffset="21.466115282336833" xlink:href="#id138">June</textPath></text><line stroke="#e1ed5e" stroke-width="0.3" x1="102.19456741930631" x2="102.32365962044197" y1="184.97166512339345" y2="189.96999836594603" /><path d="M 102.22038585953345 185.97133177190398 a86.0,86.0 0 0,1 -42.740103519485714,-10.115201625700543" fill="none" id="id139" stroke="none" /><text fill="#e1ed5e" style="font-size:6.75px; font-family:Arial;" text-anchor="middle"><textPath startOffset="22.20632615414155" xlink:href="#id139">July</textPath></text><line stroke="#e1ed5e" stroke-width="0.3" x1="58.666819895761336" x2="56.23545636021788" y1="174.27360380694188" y2="178.64263932499728" /><path d="M 58.180547188652646 175.14741091055294 a86.0,86.0 0 0,1 -31.652253787137756,-30.449443065178592" fill="none" id="id140" stroke="none" /><text fill="#e1ed5e" style="font-size:6.75px; font-family:Arial;" text-anchor="middle"><textPath startOffset="22.20632615414155" xlink:href="#id140">August</textPath></text><line stroke="#e1ed5e" stroke-width="0.3" x1="26.63291911575756" x2="22.317208475507996" y1="142.92168965132927" y2="145.44649492493687" /><path d="M 25.769776987707644 143.4266507060508 a86.0,86.0 0 0,1 -11.730757126820373,-40.83630448921669" fill="none" id="id141" stroke="none" /><text fill="#e1ed5e" style="font-size:6.75px; font-family:Arial;" text-anchor="middle"><textPath startOffset="21.46611528233685" xlink:href="#id141">September</textPath></text><line stroke="#e1ed5e" stroke-width="0.3" x1="15.007084014347285" x2="10.007500721073583" y1="101.09737516637583" y2="101.16192664675087" /><path d="M 14.007167355692545 101.11028546245083 a86.0,86.0 0 0,1 10.666146001902534,-42.60595125391555" fill="none" id="id142" stroke="none" /><text fill="#e1ed5e" style="font-size:6.75px; font-family:Arial;" text-anchor="middle"><textPath startOffset="22.20632615414155" xlink:href="#id142">October</textPath></text><line stroke="#e1ed5e" stroke-width="0.3" x1="26.266209847984243" x2="21.928928074336255" y1="57.711370442889674" y2="55.22380399835377" /><path d="M 25.398753493254645 57.213857153982495 a86.0,86.0 0 0,1 29.58750427330803,-30.492523968695096" fill="none" id="id143" stroke="none" /><text fill="#e1ed5e" style="font-size:6.75px; font-family:Arial;" text-anchor="middle"><textPath startOffset="21.46611528233685" xlink:href="#id143">November</textPath></text><line stroke="#e1ed5e" stroke-width="0.3" x1="56.762969772571076" x2="54.21961505331055" y1="26.818313649435495" y2="22.513508569990535" /><path d="M 56.25429882871897 25.957352633546506 a86.0,86.0 0 0,1 42.265352541879196,-11.944610805530505" fill="none" id="id144" stroke="none" /><text fill="#e1ed5e" style="font-size:6.75px; font-family:Arial;" text-anchor="middle"><textPath startOffset="22.20632615414155" xlink:href="#id144">December</textPath></text></svg>