<?xml version="1.0" encoding="utf-8" ?>
<svg baseProfile="full" height="200mm" version="1.1" viewBox="0,0,200,200" width="200mm" xmlns="http://www.w3.org/2000/svg" xmlns:ev="http://www.w3.org/2001/xml-events" xmlns:xlink="http://www.w3.org/1999/xlink"><defs /><rect fill="#1a1a1a" height="200" width="200" x="0" y="0" /><text alignment-baseline="middle" fill="#e1ed5e" style="dominant-baseline: central; font-size:9.0px; font-family:Arial;" text-anchor="middle" x="100.0" y="100.0">2025</text><line stroke="#e1ed5e" stroke-width="0.3" x1="100.0" x2="100.0" y1="15.0" y2="10.0" /><path d="M 100.0 14.0 a86.0,86.0 0 0,1 42.46469731375804,11.215312516191453" fill="none" id="id133" stroke="none" /><text fill="#e1ed5e" style="font-size:6.75px; font-family:Arial;" text-anchor="middle"><textPath startOffset="22.20632615414155" xlink:href="#id133">January</textPath></text><path d="M 100.0 79.0 l 0.0 -7.136660169478226 a28.136660169478226,28.136660169478226 0 0,0 0.4843263525329166,0.004168749823537361 l -0.12284587326038823 7.135602796263248" fill="#ff4f07" stroke="none" /><path d="M 100.36148047927253 79.00311137660856 l 0.12349751143983842 -7.173453731683608 a28.174516713754127,28.174516713754127 0 0,0 0.4848342812670364,0.012521839084668076 l -0.24695842790174263 7.1702651004565805" fill="#ff4f07" stroke="none" /><path d="M 102.16513564639614 79.11191278185805 l 1.6077439715026598 -15.510666205642991 a36.59376820466364,36.59376820466364 0 0,0 0.6259857134839201,0.07033678869043292 l -1.8744963884963053 15.480693463481957" fill="#ffc111" stroke="none" /><path d="M 102.52436894288641 79.15227682838746 l 1.948959959291118 -16.095657418998297 a37.213224006121514,37.213224006121514 0 0,0 0.6352567957587052,0.08247456408159513 l -2.225731483557669 16.059724531752565" fill="#ffc912" stroke="none" /><path d="M 103.2404852339499 79.25152402106235 l 0.7129138498964467 -4.564710165828534 a25.62004600143684,25.62004600143684 0 0,0 0.4351391498138578,0.07180168813539449 l -0.7913822058491797 4.551762214753515" fill="#ff2b04" stroke="none" /><path d="M 105.01212808612495 79.60689891045804 l 3.734466417710647 -15.1946139171301 a36.64680579273777,36.64680579273777 0 0,0 0.6112881108229608,0.1558309503463267 l -3.9954634172186325 15.128079970614907" fill="#ffc212" stroke="none" /><path d="M 105.36241919743992 79.69619591428918 l 1.8563989344519973 -7.028909692108781 a28.269923552806816,28.269923552806816 0 0,0 0.46941819115943184,0.12830972401877394 l -1.97711501483514 6.995913427263713" fill="#ff5107" stroke="none" /><path d="M 105.71112130821622 79.79150937346287 l 6.7075662507986715 -23.73435659843805 a45.66396416131586,45.66396416131586 0 0,0 0.7545639172144497,0.22027789893989194 l -7.115120385736548 23.615380370579455" fill="#cdff1d" stroke="none" /><path d="M 106.0581310904928 79.89281104454417 l 4.495848419922512 -14.921907820108943 a36.58447900979523,36.58447900979523 0 0,0 0.6014046326637625,0.1868593468563759 l -4.752038425296993 14.842308338370046" fill="#ffc111" stroke="none" /><path d="M 106.40334571778207 80.00007090966166 l 4.753298348390192 -14.846243526884589 a36.588610972385304,36.588610972385304 0 0,0 0.5981666027194972,0.19720612430913992 l -5.008147773352107 14.762223678316213" fill="#ffc111" stroke="none" /><path d="M 106.74666289553966 80.11325718540242 l 5.282131919488311 -15.569830688456 a37.44142771422432,37.44142771422432 0 0,0 0.6085444320204214,0.21230920324877608 l -5.549358355572006 15.476600632035016" fill="#ffcc13" stroke="none" /><path d="M 107.08798089147638 80.2323363322302 l 5.16717676372436 -14.410734727015127 a36.30911464063068,36.30911464063068 0 0,0 0.5865092105548397,0.21601629200218717 l -5.414468300051776 14.319655167206616" fill="#ffbd11" stroke="none" /><path d="M 108.43124777332544 80.76684994638697 l 6.006550904646625 -13.701992630228274 a35.96072377289752,35.96072377289752 0 0,0 0.5647852253894455,0.2534026675380806 l -6.24151824850285 13.596569632173662" fill="#ffb911" stroke="none" /><path d="M 109.73455568895987 81.39251694778311 l 1.7830000969924265 -3.4081826790014103 a24.84640072266531,24.84640072266531 0 0,0 0.37725704506497065,0.20151764823486157 l -1.8414021885857084 3.3769863042647943" fill="#ff2003" stroke="none" /><line stroke="#e1ed5e" stroke-width="0.3" x1="143.23703022742887" x2="145.7803849466894" y1="26.81831364943548" y2="22.513508569990506" /><path d="M 143.74570117128098 25.957352633546492 a86.0,86.0 0 0,1 28.547481713284135,27.462654790039103" fill="none" id="id134" stroke="none" /><text fill="#e1ed5e" style="font-size:6.75px; font-family:Arial;" text-anchor="middle"><textPath startOffset="19.985693538727396" xlink:href="#id134">February</textPath></text><path d="M 110.68208982089419 81.91981866633111 l 8.072737507114898 -13.663670726888672 a36.870254837009206,36.870254837009206 0 0,0 0.5436395012266994,0.3275367166651897 l -8.306739074559236 13.522687400764868" fill="#ffc512" stroke="none" /><path d="M 111.2981086023043 82.29822771554956 l 0.8929372843439538 -1.3990458959235381 a22.6597187751761,22.6597187751761 0 0,0 0.32698295120635246,0.21267880708713102 l -0.9168872613345864 1.3834681646768792" fill="#ff0000" stroke="none" /><path d="M 113.06298171725822 83.55741782278167 l 9.517426365218588 -11.979735447304654 a36.30017862656399,36.30017862656399 0 0,0 0.48589794492519217,0.3928956795257598 l -9.722227708708271 11.814133670514765" fill="#ffbd11" stroke="none" /><path d="M 114.42810811169701 84.74124197986012 l 2.5274312203136913 -2.6729395915773644 a24.67865663437594,24.67865663437594 0 0,0 0.30615255135192837,0.29451851183620653 l -2.573067015278038 2.629037992978856" fill="#ff1e03" stroke="none" /><path d="M 114.68862486808459 84.99185889309783 l 10.74562750730965 -10.979373178923233 a36.3627844457933,36.3627844457933 0 0,0 0.44356398005927483,0.4416591753647316 l -10.933027287536246 10.792778152908381" fill="#ffbe11" stroke="none" /><path d="M 115.19652480421416 85.50635884689758 l 14.3745352890238 -13.709671053472931 a40.86409688784829,40.86409688784829 0 0,0 0.4810923861352955,0.5131958143325664 l -14.608394997129558 13.46020582226231" fill="#fff717" stroke="none" /><path d="M 115.4437574822437 85.77008943001954 l 11.414613416261036 -10.517448767959792 a36.52127984508189,36.52127984508189 0 0,0 0.4220057527262155,0.46598929237326137 l -11.593962809603287 10.319406688316981" fill="#ffc011" stroke="none" /><path d="M 115.68641384162765 86.03803664274999 l 11.26104655032781 -10.023088826250769 a36.075592161754805,36.075592161754805 0 0,0 0.4088706886068975,0.46740987752287394 l -11.431909102512556 9.827763392524947" fill="#ffba11" stroke="none" /><path d="M 115.9244219780498 86.31012108654704 l 15.222079839375908 -13.086090666223987 a41.073800924612385,41.073800924612385 0 0,0 0.4562896104502429,0.5401029776213065 l -15.445080063313268 12.822128738973573" fill="#fffa17" stroke="none" /><path d="M 116.38621287248628 86.86637796730983 l 23.144890745226263 -18.550732216234664 a50.66168628663763,50.66168628663763 0 0,0 0.5395371146778685,0.6851573447890542 l -23.460781940498094 18.149582477492572" fill="#94ff23" stroke="none" /><path d="M 117.65298651832404 88.62581576622439 l 14.201525254097087 -9.150336373567505 a37.89414026496139,37.89414026496139 0 0,0 0.3485762934845481,0.551363985514608 l -14.356929143827589 8.90452474033869" fill="#ffd213" stroke="none" /><line stroke="#e1ed5e" stroke-width="0.3" x1="172.23445277983987" x2="176.4835382374775" y1="55.19839476539836" y2="52.563006222186495" /><path d="M 173.08426987136738 54.67131705675599 a86.0,86.0 0 0,1 12.851231095245387,41.99856678651699" fill="none" id="id135" stroke="none" /><text fill="#e1ed5e" style="font-size:6.75px; font-family:Arial;" text-anchor="middle"><textPath startOffset="22.20632615414155" xlink:href="#id135">March</textPath></text><path d="M 117.84615892207809 88.93136811851018 l 5.378442898954972 -3.335844133411615 a27.328941783563494,27.328941783563494 0 0,0 0.24450840050890887,0.40190752128152135 l -5.435067097750105 3.242768838923012" fill="#ff4406" stroke="none" /><path d="M 118.3937258080291 89.86733742301442 l 13.303086252300872 -7.3283512885823505 a36.18804913229553,36.18804913229553 0 0,0 0.2958664257666383,0.5481955526229774 l -13.427260777285975 7.0982747526269145" fill="#ffbc11" stroke="none" /><path d="M 118.56541770881063 90.18545643968196 l 12.135314162882715 -6.415291664201777 a34.726682664381755,34.726682664381755 0 0,0 0.2748212893553507,0.5308672571750167 l -12.24394488539818 6.205451684766416" fill="#ffa90f" stroke="none" /><path d="M 119.04729006885535 91.15688171328212 l 17.050564394061272 -7.916095006004451 a39.79857192182743,39.79857192182743 0 0,0 0.2831340206327911,0.6238482836277066 l -17.184300731657412 7.621424713534681" fill="#ffea16" stroke="none" /><path d="M 119.196687751892 91.48605970444005 l 27.459456434935856 -12.178568285173636 a51.038962584929216,51.038962584929216 0 0,0 0.34927490873553113,0.8061746451825427 l -27.66502205351407 11.70409449540449" fill="#90ff24" stroke="none" /><path d="M 119.7369772167798 92.82701384747503 l 10.608305046778847 -3.855363684445719 a32.28715930182862,32.28715930182862 0 0,0 0.1853389325351591,0.5239781202859621 l -10.673097060123816 3.6721879377331423" fill="#ff880c" stroke="none" /><path d="M 120.08093135843002 93.85539295169968 l 37.97448701873615 -11.619894337866906 a60.71251199256164,60.71251199256164 0 0,0 0.2971851525890662,1.0019605958771782 l -38.16887806843692 10.964504355243198" fill="#30ff33" stroke="none" /><path d="M 120.28053869075195 94.5502522615342 l 14.71497234573388 -3.9541793482694025 a36.236992664367634,36.236992664367634 0 0,0 0.15668818361492926,0.6037834886010629 l -14.780856861219112 3.7002994341194895" fill="#ffbc11" stroke="none" /><path d="M 120.45610955862082 95.25157060432595 l 14.533572293914881 -3.373644519590276 a35.9199933299922,35.9199933299922 0 0,0 0.13462405209141703,0.6034932284019494 l -14.589490733008336 3.1229731216383625" fill="#ffb811" stroke="none" /><path d="M 120.6074358757038 95.95851677861258 l 21.18489249430734 -4.154732693531457 a42.588456956208304,42.588456956208304 0 0,0 0.13489239924944346,0.7206005906468013 l -21.253270617466644 3.789454025422093" fill="#f2ff19" stroke="none" /><path d="M 120.67395015179393 96.31383870115 l 62.02185045538181 -11.058483896549978 a84.0,84.0 0 0,0 0.2415525539191079,1.4256568467366484 l -62.20301487082114 9.98924126149749" fill="#4dd2ff" stroke="none" /><line stroke="#e1ed5e" stroke-width="0.3" x1="184.98032266829074" x2="189.97916517819016" y1="98.17113171792111" y2="98.06355123074" /><path d="M 185.9800911702706 98.14961562048488 a86.0,86.0 0 0,1 -9.607161424134198,41.387399972396054" fill="none" id="id136" stroke="none" /><text fill="#e1ed5e" style="font-size:6.75px; font-family:Arial;" text-anchor="middle"><textPath startOffset="21.466115282336823" xlink:href="#id136">April</textPath></text><line stroke="#e1ed5e" stroke-width="0.3" x1="174.80103733775053" x2="179.2010983576182" y1="140.37084112569926" y2="142.7455964860345" /><path d="M 175.68104954172406 140.8457921977663 a86.0,86.0 0 0,1 -30.038265399797805,32.042727171017184" fill="none" id="id137" stroke="none" /><text fill="#e1ed5e" style="font-size:6.75px; font-family:Arial;" text-anchor="middle"><textPath startOffset="22.206326154141568" xlink:href="#id137">May</textPath></text><line stroke="#e1ed5e" stroke-width="0.3" x1="143.8653032363475" x2="146.44561519142675" y1="172.8068346515853" y2="177.08958963109032" /><path d="M 144.38136562736335 173.6633856474863 a86.0,86.0 0 0,1 -40.68145358897372,12.25698825130547" fill="none" id="id138" stroke="none" /><text fill="#e1ed5e" style="font-size:6.75px; font-family:Arial;" text-anchor="middle"><textPath startOffset="21.466115282336833" xlink:href="#id138">June</textPath></text><line stroke="#e1ed5e" stroke-width="0.3" x1="102.19456741930631" x2="102.32365962044197" y1="184.97166512339345" y2="189.96999836594603" /><path d="M 102.22038585953345 185.97133177190398 a86.0,86.0 0 0,1 -42.740103519485714,-10.115201625700543" fill="none" id="id139" stroke="none" /><text fill="#e1ed5e" style="font-size:6.75px; font-family:Arial;" text-anchor="middle"><textPath startOffset="22.20632615414155" xlink:href="#id139">July</textPath></text><line stroke="#e1ed5e" stroke-width="0.3" x1="58.666819895761336" x2="56.23545636021788" y1="174.27360380694188" y2="178.64263932499728" /><path d="M 58.180547188652646 175.14741091055294 a86.0,86.0 0 0,1 -31.652253787137756,-30.449443065178592" fill="none" id="id140" stroke="none" /><text fill="#e1ed5e" style="font-size:6.75px; font-family:Arial;" text-anchor="middle"><textPath startOffset="22.20632615414155" xlink:href="#id140">August</textPath></text><line stroke="#e1ed5e" stroke-width="0.3" x1="26.63291911575756" x2="22.317208475507996" y1="142.92168965132927" y2="145.44649492493687" /><path d="M 25.769776987707644 143.4266507060508 a86.0,86.0 0 0,1 -11.730757126820373,-40.83630448921669" fill="none" id="id141" stroke="none" /><text fill="#e1ed5e" style="font-size:6.75px; font-family:Arial;" text-anchor="middle"><textPath startOffset="21.46611528233685" xlink:href="#id141">September</textPath></text><line stroke="#e1ed5e" stroke-width="0.3" x1="15.007084014347285" x2="10.007500721073583" y1="101.09737516637583" y2="101.16192664675087" /><path d="M 14.007167355692545 101.11028546245083 a86.0,86.0 0 0,1 10.666146001902534,-42.60595125391555" fill="none" id="id142" stroke="none" /><text fill="#e1ed5e" style="font-size:6.75px; font-family:Arial;" text-anchor="middle"><textPath startOffset="22.20632615414155" xlink:href="#id142">October</textPath></text><line stroke="#e1ed5e" stroke-width="0.3" x1="26.266209847984243" x2="21.928928074336255" y1="57.711370442889674" y2="55.22380399835377" /><path d="M 25.398753493254645 57.213857153982495 a86.0,86.0 0 0,1 29.58750427330803,-30.492523968695096" fill="none" id="id143" stroke="none" /><text fill="#e1ed5e" style="font-size:6.75px; font-family:Arial;" text-anchor="middle"><textPath startOffset="21.46611528233685" xlink:href="#id143">November</textPath></text><line stroke="#e1ed5e" stroke-width="0.3" x1="56.762969772571076" x2="54.21961505331055" y1="26.818313649435495" y2="22.513508569990535" /><path d="M 56.25429882871897 25.957352633546506 a86.0,86.0 0 0,1 42.265352541879196,-11.944610805530505" fill="none" id="id144" stroke="none" /><text fill="#e1ed5e" style="font-size:6.75px; font-family:Arial;" text-anchor="middle"><textPath startOffset="22.20632615414155" xlink:href="#id144">December</textPath></text></svg>