<?xml version="1.0" encoding="utf-8" ?>
<svg baseProfile="full" height="200mm" version="1.1" viewBox="0,0,200,200" width="200mm" xmlns="http://www.w3.org/2000/svg" xmlns:ev="http://www.w3.org/2001/xml-events" xmlns:xlink="http://www.w3.org/1999/xlink"><defs /><rect fill="#1a1a1a" height="200" width="200" x="0" y="0" /><text alignment-baseline="middle" fill="#e1ed5e" style="dominant-baseline: central; font-size:9.0px; font-family:Arial;" text-anchor="middle" x="100.0" y="100.0">2019</text><line stroke="#e1ed5e" stroke-width="0.3" x1="100.0" x2="100.0" y1="15.0" y2="10.0" /><path d="M 100.0 14.0 a86.0,86.0 0 0,1 42.46469731375804,11.215312516191453" fill="none" id="id49" stroke="none" /><text fill="#e1ed5e" style="font-size:6.75px; font-family:Arial;" text-anchor="middle"><textPath startOffset="22.20632615414155" xlink:href="#id49">January</textPath></text><path d="M 100.0 79.0 l 0.0 -0.5655905032683215 a21.56559050326832,21.56559050326832 0 0,0 0.37121619004364376,0.003195174944839445 l -0.009735710771115399 0.5655067049320409" fill="#ff0701" stroke="none" /><path d="M 102.52436894288641 79.15227682838746 l 0.014776271479366856 -0.1220311389816904 a21.122922484029573,21.122922484029573 0 0,0 0.3605836476854792,0.046814106289556914 l -0.01687464767269216 0.12175870952799679" fill="#ff0000" stroke="none" /><path d="M 102.88285421437855 79.19881850522331 l 0.10023687934462336 -0.723257357003397 a21.73017027907214,21.73017027907214 0 0,0 0.370065854874452,0.054538087325165636 l -0.1126717146477311 0.7214247855172624" fill="#ff0901" stroke="none" /><path d="M 104.307194497241 79.44645832069477 l 0.18157222019666536 -0.8664461746518921 a21.885266877679292,21.885266877679292 0 0,0 0.36804482055686877,0.08044034254887496 l -0.19645976490706207 0.8631923340071466" fill="#ff0b01" stroke="none" /><path d="M 104.66035177308747 79.52364482259891 l 0.12303258922740565 -0.5405727116918139 a21.554396856626948,21.554396856626948 0 0,0 0.3610631550462286,0.08545198331677165 l -0.13231943123615775 0.5383748162341736" fill="#ff0601" stroke="none" /><path d="M 105.01212808612495 79.60689891045804 l 0.18281169516375065 -0.7438152648463571 a21.765951215226597,21.765951215226597 0 0,0 0.3630675828575835,0.0925540109073488 l -0.19558816670635923 0.7405582577701405" fill="#ff0901" stroke="none" /><path d="M 107.76421540070413 80.48803036053334 l 0.8710713467685139 -2.189057978790128 a23.35600087556559,23.35600087556559 0 0,0 0.3722681064266452,0.1518575077069177 l -0.9086233227835466 2.1737395848996313" fill="#ff2003" stroke="none" /><path d="M 108.76106565485865 80.91482961587045 l 0.4869793503692848 -1.06083942770093 a22.167274251858117,22.167274251858117 0 0,0 0.3454102443478752,0.16217474116704944 l -0.505167806016758 1.0522997038938777" fill="#ff0f01" stroke="none" /><path d="M 109.08828744355905 81.06846463323043 l 0.11211734068863816 -0.2335482249716229 a21.259065766689634,21.259065766689634 0 0,0 0.3285322703716995,0.16120935827140792 l -0.1161208780707695 0.231583706565383" fill="#ff0200" stroke="none" /><path d="M 110.36928655335952 81.73862282372117 l 1.1977685535579061 -2.109393275405269 a23.42573483674889,23.42573483674889 0 0,0 0.3489355429207544,0.20212598869057075 l -1.2339008289439888 2.0884631293246487" fill="#ff2103" stroke="none" /><line stroke="#e1ed5e" stroke-width="0.3" x1="143.23703022742887" x2="145.7803849466894" y1="26.81831364943548" y2="22.513508569990506" /><path d="M 143.74570117128098 25.957352633546492 a86.0,86.0 0 0,1 28.547481713284135,27.462654790039103" fill="none" id="id50" stroke="none" /><text fill="#e1ed5e" style="font-size:6.75px; font-family:Arial;" text-anchor="middle"><textPath startOffset="19.985693538727396" xlink:href="#id50">February</textPath></text><path d="M 110.99172775467656 82.1063720568725 l 0.9518912541704091 -1.54960060188859 a22.818614578501887,22.818614578501887 0 0,0 0.33291364172628757,0.2084704919074451 l -0.97842404826896 1.5329857686582007" fill="#ff1802" stroke="none" /><path d="M 111.2981086023043 82.29822771554956 l 0.5379763057436964 -0.8428963106942096 a21.99994634662243,21.99994634662243 0 0,0 0.3174623416192026,0.2064863377786639 l -0.5524056731471791 0.8335110487560177" fill="#ff0d01" stroke="none" /><path d="M 111.60114157652 82.49532879139004 l 0.34022591656005635 -0.513358342086386 a21.61586561983018,21.61586561983018 0 0,0 0.30838151743048325,0.20822057715449377 l -0.3490121283970815 0.5074258526332222" fill="#ff0701" stroke="none" /><path d="M 111.90073688211348 82.69761687909136 l 0.5947277607412855 -0.8646697822932082 a22.04945459254192,22.04945459254192 0 0,0 0.3108646140007581,0.21778052815626403 l -0.6095235143256945 0.8543044113730086" fill="#ff0d01" stroke="none" /><path d="M 112.77801427241765 83.33499621200491 l 0.3494440445657425 -0.4557426687925119 a21.574293061459553,21.574293061459553 0 0,0 0.29276053180789335,0.22850423876666923 l -0.3572371315330662 0.44966004080261857" fill="#ff0701" stroke="none" /><path d="M 113.06298171725822 83.55741782278167 l 0.7567577649525209 -0.9525429957572931 a22.216560920621,22.216560920621 0 0,0 0.29738094144626204,0.2404613731912937 l -0.7730421049632741 0.9393755253018697" fill="#ff1001" stroke="none" /><path d="M 113.34407831869373 83.78471172551755 l 1.3775175793025525 -1.6739143849497966 a23.167843179159743,23.167843179159743 0 0,0 0.30575205342939255,0.2560585517887844 l -1.4061271696910622 1.6499546757671928" fill="#ff1d03" stroke="none" /><path d="M 113.89432698308785 84.25364557470407 l 0.8713609694789523 -0.9875079717417007 a22.31698213100433,22.31698213100433 0 0,0 0.2858582372979425,0.25664634790073443 l -0.8882301943728849 0.9723626150716689" fill="#ff1101" stroke="none" /><path d="M 114.94478906791727 85.2469230424477 l 0.39443728618587665 -0.3893774352774647 a21.554252252892972,21.554252252892972 0 0,0 0.25837978862909206,0.26628308440690707 l -0.4010813385180777 0.3825301553204433" fill="#ff0601" stroke="none" /><path d="M 115.19652480421416 85.50635884689758 l 3.3996633724877054 -3.2424190133601254 a25.697977448267896,25.697977448267896 0 0,0 0.30254189449894864,0.32273059892791855 l -3.454972588957117 3.183418997554152" fill="#ff4106" stroke="none" /><path d="M 115.68641384162765 86.03803664274999 l 3.297800182333172 -2.935263966011148 a25.414890779256062,25.414890779256062 0 0,0 0.28804527579729833,0.3292855438969865 l -3.347837321708319 2.8780628659112137" fill="#ff3d05" stroke="none" /><path d="M 115.9244219780498 86.31012108654704 l 3.956653561877413 -3.4014489341746033 a26.217754522830177,26.217754522830177 0 0,0 0.2912535175417338,0.3447522986809794 l -4.014617692906264 3.3328376858645172" fill="#ff4806" stroke="none" /><path d="M 116.15771136456269 86.58626213691792 l 3.7798407320334246 -3.1379315795240927 a25.912617485344605,25.912617485344605 0 0,0 0.2819558176023075,0.3456444935492833 l -3.833295041712141 3.0724029163667086" fill="#ff4406" stroke="none" /><path d="M 116.38621287248628 86.86637796730983 l 3.468712639808756 -2.7801885100465453 a25.44538137047474,25.44538137047474 0 0,0 0.2709883672017639,0.3441277070466898 l -3.5160550876044843 2.7200684090468172" fill="#ff3d05" stroke="none" /><path d="M 116.82858285166822 87.43820079747576 l 0.5266651381747098 -0.3931324325425634 a21.657213266212285,21.657213266212285 0 0,0 0.22042648494073552,0.30066147773889706 l -0.5333542356290718 0.38400851113217266" fill="#ff0801" stroke="none" /><path d="M 117.04232023915458 87.72973835380427 l 1.8924259021785312 -1.3625234498539442 a23.331897499170605,23.331897499170605 0 0,0 0.2318605982907738,0.3279503732728605 l -1.915599120273188 1.3297465762492906" fill="#ff2003" stroke="none" /><path d="M 117.45458315368197 88.32363383020206 l 3.204770620261463 -2.143853847606192 a24.855731324714796,24.855731324714796 0 0,0 0.23483146311727798,0.3576644291882424 l -3.241198718736666 2.0883713544402753" fill="#ff3505" stroke="none" /><path d="M 117.65298651832404 88.62581576622439 l 3.274761806682278 -2.109996746005127 a24.89565798789591,24.89565798789591 0 0,0 0.22900733793144892,0.3622346123763908 l -3.3105967408596824 2.05331448591453" fill="#ff3605" stroke="none" /><line stroke="#e1ed5e" stroke-width="0.3" x1="172.23445277983987" x2="176.4835382374775" y1="55.19839476539836" y2="52.563006222186495" /><path d="M 173.08426987136738 54.67131705675599 a86.0,86.0 0 0,1 12.851231095245387,41.99856678651699" fill="none" id="id51" stroke="none" /><text fill="#e1ed5e" style="font-size:6.75px; font-family:Arial;" text-anchor="middle"><textPath startOffset="22.20632615414155" xlink:href="#id51">March</textPath></text><path d="M 117.84615892207809 88.93136811851018 l 1.198103902115289 -0.7430938560053141 a22.409837380372903,22.409837380372903 0 0,0 0.2004978288927096,0.32956571334513085 l -1.2107175292942225 0.7223603694531018" fill="#ff1302" stroke="none" /><path d="M 118.03404312379186 89.2402003453031 l 3.2560117622641562 -1.9426611101466973 a24.791509565447374,24.791509565447374 0 0,0 0.21549762983089324,0.3683553039640436 l -3.2889690665653766 1.8863263938287582" fill="#ff3405" stroke="none" /><path d="M 118.3937258080291 89.86733742301442 l 1.038357134408634 -0.5720060518014064 a22.185485749334315,22.185485749334315 0 0,0 0.1813842008602319,0.3360773767080944 l -1.0480494344873308 0.5540476917608533" fill="#ff0f01" stroke="none" /><path d="M 118.56541770881063 90.18545643968196 l 0.9667379386760657 -0.5110626520428645 a22.093511443190575,22.093511443190575 0 0,0 0.1748444376298713,0.33774380163416146 l -0.9753918094660534 0.49434612814835815" fill="#ff0e01" stroke="none" /><path d="M 118.73160827565052 90.50648371742162 l 1.0529129021180634 -0.5336352134476592 a22.18042031517507,22.18042031517507 0 0,0 0.16966963962465176,0.34204364010154986 l -1.0619425546961232 0.5154319848471595" fill="#ff0f01" stroke="none" /><path d="M 118.89224826269711 90.83032412892265 l 0.9981331198126838 -0.48446098408209626 a22.109491852139886,22.109491852139886 0 0,0 0.16323312142841634,0.34381058336428366 l -1.0063244350828564 0.4672079850772723" fill="#ff0e01" stroke="none" /><path d="M 119.04729006885535 91.15688171328212 l 1.037521413175456 -0.4816918600255569 a22.1438871145408,22.1438871145408 0 0,0 0.15753549658750435,0.3471085846091748 l -1.0456592267263074 0.4637612665743193" fill="#ff0f01" stroke="none" /><path d="M 119.47837535516314 92.15188598940014 l 1.0583327440707937 -0.4264172902088024 a22.141008283300973,22.141008283300973 0 0,0 0.1393897193892899,0.35473163188225204 l -1.0655160133417838 0.408136653430766" fill="#ff0f01" stroke="none" /><path d="M 119.61058180528143 92.48833698450437 l 1.0535124916812437 -0.4035388087258783 a22.128154306944012,22.128154306944012 0 0,0 0.13318557949170104,0.35687113733364983 l -1.0603026596745702 0.38534453436289523" fill="#ff0f01" stroke="none" /><path d="M 119.85752413597 93.16781622104841 l 0.5457055829894567 -0.18775557348714567 a21.577102017568254,21.577102017568254 0 0,0 0.11781375761414173,0.35224813964817153 l -0.5488566343753686 0.1783343309166601" fill="#ff0701" stroke="none" /><path d="M 119.97218684219823 93.5106431181261 l 4.490872972147518 -1.4591730819307407 a25.721983284065747,25.721983284065747 0 0,0 0.1331964108927627,0.42226902173162356 l -4.515324866808486 1.381653893772698" fill="#ff4106" stroke="none" /><path d="M 120.18372546131832 94.20196356495316 l 1.6674695066676228 -0.47900220266655325 a22.73490566482036,22.73490566482036 0 0,0 0.10481141134668309,0.3770624124234938 l -1.675467688580669 0.4502284868241075" fill="#ff1702" stroke="none" /><path d="M 120.28053869075195 94.5502522615342 l 1.1034882172569447 -0.29652725246208506 a22.142634962303195,22.142634962303195 0 0,0 0.09574440364923867,0.368942243860804 l -1.108428952776486 0.2774885830524307" fill="#ff0f01" stroke="none" /><path d="M 120.37134235888165 94.90015583598534 l 1.10623524862058 -0.27693940228957364 a22.140373560650694,22.140373560650694 0 0,0 0.0893703556150357,0.37049782122810826 l -1.110838404496435 0.25785634940205926" fill="#ff0f01" stroke="none" /><path d="M 120.45610955862082 95.25157060432595 l 1.1053808423357847 -0.25658949812136556 a22.134770891920102,22.134770891920102 0 0,0 0.08295860531514414,0.37188716107997283 l -1.1096338346529666 0.23752416749142885" fill="#ff0f01" stroke="none" /><path d="M 120.53481517161879 95.60439243477599 l 1.0799224955244593 -0.23116426671050028 a22.10438648784906,22.10438648784906 0 0,0 0.07643981476736321,0.3727476838533283 l -1.0837416062068195 0.21254092669376018" fill="#ff0e01" stroke="none" /><path d="M 120.6074358757038 95.95851677861258 l 1.119629386532327 -0.21957915614225643 a22.140957917277802,22.140957917277802 0 0,0 0.07012808513380965,0.3746270349517924 l -1.123243195575996 0.20027404372790125" fill="#ff0f01" stroke="none" /><path d="M 120.73433829027371 96.67025291283417 l 4.711664699203969 -0.7566507109241043 a25.772033584968444,25.772033584968444 0 0,0 0.06657052076518906,0.43861655612994244 l -4.723991113408458 0.6754350424020797" fill="#ff4206" stroke="none" /><path d="M 120.83666639777658 97.38593545837742 l 1.0891154410889818 -0.13663500686406044 a22.0976527543441,22.0976527543441 0 0,0 0.04410022982780154,0.37782383760811017 l -1.0913060239203725 0.11786743093109751" fill="#ff0e01" stroke="none" /><path d="M 120.87857604477298 97.74499172005257 l 1.1278746534247446 -0.1218170567169678 a22.134434056763624,22.134434056763624 0 0,0 0.03765264790022687,0.37915702591557027 l -1.1298044270072 0.1023845000969626" fill="#ff0f01" stroke="none" /><path d="M 120.98425023603335 99.18683210126433 l 4.544227129132386 -0.17609490853425447 a25.547637806373157,25.547637806373157 0 0,0 0.01324621363677641,0.4395773429626825 l -4.546585037224808 0.09784741814657287" fill="#ff3f05" stroke="none" /><line stroke="#e1ed5e" stroke-width="0.3" x1="184.98032266829074" x2="189.97916517819016" y1="98.17113171792111" y2="98.06355123074" /><path d="M 185.9800911702706 98.14961562048488 a86.0,86.0 0 0,1 -9.607161424134198,41.387399972396054" fill="none" id="id52" stroke="none" /><text fill="#e1ed5e" style="font-size:6.75px; font-family:Arial;" text-anchor="middle"><textPath startOffset="21.466115282336823" xlink:href="#id52">April</textPath></text><path d="M 120.9764740272857 100.99374915477107 l 1.1756375493685542 0.05569519545956309 a22.176956074916383,22.176956074916383 0 0,0 -0.021346533737192155,0.38115669966782273 l -1.1745046647438326 -0.07592361146280914" fill="#ff0f01" stroke="none" /><path d="M 120.95626037817324 101.35467743843564 l 17.826883378207317 1.1523848374795735 a38.864091406893806,38.864091406893806 0 0,0 -0.04890109711208936,0.6672166179919166 l -17.80440572243089 -1.4590745919682604" fill="#ffec16" stroke="none" /><path d="M 120.76222939487914 103.15116336523771 l 2.320679931981376 0.3522185139667948 a23.347256532269547,23.347256532269547 0 0,0 -0.0637249421384114,0.39681527552609525 l -2.314273235481676 -0.392113019186095" fill="#ff2003" stroke="none" /><path d="M 120.70491114924044 103.5080841355445 l 1.1407192126675043 0.19327486818104447 a22.156976878256074,22.156976878256074 0 0,0 -0.06694947666350878,0.3754882195909032 l -1.1372232936648068 -0.21288183850516604" fill="#ff0f01" stroke="none" /><path d="M 120.5718875245553 104.21870165774334 l 6.817696767174727 1.3981132562260186 a27.959576846790302,27.959576846790302 0 0,0 -0.10074229804619965,0.47063447763390553 l -6.792620430404084 -1.5152615532760931" fill="#ff6008" stroke="none" /><path d="M 120.49622156327973 104.57218783832717 l 1.067419848613356 0.23811432927533496 a22.09365605517457,22.09365605517457 0 0,0 -0.08599633059404686,0.37046994146607765 l -1.0631629520887562 -0.2564529280899775" fill="#ff0e01" stroke="none" /><path d="M 120.32669344350535 105.2749913415812 l 1.081741215389577 0.2807232549096542 a22.117573086164654,22.117573086164654 0 0,0 -0.09880438466021149,0.36768787145393106 l -1.0767487543875882 -0.2993020595391335" fill="#ff0e01" stroke="none" /><path d="M 120.23288151984713 105.62410040840565 l 2.034297465707086 0.5654702814563934 a23.111426725745567,23.111426725745567 0 0,0 -0.10984240758556164,0.3823758307754244 l -2.0242624212354245 -0.6004035877363998" fill="#ff1d02" stroke="none" /><path d="M 120.02730092923936 106.31721596034902 l 2.4400872968306206 0.7696772755672944 a23.558599055084414,23.558599055084414 0 0,0 -0.1253180033168691,0.38568915572000456 l -2.426477042497505 -0.8115653312650941" fill="#ff2303" stroke="none" /><path d="M 119.9155931802556 106.66101706037122 l 1.249337040915576 0.41785626309853896 a22.31736361662768,22.31736361662768 0 0,0 -0.12498698049949311,0.3632706704402398 l -1.241959229472852 -0.4392996366280791" fill="#ff1101" stroke="none" /><path d="M 119.41010516605496 108.01547362559984 l 1.0788611369992398 0.4455196360514954 a22.16723138196107,22.16723138196107 0 0,0 -0.14867775189677498,0.3514302867860617 l -1.071032403910156 -0.4640244485037206" fill="#ff0f01" stroke="none" /><path d="M 119.12269723197855 108.67885076344098 l 1.090622686615957 0.4949799404099866 a22.197690688771388,22.197690688771388 0 0,0 -0.1609072366842444,0.3465798728380805 l -1.0819408330918812 -0.5136798805268977" fill="#ff1001" stroke="none" /><path d="M 118.97047184881838 109.00673069616215 l 1.0282993360031536 0.48821216827032415 a22.138310434666984,22.138310434666984 0 0,0 -0.1664028669602225,0.34283919283918507 l -1.0197432124282169 -0.5058403170747846" fill="#ff0f01" stroke="none" /><line stroke="#e1ed5e" stroke-width="0.3" x1="174.80103733775053" x2="179.2010983576182" y1="140.37084112569926" y2="142.7455964860345" /><path d="M 175.68104954172406 140.8457921977663 a86.0,86.0 0 0,1 -30.038265399797805,32.042727171017184" fill="none" id="id53" stroke="none" /><text fill="#e1ed5e" style="font-size:6.75px; font-family:Arial;" text-anchor="middle"><textPath startOffset="22.206326154141568" xlink:href="#id53">May</textPath></text><path d="M 118.48025628344425 109.97397251340804 l 0.18874372541490922 0.101866808581709 a21.21447853173248,21.21447853173248 0 0,0 -0.17620502462469748,0.31986330190301665 l -0.18696229133870218 -0.1051006288825307" fill="#ff0100" stroke="none" /><path d="M 117.94076556474637 110.91462005526583 l 6.09708569459383 3.7092828374979647 a28.136752282080252,28.136752282080252 0 0,0 -0.2552879159352109,0.4116054059295984 l -6.032333138990657 -3.8136845747928367" fill="#ff6209" stroke="none" /><path d="M 117.75023020441432 111.22182372390056 l 1.8141693522885558 1.146930966090912 a23.146313369422394,23.146313369422394 0 0,0 -0.2158064565944602,0.3349364130674648 l -1.7941580323170454 -1.1779889790798297" fill="#ff1d02" stroke="none" /><path d="M 117.55443506779139 111.5257021239791 l 0.4664757036571183 0.3062735991026076 a21.558035034392706,21.558035034392706 0 0,0 -0.20633800454094348,0.30844732048061696 l -0.4611345937054538 -0.31425783378903144" fill="#ff0601" stroke="none" /><path d="M 116.27256486870786 113.27417163493432 l 3.9156415214381726 3.1941429046872165 a26.053196752549255,26.053196752549255 0 0,0 -0.28646606408210323,0.34506682823436413 l -3.860079457462526 -3.261070990035351" fill="#ff4606" stroke="none" /><path d="M 114.55890576462653 115.13401014063108 l 3.1816998890626103 3.307383066007058 a25.589335129337503,25.589335129337503 0 0,0 -0.3200667314400681,0.3026430721346791 l -3.1242973232317346 -3.361660774887658" fill="#ff3f05" stroke="none" /><path d="M 114.0293411484842 115.62618273729858 l 0.4489594997813613 0.5000607734161274 a21.67203080997337,21.67203080997337 0 0,0 -0.2797318894803486,0.2468308685973138 l -0.44028525739442503 -0.50771478378573" fill="#ff0801" stroke="none" /><path d="M 113.48314897796784 116.09983520530334 l 0.25094894364366477 0.2996508192715154 a21.390852895353177,21.390852895353177 0 0,0 -0.28432504852377877,0.23398015818431825 l -0.2457537665751949 -0.30392609631301204" fill="#ff0400" stroke="none" /><path d="M 113.20401910651253 116.32954008644616 l 0.24751294845411992 0.3061016938170392 a21.39365074191485,21.39365074191485 0 0,0 -0.2883482164724229,0.22908126226074882 l -0.24220723926434592 -0.310316870082914" fill="#ff0400" stroke="none" /><path d="M 112.63410532772338 116.77436683061366 l 2.830677566555738 3.758305210294699 a25.705060418265656,25.705060418265656 0 0,0 -0.355727471135565,0.26315867890334604 l -2.7655651250016087 -3.806473837937814" fill="#ff4106" stroke="none" /><line stroke="#e1ed5e" stroke-width="0.3" x1="143.8653032363475" x2="146.44561519142675" y1="172.8068346515853" y2="177.08958963109032" /><path d="M 144.38136562736335 173.6633856474863 a86.0,86.0 0 0,1 -40.68145358897372,12.25698825130547" fill="none" id="id54" stroke="none" /><text fill="#e1ed5e" style="font-size:6.75px; font-family:Arial;" text-anchor="middle"><textPath startOffset="21.466115282336833" xlink:href="#id54">June</textPath></text><path d="M 110.5260780823613 118.17145234162733 l 2.4463498161504837 4.2231996330731265 a25.880578097292215,25.880578097292215 0 0,0 -0.3874091256036198,0.21998101227483519 l -2.373291923625665 -4.26468381114259" fill="#ff4306" stroke="none" /><path d="M 109.2508944713604 118.85261126421891 l 0.15357476422314378 0.31297355502826696 a21.348622509820043,21.348622509820043 0 0,0 -0.33129741102835375,0.1590428902041226 l -0.14816468519455728 -0.3155707217319496" fill="#ff0300" stroke="none" /><path d="M 108.92500713936063 119.00905698771935 l 0.1922213268395449 0.409405404286287 a21.452285113120887,21.452285113120887 0 0,0 -0.33560772493249313,0.15406104599707066 l -0.18514560613963232 -0.41265352061743205" fill="#ff0500" stroke="none" /><path d="M 108.59647513512805 119.15986991738527 l 0.3943487836548939 0.8789266854308572 a21.963339546334815,21.963339546334815 0 0,0 -0.3462670304411051,0.15179329029537503 l -0.37916107855603504 -0.8855845290206867" fill="#ff0c01" stroke="none" /><path d="M 105.88484417918355 120.15858648285463 l 1.3185247520900838 4.516618356491472 a25.705140688658517,25.705140688658517 0 0,0 -0.42581034595573375,0.12033825707167384 l -1.2405832380297444 -4.538645406901665" fill="#ff4106" stroke="none" /><path d="M 104.13013068566511 120.58985236759428 l 0.07713773784477614 0.3845531183084977 a21.39221337483645,21.39221337483645 0 0,0 -0.36166326400282267,0.069313625311964 l -0.0705068592702491 -0.38582394196892983" fill="#ff0400" stroke="none" /><path d="M 102.70371172650421 120.8252237178851 l 0.1212170929342166 0.9336694641076411 a21.941505311629452,21.941505311629452 0 0,0 -0.37496212158648995,0.04540269106127439 l -0.10512754829634638 -0.9356176838942664" fill="#ff0c01" stroke="none" /><path d="M 101.26447882468166 120.96189622390904 l 0.03201923785884458 0.5307988778180862 a21.531763744802145,21.531763744802145 0 0,0 -0.37015350571312533,0.01913270820136302 l -0.022877663732239626 -0.5312713927816511" fill="#ff0601" stroke="none" /><line stroke="#e1ed5e" stroke-width="0.3" x1="102.19456741930631" x2="102.32365962044197" y1="184.97166512339345" y2="189.96999836594603" /><path d="M 102.22038585953345 185.97133177190398 a86.0,86.0 0 0,1 -42.740103519485714,-10.115201625700543" fill="none" id="id55" stroke="none" /><text fill="#e1ed5e" style="font-size:6.75px; font-family:Arial;" text-anchor="middle"><textPath startOffset="22.20632615414155" xlink:href="#id55">July</textPath></text><path d="M 100.54218724476979 120.99299961872073 l 0.0312438031907887 1.209731794317846 a22.210135194687478,22.210135194687478 0 0,0 -0.38226848344255293,0.006581098613422787 l -0.010415629855567814 -1.2100903702104284" fill="#ff1001" stroke="none" /><path d="M 100.18074693466247 120.99922214144158 l 0.009212710291390803 1.0703348872551472 a22.070374534873846,22.070374534873846 0 0,0 -0.37991928990769175,0.0 l 0.009212710291390066 -1.0703348872551472" fill="#ff0e01" stroke="none" /><path d="M 99.45781275523022 120.99299961872073 l -0.028447018011908052 1.1014428023501392 a22.10181009238557,22.10181009238557 0 0,0 -0.380234960834804,-0.013096060863226113 l 0.047402330521355084 -1.1007899430608195" fill="#ff0e01" stroke="none" /><path d="M 99.09653310690486 120.98055641714683 l -0.04665863087800296 1.0835195456129318 a22.084523689718516,22.084523689718516 0 0,0 -0.3796560264473021,-0.019623879981660836 l 0.06530272573879399 -1.0825558588690691" fill="#ff0e01" stroke="none" /><path d="M 98.73552117531835 120.96189622390904 l -0.1387455059720613 2.300053461513937 a23.30423441542949,23.30423441542949 0 0,0 -0.40020832198767314,-0.027600709032966332 l 0.17831658873866452 -2.2973244079646857" fill="#ff1f03" stroke="none" /><path d="M 98.37488393609728 120.93702456842531 l -0.050570115659386364 0.6515151609824114 a21.653474820928658,21.653474820928658 0 0,0 -0.3713629522570433,-0.03204275813454728 l 0.06177738565797134 -0.6505481505692007" fill="#ff0801" stroke="none" /><path d="M 97.65516085044442 120.86867818915974 l -0.1485754795785607 1.322297041446408 a22.330617953790615,22.330617953790615 0 0,0 -0.3816117338062738,-0.046207866496105206 l 0.17131463643622383 -1.319543646224954" fill="#ff1101" stroke="none" /><path d="M 97.2962882734958 120.8252237178851 l -0.17467818149429531 1.3454512079050203 a22.356742945418635,22.356742945418635 0 0,0 -0.38120525918761555,-0.05283157537316856 l 0.19781203186874194 -1.3422450670392467" fill="#ff1202" stroke="none" /><path d="M 95.86986931433489 120.58985236759428 l -0.22134950300040432 1.1034889535667949 a22.125470334181433,22.125470334181433 0 0,0 -0.37277049162496145,-0.07811768089961378 l 0.24031145605475251 -1.09951529194064" fill="#ff0f01" stroke="none" /><path d="M 95.51606077576429 120.51570834832081 l -0.19486996222529526 0.8916033672476665 a21.91265046248006,21.91265046248006 0 0,0 -0.36779846482959,-0.08370973314621731 l 0.21018857644774794 -0.8881169005237625" fill="#ff0b01" stroke="none" /><path d="M 95.16358092515715 120.4354850818985 l -0.25107274396861284 1.0608661562291568 a22.09017178655309,22.09017178655309 0 0,0 -0.36927058310131744,-0.09075772501765321 l 0.2692966118131408 -1.0563871728974736" fill="#ff0e01" stroke="none" /><path d="M 94.46302465271185 120.25689768951611 l -0.8438444935929285 3.087185782928484 a24.20043584339428,24.20043584339428 0 0,0 -0.4008846356286096,-0.11329400235703763 l 0.896860297326152 -3.0722029872329255" fill="#ff2c04" stroke="none" /><path d="M 92.40401165467489 119.57807347666478 l -0.1423532484805873 0.36690450691779875 a21.393552238653992,21.393552238653992 0 0,0 -0.34217349074101905,-0.13615789362189357 l 0.1486478152634645 -0.3643997688898386" fill="#ff0400" stroke="none" /><path d="M 91.07499286063937 119.00905698771935 l -1.950986019650961 4.1553361079379085 a25.590551668242725,25.590551668242725 0 0,0 -0.3971255527412179,-0.190644398595884 l 2.022224240392421 -4.121137432842462" fill="#ff3f05" stroke="none" /><line stroke="#e1ed5e" stroke-width="0.3" x1="58.666819895761336" x2="56.23545636021788" y1="174.27360380694188" y2="178.64263932499728" /><path d="M 58.180547188652646 175.14741091055294 a86.0,86.0 0 0,1 -31.652253787137756,-30.449443065178592" fill="none" id="id56" stroke="none" /><text fill="#e1ed5e" style="font-size:6.75px; font-family:Arial;" text-anchor="middle"><textPath startOffset="22.20632615414155" xlink:href="#id56">August</textPath></text><path d="M 89.1626897886671 117.98757091392108 l -5.262370949476456 8.73438784930969 a31.197160345511023,31.197160345511023 0 0,0 -0.4575892518792551,-0.2810886923607174 l 5.41193940128802 -8.642510690120593" fill="#ff8b0c" stroke="none" /><path d="M 87.07902340077011 116.55440617244103 l -6.970467068633677 8.930589896174249 a32.32885020858499,32.32885020858499 0 0,0 -0.43573518193346933,-0.3461743814818534 l 7.123159743284504 -8.809281600687264" fill="#ff9a0e" stroke="none" /><path d="M 84.9287848128048 114.62390073753433 l -4.060440708328445 3.9399266171774086 a26.657755782516052,26.657755782516052 0 0,0 -0.3167112106036889,-0.33207043812323356 l 4.127658470311091 -3.869449062471675" fill="#ff4e07" stroke="none" /><path d="M 84.19399662182784 113.82643327865904 l -0.9026861307726906 0.7896322213833922 a22.19931701219329,22.19931701219329 0 0,0 -0.24911596839696137,-0.2897781512388197 l 0.9161446087404307 -0.7739769709830421" fill="#ff1001" stroke="none" /><path d="M 83.06392112726016 112.41649034213515 l -0.6906870099176456 0.5063691928055646 a21.85642180325558,21.85642180325558 0 0,0 -0.21983418815285444,-0.30533046010286774 l 0.6993009904461076 -0.4944051272515587" fill="#ff0b01" stroke="none" /><path d="M 82.6465618267979 111.8261652097733 l -1.0995194002066464 0.749309615098325 a22.33056672538794,22.33056672538794 0 0,0 -0.21373212220102147,-0.31950052313537514 l 1.1122546278183982 -0.730272177757129" fill="#ff1101" stroke="none" /><path d="M 82.05923443525364 110.91462005526583 l -0.7484850393222048 0.4553556977136758 a21.87611566903547,21.87611566903547 0 0,0 -0.19294642796871134,-0.32338931153336226 l 0.7562123429891481 -0.4424042922942024" fill="#ff0b01" stroke="none" /><line stroke="#e1ed5e" stroke-width="0.3" x1="26.63291911575756" x2="22.317208475507996" y1="142.92168965132927" y2="145.44649492493687" /><path d="M 25.769776987707644 143.4266507060508 a86.0,86.0 0 0,1 -11.730757126820373,-40.83630448921669" fill="none" id="id57" stroke="none" /><text fill="#e1ed5e" style="font-size:6.75px; font-family:Arial;" text-anchor="middle"><textPath startOffset="21.46611528233685" xlink:href="#id57">September</textPath></text><path d="M 81.87401531095188 110.60418214915194 l -3.9972430175235036 2.3384932614367617 a25.63103686823216,25.63103686823216 0 0,0 -0.2195090865379228,-0.3827325948548409 l 4.036904100213803 -2.2693408207236136" fill="#ff4006" stroke="none" /><path d="M 81.35079622478065 109.6543875284942 l -0.39758654624204326 0.20582404695672404 a21.44770369672175,21.44770369672175 0 0,0 -0.1669053461022987,-0.3293200821741277 l 0.4010705621306087 -0.19894975307991136" fill="#ff0500" stroke="none" /><path d="M 80.73074385275274 108.34839909993369 l -0.5506426149470722 0.23856573787182644 a21.60010074211092,21.60010074211092 0 0,0 -0.14487395217493587,-0.34243922786790637 l 0.5546675483143146 -0.22905198433776128" fill="#ff0701" stroke="none" /><path d="M 80.58989483394504 108.01547362559985 l -0.8387080700011794 0.34634755232696973 a21.907407214919512,21.907407214919512 0 0,0 -0.14093492586354606,-0.3497889280041714 l 0.8445456101221133 -0.331859256479993" fill="#ff0b01" stroke="none" /><path d="M 80.32549172779594 107.34259656027581 l -59.02352481661217 22.027789680827432 a84.0,84.0 0 0,0 -0.4939029559791024,-1.3590088119755315 l 59.3939520335965 -21.008533071845783" fill="#4dd2ff" stroke="none" /><path d="M 80.20201598880116 107.00284435728193 l -0.5897173776632152 0.20859189542854245 a21.62552151390376,21.62552151390376 0 0,0 -0.12111236265093131,-0.3520092173039037 l 0.593220571257375 -0.19840997503534183" fill="#ff0701" stroke="none" /><path d="M 80.0844068197444 106.66101706037122 l -0.6797200296941827 0.22734079136330684 a21.71673087988809,21.71673087988809 0 0,0 -0.11552033913705742,-0.35553504597102525 l 0.6835326198474894 -0.2156068454144782" fill="#ff0901" stroke="none" /><path d="M 79.76711848015287 105.62410040840567 l -1.0330894201194134 0.28716614704206866 a22.07225843245444,22.07225843245444 0 0,0 -0.09860195347762053,-0.36693454971726247 l 1.0378794499388089 -0.2693406641492673" fill="#ff0e01" stroke="none" /><path d="M 79.67330655649465 105.27499134158121 l -1.3311441662557162 0.34544595120259436 a22.375237323722306,22.375237323722306 0 0,0 -0.09353774652313016,-0.37363680077646766 l 1.336893227073905 -0.32248131102873484" fill="#ff1202" stroke="none" /><path d="M 79.58551787078972 104.9243191809786 l -0.5519068562674359 0.13312929033563828 a21.56773637010524,21.56773637010524 0 0,0 -0.0839492650024469,-0.3616512364741498 l 0.5541166872004379 -0.12360939651291422" fill="#ff0701" stroke="none" /><path d="M 79.50377843672027 104.57218783832718 l -0.5285245313002992 0.11790043480980587 a21.541515182349066,21.541515182349066 0 0,0 -0.07761711683830934,-0.36260132979987103 l 0.5304756868630492 -0.10878528559377107" fill="#ff0601" stroke="none" /><path d="M 79.29508885075956 103.50808413554451 l -0.5553173448458972 0.09408878664606382 a21.563231793544386,21.563231793544386 0 0,0 -0.05885555317651438,-0.3664935858121737 l 0.5568546523837024 -0.08451597114067644" fill="#ff0601" stroke="none" /><path d="M 79.23777060512086 103.15116336523772 l -0.8677734061945088 0.13170530557773982 a21.87771121219667,21.87771121219667 0 0,0 -0.053304469321754026,-0.37281133428522556 l 0.8699119265328618 -0.11674849931211366" fill="#ff0b01" stroke="none" /><path d="M 79.18660465613746 102.79330883721812 l -1.0834008119927356 0.14540025845811777 a22.09311415441673,22.09311415441673 0 0,0 -0.04734079966599286,-0.3773527523662301 l 1.0857431209055766 -0.12672975180447904" fill="#ff0e01" stroke="none" /><path d="M 79.1416061653843 102.43462659150553 l -0.6770121426357523 0.07902198885983913 a21.681608330347874,21.681608330347874 0 0,0 -0.040077625482844076,-0.3710690372085988 l 0.6782720696196483 -0.06735662976645825" fill="#ff0801" stroke="none" /><path d="M 79.10278846688536 102.07522291339032 l -0.5507973460751437 0.05469759787799542 a21.553506588630203,21.553506588630203 0 0,0 -0.03348532638565605,-0.36950778637847503 l 0.5516572687378751 -0.0452084229509542" fill="#ff0601" stroke="none" /><path d="M 79.07016306316243 101.71520430193888 l -0.6562886274960692 0.05378298362246611 a21.658488702946382,21.658488702946382 0 0,0 -0.02725199074578378,-0.37183176191874295 l 0.6571171769061883 -0.042478085206962515" fill="#ff0801" stroke="none" /><path d="M 79.04373962182676 101.35467743843564 l -0.5450450398373845 0.035233395895767315 a21.546182650436357,21.546182650436357 0 0,0 -0.020739379800432105,-0.37031555826405554 l 0.5455707705253482 -0.025846121296274168" fill="#ff0601" stroke="none" /><line stroke="#e1ed5e" stroke-width="0.3" x1="15.007084014347285" x2="10.007500721073583" y1="101.09737516637583" y2="101.16192664675087" /><path d="M 14.007167355692545 101.11028546245083 a86.0,86.0 0 0,1 10.666146001902534,-42.60595125391555" fill="none" id="id58" stroke="none" /><text fill="#e1ed5e" style="font-size:6.75px; font-family:Arial;" text-anchor="middle"><textPath startOffset="22.20632615414155" xlink:href="#id58">October</textPath></text><path d="M 79.12142395522702 97.74499172005258 l -1.4433029202081489 -0.15588515368874906 a22.451696766071322,22.451696766071322 0 0,0 0.0448067945684054,-0.38387725281377905 l 1.4404057726361545 0.18070614482738984" fill="#ff1302" stroke="none" /><path d="M 79.16333360222342 97.38593545837743 l -0.5078727125864038 -0.06371518477502 a21.511853804284765,21.511853804284765 0 0,0 0.04925599993299852,-0.36701441172675286 l 0.5067007135955715 0.07244793856643224" fill="#ff0600" stroke="none" /><path d="M 79.21141760316559 97.0276538004421 l -1.134407543300384 -0.16219730069675953 a22.14594434360929,22.14594434360929 0 0,0 0.05720414118390593,-0.37690381739625184 l 1.1314475086771758 0.18170023048510342" fill="#ff0f01" stroke="none" /><path d="M 79.32604984820605 96.31383870115002 l -0.3558696829530799 -0.06345149538932349 a21.361482120598332,21.361482120598332 0 0,0 0.06765921521257295,-0.3614382331114228 l 0.3547247438306453 0.06956780596331898" fill="#ff0400" stroke="none" /><path d="M 79.46518482838121 95.60439243477599 l -0.6865887574445099 -0.14696868275649186 a21.702142375562374,21.702142375562374 0 0,0 0.08133716281131871,-0.364618552268253 l 0.6839572076311535 0.15876540457470412" fill="#ff0801" stroke="none" /><path d="M 79.62865764111835 94.90015583598534 l -0.39598048412374265 -0.0991313545001474 a21.40820040329709,21.40820040329709 0 0,0 0.09256872022261625,-0.3567050401752337 l 0.39421543203081905 0.1059328202242449" fill="#ff0400" stroke="none" /><path d="M 79.71946130924805 94.55025226153421 l -1.797298695399169 -0.4829666829839007 a22.861058681867938,22.861058681867938 0 0,0 0.10539299615540813,-0.3791546824176596 l 1.7887189286774001 0.5138326688205029" fill="#ff1902" stroke="none" /><path d="M 80.38941819471856 92.48833698450439 l -0.30657907406245405 -0.11743245125647499 a21.32830033393388,21.32830033393388 0 0,0 0.13427327972412095,-0.34171085101114645 l 0.304512244456642 0.12269230716338483" fill="#ff0300" stroke="none" /><path d="M 80.52162464483688 92.15188598940014 l -0.15490120207558225 -0.062411893810532595 a21.167001876916032,21.167001876916032 0 0,0 0.13907558155492944,-0.33678255211143504 l 0.15380393363445308 0.0650690163752789" fill="#ff0100" stroke="none" /><line stroke="#e1ed5e" stroke-width="0.3" x1="26.266209847984243" x2="21.928928074336255" y1="57.711370442889674" y2="55.22380399835377" /><path d="M 25.398753493254645 57.213857153982495 a86.0,86.0 0 0,1 29.58750427330803,-30.492523968695096" fill="none" id="id59" stroke="none" /><text fill="#e1ed5e" style="font-size:6.75px; font-family:Arial;" text-anchor="middle"><textPath startOffset="21.46611528233685" xlink:href="#id59">November</textPath></text><path d="M 82.95767976084542 87.72973835380427 l -0.5233683480719964 -0.37681879451052996 a21.64490839012993,21.64490839012993 0 0,0 0.22030124627086234,-0.3004906523339387 l 0.5168044892875007 0.38577189051596933" fill="#ff0801" stroke="none" /><path d="M 89.00827224532344 82.1063720568725 l -1.4348279686047396 -2.3357818175293885 a23.74127853356628,23.74127853356628 0 0,0 0.35005716335641635,-0.21090552410590904 l 1.394408739030674 2.3601339510939168" fill="#ff2503" stroke="none" /><line stroke="#e1ed5e" stroke-width="0.3" x1="56.762969772571076" x2="54.21961505331055" y1="26.818313649435495" y2="22.513508569990535" /><path d="M 56.25429882871897 25.957352633546506 a86.0,86.0 0 0,1 42.265352541879196,-11.944610805530505" fill="none" id="id60" stroke="none" /><text fill="#e1ed5e" style="font-size:6.75px; font-family:Arial;" text-anchor="middle"><textPath startOffset="22.20632615414155" xlink:href="#id60">December</textPath></text><path d="M 95.692805502759 79.44645832069477 l -0.023100824488095938 -0.1102350402905029 a21.112629535202267,21.112629535202267 0 0,0 0.35633452817866296,-0.07147735413144381 l 0.02119988684229656 0.11061635049915737" fill="#ff0000" stroke="none" /></svg>