<?xml version="1.0" encoding="utf-8" ?>
<svg baseProfile="full" height="200mm" version="1.1" viewBox="0,0,200,200" width="200mm" xmlns="http://www.w3.org/2000/svg" xmlns:ev="http://www.w3.org/2001/xml-events" xmlns:xlink="http://www.w3.org/1999/xlink"><defs /><rect fill="#1a1a1a" height="200" width="200" x="0" y="0" /><text alignment-baseline="middle" fill="#e1ed5e" style="dominant-baseline: central; font-size:9.0px; font-family:Arial;" text-anchor="middle" x="100.0" y="100.0">2025</text><line stroke="#e1ed5e" stroke-width="0.3" x1="100.0" x2="100.0" y1="15.0" y2="10.0" /><path d="M 100.0 14.0 a86.0,86.0 0 0,1 42.46469731375804,11.215312516191453" fill="none" id="id133" stroke="none" /><text fill="#e1ed5e" style="font-size:6.75px; font-family:Arial;" text-anchor="middle"><textPath startOffset="22.20632615414155" xlink:href="#id133">January</textPath></text><path d="M 100.0 79.0 l 0.0 -18.229413071493077 a39.22941307149308,39.22941307149308 0 0,0 0.675269858983967,0.005812260866577957 l -0.3137893797114386 18.22671218723506" fill="#ffca12" stroke="none" /><path d="M 100.36148047927253 79.00311137660856 l 0.3154538812099348 -18.323396115085675 a39.326111326233594,39.326111326233594 0 0,0 0.6767337702220121,0.017478036725735373 l -0.6308142866268146 18.31525128621758" fill="#ffcb12" stroke="none" /><path d="M 102.16513564639614 79.11191278185805 l 4.106714944207238 -39.61942064804617 a60.83169090209205,60.83169090209205 0 0,0 1.0406080406588563,0.11692443819209868 l -4.788089688375819 39.54286025638347" fill="#35ff2f" stroke="none" /><path d="M 102.52436894288641 79.15227682838746 l 4.978294512279638 -41.113683541080555 a62.41398786119385,62.41398786119385 0 0,0 1.0654521611108607,0.1383262691939609 l -5.6852614018983445 41.02189894872246" fill="#31ff3d" stroke="none" /><path d="M 103.2404852339499 79.25152402106235 l 1.8210200213443677 -11.659793963625955 a32.8011401649309,32.8011401649309 0 0,0 0.557105176294092,0.09192712754987427 l -2.021454403777335 11.626720573136456" fill="#ff710a" stroke="none" /><path d="M 105.01212808612495 79.60689891045804 l 9.539074204656101 -38.81211757032187 a60.967166611788016,60.967166611788016 0 0,0 1.0169645974365933,0.25924691954790985 l -10.20574769077772 38.64216765460509" fill="#33ff2f" stroke="none" /><path d="M 105.36241919743992 79.69619591428918 l 4.741862747834782 -17.954182373383237 a39.569812250424306,39.569812250424306 0 0,0 0.6570512883211629,0.179596937354383 l -5.050211925379656 17.86989889520256" fill="#ffce13" stroke="none" /><path d="M 105.71112130821622 79.79150937346287 l 17.13336392464865 -60.62547187961136 a84.0,84.0 0 0,0 1.3880391291062915,0.40520668432518603 l -18.174393271478365 60.321566866367476" fill="#4dd2ff" stroke="none" /><path d="M 106.0581310904928 79.89281104454417 l 11.483898070990673 -38.11553513937269 a60.8079631966477,60.8079631966477 0 0,0 0.9996094452929094,0.3105835205019564 l -12.1382928889943 37.912211483988216" fill="#35ff2f" stroke="none" /><path d="M 106.40334571778207 80.00007090966166 l 12.141511153274623 -37.92226326945119 a60.818517608804314,60.818517608804314 0 0,0 0.9942877057549778,0.32780102401022015 l -12.792481681272017 37.70764852118174" fill="#35ff2f" stroke="none" /><path d="M 106.74666289553966 80.11325718540242 l 13.492328676413775 -39.77054649273361 a62.99689633107503,62.99689633107503 0 0,0 1.0239035431407733,0.3572198413287289 l -14.174914223617822 39.53240579823267" fill="#31ff44" stroke="none" /><path d="M 107.08798089147638 80.2323363322302 l 13.198694823973787 -36.80982837405795 a60.10459065102196,60.10459065102196 0 0,0 0.9708828310014769,0.3575843402751052 l -13.83035998074784 36.57718076597652" fill="#3cff2e" stroke="none" /><path d="M 108.43124777332544 80.76684994638697 l 15.342736654890938 -34.999464403143485 a59.2146840438102,59.2146840438102 0 0,0 0.9300029355708778,0.41726520825576496 l -15.942921708928598 34.73017886437119" fill="#46ff2d" stroke="none" /><path d="M 109.73455568895987 81.39251694778311 l 4.5543776083937475 -8.70563658675189 a30.82499179543838,30.82499179543838 0 0,0 0.46803339641427116,0.25000723134152597 l -4.70355605133633 8.62595062890861" fill="#ff5407" stroke="none" /><line stroke="#e1ed5e" stroke-width="0.3" x1="143.23703022742887" x2="145.7803849466894" y1="26.81831364943548" y2="22.513508569990506" /><path d="M 143.74570117128098 25.957352633546492 a86.0,86.0 0 0,1 28.547481713284135,27.462654790039103" fill="none" id="id134" stroke="none" /><text fill="#e1ed5e" style="font-size:6.75px; font-family:Arial;" text-anchor="middle"><textPath startOffset="19.985693538727396" xlink:href="#id134">February</textPath></text><path d="M 110.68208982089419 81.91981866633111 l 20.62046715693512 -34.90157746596647 a61.537930082616434,61.537930082616434 0 0,0 0.9073560723821352,0.5466718811338482 l -21.21818529553489 34.541458975374006" fill="#30ff32" stroke="none" /><path d="M 111.2981086023043 82.29822771554956 l 2.28085998445871 -3.5736303729076 a25.23947594767003,25.23947594767003 0 0,0 0.36420921257469396,0.23689180299692758 l -2.342036222817684 3.5338396457511445" fill="#ff0000" stroke="none" /><path d="M 113.06298171725822 83.55741782278167 l 24.310684895869606 -30.60024447991767 a60.081765087275606,60.081765087275606 0 0,0 0.8042276178228468,0.6502961366641253 l -24.833815912256945 30.177242245989415" fill="#3dff2e" stroke="none" /><path d="M 114.42810811169701 84.74124197986012 l 6.4559032699821906 -6.8275802368174485 a30.396517382602287,30.396517382602287 0 0,0 0.37708581495210924,0.3627562552192295 l -6.572472328546717 6.715440894835917" fill="#ff4e07" stroke="none" /><path d="M 114.68862486808459 84.99185889309783 l 27.44792072080234 -28.044985216004317 a60.24168125426523,60.24168125426523 0 0,0 0.7348458130987647,0.7316901516440882 l -27.926602334068427 27.568359213710114" fill="#3bff2e" stroke="none" /><path d="M 115.19652480421416 85.50635884689758 l 36.71736292209177 -35.01907766000882 a71.73953626227114,71.73953626227114 0 0,0 0.8445884605103992,0.9009480824450811 l -37.314718704572634 34.38186016068568" fill="#3dffac" stroke="none" /><path d="M 115.4437574822437 85.77008943001954 l 29.15673411301611 -26.865076029453487 a60.64653142716818,60.64653142716818 0 0,0 0.7007745964467529,0.7738128122704482 l -29.614852350078902 26.35921042991349" fill="#37ff2e" stroke="none" /><line stroke="#e1ed5e" stroke-width="0.3" x1="172.23445277983987" x2="176.4835382374775" y1="55.19839476539836" y2="52.563006222186495" /><path d="M 173.08426987136738 54.67131705675599 a86.0,86.0 0 0,1 12.851231095245387,41.99856678651699" fill="none" id="id135" stroke="none" /><text fill="#e1ed5e" style="font-size:6.75px; font-family:Arial;" text-anchor="middle"><textPath startOffset="22.20632615414155" xlink:href="#id135">March</textPath></text><line stroke="#e1ed5e" stroke-width="0.3" x1="184.98032266829074" x2="189.97916517819016" y1="98.17113171792111" y2="98.06355123074" /><path d="M 185.9800911702706 98.14961562048488 a86.0,86.0 0 0,1 -9.607161424134198,41.387399972396054" fill="none" id="id136" stroke="none" /><text fill="#e1ed5e" style="font-size:6.75px; font-family:Arial;" text-anchor="middle"><textPath startOffset="21.466115282336823" xlink:href="#id136">April</textPath></text><line stroke="#e1ed5e" stroke-width="0.3" x1="174.80103733775053" x2="179.2010983576182" y1="140.37084112569926" y2="142.7455964860345" /><path d="M 175.68104954172406 140.8457921977663 a86.0,86.0 0 0,1 -30.038265399797805,32.042727171017184" fill="none" id="id137" stroke="none" /><text fill="#e1ed5e" style="font-size:6.75px; font-family:Arial;" text-anchor="middle"><textPath startOffset="22.206326154141568" xlink:href="#id137">May</textPath></text><line stroke="#e1ed5e" stroke-width="0.3" x1="143.8653032363475" x2="146.44561519142675" y1="172.8068346515853" y2="177.08958963109032" /><path d="M 144.38136562736335 173.6633856474863 a86.0,86.0 0 0,1 -40.68145358897372,12.25698825130547" fill="none" id="id138" stroke="none" /><text fill="#e1ed5e" style="font-size:6.75px; font-family:Arial;" text-anchor="middle"><textPath startOffset="21.466115282336833" xlink:href="#id138">June</textPath></text><line stroke="#e1ed5e" stroke-width="0.3" x1="102.19456741930631" x2="102.32365962044197" y1="184.97166512339345" y2="189.96999836594603" /><path d="M 102.22038585953345 185.97133177190398 a86.0,86.0 0 0,1 -42.740103519485714,-10.115201625700543" fill="none" id="id139" stroke="none" /><text fill="#e1ed5e" style="font-size:6.75px; font-family:Arial;" text-anchor="middle"><textPath startOffset="22.20632615414155" xlink:href="#id139">July</textPath></text><line stroke="#e1ed5e" stroke-width="0.3" x1="58.666819895761336" x2="56.23545636021788" y1="174.27360380694188" y2="178.64263932499728" /><path d="M 58.180547188652646 175.14741091055294 a86.0,86.0 0 0,1 -31.652253787137756,-30.449443065178592" fill="none" id="id140" stroke="none" /><text fill="#e1ed5e" style="font-size:6.75px; font-family:Arial;" text-anchor="middle"><textPath startOffset="22.20632615414155" xlink:href="#id140">August</textPath></text><line stroke="#e1ed5e" stroke-width="0.3" x1="26.63291911575756" x2="22.317208475507996" y1="142.92168965132927" y2="145.44649492493687" /><path d="M 25.769776987707644 143.4266507060508 a86.0,86.0 0 0,1 -11.730757126820373,-40.83630448921669" fill="none" id="id141" stroke="none" /><text fill="#e1ed5e" style="font-size:6.75px; font-family:Arial;" text-anchor="middle"><textPath startOffset="21.46611528233685" xlink:href="#id141">September</textPath></text><line stroke="#e1ed5e" stroke-width="0.3" x1="15.007084014347285" x2="10.007500721073583" y1="101.09737516637583" y2="101.16192664675087" /><path d="M 14.007167355692545 101.11028546245083 a86.0,86.0 0 0,1 10.666146001902534,-42.60595125391555" fill="none" id="id142" stroke="none" /><text fill="#e1ed5e" style="font-size:6.75px; font-family:Arial;" text-anchor="middle"><textPath startOffset="22.20632615414155" xlink:href="#id142">October</textPath></text><line stroke="#e1ed5e" stroke-width="0.3" x1="26.266209847984243" x2="21.928928074336255" y1="57.711370442889674" y2="55.22380399835377" /><path d="M 25.398753493254645 57.213857153982495 a86.0,86.0 0 0,1 29.58750427330803,-30.492523968695096" fill="none" id="id143" stroke="none" /><text fill="#e1ed5e" style="font-size:6.75px; font-family:Arial;" text-anchor="middle"><textPath startOffset="21.46611528233685" xlink:href="#id143">November</textPath></text><line stroke="#e1ed5e" stroke-width="0.3" x1="56.762969772571076" x2="54.21961505331055" y1="26.818313649435495" y2="22.513508569990535" /><path d="M 56.25429882871897 25.957352633546506 a86.0,86.0 0 0,1 42.265352541879196,-11.944610805530505" fill="none" id="id144" stroke="none" /><text fill="#e1ed5e" style="font-size:6.75px; font-family:Arial;" text-anchor="middle"><textPath startOffset="22.20632615414155" xlink:href="#id144">December</textPath></text></svg>