<?xml version="1.0" encoding="utf-8" ?>
<svg baseProfile="full" height="200mm" version="1.1" viewBox="0,0,200,200" width="200mm" xmlns="http://www.w3.org/2000/svg" xmlns:ev="http://www.w3.org/2001/xml-events" xmlns:xlink="http://www.w3.org/1999/xlink"><defs /><rect fill="#1a1a1a" height="200" width="200" x="0" y="0" /><text alignment-baseline="middle" fill="#e1ed5e" style="dominant-baseline: central; font-size:9.0px; font-family:Arial;" text-anchor="middle" x="100.0" y="100.0">2020</text><line stroke="#e1ed5e" stroke-width="0.3" x1="100.0" x2="100.0" y1="15.0" y2="10.0" /><path d="M 100.0 14.0 a86.0,86.0 0 0,1 42.35913384403234,11.155469271406648" fill="none" id="id61" stroke="none" /><text fill="#e1ed5e" style="font-size:6.75px; font-family:Arial;" text-anchor="middle"><textPath startOffset="22.145653131862478" xlink:href="#id61">January</textPath></text><path d="M 108.07796709384702 80.6158196554323 l 0.587485792963066 -1.4097520364178757 a22.52726564850971,22.52726564850971 0 0,0 0.35567862577923226,0.1518180553867174 l -0.6115994939127283 1.3994593313717567" fill="#ff0b01" stroke="none" /><line stroke="#e1ed5e" stroke-width="0.3" x1="143.13028292997686" x2="145.6673583964461" y1="26.7553504044142" y2="22.446841604673864" /><path d="M 143.63769802327073 25.89364864446614 a86.0,86.0 0 0,1 29.32050498858742,28.57503671076993" fill="none" id="id62" stroke="none" /><text fill="#e1ed5e" style="font-size:6.75px; font-family:Arial;" text-anchor="middle"><textPath startOffset="20.669276256404974" xlink:href="#id62">February</textPath></text><line stroke="#e1ed5e" stroke-width="0.3" x1="172.87174338648825" x2="177.1583165268699" y1="56.24261187166439" y2="53.66864786411523" /><path d="M 173.72905801456457 55.72781907015455 a86.0,86.0 0 0,1 12.242430191666344,42.057860355516425" fill="none" id="id63" stroke="none" /><text fill="#e1ed5e" style="font-size:6.75px; font-family:Arial;" text-anchor="middle"><textPath startOffset="22.145653131862474" xlink:href="#id63">March</textPath></text><path d="M 118.8641267826498 90.77261029715802 l 2.632401778816445 -1.2876396213544612 a23.930453022929704,23.930453022929704 0 0,0 0.17733689794208515,0.37056591157024243 l -2.6541179347184416 1.2422612077191153" fill="#ff1f03" stroke="none" /><path d="M 119.4528033332814 92.08871423366111 l 6.773285990636117 -2.75463644653128 a28.312005543180746,28.312005543180746 0 0,0 0.17923026339413706,0.4517773456268461 l -6.819574928996378 2.6379580836908687" fill="#ff5d08" stroke="none" /><path d="M 119.58574465831526 92.42381321644754 l 5.55241820882372 -2.147794642701357 a26.95334946000097,26.95334946000097 0 0,0 0.16322090570184475,0.4329628441842856 l -5.588469798340006 2.0521635183229137" fill="#ff4a06" stroke="none" /><path d="M 119.83427380445688 93.10060997987247 l 2.9477262473111123 -1.0253722043605291 a24.120973916354,24.120973916354 0 0,0 0.13268210158150537,0.3922510572613007 l -2.964893770464983 0.9746194726250668" fill="#ff2203" stroke="none" /><path d="M 119.94978838288452 93.4421083053983 l 1.4543431594848613 -0.4780714834483645 a22.530903775169076,22.530903775169076 0 0,0 0.117627716151711,0.36846714549108056 l -1.4623355914138296 0.4530353042658969" fill="#ff0b01" stroke="none" /><path d="M 120.43855184770803 95.1765574152323 l 2.873255590023306 -0.6780804957761434 a23.952184080363587,23.952184080363587 0 0,0 0.09100591102782805,0.40098883570609883 l -2.8844723626088005 0.6286573261310183" fill="#ff2003" stroke="none" /><path d="M 120.51834098615036 95.52812308129327 l 3.0691916922953815 -0.668916044290638 a24.14123961492345,24.14123961492345 0 0,0 0.08477287013056842,0.4056688716992173 l -3.0802222732503166 0.6161307213060162" fill="#ff2203" stroke="none" /><path d="M 120.7213421655516 96.59031103205396 l 3.017106506451159 -0.49646372749286105 a24.057680150700204,24.057680150700204 0 0,0 0.06355639035122489,0.4080776183329904 l -3.025184388940649 0.4445979272284294" fill="#ff2103" stroke="none" /><path d="M 120.77682067341334 96.94652285012252 l 6.397194432879995 -0.9401672821442996 a27.465911469428374,27.465911469428374 0 0,0 0.06455206375358906,0.4670665767463923 l -6.412391013188796 0.8302123971978217" fill="#ff5107" stroke="none" /><path d="M 120.82617615685814 97.30363454192243 l 4.393718192983188 -0.5688547853843823 a25.430389974506326,25.430389974506326 0 0,0 0.05233563810958707,0.43341416048472675 l -4.402835917352439 0.49334694797624257" fill="#ff3505" stroke="none" /><path d="M 120.86939407059847 97.66154086499901 l 2.4798139825443384 -0.27786832914108095 a23.495333283624067,23.495333283624067 0 0,0 0.041472180603325,0.40120572680775785 l -2.4842185556293295 0.23525808005039173" fill="#ff1902" stroke="none" /><path d="M 120.9064616781168 98.02013634271609 l 3.268388017758671 -0.30951974341195615 a24.28301122541338,24.28301122541338 0 0,0 0.03573809080798197,0.41533078754804853 l -3.2732197312643936 0.25336790848824564" fill="#ff2403" stroke="none" /><path d="M 120.98066250479742 99.09900007780936 l 7.568682785020384 -0.32503180482645394 a28.57565870234481,28.57565870234481 0 0,0 0.01683965336727417,0.4902681341146964 l -7.573147125384506 0.1950574061476376" fill="#ff6008" stroke="none" /><path d="M 120.99303781780057 99.45929381324524 l 6.391197282130175 -0.1646145708501402 a27.39331687436532,27.39331687436532 0 0,0 0.008072638819829805,0.47019074043817116 l -6.393081352548672 0.05487691444290265" fill="#ff5007" stroke="none" /><line stroke="#e1ed5e" stroke-width="0.3" x1="184.99686870605535" x2="189.99668451229388" y1="99.2704041080226" y2="99.22748670261217" /><path d="M 185.99683186730306 99.26182062694052 a86.0,86.0 0 0,1 -10.086455211305974,41.156179273409016" fill="none" id="id64" stroke="none" /><text fill="#e1ed5e" style="font-size:6.75px; font-family:Arial;" text-anchor="middle"><textPath startOffset="21.40746469413373" xlink:href="#id64">April</textPath></text><path d="M 120.99922638620191 99.81974689727618 l 4.698929465797083 -0.04033465805420746 a25.699102574872825,25.699102574872825 0 0,0 0.0,0.4411755215560681 l -4.698929465797083 -0.04033465805420689" fill="#ff3805" stroke="none" /><path d="M 120.99303781780057 100.54070618675476 l 3.2979084628053696 0.08494242351517614 a24.299002189201442,24.299002189201442 0 0,0 -0.014319417035985568,0.41689420314820186 l -3.295964358772538 -0.14154289122748873" fill="#ff2503" stroke="none" /><path d="M 120.9064616781168 101.97986365728391 l 3.221582686469825 0.3050872298755826 a24.235996480776098,24.235996480776098 0 0,0 -0.04277954311262528,0.4138532731415761 l -3.215870750875534 -0.36034502530009016" fill="#ff2403" stroke="none" /><path d="M 120.86939407059847 102.33845913500097 l 3.066196135195511 0.3435736724217709 a24.08538516361722,24.08538516361722 0 0,0 -0.049567623733523136,0.4104910306568441 l -3.059846425202324 -0.3961583800020236" fill="#ff2203" stroke="none" /><path d="M 120.82617615685814 102.69636545807757 l 4.829359879400854 0.6252573235415583 a25.869667705851086,25.869667705851086 0 0,0 -0.06080047410373078,0.43992194289229075 l -4.817914888741912 -0.7080675746339341" fill="#ff3b05" stroke="none" /><path d="M 120.592083275326 104.11899336999214 l 1.872941395502799 0.374640733883576 a22.91004323261878,22.91004323261878 0 0,0 -0.08044947776600408,0.3849798741491054 l -1.8662342069124305 -0.40673705931809045" fill="#ff1101" stroke="none" /><path d="M 120.35273937422433 105.17358676015961 l 7.1130829282535135 1.8081178648676242 a28.339294172975016,28.339294172975016 0 0,0 -0.12389739579277706,0.47045859242920507 l -7.080996051656006 -1.9299569616696326" fill="#ff5d08" stroke="none" /><path d="M 120.26092885502905 105.52220625578681 l 2.2618962257252346 0.6164898745271539 a23.344404892791466,23.344404892791466 0 0,0 -0.10869767200184328,0.38572969138087987 l -2.2509800616488116 -0.6552274898110422" fill="#ff1702" stroke="none" /><path d="M 120.05942366710727 106.21446072829308 l 3.0237881795768615 0.9367773074891667 a24.16557209344147,24.16557209344147 0 0,0 -0.12616187451760447,0.3952002750214828 l -3.0072615892820025 -0.988546616202033" fill="#ff2303" stroke="none" /><path d="M 119.71291397450082 107.23885506374661 l 3.382024640954815 1.2419262940811113 a24.602842154737782,24.602842154737782 0 0,0 -0.148986981573298,0.3952056693413972 l -3.3602069755670763 -1.2998002436166674" fill="#ff2904" stroke="none" /><path d="M 119.58574465831526 107.57618678355244 l 1.6138524979614366 0.6242728157117857 a22.730386209380175,22.730386209380175 0 0,0 -0.14389560291460632,0.36271091890981555 l -1.6028982200807058 -0.6518847518351654" fill="#ff0e01" stroke="none" /><path d="M 119.31412917781788 108.2440532568976 l 4.823729514197436 2.058963292923641 a26.244777999853415,26.244777999853415 0 0,0 -0.18042174843644676,0.4128402687459059 l -4.787673883744024 -2.1414656314453917" fill="#ff4006" stroke="none" /><path d="M 119.16976305983485 108.57439118712176 l 10.107618836214332 4.521009341717381 a32.072645754565194,32.072645754565194 0 0,0 -0.2291140531612053,0.5006555546605598 l -10.02852031819807 -4.69385387859263" fill="#ff8f0d" stroke="none" /><path d="M 118.8641267826498 109.22738970284198 l 2.9254772970458975 1.4309975435219906 a24.256711744244022,24.256711744244022 0 0,0 -0.18617613829215443,0.3724769910351161 l -2.900481245542011 -1.4810063907208524" fill="#ff2403" stroke="none" /><path d="M 118.70294669586154 109.54985784667822 l 3.1165734603871833 1.591344615338788 a24.499343912615263,24.499343912615263 0 0,0 -0.1944687116971743,0.3729193963401094 l -3.0887966797150597 -1.6446102547834003" fill="#ff2703" stroke="none" /><path d="M 118.5362547648365 109.86951160357373 l 1.553521140596256 0.8271625049412766 a22.760007313581458,22.760007313581458 0 0,0 -0.18658290961056878,0.34329153841236215 l -1.5390928813703482 -0.853708876828242" fill="#ff0f01" stroke="none" /><line stroke="#e1ed5e" stroke-width="0.3" x1="174.33088141563837" x2="178.70328620479359" y1="141.23008692659167" y2="143.65538615756765" /><path d="M 175.20536237346943 141.71514677278685 a86.0,86.0 0 0,1 -30.301960400862466,31.631185727798858" fill="none" id="id65" stroke="none" /><text fill="#e1ed5e" style="font-size:6.75px; font-family:Arial;" text-anchor="middle"><textPath startOffset="22.145653131862474" xlink:href="#id65">May</textPath></text><path d="M 118.36410011445183 110.18625677009912 l 3.2505093373089533 1.80300273561333 a24.71707274835479,24.71707274835479 0 0,0 -0.20899654449748345,0.3692768684649422 l -3.2190794277900916 -1.8585363741773948" fill="#ff2b04" stroke="none" /><path d="M 118.18653347947321 110.5 l 1.873737991299291 1.0818031336674738 a23.16360626733495,23.16360626733495 0 0,0 -0.20177297878564268,0.34265462976456273 l -1.854891302383883 -1.113808931725586" fill="#ff1402" stroke="none" /><path d="M 117.81537515405839 111.11811171558189 l 2.8052265329732635 1.7506688302326499 a24.306680700407185,24.306680700407185 0 0,0 -0.2239482233727244,0.3520838039531289 l -2.774760617974649 -1.7985663088644506" fill="#ff2503" stroke="none" /><path d="M 117.62189284568427 111.42229804090321 l 5.026705751798752 3.2582499373799982 a26.990322476261476,26.990322476261476 0 0,0 -0.25534845055627475,0.38663009957033107 l -4.970032862321751 -3.34405991528939" fill="#ff4a06" stroke="none" /><path d="M 117.423217284605 111.72311816256416 l 2.3649471257311063 1.5912419704286993 a23.850443108703914,23.850443108703914 0 0,0 -0.23147452795505588,0.3377282539865039 l -2.3372828609607303 -1.6316049594852473" fill="#ff1e03" stroke="none" /><path d="M 117.21940702142032 112.02048342749411 l 3.3150075381222828 2.3141327180690654 a25.042831336408344,25.042831336408344 0 0,0 -0.2490985407731653,0.3503882930623637 l -3.2747938988191567 -2.370698237840933" fill="#ff2f04" stroke="none" /><path d="M 117.01052211995028 112.31430620078461 l 3.3030942265763312 2.391185492678084 a25.077768940246127,25.077768940246127 0 0,0 -0.2554325776029548,0.3465433487653494 l -3.2615596293895486 -2.4475351507123104" fill="#ff3004" stroke="none" /><path d="M 116.79662413953412 112.60449989151573 l 2.467033455020022 1.8513078972205932 a24.084411613014606,24.084411613014606 0 0,0 -0.2509917075282512,0.3285562020965349 l -2.4348897701374663 -1.8933850125580054" fill="#ff2203" stroke="none" /><path d="M 116.35404254752997 113.17365903436017 l 4.028784210938485 3.245303377661407 a26.173306121946368,26.173306121946368 0 0,0 -0.28485677929580683,0.3474789536764531 l -3.972480612404051 -3.313984613036353" fill="#ff3f05" stroke="none" /><path d="M 116.1254893667686 113.45245675266167 l 3.7728923025315697 3.147480946336504 a25.913385048421638,25.913385048421638 0 0,0 -0.28789207665382016,0.33913614240386997 l -3.7183056623706348 -3.211783871189931" fill="#ff3b05" stroke="none" /><path d="M 115.89218393027572 113.72728997021213 l 2.939144039265797 2.5387626186706322 a24.88379753817202,24.88379753817202 0 0,0 -0.28200326194188224,0.3208679454650739 l -2.8951297133653293 -2.5888428419469993" fill="#ff2d04" stroke="none" /><path d="M 115.6541949942343 113.99807769240083 l 1.6485979665612371 1.4741864674585905 a23.21158336858186,23.21158336858186 0 0,0 -0.268151594872302,0.29474557601006013 l -1.6230486708470553 -1.5022696190263225" fill="#ff1502" stroke="none" /><path d="M 115.41159269507618 114.26474011684316 l 3.592244951272755 3.324928297794886 a25.894831148816248,25.894831148816248 0 0,0 -0.30475030737211983,0.323634265633432 l -3.534638810164375 -3.3861040233728152" fill="#ff3b05" stroke="none" /><path d="M 115.16444852881244 114.52719865689866 l 2.1947517290988725 2.1025225091840527 a24.039331514331415,24.039331514331415 0 0,0 -0.2880291952627209,0.295543328326728 l -2.1583357326853445 -2.139888529578518" fill="#ff2103" stroke="none" /><path d="M 114.91283532996324 114.78537596483092 l 1.4314059779025554 1.4191718122892931 a23.01568144962731,23.01568144962731 0 0,0 -0.2805809721342607,0.27818285857737063 l -1.40683308563833 -1.4435346810953256" fill="#ff1202" stroke="none" /><path d="M 114.65682725009322 115.03919595460226 l 3.770549318403834 3.8689157679474326 a26.402365350657792,26.402365350657792 0 0,0 -0.32729819709583624,0.31354426903306243 l -3.7035786354426854 -3.9330721672860753" fill="#ff4206" stroke="none" /><path d="M 114.39649973595853 115.28858382429668 l 2.0427824586593157 2.1693641806562654 a23.97978205943331,23.97978205943331 0 0,0 -0.3021112582526427,0.2796296703794456 l -2.0052414290927056 -2.2041115971680907" fill="#ff2003" stroke="none" /><path d="M 114.13192950727249 115.5334660781643 l 1.37668144983747 1.5132140724650196 a23.04574403174805,23.04574403174805 0 0,0 -0.2949141621051005,0.2637140622853482 l -1.3505022609089916 -1.5366236646337548" fill="#ff1302" stroke="none" /><path d="M 113.86319453409587 115.77377054828091 l 1.2792037050071696 1.4554989961128664 a22.93774080996134,22.93774080996134 0 0,0 -0.2979945895637348,0.25740062904147093 l -1.2540296356805791 -1.477243757619055" fill="#ff1101" stroke="none" /><path d="M 113.59037401385872 116.0094264158162 l 1.4828063853197782 1.7467421934430767 a23.29124923714105,23.29124923714105 0 0,0 -0.3070293132510869,0.25613477298998444 l -1.452602737906796 -1.7719391503449313" fill="#ff1602" stroke="none" /><path d="M 112.7482090630111 116.68781488649013 l 1.3730692986728827 1.7973917880794275 a23.261843615021473,23.261843615021473 0 0,0 -0.3194039561341246,0.2396866832881291 l -1.342012353627992 -1.8206974986315716" fill="#ff1602" stroke="none" /><path d="M 112.45986205192187 116.90419585922612 l 4.574163546741961 6.205731344700712 a28.709349756947333,28.709349756947333 0 0,0 -0.3992226337544824,0.2890063996666288 l -4.46695990261351 -6.283338515740417" fill="#ff6209" stroke="none" /><path d="M 112.16784306229584 117.11559508785304 l 1.5668953417893452 2.2040345259063043 a23.704242815190266,23.704242815190266 0 0,0 -0.33367097791330524,0.23292825677755716 l -1.5288292727022816 -2.2306075984889833" fill="#ff1c02" stroke="none" /><path d="M 111.8722381534696 117.32195027204791 l 2.5978328356640974 3.7903157444088036 a25.595130997519856,25.595130997519856 0 0,0 -0.3645523184762685,0.24528706932388347 l -2.532384229090826 -3.834352487789808" fill="#ff3705" stroke="none" /><path d="M 111.5731344415666 117.5232005979908 l 3.1454956701991965 4.7626813537258785 a26.70765071534428,26.70765071534428 0 0,0 -0.3847356223834761,0.24938098218505184 l -3.063274415558711 -4.815976177614825" fill="#ff4706" stroke="none" /><path d="M 111.27062007382361 117.71928675628689 l 1.3381884895995166 2.103854572850663 a23.493381739205066,23.493381739205066 0 0,0 -0.34214851770883736,0.2135259802452719 l -1.3018758431009643 -2.1265163499374826" fill="#ff1902" stroke="none" /><path d="M 110.96478420261333 117.91015095944535 l 1.4111684102854531 2.305037544778051 a23.70270130888043,23.70270130888043 0 0,0 -0.3488442169370531,0.20947092916224055 l -1.3713914367909634 -2.3289224744762147" fill="#ff1c02" stroke="none" /><line stroke="#e1ed5e" stroke-width="0.3" x1="143.1302829299769" x2="145.66735839644613" y1="173.24464959558577" y2="177.55315839532614" /><path d="M 143.63769802327073 174.10635135553383 a86.0,86.0 0 0,1 -40.68552437913181,11.842963189579606" fill="none" id="id66" stroke="none" /><text fill="#e1ed5e" style="font-size:6.75px; font-family:Arial;" text-anchor="middle"><textPath startOffset="21.407464694133747" xlink:href="#id66">June</textPath></text><path d="M 110.34350942703117 118.27599006163325 l 2.373097936088072 4.193036667215225 a25.818002730061163,25.818002730061163 0 0,0 -0.38758454337398107,0.21498661270213962 l -2.3007692045579966 -4.2331561953505075" fill="#ff3a05" stroke="none" /><path d="M 110.02825361518725 118.45085714620011 l 3.408053732172012 6.270435010104774 a28.13674894173245,28.13674894173245 0 0,0 -0.4263537238411959,0.22700934347644025 l -3.2999111925442626 -6.328014821303783" fill="#ff5a08" stroke="none" /><path d="M 109.71004243097381 118.62028667847754 l 2.1053389126013276 4.037264964254062 a25.553236247824913,25.553236247824913 0 0,0 -0.39068802649039713,0.19948809008839735 l -2.035723664397348 -4.0728110060152956" fill="#ff3605" stroke="none" /><path d="M 109.3889696526874 118.78422872680471 l 2.1480973669526553 4.297633687284972 a25.804578816919914,25.804578816919914 0 0,0 -0.397930874855649,0.194647931462329 l -2.074006242834937 -4.3338753688445255" fill="#ff3a05" stroke="none" /><path d="M 108.4095320186766 119.2426549942271 l 4.244938025926514 9.713248932683644 a31.60031620623823,31.60031620623823 0 0,0 -0.49893126035771357,0.2129640867600706 l -4.077571690398369 -9.78468766910312" fill="#ff890c" stroke="none" /><path d="M 108.07796709384702 119.3841803445677 l 0.9033402035060852 2.167687638960323 a23.348380979179442,23.348380979179442 0 0,0 -0.37128988887728287,0.151000365486393 l -0.8659958534383614 -2.182875261026007" fill="#ff1702" stroke="none" /><path d="M 107.74402155503746 119.51999308798841 l 0.9685636323833154 2.4414130661995284 a23.626521134463864,23.626521134463864 0 0,0 -0.3782805593423617,0.1463270467455866 l -0.9265108105474243 -2.4576800010831557" fill="#ff1b02" stroke="none" /><path d="M 107.407793817531 119.65005319985036 l 1.7785471858256077 4.717807714519466 a26.04191825830086,26.04191825830086 0 0,0 -0.4196603643021654,0.15410509867349104 l -1.6972976698693152 -4.747643662201679" fill="#ff3d05" stroke="none" /><path d="M 107.06938296918513 119.77432235084164 l 0.7276583574095852 2.0353899319673823 a23.161550105887486,23.161550105887486 0 0,0 -0.37554162483546205,0.13063287136583066 l -0.6926109605291013 -2.047581235901803" fill="#ff1402" stroke="none" /><path d="M 106.0420521117495 120.11202640906438 l 0.3633371999694649 1.209431369678386 a22.26282942587025,22.26282942587025 0 0,0 -0.36695502389624424,0.10681525939637498 l -0.34252216369161387 -1.2154903233772794" fill="#ff0701" stroke="none" /><path d="M 105.3480935250658 120.30758222061773 l 1.2726048576393068 4.83228792835102 a25.99705210560928,25.99705210560928 0 0,0 -0.43253487606873436,0.10994867408219496 l -1.1894646883451752 -4.853421834268485" fill="#ff3d05" stroke="none" /><path d="M 103.2317021107853 120.74984581791261 l 0.19546291663161663 1.2550121404104246 a22.270142206351593,22.270142206351593 0 0,0 -0.3782476485501086,0.05558937866372425 l -0.17389016247382252 -1.2581825923730312" fill="#ff0701" stroke="none" /><path d="M 102.15924093988457 120.88869738790638 l 0.7579057596472574 7.332050707907211 a28.371118553098242,28.371118553098242 0 0,0 -0.484876515998212,0.0459183101892439 l -0.6319296802640301 -7.343980773601639" fill="#ff5d08" stroke="none" /><path d="M 101.80034050326958 120.92268563240118 l 1.125248232933116 13.077090135625973 a34.12541313639328,34.12541313639328 0 0,0 -0.584082454634486,0.04521167598432337 l -0.900596783523394 -13.094479578605348" fill="#ffaa0f" stroke="none" /><path d="M 101.44090949804482 120.95050786540614 l 0.8077213805172355 11.744091602244902 a32.771835090183004,32.771835090183004 0 0,0 -0.561577616580277,0.033783114893229854 l -0.6059994118044933 -11.756226694962823" fill="#ff990e" stroke="none" /><path d="M 101.08105385017728 120.97215588758144 l 0.08194102013763302 1.5896338999505688 a22.591744409964505,22.591744409964505 0 0,0 -0.3874744933123536,0.01663982194296394 l -0.05464076622444983 -1.5908062903193638" fill="#ff0c01" stroke="none" /><path d="M 100.72087961077811 120.9876233191556 l 0.05111024835937001 1.4880191148104533 a22.488896619489964,22.488896619489964 0 0,0 -0.3859380439477924,0.009940394995605764 l -0.025558890340833782 -1.4886772271561042" fill="#ff0b01" stroke="none" /><line stroke="#e1ed5e" stroke-width="0.3" x1="101.45913802915013" x2="101.54496967792366" y1="184.9874750549273" y2="189.98673829345242" /><path d="M 101.47630435890484 185.9873277026323 a86.0,86.0 0 0,1 -42.54439059252881,-10.42667462771756" fill="none" id="id67" stroke="none" /><text fill="#e1ed5e" style="font-size:6.75px; font-family:Arial;" text-anchor="middle"><textPath startOffset="22.145653131862474" xlink:href="#id67">July</textPath></text><path d="M 100.36049292484886 120.99690560180557 l 0.053868105171952674 3.137547067582116 a24.138009460477765,24.138009460477765 0 0,0 -0.41436103002080454,0.0035567910900835805 l -3.842953241468207e-16 -3.1380094604777646" fill="#ff2203" stroke="none" /><path d="M 100.0 121.0 l 6.67112976072274e-16 5.447390843929401 a26.4473908439294,26.4473908439294 0 0,0 -0.45400463237851724,-0.003897083736903311 l 0.09351170752966444 -5.446588158386933" fill="#ff4306" stroke="none" /><path d="M 99.63950707515114 120.99690560180557 l -0.13913209545400357 8.103747044838672 a29.10494132654376,29.10494132654376 0 0,0 -0.4994777785161215,-0.01286477580491736 l 0.278223188040869 -8.100164551683706" fill="#ff6809" stroke="none" /><path d="M 99.27912038922189 120.98762331915562 l -0.04179229045561601 1.216736937226538 a22.2174544631948,22.2174544631948 0 0,0 -0.38105498869841375,-0.01636414079341594 l 0.06267303975486849 -1.2158402280072935" fill="#ff0701" stroke="none" /><path d="M 98.91894614982273 120.97215588758144 l -0.16617888561723612 3.2238259859282343 a24.228106164544645,24.228106164544645 0 0,0 -0.41517242097362306,-0.024975741881704056 l 0.2214956587233055 -3.2204982662218384" fill="#ff2403" stroke="none" /><path d="M 98.55909050195518 120.95050786540614 l -0.16021632060612995 2.3295101389641517 a23.33501322414357,23.33501322414357 0 0,0 -0.39939653619462295,-0.030915817861696514 l 0.200181851575989 -2.3264165541074013" fill="#ff1702" stroke="none" /><path d="M 98.19965949673042 120.92268563240118 l -0.1904920270837568 2.2138061055195224 a23.221986652799245,23.221986652799245 0 0,0 -0.39687529279795225,-0.037584502857652455 l 0.2284668832667243 -2.210209847156686" fill="#ff1502" stroke="none" /><path d="M 96.41257539226777 120.69131181640829 l -1.0893028445838544 6.282809336593432 a27.376540899829944,27.376540899829944 0 0,0 -0.46235753203278895,-0.08425694427612644 l 1.1969951101677005 -6.263184218385939" fill="#ff5007" stroke="none" /><path d="M 95.70440661134978 120.55596938700252 l -0.27709716978416704 1.3260102677218732 a22.354653487651447,22.354653487651447 0 0,0 -0.3749594819908066,-0.08172067391299905 l 0.2998190683941101 -1.3210581356751554" fill="#ff0901" stroke="none" /><path d="M 95.35216902796893 120.47920084513623 l -0.45477825812569883 2.0038369175218635 a23.05479576992152,23.05479576992152 0 0,0 -0.38519935894090984,-0.09090599986657827 l 0.4891097708064966 -1.9957347740090576" fill="#ff1302" stroke="none" /><path d="M 95.00130118170881 120.39639698878247 l -1.063736324465342 4.340407204729403 a25.468855521367182,25.468855521367182 0 0,0 -0.42374682413206105,-0.10771478564530514 l 1.1380884418227817 -4.3215071872488355" fill="#ff3505" stroke="none" /><path d="M 94.30408787586889 120.21278271476187 l -0.430638304563686 1.5281834215669272 a22.58770082802444,22.58770082802444 0 0,0 -0.3723098326162071,-0.10837396617294019 l 0.4568081495614999 -1.5205657610914711" fill="#ff0c01" stroke="none" /><path d="M 93.27111125876986 119.89276391827306 l -0.8308172242181963 2.4561634968549217 a23.592874154936993,23.592874154936993 0 0,0 -0.38253511764877285,-0.13306557119632045 l 0.8728581139119909 -2.441539493090011" fill="#ff1b02" stroke="none" /><path d="M 92.25597844496254 119.51999308798841 l -1.3825888851321235 3.485027164439252 a24.749262109024972,24.749262109024972 0 0,0 -0.39356693667320714,-0.16006024688880363 l 1.4422102829957717 -3.460779660971157" fill="#ff2b04" stroke="none" /><path d="M 90.6110303473126 118.78422872680471 l -0.7464992481250303 1.4934985562717935 a22.66967034621723,22.66967034621723 0 0,0 -0.34660066861415156,-0.17697677102192458 l 0.7720271384527642 -1.4804638335770328" fill="#ff0d01" stroke="none" /><line stroke="#e1ed5e" stroke-width="0.3" x1="58.13341422392154" x2="55.67067388415222" y1="173.97424548756322" y2="178.32567169271397" /><path d="M 57.64086615596768 174.84453072859336 a86.0,86.0 0 0,1 -31.369924170532247,-30.572349798747897" fill="none" id="id68" stroke="none" /><text fill="#e1ed5e" style="font-size:6.75px; font-family:Arial;" text-anchor="middle"><textPath startOffset="22.145653131862474" xlink:href="#id68">August</textPath></text><path d="M 88.72937992617639 117.7192867562869 l -0.40653532236552203 0.6391410504808539 a21.757477557912186,21.757477557912186 0 0,0 -0.3134261698625765,-0.203159056597368 l 0.4174471244851082 -0.6320681521795912" fill="#ff0000" stroke="none" /><path d="M 86.68645165197938 116.24036423190432 l -0.914099254693601 1.1150524602664231 a22.441845843555267,22.441845843555267 0 0,0 -0.2958323294418261,-0.24679385086176792 l 0.9331059182973198 -1.099196425492785" fill="#ff0a01" stroke="none" /><path d="M 83.8745106332314 113.45245675266167 l -2.101657858180207 1.7532777333458591 a23.736959729900498,23.736959729900498 0 0,0 -0.2583408403749196,-0.3151338196243315 l 2.131445517793756 -1.7169416320230324" fill="#ff1d02" stroke="none" /><path d="M 82.18462484594161 111.11811171558189 l -11.018030387583497 6.876065851856266 a33.98758157705957,33.98758157705957 0 0,0 -0.3046453173089481,-0.4976152308397434 l 11.134443669347851 -6.685913504891966" fill="#ffa80f" stroke="none" /><line stroke="#e1ed5e" stroke-width="0.3" x1="26.387840678322732" x2="22.057713659400548" y1="142.50000000000003" y2="145.00000000000006" /><path d="M 25.521815274538298 143.00000000000003 a86.0,86.0 0 0,1 -11.493303480769221,-40.785679425670985" fill="none" id="id69" stroke="none" /><text fill="#e1ed5e" style="font-size:6.75px; font-family:Arial;" text-anchor="middle"><textPath startOffset="21.40746469413373" xlink:href="#id69">September</textPath></text><path d="M 80.5471966667186 107.91128576633889 l -5.252158405970296 2.13600710025278 a26.66989367217188,26.66989367217188 0 0,0 -0.16883480968052872,-0.42557401145557944 l 5.288051890616949 -2.0455320715836356" fill="#ff4606" stroke="none" /><path d="M 80.16572619554312 106.89939002012753 l -59.50282141337066 20.698170060382587 a84.0,84.0 0 0,0 -0.46205831371053074,-1.3659933021033535 l 59.849365148653554 -19.673675083805072" fill="#4dd2ff" stroke="none" /><path d="M 79.73907114497094 105.5222062557868 l -1.6259165196838148 0.4431507775694319 a22.68522613931814,22.68522613931814 0 0,0 -0.09917820904346904,-0.3765958140418097 l 1.6332842095320166 -0.4151744591548196" fill="#ff0d01" stroke="none" /><path d="M 79.64726062577567 105.17358676015961 l -5.296684255548658 1.3463964252378056 a26.46513013906075,26.46513013906075 0 0,0 -0.10814467991909484,-0.441267198532417 l 5.319016461984046 -1.255273402097289" fill="#ff4306" stroke="none" /><path d="M 79.22317932658666 103.0534771498775 l -1.3690180972429182 0.20119851556736087 a22.383723741664184,22.383723741664184 0 0,0 -0.052607595550685844,-0.3806423549603622 l 1.3722702093488166 -0.17766785240691305" fill="#ff0901" stroke="none" /><path d="M 79.06263194458094 101.62068470465958 l -1.1004617655028377 0.08518270045654143 a22.103753681665747,22.103753681665747 0 0,0 -0.026036157593690355,-0.37856001726113 l 1.1017618842615942 -0.06627925904106811" fill="#ff0500" stroke="none" /><line stroke="#e1ed5e" stroke-width="0.3" x1="15.003131293944662" x2="10.003315487706104" y1="100.72959589197737" y2="100.7725132973878" /><path d="M 14.003168132696942 100.73817937305945 a86.0,86.0 0 0,1 10.791469493833604,-42.45332614584628" fill="none" id="id70" stroke="none" /><text fill="#e1ed5e" style="font-size:6.75px; font-family:Arial;" text-anchor="middle"><textPath startOffset="22.145653131862435" xlink:href="#id70">October</textPath></text><path d="M 79.00077361379809 100.18025310272382 l -1.0430225541566664 0.008953094182612354 a22.043060979221703,22.043060979221703 0 0,0 0.0,-0.3784123938128594 l 1.0430225541566664 0.00895309418261197" fill="#ff0400" stroke="none" /><path d="M 79.00696218219943 99.45929381324524 l -1.212849315199497 -0.031238696086832028 a22.213251547500803,22.213251547500803 0 0,0 0.0130902828913342,-0.38110930362978546 l 1.2121343453113123 0.052054264280756025" fill="#ff0701" stroke="none" /><path d="M 79.01933749520258 99.09900007780938 l -0.8529539986610666 -0.036629514737681626 a21.853740150854943,21.853740150854943 0 0,0 0.01931288960138088,-0.3746648987868404 l 0.8521995196031154 0.05126620690123403" fill="#ff0100" stroke="none" /><path d="M 79.22317932658666 96.9465228501225 l -6.214415644458929 -0.9133050945796658 a27.28116931772111,27.28116931772111 0 0,0 0.07207231268906882,-0.4627559486524467 l 6.197821839631592 1.0198492251635625" fill="#ff4e07" stroke="none" /><path d="M 79.2786578344484 96.59031103205396 l -3.505184224691504 -0.5767767302939547 a24.55232147273227,24.55232147273227 0 0,0 0.07200281899464529,-0.41529312595656365 l 3.4947665882046244 0.636862889171111" fill="#ff2803" stroke="none" /><path d="M 80.16572619554312 93.10060997987247 l -1.4453707702177596 -0.5027749826254606 a22.530320014426366,22.530320014426366 0 0,0 0.13020360980030124,-0.3642026698309069 l 1.4365269903735152 0.5275126088372889" fill="#ff0b01" stroke="none" /><path d="M 80.41425534168474 92.42381321644754 l -5.240210932002056 -2.0270261610505482 a26.618598194341466,26.618598194341466 0 0,0 0.1685100816428522,-0.42475548467258034 l 5.204642175393072 2.1166826629367113" fill="#ff4506" stroke="none" /><path d="M 80.68587082218212 91.75594674310238 l -7.257298007540606 -3.0977089738042873 a28.89076518828437,28.89076518828437 0 0,0 0.19861179122817454,-0.45446264642329987 l 7.203052334295454 3.221833690003454" fill="#ff6509" stroke="none" /><line stroke="#e1ed5e" stroke-width="0.3" x1="26.387840678322718" x2="22.05771365940052" y1="57.49999999999999" y2="54.99999999999999" /><path d="M 25.521815274538284 56.99999999999999 a86.0,86.0 0 0,1 29.574782752854787,-30.34633250058573" fill="none" id="id71" stroke="none" /><text fill="#e1ed5e" style="font-size:6.75px; font-family:Arial;" text-anchor="middle"><textPath startOffset="21.40746469413373" xlink:href="#id71">November</textPath></text><path d="M 82.18462484594161 88.88188828441811 l -3.326755932750444 -2.0761417478412447 a24.921437184658142,24.921437184658142 0 0,0 0.22961224735657335,-0.36098859042511733 l 3.2906259937679807 2.132944012945034" fill="#ff2d04" stroke="none" /><path d="M 82.37810715431573 88.57770195909679 l -3.5497151925556434 -2.300882501372302 a25.230193640175543,25.230193640175543 0 0,0 0.23869632750478714,-0.3614166628746026 l 3.509694426130127 2.3614790425859655" fill="#ff3204" stroke="none" /><path d="M 82.576782715395 88.27688183743585 l -3.153481962668306 -2.121803399911705 a24.800854924454658,24.800854924454658 0 0,0 0.2406985128265874,-0.35118632357619495 l 3.1165937130264054 2.1756244585579347" fill="#ff2c04" stroke="none" /><path d="M 82.78059297857968 87.97951657250589 l -3.691840769682232 -2.577191580041528 a25.502399883276123,25.502399883276123 0 0,0 0.25366982318416087,-0.3568183742508093 l 3.6470558479680992 2.6401871810018576" fill="#ff3605" stroke="none" /><path d="M 82.98947788004972 87.6856937992154 l -2.630307096400356 -1.9041394942946817 a24.247193039396777,24.247193039396777 0 0,0 0.2469726486613456,-0.33506583037966087 l 2.5972324281551917 1.9490116339432058" fill="#ff2403" stroke="none" /><path d="M 83.2033758604659 87.39550010848427 l -2.692364812364305 -2.0204007485939943 a24.36613241982199,24.36613241982199 0 0,0 0.25392761426672206,-0.33239939826106124 l 2.6572852207432764 2.06632106009594" fill="#ff2603" stroke="none" /><path d="M 84.58840730492382 85.73525988315684 l -1.3846440774920528 -1.2816058865908502 a22.88673073592342,22.88673073592342 0 0,0 0.26934866601105906,-0.28603894931397833 l 1.362439577744722 1.3051862958493397" fill="#ff1001" stroke="none" /><path d="M 85.34317274990677 84.96080404539775 l -0.671186681656675 -0.6886966636991486 a21.961662444012262,21.961662444012262 0 0,0 0.27224880906262394,-0.2608082005647819 l 0.6592653867287507 0.700116994569499" fill="#ff0300" stroke="none" /><path d="M 85.86807049272753 84.46653392183569 l -2.228528838689354 -2.449543574511727 a24.31158640356881,24.31158640356881 0 0,0 0.31111302476399305,-0.27819918516207226 l 2.186150787101969 2.4874382895572" fill="#ff2503" stroke="none" /><path d="M 86.40962598614128 83.9905735841838 l -4.899374906247221 -5.77145132025626 a28.570569649243886,28.570569649243886 0 0,0 0.3766222365012139,-0.31419166472332644 l 4.799578335584099 5.854705168891468" fill="#ff6008" stroke="none" /><path d="M 86.96720088162412 83.53348406188908 l -4.01468940496152 -5.072428913613315 a27.4689462899278,27.4689462899278 0 0,0 0.3722566164505735,-0.28946899652598174 l 3.927022843875702 5.140598961760102" fill="#ff5107" stroke="none" /><path d="M 87.25179093698888 83.31218511350988 l -6.147771596454502 -8.047630365878401 a31.127163971615197,31.127163971615197 0 0,0 0.42740117594762655,-0.3207298104138591 l 6.008717431596124 8.15197920355626" fill="#ff830c" stroke="none" /><path d="M 87.54013794807813 83.09580414077388 l -3.8573605327949445 -5.233250390276744 a27.50124141432202,27.50124141432202 0 0,0 0.3824230824415194,-0.27684482006049516 l 3.7669564399794573 5.298695981710319" fill="#ff5207" stroke="none" /><path d="M 87.83215693770416 82.88440491214696 l -1.8885891752753048 -2.6565371895267877 a24.25944150312687,24.25944150312687 0 0,0 0.3414861901765328,-0.23838388189726187 l 1.8427078939250066 2.6885658872291764" fill="#ff2403" stroke="none" /><path d="M 88.4268655584334 82.4767994020092 l -4.8456869780205185 -7.33698769159302 a29.79272828395971,29.79272828395971 0 0,0 0.42917754096001387,-0.2781876968743348 l 4.719023804803479 7.41908923017126" fill="#ff710a" stroke="none" /><line stroke="#e1ed5e" stroke-width="0.3" x1="56.869717070023135" x2="54.33264160355391" y1="26.7553504044142" y2="22.446841604673864" /><path d="M 56.362301976729285 25.89364864446614 a86.0,86.0 0 0,1 42.16139366436587,-11.88097634709845" fill="none" id="id72" stroke="none" /><text fill="#e1ed5e" style="font-size:6.75px; font-family:Arial;" text-anchor="middle"><textPath startOffset="22.145653131862474" xlink:href="#id72">December</textPath></text><path d="M 89.34428304082924 81.90426304109057 l -3.32055558618075 -5.639029328125126 a27.544061518993498,27.544061518993498 0 0,0 0.40949826056887095,-0.2364239309721199 l 3.2232648577514795 5.69520015637342" fill="#ff5207" stroke="none" /><path d="M 89.97174638481275 81.54914285379989 l -3.126795288890282 -5.752951153265067 a27.547770288463113,27.547770288463113 0 0,0 0.41742898123483874,-0.22225742072667795 l 3.0275774918688816 5.80577904171432" fill="#ff5207" stroke="none" /><path d="M 90.28995756902619 81.37971332152246 l -3.025675825908273 -5.802132346490797 a27.543657537622252,27.543657537622252 0 0,0 0.42111993570352413,-0.21502683976856093 l 2.9256286684911665 5.853217137932192" fill="#ff5207" stroke="none" /><path d="M 90.93487009805054 81.0573650232925 l -0.5961362297191053 -1.2456954415547015 a22.38099078110387,22.38099078110387 0 0,0 0.3479831468937058,-0.162873683445392 l 0.574664368953877 1.2557453565706365" fill="#ff0901" stroke="none" /><path d="M 91.26138138417902 80.90454125486306 l -2.7110095475340827 -5.924045120688214 a27.514897033627683,27.514897033627683 0 0,0 0.4311801826464078,-0.19286141130722906 l 2.6089159620320563 5.969710282905289" fill="#ff5207" stroke="none" /><path d="M 91.92203290615298 80.6158196554323 l -1.261708572495645 -3.0276412651113223 a24.28001831581988,24.28001831581988 0 0,0 0.3861049427991635,-0.15702551894174063 l 1.2095491685060404 3.0488540406323543" fill="#ff2403" stroke="none" /><path d="M 92.592206182469 80.34994680014964 l -2.327455807021709 -6.173853046509399 a27.59799302618095,27.59799302618095 0 0,0 0.4447362015539706,-0.16331329344889148 l 2.2211304538136116 6.212897188967013" fill="#ff5307" stroke="none" /><path d="M 92.93061703081487 80.22567764915836 l -1.0607872037525568 -2.9672106043887023 a24.15112809362646,24.15112809362646 0 0,0 0.3915866530705499,-0.13621416507838002 l 1.0096947786370025 2.984983202035668" fill="#ff2203" stroke="none" /><path d="M 93.27111125876988 80.10723608172694 l -1.5702739124429947 -4.64223580274875 a25.90062377748194,25.90062377748194 0 0,0 0.42239879640606287,-0.13885087428483942 l 1.4903523783891708 4.6685075984356175" fill="#ff3b05" stroke="none" /><path d="M 93.61358852112211 79.99465700312896 l -0.9778579368200364 -3.0631260596028227 a24.215423362734658,24.215423362734658 0 0,0 0.39708608875891366,-0.12301828533539487 l 0.9251312151895066 3.0794609327448597" fill="#ff2303" stroke="none" /><path d="M 93.95794788825049 79.88797359093562 l -4.246923800066488 -14.136628093313345 a35.76077964107002,35.76077964107002 0 0,0 0.5894398010563543,-0.17157733549980234 l 4.00362398662851 14.207449123115667" fill="#ffbf11" stroke="none" /><path d="M 94.30408787586887 79.78721728523814 l -1.032859173863807 -3.6652528341880286 a24.808001629668507,24.808001629668507 0 0,0 0.4108897320210254,-0.11198982360780718 l 0.9697880409081041 3.682443151939976" fill="#ff2c04" stroke="none" /><path d="M 94.6519064749342 79.69241777938228 l -0.8319385649020125 -3.1590062384038893 a24.266717341620776,24.266717341620776 0 0,0 0.40374583761705823,-0.10263061308644057 l 0.7775874340595761 3.1728220833255927" fill="#ff2403" stroke="none" /><path d="M 95.00130118170881 79.60360301121753 l -1.6844429969217491 -6.873102245022901 a28.076502150103366,28.076502150103366 0 0,0 0.4691019923773175,-0.1107067929025435 l 1.5662088508045258 6.901005181571676" fill="#ff5908" stroke="none" /><path d="M 95.35216902796891 79.52079915486377 l -0.739160341929804 -3.2568768507786356 a24.339701308832804,24.339701308832804 0 0,0 0.40825512234455946,-0.0889773037590488 l 0.6831428029661262 3.2690856126713985" fill="#ff2503" stroke="none" /><path d="M 96.05791012581881 79.37332000966035 l -1.311250079786634 -6.8610144989868145 a27.985191244844177,27.985191244844177 0 0,0 0.47263691949894304,-0.08613019109687427 l 1.1932784267366523 6.88251286401505" fill="#ff5808" stroke="none" /><path d="M 98.5590905019552 79.04949213459386 l -0.44741724567886815 -6.505348557583019 a27.520716375320916,27.520716375320916 0 0,0 0.47159453433425097,-0.028369956113012004 l 0.33567835921213335 6.512070491520726" fill="#ff5207" stroke="none" /><path d="M 99.63950707515114 79.00309439819443 l -0.2183784102859684 -12.719447595731026 a33.72132211173928,33.72132211173928 0 0,0 0.5788713351348175,-0.004968914202691623 l 3.115825281012792e-15 12.721322111739283" fill="#ffa50f" stroke="none" /></svg>