<?xml version="1.0" encoding="utf-8" ?>
<svg baseProfile="full" height="200mm" version="1.1" viewBox="0,0,200,200" width="200mm" xmlns="http://www.w3.org/2000/svg" xmlns:ev="http://www.w3.org/2001/xml-events" xmlns:xlink="http://www.w3.org/1999/xlink"><defs /><rect fill="#1a1a1a" height="200" width="200" x="0" y="0" /><text alignment-baseline="middle" fill="#e1ed5e" style="dominant-baseline: central; font-size:9.0px; font-family:Arial;" text-anchor="middle" x="100.0" y="100.0">2022</text><line stroke="#e1ed5e" stroke-width="0.3" x1="100.0" x2="100.0" y1="15.0" y2="10.0" /><path d="M 100.0 14.0 a86.0,86.0 0 0,1 42.46469731375804,11.215312516191453" fill="none" id="id97" stroke="none" /><text fill="#e1ed5e" style="font-size:6.75px; font-family:Arial;" text-anchor="middle"><textPath startOffset="22.20632615414155" xlink:href="#id97">January</textPath></text><path d="M 100.0 79.0 l 0.0 -3.9367548143626543 a24.936754814362654,24.936754814362654 0 0,0 0.4292452419903496,0.0036946493153702724 l -0.06776476271782123 3.9361715416558427" fill="#ff2303" stroke="none" /><path d="M 100.36148047927253 79.00311137660856 l 0.21789256866542886 -12.6564676613794 a33.65834313150904,33.65834313150904 0 0,0 0.5792013671999587,0.014959062504293122 l -0.43572057106025536 12.650841806732748" fill="#ff9c0e" stroke="none" /><path d="M 101.08401301168833 79.027996857942 l 0.5441748648638048 -10.527952019669998 a31.542006450957196,31.542006450957196 0 0,0 0.5419787134881494,0.03269363607727124 l -0.7253156271915663 10.517025114212423" fill="#ff7f0b" stroke="none" /><path d="M 101.80526077348638 79.07773832637324 l 0.4804837444740603 -5.5686174426734 a26.589308083434858,26.589308083434858 0 0,0 0.4556582793944982,0.04327024406997889 l -0.5762671509588027 5.559521654088242" fill="#ff3b05" stroke="none" /><path d="M 102.16513564639614 79.11191278185805 l 1.332396785900662 -12.854261726922326 a33.92313142157498,33.92313142157498 0 0,0 0.5803008727545333,0.06520356452968457 l -1.5534643621649207 12.82942220892204" fill="#ff9f0e" stroke="none" /><path d="M 102.52436894288641 79.15227682838746 l 1.5424429898128196 -12.738401234981067 a33.831445608355665,33.831445608355665 0 0,0 0.5775273792325437,0.07497962897115124 l -1.7614850975532095 12.709963282845779" fill="#ff9e0e" stroke="none" /><path d="M 102.88285421437855 79.19881850522331 l 1.4199885460703252 -10.245901204435377 a31.343831928353303,31.343831928353303 0 0,0 0.5337869795147545,0.07866632524551201 l -1.5961445060137356 10.219940395028896" fill="#ff7d0b" stroke="none" /><path d="M 103.2404852339499 79.25152402106235 l 1.6096314154429396 -10.306295615349049 a31.431233992416423,31.431233992416423 0 0,0 0.5338382466719018,0.08808788480346702 l -1.7867988682537166 10.277061467605957" fill="#ff7e0b" stroke="none" /><path d="M 103.59715602781102 79.31037775812273 l 1.8034915617151883 -10.373072182528286 a31.5286850231698,31.5286850231698 0 0,0 0.5338930580690038,0.09756554380356518 l -1.981779740887093 10.340491157373982" fill="#ff7f0b" stroke="none" /><path d="M 103.95276090670814 79.375362276772 l 1.6283079322611689 -8.49615294154317 a29.650780399961455,29.650780399961455 0 0,0 0.5004396456790535,0.10038348503146238 l -1.774313987407348 8.466865500434498" fill="#ff6509" stroke="none" /><path d="M 104.307194497241 79.44645832069477 l 3.277238264658691 -15.638683906385792 a36.97838305233646,36.97838305233646 0 0,0 0.6218659535224045,0.1359158111371808 l -3.5459469423346235 15.57995459715274" fill="#ffc712" stroke="none" /><path d="M 104.66035177308747 79.52364482259891 l 0.7172363276799257 -3.1513470456285506 a24.231936904046176,24.231936904046176 0 0,0 0.40591530580295837,0.09606703828601847 l -0.7713753204454077 3.138534095201664" fill="#ff1902" stroke="none" /><path d="M 105.36241919743992 79.69619591428918 l 3.2592335357056013 -12.34048229764239 a33.763624351205785,33.763624351205785 0 0,0 0.5606403370820559,0.1532441824359529 l -3.4711717620113682 12.282551574380145" fill="#ff9d0e" stroke="none" /><path d="M 105.71112130821622 79.79150937346287 l 3.1302465374866504 -11.076206299548348 a32.51002994677258,32.51002994677258 0 0,0 0.5372046863635437,0.15682477907195502 l -3.320441441573621 11.020683191557689" fill="#ff8c0c" stroke="none" /><path d="M 106.0581310904928 79.89281104454417 l 3.0749295349709125 -10.205818966413737 a31.658983648558937,31.658983648558937 0 0,0 0.5204354400283209,0.1617018245667104 l -3.2501503477099516 10.151377006964507" fill="#ff810b" stroke="none" /><path d="M 106.40334571778207 80.00007090966166 l 3.3273170369724965 -10.392396058786314 a31.912054550230437,31.912054550230437 0 0,0 0.5217122145062444,0.17200031456079418 l -3.5057120737211585 10.333582019966284" fill="#ff840c" stroke="none" /><path d="M 106.74666289553966 80.11325718540242 l 3.396673286885823 -10.012174778462693 a31.572654974618636,31.572654974618636 0 0,0 0.5131578724923117,0.17903070559361176 l -3.5685131634414087 9.952223219696874" fill="#ff800b" stroke="none" /><path d="M 107.08798089147638 80.2323363322302 l 2.6925642905027996 -7.509290179169765 a28.97742699455572,28.97742699455572 0 0,0 0.4680788281041977,0.17239738267050406 l -2.8214254443795737 7.461829528692936" fill="#ff5c08" stroke="none" /><path d="M 107.4271985657038 80.35727306442388 l 4.723186144835222 -12.491419865533542 a34.35455194365612,34.35455194365612 0 0,0 0.5513363030431201,0.21390992005734447 l -4.9375056128780095 12.408267241585651" fill="#ffa50f" stroke="none" /><path d="M 108.43124777332544 80.76684994638697 l 4.277579614007958 -9.757906871481003 a31.654315269723938,31.654315269723938 0 0,0 0.4971504382688095,0.22305691006377457 l -4.444912170743548 9.682829630900699" fill="#ff810b" stroke="none" /><path d="M 108.76106565485865 80.91482961587045 l 4.456807117828239 -9.708741671828692 a31.682827085365908,31.682827085365908 0 0,0 0.4936814928551894,0.23179008044161795 l -4.623266821983027 9.630586608747072" fill="#ff810b" stroke="none" /><path d="M 109.08828744355905 81.06846463323043 l 14.886612323695044 -31.009849704649593 a55.39799420287389,55.39799420287389 0 0,0 0.8561067080391479,0.42008784360419804 l -15.418190298744625 30.749006700910563" fill="#61ff29" stroke="none" /><path d="M 109.41281617654863 81.2277094730956 l 2.4051019694204463 -4.796574380075203 a26.365784310508943,26.365784310508943 0 0,0 0.40394831373348505,0.20691801573191776 l -2.487310770742687 4.754463839030785" fill="#ff3705" stroke="none" /><path d="M 109.73455568895987 81.39251694778311 l 3.6745936713119955 -7.023940449615657 a28.927066171604295,28.927066171604295 0 0,0 0.4392161113437787,0.23461403566265104 l -3.7949548291840856 6.959647687451252" fill="#ff5b08" stroke="none" /><path d="M 110.05341064243156 81.56283822128135 l 4.076133798130468 -7.475307727970984 a29.51440499201936,29.51440499201936 0 0,0 0.4439471220167138,0.2470560927509507 l -4.2042050092192165 7.404036237659853" fill="#ff6409" stroke="none" /><path d="M 110.36928655335952 81.73862282372117 l 2.266213823286238 -3.99103498357068 a25.589562651597497,25.589562651597497 0 0,0 0.3811666101048997,0.22079630317506319 l -2.334577165856466 3.951434523005567" fill="#ff2c04" stroke="none" /><line stroke="#e1ed5e" stroke-width="0.3" x1="143.23703022742887" x2="145.7803849466894" y1="26.81831364943548" y2="22.513508569990506" /><path d="M 143.74570117128098 25.957352633546492 a86.0,86.0 0 0,1 28.547481713284135,27.462654790039103" fill="none" id="id98" stroke="none" /><text fill="#e1ed5e" style="font-size:6.75px; font-family:Arial;" text-anchor="middle"><textPath startOffset="19.985693538727396" xlink:href="#id98">February</textPath></text><path d="M 110.68208982089419 81.91981866633111 l 12.909778214031363 -21.850699160999593 a46.379429216591674,46.379429216591674 0 0,0 0.6838490777443229,0.4120114177013985 l -13.283989357993322 21.625241133839577" fill="#c4ff1e" stroke="none" /><path d="M 110.99172775467656 82.1063720568725 l 2.9268063191437172 -4.7645997522155 a26.591744453083635,26.591744453083635 0 0,0 0.3879619621636158,0.2429417451151574 l -3.0083874336795966 4.713513665777398" fill="#ff3b05" stroke="none" /><path d="M 111.60114157652 82.49532879139004 l 2.9400286217702174 -4.436135360346845 a26.321941866663682,26.321941866663682 0 0,0 0.3755204865407784,0.25355310879966525 l -3.0159538027175374 4.3848703392485096" fill="#ff3705" stroke="none" /><path d="M 112.19680574252982 82.90503203632743 l 12.023764605603244 -16.852434569716614 a41.70206429845915,41.70206429845915 0 0,0 0.5807601915142777,0.4219469777076584 l -12.312070113471309 16.64296835719228" fill="#fcff18" stroke="none" /><path d="M 112.48926042617603 83.11751280151076 l 2.611233181755875 -3.5297615118080783 a25.39064403701149,25.39064403701149 0 0,0 0.3491260059161356,0.26295446951487045 l -2.6716053414303937 3.4842904527873606" fill="#ff2904" stroke="none" /><path d="M 113.06298171725822 83.55741782278167 l 13.16139191950603 -16.566452658901575 a42.158203868912544,42.158203868912544 0 0,0 0.5643108490560304,0.4563001280809334 l -13.444606167126553 16.33744643355651" fill="#f6ff19" stroke="none" /><path d="M 113.34407831869373 83.78471172551755 l 14.462702570107073 -17.574603940524657 a43.76041452385449,43.76041452385449 0 0,0 0.5775175745157641,0.4836543601406345 l -14.763077681581954 17.323048422990205" fill="#e3ff1b" stroke="none" /><path d="M 113.89432698308785 84.25364557470407 l 13.764067529410967 -15.59873219592577 a41.80312479110762,41.80312479110762 0 0,0 0.5354562501410297,0.48073790826634505 l -14.030534767147985 15.359495278890126" fill="#fbff18" stroke="none" /><path d="M 114.16331599549186 84.49514656593476 l 1.0739783042929678 -1.1757046305207501 a22.592391527332374,22.592391527332374 0 0,0 0.2848708172694149,0.2647563783086974 l -1.0940570053572294 1.1570436661374122" fill="#ff0100" stroke="none" /><path d="M 114.42810811169701 84.74124197986012 l 14.487085087731398 -15.321130397661694 a42.08584053343197,42.08584053343197 0 0,0 0.5220984126483196,0.5022582593096532 l -14.748666743992136 15.06948905158974" fill="#f7ff18" stroke="none" /><path d="M 114.68862486808459 84.99185889309783 l 14.894391235909122 -15.218383434628535 a42.29417959564779,42.29417959564779 0 0,0 0.5159168892237462,0.513701378143572 l -15.154143925300191 14.959746205834845" fill="#f5ff19" stroke="none" /><path d="M 115.4437574822437 85.77008943001954 l 6.964386644304471 -6.417000476546022 a30.46998291695177,30.46998291695177 0 0,0 0.3520826250056716,0.3887784283115087 l -7.073812909926178 6.296169260964964" fill="#ff710a" stroke="none" /><path d="M 115.68641384162765 86.03803664274999 l 8.350035291725717 -7.432093017043723 a32.17851045475447,32.17851045475447 0 0,0 0.36470225267508766,0.4169177199666429 l -8.476729407978654 7.2872597408741315" fill="#ff880c" stroke="none" /><path d="M 115.9244219780498 86.31012108654704 l 4.981187389770559 -4.282218362787251 a27.568837181617578,27.568837181617578 0 0,0 0.30626271966538654,0.36251845984933423 l -5.054160722923063 4.195840953308811" fill="#ff4806" stroke="none" /><path d="M 116.38621287248628 86.86637796730983 l 17.97296393585634 -14.405410022291058 a44.03352492672184,44.03352492672184 0 0,0 0.46894848413930035,0.5955169523927372 l -18.218266500589603 14.093900675945282" fill="#e0ff1b" stroke="none" /><path d="M 116.60985879189232 87.15038557335679 l 10.792053876420376 -8.348880801518437 a34.6444947693025,34.6444947693025 0 0,0 0.36083735927744315,0.47481966792929325 l -10.934167175921932 8.161876357708111" fill="#ffa90f" stroke="none" /><path d="M 116.82858285166822 87.43820079747576 l 8.66552694221777 -6.468435898119184 a31.8135110003356,31.8135110003356 0 0,0 0.32379698704670185,0.4416587264413283 l -8.775586541778098 6.318314728006362" fill="#ff830c" stroke="none" /><path d="M 117.04232023915458 87.72973835380427 l 8.650923395875932 -6.228558791232969 a31.65989775828826,31.65989775828826 0 0,0 0.314620053354957,0.4450077533548363 l -8.756856069034772 6.078724537546339" fill="#ff810b" stroke="none" /><path d="M 117.2510076193507 88.02491185347247 l 5.259020645378166 -3.6506410050024662 a27.40191204999875,27.40191204999875 0 0,0 0.2656361374893747,0.38978825398790934 l -5.321081248536274 3.5595747277441503" fill="#ff4606" stroke="none" /><path d="M 117.45458315368197 88.32363383020206 l 4.043301120330628 -2.704794723543752 a25.864586153639078,25.864586153639078 0 0,0 0.2443629008550867,0.3721814627772811 l -4.089260656543639 2.634795196788797" fill="#ff3004" stroke="none" /><line stroke="#e1ed5e" stroke-width="0.3" x1="172.23445277983987" x2="176.4835382374775" y1="55.19839476539836" y2="52.563006222186495" /><path d="M 173.08426987136738 54.67131705675599 a86.0,86.0 0 0,1 12.851231095245387,41.99856678651699" fill="none" id="id99" stroke="none" /><text fill="#e1ed5e" style="font-size:6.75px; font-family:Arial;" text-anchor="middle"><textPath startOffset="22.20632615414155" xlink:href="#id99">March</textPath></text><path d="M 117.84615892207809 88.93136811851018 l 10.54068898797992 -6.537597625048914 a33.40347963469793,33.40347963469793 0 0,0 0.29885648122036174,0.49124147610550795 l -10.651661267486505 6.355188375736324" fill="#ff980e" stroke="none" /><path d="M 118.03404312379186 89.2402003453031 l 18.791094406632123 -11.211485395702255 a42.881559217226865,42.881559217226865 0 0,0 0.37274351327297756,0.6371394907685888 l -18.981297594375427 10.886366492579771" fill="#edff19" stroke="none" /><path d="M 118.21658344932153 89.55222093294921 l 19.832451696384517 -11.374529930830658 a43.86276604955725,43.86276604955725 0 0,0 0.3699978017836553,0.6581848039089413 l -20.025307139460605 11.031461616986924" fill="#e2ff1b" stroke="none" /><path d="M 118.56541770881063 90.18545643968196 l 10.604133124440828 -5.605838128804666 a32.99470968582497,32.99470968582497 0 0,0 0.26111473835260246,0.5043905633452678 l -10.699057295953548 5.422474843199053" fill="#ff930d" stroke="none" /><path d="M 119.04729006885535 91.15688171328212 l 19.831702548290593 -9.207298824534426 a42.86482969538406,42.86482969538406 0 0,0 0.30494791620243333,0.6719123109739819 l -19.987252781456373 8.864564504718382" fill="#eeff19" stroke="none" /><path d="M 119.196687751892 91.48605970444005 l 21.582148384258698 -9.571918091723086 a44.609547747358825,44.609547747358825 0 0,0 0.30527649719104655,0.7046202451144623 l -21.74371559129243 9.19899870202202" fill="#d9ff1c" stroke="none" /><path d="M 119.34039704204932 91.81776055985345 l 9.818461235524925 -4.153844442189873 a31.660985164768654,31.660985164768654 0 0,0 0.20802520593123372,0.503749536573806 l -9.888508128342357 3.984220335162763" fill="#ff810b" stroke="none" /><path d="M 119.47837535516314 92.15188598940014 l 9.662840968302946 -3.89329583205896 a31.417689187849746,31.417689187849746 0 0,0 0.1977914837355094,0.5033577519584287 l -9.728426001920157 3.726389075204747" fill="#ff7e0b" stroke="none" /><path d="M 119.85752413597 93.16781622104841 l 10.18901257488591 -3.50563373162778 a31.775223668746264,31.775223668746264 0 0,0 0.17349681604122627,0.5187333968717013 l -10.247846684698905 3.3297272318337647" fill="#ff820c" stroke="none" /><path d="M 119.97218684219823 93.5106431181261 l 10.271369153632223 -3.3373701452942264 a31.799956656250465,31.799956656250465 0 0,0 0.16467004298933183,0.5220490364233064 l -10.32729468038976 3.160070942444501" fill="#ff830c" stroke="none" /><path d="M 120.08093135843002 93.85539295169968 l 20.640239278931666 -6.315750872714709 a42.5849064528376,42.5849064528376 0 0,0 0.20845129787626293,0.7027941497476945 l -20.745896473919633 5.959527336220485" fill="#f1ff19" stroke="none" /><path d="M 120.53481517161879 95.60439243477599 l 20.805237121468622 -4.453493100527272 a42.276547945495764,42.276547945495764 0 0,0 0.14619774657549017,0.712912133374988 l -20.87881416395911 4.094705310988872" fill="#f5ff19" stroke="none" /><path d="M 120.6074358757038 95.95851677861258 l 21.10393069123919 -4.138854649768672 a42.50595286037192,42.50595286037192 0 0,0 0.13463108019187067,0.719204613792049 l -21.17204749534092 3.7749719585140604" fill="#f2ff19" stroke="none" /><path d="M 120.67395015179393 96.31383870115 l 21.0171000009343 -3.747344850339675 a42.34856168168338,42.34856168168338 0 0,0 0.12177860986918441,0.7187442489397761 l -21.078490472323708 3.3850148130840614" fill="#f4ff19" stroke="none" /><path d="M 120.73433829027371 96.67025291283417 l 21.21597558049045 -3.4070936772386817 a42.48780833769342,42.48780833769342 0 0,0 0.10974824776192593,0.7231038291622248 l -21.271479721691676 3.0413907356843746" fill="#f2ff19" stroke="none" /><path d="M 120.78858239683441 97.02765380044208 l 20.129220643663523 -2.878070824558327 a41.33393261010923,41.33393261010923 0 0,0 0.09464289783656321,0.7051995192636843 l -20.175779540557922 2.5311529632299785" fill="#fffe18" stroke="none" /><path d="M 120.83666639777658 97.38593545837742 l 5.431047035878696 -0.6813521515077782 a26.47361970365964,26.47361970365964 0 0,0 0.05283333602369565,0.4526437582764548 l -5.44197072490598 0.5877646549064707" fill="#ff3905" stroke="none" /><path d="M 120.94382443527127 98.46500227214037 l 32.166039862472076 -2.357487203721278 a53.25231567422489,53.25231567422489 0 0,0 0.05913392996043928,0.9147757231910784 l -32.20185438343693 1.8034524162771646" fill="#78ff26" stroke="none" /><path d="M 120.98425023603335 99.18683210126433 l 10.777868488285788 -0.4176568889947352 a31.78595783543161,31.78595783543161 0 0,0 0.01648072480629344,0.5469150218396047 l -10.783460907547727 0.2320717197301314" fill="#ff830c" stroke="none" /><line stroke="#e1ed5e" stroke-width="0.3" x1="184.98032266829074" x2="189.97916517819016" y1="98.17113171792111" y2="98.06355123074" /><path d="M 185.9800911702706 98.14961562048488 a86.0,86.0 0 0,1 -9.607161424134198,41.387399972396054" fill="none" id="id100" stroke="none" /><text fill="#e1ed5e" style="font-size:6.75px; font-family:Arial;" text-anchor="middle"><textPath startOffset="21.466115282336823" xlink:href="#id100">April</textPath></text><path d="M 120.99513854157772 99.54816195383933 l 15.784261010221922 -0.33969433642102254 a36.787915881490136,36.787915881490136 0 0,0 0.008175663884428261,0.6332141777466836 l -15.787769681224065 0.0679439006138762" fill="#ffc512" stroke="none" /><path d="M 120.99824983174949 100.27111621757518 l 32.03714476787844 0.413643497956809 a53.03981500916325,53.03981500916325 0 0,0 -0.019644778873336783,0.9128156815676153 l -32.02527792632009 -0.9650489953145391" fill="#7aff26" stroke="none" /><path d="M 120.9764740272857 100.99374915477107 l 6.708300001930989 0.317802098112304 a27.715823634482362,27.715823634482362 0 0,0 -0.026677996848121374,0.47635355498780135 l -6.701835654195338 -0.43322736943552864" fill="#ff4a06" stroke="none" /><path d="M 120.95626037817324 101.35467743843564 l 10.704248827230208 0.6919557268315432 a31.72659058989175,31.72659058989175 0 0,0 -0.03992027167774195,0.5446803902392741 l -10.690751996888128 -0.8761092535675875" fill="#ff820b" stroke="none" /><path d="M 120.92983693683757 101.71520430193887 l 10.291978316297957 0.8434296710886423 a31.3264801008485,31.3264801008485 0 0,0 -0.048668526690873716,0.5370531365508721 l -10.275935193330008 -1.020464196188085" fill="#ff7c0b" stroke="none" /><path d="M 120.89721153311464 102.0752229133903 l 7.212962757283679 0.7162920068845651 a28.2484416240381,28.2484416240381 0 0,0 -0.052216166191764155,0.4834568486048595 l -7.199564289590864 -0.840345177374216" fill="#ff5207" stroke="none" /><path d="M 120.70491114924044 103.5080841355445 l 3.5624180505994425 0.6035892720043732 a24.613190055410247,24.613190055410247 0 0,0 -0.0743711654474991,0.4171129916838155 l -3.551500442812755 -0.6648210144214071" fill="#ff1e03" stroke="none" /><path d="M 120.64145759157962 103.86396538481128 l 3.3576235125765823 0.6285283377040594 a24.415945480171505,24.415945480171505 0 0,0 -0.08088661731038392,0.41243911903563313 l -3.346306962290534 -0.6862311838076374" fill="#ff1b02" stroke="none" /><path d="M 120.32669344350535 105.2749913415812 l 1.5608668484258674 0.4050614101940091 a22.612569398365,22.612569398365 0 0,0 -0.1010156492436039,0.3759168095793505 l -1.5536631228404862 -0.4318691529489078" fill="#ff0100" stroke="none" /><path d="M 120.13307415673323 105.97154293290107 l 5.12127639114347 1.5189891818253807 a26.34179745113815,26.34179745113815 0 0,0 -0.13267890163793378,0.4336023273026395 l -5.0943707169994035 -1.6069184816800772" fill="#ff3705" stroke="none" /><path d="M 120.02730092923936 106.31721596034902 l 6.970082938112931 2.198574802324884 a28.3086104921244,28.3086104921244 0 0,0 -0.15058529309205093,0.4634538774901189 l -6.931205394004633 -2.3182275797927985" fill="#ff5307" stroke="none" /><path d="M 119.9155931802556 106.66101706037122 l 10.71889068083822 3.5850658851629116 a32.30253576984914,32.30253576984914 0 0,0 -0.18090830430088203,0.5258042135985104 l -10.655591545594108 -3.7690428018507225" fill="#ff8a0c" stroke="none" /><path d="M 119.79798401119884 107.00284435728193 l 10.276435869656 3.6349297434568637 a31.90036001345918,31.90036001345918 0 0,0 -0.18756764413624702,0.5161055995652515 l -10.212343964514526 -3.8112831400282463" fill="#ff840c" stroke="none" /><path d="M 119.54520255179757 107.68017299344265 l 14.425903477447653 5.668574372656691 a36.49965891750449,36.49965891750449 0 0,0 -0.23480992858341473,0.5827789861219497 l -14.326190934606846 -5.916052726621453" fill="#ffc111" stroke="none" /><path d="M 119.41010516605496 108.01547362559984 l 9.290177963012944 3.8364128273702622 a31.051142719435557,31.051142719435557 0 0,0 -0.20826299928047992,0.4922722104036065 l -9.222763982540155 -3.9957595634400325" fill="#ff790b" stroke="none" /><path d="M 118.81262510543309 109.33194174019688 l 14.566853120659019 7.225840301295134 a37.26056511621519,37.26056511621519 0 0,0 -0.28996052932415367,0.5721196329190998 l -14.440313921548595 -7.475514145916929" fill="#ffcb12" stroke="none" /><path d="M 118.64920377521936 109.65438752849418 l 43.492341623862 22.51527333924919 a69.97470074914011,69.97470074914011 0 0,0 -0.5629547704419484,1.0648982706317243 l -43.09833434519516 -23.26058662496705" fill="#3bff9f" stroke="none" /><line stroke="#e1ed5e" stroke-width="0.3" x1="174.80103733775053" x2="179.2010983576182" y1="140.37084112569926" y2="142.7455964860345" /><path d="M 175.68104954172406 140.8457921977663 a86.0,86.0 0 0,1 -30.038265399797805,32.042727171017184" fill="none" id="id101" stroke="none" /><text fill="#e1ed5e" style="font-size:6.75px; font-family:Arial;" text-anchor="middle"><textPath startOffset="22.206326154141568" xlink:href="#id101">May</textPath></text><path d="M 118.48025628344425 109.97397251340804 l 14.489890319671366 7.820333525361932 a37.46555610734134,37.46555610734134 0 0,0 -0.3111846103875429,0.5648904575335923 l -14.353129299832315 -8.06859450129333" fill="#ffcd13" stroke="none" /><path d="M 118.30583269289576 110.29060199501025 l 14.680536642719684 8.25264614824219 a37.84114974003651,37.84114974003651 0 0,0 -0.3240788211449747,0.5650587413513919 l -14.536305825422328 -8.504124735451898" fill="#ffd213" stroke="none" /><path d="M 118.12598468904814 110.60418214915192 l 13.561384946706493 7.933770144721143 a36.711647602400774,36.711647602400774 0 0,0 -0.32379520098056896,0.5426993815085963 l -13.422808870027696 -8.166031620115843" fill="#ffc412" stroke="none" /><path d="M 117.94076556474637 110.91462005526583 l 53.8222966942391 32.74386016579747 a84.0,84.0 0 0,0 -0.7621414413281484,1.228814674538906 l -53.25069061324299 -33.665471171701654" fill="#4dd2ff" stroke="none" /><path d="M 117.75023020441432 111.22182372390056 l 8.986676641569769 5.681441872810799 a31.63198658832222,31.63198658832222 0 0,0 -0.29492329217694574,0.45772749884597214 l -8.887548486015772 -5.835290971578224" fill="#ff810b" stroke="none" /><path d="M 117.55443506779139 111.5257021239791 l 4.689757331708632 3.0791504158510867 a26.61025766910494,26.61025766910494 0 0,0 -0.25469424551003034,0.3807333396684697 l -4.636059980787881 -3.1594206697253635" fill="#ff3b05" stroke="none" /><path d="M 117.14729908036423 112.12312394758627 l 10.571426752160939 7.473988540039749 a33.94664312758135,33.94664312758135 0 0,0 -0.3414389052170976,0.47422877625598464 l -10.44120805456824 -7.654850921746865" fill="#ffa00e" stroke="none" /><path d="M 116.71984013943494 112.70617746262583 l 8.443993118286668 6.416979717472804 a31.605595149548655,31.605595149548655 0 0,0 -0.3329020088021831,0.4303207220192097 l -8.332284292266417 -6.561378433605267" fill="#ff800b" stroke="none" /><path d="M 116.498646956653 112.99209946851258 l 8.923505704782382 7.026944332403078 a32.35812047453167,32.35812047453167 0 0,0 -0.34836149708869996,0.43463453064700586 l -8.801226295638829 -7.1795066966283345" fill="#ff8a0c" stroke="none" /><path d="M 116.27256486870786 113.27417163493432 l 8.332814713608183 6.797404932964594 a31.75362798659208,31.75362798659208 0 0,0 -0.3491447485712591,0.42056734144131985 l -8.21457396514338 -6.9398335315196835" fill="#ff820c" stroke="none" /><path d="M 116.0416608686014 113.55231037782055 l 4.054021622278308 3.4249171425291025 a26.30708476916374,26.30708476916374 0 0,0 -0.29521245605761504,0.34339878045365474 l -3.9944666566499136 -3.494193022144285" fill="#ff3605" stroke="none" /><path d="M 115.80600337817218 113.82643327865902 l 8.478333842493083 7.416493238848304 a32.26439153734662,32.26439153734662 0 0,0 -0.3692600465467764,0.41486757679418007 l -8.349414946297967 -7.5613349853833505" fill="#ff890c" stroke="none" /><path d="M 115.56566222782051 114.09645910891815 l 7.801138360154962 7.064808826468728 a31.524698735300298,31.524698735300298 0 0,0 -0.3677184853364061,0.3990857905497872 l -7.678373466822833 -7.198045871819851" fill="#ff7f0b" stroke="none" /><path d="M 115.07121518719521 114.62390073753431 l 8.363615814533635 8.11538326269324 a32.65373395069231,32.65373395069231 0 0,0 -0.39489151732003125,0.4000230221829478 l -8.222683672158068 -8.258146778856851" fill="#ff8e0d" stroke="none" /><path d="M 114.55890576462653 115.13401014063108 l 13.404507716726675 13.934011181527348 a40.33487767571117,40.33487767571117 0 0,0 -0.5045012852209293,0.47703745455889657 l -13.162670597114937 -14.162683272832165" fill="#fff116" stroke="none" /><path d="M 114.29624159901734 115.38237550388516 l 7.401599319723694 7.963923894033564 a31.872339043632376,31.872339043632376 0 0,0 -0.4050829357281116,0.3700336573639259 l -7.2634168345287184 -8.090150317984072" fill="#ff840c" stroke="none" /><path d="M 114.0293411484842 115.62618273729858 l 7.0518583099989405 7.854511870750737 a31.555664941256204,31.555664941256204 0 0,0 -0.4073049662592851,0.3593992761874281 l -6.915610990833067 -7.9747342887104535" fill="#ff7f0b" stroke="none" /><path d="M 113.48314897796784 116.09983520530334 l 4.443119257840455 5.305399203526595 a27.92015675026031,27.92015675026031 0 0,0 -0.3711118935577255,0.3053998232289283 l -4.3511372357380385 -5.381094145612702" fill="#ff4d07" stroke="none" /><path d="M 113.20401910651253 116.32954008644616 l 8.368438482306466 10.349330045302782 a34.30937245022299,34.30937245022299 0 0,0 -0.4624290857907311,0.3673816331343811 l -8.189051903798385 -10.49184559244229" fill="#ffa40f" stroke="none" /><path d="M 112.92097659922987 116.55440617244103 l 6.702472306286409 8.587233949825125 a31.893287929985394,31.893287929985394 0 0,0 -0.43567943147609617,0.33406040973184464 l -6.553664146316819 -8.70133370138434" fill="#ff840c" stroke="none" /><path d="M 112.04921762599082 117.19931262002967 l 11.202487683376791 15.990672072584923 a40.52427523953594,40.52427523953594 0 0,0 -0.5747560183687208,0.3953224303391902 l -10.925574780385189 -16.181135292289206" fill="#fff417" stroke="none" /><line stroke="#e1ed5e" stroke-width="0.3" x1="143.8653032363475" x2="146.44561519142675" y1="172.8068346515853" y2="177.08958963109032" /><path d="M 144.38136562736335 173.6633856474863 a86.0,86.0 0 0,1 -40.68145358897372,12.25698825130547" fill="none" id="id102" stroke="none" /><text fill="#e1ed5e" style="font-size:6.75px; font-family:Arial;" text-anchor="middle"><textPath startOffset="21.466115282336833" xlink:href="#id102">June</textPath></text><path d="M 110.8373102113329 117.98757091392108 l 3.1830246105119655 5.283126512560911 a27.167906566968153,27.167906566968153 0 0,0 -0.40264406669235697,0.23788921177733915 l -3.0916126727912263 -5.337134296632" fill="#ff4306" stroke="none" /><path d="M 110.21172684928248 118.3499491758327 l 7.628974339719271 13.708875439359865 a36.68867474607015,36.68867474607015 0 0,0 -0.5544832584368315,0.3023484828263175 l -7.391868269413791 -13.838164573945953" fill="#ffc312" stroke="none" /><path d="M 109.89434966115114 118.52300852407294 l 5.116049536640586 9.577651126364954 a31.858423640645093,31.858423640645093 0 0,0 -0.4859306153935041,0.2542159314746795 l -4.950428018720586 -9.66429647678435" fill="#ff840c" stroke="none" /><path d="M 109.57404056367764 118.69057910512821 l 6.060499644570384 11.831394202901999 a34.29328946221742,34.29328946221742 0 0,0 -0.5277020229723585,0.26460074923263655 l -5.855943713915265 -11.933962793043937" fill="#ffa40f" stroke="none" /><path d="M 109.2508944713604 118.85261126421891 l 2.419072777444346 4.929884221920651 a26.49141799029308,26.49141799029308 0 0,0 -0.41110559665463087,0.19735566924018913 l -2.3338545127894825 -4.9707941676604" fill="#ff3905" stroke="none" /><path d="M 108.2653958097858 119.30500536409082 l 19.974294219269844 46.65279992887909 a71.74895241048802,71.74895241048802 0 0,0 -1.139539208574104,0.4763274816033418 l -19.16828355119828 -46.989712453502406" fill="#3effb2" stroke="none" /><path d="M 107.59598834532513 119.57807347666477 l 19.283899901394104 49.70276309316567 a74.31260127307932,74.31260127307932 0 0,0 -1.1965382601521921,0.4524283862805429 l -18.425491420481634 -50.02733972955285" fill="#41ffce" stroke="none" /><path d="M 106.57524785965236 119.94407469862006 l 1.7753282563966786 5.384934547854179 a26.67003619941125,26.67003619941125 0 0,0 -0.4372344851956778,0.13998867474969906 l -1.6823724261100605 -5.414696069263585" fill="#ff3c05" stroke="none" /><path d="M 106.2309692047433 120.05430185196036 l 9.749572373708796 31.378885191897627 a53.85861526839617,53.85861526839617 0 0,0 -0.8877054564945995,0.2674583720829251 l -9.207991942773951 -31.542058933086278" fill="#71ff27" stroke="none" /><path d="M 105.18746579009965 120.34920634021253 l 2.637653981642855 10.346895246802676 a31.677802197792587,31.677802197792587 0 0,0 -0.5295423051471131,0.13014861490488577 l -2.459158391752531 -10.390765120021591" fill="#ff810b" stroke="none" /><path d="M 104.83641907484287 120.43548508189849 l 7.072637355358628 29.88425381020257 a51.70978386366503,51.70978386366503 0 0,0 -0.8679360424377163,0.19753941750167406 l -6.55718116352805 -30.001569961281927" fill="#88ff25" stroke="none" /><path d="M 104.48393922423573 120.51570834832081 l 1.2374269275668959 5.66169358654682 a26.795342929371223,26.795342929371223 0 0,0 -0.4514486248733086,0.09460544869496373 l -1.1397868412642091 -5.682155015968324" fill="#ff3d05" stroke="none" /><path d="M 104.13013068566511 120.58985236759428 l 4.290510993100431 21.389392891632422 a42.81546728480807,42.81546728480807 0 0,0 -0.7238513087310744,0.13872782609894513 l -3.9216920697976523 -21.460077916079836" fill="#eeff19" stroke="none" /><path d="M 103.7750983002368 120.6578951692458 l 2.066115498220006 11.306089000942189 a32.4933233552881,32.4933233552881 0 0,0 -0.5510728825370056,0.09581108432076324 l -1.8711936442109507 -11.339978663783958" fill="#ff8c0c" stroke="none" /><path d="M 103.41894727170886 120.7198165907248 l 0.7705252144872156 4.669607295442227 a25.732751990101303,25.732751990101303 0 0,0 -0.4376579115009878,0.06835316488690396 l -0.6900314393777106 -4.682178767676237" fill="#ff2e04" stroke="none" /><path d="M 103.06178313531738 120.77559828337769 l 1.034451380581688 7.019225522131193 a28.095041690457165,28.095041690457165 0 0,0 -0.47904910279841567,0.06639184054249439 l -0.9134736865964417 -7.03599192816629" fill="#ff5007" stroke="none" /><path d="M 102.70371172650421 120.8252237178851 l 0.7245770173317952 5.581023427480058 a26.62786232526407,26.62786232526407 0 0,0 -0.4550480748238372,0.05509998469135704 l -0.6284015194565777 -5.592668940896766" fill="#ff3b05" stroke="none" /><path d="M 102.34483914955558 120.86867818915974 l 0.8312643848084379 7.39811468090037 a28.444669321682767,28.444669321682767 0 0,0 -0.48703694706713074,0.05048337093743956 l -0.7037948411357045 -7.411327420293569" fill="#ff5507" stroke="none" /><path d="M 101.98527174616119 120.90594882070398 l 1.1058746431153024 11.645437827736886 a32.697828043101445,32.697828043101445 0 0,0 -0.5607765984396644,0.048386164538241204 l -0.9052537269340964 -11.662748244553791" fill="#ff8f0d" stroke="none" /><path d="M 101.62511606390274 120.93702456842531 l 0.6413910194708272 8.263298745800732 a29.288153509812048,29.288153509812048 0 0,0 -0.5029713725553094,0.034687850659533274 l -0.4990568861365875 -8.27311494097655" fill="#ff6008" stroke="none" /><path d="M 101.26447882468166 120.96189622390904 l 2.0841412158490313 34.54984854617672 a55.61265201008657,55.61265201008657 0 0,0 -0.9560395677528734,0.0494163253797446 l -1.4891135796826787 -34.580604678318664" fill="#5fff29" stroke="none" /><path d="M 100.90346689309514 120.98055641714683 l 0.25739778534415786 5.977362090780069 a26.98290156898764,26.98290156898764 0 0,0 -0.46420824712577746,0.01598827063198969 l -0.1544691865437281 -5.980907159838153" fill="#ff4006" stroke="none" /><line stroke="#e1ed5e" stroke-width="0.3" x1="102.19456741930631" x2="102.32365962044197" y1="184.97166512339345" y2="189.96999836594603" /><path d="M 102.22038585953345 185.97133177190398 a86.0,86.0 0 0,1 -42.740103519485714,-10.115201625700543" fill="none" id="id103" stroke="none" /><text fill="#e1ed5e" style="font-size:6.75px; font-family:Arial;" text-anchor="middle"><textPath startOffset="22.20632615414155" xlink:href="#id103">July</textPath></text><path d="M 100.54218724476979 120.99299961872073 l 0.6180116150857383 23.928850641568374 a44.93683001950902,44.93683001950902 0 0,0 -0.7734277036900861,0.013315259323758814 l -0.20602422150298433 -23.93594337817129" fill="#d5ff1c" stroke="none" /><path d="M 100.18074693466247 120.99922214144158 l 0.297405435666251 34.55263471710113 a55.55391462463531,55.55391462463531 0 0,0 -0.9563047406573891,0.0 l 0.29740543566622724 -34.55263471710113" fill="#5fff29" stroke="none" /><path d="M 99.45781275523022 120.99299961872073 l -0.27076694615371705 10.483851201222468 a31.487347174023714,31.487347174023714 0 0,0 -0.5417017958918909,-0.018657305138759205 l 0.45118909372025107 -10.477637097657615" fill="#ff7f0b" stroke="none" /><path d="M 99.09653310690486 120.98055641714683 l -0.7390984291652553 17.163546787865915 a38.17945298393569,38.17945298393569 0 0,0 -0.6563446699355718,-0.033925522399698455 l 1.034431167514316 -17.148281458704012" fill="#ffd614" stroke="none" /><path d="M 98.73552117531835 120.96189622390904 l -0.6285944349138853 10.42052350296099 a31.439465553339744,31.439465553339744 0 0,0 -0.5399162885591606,-0.037235788373085055 l 0.807873484251976 -10.408159370071619" fill="#ff7e0b" stroke="none" /><path d="M 98.37488393609728 120.93702456842531 l -0.80539730026497 10.376257694786112 a31.407467922596837,31.407467922596837 0 0,0 -0.538646573222548,-0.046476692844218605 l 0.9838881912290597 -10.360856749663231" fill="#ff7d0b" stroke="none" /><path d="M 97.65516085044442 120.86867818915974 l -2.4656035219081995 21.943461004782836 a43.081546177649585,43.081546177649585 0 0,0 -0.736227880747794,-0.08914694337353533 l 2.842958825707383 -21.89776853268395" fill="#ebff1a" stroke="none" /><path d="M 97.2962882734958 120.8252237178851 l -1.020235426940783 7.858319658370153 a28.9242708295156,28.9242708295156 0 0,0 -0.4931883049913475,-0.06835140512972784 l 1.1553523231189615 -7.83959368774782" fill="#ff5b08" stroke="none" /><path d="M 96.93821686468263 120.77559828337769 l -1.0395531151004231 7.053843123125589 a28.13003320362403,28.13003320362403 0 0,0 -0.47843042932552926,-0.0747209936419174 l 1.1608194080344696 -7.034903822136566" fill="#ff5007" stroke="none" /><path d="M 96.58105272829116 120.7198165907248 l -1.7081958905519914 10.352164786553384 a31.492151779709182,31.492151779709182 0 0,0 -0.5340934403286542,-0.09285899064913418 l 1.8861383023526954 -10.321227217383242" fill="#ff7f0b" stroke="none" /><path d="M 96.22490169976321 120.6578951692458 l -1.9098375118205704 10.450912790008108 a31.623985008739048,31.623985008739048 0 0,0 -0.5346447064000752,-0.10246593044669754 l 2.0894498327923405 -10.41648966121294" fill="#ff800b" stroke="none" /><path d="M 95.86986931433489 120.58985236759428 l -2.0471660057956624 10.205693000850534 a31.408989301699513,31.408989301699513 0 0,0 -0.5291794572768729,-0.1108947003878605 l 2.222536924501922 -10.168942319736132" fill="#ff7d0b" stroke="none" /><path d="M 94.81253420990036 120.34920634021253 l -1.3165086214182578 5.164353206345538 a26.329515830744857,26.329515830744857 0 0,0 -0.4382103532853104,-0.11573533713457354 l 1.4052094175150573 -5.140926519907383" fill="#ff3705" stroke="none" /><path d="M 94.46302465271185 120.25689768951611 l -2.74538113159675 10.043914089074084 a31.412364178534496,31.412364178534496 0 0,0 -0.5203515444694887,-0.14705654411816826 l 2.9178638441708524 -9.995168751617395" fill="#ff7e0b" stroke="none" /><path d="M 94.11515582081647 120.15858648285463 l -4.275917964458608 14.64719531317981 a36.25856497122899,36.25856497122899 0 0,0 -0.597618891782221,-0.18005766975146112 l 4.527411830681074 -14.571422274322622" fill="#ffbe11" stroke="none" /><path d="M 93.76903079525671 120.05430185196036 l -3.0988307420226877 9.973550670311422 a31.443872123928667,31.443872123928667 0 0,0 -0.5154978095218399,-0.16504611972461253 l 3.270049896635468 -9.918731703927103" fill="#ff7e0b" stroke="none" /><path d="M 93.42475214034765 119.94407469862007 l -1.1538260455187277 3.4997909329391583 a24.685084953919045,24.685084953919045 0 0,0 -0.4024024630829703,-0.13651676355782105 l 1.213898241538924 -3.479411182483214" fill="#ff1f03" stroke="none" /><path d="M 93.08242187328487 119.8279376855182 l -3.4373739576357147 9.852586466730447 a31.434989209818674,31.434989209818674 0 0,0 -0.5093672352341381,-0.18264096813677955 l 3.60646075349958 -9.79195795755371" fill="#ff7e0b" stroke="none" /><path d="M 92.7421414339146 119.70592522655815 l -2.193314468142779 5.955102391980285 a27.346169935885246,27.346169935885246 0 0,0 -0.4403121144510793,-0.16648836567544317 l 2.2954968033541414 -5.9164657761982085" fill="#ff4506" stroke="none" /><path d="M 91.07499286063937 119.00905698771935 l -4.482069250533515 9.546200745381102 a31.546036859298983,31.546036859298983 0 0,0 -0.4895454184401414,-0.23501155047735725 l 4.6457273369738985 -9.467634918404181" fill="#ff7f0b" stroke="none" /><line stroke="#e1ed5e" stroke-width="0.3" x1="58.666819895761336" x2="56.23545636021788" y1="174.27360380694188" y2="178.64263932499728" /><path d="M 58.180547188652646 175.14741091055294 a86.0,86.0 0 0,1 -31.652253787137756,-30.449443065178592" fill="none" id="id104" stroke="none" /><text fill="#e1ed5e" style="font-size:6.75px; font-family:Arial;" text-anchor="middle"><textPath startOffset="22.20632615414155" xlink:href="#id104">August</textPath></text><path d="M 89.7882731507175 118.34994917583269 l -4.954261367798502 8.902553470599491 a31.188236549930696,31.188236549930696 0 0,0 -0.46686002938208515,-0.26509530898146394 l 5.106770164101794 -8.815954995823395" fill="#ff7a0b" stroke="none" /><path d="M 89.1626897886671 117.98757091392108 l -5.448709017122872 9.043668394056658 a31.558236972853727,31.558236972853727 0 0,0 -0.462885400052581,-0.28434201913461987 l 5.603573617107762 -8.94853790809366" fill="#ff800b" stroke="none" /><path d="M 88.54995079064634 117.60387380957326 l -2.861498829199297 4.399410288500368 a26.248141236292316,26.248141236292316 0 0,0 -0.37662995550199113,-0.2496097975029592 l 2.93680348344125 -4.34950246990609" fill="#ff3605" stroke="none" /><path d="M 87.95078237400918 117.19931262002967 l -3.5720023248842603 5.098753012198604 a27.225470495342734,27.225470495342734 0 0,0 -0.3815100930112283,-0.2721973216422911 l 3.6592397457443755 -5.036511428712094" fill="#ff4406" stroke="none" /><path d="M 87.36589467227662 116.77436683061367 l -6.803936378658805 9.033621435570709 a32.30928231525057,32.30928231525057 0 0,0 -0.4413621380589921,-0.3384176668165683 l 6.958427245211284 -8.915164426926774" fill="#ff8a0c" stroke="none" /><path d="M 87.07902340077011 116.55440617244103 l -5.879478152227339 7.53281059419035 a30.55570503890032,30.55570503890032 0 0,0 -0.41183635076186675,-0.3271877046148201 l 6.008271995706564 -7.430488975570399" fill="#ff720a" stroke="none" /><path d="M 86.79598089348748 116.32954008644616 l -0.9742224938246288 1.204830524531757 a22.54942765572238,22.54942765572238 0 0,0 -0.2997247068063156,-0.2466530285474434 l 0.9948173291756331 -1.1878823771271327" fill="#ff0000" stroke="none" /><path d="M 86.51685102203217 116.09983520530335 l -6.739859246915626 8.047869482091569 a31.49732851105532,31.49732851105532 0 0,0 -0.4126667842373854,-0.3516835861417958 l 6.877391507730068 -7.930661505726822" fill="#ff7f0b" stroke="none" /><path d="M 85.18274418774928 114.88116024355367 l -7.356971114452061 7.388700542703713 a31.426788560656256,31.426788560656256 0 0,0 -0.3800536942560086,-0.3849923857565965 l 7.483065433763603 -7.2609676629664515" fill="#ff7e0b" stroke="none" /><path d="M 84.67929136418377 114.36230785411682 l -4.825907727753023 4.524018706257294 a27.614841695108982,27.614841695108982 0 0,0 -0.3221121269450599,-0.34958909588115455 l 4.9030662626938115 -4.4402783555747956" fill="#ff4906" stroke="none" /><path d="M 84.43433777217949 114.09645910891817 l -2.0792503569160163 1.882995224005584 a23.805165424776803,23.805165424776803 0 0,0 -0.27244575440487906,-0.30609569325149666 l 2.1113549609692335 -1.8469253610132232" fill="#ff1202" stroke="none" /><path d="M 84.19399662182784 113.82643327865904 l -5.440971054222153 4.759534807907737 a28.228923682026853,28.228923682026853 0 0,0 -0.31677891963925997,-0.36848544986976073 l 5.522092483432192 -4.665172258876446" fill="#ff5207" stroke="none" /><path d="M 83.72743513129214 113.27417163493432 l -8.173369119878135 6.667338886543314 a31.54786094892183,31.54786094892183 0 0,0 -0.33963839397786494,-0.4237511182778192 l 8.28692542591086 -6.525659934687236" fill="#ff7f0b" stroke="none" /><path d="M 83.50135304334701 112.99209946851258 l -4.633390270606442 3.6486305471178664 a26.89752577519692,26.89752577519692 0 0,0 -0.2833118731035642,-0.3662187868111806 l 4.695508960928074 -3.568333766193433" fill="#ff3f05" stroke="none" /><path d="M 83.28015986056508 112.70617746262583 l -9.32815826546791 7.088897581080643 a32.716100270169605,32.716100270169605 0 0,0 -0.33688038481419336,-0.45130632766429446 l 9.448799916977189 -6.927278373907042" fill="#ff8f0d" stroke="none" /><path d="M 83.06392112726016 112.41649034213515 l -9.120971853412462 6.686935020777995 a32.30960775282899,32.30960775282899 0 0,0 -0.3249734313245344,-0.4513596731302568 l 9.234725077112603 -6.5289417421966" fill="#ff8a0c" stroke="none" /><path d="M 82.44556493220864 111.52570212397912 l -5.633432202679622 3.6987383104596847 a27.73915599103107,27.73915599103107 0 0,0 -0.2586281827175891,-0.40139668295637587 l 5.6962652487742576 -3.601220027581861" fill="#ff4b07" stroke="none" /><path d="M 82.05923443525364 110.91462005526583 l -9.144896783916064 5.563479076790297 a31.704271886791823,31.704271886791823 0 0,0 -0.2796303559760356,-0.4686765609238613 l 9.23930801559033 -5.405240421980324" fill="#ff810b" stroke="none" /><line stroke="#e1ed5e" stroke-width="0.3" x1="26.63291911575756" x2="22.317208475507996" y1="142.92168965132927" y2="145.44649492493687" /><path d="M 25.769776987707644 143.4266507060508 a86.0,86.0 0 0,1 -11.730757126820373,-40.83630448921669" fill="none" id="id105" stroke="none" /><text fill="#e1ed5e" style="font-size:6.75px; font-family:Arial;" text-anchor="middle"><textPath startOffset="21.46611528233685" xlink:href="#id105">September</textPath></text><path d="M 81.87401531095188 110.60418214915194 l -9.116213089759443 5.333226623141811 a31.561659306742005,31.561659306742005 0 0,0 -0.2703000678302998,-0.4712909519226552 l 9.20666515374212 -5.175515825360849" fill="#ff800b" stroke="none" /><path d="M 81.69416730710424 110.29060199501025 l -9.43010479026558 5.301122150292739 a31.81798374965105,31.81798374965105 0 0,0 -0.26427652236321114,-0.47973865239421515 l 9.519957722080308 -5.138012979500702" fill="#ff830c" stroke="none" /><path d="M 81.18737489456691 109.33194174019688 l -7.095517040075807 3.5197082418571544 a28.920524488555245,28.920524488555245 0 0,0 -0.21738145750060553,-0.4478701887121238 l 7.155051754191132 -3.3970490971797456" fill="#ff5b08" stroke="none" /><path d="M 81.02952815118164 109.00673069616217 l -14.320441521906321 6.7990064383128574 a36.852492987872864,36.852492987872864 0 0,0 -0.26713737454697845,-0.5753901391176786 l 14.435353513293126 -6.551496231916352" fill="#ffc512" stroke="none" /><path d="M 80.87730276802145 108.67885076344099 l -3.7749896069784215 1.7132819201738043 a25.145585781381147,25.145585781381147 0 0,0 -0.1754909417102749,-0.3956857453010959 l 3.8039216334199764 -1.6480478383800126" fill="#ff2603" stroke="none" /><path d="M 80.73074385275274 108.34839909993369 l -9.940239455448936 4.3066055839861885 a31.833061067292327,31.833061067292327 0 0,0 -0.21350740080826236,-0.5046684264441157 l 10.012897837449504 -4.134862631875913" fill="#ff830c" stroke="none" /><path d="M 80.58989483394504 108.01547362559985 l -4.7754385030788224 1.9720347233895015 a26.166597898708744,26.166597898708744 0 0,0 -0.16833518904255626,-0.41779413413524585 l 4.808676306378766 -1.8895412214114504" fill="#ff3405" stroke="none" /><path d="M 80.45479744820244 107.68017299344265 l -1.5953989901477998 0.6269026992903645 a22.714148456856105,22.714148456856105 0 0,0 -0.1398604442682744,-0.3651314865946484 l 1.6059537140095834 -0.5993476458625583" fill="#ff0200" stroke="none" /><path d="M 80.32549172779594 107.34259656027581 l -9.943337367878048 3.7108889200646984 a31.613230167507858,31.613230167507858 0 0,0 -0.18587937890214126,-0.51146021872207 l 10.005741007785414 -3.539180904336511" fill="#ff800b" stroke="none" /><path d="M 80.20201598880116 107.00284435728193 l -16.080210352183578 5.687811964339316 a38.056505208047554,38.056505208047554 0 0,0 -0.21313304546300818,-0.6194643954826187 l 16.175734228589814 -5.4101748657674005" fill="#ffd513" stroke="none" /><path d="M 80.0844068197444 106.66101706037122 l -10.035320173499773 3.3564372538117686 a31.5817447532733,31.5817447532733 0 0,0 -0.1679964578746447,-0.5170399327045522 l 10.091608882390666 -3.183198421129413" fill="#ff800b" stroke="none" /><path d="M 79.86692584326677 105.97154293290107 l -4.979008684984311 1.47679206335847 a26.1934037281486,26.1934037281486 0 0,0 -0.12449021700400965,-0.43336677697310844 l 5.003691538874425 -1.3908678108807655" fill="#ff3505" stroke="none" /><path d="M 79.67330655649465 105.27499134158121 l -10.305669898391017 2.674430036262304 a31.647037525690642,31.647037525690642 0 0,0 -0.1322977062302545,-0.528463572657417 l 10.35017891891633 -2.496638624207495" fill="#ff810b" stroke="none" /><path d="M 79.58551787078972 104.9243191809786 l -10.218882660921667 2.464967740883508 a31.511975494705162,31.511975494705162 0 0,0 -0.12265576396892447,-0.5283978209785407 l 10.259798990821146 -2.2887012625563927" fill="#ff7f0b" stroke="none" /><path d="M 79.4281124754447 104.21870165774334 l -10.408019768087476 2.1343851018554156 a31.6246164757097,31.6246164757097 0 0,0 -0.10476793751590319,-0.5342094562618385 l 10.443217638579046 -1.954911918525622" fill="#ff800b" stroke="none" /><path d="M 79.35854240842038 103.8639653848113 l -2.1652488143766453 0.4053224648083003 a23.202859216708536,23.202859216708536 0 0,0 -0.07010971262871912,-0.39321250117160006 l 2.171904969344553 -0.3679912129034866" fill="#ff0a01" stroke="none" /><path d="M 79.29508885075956 103.50808413554451 l -7.098939245789178 1.20279077595853 a28.200114170354297,28.200114170354297 0 0,0 -0.07697052719314347,-0.4792955463058179 l 7.118591527343612 -1.0804159999594982" fill="#ff5107" stroke="none" /><path d="M 79.23777060512086 103.15116336523772 l -9.339959055859621 1.4175614886956347 a30.446920966080278,30.446920966080278 0 0,0 -0.07418312404057645,-0.5188365967603192 l 9.362976230916797 -1.256579419954915" fill="#ff700a" stroke="none" /><path d="M 79.18660465613746 102.79330883721812 l -2.66580462129149 0.3577703437582678 a23.689705169302385,23.689705169302385 0 0,0 -0.05076195138122608,-0.4046226976378364 l 2.671568081919564 -0.31182989183302273" fill="#ff1101" stroke="none" /><path d="M 79.1416061653843 102.43462659150553 l -10.516376625422962 1.227489056997839 a31.587771565007998,31.587771565007998 0 0,0 -0.058388790136386995,-0.540607680187008 l 10.535947717060402 -1.0462850549260487" fill="#ff800b" stroke="none" /><path d="M 79.0235259727143 100.99374915477108 l -10.492676323967592 0.49708488732024236 a31.50444428919266,31.50444428919266 0 0,0 -0.020999763131279166,-0.5419105760683971 l 10.499678219950072 -0.31639706423784847" fill="#ff7f0b" stroke="none" /><line stroke="#e1ed5e" stroke-width="0.3" x1="15.007084014347285" x2="10.007500721073583" y1="101.09737516637583" y2="101.16192664675087" /><path d="M 14.007167355692545 101.11028546245083 a86.0,86.0 0 0,1 10.666146001902534,-42.60595125391555" fill="none" id="id106" stroke="none" /><text fill="#e1ed5e" style="font-size:6.75px; font-family:Arial;" text-anchor="middle"><textPath startOffset="22.20632615414155" xlink:href="#id106">October</textPath></text><path d="M 79.00175016825051 100.2711162175752 l -10.3930909346978 0.13418906459861135 a31.39395718107187,31.39395718107187 0 0,0 -0.0023256982990390402,-0.5404103791731972 l 10.393860930286344 0.04473079277826126" fill="#ff7d0b" stroke="none" /><path d="M 79.00019446554 99.90962569577889 l -10.384141043916058 -0.044688962487672075 a31.384237204692038,31.384237204692038 0 0,0 0.006974762459534501,-0.5402030389488446 l 10.381833274338808 0.22342825949698866" fill="#ff7d0b" stroke="none" /><path d="M 79.00486145842228 99.54816195383935 l -10.633758066028626 -0.22884995297289187 a31.63622032997646,31.63622032997646 0 0,0 0.016403087296253192,-0.5443386108505137 l 10.628243284276728 0.4118587112484" fill="#ff810b" stroke="none" /><path d="M 79.01574976396665 99.18683210126434 l -10.404175409613016 -0.4031757799658908 a31.411984280796204,31.411984280796204 0 0,0 0.025587890917641767,-0.5401199353680064 l 10.395693910461874 0.5822068219569063" fill="#ff7e0b" stroke="none" /><path d="M 79.03285615573316 98.82574320788736 l -12.662028070942654 -0.7091319912078029 a33.68186985622759,33.68186985622759 0 0,0 0.03740196661492849,-0.578591869030658 l 12.647945513323311 0.9269829244914726" fill="#ff9c0e" stroke="none" /><path d="M 79.05617556472873 98.46500227214037 l -7.886831477529569 -0.5780352311219572 a28.907985551540257,28.907985551540257 0 0,0 0.04064396167370221,-0.49595927979897997 l 7.875713032036369 0.7137084281287155" fill="#ff5b08" stroke="none" /><path d="M 79.08570108090925 98.10471618934814 l -10.490229172005971 -0.9506396363868688 a31.533215264081278,31.533215264081278 0 0,0 0.05364081360542875,-0.5401556726692665 l 10.472311232718313 1.1310708397605655" fill="#ff7f0b" stroke="none" /><path d="M 79.12142395522702 97.74499172005258 l -10.331307912641098 -1.1158416568128233 a31.391391908155487,31.391391908155487 0 0,0 0.06264772159984723,-0.5367274203486425 l 10.310569838037662 1.2935128154863276" fill="#ff7d0b" stroke="none" /><path d="M 79.16333360222342 97.38593545837743 l -10.516728025277521 -1.3193763963941836 a31.599166119701103,31.599166119701103 0 0,0 0.07235306349863677,-0.5391143631781312 l 10.49245896272105 1.5002091016369743" fill="#ff800b" stroke="none" /><path d="M 79.21141760316559 97.0276538004421 l -10.420107473839373 -1.4898643042426816 a31.52607882411203,31.52607882411203 0 0,0 0.08143352281790908,-0.5365451692635481 l 10.392918057582161 1.669008585898322" fill="#ff7f0b" stroke="none" /><path d="M 79.26566170972629 96.67025291283419 l -10.594565631408681 -1.7013913613784473 a31.730310036657805,31.730310036657805 0 0,0 0.09124449316666423,-0.5385301637242744 l 10.563709276721793 1.8835073134185498" fill="#ff820c" stroke="none" /><path d="M 79.32604984820605 96.31383870115002 l -10.329395953243004 -1.8417292933270444 a31.492301346643256,31.492301346643256 0 0,0 0.09974702983259363,-0.5328526218865377 l 10.29616319950055 2.0192599926761545" fill="#ff7f0b" stroke="none" /><path d="M 79.3925641242962 95.95851677861259 l -10.477517556081883 -2.054826794566006 a31.67711043745781,31.67711043745781 0 0,0 0.10954352682603145,-0.5341731403954372 l 10.440594733340857 2.2348755911248457" fill="#ff810b" stroke="none" /><path d="M 79.46518482838121 95.60439243477599 l -43.37671744087245 -9.285061771639628 a65.35935062699241,65.35935062699241 0 0,0 0.24495941696410461,-1.0981050345353087 l 43.210463636906304 10.030344975724896" fill="#36ff6b" stroke="none" /><path d="M 79.54389044137918 95.25157060432595 l -10.49102006584877 -2.435256221547203 a31.769957051289754,31.769957051289754 0 0,0 0.1282404902415245,-0.5316396236842811 l 10.447546775346432 2.615481076890881" fill="#ff820c" stroke="none" /><path d="M 79.62865764111835 94.90015583598534 l -10.50332882948424 -2.6294457817316212 a31.827460534185334,31.827460534185334 0 0,0 0.1376214363693836,-0.5303115336482818 l 10.456511061244548 2.8098537409287667" fill="#ff830c" stroke="none" /><path d="M 79.71946130924805 94.55025226153421 l -10.152417738073712 -2.728138362185473 a31.512579362439162,31.512579362439162 0 0,0 0.14527783694578988,-0.5226416758119555 l 10.10395313056156 2.9024913414163716" fill="#ff7f0b" stroke="none" /><path d="M 79.81627453868168 94.20196356495316 l -10.136950661459409 -2.911970309349173 a31.546911386533665,31.546911386533665 0 0,0 0.15442078356548597,-0.520630115499217 l 10.085323980782217 3.0860298115949294" fill="#ff7f0b" stroke="none" /><path d="M 79.91906864156998 93.8553929516997 l -10.14916888153064 -3.105565849049293 a31.613678355245703,31.613678355245703 0 0,0 0.1637054361451809,-0.5189909691247533 l 10.094207961617254 3.2798069846004605" fill="#ff800b" stroke="none" /><path d="M 80.02781315780177 93.51064311812611 l -10.197907868185 -3.313501126741833 a31.722714889658725,31.722714889658725 0 0,0 0.17321011134070285,-0.5178761863095976 l 10.139360463072524 3.488550415973753" fill="#ff820b" stroke="none" /><path d="M 80.14247586403 93.16781622104843 l -10.011354843067862 -3.4445087764107263 a31.587344638982376,31.587344638982376 0 0,0 0.18132176579181447,-0.5126210489450408 l 9.950579996466239 3.6163274517823782" fill="#ff800b" stroke="none" /><path d="M 80.2630227832202 92.82701384747504 l -10.026439323451 -3.6438969167528774 a31.66805841035592,31.66805841035592 0 0,0 0.19060463210149664,-0.5107256513709963 l 9.962230102847874 3.815945705153215" fill="#ff810b" stroke="none" /><path d="M 80.38941819471856 92.48833698450439 l -10.023373423744502 -3.8393661231083867 a31.733533761958356,31.733533761958356 0 0,0 0.19977989754181041,-0.5084180482087989 l 9.955799976321 4.011333176212949" fill="#ff820c" stroke="none" /><path d="M 80.52162464483688 92.15188598940014 l -10.052311345042549 -4.050218977068254 a31.837584469791917,31.837584469791917 0 0,0 0.20918553327428638,-0.5065593612713434 l 9.981104124882062 4.2226529087929086" fill="#ff830c" stroke="none" /><path d="M 80.65960295795068 91.81776055985345 l -9.825516702788127 -4.156829361392103 a31.668646062950067,31.668646062950067 0 0,0 0.21671803075952084,-0.5002150947078459 l 9.752507962185925 4.325343600686549" fill="#ff810b" stroke="none" /><path d="M 80.803312248108 91.48605970444005 l -9.694441033072438 -4.299590284593254 a31.605124400924645,31.605124400924645 0 0,0 0.22484439798015146,-0.4954148266948962 l 9.618994318128934 4.465827120130221" fill="#ff800b" stroke="none" /><path d="M 80.95270993114464 91.15688171328213 l -10.668674071695984 -4.9531637538671225 a32.76241631726667,32.76241631726667 0 0,0 0.24188305713988076,-0.5094674062069435 l 10.581832820714352 5.136073575714598" fill="#ff900d" stroke="none" /><path d="M 81.10775173730289 90.83032412892265 l -9.719211728801183 -4.717385672485165 a31.803555165418224,31.803555165418224 0 0,0 0.24328203284800978,-0.490441732950715 l 9.636569682999761 4.883986993934841" fill="#ff830c" stroke="none" /><path d="M 81.26839172434947 90.50648371742162 l -9.575779801050416 -4.853177587416751 a31.73540364835945,31.73540364835945 0 0,0 0.2511487962482592,-0.4851395352953453 l 9.490821571642043 5.017289844972432" fill="#ff820c" stroke="none" /><path d="M 81.43458229118936 90.18545643968196 l -9.454083632495054 -4.9978684611000235 a31.69384806721459,31.69384806721459 0 0,0 0.25912271513052554,-0.4801150372167769 l 9.366652818146056 5.159864481649273" fill="#ff810b" stroke="none" /><path d="M 81.6062741919709 89.86733742301443 l -18.61083408538686 -10.252262322034309 a42.247871142154494,42.247871142154494 0 0,0 0.3563755973568904,-0.6339524222401537 l 18.43160084673754 10.571098254209247" fill="#f5ff19" stroke="none" /><line stroke="#e1ed5e" stroke-width="0.3" x1="26.266209847984243" x2="21.928928074336255" y1="57.711370442889674" y2="55.22380399835377" /><path d="M 25.398753493254645 57.213857153982495 a86.0,86.0 0 0,1 29.58750427330803,-30.492523968695096" fill="none" id="id107" stroke="none" /><text fill="#e1ed5e" style="font-size:6.75px; font-family:Arial;" text-anchor="middle"><textPath startOffset="21.46611528233685" xlink:href="#id107">November</textPath></text><path d="M 82.15384107792192 88.93136811851018 l -4.422320957629208 -2.7428335114307836 a26.203850336406134,26.203850336406134 0 0,0 0.24104098843307678,-0.3812689575825495 l 4.374452372950168 2.8185501167275486" fill="#ff3505" stroke="none" /><path d="M 82.7489923806493 88.02491185347247 l -36.86511828615807 -25.59056553390603 a65.87665306813294,65.87665306813294 0 0,0 0.6546488640417842,-0.9259543920261702 l 36.41915680231241 26.221346426263988" fill="#36ff71" stroke="none" /><path d="M 82.95767976084542 87.72973835380427 l -4.3976896035520285 -3.1662826021989487 a26.41895002432919,26.41895002432919 0 0,0 0.2688913027777621,-0.36676743480274665 l 4.342535688260633 3.241512480673196" fill="#ff3805" stroke="none" /><path d="M 83.84228863543731 86.58626213691792 l -3.624856439210918 -3.009267399931448 a25.71118610215931,25.71118610215931 0 0,0 0.28562603963291067,-0.3380911398348357 l 3.5725197860908833 3.0712174893953996" fill="#ff2e04" stroke="none" /><path d="M 84.31358615837235 86.03803664274999 l -8.881135640737881 -7.904808048458522 a32.889514731567445,32.889514731567445 0 0,0 0.380040471746053,-0.41965018097049395 l 8.743751528375784 8.056511016698572" fill="#ff910d" stroke="none" /><path d="M 84.5562425177563 85.77008943001954 l -4.9178625215849 -4.531328852973207 a27.68717525977874,27.68717525977874 0 0,0 0.3259606898356398,-0.3477121369648129 l 4.8391345097788045 4.61531040681607" fill="#ff4a06" stroke="none" /><path d="M 84.80347519578584 85.50635884689758 l -7.085069932999629 -6.757364757833013 a30.79082194843206,30.79082194843206 0 0,0 0.36910239211308227,-0.38039246008878 l 6.967703277183428 6.878321413471917" fill="#ff750a" stroke="none" /><path d="M 85.05521093208273 85.24692304244772 l -8.253544564787926 -8.147667898391624 a32.597650195855266,32.597650195855266 0 0,0 0.3976357608974805,-0.39592818657195805 l 8.112073003723133 8.288531935613692" fill="#ff8e0d" stroke="none" /><path d="M 85.31137513191541 84.99185889309783 l -6.339828897993643 -6.477736857549162 a30.06391224866427,30.06391224866427 0 0,0 0.3729596620639345,-0.3587868994099482 l 6.227385992317281 6.585906843721424" fill="#ff6b09" stroke="none" /><path d="M 85.57189188830299 84.74124197986013 l -6.137338435904562 -6.490675101418866 a29.932848725295322,29.932848725295322 0 0,0 0.3774277313342567,-0.350777942715072 l 6.024702820775449 6.595357630208585" fill="#ff6909" stroke="none" /><path d="M 86.37877921826538 84.01681056812374 l -4.203900912800725 -4.932872443579528 a27.481204627943253,27.481204627943253 0 0,0 0.3626766065675661,-0.303731227979497 l 4.118366769274048 5.004504828952838" fill="#ff4706" stroke="none" /><path d="M 86.65592168130627 83.78471172551755 l -7.684882154183573 -9.338417874162387 a33.093943199641906,33.093943199641906 0 0,0 0.44298071245327625,-0.3581929288936034 l 7.522998043165796 9.469316900320125" fill="#ff940d" stroke="none" /><path d="M 87.80319425747018 82.90503203632743 l -6.8210003150506555 -9.560272117755778 a32.74414101854451,32.74414101854451 0 0,0 0.46164383412725707,-0.32341100752004986 l 6.655425341339739 9.67626796803977" fill="#ff8f0d" stroke="none" /><line stroke="#e1ed5e" stroke-width="0.3" x1="56.762969772571076" x2="54.21961505331055" y1="26.818313649435495" y2="22.513508569990535" /><path d="M 56.25429882871897 25.957352633546506 a86.0,86.0 0 0,1 42.265352541879196,-11.944610805530505" fill="none" id="id108" stroke="none" /><text fill="#e1ed5e" style="font-size:6.75px; font-family:Arial;" text-anchor="middle"><textPath startOffset="22.20632615414155" xlink:href="#id108">December</textPath></text><path d="M 89.94658935756843 81.56283822128135 l -5.702171296269114 -10.457332184916275 a32.91094261247535,32.91094261247535 0 0,0 0.4997055750195449,-0.2669254122754592 l 5.521320674721264 10.553936323693483" fill="#ff920d" stroke="none" /><path d="M 90.26544431104013 81.39251694778311 l -5.885622743104069 -11.250295231065957 a33.69683810483103,33.69683810483103 0 0,0 0.5162668696023192,-0.2644519425243119 l 5.691095385912986 11.349939698902773" fill="#ff9c0e" stroke="none" /><path d="M 91.23893434514133 80.91482961587045 l -4.769863639961654 -10.390706320896875 a32.43321376477124,32.43321376477124 0 0,0 0.5093835169148144,-0.228545535866553 l 4.590298004580065 10.471272187279958" fill="#ff8b0c" stroke="none" /><path d="M 94.63758080256005 79.69619591428918 l -1.3746809644791742 -5.204974090139418 a26.38344713293667,26.38344713293667 0 0,0 0.4400898579293787,-0.11218870379564007 l 1.284882217864796 5.227865790103921" fill="#ff3805" stroke="none" /><path d="M 96.04723909329186 79.375362276772 l -1.986470725390603 -10.364967683587812 a31.553607014886122,31.553607014886122 0 0,0 0.5343150762521656,-0.09764266492906706 l 1.8077605280355442 10.397625829867616" fill="#ff7f0b" stroke="none" /><path d="M 96.40284397218896 79.31037775812273 l -1.953517958052286 -11.235973163894258 a32.40453091328989,32.40453091328989 0 0,0 0.5503690364542917,-0.09081560675883293 l 1.7598197154591084 11.26793503359272" fill="#ff8b0c" stroke="none" /><path d="M 96.75951476605007 79.25152402106235 l -1.0674649161676124 -6.83486224205541 a27.917718064154062,27.917718064154062 0 0,0 0.4754400940661403,-0.07006751102951786 l 0.9496558416728234 6.852224237245896" fill="#ff4d07" stroke="none" /><path d="M 98.19473922651362 79.07773832637324 l -0.22599264306947459 -2.61916576488984 a23.628897483488565,23.628897483488565 0 0,0 0.40552792702861584,-0.031476771994109434 l 0.1808745266785246 2.622667799072412" fill="#ff1001" stroke="none" /><path d="M 98.55514903715128 79.0497635885617 l -0.7156398220657945 -10.376726626639538 a31.401374709091886,31.401374709091886 0 0,0 0.539562272078476,-0.032547869732422005 l 0.5369155011476954 10.387507765752266" fill="#ff7d0b" stroke="none" /><path d="M 98.91598698831166 79.02799685794201 l -0.5564957722112976 -10.766320106416563 a31.78069275039033,31.78069275039033 0 0,0 0.5465661209438863,-0.02353628690022311 l 0.3710888188780872 10.774304119840979" fill="#ff830c" stroke="none" /><path d="M 99.27714615592234 79.0124445844662 l -0.18215472484901338 -5.288734940391694 a26.29187089917212,26.29187089917212 0 0,0 0.45243723113598433,-0.011685118860391386 l 0.09109085851815002 5.291086851394445" fill="#ff3605" stroke="none" /><path d="M 99.63851952072746 79.00311137660856 l -0.2556891248425138 -14.851911470668762 a35.85411226769022,35.85411226769022 0 0,0 0.6171696041150458,-0.005312173630015949 l 3.638208208560452e-15 14.854112267690219" fill="#ffb911" stroke="none" /></svg>