<?xml version="1.0" encoding="utf-8" ?>
<svg baseProfile="full" height="200mm" version="1.1" viewBox="0,0,200,200" width="200mm" xmlns="http://www.w3.org/2000/svg" xmlns:ev="http://www.w3.org/2001/xml-events" xmlns:xlink="http://www.w3.org/1999/xlink"><defs /><rect fill="#1a1a1a" height="200" width="200" x="0" y="0" /><text alignment-baseline="middle" fill="#e1ed5e" style="dominant-baseline: central; font-size:9.0px; font-family:Arial;" text-anchor="middle" x="100.0" y="100.0">2017</text><line stroke="#e1ed5e" stroke-width="0.3" x1="100.0" x2="100.0" y1="15.0" y2="10.0" /><path d="M 100.0 14.0 a86.0,86.0 0 0,1 42.46469731375804,11.215312516191453" fill="none" id="id25" stroke="none" /><text fill="#e1ed5e" style="font-size:6.75px; font-family:Arial;" text-anchor="middle"><textPath startOffset="22.20632615414155" xlink:href="#id25">January</textPath></text><path d="M 100.0 79.0 l 0.0 -3.767762970443073 a24.767762970443073,24.767762970443073 0 0,0 0.4263363251935306,0.0036696113501222434 l -0.06485584592100224 3.7672047357015095" fill="#ff2703" stroke="none" /><path d="M 100.36148047927253 79.00311137660856 l 0.5135971656219765 -29.832710484274614 a50.83713117722753,50.83713117722753 0 0,0 0.8748183405026002,0.022593976769675887 l -1.0270421413194446 29.819449715362577" fill="#8fff24" stroke="none" /><path d="M 101.80526077348638 79.07773832637324 l 0.24766533644413352 -2.870343749044009 a23.881008739409168,23.881008739409168 0 0,0 0.40924642785960197,0.03886287952845613 l -0.2970368913939797 2.865655325000375" fill="#ff1b02" stroke="none" /><path d="M 102.88285421437855 79.19881850522331 l 1.1376709713174407 -8.208843942812509 a29.287304393856182,29.287304393856182 0 0,0 0.49876421575576646,0.07350488026728146 l -1.2788041675018629 8.18804457838426" fill="#ff6609" stroke="none" /><path d="M 103.59715602781102 79.31037775812273 l 2.0030949255135777 -11.521123076976068 a32.69395853573326,32.69395853573326 0 0,0 0.5536252936079146,0.10117148372302567 l -2.2011153402243933 11.484936111902304" fill="#ff940d" stroke="none" /><path d="M 104.66035177308747 79.52364482259891 l 1.0510336384941863 -4.617964293915368 a25.73606016949992,25.73606016949992 0 0,0 0.43111125516844445,0.10203010545235415 l -1.1303685806251542 4.599188276322145" fill="#ff3505" stroke="none" /><path d="M 107.76421540070413 80.48803036053334 l 5.886070667633597 -14.792071862432664 a36.9201513148509,36.9201513148509 0 0,0 0.5884652467770524,0.2400497496427572 l -6.139819783999037 14.688561226606328" fill="#ffcb12" stroke="none" /><line stroke="#e1ed5e" stroke-width="0.3" x1="143.23703022742887" x2="145.7803849466894" y1="26.81831364943548" y2="22.513508569990506" /><path d="M 143.74570117128098 25.957352633546492 a86.0,86.0 0 0,1 28.547481713284135,27.462654790039103" fill="none" id="id26" stroke="none" /><text fill="#e1ed5e" style="font-size:6.75px; font-family:Arial;" text-anchor="middle"><textPath startOffset="19.985693538727396" xlink:href="#id26">February</textPath></text><path d="M 111.2981086023043 82.29822771554956 l 6.464930987725321 -10.129194204776919 a33.01648484017424,33.01648484017424 0 0,0 0.4764325523460108,0.3098849848794751 l -6.638330565855612 10.016410295737915" fill="#ff990e" stroke="none" /><path d="M 111.60114157652 82.49532879139004 l 7.89843669787778 -11.917752795828148 a35.29748698103454,35.29748698103454 0 0,0 0.5035695904173406,0.34001243533600306 l -8.102410982701661 11.780028448193475" fill="#ffb610" stroke="none" /><path d="M 111.90073688211348 82.69761687909136 l 1.4247304529981644 -2.0714038454921377 a23.514074532471138,23.514074532471138 0 0,0 0.33151358336065834,0.23224645078157327 l -1.4601751759424737 2.046572551946629" fill="#ff1502" stroke="none" /><path d="M 112.19680574252982 82.90503203632743 l 3.079923335404267 -4.316801616812731 a26.302895808035903,26.302895808035903 0 0,0 0.366305003453257,0.2661361632299402 l -3.1537736552113125 4.263146218766115" fill="#ff3d05" stroke="none" /><path d="M 114.16331599549186 84.49514656593476 l 5.457523317401826 -5.974455358917539 a29.091889618357577,29.091889618357577 0 0,0 0.3668239531643633,0.3409228865476465 l -5.559555154361036 5.879627886295252" fill="#ff6409" stroke="none" /><path d="M 115.9244219780498 86.31012108654704 l 6.161015537427795 -5.296490937476276 a29.124710991979654,29.124710991979654 0 0,0 0.32354695046114035,0.38297753738447465 l -6.251273101376053 5.189654450462695" fill="#ff6409" stroke="none" /><path d="M 116.38621287248628 86.86637796730983 l 19.091647612847044 -15.302039933184355 a45.46719098486577,45.46719098486577 0 0,0 0.4842167490771493,0.614906098347225 l -19.352218442518158 14.971141440884091" fill="#cbff1d" stroke="none" /><path d="M 116.60985879189232 87.15038557335679 l 13.438126622496242 -10.39591894663022 a37.989949319145936,37.989949319145936 0 0,0 0.39568171170303684,0.5206707513122935 l -13.615084274423392 10.163063419436892" fill="#ffd914" stroke="none" /><path d="M 116.82858285166822 87.43820079747576 l 20.358784063641032 -15.196939615723943 a46.405256586657885,46.405256586657885 0 0,0 0.4723113480222423,0.6442321479081696 l -20.617358024176898 14.84424502414428" fill="#c0ff1e" stroke="none" /><path d="M 117.2510076193507 88.02491185347247 l 12.09955705186852 -8.399118789301065 a35.72903517845658,35.72903517845658 0 0,0 0.34635987750452,0.5082403816737969 l -12.242341395041771 8.189600384356861" fill="#ffbc11" stroke="none" /><path d="M 117.65298651832404 88.62581576622439 l 9.761941105065269 -6.289820506746806 a32.612809141024215,32.612809141024215 0 0,0 0.2999949873782627,0.4745200260803613 l -9.868763688689487 6.120852832952238" fill="#ff930d" stroke="none" /><line stroke="#e1ed5e" stroke-width="0.3" x1="172.23445277983987" x2="176.4835382374775" y1="55.19839476539836" y2="52.563006222186495" /><path d="M 173.08426987136738 54.67131705675599 a86.0,86.0 0 0,1 12.851231095245387,41.99856678651699" fill="none" id="id27" stroke="none" /><text fill="#e1ed5e" style="font-size:6.75px; font-family:Arial;" text-anchor="middle"><textPath startOffset="22.20632615414155" xlink:href="#id27">March</textPath></text><path d="M 118.21658344932153 89.55222093294921 l 10.771081742547626 -6.1775514970933445 a33.416857267597265,33.416857267597265 0 0,0 0.2818829008083944,0.5014382271988201 l -10.875822284648454 5.99122975995973" fill="#ff9e0e" stroke="none" /><path d="M 118.56541770881063 90.18545643968196 l 16.38993357207157 -8.664481430842033 a39.53923301979683,39.53923301979683 0 0,0 0.31290702609401333,0.6044367781075839 l -16.5366500313257 8.381071930474103" fill="#ffec16" stroke="none" /><path d="M 118.89224826269711 90.83032412892265 l 9.185225694654013 -4.458206416277754 a31.209993903615832,31.209993903615832 0 0,0 0.23042161071449413,0.48532667700182136 l -9.260605499210264 4.299437323635392" fill="#ff810b" stroke="none" /><path d="M 119.04729006885535 91.15688171328212 l 8.248498443351098 -3.8295446312140693 a30.09412660195722,30.09412660195722 0 0,0 0.21409489463543394,0.4717297209754723 l -8.31319565494988 3.686992901396534" fill="#ff710a" stroke="none" /><path d="M 119.97218684219823 93.5106431181261 l 11.192105586059208 -3.6365355472289727 a32.76807623342735,32.76807623342735 0 0,0 0.16968326656431418,0.5379423251428804 l -11.25304433639173 3.443343055659673" fill="#ff950d" stroke="none" /><path d="M 120.37134235888165 94.90015583598534 l 28.88582471455596 -7.231394082827908 a50.77723845189829,50.77723845189829 0 0,0 0.2049640149550506,0.8497081660737588 l -29.00602152977183 6.733100685094743" fill="#90ff24" stroke="none" /><path d="M 120.53481517161879 95.60439243477599 l 8.133350421125542 -1.7409952971541196 a29.317599034429094,29.317599034429094 0 0,0 0.10138403256962132,0.4943845486157807 l -8.16211374961016 1.600735092374927" fill="#ff6709" stroke="none" /><path d="M 120.91429891909075 98.10471618934814 l 25.44917311036142 -2.306240624041042 a46.55345686628563,46.55345686628563 0 0,0 0.06545308780780808,0.7986934578471976 l -25.485100681988726 1.8678332489860754" fill="#bfff1e" stroke="none" /><line stroke="#e1ed5e" stroke-width="0.3" x1="184.98032266829074" x2="189.97916517819016" y1="98.17113171792111" y2="98.06355123074" /><path d="M 185.9800911702706 98.14961562048488 a86.0,86.0 0 0,1 -9.607161424134198,41.387399972396054" fill="none" id="id28" stroke="none" /><text fill="#e1ed5e" style="font-size:6.75px; font-family:Arial;" text-anchor="middle"><textPath startOffset="21.466115282336823" xlink:href="#id28">April</textPath></text><path d="M 120.99513854157772 99.54816195383933 l 7.344176692049211 -0.15805461062439194 a28.345877248088108,28.345877248088108 0 0,0 0.006299524159949328,0.48790508850727243 l -7.345809223326876 0.03161326405665678" fill="#ff5a08" stroke="none" /><path d="M 120.99824983174949 100.27111621757518 l 62.994749495248485 0.8133486527255557 a84.0,84.0 0 0,0 -0.03111174925997018,1.4456407368395405 l -62.97141568330351 -1.8975792053552112" fill="#4dd2ff" stroke="none" /><path d="M 120.9904718944345 100.63252640178507 l 44.99125679195261 1.3557655070130843 a66.01167946021819,66.01167946021819 0 0,0 -0.044001081873956814,1.1354724087547141 l -44.961253577227446 -2.1300151627818047" fill="#37ff74" stroke="none" /><path d="M 120.8583938346157 102.4346265915055 l 30.23851568107516 3.5294900915441594 a51.443802832447474,51.443802832447474 0 0,0 -0.11023302314585029,0.8786656537113683 l -30.173281148682463 -4.0494734995429225" fill="#88ff25" stroke="none" /><path d="M 120.5718875245553 104.21870165774334 l 8.05496785061062 1.6518419218401248 a29.222596232888925,29.222596232888925 0 0,0 -0.10529313499661946,0.4918944728146359 l -8.025340676889558 -1.7902502140709298" fill="#ff6609" stroke="none" /><path d="M 120.41448212921028 104.9243191809786 l 27.52901423702622 6.640464939683743 a49.318587526173715,49.318587526173715 0 0,0 -0.20617209427365696,0.8235550307462844 l -27.410630828457503 -7.113347809827424" fill="#a0ff22" stroke="none" /><path d="M 119.67450827220406 107.3425965602758 l 3.982656979967849 1.4863417696280912 a25.250972650609246,25.250972650609246 0 0,0 -0.15548072426436604,0.4059111086374526 l -3.956481976109976 -1.5546764450986876" fill="#ff2e04" stroke="none" /><path d="M 119.41010516605496 108.01547362559984 l 1.9699769004876357 0.8135091362881512 a23.131339039965056,23.131339039965056 0 0,0 -0.15514411464224367,0.3667148581836741 l -1.955681804653083 -0.8472985201379889" fill="#ff1001" stroke="none" /><path d="M 118.81262510543309 109.33194174019688 l 27.15813599775172 13.471705383113688 a51.31585718401827,51.31585718401827 0 0,0 -0.39933836390810035,0.7879324772310823 l -26.922218964057354 -13.937192072047466" fill="#8aff24" stroke="none" /><line stroke="#e1ed5e" stroke-width="0.3" x1="174.80103733775053" x2="179.2010983576182" y1="140.37084112569926" y2="142.7455964860345" /><path d="M 175.68104954172406 140.8457921977663 a86.0,86.0 0 0,1 -30.038265399797805,32.042727171017184" fill="none" id="id29" stroke="none" /><text fill="#e1ed5e" style="font-size:6.75px; font-family:Arial;" text-anchor="middle"><textPath startOffset="22.206326154141568" xlink:href="#id29">May</textPath></text><path d="M 118.30583269289576 110.29060199501025 l 10.058474985359855 5.654359705323576 a32.53883454722776,32.53883454722776 0 0,0 -0.2786687828974716,0.4858825120433553 l -9.959654206310002 -5.826662063225246" fill="#ff920d" stroke="none" /><path d="M 118.12598468904814 110.60418214915192 l 2.588681751303406 1.5144475341851606 a23.999137299846538,23.999137299846538 0 0,0 -0.21167139022264703,0.3547734253287741 l -2.562229485382532 -1.5587830534000389" fill="#ff1c02" stroke="none" /><path d="M 117.55443506779139 111.5257021239791 l 5.866907518953961 3.852031021862117 a28.01845758192971,28.01845758192971 0 0,0 -0.2681725221499671,0.40088153448858604 l -5.799731891393273 -3.95244947055651" fill="#ff5507" stroke="none" /><path d="M 116.93607887273984 112.41649034213515 l 2.8182484374122634 2.066166245906592 a24.494505288406415,24.494505288406415 0 0,0 -0.25222194269025583,0.3378925097543957 l -2.782265228026916 -2.114371635170303" fill="#ff2303" stroke="none" /><path d="M 116.71984013943494 112.70617746262583 l 6.538971377549245 4.969265857405473 a29.212901426291687,29.212901426291687 0 0,0 -0.307699744989347,0.3977433987417686 l -6.45246481534183 -5.081087250260494" fill="#ff6509" stroke="none" /><path d="M 116.498646956653 112.99209946851258 l 3.0285170677464164 2.384849805540149 a24.854792371142217,24.854792371142217 0 0,0 -0.2675820645100438,0.3338497680995649 l -2.9870170911815186 -2.436627407217964" fill="#ff2903" stroke="none" /><path d="M 115.80600337817218 113.82643327865902 l 22.332671238271356 19.535690422324464 a50.67139034345395,50.67139034345395 0 0,0 -0.5799247735744669,0.6515516308512282 l -21.993087615048548 -19.917216222916558" fill="#91ff24" stroke="none" /><path d="M 114.81725581225074 114.88116024355365 l 5.515216977889676 5.53900321799716 a28.816532157049277,28.816532157049277 0 0,0 -0.35451202167324464,0.3469646280970621 l -5.419055003840637 -5.633117949016794" fill="#ff6008" stroke="none" /><path d="M 114.29624159901734 115.38237550388516 l 5.202419427666442 5.597664855536096 a28.64192513286182,28.64192513286182 0 0,0 -0.3640258439093892,0.3325289774417742 l -5.105294034290189 -5.686386599564453" fill="#ff5e08" stroke="none" /><path d="M 113.20401910651253 116.32954008644616 l 2.2148072912476975 2.7390739254795697 a24.522484536035044,24.522484536035044 0 0,0 -0.3305193098990164,0.2625845293565726 l -2.16733048863133 -2.776792368841268" fill="#ff2403" stroke="none" /><path d="M 112.92097659922987 116.55440617244103 l 7.7693633844673515 9.954139006445502 a33.62726774720255,33.62726774720255 0 0,0 -0.45936652647284404,0.3522226641058037 l -7.596868129501014 -10.086401012378676" fill="#ffa10e" stroke="none" /><path d="M 111.7513745106137 117.40417183066458 l 4.235437092027734 6.272821520669187 a28.56883195682761,28.56883195682761 0 0,0 -0.4099291379065914,0.27167867985181215 l -4.126833255381179 -6.344798221612319" fill="#ff5d08" stroke="none" /><path d="M 111.1453310114006 117.79835938074945 l 3.239765670914288 5.1736923435799405 a27.104356974199035,27.104356974199035 0 0,0 -0.3975574152625283,0.24421223517710197 l -3.1502290557194508 -5.228693045585421" fill="#ff4806" stroke="none" /><line stroke="#e1ed5e" stroke-width="0.3" x1="143.8653032363475" x2="146.44561519142675" y1="172.8068346515853" y2="177.08958963109032" /><path d="M 144.38136562736335 173.6633856474863 a86.0,86.0 0 0,1 -40.68145358897372,12.25698825130547" fill="none" id="id30" stroke="none" /><text fill="#e1ed5e" style="font-size:6.75px; font-family:Arial;" text-anchor="middle"><textPath startOffset="21.466115282336833" xlink:href="#id30">June</textPath></text><path d="M 110.8373102113329 117.98757091392108 l 3.5504556781813794 5.892981933952272 a27.879896190831534,27.879896190831534 0 0,0 -0.41319616414191424,0.2441235769462932 l -3.4484916430110832 -5.953224083192314" fill="#ff5307" stroke="none" /><path d="M 109.89434966115114 118.52300852407294 l 3.310647135822859 6.197794419760775 a28.026595201628588,28.026595201628588 0 0,0 -0.4274844482994715,0.2236396591875293 l -3.203471784996892 -6.25386349789302" fill="#ff5507" stroke="none" /><path d="M 109.57404056367764 118.69057910512821 l 0.4865680861920114 0.9498851863553521 a22.067253657645594,22.067253657645594 0 0,0 -0.3395688946495945,0.17026689311192458 l -0.4701452838596565 -0.9581199203765788" fill="#ff0000" stroke="none" /><path d="M 109.2508944713604 118.85261126421891 l 2.0002817334372196 4.0764202916979455 a25.54074106371299,25.54074106371299 0 0,0 -0.3963525696452535,0.1902733197357131 l -1.9298164957917334 -4.110247887933218" fill="#ff3204" stroke="none" /><path d="M 107.93186726928326 119.44442032107085 l 2.705679608577344 6.632785166119186 a28.16341686656319,28.16341686656319 0 0,0 -0.4504522929583618,0.17924426364397683 l -2.591106239577116 -6.678376274169232" fill="#ff5708" stroke="none" /><path d="M 106.91757812671514 119.82793768551818 l 2.681441337574854 7.685847673115285 a29.140170888942496,29.140170888942496 0 0,0 -0.47502678488888234,0.16115487658666897 l -2.5487448197487446 -7.730865536600077" fill="#ff6409" stroke="none" /><path d="M 106.2309692047433 120.05430185196036 l 2.4553019219177097 7.90236065399791 a29.27501126486406,29.27501126486406 0 0,0 -0.482514953443484,0.14537779734200354 l -2.3189119940339795 -7.943453820445639" fill="#ff6609" stroke="none" /><path d="M 105.88484417918355 120.15858648285463 l 1.345338005064206 4.608467394886995 a25.80082347911342,25.80082347911342 0 0,0 -0.4273953488389737,0.12078619471864331 l -1.2658114881206266 -4.630942382944157" fill="#ff3605" stroke="none" /><path d="M 105.53697534728816 120.25689768951611 l 0.9084870566740808 3.3236791217265895 a24.44560468370148,24.44560468370148 0 0,0 -0.4068558318193185,0.10745432303859388 l -0.8511407820432649 -3.3388247940687674" fill="#ff2303" stroke="none" /><path d="M 105.18746579009965 120.34920634021253 l 7.090315675155323 27.813638205835225 a49.7031539489731,49.7031539489731 0 0,0 -0.8308632824614048,0.20420598002578347 l -6.610499107950707 -27.93156544417504" fill="#9bff22" stroke="none" /><path d="M 104.48393922423573 120.51570834832081 l 0.8662722073708643 3.963521151361267 a25.057083614439236,25.057083614439236 0 0,0 -0.42216238735555356,0.08846823287836438 l -0.7979183585859327 -3.9778453649661727" fill="#ff2b04" stroke="none" /><path d="M 104.13013068566511 120.58985236759428 l 1.5964334876589594 7.958665797106187 a29.11720155906867,29.11720155906867 0 0,0 -0.49226426316726846,0.0943436176348278 l -1.4592016099199865 -7.984966613089483" fill="#ff6409" stroke="none" /><path d="M 102.70371172650421 120.8252237178851 l 3.978126072342364 30.641345607357717 a51.898503971503054,51.898503971503054 0 0,0 -0.8869023742872131,0.10739152619175907 l -3.4500962750037707 -30.705282662274826" fill="#83ff25" stroke="none" /><line stroke="#e1ed5e" stroke-width="0.3" x1="102.19456741930631" x2="102.32365962044197" y1="184.97166512339345" y2="189.96999836594603" /><path d="M 102.22038585953345 185.97133177190398 a86.0,86.0 0 0,1 -42.740103519485714,-10.115201625700543" fill="none" id="id31" stroke="none" /><text fill="#e1ed5e" style="font-size:6.75px; font-family:Arial;" text-anchor="middle"><textPath startOffset="22.20632615414155" xlink:href="#id31">July</textPath></text><path d="M 99.45781275523022 120.99299961872073 l -0.17495771661031284 6.774204508724848 a27.776463452910342,27.776463452910342 0 0,0 -0.4778605213328371,-0.016458482559752498 l 0.29153858961779294 -6.770189227739002" fill="#ff5207" stroke="none" /><path d="M 99.09653310690486 120.98055641714683 l -0.30409416682136153 7.061758291179574 a28.068302725926376,28.068302725926376 0 0,0 -0.4825234373067436,-0.024940950129657215 l 0.42560567254159404 -7.055477534287715" fill="#ff5607" stroke="none" /><path d="M 97.65516085044442 120.86867818915974 l -1.1982986580665163 10.664658628900685 a31.731768882384202,31.731768882384202 0 0,0 -0.5422696033313787,-0.06566129711397341 l 1.3816956844492845 -10.642451803061364" fill="#ff880c" stroke="none" /><path d="M 97.2962882734958 120.8252237178851 l -0.4387734033197969 3.3796333373924954 a24.407997006259773,24.407997006259773 0 0,0 -0.4161812321113832,-0.05767892651861142 l 0.49688322661801115 -3.3715798453812793" fill="#ff2203" stroke="none" /><path d="M 96.22490169976321 120.6578951692458 l -0.8103781931854862 4.434509099065984 a25.50794673501025,25.50794673501025 0 0,0 -0.43124510365280155,-0.0826491504870544 l 0.8865909114099827 -4.419902750230461" fill="#ff3204" stroke="none" /><path d="M 95.51606077576429 120.51570834832081 l -7.6540557888577725 35.0201839037522 a56.84686667857557,56.84686667857557 0 0,0 -0.9541607178261035,-0.21716387289662334 l 8.255736656076738 -34.883243297277886" fill="#50ff2b" stroke="none" /><path d="M 94.46302465271185 120.25689768951611 l -1.2818858712935735 4.68975014619634 a25.861788541346762,25.861788541346762 0 0,0 -0.42840524621922754,-0.12107160180589531 l 1.3624222856174149 -4.666989751051923" fill="#ff3705" stroke="none" /><path d="M 93.08242187328487 119.8279376855182 l -1.7925521697477553 5.138013921741806 a26.441730454669727,26.441730454669727 0 0,0 -0.4284573169916835,-0.1536295500920423 l 1.8807290473691654 -5.106396830609806" fill="#ff3f05" stroke="none" /><path d="M 92.7421414339146 119.70592522655815 l -4.733040234669351 12.850751514298388 a34.69465166936499,34.69465166936499 0 0,0 -0.5586330909410125,-0.2112272346604349 l 4.953543546370647 -12.76737602953132" fill="#ffaf10" stroke="none" /><path d="M 91.40352486487194 119.15986991738527 l -3.377040233963289 7.526765397611904 a29.24964230088158,29.24964230088158 0 0,0 -0.4575925527711759,-0.21005829747982557 l 3.506100782501884 -7.467520029798004" fill="#ff6609" stroke="none" /><path d="M 90.7491055286396 118.85261126421891 l -1.8334268034258063 3.736382780432181 a25.161971903488812,25.161971903488812 0 0,0 -0.387190137886123,-0.19414517307151286 l 1.8974708489946899 -3.704269766451366" fill="#ff2d04" stroke="none" /><path d="M 90.42595943632237 118.69057910512821 l -1.9026065881601357 3.7142958300027615 a25.17323679439428,25.17323679439428 0 0,0 -0.3839627027666307,-0.2008711388894707 l 1.966260193453262 -3.680995272168574" fill="#ff2d04" stroke="none" /><path d="M 90.10565033884886 118.52300852407294 l -3.246701370405181 6.078082867362274 a27.89087520791907,27.89087520791907 0 0,0 -0.42152035942914284,-0.2298465088253419 l 3.3508445417029646 -6.021295706777166" fill="#ff5307" stroke="none" /><line stroke="#e1ed5e" stroke-width="0.3" x1="58.666819895761336" x2="56.23545636021788" y1="174.27360380694188" y2="178.64263932499728" /><path d="M 58.180547188652646 175.14741091055294 a86.0,86.0 0 0,1 -31.652253787137756,-30.449443065178592" fill="none" id="id32" stroke="none" /><text fill="#e1ed5e" style="font-size:6.75px; font-family:Arial;" text-anchor="middle"><textPath startOffset="22.20632615414155" xlink:href="#id32">August</textPath></text><path d="M 89.7882731507175 118.34994917583269 l -6.707752211380453 12.053486543420334 a34.794218991363536,34.794218991363536 0 0,0 -0.520838363997556,-0.2957456161241259 l 6.914239342299216 -11.936237761501575" fill="#ffb010" stroke="none" /><path d="M 89.4739219176387 118.17145234162733 l -18.45238955104998 31.854857497012627 a57.81334847984736,57.81334847984736 0 0,0 -0.8568272157314735,-0.50622862185492 l 18.997984637809832 -31.532510302863958" fill="#46ff2c" stroke="none" /><path d="M 85.44109423537348 115.13401014063109 l -5.287951582839726 5.4968356943627485 a28.62742647249238,28.62742647249238 0 0,0 -0.3521855710727074,-0.3446877065314954 l 5.381787106288228 -5.404997884908684" fill="#ff5d08" stroke="none" /><path d="M 85.18274418774928 114.88116024355367 l -2.438149684968816 2.4486650307942246 a24.455507823656028,24.455507823656028 0 0,0 -0.29574788004024766,-0.29959104105551143 l 2.4799381900645967 -2.4063334957580484" fill="#ff2303" stroke="none" /><path d="M 84.9287848128048 114.62390073753433 l -7.737166748967184 7.507527237934981 a31.780849434513918,31.780849434513918 0 0,0 -0.3775768440725231,-0.3958878114777103 l 7.865250144418664 -7.37323230987477" fill="#ff880c" stroke="none" /><path d="M 84.67929136418377 114.36230785411682 l -6.56700901768181 6.156203830690667 a30.00135839989302,30.00135839989302 0 0,0 -0.3499495478600621,-0.3798011183269864 l 6.672004973537602 -6.042251457562336" fill="#ff700a" stroke="none" /><path d="M 84.43433777217949 114.09645910891817 l -9.961965353479979 9.021680876435976 a34.439921113614695,34.439921113614695 0 0,0 -0.39415858373650653,-0.4428413472744262 l 10.115782786864823 -8.848865359420685" fill="#ffab0f" stroke="none" /><path d="M 83.06392112726016 112.41649034213515 l -24.08875854221922 17.660394713614355 a50.869011191299876,50.869011191299876 0 0,0 -0.5116458621654242,-0.7106313527360641 l 24.38918419676025 -17.243129755427155" fill="#8fff24" stroke="none" /><path d="M 82.44556493220864 111.52570212397912 l -5.940147567909443 3.900118185279612 a28.106073105991044,28.106073105991044 0 0,0 -0.2620491630343933,-0.4067061203780652 l 6.006401594320882 -3.7972904649800987" fill="#ff5608" stroke="none" /><line stroke="#e1ed5e" stroke-width="0.3" x1="26.63291911575756" x2="22.317208475507996" y1="142.92168965132927" y2="145.44649492493687" /><path d="M 25.769776987707644 143.4266507060508 a86.0,86.0 0 0,1 -11.730757126820373,-40.83630448921669" fill="none" id="id33" stroke="none" /><text fill="#e1ed5e" style="font-size:6.75px; font-family:Arial;" text-anchor="middle"><textPath startOffset="21.46611528233685" xlink:href="#id33">September</textPath></text><path d="M 81.69416730710424 110.29060199501025 l -5.753119939290218 3.234109505860886 a27.599837371614427,27.599837371614427 0 0,0 -0.22924108251958125,-0.4161391523466038 l 5.8079374312613155 -3.13459983511646" fill="#ff4f07" stroke="none" /><path d="M 81.18737489456691 109.33194174019688 l -6.561824949110996 3.2549720090254515 a28.324779139490467,28.324779139490467 0 0,0 -0.2129035306798054,-0.43864433314316276 l 6.61688173640552 -3.141538719917004" fill="#ff5908" stroke="none" /><path d="M 80.73074385275274 108.34839909993369 l -13.719322030355356 5.943891908161752 a35.951576772651926,35.951576772651926 0 0,0 -0.24113068157226117,-0.5699617023849833 l 13.819603693119923 -5.70685568011061" fill="#ffbf11" stroke="none" /><path d="M 80.45479744820244 107.68017299344265 l -5.581681645755368 2.1932891470486364 a26.997139924757775,26.997139924757775 0 0,0 -0.16623260128026865,-0.4339808667383752 l 5.618608526629146 -2.0968847134771034" fill="#ff4706" stroke="none" /><path d="M 80.20201598880116 107.00284435728193 l -7.238421187826176 2.560338312331482 a28.677895126007083,28.677895126007083 0 0,0 -0.16060873409842533,-0.4668041605719824 l 7.281420752867829 -2.4353614486702027" fill="#ff5e08" stroke="none" /><path d="M 79.97269907076064 106.31721596034903 l -3.5092822343552244 1.10693367112051 a24.679723352729322,24.679723352729322 0 0,0 -0.12430733298447647,-0.4062435565674224 l 3.527816339845831 -1.04636314200104" fill="#ff2603" stroke="none" /><path d="M 79.67330655649465 105.27499134158121 l -29.158737717126815 7.5669999853530765 a51.12459915143316,51.12459915143316 0 0,0 -0.21372196984268016,-0.8537130306845396 l 29.284671001264552 -7.063959115271145" fill="#8cff24" stroke="none" /><path d="M 79.4281124754447 104.21870165774334 l -7.184293349231083 1.4732916571675072 a28.333802508582117,28.333802508582117 0 0,0 -0.09386593045601371,-0.47862035713747864 l 7.208589212662764 -1.3494075729620736" fill="#ff5908" stroke="none" /><path d="M 79.23777060512086 103.15116336523772 l -14.429193742256837 2.1899742000602154 a35.594437949044604,35.594437949044604 0 0,0 -0.08672491410445944,-0.6065538472561083 l 14.464752707377896 -1.9412748808237066" fill="#ffba11" stroke="none" /><path d="M 79.10278846688536 102.07522291339032 l -6.80981802739192 0.6762572309740046 a27.843313920070933,27.843313920070933 0 0,0 -0.04325711226792582,-0.47733862931953885 l 6.82044973593692 -0.5589372131058995" fill="#ff5307" stroke="none" /><line stroke="#e1ed5e" stroke-width="0.3" x1="15.007084014347285" x2="10.007500721073583" y1="101.09737516637583" y2="101.16192664675087" /><path d="M 14.007167355692545 101.11028546245083 a86.0,86.0 0 0,1 10.666146001902534,-42.60595125391555" fill="none" id="id34" stroke="none" /><text fill="#e1ed5e" style="font-size:6.75px; font-family:Arial;" text-anchor="middle"><textPath startOffset="22.20632615414155" xlink:href="#id34">October</textPath></text><path d="M 79.00175016825051 100.2711162175752 l -3.4686734256963185 0.04478533338318991 a24.46896253370054,24.46896253370054 0 0,0 -0.0018126872065108166,-0.4212046682915298 l 3.4689304101923324 0.014928813112015275" fill="#ff2303" stroke="none" /><path d="M 79.00486145842228 99.54816195383935 l -1.727983557069946 -0.03718807154704012 a22.728383674468574,22.728383674468574 0 0,0 0.011784456475092495,-0.3910687391601854 l 1.7270874061392083 0.06692695813221995" fill="#ff0a01" stroke="none" /><path d="M 79.08570108090925 98.10471618934814 l -5.631877670335555 -0.5103688444662771 a26.654955565787063,26.654955565787063 0 0,0 0.04534245845820907,-0.45659236880951154 l 5.622258086195117 0.607236743980219" fill="#ff4206" stroke="none" /><path d="M 79.12142395522702 97.74499172005258 l -32.85042626380793 -3.548038097322008 a54.04147514948342,54.04147514948342 0 0,0 0.10785043555619868,-0.9239966686944475 l 32.78448547524815 4.112978504341317" fill="#6dff28" stroke="none" /><path d="M 79.16333360222342 97.38593545837743 l -5.190126898589856 -0.651127509224458 a26.230811051522966,26.230811051522966 0 0,0 0.06006106396739106,-0.44752468916801447 l 5.178149835564631 0.7403705404571318" fill="#ff3c05" stroke="none" /><path d="M 79.21141760316559 97.0276538004421 l -10.06455945125416 -1.4390281388169712 a31.166914917128818,31.166914917128818 0 0,0 0.08050578352061603,-0.5304325264467612 l 10.038297774294241 1.6120597776558245" fill="#ff800b" stroke="none" /><path d="M 79.3925641242962 95.95851677861259 l -7.032116596005784 -1.379122633452169 a28.166075847904487,28.166075847904487 0 0,0 0.09740191711364239,-0.4749663394329054 l 7.007335382977147 1.4999646290484767" fill="#ff5708" stroke="none" /><path d="M 80.02781315780177 93.51064311812611 l -16.367305107074476 -5.3180598035419315 a38.20960303267088,38.20960303267088 0 0,0 0.20862935655392073,-0.6237752212504946 l 16.27333845674878 5.599008127714748" fill="#ffdb14" stroke="none" /><path d="M 80.14247586403 93.16781622104843 l -6.658719909173291 -2.2910005215417737 a28.04182037675809,28.04182037675809 0 0,0 0.16096928832870921,-0.45508185446275146 l 6.618297540034772 2.405280002431136" fill="#ff5507" stroke="none" /><path d="M 80.52162464483688 92.15188598940014 l -9.441580026502066 -3.804146656848838 a31.179143637048107,31.179143637048107 0 0,0 0.20485931635108462,-0.49608308383936217 l 9.374699023264782 3.9661043111415113" fill="#ff800b" stroke="none" /><path d="M 80.95270993114464 91.15688171328213 l -9.025250491431928 -4.19016864732335 a30.95051052590287,30.95051052590287 0 0,0 0.2285058596883744,-0.48129161676338683 l 8.951786437901802 4.344902679727269" fill="#ff7d0b" stroke="none" /><path d="M 81.10775173730289 90.83032412892265 l -27.120736942042132 -13.163513610728728 a51.1465165957742,51.1465165957742 0 0,0 0.3912464649249155,-0.7887289991057244 l 26.890130464163803 13.628402198333413" fill="#8cff24" stroke="none" /><path d="M 81.6062741919709 89.86733742301443 l -2.6142808252502894 -1.440144631936477 a23.984707823919585,23.984707823919585 0 0,0 0.20231941508766704,-0.3599036640339643 l 2.5891037688701917 1.4849318059052259" fill="#ff1c02" stroke="none" /><line stroke="#e1ed5e" stroke-width="0.3" x1="26.266209847984243" x2="21.928928074336255" y1="57.711370442889674" y2="55.22380399835377" /><path d="M 25.398753493254645 57.213857153982495 a86.0,86.0 0 0,1 29.58750427330803,-30.492523968695096" fill="none" id="id35" stroke="none" /><text fill="#e1ed5e" style="font-size:6.75px; font-family:Arial;" text-anchor="middle"><textPath startOffset="21.46611528233685" xlink:href="#id35">November</textPath></text><path d="M 81.78341655067845 89.55222093294921 l -12.321843555987432 -7.066961789506954 a35.20456889710421,35.20456889710421 0 0,0 0.3060120698385369,-0.5230738226239218 l 12.19837181167857 7.278015024484767" fill="#ffb510" stroke="none" /><path d="M 82.34701348167596 88.62581576622439 l -6.251266483116211 -4.02782025577283 a28.436509171361656,28.436509171361656 0 0,0 0.2686618618225482,-0.409190447386614 l 6.181007985935743 4.134828767137111" fill="#ff5b08" stroke="none" /><path d="M 82.54541684631803 88.32363383020206 l -25.328184867404943 -16.94346741622242 a51.47290660180009,51.47290660180009 0 0,0 0.49898211738307024,-0.7321946861003328 l 25.03277828435313 17.376940125593165" fill="#88ff25" stroke="none" /><path d="M 84.07557802195018 86.31012108654704 l -22.000785611486876 -18.91359645186811 a50.01307805571008,50.01307805571008 0 0,0 0.5668342621321621,-0.6479895488269842 l 21.67195948577687 19.28950155689804" fill="#98ff23" stroke="none" /><path d="M 84.5562425177563 85.77008943001954 l -3.301320424492768 -3.0418435706073415 a25.489045427840793,25.489045427840793 0 0,0 0.3000821410257993,-0.32010670542411057 l 3.248470961496513 3.098219692909502" fill="#ff3204" stroke="none" /><path d="M 84.80347519578584 85.50635884689758 l -6.287264825614848 -5.996460466521569 a29.688339145887998,29.688339145887998 0 0,0 0.3558864721105547,-0.3667722928140099 l 6.183114089801175 6.103796954885703" fill="#ff6c09" stroke="none" /><path d="M 86.10567301691215 84.25364557470407 l -7.483074451282967 -8.480521772965501 a32.30998022921286,32.30998022921286 0 0,0 0.42019314124753215,-0.3643873514378866 l 7.3359875113886615 8.608074117823069" fill="#ff8f0d" stroke="none" /><path d="M 86.65592168130627 83.78471172551755 l -5.465771335932714 -6.641826864159774 a29.60165800239571,29.60165800239571 0 0,0 0.3962345457775901,-0.3203941130865186 l 5.350633391590623 6.734927074510426" fill="#ff6b09" stroke="none" /><path d="M 86.93701828274178 83.55741782278169 l -5.0789538821746625 -6.39295976902637 a29.16490705064343,29.16490705064343 0 0,0 0.3957642400587957,-0.3089002668742442 l 4.968157086956441 6.479438425123837" fill="#ff6509" stroke="none" /><path d="M 87.22198572758235 83.33499621200491 l -2.5552447279969845 -3.3325336913454016 a25.19941143779799,25.19941143779799 0 0,0 0.3464965226518567,-0.26097399723511855 l 2.497502051586738 3.3760242780863745" fill="#ff2d04" stroke="none" /><path d="M 87.51073957382395 83.11751280151077 l -3.4230658171154853 -4.627164689105002 a26.755695670238715,26.755695670238715 0 0,0 0.3726108815701979,-0.27071765185831853 l 3.3429096191915058 4.685401575779988" fill="#ff4306" stroke="none" /><path d="M 87.80319425747018 82.90503203632743 l -16.954121906235272 -23.762793058896055 a50.19096749974905,50.19096749974905 0 0,0 0.7076182167068689,-0.4957317817042998 l 16.542572549944744 24.051109683364295" fill="#96ff23" stroke="none" /><path d="M 88.70189139769569 82.29822771554957 l -0.5647200249424933 -0.88479812310906 a22.049655384032476,22.049655384032476 0 0,0 0.3216948622123725,-0.20144529320504517 l 0.5494060103578786 0.8943877576370354" fill="#ff0000" stroke="none" /><line stroke="#e1ed5e" stroke-width="0.3" x1="56.762969772571076" x2="54.21961505331055" y1="26.818313649435495" y2="22.513508569990535" /><path d="M 56.25429882871897 25.957352633546506 a86.0,86.0 0 0,1 42.265352541879196,-11.944610805530505" fill="none" id="id36" stroke="none" /><text fill="#e1ed5e" style="font-size:6.75px; font-family:Arial;" text-anchor="middle"><textPath startOffset="22.20632615414155" xlink:href="#id36">December</textPath></text><path d="M 89.63071344664047 81.73862282372117 l -7.316168139884212 -12.884522498244008 a35.8167889996049,35.8167889996049 0 0,0 0.5387457548459302,-0.29981142928410964 l 7.093298295966235 13.008549325088303" fill="#ffbd11" stroke="none" /><path d="M 89.94658935756843 81.56283822128135 l -3.480799261389281 -6.383511166908486 a28.27084440186513,28.27084440186513 0 0,0 0.4292523226839155,-0.22929172482840743 l 3.3704018921770604 6.442481618238642" fill="#ff5908" stroke="none" /><path d="M 90.91171255644093 81.06846463323043 l -2.2100615486356703 -4.6037120448237925 a26.106714857950614,26.106714857950614 0 0,0 0.4067945682337947,-0.1909955043054102 l 2.1304887691022674 4.64107253176921" fill="#ff3a05" stroke="none" /><path d="M 92.23578459929587 80.48803036053334 l -11.510713929937348 -28.927159943186894 a52.133215663589425,52.133215663589425 0 0,0 0.8366557781586764,-0.3246094436981763 l 11.011074986778993 29.12101209077562" fill="#81ff25" stroke="none" /><path d="M 93.25333710446033 80.11325718540243 l -2.4201629706704106 -7.133772549826657 a28.5331201767438,28.5331201767438 0 0,0 0.4664719186522785,-0.15378845752711148 l 2.297008229775723 7.174374731613002" fill="#ff5c08" stroke="none" /><path d="M 93.59665428221793 80.00007090966166 l -1.9725872801834246 -6.161092570500268 a27.469170135358556,27.469170135358556 0 0,0 0.4515599681058755,-0.14030188017178688 l 1.8662419393668204 6.19413458555458" fill="#ff4d07" stroke="none" /><path d="M 94.63758080256005 79.69619591428918 l -9.007850833496255 -34.10655374423718 a56.27603130947497,56.27603130947497 0 0,0 0.9387139784663694,-0.2392990944496839 l 8.419427966344886 34.25655583485573" fill="#56ff2b" stroke="none" /><path d="M 95.692805502759 79.44645832069477 l -1.6118264506510445 -7.691489705069885 a28.858562107040598,28.858562107040598 0 0,0 0.48706875167685904,-0.09770140948146203 l 1.4791912895070491 7.718095070628557" fill="#ff6108" stroke="none" /><path d="M 97.11714578562143 79.19881850522333 l -3.9223715686939733 -28.301799821654484 a49.57230952982101,49.57230952982101 0 0,0 0.8462353733471617,-0.10986563857830077 l 3.434621466838954 28.36512378339692" fill="#9dff22" stroke="none" /><path d="M 99.63851952072746 79.00311137660856 l -0.255046084935343 -14.81455997291034 a35.8167552350843,35.8167552350843 0 0,0 0.6165265642078751,-0.005306638782519986 l 3.6290583744791555e-15 14.816755235084301" fill="#ffbd11" stroke="none" /></svg>