<?xml version="1.0" encoding="utf-8" ?>
<svg baseProfile="full" height="200mm" version="1.1" viewBox="0,0,200,200" width="200mm" xmlns="http://www.w3.org/2000/svg" xmlns:ev="http://www.w3.org/2001/xml-events" xmlns:xlink="http://www.w3.org/1999/xlink"><defs /><rect fill="#1a1a1a" height="200" width="200" x="0" y="0" /><text alignment-baseline="middle" fill="#e1ed5e" style="dominant-baseline: central; font-size:9.0px; font-family:Arial;" text-anchor="middle" x="100.0" y="100.0">2017</text><line stroke="#e1ed5e" stroke-width="0.3" x1="100.0" x2="100.0" y1="15.0" y2="10.0" /><path d="M 100.0 14.0 a86.0,86.0 0 0,1 42.46469731375804,11.215312516191453" fill="none" id="id37" stroke="none" /><text fill="#e1ed5e" style="font-size:6.75px; font-family:Arial;" text-anchor="middle"><textPath startOffset="22.20632615414155" xlink:href="#id37">January</textPath></text><path d="M 100.0 79.0 l 0.0 -3.7808906524002204 a24.78089065240022,24.78089065240022 0 0,0 0.42656229665855955,0.0036715563578634844 l -0.06508181738603115 3.780330472650916" fill="#ff2703" stroke="none" /><path d="M 100.36148047927253 79.00311137660856 l 0.5153332405097631 -29.933551810849373 a50.93798744674695,50.93798744674695 0 0,0 0.87655390095393,0.022638801175731645 l -1.030513776658561 29.920246217531282" fill="#8eff24" stroke="none" /><path d="M 101.80526077348638 79.07773832637324 l 0.24852825478431406 -2.8803446328949125 a23.891046782338996,23.891046782338996 0 0,0 0.409418448784537,0.038879214988039944 l -0.29807183065909526 2.8756398733916946" fill="#ff1b02" stroke="none" /><path d="M 102.88285421437855 79.19881850522331 l 1.1416348572626274 -8.23744528885324 a29.316179112679542,29.316179112679542 0 0,0 0.49925595361922526,0.0735773496458668 l -1.2832597913105084 8.216573455046404" fill="#ff6709" stroke="none" /><path d="M 103.59715602781102 79.31037775812273 l 2.010074131296531 -11.561265103088152 a32.73470275708726,32.73470275708726 0 0,0 0.5543152385555501,0.10129756675218896 l -2.208784490954982 11.524952054985224" fill="#ff950d" stroke="none" /><path d="M 104.66035177308747 79.52364482259891 l 1.0546956616736305 -4.634054256849754 a25.75256160340721,25.75256160340721 0 0,0 0.4313876748627177,0.1020955250632265 l -1.1343070234988717 4.6152128196456585" fill="#ff3505" stroke="none" /><path d="M 107.76421540070413 80.48803036053334 l 5.9065789810036655 -14.843610564952064 a36.97562048443787,36.97562048443787 0 0,0 0.5893493622913999,0.24041040255987803 l -6.161212212883452 14.739739276208606" fill="#ffcc13" stroke="none" /><line stroke="#e1ed5e" stroke-width="0.3" x1="143.23703022742887" x2="145.7803849466894" y1="26.81831364943548" y2="22.513508569990506" /><path d="M 143.74570117128098 25.957352633546492 a86.0,86.0 0 0,1 28.547481713284135,27.462654790039103" fill="none" id="id38" stroke="none" /><text fill="#e1ed5e" style="font-size:6.75px; font-family:Arial;" text-anchor="middle"><textPath startOffset="19.985693538727396" xlink:href="#id38">February</textPath></text><path d="M 111.2981086023043 82.29822771554956 l 6.487456172708435 -10.164486456716759 a33.0583528112919,33.0583528112919 0 0,0 0.47703671309897083,0.31027794783902496 l -6.6614599115916855 10.051309584718206" fill="#ff990e" stroke="none" /><path d="M 111.60114157652 82.49532879139004 l 7.92595651951778 -11.959276763650658 a35.34730244536864,35.34730244536864 0 0,0 0.5042802799059337,0.34049229605115067 l -8.130641493830256 11.821072555300837" fill="#ffb711" stroke="none" /><path d="M 111.90073688211348 82.69761687909136 l 1.429694514805752 -2.078621053979441 a23.522834099125873,23.522834099125873 0 0,0 0.3316370802614778,0.2323329682527643 l -1.4652627346508806 2.053703242962741" fill="#ff1502" stroke="none" /><path d="M 112.19680574252982 82.90503203632743 l 3.09065443879818 -4.331842265373208 a26.321372217026035,26.321372217026035 0 0,0 0.36656231356497737,0.26632310996899083 l -3.164762068716946 4.277999920587542" fill="#ff3d05" stroke="none" /><path d="M 114.16331599549186 84.49514656593476 l 5.476538481292603 -5.9952716232192795 a29.120083470830643,29.120083470830643 0 0,0 0.3671794536339023,0.3412532854902422 l -5.578925818721352 5.900113751654397" fill="#ff6409" stroke="none" /><path d="M 115.9244219780498 86.31012108654704 l 6.182481816793795 -5.314945030544644 a29.153019201050437,29.153019201050437 0 0,0 0.32386142687673086,0.3833497782695663 l -6.2730538571576435 5.207736302645971" fill="#ff6509" stroke="none" /><path d="M 116.38621287248628 86.86637796730983 l 19.158166945370215 -15.355355472169759 a45.55243984583548,45.55243984583548 0 0,0 0.48512463288142965,0.6160590185816172 l -19.41964565884561 15.023304059635104" fill="#caff1d" stroke="none" /><path d="M 116.60985879189232 87.15038557335679 l 13.484947893840506 -10.432140523904115 a38.049145890925914,38.049145890925914 0 0,0 0.396298269536586,0.5214820691491473 l -13.662522103601205 10.198473678873935" fill="#ffd914" stroke="none" /><path d="M 116.82858285166822 87.43820079747576 l 20.429718367183565 -15.249888963005665 a46.49377386630782,46.49377386630782 0 0,0 0.47321227431270785,0.6454610103558833 l -20.6891932540099 14.895965508978287" fill="#bfff1e" stroke="none" /><path d="M 117.2510076193507 88.02491185347247 l 12.141714464116932 -8.428383093093846 a35.78035424785538,35.78035424785538 0 0,0 0.3468573683128173,0.5089703880478318 l -12.284996298098484 8.218134681775608" fill="#ffbd11" stroke="none" /><path d="M 117.65298651832404 88.62581576622439 l 9.795953769640244 -6.311735569830087 a32.653270620747946,32.653270620747946 0 0,0 0.3003671798210093,0.47510874514257795 l -9.903148545707209 6.142179176973302" fill="#ff940d" stroke="none" /><line stroke="#e1ed5e" stroke-width="0.3" x1="172.23445277983987" x2="176.4835382374775" y1="55.19839476539836" y2="52.563006222186495" /><path d="M 173.08426987136738 54.67131705675599 a86.0,86.0 0 0,1 12.851231095245387,41.99856678651699" fill="none" id="id39" stroke="none" /><text fill="#e1ed5e" style="font-size:6.75px; font-family:Arial;" text-anchor="middle"><textPath startOffset="22.20632615414155" xlink:href="#id39">March</textPath></text><path d="M 118.21658344932153 89.55222093294921 l 10.808610466238537 -6.199075391235286 a33.460120220812485,33.460120220812485 0 0,0 0.2822478389787372,0.5020874114829647 l -10.913715946509708 6.012104469817527" fill="#ff9e0e" stroke="none" /><path d="M 118.56541770881063 90.18545643968196 l 16.456933837162815 -8.699900888168802 a39.615019387169994,39.615019387169994 0 0,0 0.31350678701556006,0.605595325307945 l -16.60425005733849 8.415332840600513" fill="#ffed16" stroke="none" /><path d="M 118.89224826269711 90.83032412892265 l 9.217228960934282 -4.473739749024883 a31.24556767877168,31.24556767877168 0 0,0 0.2306842498741146,0.48587986205331846 l -9.292871404650151 4.314417471331024" fill="#ff810b" stroke="none" /><path d="M 119.04729006885535 91.15688171328212 l 8.27723795404691 -3.8428875735259007 a30.125812459758006,30.125812459758006 0 0,0 0.21432031338497995,0.47222640130970933 l -8.342160584395238 3.6998391633741283" fill="#ff720a" stroke="none" /><path d="M 119.97218684219823 93.5106431181261 l 11.231101245743002 -3.6492060051278328 a32.80907869649411,32.80907869649411 0 0,0 0.169895590041005,0.5386154485866125 l -11.292252319552214 3.455340390114801" fill="#ff960d" stroke="none" /><path d="M 120.37134235888165 94.90015583598534 l 28.98474737995224 -7.256158782616582 a50.87921386111408,50.87921386111408 0 0,0 0.2053756420922639,0.8514146263026161 l -29.105355822305324 6.75615892465456" fill="#8eff24" stroke="none" /><path d="M 120.53481517161879 95.60439243477599 l 8.161688731792148 -1.747061292475274 a29.34657930617857,29.34657930617857 0 0,0 0.1014842500810033,0.494873244792804 l -8.19055227778815 1.606312391519058" fill="#ff6709" stroke="none" /><path d="M 120.91429891909075 98.10471618934814 l 25.5378434044553 -2.314276053463372 a46.642490507010336,46.642490507010336 0 0,0 0.06557826705541887,0.8002209617354564 l -25.573896155330218 1.8743411745201468" fill="#beff1f" stroke="none" /><line stroke="#e1ed5e" stroke-width="0.3" x1="184.98032266829074" x2="189.97916517819016" y1="98.17113171792111" y2="98.06355123074" /><path d="M 185.9800911702706 98.14961562048488 a86.0,86.0 0 0,1 -9.607161424134198,41.387399972396054" fill="none" id="id40" stroke="none" /><text fill="#e1ed5e" style="font-size:6.75px; font-family:Arial;" text-anchor="middle"><textPath startOffset="21.466115282336823" xlink:href="#id40">April</textPath></text><path d="M 120.99513854157772 99.54816195383933 l 7.369765354766755 -0.1586053062696368 a28.371471835902057,28.371471835902057 0 0,0 0.006305212243718505,0.4883456368636834 l -7.371403574128189 0.03172341134549069" fill="#ff5a08" stroke="none" /><path d="M 120.99824983174949 100.27111621757518 l 62.994749495248485 0.8133486527255557 a84.0,84.0 0 0,0 -0.03111174925997018,1.4456407368395405 l -62.97141568330351 -1.8975792053552112" fill="#4dd2ff" stroke="none" /><path d="M 120.9904718944345 100.63252640178507 l 45.14801583296724 1.3604892803831605 a66.16850965812242,66.16850965812242 0 0,0 -0.04410561941087028,1.1381700580803475 l -45.11790808070516 -2.1374365854775146" fill="#37ff76" stroke="none" /><path d="M 120.8583938346157 102.4346265915055 l 30.327123906926033 3.539832591767002 a51.53301261329744,51.53301261329744 0 0,0 -0.11042418055054874,0.8801893663082633 l -30.261698217128636 -4.06133971236266" fill="#87ff25" stroke="none" /><path d="M 120.5718875245553 104.21870165774334 l 8.083033059846812 1.6575972879721006 a29.251245494812828,29.251245494812828 0 0,0 -0.10539636232725315,0.49237671653720855 l -8.053302658795117 -1.7964878239254782" fill="#ff6609" stroke="none" /><path d="M 120.41448212921028 104.9243191809786 l 27.624931136876995 6.663601722029025 a49.41725546612523,49.41725546612523 0 0,0 -0.20658456707220732,0.8252026545408087 l -27.50613525550973 -7.13813221596723" fill="#9eff22" stroke="none" /><path d="M 119.67450827220406 107.3425965602758 l 3.996533398040742 1.4915204982753998 a25.265783937148104,25.265783937148104 0 0,0 -0.1555719235060829,0.4061492010793764 l -3.9702671949411523 -1.5600932661879199" fill="#ff2e04" stroke="none" /><path d="M 119.41010516605496 108.01547362559984 l 1.9768407160767287 0.8163435739356902 a23.138765075328482,23.138765075328482 0 0,0 -0.1551939217753184,0.3668325875334736 l -1.9624958131091015 -0.8502506871353273" fill="#ff1001" stroke="none" /><path d="M 118.81262510543309 109.33194174019688 l 27.251743610645658 13.518139136248589 a51.42034870818121,51.42034870818121 0 0,0 -0.40015151361642265,0.7895368987491349 l -27.015013427242966 -13.98523024670042" fill="#89ff25" stroke="none" /><line stroke="#e1ed5e" stroke-width="0.3" x1="174.80103733775053" x2="179.2010983576182" y1="140.37084112569926" y2="142.7455964860345" /><path d="M 175.68104954172406 140.8457921977663 a86.0,86.0 0 0,1 -30.038265399797805,32.042727171017184" fill="none" id="id41" stroke="none" /><text fill="#e1ed5e" style="font-size:6.75px; font-family:Arial;" text-anchor="middle"><textPath startOffset="22.206326154141568" xlink:href="#id41">May</textPath></text><path d="M 118.30583269289576 110.29060199501025 l 10.093520836603041 5.674060688762583 a32.57903828384295,32.57903828384295 0 0,0 -0.2790130953630648,0.4864828498493012 l -9.994355745087596 -5.8469633844701985" fill="#ff930d" stroke="none" /><path d="M 118.12598468904814 110.60418214915192 l 2.5977012652659277 1.5197241892522473 a24.009586927630203,24.009586927630203 0 0,0 -0.21176355550395035,0.35492789964157556 l -2.5711568340637503 -1.564214182779927" fill="#ff1c02" stroke="none" /><path d="M 117.55443506779139 111.5257021239791 l 5.887349063866688 3.8654523115081916 a28.042911370474286,28.042911370474286 0 0,0 -0.26840657622417674,0.4012314135726557 l -5.819939382231791 -3.966220639286654" fill="#ff5507" stroke="none" /><path d="M 116.93607887273984 112.41649034213515 l 2.8280678101946832 2.0733652054907368 a24.506680882886123,24.506680882886123 0 0,0 -0.2523473157915666,0.3380604675117809 l -2.7919592277080247 -2.1217385525118324" fill="#ff2403" stroke="none" /><path d="M 116.71984013943494 112.70617746262583 l 6.561754534888161 4.986579829183493 a29.241516909461815,29.241516909461815 0 0,0 -0.3080011521226443,0.3981330080916458 l -6.474946565547448 -5.098790831388392" fill="#ff6609" stroke="none" /><path d="M 116.498646956653 112.99209946851258 l 3.03906906084658 2.3931591259534266 a24.868223281912393,24.868223281912393 0 0,0 -0.26772665919337363,0.33403017219946773 l -2.997424489598352 -2.4451171317311444" fill="#ff2903" stroke="none" /><path d="M 115.80600337817218 113.82643327865902 l 22.408741003402145 19.60223308380185 a50.772457326012784,50.772457326012784 0 0,0 -0.5810814666625984,0.6528511877977632 l -22.068000687091207 -19.985058441340477" fill="#90ff24" stroke="none" /><path d="M 114.81725581225074 114.88116024355365 l 5.534433158678745 5.558302275070522 a28.843766605970433,28.843766605970433 0 0,0 -0.3548470703006637,0.34729254369737994 l -5.437936136002287 -5.652744921690474" fill="#ff6008" stroke="none" /><path d="M 114.29624159901734 115.38237550388516 l 5.220545755726312 5.617168302144238 a28.668551214032934,28.668551214032934 0 0,0 -0.3643642492932226,0.3328381027363918 l -5.123081956966225 -5.706199171467213" fill="#ff5e08" stroke="none" /><path d="M 113.20401910651253 116.32954008644616 l 2.2225241476274546 2.7486174375404118 a24.534757616122832,24.534757616122832 0 0,0 -0.33068472910664154,0.26271594837954604 l -2.174881925803462 -2.786467299925084" fill="#ff2403" stroke="none" /><path d="M 112.92097659922987 116.55440617244103 l 7.79643348742258 9.98882132910193 a33.671263814968334,33.671263814968334 0 0,0 -0.45996753637290383,0.3526834928687927 l -7.623337222556183 -10.121544163798093" fill="#ffa10e" stroke="none" /><path d="M 111.7513745106137 117.40417183066458 l 4.250194249399315 6.294677355694715 a28.59520336593582,28.59520336593582 0 0,0 -0.41030753661107633,0.2719294618796941 l -4.141212014048275 -6.366904838665727" fill="#ff5d08" stroke="none" /><path d="M 111.1453310114006 117.79835938074945 l 3.251053698764522 5.191718580411567 a27.125625843164205,27.125625843164205 0 0,0 -0.3978693797403943,0.2444038692392794 l -3.161205119091819 -5.246910916479224" fill="#ff4906" stroke="none" /><line stroke="#e1ed5e" stroke-width="0.3" x1="143.8653032363475" x2="146.44561519142675" y1="172.8068346515853" y2="177.08958963109032" /><path d="M 144.38136562736335 173.6633856474863 a86.0,86.0 0 0,1 -40.68145358897372,12.25698825130547" fill="none" id="id42" stroke="none" /><text fill="#e1ed5e" style="font-size:6.75px; font-family:Arial;" text-anchor="middle"><textPath startOffset="21.466115282336833" xlink:href="#id42">June</textPath></text><path d="M 110.8373102113329 117.98757091392108 l 3.56282621563603 5.913514327633884 a27.90386720222475,27.90386720222475 0 0,0 -0.4135514283757006,0.2443334733176526 l -3.4605069162319477 -5.973966373245286" fill="#ff5307" stroke="none" /><path d="M 109.89434966115114 118.52300852407294 l 3.3334479056335398 6.240479272027207 a28.074988090744313,28.074988090744313 0 0,0 -0.4282225760440807,0.22402581273743719 l -3.2255344270629633 -6.296934503709361" fill="#ff5607" stroke="none" /><path d="M 109.57404056367764 118.69057910512821 l 0.48826339216962616 0.9531947869645471 a22.070972194797502,22.070972194797502 0 0,0 -0.33962611516148855,0.1702955846644666 l -0.4717833693253771 -0.9614582125383158" fill="#ff0000" stroke="none" /><path d="M 109.2508944713604 118.85261126421891 l 2.0072511374648214 4.090623400952129 a25.556561964603464,25.556561964603464 0 0,0 -0.39659808541577873,0.190391182225534 l -1.9365403840488098 -4.124568859677223" fill="#ff3204" stroke="none" /><path d="M 107.93186726928326 119.44442032107085 l 2.7151067677850698 6.655895190511367 a28.188375723871467,28.188375723871467 0 0,0 -0.45085149077435843,0.17940311269346587 l -2.600134200968845 -6.701645147610901" fill="#ff5708" stroke="none" /><path d="M 106.91757812671514 119.82793768551818 l 2.690784045527178 7.712626789693277 a29.168532963559493,29.168532963559493 0 0,0 -0.4754891275830771,0.1613117283310209 l -2.5576251850068736 -7.757801504922421" fill="#ff6509" stroke="none" /><path d="M 106.2309692047433 120.05430185196036 l 2.4638567123842434 7.92989414752979 a29.303843151829646,29.303843151829646 0 0,0 -0.48299016475838397,0.14552097461296504 l -2.3269915731856137 -7.971130491248481" fill="#ff6709" stroke="none" /><path d="M 105.88484417918355 120.15858648285463 l 1.3500254468151587 4.624524268619382 a25.8175505620697,25.8175505620697 0 0,0 -0.42767243602035554,0.12086450232385088 l -1.2702218426901972 -4.6470775642817514" fill="#ff3605" stroke="none" /><path d="M 105.53697534728816 120.25689768951611 l 0.9116524174559982 3.335259521762344 a24.45760989814637,24.45760989814637 0 0,0 -0.4070556383519179,0.10750709375986668 l -0.854106336292583 -3.350457964825795" fill="#ff2303" stroke="none" /><path d="M 105.18746579009965 120.34920634021253 l 7.115019832473444 27.91054679570717 a49.80316179956378,49.80316179956378 0 0,0 -0.8325350647209168,0.20461686343091118 l -6.633531483009316 -28.02888491745211" fill="#9aff22" stroke="none" /><path d="M 104.48393922423573 120.51570834832081 l 0.8692904827018477 3.9773308961657237 a25.07121935062586,25.07121935062586 0 0,0 -0.42240054660135395,0.08851814146390083 l -0.8006984746711158 -3.9917050183561655" fill="#ff2c04" stroke="none" /><path d="M 104.13013068566511 120.58985236759428 l 1.601995799103742 7.986395469648549 a29.145483603689158,29.145483603689158 0 0,0 -0.4927424080132876,0.0944352552325617 l -1.4642857765187498 -8.01278792322958" fill="#ff6409" stroke="none" /><path d="M 102.70371172650421 120.8252237178851 l 3.9919867037761407 30.74810652704081 a52.00616088523981,52.00616088523981 0 0,0 -0.8887421416233581,0.1076142963948777 l -3.4621171391014025 -30.81226635216104" fill="#82ff25" stroke="none" /><line stroke="#e1ed5e" stroke-width="0.3" x1="102.19456741930631" x2="102.32365962044197" y1="184.97166512339345" y2="189.96999836594603" /><path d="M 102.22038585953345 185.97133177190398 a86.0,86.0 0 0,1 -42.740103519485714,-10.115201625700543" fill="none" id="id43" stroke="none" /><text fill="#e1ed5e" style="font-size:6.75px; font-family:Arial;" text-anchor="middle"><textPath startOffset="22.20632615414155" xlink:href="#id43">July</textPath></text><path d="M 99.45781275523022 120.99299961872073 l -0.17556730624682304 6.797807267975057 a27.800074082799192,27.800074082799192 0 0,0 -0.4782667137167887,-0.016472472646752206 l 0.29255437163825476 -6.793777996902211" fill="#ff5207" stroke="none" /><path d="M 99.09653310690486 120.98055641714683 l -0.3051536951245936 7.086362948540477 a28.09293018548015,28.09293018548015 0 0,0 -0.4829468090564377,-0.024962833613191952 l 0.4270885725945202 -7.080060308165082" fill="#ff5608" stroke="none" /><path d="M 97.65516085044442 120.86867818915974 l -1.2024737836771706 10.701816551986616 a31.76916063176725,31.76916063176725 0 0,0 -0.5429085973055554,-0.06573867038537697 l 1.3865098040341155 -10.67953235287589" fill="#ff880c" stroke="none" /><path d="M 97.2962882734958 120.8252237178851 l -0.44030218252783737 3.391408693733409 a24.419871187613552,24.419871187613552 0 0,0 -0.4163836990088047,-0.05770698658571147 l 0.49861447272347303 -3.3833271416550925" fill="#ff2203" stroke="none" /><path d="M 96.22490169976321 120.6578951692458 l -0.8132017219659856 4.44995986535497 a25.523653373533218,25.523653373533218 0 0,0 -0.4315106448595572,-0.08270004209132252 l 0.8896799813972379 -4.435302624915179" fill="#ff3204" stroke="none" /><path d="M 95.51606077576429 120.51570834832081 l -7.680724135796424 35.14220162088985 a56.971764733099754,56.971764733099754 0 0,0 -0.9562571010451418,-0.21764100289203867 l 8.28450138623443 -35.00478388442013" fill="#4fff2b" stroke="none" /><path d="M 94.46302465271185 120.25689768951611 l -1.2863522324090997 4.706090226201565 a25.878728039455957,25.878728039455957 0 0,0 -0.4286858520963771,-0.12115090382967411 l 1.3671692526100907 -4.683250529033369" fill="#ff3705" stroke="none" /><path d="M 93.08242187328487 119.8279376855182 l -1.798797800102064 5.155915847416308 a26.46069059289122,26.46069059289122 0 0,0 -0.4287645438566611,-0.15373971071521497 l 1.8872819045884517 -5.124188595661135" fill="#ff3f05" stroke="none" /><path d="M 92.7421414339146 119.70592522655815 l -4.74953114648587 12.895526246709487 a34.742366728151765,34.742366728151765 0 0,0 -0.5594013710502499,-0.21151773245863273 l 4.970802738296403 -12.81186026414422" fill="#ffaf10" stroke="none" /><path d="M 91.40352486487194 119.15986991738527 l -3.3888065553841784 7.552990237943165 a29.278385797018615,29.278385797018615 0 0,0 -0.4580422269804403,-0.21026472085417164 l 3.518316778132038 -7.493538446754919" fill="#ff6609" stroke="none" /><path d="M 90.7491055286396 118.85261126421891 l -1.8398148496367537 3.7494011271796976 a25.176473092627354,25.176473092627354 0 0,0 -0.3874132808672693,-0.19425706159463194 l 1.9040820381867833 -3.7171762246757636" fill="#ff2d04" stroke="none" /><path d="M 90.42595943632237 118.69057910512821 l -1.9092356713521714 3.727237221150119 a25.18777723279193,25.18777723279193 0 0,0 -0.38418448537139355,-0.2009871650661894 l 1.9731110592500605 -3.6938206371392126" fill="#ff2d04" stroke="none" /><path d="M 90.10565033884886 118.52300852407294 l -3.2580135636972924 6.099260191790018 a27.914884472526634,27.914884472526634 0 0,0 -0.4218832162334405,-0.23004436728651867 l 3.3625195917993733 -6.042275172743733" fill="#ff5407" stroke="none" /><line stroke="#e1ed5e" stroke-width="0.3" x1="58.666819895761336" x2="56.23545636021788" y1="174.27360380694188" y2="178.64263932499728" /><path d="M 58.180547188652646 175.14741091055294 a86.0,86.0 0 0,1 -31.652253787137756,-30.449443065178592" fill="none" id="id44" stroke="none" /><text fill="#e1ed5e" style="font-size:6.75px; font-family:Arial;" text-anchor="middle"><textPath startOffset="22.20632615414155" xlink:href="#id44">August</textPath></text><path d="M 89.7882731507175 118.34994917583269 l -6.731123436791692 12.095483436287019 a34.84228096372921,34.84228096372921 0 0,0 -0.5215578087726679,-0.2961541356437897 l 6.938330012485567 -11.977826134848597" fill="#ffb010" stroke="none" /><path d="M 89.4739219176387 118.17145234162733 l -18.51668157347173 31.965846548418334 a57.941613961092386,57.941613961092386 0 0,0 -0.8587281842458286,-0.5073517475604802 l 19.064177628745938 -31.642376228564107" fill="#45ff2d" stroke="none" /><path d="M 85.44109423537348 115.13401014063109 l -5.3063759229929905 5.515987830877803 a28.65400203726859,28.65400203726859 0 0,0 -0.3525125138548776,-0.34500768885618294 l 5.400538389223662 -5.423830039099051" fill="#ff5e08" stroke="none" /><path d="M 85.18274418774928 114.88116024355367 l -2.446644713419194 2.4571966969303456 a24.46754754273211,24.46754754273211 0 0,0 -0.2958934800179176,-0.299738533064184 l 2.4885788184926447 -2.414717669885497" fill="#ff2303" stroke="none" /><path d="M 84.9287848128048 114.62390073753433 l -7.764124672044256 7.533685048454741 a31.818412190906614,31.818412190906614 0 0,0 -0.37802311367405295,-0.3963557233707519 l 7.892654337097266 -7.398922208501489" fill="#ff890c" stroke="none" /><path d="M 84.67929136418377 114.36230785411682 l -6.5898898640806225 6.177653345054138 a30.032721033684762,30.032721033684762 0 0,0 -0.3503153759458717,-0.3801981524622082 l 6.695251648022223 -6.063303937790586" fill="#ff710a" stroke="none" /><path d="M 84.43433777217949 114.09645910891817 l -9.99667494478244 9.053114318028193 a34.48674863734503,34.48674863734503 0 0,0 -0.3946945161613384,-0.4434434730351054 l 10.151028310592116 -8.879696675252223" fill="#ffac0f" stroke="none" /><path d="M 83.06392112726016 112.41649034213515 l -24.172688864632146 17.721927258749687 a50.973081134757,50.973081134757 0 0,0 -0.5126926085970657,-0.7120851919785842 l 24.47416126560482 -17.303208461319965" fill="#8dff24" stroke="none" /><path d="M 82.44556493220864 111.52570212397912 l -5.960844296621353 3.9137070207592544 a28.130832165526236,28.130832165526236 0 0,0 -0.26228000605555274,-0.4070643938732558 l 6.027329166053951 -3.81052102696455" fill="#ff5708" stroke="none" /><line stroke="#e1ed5e" stroke-width="0.3" x1="26.63291911575756" x2="22.317208475507996" y1="142.92168965132927" y2="145.44649492493687" /><path d="M 25.769776987707644 143.4266507060508 a86.0,86.0 0 0,1 -11.730757126820373,-40.83630448921669" fill="none" id="id45" stroke="none" /><text fill="#e1ed5e" style="font-size:6.75px; font-family:Arial;" text-anchor="middle"><textPath startOffset="21.46611528233685" xlink:href="#id45">September</textPath></text><path d="M 81.87401531095188 110.60418214915194 l -2.612332028606322 1.5282835741410834 a24.02653751185606,24.02653751185606 0 0,0 -0.20576784813701626,-0.35877358745042826 l 2.638251872895715 -1.4830901408323482" fill="#ff1d02" stroke="none" /><path d="M 81.69416730710424 110.29060199501025 l -5.773165024242961 3.2453778264374695 a27.622832598931836,27.622832598931836 0 0,0 -0.22943207823930417,-0.4164858650563579 l 5.828173511933781 -3.145521442983289" fill="#ff4f07" stroke="none" /><path d="M 81.18737489456691 109.33194174019688 l -6.584687733120011 3.2663130189693117 a28.350300217038047,28.350300217038047 0 0,0 -0.21309536015497532,-0.43903955868002653 l 6.639936349889705 -3.152484504324" fill="#ff5a08" stroke="none" /><path d="M 80.73074385275274 108.34839909993369 l -13.767123045890314 5.96460168294592 a36.00367122396667,36.00367122396667 0 0,0 -0.2414800840652615,-0.5707875866666082 l 13.867754111147882 -5.726739570613153" fill="#ffbf11" stroke="none" /><path d="M 80.45479744820244 107.68017299344265 l -5.601129403484912 2.200931029669276 a27.01803522687798,27.01803522687798 0 0,0 -0.16636126233235268,-0.43431676014597914 l 5.6381849454107735 -2.104190702690139" fill="#ff4706" stroke="none" /><path d="M 80.20201598880116 107.00284435728193 l -7.263641376030977 2.569259071766366 a28.704646534231337,28.704646534231337 0 0,0 -0.16075855366472785,-0.46723960636064193 l 7.306790760638933 -2.443846762316427" fill="#ff5e08" stroke="none" /><path d="M 79.97269907076064 106.31721596034903 l -3.5215093148355745 1.1107904618199582 a24.692544286064003,24.692544286064003 0 0,0 -0.1243719097224904,-0.406454597083637 l 3.5401079970641955 -1.0500088921842734" fill="#ff2603" stroke="none" /><path d="M 79.67330655649465 105.27499134158121 l -29.26033291778703 7.593365011485749 a51.22955961732468,51.22955961732468 0 0,0 -0.2141607480022799,-0.855465731320351 l 29.386704980084367 -7.088571440768006" fill="#8bff24" stroke="none" /><path d="M 79.4281124754447 104.21870165774334 l -7.209324944614185 1.478424916466762 a28.35935502545339,28.35935502545339 0 0,0 -0.09395058237560298,-0.4790519954517143 l 7.233705459965454 -1.3541091939470928" fill="#ff5a08" stroke="none" /><path d="M 79.23777060512086 103.15116336523772 l -14.479468100764096 2.197604532705417 a35.645288053268615,35.645288053268615 0 0,0 -0.08684880904915118,-0.6074203682107193 l 14.515150960829846 -1.9480386925142967" fill="#ffbb11" stroke="none" /><path d="M 79.10278846688536 102.07522291339032 l -6.833544871662893 0.6786134539952217 a27.86715747110648,27.86715747110648 0 0,0 -0.043294155385960244,-0.4777473970402955 l 6.8442136233259285 -0.56088466840636" fill="#ff5307" stroke="none" /><line stroke="#e1ed5e" stroke-width="0.3" x1="15.007084014347285" x2="10.007500721073583" y1="101.09737516637583" y2="101.16192664675087" /><path d="M 14.007167355692545 101.11028546245083 a86.0,86.0 0 0,1 10.666146001902534,-42.60595125391555" fill="none" id="id46" stroke="none" /><text fill="#e1ed5e" style="font-size:6.75px; font-family:Arial;" text-anchor="middle"><textPath startOffset="22.20632615414155" xlink:href="#id46">October</textPath></text><path d="M 79.00175016825051 100.2711162175752 l -3.4807590165105418 0.0449413749435565 a24.48104913182811,24.48104913182811 0 0,0 -0.0018135825947711856,-0.4214127249898097 l 3.4810168963948156 0.014980828249928585" fill="#ff2303" stroke="none" /><path d="M 79.00486145842228 99.54816195383935 l -1.7340042167405105 -0.0373176426425944 a22.734405728232662,22.734405728232662 0 0,0 0.011787578854206206,-0.3911723557220319 l 1.7331049434306594 0.06716014578962073" fill="#ff0a01" stroke="none" /><path d="M 79.08570108090925 98.10471618934814 l -5.651500321616359 -0.5121470773125442 a26.674658625329773,26.674658625329773 0 0,0 0.04537597512105287,-0.45692987703034493 l 5.641847220813077 0.6093524850473193" fill="#ff4206" stroke="none" /><path d="M 79.12142395522702 97.74499172005258 l -32.964884087065656 -3.5604002114143407 a54.1565986274092,54.1565986274092 0 0,0 0.10808018719052576,-0.9259650403904034 l 32.89871354687154 4.127308990129606" fill="#6cff28" stroke="none" /><path d="M 79.16333360222342 97.38593545837743 l -5.208210396882187 -0.6533961749875917 a26.24903630199679,26.24903630199679 0 0,0 0.06010279458457937,-0.44783563073735005 l 5.1961916032397735 0.7429501477896012" fill="#ff3c05" stroke="none" /><path d="M 79.21141760316559 97.0276538004421 l -10.099626502061586 -1.4440420167816865 a31.202338595997276,31.202338595997276 0 0,0 0.08059728474972616,-0.5310354052215196 l 10.073273323872558 1.6176765343952981" fill="#ff800b" stroke="none" /><path d="M 79.3925641242962 95.95851677861259 l -7.056617975440246 -1.3839277879838867 a28.191043969665348,28.191043969665348 0 0,0 0.09748826009373543,-0.47538737846792434 l 7.031750419431516 1.5051908226152135" fill="#ff5708" stroke="none" /><path d="M 80.02781315780177 93.51064311812611 l -16.4243322549144 -5.336589047095109 a38.26956492438061,38.26956492438061 0 0,0 0.2089567562098256,-0.6247541045494353 l 16.330038204932805 5.618516254566867" fill="#ffdc14" stroke="none" /><path d="M 80.14247586403 93.16781622104843 l -6.681920295687805 -2.2989828512282195 a28.066355566214174,28.066355566214174 0 0,0 0.16111012840017008,-0.4554800283104994 l 6.641357086477825 2.41366050596533" fill="#ff5607" stroke="none" /><path d="M 80.52162464483688 92.15188598940014 l -9.474476485417656 -3.817401107253816 a31.214609923359518,31.214609923359518 0 0,0 0.20509234389192554,-0.4966473785130872 l 9.40736245463953 3.979923056220214" fill="#ff810b" stroke="none" /><path d="M 80.95270993114464 91.15688171328213 l -9.056696370316706 -4.204768079872687 a30.98518020616674,30.98518020616674 0 0,0 0.2287618239668048,-0.4818307428127908 l 8.98297635250815 4.360041238326009" fill="#ff7d0b" stroke="none" /><path d="M 81.10775173730289 90.83032412892265 l -27.215231317567227 -13.209378072340524 a51.25155342667088,51.25155342667088 0 0,0 0.3920499465989468,-0.7903487691314551 l 26.98382135801487 13.67588642997094" fill="#8aff24" stroke="none" /><path d="M 81.6062741919709 89.86733742301443 l -2.623389531793081 -1.4451623999990304 a23.995107176361554,23.995107176361554 0 0,0 0.20240713726960047,-0.36005971200731973 l 2.59812475323105 1.4901056219411346" fill="#ff1c02" stroke="none" /><line stroke="#e1ed5e" stroke-width="0.3" x1="26.266209847984243" x2="21.928928074336255" y1="57.711370442889674" y2="55.22380399835377" /><path d="M 25.398753493254645 57.213857153982495 a86.0,86.0 0 0,1 29.58750427330803,-30.492523968695096" fill="none" id="id47" stroke="none" /><text fill="#e1ed5e" style="font-size:6.75px; font-family:Arial;" text-anchor="middle"><textPath startOffset="21.46611528233685" xlink:href="#id47">November</textPath></text><path d="M 81.78341655067845 89.55222093294921 l -12.364775461364085 -7.09158457695503 a35.25406061520919,35.25406061520919 0 0,0 0.3064422714734848,-0.5238091766699566 l 12.240873515420274 7.303373165978878" fill="#ffb610" stroke="none" /><path d="M 82.34701348167596 88.62581576622439 l -6.273047215838382 -4.041854032237308 a28.462419539938146,28.462419539938146 0 0,0 0.26890665726562873,-0.4095632876408757 l 6.202543923214833 4.14923538385585" fill="#ff5b08" stroke="none" /><path d="M 82.54541684631803 88.32363383020206 l -25.415532170916016 -17.00189900927508 a51.57799609935968,51.57799609935968 0 0,0 0.5000008626506082,-0.7336895690738814 l 25.119106842596665 17.436866601619375" fill="#87ff25" stroke="none" /><path d="M 84.07557802195018 86.31012108654704 l -22.077440995220055 -18.979495416541237 a50.114165747345965,50.114165747345965 0 0,0 0.5679799618036608,-0.6492992816057213 l 21.74746916983855 19.356710254349903" fill="#97ff23" stroke="none" /><path d="M 84.5562425177563 85.77008943001954 l -3.3128229221051044 -3.0524419960580875 a25.504686210217542,25.504686210217542 0 0,0 0.30026627971691744,-0.3203031317410965 l 3.259789320417731 3.109014544677234" fill="#ff3204" stroke="none" /><path d="M 84.80347519578584 85.50635884689758 l -6.309170984165293 -6.017353401265773 a29.71861115448774,29.71861115448774 0 0,0 0.3562493552712233,-0.3671462758094093 l 6.204657365190952 6.125063872625306" fill="#ff6c0a" stroke="none" /><path d="M 86.10567301691215 84.25364557470407 l -7.509147063129499 -8.51006970194604 a32.34938658904905,32.34938658904905 0 0,0 0.42070562321153304,-0.364831770746987 l 7.361547641271192 8.638066466112708" fill="#ff900d" stroke="none" /><path d="M 86.65592168130627 83.78471172551755 l -5.48481523766207 -6.664968391737577 a29.63162799558409,29.63162799558409 0 0,0 0.3966357106933186,-0.3207184938825545 l 5.36927612840425 6.758392982884266" fill="#ff6b09" stroke="none" /><path d="M 86.93701828274178 83.55741782278169 l -5.096650030197575 -6.4152341910829005 a29.193355311272178,29.193355311272178 0 0,0 0.3961502794941068,-0.3092015767767606 l 4.985467195544042 6.5020141570828835" fill="#ff6509" stroke="none" /><path d="M 87.22198572758235 83.33499621200491 l -2.564147740308261 -3.344144942571835 a25.21404307418146,25.21404307418146 0 0,0 0.34669771033197744,-0.26112552762472746 l 2.5062038762178935 3.3877870597024167" fill="#ff2e04" stroke="none" /><path d="M 87.51073957382395 83.11751280151077 l -3.434992501388884 -4.643286708159394 a26.77574972958209,26.77574972958209 0 0,0 0.3728901626931069,-0.270920561471381 l 3.3545570223419956 4.701726504447443" fill="#ff4406" stroke="none" /><path d="M 87.80319425747018 82.90503203632743 l -17.013193647741765 -23.845587648719732 a50.292674995778995,50.292674995778995 0 0,0 0.7090521415852205,-0.4967363377176873 l 16.600210366572885 24.134908829201365" fill="#95ff23" stroke="none" /><path d="M 88.70189139769569 82.29822771554957 l -0.566687628780748 -0.8878809466432301 a22.053312605082283,22.053312605082283 0 0,0 0.32174821947357257,-0.20147870551711367 l 0.5513202569349331 0.897503993483274" fill="#ff0000" stroke="none" /><line stroke="#e1ed5e" stroke-width="0.3" x1="56.762969772571076" x2="54.21961505331055" y1="26.818313649435495" y2="22.513508569990535" /><path d="M 56.25429882871897 25.957352633546506 a86.0,86.0 0 0,1 42.265352541879196,-11.944610805530505" fill="none" id="id48" stroke="none" /><text fill="#e1ed5e" style="font-size:6.75px; font-family:Arial;" text-anchor="middle"><textPath startOffset="22.20632615414155" xlink:href="#id48">December</textPath></text><path d="M 89.63071344664047 81.73862282372117 l -7.341659214890482 -12.929414895895755 a35.86841382185058,35.86841382185058 0 0,0 0.5395222804532326,-0.3002435649438469 l 7.118012845365204 13.053873858399788" fill="#ffbe11" stroke="none" /><path d="M 89.94658935756843 81.56283822128135 l -3.492927101176087 -6.405752668039652 a28.29617755939557,28.29617755939557 0 0,0 0.4296369704346612,-0.2294971903356606 l 3.3821450842131204 6.464928584877062" fill="#ff5908" stroke="none" /><path d="M 90.91171255644093 81.06846463323043 l -2.2177618698458446 -4.619752349912207 a26.12450773107637,26.12450773107637 0 0,0 0.40707181660381037,-0.19112567613262735 l 2.1379118419424255 4.6572430086848415" fill="#ff3a05" stroke="none" /><path d="M 92.23578459929587 80.48803036053334 l -11.550819688382695 -29.02794827797246 a52.24169036243355,52.24169036243355 0 0,0 0.8383966257625841,-0.3252848655228023 l 11.049439897620434 29.222475847385812" fill="#80ff26" stroke="none" /><path d="M 93.25333710446033 80.11325718540243 l -2.4285953296092986 -7.158628120074416 a28.559367158467715,28.559367158467715 0 0,0 0.46690101578037896,-0.15392992410381462 l 2.30501149158651 7.199371768437465" fill="#ff5c08" stroke="none" /><path d="M 93.59665428221793 80.00007090966166 l -1.9794601908867 -6.182559118265761 a27.491710090427354,27.491710090427354 0 0,0 0.4519304977338846,-0.14041700553085515 l 1.8727443204420866 6.215716258679142" fill="#ff4e07" stroke="none" /><path d="M 94.63758080256005 79.69619591428918 l -9.0392360882979 -34.225388180936385 a56.39894045301027,56.39894045301027 0 0,0 0.9407641680130243,-0.23982173341450072 l 8.448763031599876 34.375912910519745" fill="#54ff2b" stroke="none" /><path d="M 95.692805502759 79.44645832069477 l -1.6174423944299534 -7.718288479678827 a28.885942997184433,28.885942997184433 0 0,0 0.48753088059141453,-0.09779410819423874 l 1.4843451043714024 7.744986543950277" fill="#ff6108" stroke="none" /><path d="M 97.11714578562143 79.19881850522333 l -4.256637783010822 -30.713691535393295 a52.00725419876847,52.00725419876847 0 0,0 0.8878016495717319,-0.11526213419236557 l 3.727321404931232 30.782411992749797" fill="#82ff25" stroke="none" /><path d="M 99.63851952072746 79.00311137660856 l -0.2559347193621135 -14.866177028756235 a35.86837993968726,35.86837993968726 0 0,0 0.6174151986346456,-0.0053142875395831 l 3.6417027803289434e-15 14.868379939687259" fill="#ffbe11" stroke="none" /></svg>