<?xml version="1.0" encoding="utf-8" ?>
<svg baseProfile="full" height="200mm" version="1.1" viewBox="0,0,200,200" width="200mm" xmlns="http://www.w3.org/2000/svg" xmlns:ev="http://www.w3.org/2001/xml-events" xmlns:xlink="http://www.w3.org/1999/xlink"><defs /><rect fill="#1a1a1a" height="200" width="200" x="0" y="0" /><text alignment-baseline="middle" fill="#e1ed5e" style="dominant-baseline: central; font-size:9.0px; font-family:Arial;" text-anchor="middle" x="100.0" y="100.0">2016</text><line stroke="#e1ed5e" stroke-width="0.3" x1="100.0" x2="100.0" y1="15.0" y2="10.0" /><path d="M 100.0 14.0 a86.0,86.0 0 0,1 42.35913384403234,11.155469271406648" fill="none" id="id13" stroke="none" /><text fill="#e1ed5e" style="font-size:6.75px; font-family:Arial;" text-anchor="middle"><textPath startOffset="22.145653131862478" xlink:href="#id13">January</textPath></text><path d="M 100.36049292484886 79.00309439819443 l 0.19015650599137426 -11.075663156340983 a32.0772954212434,32.0772954212434 0 0,0 0.5504871519255091,0.014178596321242158 l -0.3802569719876247 11.070766842669697" fill="#ff8d0d" stroke="none" /><path d="M 102.87502721639298 79.19773525538626 l 0.8587660587336361 -6.213603407162942 a27.272666613581485,27.272666613581485 0 0,0 0.46321311829505113,0.06807637676958785 l -0.9653042826363692 6.197945957094471" fill="#ff4c07" stroke="none" /><path d="M 104.9986988182912 79.60360301121754 l 1.230224940475176 -5.0197375724290385 a26.1682897268074,26.1682897268074 0 0,0 0.4353839007567045,0.11067288501685457 l -1.3162141344572749 4.997879455576916" fill="#ff3d05" stroke="none" /><path d="M 105.3480935250658 79.69241777938227 l 2.7913576173017827 -10.59923953364411 a31.96063666213021,31.96063666213021 0 0,0 0.5293573270979727,0.1442786934480267 l -2.972896345334448 10.54976034605194" fill="#ff8c0c" stroke="none" /><path d="M 105.69591212413111 79.78721728523813 l 0.9201998569104329 -3.2654646624701695 a24.392643105087743,24.392643105087743 0 0,0 0.402060437255953,0.11703393359361178 l -0.9761203065479903 3.249187034574042" fill="#ff2303" stroke="none" /><path d="M 110.34350942703115 81.72400993836675 l 5.549199215227219 -9.804903299307476 a32.26630998326644,32.26630998326644 0 0,0 0.47970404814890655,0.27695726133012444 l -5.7166957312365225 9.708199140701181" fill="#ff900d" stroke="none" /><line stroke="#e1ed5e" stroke-width="0.3" x1="143.13028292997686" x2="145.6673583964461" y1="26.7553504044142" y2="22.446841604673864" /><path d="M 143.63769802327073 25.89364864446614 a86.0,86.0 0 0,1 29.32050498858742,28.57503671076993" fill="none" id="id14" stroke="none" /><text fill="#e1ed5e" style="font-size:6.75px; font-family:Arial;" text-anchor="middle"><textPath startOffset="20.669276256404974" xlink:href="#id14">February</textPath></text><path d="M 110.96478420261332 82.08984904055464 l 3.819039707932304 -6.2381143509309975 a28.31431028505456,28.31431028505456 0 0,0 0.412358654940384,0.257342298597056 l -3.9255624916624003 6.1716362554923965" fill="#ff5a08" stroke="none" /><path d="M 111.5731344415666 82.4767994020092 l 25.023469770330284 -37.88872259777357 a66.40626982518683,66.40626982518683 0 0,0 0.9458267523021665,0.636394449855703 l -25.67019281072945 37.45357847386075" fill="#37ff79" stroke="none" /><path d="M 111.8722381534696 82.67804972795209 l 24.994966883051813 -36.46840366600776 a65.21190829891586,65.21190829891586 0 0,0 0.9179504860517189,0.6408007308915223 l -25.617312460277294 36.03395811931111" fill="#36ff6c" stroke="none" /><path d="M 112.16784306229584 82.88440491214696 l 18.813790022213325 -26.46395178171668 a53.46997750083851,53.46997750083851 0 0,0 0.7435356573867397,0.5382624761131577 l -19.265306689974036 26.137088534230447" fill="#72ff27" stroke="none" /><path d="M 112.45986205192187 83.09580414077388 l 26.893481343797678 -36.48617248550338 a66.32659397562426,66.32659397562426 0 0,0 0.910717863266687,0.6834196629862052 l -27.515852195975132 36.01913379525316" fill="#37ff78" stroke="none" /><path d="M 112.7482090630111 83.31218511350987 l 30.322483399185934 -39.69310413432808 a70.94993008315947,70.94993008315947 0 0,0 0.961506882404438,0.7476735673800765 l -30.9994002262256 39.16672951532721" fill="#3dffab" stroke="none" /><path d="M 113.03279911837588 83.53348406188908 l 30.2469573491798 -38.21604252054933 a69.73750439667111,69.73750439667111 0 0,0 0.9323214588910532,0.7510121717093746 l -30.898529578426114 37.691182055046546" fill="#3bff9e" stroke="none" /><path d="M 114.13192950727249 84.46653392183569 l 10.255011388856957 -11.272053929933788 a36.23891263787944,36.23891263787944 0 0,0 0.45655892399700043,0.42258412402266093 l -10.447000084167922 11.094352059778753" fill="#ffc412" stroke="none" /><path d="M 114.91283532996326 85.21462403516908 l 10.664138879567028 -10.57299294110544 a36.01705822640901,36.01705822640901 0 0,0 0.4315412968325829,0.4427993872635079 l -10.844066977550424 10.38837086177419" fill="#ffc111" stroke="none" /><path d="M 115.16444852881244 85.47280134310134 l 45.49334558643732 -43.581595970695986 a84.0,84.0 0 0,0 0.9885766650549601,1.0498341602220207 l -46.23477808522854 42.794220350529464" fill="#4dd2ff" stroke="none" /><path d="M 115.41159269507618 85.73525988315684 l 43.07932695076455 -39.873581888619725 a79.70034874819171,79.70034874819171 0 0,0 0.9207375166674047,1.0120518202900897 l -43.75746216827383 39.128192492771966" fill="#48faff" stroke="none" /><path d="M 115.6541949942343 86.00192230759917 l 6.7077388754482925 -5.998101464396336 a29.998387744390314,29.998387744390314 0 0,0 0.33996592296405326,0.38681881364937776 l -6.809715862370936 5.882070372935661" fill="#ff710a" stroke="none" /><path d="M 115.8921839302757 86.27271002978787 l 14.625828385919291 -12.63344221215482 a40.32663235284973,40.32663235284973 0 0,0 0.4480201220652294,0.5277665772622706 l -14.840543071491632 12.380508852442999" fill="#fff717" stroke="none" /><path d="M 116.1254893667686 86.54754324733833 l 6.923942779879314 -5.7761993255337565 a30.01695415688355,30.01695415688355 0 0,0 0.3266890642535255,0.39850753949047635 l -7.022078663371468 5.656489504344785" fill="#ff720a" stroke="none" /><path d="M 116.7966241395341 87.39550010848427 l 5.174260222533598 -3.882861334028036 a27.46912521055076,27.46912521055076 0 0,0 0.279790019349325,0.3795888964764341 l -5.240152261466749 3.793466128282727" fill="#ff4f07" stroke="none" /><path d="M 117.01052211995028 87.68569379921539 l 7.5938473415569 -5.497359854479245 a30.374832415382734,30.374832415382734 0 0,0 0.30213542267886573,0.4249913094534195 l -7.687097862765727 5.3661913183163215" fill="#ff770a" stroke="none" /><path d="M 117.21940702142032 87.97951657250589 l 3.7412817145237125 -2.6117051993181577 a25.56269579476596,25.56269579476596 0 0,0 0.24809236941147786,0.36197418130163483 l -3.7855638207505153 2.547096282946474" fill="#ff3404" stroke="none" /><path d="M 117.62189284568427 88.57770195909679 l 5.818666739884241 -3.771589481655806 a27.934101949637878,27.934101949637878 0 0,0 0.2573692632177936,0.40462722967674725 l -5.882553694727925 3.6711485773003867" fill="#ff5507" stroke="none" /><line stroke="#e1ed5e" stroke-width="0.3" x1="172.87174338648825" x2="177.1583165268699" y1="56.24261187166439" y2="53.66864786411523" /><path d="M 173.72905801456457 55.72781907015455 a86.0,86.0 0 0,1 12.242430191666344,42.057860355516425" fill="none" id="id15" stroke="none" /><text fill="#e1ed5e" style="font-size:6.75px; font-family:Arial;" text-anchor="middle"><textPath startOffset="22.145653131862474" xlink:href="#id15">March</textPath></text><path d="M 119.31412917781788 91.75594674310238 l 17.25843076133286 -7.366597842284022 a39.7648660030831,39.7648660030831 0 0,0 0.26258853381416475,0.6301168891547527 l -17.38234513968351 7.069248443687991" fill="#fff016" stroke="none" /><path d="M 119.71291397450082 92.76114493625339 l 8.567937266061094 -3.1462652423947466 a30.12735087364673,30.12735087364673 0 0,0 0.1741071513834393,0.48700868944999576 l -8.620684587488476 2.998721596563834" fill="#ff730a" stroke="none" /><path d="M 119.83427380445688 93.10060997987247 l 4.158386361498748 -1.4465026370621135 a25.40278854937714,25.40278854937714 0 0,0 0.13973297191274545,0.4130957025380587 l -4.182604754983859 1.374905260049893" fill="#ff3204" stroke="none" /><path d="M 120.05942366710727 93.78553927170692 l 8.578816997997082 -2.6577394352902712 a29.981073432002475,29.981073432002475 0 0,0 0.14808320317184642,0.4929208219074127 l -8.623176521172555 2.510081009792135" fill="#ff710a" stroke="none" /><path d="M 120.16314734710363 94.1308016681162 l 4.624046100317205 -1.3459924282323916 a25.815962827381217,25.815962827381217 0 0,0 0.12020589399085103,0.4265683113293165 l -4.646470486382638 1.266416193000062" fill="#ff3805" stroke="none" /><path d="M 120.51834098615036 95.52812308129327 l 18.60607654268384 -4.0551077835718 a40.04284599130588,40.04284599130588 0 0,0 0.1406119585002963,0.6728791235259065 l -18.672946212008505 3.735112208760489" fill="#fff316" stroke="none" /><path d="M 120.9064616781168 98.02013634271609 l 9.738851067094531 -0.9222793214991305 a30.782423996838062,30.782423996838062 0 0,0 0.04530348620592357,0.5264951814486944 l -9.753248175998195 0.754963092674774" fill="#ff7c0b" stroke="none" /><path d="M 120.99303781780057 99.45929381324524 l 9.412688217145403 -0.2424374593699175 a30.41580986399437,30.41580986399437 0 0,0 0.008963348563109413,0.5220701175607267 l -9.415462997307179 0.08082042584012435" fill="#ff770b" stroke="none" /><line stroke="#e1ed5e" stroke-width="0.3" x1="184.99686870605535" x2="189.99668451229388" y1="99.2704041080226" y2="99.22748670261217" /><path d="M 185.99683186730306 99.26182062694052 a86.0,86.0 0 0,1 -10.086455211305974,41.156179273409016" fill="none" id="id16" stroke="none" /><text fill="#e1ed5e" style="font-size:6.75px; font-family:Arial;" text-anchor="middle"><textPath startOffset="21.40746469413373" xlink:href="#id16">April</textPath></text><path d="M 120.99303781780057 100.54070618675476 l 5.4206864062562286 0.13961765332670745 a26.4224841359004,26.4224841359004 0 0,0 -0.015570786262030654,0.4533264528009086 l -5.417490932997352 -0.23265037069172678" fill="#ff4006" stroke="none" /><path d="M 120.82617615685814 102.69636545807757 l 2.8396828311555757 0.3676537949239618 a23.863383993543607,23.863383993543607 0 0,0 -0.056085183506190635,0.40580444904787466 l -2.832953131094175 -0.4163465521719215" fill="#ff1c02" stroke="none" /><path d="M 120.77682067341334 103.0534771498775 l 11.868795045391058 1.7443041472681118 a32.996286624938406,32.996286624938406 0 0,0 -0.08717070223474398,0.5596984403895366 l -11.837102851018047 -1.947790769589099" fill="#ff9a0e" stroke="none" /><path d="M 120.65975698304385 103.76489593502545 l 19.028472607957173 3.467621580943019 a40.34185020158098,40.34185020158098 0 0,0 -0.13000393234946223,0.6802355084852423 l -18.966142383325554 -3.7937596544615757" fill="#fff717" stroke="none" /><path d="M 120.26092885502905 105.52220625578681 l 18.9633159152919 5.168536078833007 a40.6550531849029,40.6550531849029 0 0,0 -0.18930059072418884,0.6717610146887173 l -18.871796832493132 -5.493305017424733" fill="#fffb17" stroke="none" /><path d="M 119.4528033332814 107.91128576633889 l 5.475185298911351 2.226710196017726 a26.91065921488156,26.91065921488156 0 0,0 -0.17770537807572112,0.4264282160103376 l -5.436154076299145 -2.3203709214693413" fill="#ff4706" stroke="none" /><path d="M 119.0197475246899 108.90220220490707 l 7.1279840684335465 3.3362564570418067 a28.870118425220525,28.870118425220525 0 0,0 -0.21394234533895407,0.4470572178943627 l -7.06966246513468 -3.4581261770012732" fill="#ff6209" stroke="none" /><path d="M 118.8641267826498 109.22738970284198 l 5.118253408413269 2.5035942210039765 a26.697762892239247,26.697762892239247 0 0,0 -0.20491179714398639,0.4099608592590865 l -5.07452169805755 -2.5910869364268088" fill="#ff4406" stroke="none" /><path d="M 118.70294669586154 109.54985784667822 l 5.121803858718064 2.6152295445588 a26.75085214015388,26.75085214015388 0 0,0 -0.2123405333241839,0.40719097079791133 l -5.0761552564189305 -2.7027667584612143" fill="#ff4506" stroke="none" /><path d="M 118.5362547648365 109.86951160357373 l 6.6127624517991785 3.5209235402567196 a28.491697392464474,28.491697392464474 0 0,0 -0.23357039064120383,0.4297432111984462 l -6.551346711542636 -3.633921584929769" fill="#ff5d08" stroke="none" /><line stroke="#e1ed5e" stroke-width="0.3" x1="174.33088141563837" x2="178.70328620479359" y1="141.23008692659167" y2="143.65538615756765" /><path d="M 175.20536237346943 141.71514677278685 a86.0,86.0 0 0,1 -30.301960400862466,31.631185727798858" fill="none" id="id17" stroke="none" /><text fill="#e1ed5e" style="font-size:6.75px; font-family:Arial;" text-anchor="middle"><textPath startOffset="22.145653131862474" xlink:href="#id17">May</textPath></text><path d="M 118.18653347947321 110.5 l 4.839712003665164 2.794209028116344 a26.58841805623269,26.58841805623269 0 0,0 -0.2316057461212096,0.39331719076625615 l -4.791032547414189 -2.8768773871761497" fill="#ff4206" stroke="none" /><path d="M 117.81537515405839 111.11811171558189 l 1.6800182175921476 1.048455621387643 a22.98033340664163,22.98033340664163 0 0,0 -0.2117279978439857,0.3328715796964416 l -1.661772528122272 -1.0771408757627567" fill="#ff0f01" stroke="none" /><path d="M 117.62189284568427 111.42229804090321 l 4.739548109328942 3.072117822871278 a26.648116871865074,26.648116871865074 0 0,0 -0.25211093196304013,0.38172808378235107 l -4.686112738445176 -3.1530257849926904" fill="#ff4306" stroke="none" /><path d="M 117.423217284605 111.72311816256416 l 4.684007036365198 3.1516089746587834 a26.64557889377772,26.64557889377772 0 0,0 -0.25860202128804677,0.37730807747429784 l -4.629215278261831 -3.2315517872031254" fill="#ff4306" stroke="none" /><path d="M 117.01052211995028 112.31430620078461 l 16.72263246477484 12.105896291854721 a41.644591581842526,41.644591581842526 0 0,0 -0.42417590641011577,0.5754760823869107 l -16.512354538780897 -12.391178683510509" fill="#f7ff18" stroke="none" /><path d="M 116.79662413953412 112.60449989151573 l 5.92513006809301 4.4463280645015635 a28.40790115896494,28.40790115896494 0 0,0 -0.2960482379120877,0.3875366467030333 l -5.847929852826618 -4.547385624445474" fill="#ff5c08" stroke="none" /><path d="M 116.57777611688842 112.89097897827486 l 2.624896551898305 2.0411354353009785 a24.32510387407806,24.32510387407806 0 0,0 -0.25915915784582194,0.3274391298764548 l -2.589470963410921 -2.085894509092116" fill="#ff2203" stroke="none" /><path d="M 116.1254893667686 113.45245675266167 l 8.407995577205025 7.014248951229632 a31.949615425946487,31.949615425946487 0 0,0 -0.35495328441572727,0.4181340765243881 l -8.286347729282184 -7.1575498102035775" fill="#ff8c0c" stroke="none" /><path d="M 115.89218393027572 113.72728997021213 l 2.5116888853614276 2.169537037551579 a24.318956464637072,24.318956464637072 0 0,0 -0.2756020273645931,0.31358451557454287 l -2.474075794038249 -2.212333830937415" fill="#ff2203" stroke="none" /><path d="M 115.41159269507618 114.26474011684316 l 21.357901830695443 19.768555079531524 a50.10250402529128,50.10250402529128 0 0,0 -0.5896448373836329,0.6261823837906145 l -21.01540115957555 -20.132278923266632" fill="#96ff23" stroke="none" /><path d="M 114.91283532996324 114.78537596483092 l 8.63152294149165 8.557749684434544 a33.15476317954966,33.15476317954966 0 0,0 -0.40418510762582144,0.400730554814497 l -8.483345913735862 -8.704660249477703" fill="#ff9c0e" stroke="none" /><path d="M 114.65682725009322 115.03919595460226 l 6.306825426660366 6.471358488748649 a30.036289484753624,30.036289484753624 0 0,0 -0.3723463131140846,0.3566993451489338 l -6.194806627680969 -6.578669964203163" fill="#ff720a" stroke="none" /><path d="M 114.13192950727249 115.5334660781643 l 2.176057601429882 2.391868493155715 a24.233614320430277,24.233614320430277 0 0,0 -0.31011522354159216,0.2773069451562554 l -2.134677351064912 -2.4288709681953575" fill="#ff2103" stroke="none" /><path d="M 113.86319453409587 115.77377054828091 l 4.007107286172477 4.559352517125412 a27.06997563243168,27.06997563243168 0 0,0 -0.3516783254688969,0.303771361515221 l -3.9282494809407247 -4.627468011105352" fill="#ff4906" stroke="none" /><path d="M 113.59037401385872 116.0094264158162 l 12.164905636065425 14.33022825106494 a39.797350102128654,39.797350102128654 0 0,0 -0.5246156162197114,0.4376530056514429 l -11.91711568568382 -14.536943440628253" fill="#fff016" stroke="none" /><path d="M 111.8722381534696 117.32195027204791 l 4.582425357935688 6.685895544669139 a29.105542634227437,29.105542634227437 0 0,0 -0.41455123042135,0.2789285686610775 l -4.466977839417335 -6.763573787387338" fill="#ff6509" stroke="none" /><path d="M 111.5731344415666 117.5232005979908 l 2.276314668031939 3.446630535009407 a25.130480663646374,25.130480663646374 0 0,0 -0.36201578424002034,0.2346542575937608 l -2.216813251534909 -3.4851986343070624" fill="#ff2e04" stroke="none" /><path d="M 111.27062007382361 117.71928675628689 l 3.859374736917616 6.06757811153974 a28.19098585032637,28.19098585032637 0 0,0 -0.41056260561006597,0.25622143097970224 l -3.7546480025178353 -6.13293533936099" fill="#ff5908" stroke="none" /><line stroke="#e1ed5e" stroke-width="0.3" x1="143.1302829299769" x2="145.66735839644613" y1="173.24464959558577" y2="177.55315839532614" /><path d="M 143.63769802327073 174.10635135553383 a86.0,86.0 0 0,1 -40.68552437913181,11.842963189579606" fill="none" id="id18" stroke="none" /><text fill="#e1ed5e" style="font-size:6.75px; font-family:Arial;" text-anchor="middle"><textPath startOffset="21.407464694133747" xlink:href="#id18">June</textPath></text><path d="M 110.65571695917076 118.09573695890943 l 4.049837815802528 6.877509990346996 a28.98131129587281,28.98131129587281 0 0,0 -0.4308658894216193,0.24876053724220037 l -3.9311794585205098 -6.946017424865368" fill="#ff6409" stroke="none" /><path d="M 110.34350942703117 118.27599006163325 l 3.0098544787933816 5.318124465342015 a27.110783240500506,27.110783240500506 0 0,0 -0.40699199905753025,0.22575160121858628 l -2.918118291579757 -5.369008981993745" fill="#ff4a06" stroke="none" /><path d="M 110.02825361518725 118.45085714620011 l 3.5859451913098965 6.597735258585867 a28.509268503487252,28.509268503487252 0 0,0 -0.4319984805501802,0.23001485848178835 l -3.472157894973163 -6.658320584790223" fill="#ff5d08" stroke="none" /><path d="M 109.71004243097381 118.62028667847754 l 1.67236932929353 3.2069886990818994 a24.61684886186867,24.61684886186867 0 0,0 -0.3763714312731911,0.19217793456071236 l -1.6170706763067566 -3.235224585315448" fill="#ff2703" stroke="none" /><path d="M 109.06512990194946 118.94263497670748 l 3.664877074892275 7.65818354674195 a29.489941060434994,29.489941060434994 0 0,0 -0.4585142182617194,0.21460780588659673 l -3.5328741427590495 -7.71996758419908" fill="#ff6b09" stroke="none" /><path d="M 108.07796709384702 119.3841803445677 l 2.5090696663078718 6.020853804398663 a27.52273800825452,27.52273800825452 0 0,0 -0.437671217794328,0.17799707406430756 l -2.4053439873231026 -6.063038135042262" fill="#ff4f07" stroke="none" /><path d="M 106.38641147887787 120.00534299687104 l 1.3750283245164114 4.307256642222647 a25.521411579937567,25.521411579937567 0 0,0 -0.4185017685661952,0.12965291768279807 l -1.300885923078592 -4.33022614771209" fill="#ff3304" stroke="none" /><path d="M 105.69591212413111 120.21278271476187 l 4.193508544622322 14.88128243163135 a36.46085640331092,36.46085640331092 0 0,0 -0.6038935235676598,0.16459386524358424 l -3.9374336201199673 -14.951076791019076" fill="#ffc612" stroke="none" /><path d="M 104.64783097203109 120.47920084513623 l 4.183259398133903 18.43221277133721 a39.900955712342224,39.900955712342224 0 0,0 -0.6692674387953481,0.14586372329083702 l -3.8662295427194193 -18.501307952761763" fill="#fff116" stroke="none" /><path d="M 102.15924093988457 120.88869738790638 l 1.9284484005061693 18.65598892753441 a39.75539485315362,39.75539485315362 0 0,0 -0.6794394557427595,0.06434362286937842 l -1.6079093813783945 -18.68634430590897" fill="#fff016" stroke="none" /><path d="M 101.44090949804482 120.95050786540614 l 0.2157685719341624 3.1372276812304833 a24.144638866469933,24.144638866469933 0 0,0 -0.4137421267533905,0.024889698933150035 l -0.16188209304830678 -3.140469357988325" fill="#ff2003" stroke="none" /><path d="M 101.08105385017728 120.97215588758144 l 0.5730946872011756 11.117883828226304 a32.1326447144618,32.1326447144618 0 0,0 -0.551111946186431,0.02366711825800112 l -0.382156980413915 -11.126083514910137" fill="#ff8e0d" stroke="none" /><path d="M 100.72087961077811 120.9876233191556 l 0.297246030694664 8.65399385980692 a29.659097235182177,29.659097235182177 0 0,0 -0.508987798106708,0.013109720175212228 l -0.14864491851721212 -8.657821297332177" fill="#ff6d0a" stroke="none" /><line stroke="#e1ed5e" stroke-width="0.3" x1="101.45913802915013" x2="101.54496967792366" y1="184.9874750549273" y2="189.98673829345242" /><path d="M 101.47630435890484 185.9873277026323 a86.0,86.0 0 0,1 -42.54439059252881,-10.42667462771756" fill="none" id="id19" stroke="none" /><text fill="#e1ed5e" style="font-size:6.75px; font-family:Arial;" text-anchor="middle"><textPath startOffset="22.145653131862474" xlink:href="#id19">July</textPath></text><path d="M 100.36049292484886 120.99690560180557 l 0.10963167663241496 6.385495543868516 a27.38643659995822,27.38643659995822 0 0,0 -0.4701246014812664,0.004035454284138899 l -7.821129140096339e-16 -6.38643659995822" fill="#ff4e07" stroke="none" /><path d="M 99.27912038922189 120.98762331915562 l -0.3765730375105464 10.963513109894775 a31.96997843951457,31.96997843951457 0 0,0 -0.5483220318123688,-0.023547307330520326 l 0.5647208299237539 -10.955433234138427" fill="#ff8c0c" stroke="none" /><path d="M 98.91894614982273 120.97215588758144 l -0.5498423559129114 10.666794813144364 a31.680956801807568,31.680956801807568 0 0,0 -0.542884344522783,-0.03265857406573872 l 0.7328710525681408 -10.655784261253933" fill="#ff880c" stroke="none" /><path d="M 98.19965949673042 120.92268563240118 l -0.08086502291322015 0.9397741427233087 a21.94324683474798,21.94324683474798 0 0,0 -0.37502099379721104,-0.03551487802045325 l 0.09698558009544647 -0.9382475091976717" fill="#ff0000" stroke="none" /><path d="M 97.84075906011543 120.88869738790638 l -0.6464500239720673 6.2538175697424565 a27.28714019480343,27.28714019480343 0 0,0 -0.4655239371325639,-0.05216292814571671 l 0.7537098627054305 -6.241798881089768" fill="#ff4c07" stroke="none" /><path d="M 97.48249496171623 120.84855314841334 l -2.6800384312820897 22.19456280113979 a43.35578725804321,43.35578725804321 0 0,0 -0.738126452101665,-0.09556524703095168 l 3.0606427052745486 -22.145285957908442" fill="#e3ff1b" stroke="none" /><path d="M 92.93061703081489 119.77432235084164 l -9.623295610095736 26.918070544621763 a49.58654124311862,49.58654124311862 0 0,0 -0.7990773089819903,-0.2934322562322125 l 10.083962070731845 -26.748907439380833" fill="#9cff22" stroke="none" /><path d="M 92.25597844496254 119.51999308798841 l -0.6775251394446851 1.7078059435792283 a22.837291880868165,22.837291880868165 0 0,0 -0.36316246390989,-0.14769501250667533 l 0.7067420645450159 -1.6959236744932615" fill="#ff0d01" stroke="none" /><path d="M 91.59046798132341 119.24265499422711 l -7.8801889440854245 18.031414447747302 a40.678142310211,40.678142310211 0 0,0 -0.6374586395724549,-0.2851271413341994 l 8.188560986513515 -17.89348355550325" fill="#fffb17" stroke="none" /><path d="M 90.93487009805054 118.94263497670748 l -4.699538486709601 9.820227958739352 a31.886805736747156,31.886805736747156 0 0,0 -0.49172453436271496,-0.24052711038745392 l 4.867423270334385 -9.738107098254677" fill="#ff8b0c" stroke="none" /><path d="M 90.6110303473126 118.78422872680471 l -4.48736176593442 8.977729496346143 a31.036734654654055,31.036734654654055 0 0,0 -0.4745262202146722,-0.242296469174793 l 4.6408152078626745 -8.899375075498513" fill="#ff7f0b" stroke="none" /><path d="M 90.28995756902619 118.62028667847754 l -3.3106061381230334 6.348523789632505 a28.159879001024233,28.159879001024233 0 0,0 -0.4267042116296691,-0.22719595848249857 l 3.419099165539264 -6.290757363427434" fill="#ff5808" stroke="none" /><path d="M 89.97174638481275 118.45085714620012 l -3.5001164449896867 6.439820032449852 a28.32953594566734,28.32953594566734 0 0,0 -0.4252881358910586,-0.23590015990241306 l 3.610148769036848 -6.37878695711429" fill="#ff5b08" stroke="none" /><line stroke="#e1ed5e" stroke-width="0.3" x1="58.13341422392154" x2="55.67067388415222" y1="173.97424548756322" y2="178.32567169271397" /><path d="M 57.64086615596768 174.84453072859336 a86.0,86.0 0 0,1 -31.369924170532247,-30.572349798747897" fill="none" id="id20" stroke="none" /><text fill="#e1ed5e" style="font-size:6.75px; font-family:Arial;" text-anchor="middle"><textPath startOffset="22.145653131862474" xlink:href="#id20">August</textPath></text><path d="M 88.4268655584334 117.5232005979908 l -2.5481815107162844 3.8582715856127496 a25.62379591244067,25.62379591244067 0 0,0 -0.36496059383122753,-0.24556177520345196 l 2.6140383926445176 -3.8139601363521765" fill="#ff3505" stroke="none" /><path d="M 87.83215693770417 117.11559508785305 l -10.899152002917807 15.331022230303677 a39.81041618382679,39.81041618382679 0 0,0 -0.5535903576473092,-0.4007567272656294 l 11.16072337093907 -15.141664731664982" fill="#fff016" stroke="none" /><path d="M 87.2517909369889 116.68781488649013 l -11.353764702734377 14.862442456622569 a39.70294545523443,39.70294545523443 0 0,0 -0.5380506402499845,-0.4183914322285899 l 11.60722528761959 -14.665349972773186" fill="#ffef16" stroke="none" /><path d="M 86.68645165197938 116.24036423190432 l -2.7888872526611834 3.4019889815224547 a25.39902502134919,25.39902502134919 0 0,0 -0.3348143815797018,-0.2793140651999117 l 2.8468759684027782 -3.353612732410673" fill="#ff3204" stroke="none" /><path d="M 86.40962598614128 116.0094264158162 l -4.743655700299242 5.588014487199913 a28.32995056682769,28.32995056682769 0 0,0 -0.3680472310444913,-0.3179104322884434 l 4.838882411106596 -5.505759922446747" fill="#ff5b08" stroke="none" /><path d="M 86.13680546590413 115.77377054828092 l -7.074429824449274 8.049402505052267 a31.716363097123907,31.716363097123907 0 0,0 -0.4058712374364677,-0.36293256324193374 l 7.211566088709112 -7.926774411926951" fill="#ff890c" stroke="none" /><path d="M 85.60350026404147 115.28858382429668 l -1.1061504249412217 1.174693418828399 a22.61352824296211,22.61352824296211 0 0,0 -0.28032969491927767,-0.2685495064184221 l 1.1261526057258138 -1.1555317821043944" fill="#ff0a01" stroke="none" /><path d="M 84.3458050057657 113.99807769240083 l -4.406053209971875 3.939919949429193 a26.91069150751531,26.91069150751531 0 0,0 -0.3049736590481956,-0.34700404075442187 l 4.473037932978663 -3.8637036308634713" fill="#ff4706" stroke="none" /><path d="M 84.1078160697243 113.72728997021213 l -14.20671637165363 12.271423236344704 a39.7728159398134,39.7728159398134 0 0,0 -0.44186734206616435,-0.5205186178943128 l 14.415278277226907 -12.025737836000836" fill="#fff016" stroke="none" /><path d="M 83.8745106332314 113.45245675266167 l -3.4105080379282393 2.8451671041614133 a25.441457072557988,25.441457072557988 0 0,0 -0.27689171129223733,-0.3377628658140404 l 3.4588465684591068 -2.7862019566488776" fill="#ff3204" stroke="none" /><path d="M 83.64595745247003 113.17365903436017 l -7.555194176032478 6.085929624077446 a30.70152041830447,30.70152041830447 0 0,0 -0.32709336894848734,-0.41327178636908984 l 7.658553975622527 -5.955337893793676" fill="#ff7b0b" stroke="none" /><path d="M 83.20337586046588 112.60449989151573 l -18.38978695471412 13.800038969147323 a43.99185377018909,43.99185377018909 0 0,0 -0.44808422267651915,-0.6079123051273773 l 18.623973196974468 -13.482320354751067" fill="#dcff1b" stroke="none" /><path d="M 82.37810715431573 111.42229804090323 l -16.15281517068801 10.47005964086358 a40.24930094371349,40.24930094371349 0 0,0 -0.3708346503349492,-0.5830136643247842 l 16.330167512648853 -10.191232301860124" fill="#fff617" stroke="none" /><line stroke="#e1ed5e" stroke-width="0.3" x1="26.387840678322732" x2="22.057713659400548" y1="142.50000000000003" y2="145.00000000000006" /><path d="M 25.521815274538298 143.00000000000003 a86.0,86.0 0 0,1 -11.493303480769221,-40.785679425670985" fill="none" id="id21" stroke="none" /><text fill="#e1ed5e" style="font-size:6.75px; font-family:Arial;" text-anchor="middle"><textPath startOffset="21.40746469413373" xlink:href="#id21">September</textPath></text><path d="M 81.1358732173502 109.22738970284198 l -3.4863776496063967 1.7053620130344342 a24.88111951776493,24.88111951776493 0 0,0 -0.18438182295917596,-0.3852870953238603 l 3.5151387305254844 -1.6452624156454692" fill="#ff2a04" stroke="none" /><path d="M 80.9802524753101 108.90220220490708 l -2.687153609767191 1.2577235717109512 a23.96692822719428,23.96692822719428 0 0,0 -0.17121007446585773,-0.37412491120686 l 2.7083481490881045 -1.2114096782894022" fill="#ff1d03" stroke="none" /><path d="M 80.83023694016515 108.57439118712176 l -9.016320777236352 4.0328856006874565 a30.877155796394838,30.877155796394838 0 0,0 -0.21226738650870466,-0.4857093208090337 l 9.084222045762024 -3.8775142101025732" fill="#ff7d0b" stroke="none" /><path d="M 80.41425534168474 107.57618678355246 l -10.336513817470896 3.99838559820511 a32.08289697194289,32.08289697194289 0 0,0 -0.19428381281780382,-0.5153608958047406 l 10.403628314103136 -3.8203564222062245" fill="#ff8d0d" stroke="none" /><path d="M 80.28708602549918 107.23885506374661 l -2.0341712318000584 0.7469758525244311 a23.16698535402009,23.16698535402009 0 0,0 -0.13388292395992074,-0.3744943663678563 l 2.0466943258039225 -0.7119465297756533" fill="#ff1202" stroke="none" /><path d="M 80.16572619554312 106.89939002012753 l -4.9430555330507575 1.7194513068586945 a26.233575336180973,26.233575336180973 0 0,0 -0.14430287598135655,-0.4266058118981778 l 4.971843830604482 -1.634343820486355" fill="#ff3d05" stroke="none" /><path d="M 80.05021161711548 106.5578916946017 l -11.857471781252558 3.897786493813767 a33.48168164129168,33.48168164129168 0 0,0 -0.1747987468094515,-0.5475545847479044 l 11.922635243839265 -3.693662875374471" fill="#ffa00e" stroke="none" /><path d="M 79.64726062577567 105.17358676015961 l -37.58569762164845 9.554137357695794 a59.7810031633493,59.7810031633493 0 0,0 -0.24428360708496588,-0.9967604788919776 l 37.74416875524971 -8.907521054195715" fill="#32ff2f" stroke="none" /><path d="M 79.48165901384964 104.47187691870673 l -4.492804753540611 0.9791858850174827 a25.59827136550841,25.59827136550841 0 0,0 -0.0898892918776977,-0.4301528019247478 l 4.508951756242675 -0.9019166318073258" fill="#ff3505" stroke="none" /><path d="M 79.22317932658666 103.0534771498775 l -38.181237740337494 5.611327104697366 a59.59137089117311,59.59137089117311 0 0,0 -0.14005528187959448,-1.013370251220143 l 38.2719375387723 -4.955068545277137" fill="#34ff2f" stroke="none" /><path d="M 79.13060592940153 102.33845913500099 l -4.411453165260907 0.4943125285782451 a25.43906115132467,25.43906115132467 0 0,0 -0.044903101637723764,-0.4343967755349043 l 4.419288659380297 -0.41851123076040936" fill="#ff3204" stroke="none" /><path d="M 79.06263194458094 101.62068470465958 l -7.2842483882748965 0.5638468940590059 a28.30603845473218,28.30603845473218 0 0,0 -0.03334186983235181,-0.4847834698278314 l 7.292854219272314 -0.43872000007683115" fill="#ff5a08" stroke="none" /><path d="M 79.01933749520258 100.90099992219065 l -11.913029734156412 0.5115967553968075 a32.9240097570837,32.9240097570837 0 0,0 -0.019402139336320803,-0.56487211718605 l 11.92005656048958 -0.30701837364663753" fill="#ff990e" stroke="none" /><path d="M 79.00696218219943 100.54070618675478 l -1.993846686054404 0.05135441797165591 a22.994507930226234,22.994507930226234 0 0,0 -0.006776337389581976,-0.39468768091543466 l 1.994434455042652 -0.01711982108716885" fill="#ff0f01" stroke="none" /><line stroke="#e1ed5e" stroke-width="0.3" x1="15.003131293944662" x2="10.003315487706104" y1="100.72959589197737" y2="100.7725132973878" /><path d="M 14.003168132696942 100.73817937305945 a86.0,86.0 0 0,1 10.791469493833604,-42.45332614584628" fill="none" id="id22" stroke="none" /><text fill="#e1ed5e" style="font-size:6.75px; font-family:Arial;" text-anchor="middle"><textPath startOffset="22.145653131862435" xlink:href="#id22">October</textPath></text><path d="M 79.01933749520258 99.09900007780938 l -2.1695621477445908 -0.09317033367552711 a23.171561793733563,23.171561793733563 0 0,0 0.020477493176216992,-0.39725789701231395 l 2.167643065111803 0.1304000240645531" fill="#ff1202" stroke="none" /><path d="M 79.13060592940154 97.66154086499901 l -11.207146827521923 -1.255784177895132 a32.277283977761954,32.277283977761954 0 0,0 0.06642651784395742,-0.5501068584466126 l 11.183938223418298 1.4479847132651806" fill="#ff900d" stroke="none" /><path d="M 79.22317932658666 96.9465228501225 l -9.216307872424096 -1.3544798762543149 a30.315307108973073,30.315307108973073 0 0,0 0.08008800017980938,-0.5142224124092256 l 9.191698380106018 1.5124904705949904" fill="#ff760a" stroke="none" /><path d="M 79.34024301695615 96.23510406497455 l -14.23710984452282 -2.594475676753946 a35.47157906941314,35.47157906941314 0 0,0 0.11430920353494013,-0.5981140553665314 l 14.19047434870572 2.838492297153792" fill="#ffba11" stroke="none" /><path d="M 79.48165901384962 95.52812308129327 l -3.2129552259390817 -0.7002486373246896 a24.288377934174285,24.288377934174285 0 0,0 0.09228327378712695,-0.4066171317128133 l 3.200461090594293 0.7553001029765111" fill="#ff2203" stroke="none" /><path d="M 79.83685265289637 94.1308016681162 l -20.386014914651998 -5.934071832690395 a42.232117478385035,42.232117478385035 0 0,0 0.20859383994748226,-0.694341051715491 l 20.281144754700886 6.28315048799661" fill="#f0ff19" stroke="none" /><path d="M 80.05021161711548 93.44210830539832 l -2.222214848555389 -0.7304861595155838 a23.339198337547263,23.339198337547263 0 0,0 0.12838179318098725,-0.3795379595898962 l 2.209347633802037 0.7685257935796417" fill="#ff1402" stroke="none" /><path d="M 80.16572619554312 93.10060997987247 l -12.592356439130647 -4.380275234806133 a34.332451080831724,34.332451080831724 0 0,0 0.1984085916735417,-0.5549841430335438 l 12.515307677413162 4.5957943342205985" fill="#ffab0f" stroke="none" /><path d="M 80.28708602549916 92.7611449362534 l -6.48681364139089 -2.3820478208499876 a27.91034753387636,27.91034753387636 0 0,0 0.169016181446881,-0.4483355016181723 l 6.444966776129573 2.493051602662305" fill="#ff5507" stroke="none" /><path d="M 80.41425534168474 92.42381321644754 l -17.766324973548347 -6.87239616389817 a40.049202925563314,40.049202925563314 0 0,0 0.253533052546413,-0.6390689124649082 l 17.6457332460358 7.176366093576661" fill="#fff316" stroke="none" /><path d="M 81.1358732173502 90.77261029715801 l -1.8616295738020614 -0.9106163119941826 a23.07241085157464,23.07241085157464 0 0,0 0.17708634207005242,-0.3542913095778171 l 1.845723318520265 0.94243947773577" fill="#ff1001" stroke="none" /><path d="M 81.63589988554816 89.8137432299009 l -3.6233493894583013 -2.009810827580853 a25.143428575557817,25.143428575557817 0 0,0 0.2126016192374931,-0.37564669009895063 l 3.5883144051994393 2.0717142877789088" fill="#ff2e04" stroke="none" /><line stroke="#e1ed5e" stroke-width="0.3" x1="26.387840678322718" x2="22.05771365940052" y1="57.49999999999999" y2="54.99999999999999" /><path d="M 25.521815274538284 56.99999999999999 a86.0,86.0 0 0,1 29.574782752854787,-30.34633250058573" fill="none" id="id23" stroke="none" /><text fill="#e1ed5e" style="font-size:6.75px; font-family:Arial;" text-anchor="middle"><textPath startOffset="21.40746469413373" xlink:href="#id23">November</textPath></text><path d="M 81.99639281039701 89.18935116829357 l -16.58919761563778 -9.961336521828235 a40.35018611878943,40.35018611878943 0 0,0 0.36167607941635616,-0.5907706947140204 l 16.41575357176603 10.244644332666798" fill="#fff717" stroke="none" /><path d="M 82.576782715395 88.27688183743585 l -7.01525893352383 -4.720179291533648 a29.455409537604254,29.455409537604254 0 0,0 0.28587213190818345,-0.4170959838462055 l 6.933197064800333 4.839910010449888" fill="#ff6a09" stroke="none" /><path d="M 82.78059297857968 87.97951657250589 l -31.606565648693707 -22.063837512378516 a59.54591960088417,59.54591960088417 0 0,0 0.5922973118463276,-0.8331403445363675 l 31.223153238317405 22.603155083624404" fill="#35ff2f" stroke="none" /><path d="M 83.2033758604659 87.39550010848427 l -5.19039732753618 -3.894970918463857 a27.489300645938197,27.489300645938197 0 0,0 0.28647519477507394,-0.375005225937864 l 5.1227701554067995 3.983497057642605" fill="#ff4f07" stroke="none" /><path d="M 85.08716467003674 85.21462403516908 l -13.789788970315266 -13.671928234340147 a40.41854529800767,40.41854529800767 0 0,0 0.49273686537535766,-0.48852546448153367 l 13.553060184809931 13.906633709050354" fill="#fff817" stroke="none" /><path d="M 86.68645165197937 83.75963576809568 l -9.63078753120159 -11.747994843917775 a36.19103193742501,36.19103193742501 0 0,0 0.48383830173717984,-0.38974588676315514 l 9.427698459109164 11.91158902447433" fill="#ffc312" stroke="none" /><path d="M 87.25179093698888 83.31218511350988 l -9.11665962434564 -11.934000096973922 a36.017784158148885,36.017784158148885 0 0,0 0.4945533527647564,-0.3711220558064531 l 8.910453282670131 12.088741180044376" fill="#ffc111" stroke="none" /><path d="M 87.83215693770416 82.88440491214696 l -1.9709881897499328 -2.7724417224966413 a24.401650709401814,24.401650709401814 0 0,0 0.34348798729344504,-0.23978129175226534 l 1.9231051112827224 2.8058678300540336" fill="#ff2403" stroke="none" /><path d="M 88.12776184653039 82.6780497279521 l -10.787134442620486 -15.73875152920176 a40.08063335377314,40.08063335377314 0 0,0 0.5708698195970077,-0.38410669173544437 l 10.515368334926489 15.921607894994315" fill="#fff417" stroke="none" /><path d="M 88.72937992617638 82.28071324371311 l -10.40553817170984 -16.35923431987929 a40.38813482972581,40.38813482972581 0 0,0 0.5881971620099196,-0.367078531968201 l 10.12317688091022 16.535448648689027" fill="#fff717" stroke="none" /><line stroke="#e1ed5e" stroke-width="0.3" x1="56.869717070023135" x2="54.33264160355391" y1="26.7553504044142" y2="22.446841604673864" /><path d="M 56.362301976729285 25.89364864446614 a86.0,86.0 0 0,1 42.16139366436587,-11.88097634709845" fill="none" id="id24" stroke="none" /><text fill="#e1ed5e" style="font-size:6.75px; font-family:Arial;" text-anchor="middle"><textPath startOffset="22.145653131862474" xlink:href="#id24">December</textPath></text><path d="M 89.34428304082924 81.90426304109057 l -6.723800007140933 -11.418482375211699 a34.251083966568494,34.251083966568494 0 0,0 0.5092117332527896,-0.2939935312680124 l 6.526795806027743 11.532222803755886" fill="#ffaa0f" stroke="none" /><path d="M 90.61103034731259 81.2157712731953 l -8.353613669275196 -16.712823202502683 a39.68425328274088,39.68425328274088 0 0,0 0.6119685091097313,-0.2993444639386334 l 8.065484910903411 16.853761416538532" fill="#ffef16" stroke="none" /><path d="M 90.93487009805054 81.0573650232925 l -6.497008355386135 -13.576248663599614 a36.050768928724125,36.050768928724125 0 0,0 0.5605229966113461,-0.26235306487939064 l 6.262996644903266 13.685777960049547" fill="#ffc112" stroke="none" /><path d="M 91.5904679813234 80.7573450057729 l -4.565134836049636 -10.445921896383341 a32.399900891527736,32.399900891527736 0 0,0 0.5115557477897559,-0.21835272974638356 l 4.38514401308945 10.522749275789128" fill="#ff920d" stroke="none" /><path d="M 91.92203290615298 80.6158196554323 l -4.274693805881498 -10.257708986476166 a32.11276746743472,32.11276746743472 0 0,0 0.5106626397418367,-0.20768204993255207 l 4.09797670494922 10.329578292988009" fill="#ff8e0d" stroke="none" /><path d="M 92.592206182469 80.34994680014964 l -4.606862019286469 -12.22024883429072 a34.05977255685289,34.05977255685289 0 0,0 0.548866501211051,-0.20155138183791155 l 4.3964063664212905 12.297531065137354" fill="#ffa70f" stroke="none" /><path d="M 93.61358852112211 79.99465700312896 l -5.916086953101088 -18.532058118637842 a40.45346403469633,40.45346403469633 0 0,0 0.6633585368161364,-0.20551017039346148 l 5.597087783413335 18.630884876837946" fill="#fff817" stroke="none" /><path d="M 95.70440661134978 79.44403061299748 l -0.6652964406844376 -3.1836843086976487 a24.252455246645987,24.252455246645987 0 0,0 0.40825372210438376,-0.08166217823319882 l 0.6105462330490772 3.1946358835937136" fill="#ff2103" stroke="none" /><path d="M 96.41257539226777 79.30868818359171 l -3.3123719307546797 -19.104881068006332 a40.38990171275549,40.38990171275549 0 0,0 0.6841712708905882,-0.1125801222673446 l 2.9839231568110187 19.158927188769344" fill="#fff717" stroke="none" /><path d="M 97.12497278360702 79.19773525538626 l -0.5802500778952505 -4.1984005123970425 a25.238308272812773,25.238308272812773 0 0,0 0.42967880692798166,-0.055630524026232225 l 0.5080934490764748 4.2077426326236695" fill="#ff2f04" stroke="none" /><path d="M 97.48249496171623 79.15144685158666 l -0.9403007937246695 -7.787039459840888 a28.84360562061851,28.84360562061851 0 0,0 0.4920775410596671,-0.05513831485126624 l 0.806487351064203 7.802033535199125" fill="#ff6209" stroke="none" /><path d="M 98.1996594967304 79.07731436759882 l -1.6656298664512548 -19.357143836073234 a40.428673149302874,40.428673149302874 0 0,0 0.6919675538075295,-0.05356266497336775 l 1.3330933178685083 19.382884268041657" fill="#fff817" stroke="none" /><path d="M 98.9189461498227 79.02784411241856 l -0.809544593066999 -15.704948833922934 a36.725799830987974,36.725799830987974 0 0,0 0.6298898581167917,-0.02705018075678678 l 0.5398289743493873 15.71653158310555" fill="#ffca12" stroke="none" /><path d="M 99.27912038922189 79.0123766808444 l -0.24141618918203597 -7.028568939867166 a28.032713780530575,28.032713780530575 0 0,0 0.48107699128422865,-0.012390836797912882 l 0.12072588382706342 7.031677494015125" fill="#ff5708" stroke="none" /></svg>