<?xml version="1.0" encoding="utf-8" ?>
<svg baseProfile="full" height="200mm" version="1.1" viewBox="0,0,200,200" width="200mm" xmlns="http://www.w3.org/2000/svg" xmlns:ev="http://www.w3.org/2001/xml-events" xmlns:xlink="http://www.w3.org/1999/xlink"><defs /><rect fill="#1a1a1a" height="200" width="200" x="0" y="0" /><text alignment-baseline="middle" fill="#e1ed5e" style="dominant-baseline: central; font-size:9.0px; font-family:Arial;" text-anchor="middle" x="100.0" y="100.0">2023</text><line stroke="#e1ed5e" stroke-width="0.3" x1="100.0" x2="100.0" y1="15.0" y2="10.0" /><path d="M 100.0 14.0 a86.0,86.0 0 0,1 42.46469731375804,11.215312516191453" fill="none" id="id97" stroke="none" /><text fill="#e1ed5e" style="font-size:6.75px; font-family:Arial;" text-anchor="middle"><textPath startOffset="22.20632615414155" xlink:href="#id97">January</textPath></text><path d="M 100.0 79.0 l 0.0 -3.786779461792243 a24.786779461792243,24.786779461792243 0 0,0 0.4266636628319582,0.0036724288485203704 l -0.06518318355942986 3.7862184095522813" fill="#ff2503" stroke="none" /><path d="M 100.72285384407766 79.0124445844662 l 0.4058861875802559 -11.784621364378006 a32.79160906318654,32.79160906318654 0 0,0 0.5639519158988049,0.024284955802970028 l -0.6086789358683924 11.775888682050843" fill="#ff940d" stroke="none" /><path d="M 101.08401301168833 79.027996857942 l 0.25180620041280116 -4.87160243401699 a25.878105845272998,25.878105845272998 0 0,0 0.44465727110095105,0.026822940899144557 l -0.3356255203533641 4.866546223737541" fill="#ff3505" stroke="none" /><path d="M 101.44485096284872 79.0497635885617 l 0.9299494403727472 -13.484200881232153 a34.51623022026007,34.51623022026007 0 0,0 0.5923803808385604,0.04598011860258919 l -1.1619200105736487 13.4661955004411" fill="#ffab0f" stroke="none" /><path d="M 101.80526077348638 79.07773832637324 l 0.5213163454957677 -6.041851213626663 a27.064300192081774,27.064300192081774 0 0,0 0.4637981710484242,0.04404322486391202 l -0.6252396436344361 6.031982444247572" fill="#ff4606" stroke="none" /><path d="M 102.88285421437855 79.19881850522331 l 1.0788250155027044 -7.7842420323063255 a28.858644121704387,28.858644121704387 0 0,0 0.49146411050912947,0.07242903451664051 l -1.2126581064404898 7.764518513628715" fill="#ff5f08" stroke="none" /><path d="M 103.2404852339499 79.25152402106235 l 0.808800408334258 -5.178661414118865 a26.241439892110304,26.241439892110304 0 0,0 0.44569310468466533,0.07354318111885257 l -0.8978227191577985 5.1639719700603885" fill="#ff3a05" stroke="none" /><path d="M 106.74666289553966 80.11325718540242 l 2.983816769066193 -8.795221817223538 a30.287577150448094,30.287577150448094 0 0,0 0.4922711968938061,0.17174375459791916 l -3.1347699700232727 8.742557209453413" fill="#ff720a" stroke="none" /><path d="M 107.08798089147638 80.2323363322302 l 4.096511077042045 -11.424756136072657 a33.13698709618899,33.13698709618899 0 0,0 0.5352691282701607,0.19714413726389704 l -4.292562531084782 11.352548731002436" fill="#ff980e" stroke="none" /><path d="M 107.4271985657038 80.35727306442388 l 1.4381658904822352 -3.803520213563225 a25.066335837523827,25.066335837523827 0 0,0 0.4022751032865572,0.15607649035648102 l -1.5034241587684594 3.7782010193161972" fill="#ff2904" stroke="none" /><path d="M 108.43124777332544 80.76684994638697 l 4.8283143708480685 -11.014229126836586 a33.02604934806911,33.02604934806911 0 0,0 0.5186943633996061,0.23272304127961882 l -5.017190852714455 10.929485755040437" fill="#ff970d" stroke="none" /><path d="M 108.76106565485865 80.91482961587045 l 5.425011754885902 -11.81788583224281 a34.00358327864191,34.00358327864191 0 0,0 0.5298434925076327,0.24876862415791698 l -5.627633458693132 11.72275222544489" fill="#ffa40f" stroke="none" /><path d="M 109.08828744355905 81.06846463323043 l 5.662260011867938 -11.794881746009597 a34.083593689974826,34.083593689974826 0 0,0 0.5267193083780367,0.2584588771042615 l -5.864450587256407 11.695667708770504" fill="#ffa50f" stroke="none" /><path d="M 109.41281617654863 81.2277094730956 l 1.4287770938475872 -2.8494573994461674 a24.18760277562341,24.18760277562341 0 0,0 0.3705765487345685,0.18982370153308795 l -1.4776141301709114 2.824441172600579" fill="#ff1d02" stroke="none" /><path d="M 109.73455568895987 81.39251694778311 l 6.5752868848695 -12.56857972597887 a35.18462526634468,35.18462526634468 0 0,0 0.5342281929628163,0.28536619918678024 l -6.7906601243606275 12.453534800290335" fill="#ffb310" stroke="none" /><line stroke="#e1ed5e" stroke-width="0.3" x1="143.23703022742887" x2="145.7803849466894" y1="26.81831364943548" y2="22.513508569990506" /><path d="M 143.74570117128098 25.957352633546492 a86.0,86.0 0 0,1 28.547481713284135,27.462654790039103" fill="none" id="id98" stroke="none" /><text fill="#e1ed5e" style="font-size:6.75px; font-family:Arial;" text-anchor="middle"><textPath startOffset="19.985693538727396" xlink:href="#id98">February</textPath></text><path d="M 111.2981086023043 82.29822771554956 l 3.835901976900659 -6.010055814715731 a28.129860789131072,28.129860789131072 0 0,0 0.40591787520021644,0.26402027737049727 l -3.9387868778851556 5.943136613185706" fill="#ff5407" stroke="none" /><path d="M 111.60114157652 82.49532879139004 l 13.655031315416764 -20.60373386041756 a45.71788278182275,45.71788278182275 0 0,0 0.6522315744336231,0.4403896705565943 l -14.00766758425693 20.365632277562295" fill="#c9ff1d" stroke="none" /><path d="M 111.90073688211348 82.69761687909136 l 6.712850661385243 -9.759758166849366 a32.845473543824376,32.845473543824376 0 0,0 0.46307247247406785,0.3244118599802536 l -6.8798542734429615 9.642761464105178" fill="#ff950d" stroke="none" /><path d="M 113.06298171725822 83.55741782278167 l 7.386141379115552 -9.297053247667762 a32.87393294415345,32.87393294415345 0 0,0 0.44003575363906416,0.3558116436739971 l -7.5450805313191065 9.168535506729635" fill="#ff950d" stroke="none" /><path d="M 114.42810811169701 84.74124197986012 l 7.455105331779927 -7.884308004322597 a31.850848271677144,31.850848271677144 0 0,0 0.3951276038062069,0.3801124418023808 l -7.589716179198551 7.754812475757915" fill="#ff870c" stroke="none" /><path d="M 114.94478906791727 85.2469230424477 l 8.587602185990791 -8.47744022046761 a33.06705863068692,33.06705863068692 0 0,0 0.39638858816992545,0.40851328364970463 l -8.732255037863826 8.328362741267792" fill="#ff970e" stroke="none" /><path d="M 115.19652480421416 85.50635884689758 l 8.559676367352818 -8.163766338255149 a32.828573047474755,32.828573047474755 0 0,0 0.38649028716264117,0.4122808910891376 l -8.698933976485922 8.015216030287956" fill="#ff940d" stroke="none" /><path d="M 116.15771136456269 86.58626213691792 l 18.34973417891982 -15.233501736706492 a44.84894797678208,44.84894797678208 0 0,0 0.4880024876895903,0.5982333478437808 l -18.60923515868582 14.915384219254609" fill="#d4ff1c" stroke="none" /><path d="M 116.60985879189232 87.15038557335679 l 9.569935782902622 -7.403433493249158 a33.099359420144665,33.099359420144665 0 0,0 0.3447441080169178,0.45364283570015046 l -9.695955831143653 7.237605881667974" fill="#ff980e" stroke="none" /><path d="M 117.04232023915458 87.72973835380427 l 10.872062006603835 -7.827751361472518 a34.396843794434325,34.396843794434325 0 0,0 0.341818438975027,0.48347794096875346 l -11.005193065382747 7.639446920171971" fill="#ffa90f" stroke="none" /><path d="M 117.2510076193507 88.02491185347247 l 6.442432598192953 -4.472127074761953 a28.842503321967936,28.842503321967936 0 0,0 0.2796013345343312,0.41028045743657765 l -6.518458398396018 4.3605685940549685" fill="#ff5e08" stroke="none" /><path d="M 117.45458315368197 88.32363383020206 l 20.498147140307417 -13.712379705964926 a45.661780012526506,45.661780012526506 0 0,0 0.43140241857292916,0.6570554803052766 l -20.73114619423827 13.357506161681975" fill="#caff1d" stroke="none" /><line stroke="#e1ed5e" stroke-width="0.3" x1="172.23445277983987" x2="176.4835382374775" y1="55.19839476539836" y2="52.563006222186495" /><path d="M 173.08426987136738 54.67131705675599 a86.0,86.0 0 0,1 12.851231095245387,41.99856678651699" fill="none" id="id99" stroke="none" /><text fill="#e1ed5e" style="font-size:6.75px; font-family:Arial;" text-anchor="middle"><textPath startOffset="22.20632615414155" xlink:href="#id99">March</textPath></text><path d="M 117.84615892207809 88.93136811851018 l 20.79154302813829 -12.895432402650654 a45.465903587283634,45.465903587283634 0 0,0 0.40677738098534727,0.668635059429188 l -21.01043620740986 12.535629570014384" fill="#ccff1d" stroke="none" /><path d="M 118.03404312379186 89.2402003453031 l 10.54901176717599 -6.293943759073589 a33.28394795277149,33.28394795277149 0 0,0 0.28931727115293293,0.4945369999717202 l -10.655788712799252 6.111427346747973" fill="#ff9a0e" stroke="none" /><path d="M 118.56541770881063 90.18545643968196 l 15.72984683443728 -8.31552887067284 a38.79258558596389,38.79258558596389 0 0,0 0.30699818036743043,0.5930227689116464 l -15.870654447964826 8.043533379500847" fill="#ffe115" stroke="none" /><path d="M 118.89224826269711 90.83032412892265 l 10.979173845274238 -5.3289298390260464 a33.20408749370538,33.20408749370538 0 0,0 0.24514389032668749,0.5163355525145035 l -11.069275929442682 5.139151870871002" fill="#ff990e" stroke="none" /><path d="M 119.196687751892 91.48605970444005 l 11.130369732558087 -4.936440316958705 a33.175942402390895,33.175942402390895 0 0,0 0.22703291109274784,0.5240232606675551 l -11.213693353493516 4.744117911704547" fill="#ff990e" stroke="none" /><path d="M 119.34039704204932 91.81776055985345 l 11.117277838092578 -4.703327909770232 a33.0712534542262,33.0712534542262 0 0,0 0.21729122686538804,0.5261879412400482 l -11.196590751844164 4.511265398076881" fill="#ff980e" stroke="none" /><path d="M 119.7369772167798 92.82701384747503 l 11.337526975893482 -4.120383942725687 a33.06304612295684,33.06304612295684 0 0,0 0.1897927785316961,0.5365697426795243 l -11.406772835234987 3.9246165736195477" fill="#ff970e" stroke="none" /><path d="M 119.85752413597 93.16781622104841 l 5.756216315281949 -1.980484952107788 a27.087392456039243,27.087392456039243 0 0,0 0.14790065350836187,0.4422041288394978 l -5.7894542625620815 1.8811077203459763" fill="#ff4606" stroke="none" /><path d="M 120.08093135843002 93.85539295169968 l 11.405908507964934 -3.4901182898017384 a32.92793672723307,32.92793672723307 0 0,0 0.16118084361135968,0.5434216773680298 l -11.464295248687996 3.2932672256871784" fill="#ff960d" stroke="none" /><path d="M 120.28053869075195 94.5502522615342 l 50.143357336073386 -13.474427499598935 a72.92221568245228,72.92221568245228 0 0,0 0.3153145081957907,1.2150354249613204 l -50.36786817613948 12.609295649088764" fill="#3fffc0" stroke="none" /><path d="M 120.37134235888165 94.90015583598534 l 11.764093545231104 -2.945070715254665 a33.12713232626736,33.12713232626736 0 0,0 0.1337187734612843,0.5543506443915924 l -11.813045118953207 2.742134839203666" fill="#ff980e" stroke="none" /><path d="M 120.45610955862082 95.25157060432595 l 3.568722958172948 -0.8283994056173698 a24.663608757416366,24.663608757416366 0 0,0 0.09243640219020806,0.4143742660616754 l -3.582453747365194 0.7668469700057305" fill="#ff2403" stroke="none" /><path d="M 120.53481517161879 95.60439243477599 l 11.960574927370404 -2.5602370021737846 a33.23152345787479,33.23152345787479 0 0,0 0.11491888720610306,0.5603853066290524 l -12.002873110491503 2.3539760393813207" fill="#ff9a0e" stroke="none" /><path d="M 120.6074358757038 95.95851677861258 l 11.741876532858681 -2.302789987137615 a32.965554990795816,32.965554990795816 0 0,0 0.10441333457726233,0.5577802084211037 l -11.779775591345803 2.1003317012539484" fill="#ff960d" stroke="none" /><path d="M 120.67395015179393 96.31383870115 l 11.910738633665087 -2.123682386277009 a33.09858345746581,33.09858345746581 0 0,0 0.09517913530066194,0.5617526443264346 l -11.945529630485971 1.9183439536347366" fill="#ff980e" stroke="none" /><path d="M 120.87857604477298 97.74499172005257 l 7.061865312612339 -0.7627227411325844 a28.102935144946642,28.102935144946642 0 0,0 0.04780560095920988,0.4813958776506483 l -7.073948039253777 0.6410513327775011" fill="#ff5407" stroke="none" /><path d="M 120.91429891909075 98.10471618934814 l 11.847747993155556 -1.0736599419841828 a32.896296826338144,32.896296826338144 0 0,0 0.046251435439273826,0.564384662949137 l -11.864473912414326 0.8695613618272771" fill="#ff950d" stroke="none" /><path d="M 120.94382443527127 98.46500227214037 l 14.167057997974089 -1.0383204798414465 a35.20505690720103,35.20505690720103 0 0,0 0.039093386701516554,0.604757389129945 l -14.18283197568002 0.7943040264584662" fill="#ffb410" stroke="none" /><path d="M 120.96714384426684 98.82574320788733 l 11.953627687060163 -0.6694583013391473 a32.972359387275475,32.972359387275475 0 0,0 0.026858957006889735,0.5669501315800022 l -11.963380252300547 0.4635970631361453" fill="#ff960d" stroke="none" /><line stroke="#e1ed5e" stroke-width="0.3" x1="184.98032266829074" x2="189.97916517819016" y1="98.17113171792111" y2="98.06355123074" /><path d="M 185.9800911702706 98.14961562048488 a86.0,86.0 0 0,1 -9.607161424134198,41.387399972396054" fill="none" id="id100" stroke="none" /><text fill="#e1ed5e" style="font-size:6.75px; font-family:Arial;" text-anchor="middle"><textPath startOffset="21.466115282336823" xlink:href="#id100">April</textPath></text><path d="M 120.99980553446 99.90962569577887 l 50.416674061169864 -0.21697209681036642 a71.41714093719548,71.41714093719548 0 0,0 -0.005290659034854301,1.229362835361323 l -50.412939104845506 -0.6509002167546414" fill="#3dffb0" stroke="none" /><path d="M 120.95626037817324 101.35467743843564 l 11.79792409553007 0.7626542762962172 a32.822548562346526,32.822548562346526 0 0,0 -0.04129927078209958,0.5634957373983446 l -11.783048266083632 -0.9656231501913319" fill="#ff940d" stroke="none" /><path d="M 120.8583938346157 102.4346265915055 l 49.79246256975521 5.811859455241811 a71.1305000881495,71.1305000881495 0 0,0 -0.15241738811826971,1.2149165481084818 l -49.685043672390094 -6.6680937576376875" fill="#3dffad" stroke="none" /><path d="M 120.70491114924044 103.5080841355445 l 13.237558731438686 2.242872207679202 a34.42622198938586,34.42622198938586 0 0,0 -0.10402220295463739,0.5834117566246757 l -13.19699008614486 -2.4704027150370957" fill="#ffa90f" stroke="none" /><path d="M 120.64145759157962 103.86396538481128 l 5.303845789989863 0.9928502601123499 a26.39597366589185,26.39597366589185 0 0,0 -0.08744617414803338,0.4458861580310071 l -5.285969682866165 -1.084000145211302" fill="#ff3c05" stroke="none" /><path d="M 120.41448212921028 104.9243191809786 l 48.778850283741306 11.766285647511689 a71.17790064303696,71.17790064303696 0 0,0 -0.2975530642232837,1.1885765812214881 l -48.56908590522296 -12.604190068130572" fill="#3dffad" stroke="none" /><path d="M 120.32669344350535 105.2749913415812 l 4.309555982667612 1.1183752319487357 a25.452306809641783,25.452306809641783 0 0,0 -0.11370142206437041,0.4231252894687467 l -4.289666484261464 -1.1923914545930308" fill="#ff2f04" stroke="none" /><path d="M 120.13307415673323 105.97154293290107 l 11.245110164013013 3.3353405250905697 a32.729322189244364,32.729322189244364 0 0,0 -0.1648517162687154,0.5387449470226301 l -11.186031675238166 -3.528412444665257" fill="#ff930d" stroke="none" /><path d="M 119.9155931802556 106.66101706037122 l 18.376757187601108 6.146334283543517 a40.377374173429985,40.377374173429985 0 0,0 -0.22613092501101686,0.6572423176216888 l -18.26823543164686 -6.461749304254507" fill="#fff517" stroke="none" /><path d="M 119.54520255179757 107.68017299344265 l 12.240691340488944 4.809908048031169 a34.151796072158206,34.151796072158206 0 0,0 -0.21970563656015363,0.5452913720141888 l -12.156083089671396 -5.019898787888171" fill="#ffa60f" stroke="none" /><path d="M 119.26925614724726 108.34839909993367 l 10.78565234333623 4.672880448899365 a32.75440803107584,32.75440803107584 0 0,0 -0.22859288149065518,0.5154166010031562 l -10.703618377114301 -4.8578453863952085" fill="#ff930d" stroke="none" /><path d="M 118.97047184881838 109.00673069616215 l 10.728308436578398 5.093546733242944 a32.87606080458033,32.87606080458033 0 0,0 -0.2471132920637924,0.5091265741907931 l -10.639041887899893 -5.277462263399013" fill="#ff950d" stroke="none" /><path d="M 118.64920377521936 109.65438752849418 l 2.9421099120557193 1.5230821425284016 a24.312972977177058,24.312972977177058 0 0,0 -0.19560075248047704,0.370002909624874 l -2.915456651350349 -1.5735000672394097" fill="#ff1e03" stroke="none" /><line stroke="#e1ed5e" stroke-width="0.3" x1="174.80103733775053" x2="179.2010983576182" y1="140.37084112569926" y2="142.7455964860345" /><path d="M 175.68104954172406 140.8457921977663 a86.0,86.0 0 0,1 -30.038265399797805,32.042727171017184" fill="none" id="id101" stroke="none" /><text fill="#e1ed5e" style="font-size:6.75px; font-family:Arial;" text-anchor="middle"><textPath startOffset="22.206326154141568" xlink:href="#id101">May</textPath></text><path d="M 118.48025628344425 109.97397251340804 l 6.3484054957861 3.4262956610436213 a28.213997109495782,28.213997109495782 0 0,0 -0.23434222283633263,0.4253992037478798 l -6.288486863498258 -3.535065383189306" fill="#ff5607" stroke="none" /><path d="M 118.30583269289576 110.29060199501025 l 3.3454839675896153 1.8806598185786512 a24.837856736593412,24.837856736593412 0 0,0 -0.2127161406633094,0.37088852114333565 l -3.312615830773926 -1.937968185580302" fill="#ff2603" stroke="none" /><path d="M 117.75023020441432 111.22182372390056 l 9.953210465124704 6.292491536179317 a32.775476563432846,32.775476563432846 0 0,0 -0.30558471007712473,0.4742742561860899 l -9.843420891670528 -6.462887392286859" fill="#ff940d" stroke="none" /><path d="M 116.93607887273984 112.41649034213515 l 9.626478026891892 7.057541025158369 a32.93641338610664,32.93641338610664 0 0,0 -0.3391489671532626,0.45434546443390883 l -9.503567793043539 -7.222199369101593" fill="#ff960d" stroke="none" /><path d="M 116.71984013943494 112.70617746262583 l 9.39552661638614 7.1400938972530925 a32.800714438575795,32.800714438575795 0 0,0 -0.34549021067570657,0.4465926698474279 l -9.271229588492366 -7.300764561213773" fill="#ff940d" stroke="none" /><path d="M 116.27256486870786 113.27417163493432 l 3.0445709696040417 2.483576371109074 a24.92906655327789,24.92906655327789 0 0,0 -0.2741057707653306,0.33017805868837447 l -3.001369198945168 -2.535615686911219" fill="#ff2703" stroke="none" /><path d="M 115.80600337817218 113.82643327865902 l 24.497980919228894 21.429813124635057 a53.548240500458455,53.548240500458455 0 0,0 -0.6128497962470298,0.6885432428596215 l -24.12547227333353 -21.848330537235547" fill="#73ff27" stroke="none" /><path d="M 114.0293411484842 115.62618273729858 l 33.57388925915507 37.395321933707955 a71.25550857877838,71.25550857877838 0 0,0 -0.919730976086101,0.8115556511090444 l -32.92521593016237 -37.96770072658929" fill="#3dffae" stroke="none" /><path d="M 112.34349029814194 116.9893568818739 l 29.152007093605526 40.12429550908604 a70.59635679851988,70.59635679851988 0 0,0 -0.9892656456778098,0.7058147715591481 l -28.45701412007883 -40.6201545424894" fill="#3cffa7" stroke="none" /><path d="M 111.1453310114006 117.79835938074945 l 6.344615127399676 10.131932380876691 a32.95450521290975,32.95450521290975 0 0,0 -0.48336538388168404,0.2969224979165171 l -6.169270543585683 -10.239643345621586" fill="#ff960d" stroke="none" /><line stroke="#e1ed5e" stroke-width="0.3" x1="143.8653032363475" x2="146.44561519142675" y1="172.8068346515853" y2="177.08958963109032" /><path d="M 144.38136562736335 173.6633856474863 a86.0,86.0 0 0,1 -40.68145358897372,12.25698825130547" fill="none" id="id102" stroke="none" /><text fill="#e1ed5e" style="font-size:6.75px; font-family:Arial;" text-anchor="middle"><textPath startOffset="21.466115282336833" xlink:href="#id102">June</textPath></text><path d="M 110.8373102113329 117.98757091392108 l 6.201060473572158 10.292407694784751 a33.016106156012576,33.016106156012576 0 0,0 -0.4893177623470826,0.289097558917558 l -6.022974840196693 -10.39762382599606" fill="#ff970d" stroke="none" /><path d="M 110.21172684928248 118.3499491758327 l 2.867003710917374 5.15185856013707 a26.89587626244578,26.89587626244578 0 0,0 -0.40648274192875233,0.22164680077755838 l -2.777898157119973 -5.200446012674399" fill="#ff4306" stroke="none" /><path d="M 109.89434966115114 118.52300852407294 l 2.8036187148939593 5.248596939941713 a26.950466178079594,26.950466178079594 0 0,0 -0.41107045228528,0.21505263224626456 l -2.7128573600821837 -5.296078991132695" fill="#ff4406" stroke="none" /><path d="M 109.57404056367764 118.69057910512821 l 2.71724942060321 5.304653234583697 a26.96009986098788,26.96009986098788 0 0,0 -0.4148595675505136,0.20801919951317574 l -2.625535945369936 -5.3506402750061755" fill="#ff4406" stroke="none" /><path d="M 108.92500713936063 119.00905698771935 l 0.5163820849599227 1.0998239359552713 a22.21501569856842,22.21501569856842 0 0,0 -0.34754017292899636,0.1595386476226492 l -0.49737391626350685 -1.108549653911995" fill="#ff0000" stroke="none" /><path d="M 108.59647513512805 119.15986991738527 l 2.476213207737744 5.5189972869339075 a27.049046445792815,27.049046445792815 0 0,0 -0.42644666897257943,0.18694168756519938 l -2.380845864107411 -5.560803527793562" fill="#ff4506" stroke="none" /><path d="M 108.2653958097858 119.30500536409082 l 0.5631454183825217 1.3153060752113561 a22.43079098184645,22.43079098184645 0 0,0 -0.3562528084996551,0.1489137028458141 l -0.5404211503854055 -1.3248048210771433" fill="#ff0300" stroke="none" /><path d="M 107.93186726928326 119.44442032107085 l 2.101249243725163 5.151066212687175 a26.563158411526942,26.563158411526942 0 0,0 -0.4248573840091961,0.16905952115438333 l -2.0122707836741003 -5.186472578247627" fill="#ff3f05" stroke="none" /><path d="M 107.59598834532513 119.57807347666477 l 4.270670618238979 11.007323781634545 a32.8067694295784,32.8067694295784 0 0,0 -0.5282355097519957,0.1997334704723755 l -4.080564887726709 -11.07920550221355" fill="#ff940d" stroke="none" /><path d="M 107.2578585660854 119.70592522655815 l 4.150397307816164 11.268808597416138 a33.00882363172711,33.00882363172711 0 0,0 -0.5348693813571282,0.19178513041358564 l -3.955808365829301 -11.338581268869683" fill="#ff970d" stroke="none" /><path d="M 106.91757812671514 119.82793768551818 l 3.895434216260162 11.165530115193523 a32.825543137061565,32.825543137061565 0 0,0 -0.5351036642186124,0.18153621587548316 l -3.7026608191043224 -11.230929317967128" fill="#ff940d" stroke="none" /><path d="M 106.57524785965236 119.94407469862006 l 3.8636825640105408 11.719341280080073 a33.33981373418691,33.33981373418691 0 0,0 -0.5465802965392601,0.17499775051500197 l -3.66138092238034 -11.784111877254782" fill="#ff9b0e" stroke="none" /><path d="M 106.2309692047433 120.05430185196036 l 6.824173964534993 21.96352446596816 a43.999255580679545,43.999255580679545 0 0,0 -0.725202069641565,0.21849743465971477 l -6.4450969204531825 -22.0777372697336" fill="#deff1b" stroke="none" /><path d="M 105.88484417918355 120.15858648285463 l 3.035042038052797 10.396563705052076 a31.83051324019106,31.83051324019106 0 0,0 -0.5272782599760069,0.14901410310940139 l -2.8556326099721847 -10.447266601499997" fill="#ff870c" stroke="none" /><path d="M 105.53697534728816 120.25689768951611 l 3.7026581443584283 13.546090149427362 a35.04301376736478,35.04301376736478 0 0,0 -0.5832318202086793,0.15403682462863685 l -3.468935881338252 -13.607818323359584" fill="#ffb110" stroke="none" /><path d="M 105.18746579009965 120.34920634021253 l 4.282172468519632 16.797953889660107 a38.3351739515153,38.3351739515153 0 0,0 -0.6408303283084316,0.1575005033737865 l -3.9923888554679894 -16.869175651347923" fill="#ffdb14" stroke="none" /><path d="M 104.83641907484287 120.43548508189849 l 1.3591295742836584 5.742776155216274 a26.90141603080253,26.90141603080253 0 0,0 -0.4515336716027496,0.102767593589363 l -1.2600757532880469 -5.765320482383321" fill="#ff4306" stroke="none" /><path d="M 104.13013068566511 120.58985236759428 l 0.36831999583694086 1.836177815059694 a22.872754278556243,22.872754278556243 0 0,0 -0.3866937387062418,0.07411077536190616 l -0.3366586425589947 -1.8422457887700683" fill="#ff0a01" stroke="none" /><path d="M 102.34483914955558 120.86867818915974 l 4.028112795434688 35.84953349721028 a57.07512639839737,57.07512639839737 0 0,0 -0.9772549998799411,0.10129647649217549 l -3.410425198949144 -35.913559342158216" fill="#4eff2b" stroke="none" /><path d="M 101.98527174616119 120.90594882070398 l 0.5715349865977984 6.018562044294148 a27.045638206337152,27.045638206337152 0 0,0 -0.4638400133485135,0.040022068088698834 l -0.46785065550774324 -6.02750836466151" fill="#ff4506" stroke="none" /><path d="M 100.90346689309514 120.98055641714683 l 0.13668478440862802 3.174131617403691 a24.177073221518604,24.177073221518604 0 0,0 -0.41593735766697254,0.01432572359821172 l -0.08202707506700323 -3.176014139427996" fill="#ff1d02" stroke="none" /><line stroke="#e1ed5e" stroke-width="0.3" x1="102.19456741930631" x2="102.32365962044197" y1="184.97166512339345" y2="189.96999836594603" /><path d="M 102.22038585953345 185.97133177190398 a86.0,86.0 0 0,1 -42.740103519485714,-10.115201625700543" fill="none" id="id103" stroke="none" /><text fill="#e1ed5e" style="font-size:6.75px; font-family:Arial;" text-anchor="middle"><textPath startOffset="22.20632615414155" xlink:href="#id103">July</textPath></text><path d="M 100.54218724476979 120.99299961872073 l 1.5443492099926213 59.79580428955329 a80.8157439568962,80.8157439568962 0 0,0 -1.3909555979683481,0.023946562046352475 l -0.5148339221316054 -59.8135283288788" fill="#49f0ff" stroke="none" /><path d="M 98.37488393609728 120.93702456842531 l -0.5953791155950084 7.6705088624896085 a28.693580603387367,28.693580603387367 0 0,0 -0.4921026713643354,-0.0424606891453668 l 0.7273261047008855 -7.659123921065579" fill="#ff5c08" stroke="none" /><path d="M 98.01472825383883 120.90594882070398 l -1.2154281026068599 12.799092999473658 a33.856673250953456,33.856673250953456 0 0,0 -0.5797026708770571,-0.06008855209761846 l 1.4355633700895103 -12.776275078920278" fill="#ffa20f" stroke="none" /><path d="M 97.65516085044442 120.86867818915974 l -1.372830078467878 12.217959223930105 a33.294844042197724,33.294844042197724 0 0,0 -0.5689812609774092,-0.0688957068583657 l 1.5829387624966766 -12.192517988346392" fill="#ff9b0e" stroke="none" /><path d="M 97.2962882734958 120.8252237178851 l -1.5464668912434205 11.911594962857645 a33.0115633622309,33.0115633622309 0 0,0 -0.5628808095352006,-0.07801015121995776 l 1.751276291965452 -11.883210246145083" fill="#ff970d" stroke="none" /><path d="M 96.93821686468263 120.77559828337769 l -0.3435456013360076 2.331113958741728 a23.356292823236927,23.356292823236927 0 0,0 -0.39723953121514316,-0.06204064513222865 l 0.3836209961596679 -2.3248550062623936" fill="#ff1101" stroke="none" /><path d="M 96.22490169976321 120.6578951692458 l -3.786729072438706 20.721540471639486 a42.064699299677784,42.064699299677784 0 0,0 -0.7111585968899501,-0.13629523766568127 l 4.142855283900351 -20.653288035625337" fill="#f5ff19" stroke="none" /><path d="M 95.86986931433489 120.58985236759428 l -0.7979398306309837 3.9779524090941436 a25.05719279087466,25.05719279087466 0 0,0 -0.4221642267629271,-0.0884686183440659 l 0.8662955188232976 -3.9636278100235365" fill="#ff2904" stroke="none" /><path d="M 95.51606077576429 120.51570834832081 l -3.6053860203921895 16.495997019247483 a37.8853997884285,37.8853997884285 0 0,0 -0.6358971456008072,-0.14472812003537858 l 3.8888033153858594 -16.431492165634417" fill="#ffd614" stroke="none" /><path d="M 95.16358092515715 120.4354850818985 l -0.3110493204192474 1.314287213080007 a22.350593409653285,22.350593409653285 0 0,0 -0.3736239238332777,-0.09182767025331526 l 0.33362652899573564 -1.3087382845126618" fill="#ff0200" stroke="none" /><path d="M 94.81253420990036 120.34920634021253 l -2.5331342515300697 9.936888966135255 a31.2546833915814,31.2546833915814 0 0,0 -0.5201814548694627,-0.13738465008669692 l 2.7038061492110215 -9.891812966744975" fill="#ff7f0b" stroke="none" /><path d="M 93.42475214034765 119.94407469862007 l -2.410233278669845 7.310731637336773 a28.697793289687922,28.697793289687922 0 0,0 -0.4678153924271979,-0.15870838072759252 l 2.535718404034269 -7.268160269711057" fill="#ff5c08" stroke="none" /><path d="M 93.08242187328487 119.8279376855182 l -4.035282635729561 11.566379328005281 a33.250087212323365,33.250087212323365 0 0,0 -0.5387787755099668,-0.1931869000672109 l 4.233780971869254 -11.495204886898113" fill="#ff9a0e" stroke="none" /><path d="M 92.06813273071674 119.44442032107085 l -6.436879100597861 15.779560920369658 a38.0419469367608,38.0419469367608 0 0,0 -0.6041940495091817,-0.25255316169642716 l 6.707544609604505 -15.666422715653258" fill="#ffd814" stroke="none" /><path d="M 91.40352486487194 119.15986991738527 l -8.447553289957758 18.82795210962472 a41.636204525760014,41.636204525760014 0 0,0 -0.6513726534040751,-0.29901323736664476 l 8.770393939129253 -18.679751801924002" fill="#faff18" stroke="none" /><line stroke="#e1ed5e" stroke-width="0.3" x1="58.666819895761336" x2="56.23545636021788" y1="174.27360380694188" y2="178.64263932499728" /><path d="M 58.180547188652646 175.14741091055294 a86.0,86.0 0 0,1 -31.652253787137756,-30.449443065178592" fill="none" id="id104" stroke="none" /><text fill="#e1ed5e" style="font-size:6.75px; font-family:Arial;" text-anchor="middle"><textPath startOffset="22.20632615414155" xlink:href="#id104">August</textPath></text><path d="M 89.1626897886671 117.98757091392108 l -7.09045996217897 11.768616833413127 a34.73954019052158,34.73954019052158 0 0,0 -0.5095476649270558,-0.3130057933869412 l 7.291986827038334 -11.644822573197807" fill="#ffad10" stroke="none" /><path d="M 87.95078237400918 117.19931262002967 l -8.90740470864719 12.714621228741356 a36.52428586550732,36.52428586550732 0 0,0 -0.5118142476216176,-0.36516587616692087 l 9.124946284117694 -12.559411090730217" fill="#ffc512" stroke="none" /><path d="M 87.36589467227662 116.77436683061367 l -7.965566387079817 10.5759235913035 a34.24010602963835,34.24010602963835 0 0,0 -0.4677382263447707,-0.35864172657999993 l 8.146433341918074 -10.437242522896133" fill="#ffa70f" stroke="none" /><path d="M 86.24171649860922 115.8653595955263 l -7.770254588778946 8.960266241592167 a32.86015292880562,32.86015292880562 0 0,0 -0.4241426540957977,-0.3742565780187547 l 7.923339595781331 -8.825186521801124" fill="#ff950d" stroke="none" /><path d="M 85.44109423537348 115.13401014063109 l -5.096314681247221 5.297628771884637 a28.351006321245812,28.351006321245812 0 0,0 -0.3487849444422864,-0.3413594776365991 l 5.186749578065301 -5.209119191325468" fill="#ff5808" stroke="none" /><path d="M 84.9287848128048 114.62390073753433 l -2.42131468980101 2.3494499440276018 a24.373822737865382,24.373822737865382 0 0,0 -0.28957662337847684,-0.3036199319002489 l 2.4613978645584442 -2.3074228955448524" fill="#ff1f03" stroke="none" /><path d="M 84.19399662182784 113.82643327865904 l -10.15903242050951 8.886698337157519 a34.49738297065774,34.49738297065774 0 0,0 -0.38712222367814075,-0.45031060434534875 l 10.31049715375843 -8.710510633650639" fill="#ffaa0f" stroke="none" /><path d="M 83.95833913139862 113.55231037782056 l -9.76701857840363 8.25136925189257 a33.7859198512254,33.7859198512254 0 0,0 -0.3714906686154439,-0.4474844416511931 l 9.90760524691261 -8.082023553127616" fill="#ffa10e" stroke="none" /><path d="M 83.72743513129214 113.27417163493432 l -11.871765032395304 9.684265997468438 a36.32069883830784,36.32069883830784 0 0,0 -0.39102187757101065,-0.48785991463205153 l 12.036704822021175 -9.478478249258128" fill="#ffc212" stroke="none" /><path d="M 83.50135304334701 112.99209946851258 l -13.217622065605791 10.408408705558134 a37.823807679925714,37.823807679925714 0 0,0 -0.39839849550735407,-0.5149837601009009 l 13.394827378331213 -10.17934695134398" fill="#ffd513" stroke="none" /><path d="M 83.28015986056508 112.70617746262583 l -9.37832883942065 7.127024513559009 a32.77911415333004,32.77911415333004 0 0,0 -0.33752924397015704,-0.4521755805387556 l 9.499619350085892 -6.964536053510946" fill="#ff940d" stroke="none" /><path d="M 83.06392112726016 112.41649034213515 l -4.106830705360824 3.0108754318553452 a26.092291164951646,26.092291164951646 0 0,0 -0.2624390074884376,-0.3645048278371898 l 4.15804950522487 -2.939736998567017" fill="#ff3805" stroke="none" /><path d="M 82.24976979558568 111.22182372390057 l -16.771103768952372 10.602812920343068 a40.84161191669574,40.84161191669574 0 0,0 -0.3705605353851966,-0.5974615720840512 l 16.951128944005525 -10.312555016893752" fill="#fffb17" stroke="none" /><line stroke="#e1ed5e" stroke-width="0.3" x1="26.63291911575756" x2="22.317208475507996" y1="142.92168965132927" y2="145.44649492493687" /><path d="M 25.769776987707644 143.4266507060508 a86.0,86.0 0 0,1 -11.730757126820373,-40.83630448921669" fill="none" id="id105" stroke="none" /><text fill="#e1ed5e" style="font-size:6.75px; font-family:Arial;" text-anchor="middle"><textPath startOffset="21.46611528233685" xlink:href="#id105">September</textPath></text><path d="M 81.87401531095188 110.60418214915194 l -12.12727172059078 7.094775842721799 a35.0501446129038,35.0501446129038 0 0,0 -0.3001761211048218,-0.5233823690668098 l 12.247599837847979 -6.884973627796682" fill="#ffb110" stroke="none" /><path d="M 81.35079622478065 109.6543875284942 l -10.621158518607386 5.498399908979328 a32.959992050016176,32.959992050016176 0 0,0 -0.25649360688798656,-0.5060862199447953 l 10.71423079528164 -5.314759477331848" fill="#ff960d" stroke="none" /><path d="M 81.02952815118164 109.00673069616217 l -11.006533829497243 5.225641559709277 a33.18405173373899,33.18405173373899 0 0,0 -0.24054547571311577,-0.5181135547559171 l 11.094853922050186 -5.035407937674533" fill="#ff990e" stroke="none" /><path d="M 80.87730276802145 108.67885076344099 l -4.7664485710035756 2.163256329247259 a26.23437770189068,26.23437770189068 0 0,0 -0.1830896161304284,-0.412818750127081 l 4.802979271865284 -2.0808892426274817" fill="#ff3a05" stroke="none" /><path d="M 80.73074385275274 108.34839909993369 l -5.52120378921264 2.3920597864385122 a27.017112372551495,27.017112372551495 0 0,0 -0.1812063699376701,-0.42831833103630457 l 5.561561140342617 -2.296666929736049" fill="#ff4506" stroke="none" /><path d="M 79.86692584326677 105.97154293290107 l -18.416558109028966 5.462418037513374 a40.20957114044434,40.20957114044434 0 0,0 -0.19110529845087423,-0.6652626145673106 l 18.507856044365944 -5.144597947441468" fill="#fff316" stroke="none" /><path d="M 79.58551787078972 104.9243191809786 l -11.682406492568468 2.8179945005330036 a33.017475378075055,33.017475378075055 0 0,0 -0.12851570246693733,-0.553642282659141 l 11.729182760965962 -2.6164835605252885" fill="#ff970d" stroke="none" /><path d="M 79.4281124754447 104.21870165774334 l -11.82555317011328 2.4250803774296528 a33.07164953998295,33.07164953998295 0 0,0 -0.10956175595723255,-0.5586530332156351 l 11.865544859046178 -2.221163617146063" fill="#ff980e" stroke="none" /><path d="M 79.35854240842038 103.8639653848113 l -13.751801512088749 2.574260310143156 a34.99067049759463,34.99067049759463 0 0,0 -0.1057277394290271,-0.5929773109222124 l 13.794075693856964 -2.3371642484877295" fill="#ffb110" stroke="none" /><path d="M 79.29508885075956 103.50808413554451 l -11.794838943864027 1.9984286376321823 a32.96294038819052,32.96294038819052 0 0,0 -0.08997037686402067,-0.560245622615697 l 11.827491075089338 -1.7951037853232716" fill="#ff960d" stroke="none" /><path d="M 79.18660465613746 102.79330883721812 l -12.18503828299717 1.6353206459307394 a33.29428450838494,33.29428450838494 0 0,0 -0.07134250255158893,-0.5686699398505454 l 12.211382294795607 -1.4253329517927855" fill="#ff9a0e" stroke="none" /><path d="M 79.07016306316243 101.71520430193888 l -11.98036251535348 0.9817930921838538 a33.020524267898914,33.020524267898914 0 0,0 -0.041548375517415144,-0.5668945735970569 l 11.995487449535231 -0.7754253820900363" fill="#ff970d" stroke="none" /><path d="M 79.04373962182676 101.35467743843564 l -11.955009770791845 0.7728087798354173 a32.97996210469462,32.97996210469462 0 0,0 -0.03174501817746671,-0.5668286246557018 l 11.966541139856844 -0.5669084388442778" fill="#ff960d" stroke="none" /><path d="M 79.0235259727143 100.99374915477108 l -2.471990647957424 0.11710922502105424 a23.474763086473935,23.474763086473935 0 0,0 -0.01564745785876172,-0.4037913594185867 l 2.4736402386673864 -0.07454061858847076" fill="#ff1202" stroke="none" /><path d="M 79.0095281055655 100.63252640178507 l -1.9471718526265571 0.058676032239447506 a22.948055723130246,22.948055723130246 0 0,0 -0.008499454234069665,-0.39493624029309005 l 1.9478933695456344 -0.025149976156228653" fill="#ff0b01" stroke="none" /><line stroke="#e1ed5e" stroke-width="0.3" x1="15.007084014347285" x2="10.007500721073583" y1="101.09737516637583" y2="101.16192664675087" /><path d="M 14.007167355692545 101.11028546245083 a86.0,86.0 0 0,1 10.666146001902534,-42.60595125391555" fill="none" id="id106" stroke="none" /><text fill="#e1ed5e" style="font-size:6.75px; font-family:Arial;" text-anchor="middle"><textPath startOffset="22.20632615414155" xlink:href="#id106">October</textPath></text><path d="M 79.00019446554 99.90962569577889 l -1.9400009933484241 -0.008348945883067409 a22.940018958435775,22.940018958435775 0 0,0 0.0050981383427852415,-0.3948564329942814 l 1.9395698478879233 0.04174163693782079" fill="#ff0b01" stroke="none" /><path d="M 79.08570108090925 98.10471618934814 l -28.134355134772125 -2.549575676256121 a49.24964203274858,49.24964203274858 0 0,0 0.0837780367871955,-0.8436333972965365 l 28.0862999723027 3.0334846042570875" fill="#a1ff22" stroke="none" /><path d="M 79.12142395522702 97.74499172005258 l -8.14777422897923 -0.880007252893581 a29.195159403670157,29.195159403670157 0 0,0 0.05826470593389371,-0.4991764187853126 l 8.131419170041749 1.0201274100037554" fill="#ff6309" stroke="none" /><path d="M 79.16333360222342 97.38593545837743 l -13.830922325720987 -1.735158731219169 a34.93933958990358,34.93933958990358 0 0,0 0.08000110655998031,-0.5961011674017399 l 13.799005220103174 1.9729782406855683" fill="#ffb010" stroke="none" /><path d="M 79.21141760316559 97.0276538004421 l -7.775718745093602 -1.1117702794553956 a28.854796951995663,28.854796951995663 0 0,0 0.07453346098339764,-0.4910823829709146 l 7.755429390670902 1.2454517748184024" fill="#ff5f08" stroke="none" /><path d="M 79.26566170972629 96.67025291283419 l -11.73467970094585 -1.884483363106757 a32.88503198269221,32.88503198269221 0 0,0 0.09456504120393867,-0.5581282262057157 l 11.70050279822169 2.0861973776283005" fill="#ff950d" stroke="none" /><path d="M 79.46518482838121 95.60439243477599 l -1.573981774180632 -0.33692079214208415 a22.609637923767473,22.609637923767473 0 0,0 0.08473835297390939,-0.3798654208607762 l 1.5679490342046851 0.36396438255281954" fill="#ff0600" stroke="none" /><path d="M 79.54389044137918 95.25157060432595 l -53.18913186977346 -12.3466701513816 a75.6033333495966,75.6033333495966 0 0,0 0.30517537423778374,-1.2651489464202803 l 52.96872369527486 13.260404329461277" fill="#43ffdb" stroke="none" /><path d="M 79.91906864156998 93.8553929516997 l -23.53446974762648 -7.201362631448284 a45.61160072103328,45.61160072103328 0 0,0 0.23619102166507658,-0.7487900836952883 l 23.4070232421932 7.6054028815699874" fill="#cbff1d" stroke="none" /><path d="M 80.02781315780177 93.51064311812611 l -5.729116710951605 -1.8615028614052616 a27.0239497998178,27.0239497998178 0 0,0 0.1475542484296609,-0.4411684217454509 l 5.696225168750171 1.9598443860730346" fill="#ff4506" stroke="none" /><path d="M 80.2630227832202 92.82701384747504 l -54.28247026641208 -19.727813599277642 a78.75615298504356,78.75615298504356 0 0,0 0.4740198268844453,-1.2701374682196105 l 53.93484585102601 20.659274204526593" fill="#46fffb" stroke="none" /><path d="M 80.95270993114464 91.15688171328213 l -2.3713343159300786 -1.1009434821077977 a23.614441238334344,23.614441238334344 0 0,0 0.17434407719091344,-0.3672130898470982 l 2.3520320448974137 1.1415989875954282" fill="#ff1402" stroke="none" /><path d="M 81.26839172434947 90.50648371742162 l -44.566689663546 -22.587200615949136 a70.96370141644783,70.96370141644783 0 0,0 0.5615951315931373,-1.0848230420977438 l 44.17128509879275 23.35099638030722" fill="#3dffab" stroke="none" /><path d="M 81.6062741919709 89.86733742301443 l -5.313286455278506 -2.926962127635062 a27.066145419659506,27.066145419659506 0 0,0 0.22831242098859805,-0.4061423211541815 l 5.262116392997477 3.017987958724028" fill="#ff4606" stroke="none" /><line stroke="#e1ed5e" stroke-width="0.3" x1="26.266209847984243" x2="21.928928074336255" y1="57.711370442889674" y2="55.22380399835377" /><path d="M 25.398753493254645 57.213857153982495 a86.0,86.0 0 0,1 29.58750427330803,-30.492523968695096" fill="none" id="id107" stroke="none" /><text fill="#e1ed5e" style="font-size:6.75px; font-family:Arial;" text-anchor="middle"><textPath startOffset="21.46611528233685" xlink:href="#id107">November</textPath></text><path d="M 81.78341655067845 89.55222093294921 l -10.477493171873471 -6.009169290213099 a33.07840961075155,33.07840961075155 0 0,0 0.28753065039764375,-0.4914830859593034 l 10.372502847005503 6.188631788526294" fill="#ff980e" stroke="none" /><path d="M 81.96595687620814 89.24020034530311 l -1.5337591301072582 -0.9150993399114348 a22.78600780264077,22.78600780264077 0 0,0 0.20386337553539016,-0.33509778711478694 l 1.517779956285651 0.9413649002332961" fill="#ff0801" stroke="none" /><path d="M 82.15384107792192 88.93136811851018 l -5.77581758320543 -3.5823058016168767 a27.796542033325693,27.796542033325693 0 0,0 0.2556916590775076,-0.4044428001758737 l 5.71329832788196 3.6811962495069657" fill="#ff5007" stroke="none" /><path d="M 82.34701348167596 88.62581576622439 l -33.13555632215332 -21.349924099562582 a60.418071386556676,60.418071386556676 0 0,0 0.5708166022989624,-0.8693928467773914 l 32.76314308449644 21.91713501031764" fill="#30ff32" stroke="none" /><path d="M 82.95767976084542 87.72973835380427 l -1.9770005305366287 -1.423416145450603 a23.43611260430867,23.43611260430867 0 0,0 0.2385320705181544,-0.32535747611903293 l 1.952205847504841 1.4572360652411365" fill="#ff1202" stroke="none" /><path d="M 84.07557802195018 86.31012108654704 l -37.97780360767173 -32.64869101714134 a71.08243795978436,71.08243795978436 0 0,0 0.8056285043405632,-0.9209726474298442 l 37.41018323975332 33.297579220774125" fill="#3dffac" stroke="none" /><path d="M 84.5562425177563 85.77008943001954 l -2.7187552148511243 -2.5050667632847916 a24.69688915262472,24.69688915262472 0 0,0 0.29075609734296226,-0.3101583322628512 l 2.675231795537706 2.551494512425693" fill="#ff2403" stroke="none" /><path d="M 85.31137513191541 84.99185889309783 l -16.90289710307109 -17.270579589076213 a45.16569572388978,45.16569572388978 0 0,0 0.5603057404750389,-0.5390136784073253 l 16.603108118983624 17.558976354245853" fill="#d0ff1d" stroke="none" /><path d="M 86.37877921826538 84.01681056812374 l -12.549466667821706 -14.725589301788558 a40.34766378485314,40.34766378485314 0 0,0 0.5324786152038049,-0.44593552696800026 l 12.294130515658791 14.93942598615037" fill="#fff417" stroke="none" /><path d="M 86.65592168130627 83.78471172551755 l -7.5119188313809415 -9.128238491729658 a32.82174532339242,32.82174532339242 0 0,0 0.43933719350414807,-0.3552467899598339 l 7.353678239312293 9.256191378953625" fill="#ff940d" stroke="none" /><path d="M 87.51073957382395 83.11751280151077 l -0.976429046799537 -1.3198980820574868 a22.64181138699087,22.64181138699087 0 0,0 0.31531922792189326,-0.22909282898307157 l 0.953564502523862 1.3365101458572262" fill="#ff0601" stroke="none" /><path d="M 87.80319425747018 82.90503203632743 l -29.058321128232887 -40.72796429257684 a71.03152108630039,71.03152108630039 0 0,0 1.0014391191266743,-0.7015721007062534 l 28.352950869522555 41.22212123604704" fill="#3dffac" stroke="none" /><line stroke="#e1ed5e" stroke-width="0.3" x1="56.762969772571076" x2="54.21961505331055" y1="26.818313649435495" y2="22.513508569990535" /><path d="M 56.25429882871897 25.957352633546506 a86.0,86.0 0 0,1 42.265352541879196,-11.944610805530505" fill="none" id="id108" stroke="none" /><text fill="#e1ed5e" style="font-size:6.75px; font-family:Arial;" text-anchor="middle"><textPath startOffset="22.20632615414155" xlink:href="#id108">December</textPath></text><path d="M 90.58718382345135 81.22770947309562 l -1.2044772952526868 -2.402128894844098 a23.687189755529772,23.687189755529772 0 0,0 0.366055889497414,-0.17962203521310677 l 1.1629501387448469 2.4225060901920346" fill="#ff1502" stroke="none" /><path d="M 91.56875222667455 80.76684994638697 l -10.795115221559227 -24.62554493525454 a47.8877662888716,47.8877662888716 0 0,0 0.7578039305206555,-0.3244520948756394 l 10.369627533248263 24.807716558092963" fill="#b1ff20" stroke="none" /><path d="M 91.90106846888425 80.62456947434976 l -24.29679459334727 -58.12629157695071 a84.0,84.0 0 0,0 1.338864521646478,-0.5461564552656921 l 23.29264620211241 58.53590891839998" fill="#4dd2ff" stroke="none" /></svg>