<?xml version="1.0" encoding="utf-8" ?>
<svg baseProfile="full" height="200mm" version="1.1" viewBox="0,0,200,200" width="200mm" xmlns="http://www.w3.org/2000/svg" xmlns:ev="http://www.w3.org/2001/xml-events" xmlns:xlink="http://www.w3.org/1999/xlink"><defs /><rect fill="#1a1a1a" height="200" width="200" x="0" y="0" /><text alignment-baseline="middle" fill="#e1ed5e" style="dominant-baseline: central; font-size:9.0px; font-family:Arial;" text-anchor="middle" x="100.0" y="100.0">2021</text><line stroke="#e1ed5e" stroke-width="0.3" x1="100.0" x2="100.0" y1="15.0" y2="10.0" /><path d="M 100.0 14.0 a86.0,86.0 0 0,1 42.46469731375804,11.215312516191453" fill="none" id="id85" stroke="none" /><text fill="#e1ed5e" style="font-size:6.75px; font-family:Arial;" text-anchor="middle"><textPath startOffset="22.20632615414155" xlink:href="#id85">January</textPath></text><path d="M 100.0 79.0 l 0.0 -6.334365130357483 a27.334365130357483,27.334365130357483 0 0,0 0.47051616228247195,0.004049881156019118 l -0.10903568300994355 6.333426625810023" fill="#ff4906" stroke="none" /><path d="M 101.44485096284872 79.0497635885617 l 1.2574197453230027 -18.2324970604499 a39.27580513890544,39.27580513890544 0 0,0 0.6740659758454522,0.05232049290942083 l -1.571075910530796 18.20815130535202" fill="#ffe715" stroke="none" /><path d="M 102.52436894288641 79.15227682838746 l 1.473789768794277 -12.171422564661356 a33.2603255882603,33.2603255882603 0 0,0 0.5677779451630918,0.07371387261830503 l -1.6830824424652149 12.144250368878913" fill="#ff990e" stroke="none" /><path d="M 103.2404852339499 79.25152402106235 l 0.2446159174589994 -1.5662492253597802 a22.58523612847248,22.58523612847248 0 0,0 0.38359495711824937,0.06329645469293375 l -0.27154008071612395 1.5618065077272218" fill="#ff0400" stroke="none" /><path d="M 103.59715602781102 79.31037775812273 l 2.0990174997620024 -12.07283721178829 a33.25394927387278,33.25394927387278 0 0,0 0.5631079335421812,0.10290437555950382 l -2.3065205544070846 12.034917354878047" fill="#ff990e" stroke="none" /><path d="M 103.95276090670814 79.375362276772 l 2.3139096826635615 -12.073472202230862 a33.293205807988635,33.293205807988635 0 0,0 0.561915736898827,0.11271501059310966 l -2.521391829029514 12.031853235560543" fill="#ff9a0e" stroke="none" /><path d="M 104.307194497241 79.44645832069477 l 2.5283003411993255 -12.064820029355245 a33.32688869731694,33.32688869731694 0 0,0 0.5604587249896681,0.12249456942353164 l -2.7356017903425216 12.019511961835843" fill="#ff9a0e" stroke="none" /><path d="M 104.66035177308747 79.52364482259891 l 2.7342774551573337 -12.013693182707959 a33.32092111370028,33.32092111370028 0 0,0 0.5581671798280995,0.13210013780700897 l -2.940668321947957 11.964847132760081" fill="#ff9a0e" stroke="none" /><path d="M 105.01212808612495 79.60689891045804 l 2.9372062636583984 -11.95076087968281 a33.306415653578064,33.306415653578064 0 0,0 0.555568635867159,0.14162681553423048 l -3.1424837882105825 11.898431067979713" fill="#ff9a0e" stroke="none" /><path d="M 105.71112130821622 79.79150937346287 l 1.835667519738854 -6.495409196213989 a27.749815987809257,27.749815987809257 0 0,0 0.45854560019736434,0.13386203484588363 l -1.9472033376596454 6.462848832449401" fill="#ff4e07" stroke="none" /><path d="M 106.0581310904928 79.89281104454417 l 3.55944669533916 -11.813951565421723 a33.33852148221541,33.33852148221541 0 0,0 0.5480450127551765,0.1702802532094579 l -3.7622770808050547 11.750931177329743" fill="#ff9a0e" stroke="none" /><path d="M 106.40334571778207 80.00007090966166 l 5.578966964660473 -17.42510065959663 a39.29642056222604,39.29642056222604 0 0,0 0.6424350573046894,0.21180073778005412 l -5.87808484420758 17.32648619755734" fill="#ffe715" stroke="none" /><path d="M 106.74666289553966 80.11325718540242 l 7.3994492678533135 -21.81092294632736 a44.031895476451005,44.031895476451005 0 0,0 0.7156608724436982,0.24968002602601538 l -7.773792144360285 21.680322067129136" fill="#deff1b" stroke="none" /><path d="M 107.08798089147638 80.2323363322302 l 4.133611183269773 -11.528224589667136 a33.24690587880298,33.24690587880298 0 0,0 0.5370446708316953,0.1977980845737303 l -4.331438179874045 11.45536323728708" fill="#ff990e" stroke="none" /><path d="M 107.4271985657038 80.35727306442388 l 6.495993971490984 -17.1799682785315 a39.36706965547297,39.36706965547297 0 0,0 0.6317792961202452,0.245120551614388 l -6.7907564326108965 17.065605023026567" fill="#ffe815" stroke="none" /><path d="M 107.76421540070413 80.48803036053334 l 3.6826133657144187 -9.254642803855925 a30.96042442008877,30.96042442008877 0 0,0 0.4934739741806336,0.20130042446186627 l -3.84137120948344 9.189881493210478" fill="#ff7b0b" stroke="none" /><path d="M 108.43124777332544 80.76684994638697 l 4.905237535031001 -11.189704311424304 a33.217644529621275,33.217644529621275 0 0,0 0.5217034832515827,0.23407314564346238 l -5.097123136749365 11.103610835264309" fill="#ff990e" stroke="none" /><path d="M 108.76106565485865 80.91482961587045 l 5.1182902806181625 -11.149721498418325 a33.2683815105727,33.2683815105727 0 0,0 0.5183875859550944,0.24338992242456395 l -5.309456077872855 11.059966593353758" fill="#ff990e" stroke="none" /><path d="M 109.08828744355905 81.06846463323043 l 5.317043326372536 -11.075771360115397 a33.28591311039091,33.28591311039091 0 0,0 0.5143921527674294,0.25240999538238557 l -5.506906746150397 10.982606204598179" fill="#ff9a0e" stroke="none" /><path d="M 109.41281617654863 81.2277094730956 l 5.500516648093958 -10.969862220761573 a33.27165679680013,33.27165679680013 0 0,0 0.5097526969007972,0.2611151302547527 l -5.688529832583511 10.87355456519432" fill="#ff990e" stroke="none" /><path d="M 109.73455568895987 81.39251694778311 l 5.69510064368087 -10.886114589507715 a33.285831766614216,33.285831766614216 0 0,0 0.5053977304385828,0.269965964568481 l -5.881643420647764 10.78646989843748" fill="#ff9a0e" stroke="none" /><path d="M 110.05341064243156 81.56283822128135 l 2.1219192591339464 -3.8914324753543696 a25.432356941010752,25.432356941010752 0 0,0 0.3825461388469963,0.21288651209443685 l -2.188589487052978 3.854330565699753" fill="#ff2e04" stroke="none" /><line stroke="#e1ed5e" stroke-width="0.3" x1="143.23703022742887" x2="145.7803849466894" y1="26.81831364943548" y2="22.513508569990506" /><path d="M 143.74570117128098 25.957352633546492 a86.0,86.0 0 0,1 28.547481713284135,27.462654790039103" fill="none" id="id86" stroke="none" /><text fill="#e1ed5e" style="font-size:6.75px; font-family:Arial;" text-anchor="middle"><textPath startOffset="19.985693538727396" xlink:href="#id86">February</textPath></text><path d="M 110.68208982089419 81.91981866633111 l 6.217933838768398 -10.524286278307828 a33.22388248025477,33.22388248025477 0 0,0 0.48987496778162476,0.29514418684000293 l -6.39817087276766 10.41569548200921" fill="#ff990e" stroke="none" /><path d="M 110.99172775467656 82.1063720568725 l 9.628344788454504 -15.674152708108554 a39.395219120262354,39.395219120262354 0 0,0 0.5747590774545905,0.3599140815735655 l -9.896723018281357 15.506094285212045" fill="#ffe815" stroke="none" /><path d="M 111.2981086023043 82.29822771554956 l 15.072588402556255 -23.61559239967672 a49.01569427197089,49.01569427197089 0 0,0 0.7073034104039886,0.46004981305110104 l -15.476858838744525 23.352643662466093" fill="#a4ff21" stroke="none" /><path d="M 111.60114157652 82.49532879139004 l 3.3675610656768846 -5.081228329192814 a27.095846853756616,27.095846853756616 0 0,0 0.38656135802213115,0.26100795450926295 l -3.454527118105558 5.022508462384881" fill="#ff4506" stroke="none" /><path d="M 111.90073688211348 82.69761687909136 l 10.407324973438628 -15.13112387392404 a39.36473040343346,39.36473040343346 0 0,0 0.5549843271972074,0.38880198791349696 l -10.666240440219486 14.949737043246607" fill="#ffe815" stroke="none" /><path d="M 112.19680574252982 82.90503203632743 l 2.7413328104448222 -3.8422352181037995 a25.719923415571323,25.719923415571323 0 0,0 0.3581862888526521,0.2602375717998627 l -2.807064415651263 3.7944784114872623" fill="#ff3204" stroke="none" /><path d="M 112.77801427241765 83.33499621200491 l 7.500812782637089 -9.782511646235504 a33.327194591994775,33.327194591994775 0 0,0 0.45224597555167634,0.3529851573248825 l -7.668091313348196 9.651948099687397" fill="#ff9a0e" stroke="none" /><path d="M 113.06298171725822 83.55741782278167 l 7.625886710220085 -9.598824496653181 a33.259346631638266,33.259346631638266 0 0,0 0.4451947287675741,0.3599831761119136 l -7.78998483755215 9.466135223277137" fill="#ff990e" stroke="none" /><path d="M 113.34407831869373 83.78471172551755 l 23.329101108990347 -28.34876194760358 a57.713747595626785,57.713747595626785 0 0,0 0.7616633409510393,0.6378711437814389 l -23.813621986900504 27.942989646428323" fill="#48ff2c" stroke="none" /><path d="M 113.6212207817346 84.01681056812373 l 8.807698743342968 -10.334985368016483 a34.578935146417045,34.578935146417045 0 0,0 0.4497010297465646,0.3899763015686877 l -8.984293571736297 10.181844073028124" fill="#ffab0f" stroke="none" /><path d="M 113.89432698308785 84.25364557470407 l 9.55164617829382 -10.824821256294674 a35.4364365390509,35.4364365390509 0 0,0 0.45390533655984167,0.40752069285069903 l -9.736562502449653 10.658801554674678" fill="#ffb610" stroke="none" /><path d="M 114.42810811169701 84.74124197986012 l 4.26166890078123 -4.507020186954216 a27.20282619339755,27.20282619339755 0 0,0 0.337466287832337,0.32464230152051876 l -4.338618432225986 4.4329947986713965" fill="#ff4706" stroke="none" /><path d="M 114.68862486808459 84.99185889309783 l 8.591661610462832 -8.778552856418283 a33.283307351101755,33.283307351101755 0 0,0 0.405999609303812,0.4042561179552105 l -8.741497019933966 8.629360887812956" fill="#ff9a0e" stroke="none" /><path d="M 114.94478906791727 85.2469230424477 l 8.764509863159663 -8.652078521737252 a33.31564435536079,33.31564435536079 0 0,0 0.399368488666767,0.41158433305234854 l -8.912142615529538 8.499929993134788" fill="#ff9a0e" stroke="none" /><path d="M 115.19652480421416 85.50635884689758 l 8.930723412476857 -8.517651373961174 a33.34132106374779,33.34132106374779 0 0,0 0.3925268616968086,0.41872028791419996 l -9.076017596144128 8.362661669168919" fill="#ff9a0e" stroke="none" /><path d="M 115.4437574822437 85.77008943001954 l 13.42539831053705 -12.37019019140633 a39.2554902746581,39.2554902746581 0 0,0 0.45359973123243585,0.5008761525458078 l -13.636341682385522 12.137261251590973" fill="#ffe615" stroke="none" /><path d="M 115.68641384162765 86.03803664274999 l 9.222538704976118 -8.208679737747863 a33.34656402412003,33.34656402412003 0 0,0 0.3779406456887037,0.4320514916688328 l -9.362471214242671 8.048712689876083" fill="#ff9a0e" stroke="none" /><path d="M 116.38621287248628 86.86637796730983 l 9.335580294919254 -7.482508862994899 a32.964154726836405,32.964154726836405 0 0,0 0.35106184244410255,0.4458128890157353 l -9.46299621795732 7.320703580026125" fill="#ff950d" stroke="none" /><path d="M 116.60985879189232 87.15038557335679 l 9.74432839961722 -7.538346011875133 a33.319845638413675,33.319845638413675 0 0,0 0.34704056710189063,0.4566647066680666 l -9.872644906943226 7.369496529326033" fill="#ff9a0e" stroke="none" /><path d="M 116.82858285166822 87.43820079747576 l 9.823904189463944 -7.333113720900722 a33.259023222403556,33.259023222403556 0 0,0 0.33850936828119843,0.46172639791107506 l -9.948676170258768 7.162924879318154" fill="#ff990e" stroke="none" /><path d="M 117.04232023915458 87.72973835380427 l 9.979938246977156 -7.185433191305906 a33.29754518431211,33.29754518431211 0 0,0 0.3308941653083776,0.46802633059112636 l -10.102145032089417 7.012580360382986" fill="#ff9a0e" stroke="none" /><path d="M 117.2510076193507 88.02491185347247 l 10.133289608440124 -7.034199911850091 a33.335458106142326,33.335458106142326 0 0,0 0.3231563664826418,0.4741920924120661 l -10.252870440591499 6.858729796167618" fill="#ff9a0e" stroke="none" /><line stroke="#e1ed5e" stroke-width="0.3" x1="172.23445277983987" x2="176.4835382374775" y1="55.19839476539836" y2="52.563006222186495" /><path d="M 173.08426987136738 54.67131705675599 a86.0,86.0 0 0,1 12.851231095245387,41.99856678651699" fill="none" id="id87" stroke="none" /><text fill="#e1ed5e" style="font-size:6.75px; font-family:Arial;" text-anchor="middle"><textPath startOffset="22.20632615414155" xlink:href="#id87">March</textPath></text><path d="M 117.84615892207809 88.93136811851018 l 10.684554470030484 -6.626826577241017 a33.57276957189132,33.57276957189132 0 0,0 0.3003710957302549,0.4937311041187017 l -10.797041364046962 6.441927699915234" fill="#ff9d0e" stroke="none" /><path d="M 118.03404312379186 89.2402003453031 l 15.926299383911324 -9.502239150439456 a39.54560759150583,39.54560759150583 0 0,0 0.3437460991915319,0.5875735104535194 l -16.087505157573183 9.226686227632042" fill="#ffea16" stroke="none" /><path d="M 118.21658344932153 89.55222093294921 l 10.775659655245049 -6.18017707288169 a33.422134665903776,33.422134665903776 0 0,0 0.2819274175123875,0.5015174174479166 l -10.880444714049869 5.9937761454989795" fill="#ff9b0e" stroke="none" /><path d="M 118.3937258080291 89.86733742301442 l 10.861830415333236 -5.983521974594652 a33.40088283921412,33.40088283921412 0 0,0 0.2730790982117158,0.5059740954589785 l -10.963217612763415 5.7956668958032145" fill="#ff9b0e" stroke="none" /><path d="M 118.56541770881063 90.18545643968196 l 9.400738394752233 -4.969667686532268 a31.63350738379072,31.63350738379072 0 0,0 0.2503424058688488,0.4835818457512198 l -9.484890233781199 4.807113118520704" fill="#ff840c" stroke="none" /><path d="M 118.89224826269711 90.83032412892265 l 11.492705750497564 -5.578181333865467 a33.77491262048414,33.77491262048414 0 0,0 0.24935825978651066,0.5252120893951012 l -11.58702220412583 5.3795268288298255" fill="#ffa00e" stroke="none" /><path d="M 119.04729006885535 91.15688171328212 l 10.857077462442271 -5.040634121775915 a32.97013464314765,32.97013464314765 0 0,0 0.23455532024251172,0.5168115566684789 l -10.94223509964813 4.853000556265374" fill="#ff950d" stroke="none" /><path d="M 119.196687751892 91.48605970444005 l 11.343786326543421 -5.031092903006723 a33.40940707773575,33.40940707773575 0 0,0 0.2286305797961106,0.5277109003113979 l -11.428707616182214 4.835082858108722" fill="#ff9b0e" stroke="none" /><path d="M 119.34039704204932 91.81776055985345 l 11.365282648016818 -4.808249992429458 a33.34053960161427,33.34053960161427 0 0,0 0.21906054345403184,0.5304724817003822 l -11.446364878357047 4.6119029402757725" fill="#ff9a0e" stroke="none" /><path d="M 119.47837535516314 92.15188598940014 l 11.456851146757616 -4.616128006712415 a33.35184504328467,33.35184504328467 0 0,0 0.20996804943182246,0.5343457834940346 l -11.53461274607114 4.418233218322596" fill="#ff9b0e" stroke="none" /><path d="M 119.85752413597 93.16781622104841 l 5.506106802580847 -1.8944322224755659 a26.822893229914214,26.822893229914214 0 0,0 0.14645645364823007,0.43788615507893147 l -5.537900550000847 1.7993729644743204" fill="#ff4106" stroke="none" /><path d="M 120.08093135843002 93.85539295169968 l 17.583831862151968 -5.380514243476502 a39.38861268504735,39.38861268504735 0 0,0 0.19280557642733645,0.6500445549266796 l -17.673843335691007 5.077040301803292" fill="#ffe815" stroke="none" /><path d="M 120.18372546131832 94.20196356495316 l 11.880132982030563 -3.412721997979252 a33.360591859058445,33.360591859058445 0 0,0 0.1537974587472831,0.5532912883697043 l -11.93711721134421 3.207719406190596" fill="#ff9b0e" stroke="none" /><path d="M 120.37134235888165 94.90015583598534 l 11.988002785749435 -3.0011250593135634 a33.357951384140335,33.357951384140335 0 0,0 0.13465048227949042,0.5582131789511652 l -12.037886068289744 2.794326648702992" fill="#ff9b0e" stroke="none" /><path d="M 120.45610955862082 95.25157060432595 l 6.329338355777763 -1.469214672399746 a27.497623856111883,27.497623856111883 0 0,0 0.10305796864679433,0.4619886658066655 l -6.353690711426595 1.3600478370431166" fill="#ff4b07" stroke="none" /><path d="M 120.53481517161879 95.60439243477599 l 2.8106605240478033 -0.6016397303568765 a23.87433173913252,23.87433173913252 0 0,0 0.08256051335498761,0.4025943838884445 l -2.820600333317788 0.5531696903050202" fill="#ff1702" stroke="none" /><path d="M 120.6074358757038 95.95851677861258 l 12.192519874830552 -2.391169129326603 a33.42478292378513,33.42478292378513 0 0,0 0.10586786855455547,0.5655503870893255 l -12.231873467294967 2.1809406647747145" fill="#ff9c0e" stroke="none" /><path d="M 120.73433829027371 96.67025291283417 l 7.183741749876354 -1.1536439133831933 a28.27578448057683,28.27578448057683 0 0,0 0.07303784125960953,0.48122811767468326 l -7.202535484575264 1.029816683316428" fill="#ff5607" stroke="none" /><path d="M 120.83666639777658 97.38593545837742 l 15.04166688030662 -1.8870527217781792 a36.15957487902888,36.15957487902888 0 0,0 0.07216357232001878,0.6182534180869845 l -15.071920805630228 1.6278555653663418" fill="#ffbf11" stroke="none" /><path d="M 120.98425023603335 99.18683210126433 l 1.279756825083405 -0.04959229691984543 a22.280717348700072,22.280717348700072 0 0,0 0.011552345630478867,0.3833661102319554 l -1.280420865169529 0.02755603926289099" fill="#ff0000" stroke="none" /><line stroke="#e1ed5e" stroke-width="0.3" x1="184.98032266829074" x2="189.97916517819016" y1="98.17113171792111" y2="98.06355123074" /><path d="M 185.9800911702706 98.14961562048488 a86.0,86.0 0 0,1 -9.607161424134198,41.387399972396054" fill="none" id="id88" stroke="none" /><text fill="#e1ed5e" style="font-size:6.75px; font-family:Arial;" text-anchor="middle"><textPath startOffset="21.466115282336823" xlink:href="#id88">April</textPath></text><path d="M 120.99824983174949 100.27111621757518 l 12.439179563902208 0.16060687629330522 a33.440216348268024,33.440216348268024 0 0,0 -0.012385519359838932,0.5755064166879028 l -12.434571981857362 -0.3747031087713229" fill="#ff9c0e" stroke="none" /><path d="M 120.9904718944345 100.63252640178507 l 12.58653700574173 0.37928241933843065 a33.59225035291648,33.59225035291648 0 0,0 -0.02239142179377369,0.5778231024512006 l -12.578143451096754 -0.5958827688036374" fill="#ff9e0e" stroke="none" /><path d="M 120.95626037817324 101.35467743843564 l 12.39208717589791 0.8010628141364928 a33.41795177181993,33.41795177181993 0 0,0 -0.04204844229527032,0.5737175874760209 l -12.376462174938302 -1.0142535381092839" fill="#ff9b0e" stroke="none" /><path d="M 120.89721153311464 102.0752229133903 l 3.142500783477096 0.3120698482132201 a24.157958005470938,24.157958005470938 0 0,0 -0.04465506334317242,0.41345042680566685 l -3.136663418632872 -0.3661165969036783" fill="#ff1b02" stroke="none" /><path d="M 120.76222939487914 103.15116336523771 l 12.493540518366048 1.8961926696223714 a33.63661747954664,33.63661747954664 0 0,0 -0.09180913824514447,0.5716955914911808 l -12.459049625759615 -2.110967490806757" fill="#ff9e0e" stroke="none" /><path d="M 120.70491114924044 103.5080841355445 l 12.855383452417227 2.1781193080570436 a34.038599902934884,34.038599902934884 0 0,0 -0.1028509648397221,0.5768428312737438 l -12.815986045238317 -2.3990808900640057" fill="#ffa40f" stroke="none" /><path d="M 120.64145759157962 103.86396538481128 l 12.410578200459307 2.3231908095303493 a33.626150118195255,33.626150118195255 0 0,0 -0.11139873892824875,0.5680197698086842 l -12.368749528555394 -2.536474306406978" fill="#ff9e0e" stroke="none" /><path d="M 120.5718875245553 104.21870165774334 l 10.64726344864046 2.1834470904818217 a31.868838950950035,31.868838950950035 0 0,0 -0.11482792066474025,0.5364378171625024 l -10.608101489251275 -2.3663987270604934" fill="#ff870c" stroke="none" /><path d="M 120.49622156327973 104.57218783832717 l 22.20875110672971 4.954209799163398 a43.75462195807249,43.75462195807249 0 0,0 -0.17030847794168819,0.7336844655858109 l -22.12018206285747 -5.335762922097774" fill="#e1ff1b" stroke="none" /><path d="M 120.41448212921028 104.9243191809786 l 18.515223929228437 4.46618590458168 a40.04626823510993,40.04626823510993 0 0,0 -0.1674099645594168,0.668719590765592 l -18.43560265037396 -4.784233334744668" fill="#fff016" stroke="none" /><path d="M 120.32669344350535 105.2749913415812 l 5.971564569894235 1.5496839901400612 a27.16936819145304,27.16936819145304 0 0,0 -0.12137193783898756,0.4516701321680054 l -5.9440045557134695 -1.6522450554836148" fill="#ff4606" stroke="none" /><path d="M 120.23288151984713 105.62410040840565 l 24.73633803899237 6.875918723247115 a46.67420257511421,46.67420257511421 0 0,0 -0.22182995640315134,0.7722191795956296 l -24.614315445703117 -7.300695378347327" fill="#bfff1e" stroke="none" /><path d="M 120.13307415673323 105.97154293290107 l 10.58975349190582 3.140959355410008 a32.0457459997806,32.0457459997806 0 0,0 -0.16140866580216578,0.5274928588843792 l -10.53411805359752 -3.3227791868464447" fill="#ff890c" stroke="none" /><path d="M 119.79798401119884 107.00284435728193 l 7.024795707108801 2.4847757706420284 a28.451299575039506,28.451299575039506 0 0,0 -0.16728786858998484,0.4603043670789618 l -6.980983577513589 -2.6053279347271214" fill="#ff5808" stroke="none" /><path d="M 119.54520255179757 107.68017299344265 l 46.882030907412464 18.422019761557184 a71.37157565630423,71.37157565630423 0 0,0 -0.45914825178559193,1.1395683064577748 l -46.557980041369476 -19.226287435857774" fill="#3dffaf" stroke="none" /><path d="M 118.64920377521936 109.65438752849418 l 10.91895132441498 5.652562370021457 a33.29532266237557,33.29532266237557 0 0,0 -0.2678648215072013,0.5066992947979803 l -10.820033994682886 -5.839676679905571" fill="#ff9a0e" stroke="none" /><line stroke="#e1ed5e" stroke-width="0.3" x1="174.80103733775053" x2="179.2010983576182" y1="140.37084112569926" y2="142.7455964860345" /><path d="M 175.68104954172406 140.8457921977663 a86.0,86.0 0 0,1 -30.038265399797805,32.042727171017184" fill="none" id="id89" stroke="none" /><text fill="#e1ed5e" style="font-size:6.75px; font-family:Arial;" text-anchor="middle"><textPath startOffset="22.206326154141568" xlink:href="#id89">May</textPath></text><path d="M 117.94076556474637 110.91462005526583 l 43.65112627435744 26.556027196812554 a72.09445572170964,72.09445572170964 0 0,0 -0.6541210999465733,1.0546514898063355 l -43.1875405347429 -27.303475017984166" fill="#3effb7" stroke="none" /><path d="M 116.498646956653 112.99209946851258 l 4.50264357291048 3.5456721587052593 a26.731107240463196,26.731107240463196 0 0,0 -0.2877821208575967,0.3590524442937892 l -4.440943539998029 -3.6226524365772987" fill="#ff4006" stroke="none" /><path d="M 116.0416608686014 113.55231037782055 l 9.3697333089729 7.915734848200621 a33.26583712872032,33.26583712872032 0 0,0 -0.37330208070387816,0.4342346558354743 l -9.232088718698243 -8.075846603197624" fill="#ff990e" stroke="none" /><path d="M 115.80600337817218 113.82643327865902 l 9.352508207043716 8.181184554938051 a33.42582755734108,33.42582755734108 0 0,0 -0.38255246888512523,0.4298017542033167 l -9.210296888510253 -8.340960478882234" fill="#ff9c0e" stroke="none" /><path d="M 115.32070863581623 114.36230785411682 l 36.65196121808041 34.359164643377234 a71.23861518913887,71.23861518913887 0 0,0 -0.8463603704059589,0.8874054646664782 l -36.055094296295486 -34.98497722462622" fill="#3dffae" stroke="none" /><path d="M 113.48314897796784 116.09983520530334 l 3.94398402602497 4.7093963713602065 a27.14275379452252,27.14275379452252 0 0,0 -0.36077873226705565,0.296896334964746 l -3.8623351652132234 -4.776587825182131" fill="#ff4606" stroke="none" /><path d="M 112.92097659922987 116.55440617244103 l 7.7537888898436576 9.934184902516042 a33.60195507949622,33.60195507949622 0 0,0 -0.45902074184569464,0.3519575311987185 l -7.5816394195044685 -10.066181775542132" fill="#ff9e0e" stroke="none" /><path d="M 112.63410532772338 116.77436683061366 l 3.8735681961035016 5.142956480049163 a27.43851938923416,27.43851938923416 0 0,0 -0.3797164820939563,0.28090517571410917 l -3.784466743590981 -5.208871604503041" fill="#ff4a06" stroke="none" /><path d="M 112.34349029814194 116.9893568818739 l 7.63322927854016 10.506238773793893 a33.98642531225329,33.98642531225329 0 0,0 -0.47625124730957535,0.3397926197004976 l -7.4512507033817 -10.63607565533861" fill="#ffa30f" stroke="none" /><path d="M 111.45004920935366 117.60387380957326 l 6.05389777863914 9.307562841228615 a32.10317091454651,32.10317091454651 0 0,0 -0.46582954236476226,0.297314453899165 l -5.892786434227447 -9.410391723951589" fill="#ff8a0c" stroke="none" /><path d="M 111.1453310114006 117.79835938074945 l 6.7359674673327365 10.756896285807006 a33.691890143890056,33.691890143890056 0 0,0 -0.4941810932339894,0.30356638997977586 l -6.549807174166439 -10.87125114261516" fill="#ff9f0e" stroke="none" /><line stroke="#e1ed5e" stroke-width="0.3" x1="143.8653032363475" x2="146.44561519142675" y1="172.8068346515853" y2="177.08958963109032" /><path d="M 144.38136562736335 173.6633856474863 a86.0,86.0 0 0,1 -40.68145358897372,12.25698825130547" fill="none" id="id90" stroke="none" /><text fill="#e1ed5e" style="font-size:6.75px; font-family:Arial;" text-anchor="middle"><textPath startOffset="21.466115282336833" xlink:href="#id90">June</textPath></text><path d="M 110.8373102113329 117.98757091392108 l 6.516684147519471 10.816274143795564 a33.62770599247037,33.62770599247037 0 0,0 -0.4983820251651517,0.29445288516102314 l -6.329534251325937 -10.926845601250337" fill="#ff9e0e" stroke="none" /><path d="M 110.5260780823613 118.17145234162733 l 6.479313741173038 11.185413972130148 a33.92652282264949,33.92652282264949 0 0,0 -0.5078497277798071,0.28837032949710567 l -6.285815246472032 -11.295287467421883" fill="#ffa20f" stroke="none" /><path d="M 110.21172684928248 118.3499491758327 l 0.6346451004559799 1.140424681343365 a22.30512177874323,22.30512177874323 0 0,0 -0.33710175386023294,0.18381475416420248 l -0.6149205347270983 -1.151180087267338" fill="#ff0000" stroke="none" /><path d="M 109.89434966115114 118.52300852407294 l 5.972798269401306 11.18155280999205 a33.67680726403949,33.67680726403949 0 0,0 -0.5136660828825546,0.2687258172058038 l -5.779441283992256 -11.28270804614257" fill="#ff9f0e" stroke="none" /><path d="M 108.92500713936063 119.00905698771935 l 5.406706433104512 11.515552771884416 a33.72165201912977,33.72165201912977 0 0,0 -0.5275543773275405,0.24217433972284938 l -5.207684060009552 -11.606914181941338" fill="#ff9f0e" stroke="none" /><path d="M 108.2653958097858 119.30500536409082 l 7.429935464101171 17.35366911521674 a39.877334895613195,39.877334895613195 0 0,0 -0.6333442527078492,0.26473794899762076 l -7.130119751895861 -17.478992107234333" fill="#ffee16" stroke="none" /><path d="M 107.59598834532513 119.57807347666477 l 4.300511849146408 11.084237250268197 a32.88926900969449,32.88926900969449 0 0,0 -0.5295638699811397,0.20023574264777122 l -4.109077758404993 -11.156621243022599" fill="#ff940d" stroke="none" /><path d="M 106.57524785965236 119.94407469862006 l 3.419023533280291 10.370599283794483 a31.91966352165501,31.91966352165501 0 0,0 -0.5232980391611983,0.1675435069320018 l -3.240004149028153 -10.427915637386192" fill="#ff870c" stroke="none" /><path d="M 106.2309692047433 120.05430185196036 l 3.7175078453742727 11.964755725548113 a33.52897618133483,33.52897618133483 0 0,0 -0.5526294160836622,0.16650270977778198 l -3.5110034548503646 -12.02697380443162" fill="#ff9d0e" stroke="none" /><path d="M 105.88484417918355 120.15858648285463 l 5.302242578694339 18.162879478401592 a39.920992767565366,39.920992767565366 0 0,0 -0.661298529626545,0.18688957000493361 l -4.988812880963188 -18.251457841745044" fill="#ffef16" stroke="none" /><path d="M 105.53697534728816 120.25689768951611 l 3.298455842152536 12.067325270031285 a33.51000200301206,33.51000200301206 0 0,0 -0.5577174267361229,0.14729824141582104 l -3.0902479726049155 -12.12231486075069" fill="#ff9d0e" stroke="none" /><path d="M 105.18746579009965 120.34920634021253 l 3.0648540020069053 12.022700295873477 a33.40720163687259,33.40720163687259 0 0,0 -0.5584518285973974,0.13725387240375458 l -2.8574488886662968 -12.073675426591262" fill="#ff9b0e" stroke="none" /><path d="M 104.48393922423573 120.51570834832081 l 1.278225285836546 5.848361419782919 a26.986417223829058,26.986417223829058 0 0,0 -0.4546678494866676,0.09528006851262774 l -1.1773659749205003 -5.869497469022089" fill="#ff4406" stroke="none" /><path d="M 104.13013068566511 120.58985236759428 l 2.4682997749366087 12.305162192882694 a33.55027969298301,33.55027969298301 0 0,0 -0.5672112300564888,0.10870738221443145 l -2.2561209303084153 -12.345826773445593" fill="#ff9d0e" stroke="none" /><path d="M 103.7750983002368 120.6578951692458 l 2.2767502129113746 12.45871325309089 a33.665035627850976,33.665035627850976 0 0,0 -0.5709446221090099,0.09926604096273826 l -2.0619566193303145 -12.496057872574633" fill="#ff9f0e" stroke="none" /><path d="M 103.41894727170886 120.7198165907248 l 2.0857490085187473 12.640246683065726 a33.811174229370664,33.811174229370664 0 0,0 -0.5750542306673874,0.08981164424267678 l -1.8678589142428428 -12.67427663465551" fill="#ffa10e" stroke="none" /><path d="M 103.06178313531738 120.77559828337769 l 1.8346789491320077 12.449135402983089 a33.58360119871077,33.58360119871077 0 0,0 -0.5726346378210483,0.07936194294329404 l -1.620115720124129 -12.478871911418986" fill="#ff9e0e" stroke="none" /><path d="M 102.70371172650421 120.8252237178851 l 1.5699576197625853 12.092531292685996 a33.19401820535137,33.19401820535137 0 0,0 -0.567258231077802,0.06868707193307712 l -1.361571965633403 -12.117763893344424" fill="#ff980e" stroke="none" /><path d="M 101.62511606390274 120.93702456842531 l 0.9844997141997346 12.683706205147239 a33.72185689220524,33.72185689220524 0 0,0 -0.5791122557625189,0.03993897175686016 l -0.7660246976582853 -12.698773521420385" fill="#ff9f0e" stroke="none" /><path d="M 100.90346689309514 120.98055641714683 l 0.5483221058402251 12.733286592205125 a33.74508707584942,33.74508707584942 0 0,0 -0.5805434853081483,0.01999509145780056 l -0.32905826885742456 -12.740838482089021" fill="#ffa00e" stroke="none" /><line stroke="#e1ed5e" stroke-width="0.3" x1="102.19456741930631" x2="102.32365962044197" y1="184.97166512339345" y2="189.96999836594603" /><path d="M 102.22038585953345 185.97133177190398 a86.0,86.0 0 0,1 -42.740103519485714,-10.115201625700543" fill="none" id="id91" stroke="none" /><text fill="#e1ed5e" style="font-size:6.75px; font-family:Arial;" text-anchor="middle"><textPath startOffset="22.20632615414155" xlink:href="#id91">July</textPath></text><path d="M 100.54218724476979 120.99299961872073 l 0.27265056989101005 10.55678340827843 a31.560303701246696,31.560303701246696 0 0,0 -0.5431983788981041,0.009351652707506144 l -0.09089250110023805 -10.559912538265097" fill="#ff830c" stroke="none" /><path d="M 100.18074693466247 120.99922214144158 l 0.10633564221142457 12.354100369782351 a33.35455799352858,33.35455799352858 0 0,0 -0.5741651537477516,0.0 l 0.10633564221141606 -12.354100369782351" fill="#ff9b0e" stroke="none" /><path d="M 99.81925306533755 120.99922214144158 l -0.02671034922776874 3.103214767967678 a24.103329718042954,24.103329718042954 0 0,0 -0.41485309370993895,-0.007142072229448975 l 0.08012313283037562 -3.1022952184590693" fill="#ff1b02" stroke="none" /><path d="M 99.09653310690486 120.98055641714683 l -0.5325045618191051 12.365967239108697 a33.377427312130244,33.377427312130244 0 0,0 -0.5737928335876433,-0.02965853540118622 l 0.7452854638202373 -12.354968896945309" fill="#ff9b0e" stroke="none" /><path d="M 98.73552117531835 120.96189622390904 l -0.7505119079679506 12.441610268636136 a33.46422617736993,33.46422617736993 0 0,0 -0.5746879114893405,-0.03963384307203126 l 0.9645625802362212 -12.426848081047819" fill="#ff9c0e" stroke="none" /><path d="M 98.37488393609728 120.93702456842531 l -0.953254005365814 12.281155157843926 a33.318095031691485,33.318095031691485 0 0,0 -0.5714143451281427,-0.04930403408382679 l 1.1645126682354985 -12.262926871481437" fill="#ff9a0e" stroke="none" /><path d="M 98.01472825383883 120.90594882070398 l -1.166024294741482 12.27884508843648 a33.334084861137775,33.334084861137775 0 0,0 -0.570754778002291,-0.05916106641542238 l 1.3772116693493663 -12.256954653565296" fill="#ff9a0e" stroke="none" /><path d="M 97.65516085044442 120.86867818915974 l -1.3836172074177429 12.313962876326631 a33.39145182358439,33.39145182358439 0 0,0 -0.570632207808815,-0.06909561352794544 l 1.5953768382779472 -12.288321734073337" fill="#ff9b0e" stroke="none" /><path d="M 96.93821686468263 120.77559828337769 l -1.3140363965133601 8.916337668986822 a30.012644954659823,30.012644954659823 0 0,0 -0.5104495436216796,-0.07972172078863195 l 1.467321803743557 -8.892397640851085" fill="#ff6e0a" stroke="none" /><path d="M 96.58105272829116 120.7198165907248 l -4.112871513078073 24.925199671067503 a46.26225031001143,46.26225031001143 0 0,0 -0.7845880014251452,-0.1364106809529967 l 4.541308485975268 -24.8507104115935" fill="#c4ff1e" stroke="none" /><path d="M 96.22490169976321 120.6578951692458 l -3.2771451395040687 17.93302196714507 a39.230001567182676,39.230001567182676 0 0,0 -0.6632343350834765,-0.12711043882976644 l 3.58534708915924 -17.873954329966836" fill="#ffe615" stroke="none" /><path d="M 95.86986931433489 120.58985236759428 l -2.453146772950154 12.229620255454472 a33.47323296833095,33.47323296833095 0 0,0 -0.5639578875123258,-0.11818285858804319 l 2.6632961218918667 -12.185581416139888" fill="#ff9c0e" stroke="none" /><path d="M 95.51606077576429 120.51570834832081 l -2.6882721799194345 12.299856275044037 a33.59020538752522,33.59020538752522 0 0,0 -0.5638033608027595,-0.12831980933255513 l 2.899595690115057 -12.251759732133795" fill="#ff9e0e" stroke="none" /><path d="M 94.11515582081647 120.15858648285463 l -6.951435037836272 23.812203029241488 a45.80611743484005,45.80611743484005 0 0,0 -0.7549830270441482,-0.22747019282819442 l 7.360293039320666 -23.68901746730757" fill="#c9ff1d" stroke="none" /><path d="M 93.76903079525671 120.05430185196036 l -3.7157086519311315 11.958965042395455 a33.52291242767721,33.52291242767721 0 0,0 -0.5495820571064243,-0.17595881945613354 l 3.9210120541284965 -11.893233376279614" fill="#ff9d0e" stroke="none" /><path d="M 93.42475214034765 119.94407469862007 l -3.8503153894652544 11.678795899384022 a33.297121706229554,33.297121706229554 0 0,0 -0.5427910745769171,-0.1841442028500559 l 4.050776196979397 -11.610788709635845" fill="#ff9a0e" stroke="none" /><path d="M 93.08242187328487 119.8279376855182 l -4.162587394226609 11.931274493959563 a33.63655193732785,33.63655193732785 0 0,0 -0.5450409843873781,-0.1954323053719306 l 4.367347939243714 -11.857854647547674" fill="#ff9e0e" stroke="none" /><path d="M 92.06813273071674 119.44442032107085 l -2.289076524394304 5.611511712984179 a27.06044016879069,27.06044016879069 0 0,0 -0.42978233880252403,-0.17964905247583543 l 2.3853303226942906 -5.571277617488371" fill="#ff4506" stroke="none" /><path d="M 90.7491055286396 118.85261126421891 l -1.9673079344912203 4.009222226110023 a25.465888866446043,25.465888866446043 0 0,0 -0.39186678450367307,-0.1964901407711437 l 2.0360286266776537 -3.974764244429578" fill="#ff2e04" stroke="none" /><path d="M 90.42595943632237 118.69057910512821 l -4.606626054032751 8.993121357485704 a31.10431765890992,31.10431765890992 0 0,0 -0.4744283769930772,-0.24819850397293533 l 4.7607453335523235 -8.912493434568052" fill="#ff7c0b" stroke="none" /><line stroke="#e1ed5e" stroke-width="0.3" x1="58.666819895761336" x2="56.23545636021788" y1="174.27360380694188" y2="178.64263932499728" /><path d="M 58.180547188652646 175.14741091055294 a86.0,86.0 0 0,1 -31.652253787137756,-30.449443065178592" fill="none" id="id92" stroke="none" /><text fill="#e1ed5e" style="font-size:6.75px; font-family:Arial;" text-anchor="middle"><textPath startOffset="22.20632615414155" xlink:href="#id92">August</textPath></text><path d="M 89.4739219176387 118.17145234162733 l -4.179409478268472 7.215027245310375 a29.338110201815,29.338110201815 0 0,0 -0.43480773800546785,-0.25689207571966927 l 4.302985087302321 -7.142016597296956" fill="#ff6409" stroke="none" /><path d="M 89.1626897886671 117.98757091392108 l -7.661145210814987 12.715829857603794 a35.84538564365108,35.84538564365108 0 0,0 -0.5257678268901115,-0.32296954165539354 l 7.878892237637407 -12.582071849120021" fill="#ffbb11" stroke="none" /><path d="M 88.8546689885994 117.79835938074946 l -8.402684517500141 13.418533613093013 a36.83231352097171,36.83231352097171 0 0,0 -0.5344512477406302,-0.34111207299366203 l 8.632417567287694 -13.271907111275546" fill="#ffc812" stroke="none" /><path d="M 87.95078237400918 117.19931262002967 l -6.848676610852098 9.77594842419027 a32.9362280018631,32.9362280018631 0 0,0 -0.4615348487945986,-0.3292928601046791 l 7.015938787495584 -9.656611302241371" fill="#ff950d" stroke="none" /><path d="M 87.07902340077011 116.55440617244103 l -5.481346336571743 7.022722541950786 a29.9086356734728,29.9086356734728 0 0,0 -0.40311501097251473,-0.32025894482573103 l 5.6014188402616165 -6.9273296831199245" fill="#ff6c0a" stroke="none" /><path d="M 86.51685102203217 116.09983520530335 l -4.772732776880075 5.698981099465705 a28.433529695344784,28.433529695344784 0 0,0 -0.37252598295051415,-0.31747472444903735 l 4.870124236407646 -5.615981984793716" fill="#ff5808" stroke="none" /><path d="M 85.97065885151581 115.62618273729859 l -8.05787399112267 8.975033832790697 a33.061532471313456,33.061532471313456 0 0,0 -0.42019704342427505,-0.38384003639233416 l 8.2111705840138 -8.835001029811787" fill="#ff970d" stroke="none" /><path d="M 85.70375840098266 115.38237550388516 l -8.274503694158225 8.903145770883976 a33.15456358748628,33.15456358748628 0 0,0 -0.4146912276592231,-0.3921164394731508 l 8.426530756208265 -8.759394694664893" fill="#ff980e" stroke="none" /><path d="M 85.44109423537348 115.13401014063109 l -43.67671729387956 45.40203042189327 a84.0,84.0 0 0,0 -1.033400190496823,-1.0113995883097213 l 44.45176743675218 -44.64348073066098" fill="#4dd2ff" stroke="none" /><path d="M 85.18274418774928 114.88116024355367 l -5.91813527054889 5.9436592321805435 a29.387574747732494,29.387574747732494 0 0,0 -0.35539286257466374,-0.36001109346228355 l 6.019568758179088 -5.8409076447375945" fill="#ff6509" stroke="none" /><path d="M 84.9287848128048 114.62390073753433 l -27.260532758206526 26.451438729839158 a58.984408079364435,58.984408079364435 0 0,0 -0.7007725422186436,-0.7347572088645437 l 27.71181185180413 -25.978274404392113" fill="#3cff2e" stroke="none" /><path d="M 84.19399662182784 113.82643327865904 l -15.193922907936617 13.29101078250993 a41.186784314325955,41.186784314325955 0 0,0 -0.4621892490649366,-0.5376305139262577 l 15.420454666572333 -13.027503169422143" fill="#fffe18" stroke="none" /><path d="M 83.95833913139862 113.55231037782056 l -10.076408621615071 8.512748041018806 a34.19093969054624,34.19093969054624 0 0,0 -0.37594403533076093,-0.45284880874417804 l 10.221448656839367 -8.338037975160868" fill="#ffa60f" stroke="none" /><path d="M 83.72743513129214 113.27417163493432 l -20.73293823580242 16.912673746212416 a47.7561817368514,47.7561817368514 0 0,0 -0.5141341561597563,-0.6414614115497156 l 21.020990304017037 -16.55328450108444" fill="#b3ff20" stroke="none" /><path d="M 83.28015986056508 112.70617746262583 l -10.0890091708917 7.667103266439604 a33.671723582393426,33.671723582393426 0 0,0 -0.34672051693571365,-0.46448879269248 l 10.219490954522499 -7.492301594237816" fill="#ff9f0e" stroke="none" /><path d="M 83.06392112726016 112.41649034213515 l -42.0130884672035 30.80140988454849 a73.09439944398082,73.09439944398082 0 0,0 -0.7351911536541862,-1.0211162107902372 l 42.537059413233294 -30.073660068307117" fill="#3fffc1" stroke="none" /><path d="M 82.85270091963577 112.12312394758628 l -9.685090026088961 6.847349327700309 a32.86116190046345,32.86116190046345 0 0,0 -0.3225700049409421,-0.4646861505252313 l 9.801520938192036 -6.679621914988065" fill="#ff940d" stroke="none" /><path d="M 82.6465618267979 111.8261652097733 l -12.433003145160757 8.472946270403021 a36.0456101806711,36.0456101806711 0 0,0 -0.3450026528519168,-0.515732155438977 l 12.577008903423405 -8.257677200758224" fill="#ffbe11" stroke="none" /><path d="M 82.24976979558568 111.22182372390057 l -11.268501627465325 7.124028107785033 a34.33157550361921,34.33157550361921 0 0,0 -0.3114942433023269,-0.502227902129631 l 11.389460510435606 -6.929003874290139" fill="#ffa70f" stroke="none" /><path d="M 82.05923443525364 110.91462005526583 l -10.176388109383831 6.19100725373197 a32.91165168096224,32.91165168096224 0 0,0 -0.29027939541298287,-0.486524963551789 l 10.281448380495046 -6.014920196294069" fill="#ff950d" stroke="none" /><line stroke="#e1ed5e" stroke-width="0.3" x1="26.63291911575756" x2="22.317208475507996" y1="142.92168965132927" y2="145.44649492493687" /><path d="M 25.769776987707644 143.4266507060508 a86.0,86.0 0 0,1 -11.730757126820373,-40.83630448921669" fill="none" id="id93" stroke="none" /><text fill="#e1ed5e" style="font-size:6.75px; font-family:Arial;" text-anchor="middle"><textPath startOffset="21.46611528233685" xlink:href="#id93">September</textPath></text><path d="M 81.87401531095188 110.60418214915194 l -25.932905326743203 15.171437936149925 a51.044768392122364,51.044768392122364 0 0,0 -0.43715712867559225,-0.7622203019299406 l 26.190214451571173 -14.722797788361678" fill="#8eff24" stroke="none" /><path d="M 81.69416730710424 110.29060199501025 l -24.08395649346691 13.53876739164088 a48.628521184894524,48.628521184894524 0 0,0 -0.4039029175301093,-0.7332011168501742 l 24.31343582044854 -13.122195756392882" fill="#a9ff21" stroke="none" /><path d="M 81.51974371655577 109.97397251340807 l -13.079347397395422 7.05904990894554 a35.86268865174597,35.86268865174597 0 0,0 -0.2885195855249678,-0.5457703243685329 l 13.198919491145274 -6.832864569490881" fill="#ffbb11" stroke="none" /><path d="M 81.35079622478065 109.6543875284942 l -11.682724048569428 6.04795500723844 a34.155371563152556,34.155371563152556 0 0,0 -0.2657960121330814,-0.5244407480127821 l 11.785098730488775 -5.845960047522973" fill="#ffa50f" stroke="none" /><path d="M 81.18737489456691 109.33194174019688 l -11.754171308059583 5.830618599816117 a34.12084815839787,34.12084815839787 0 0,0 -0.2564697506355604,-0.528403650140122 l 11.852794315309861 -5.62742599371071" fill="#ffa50f" stroke="none" /><path d="M 81.02952815118164 109.00673069616217 l -11.542150586006189 5.4799397089948165 a33.77697066460831,33.77697066460831 0 0,0 -0.24484344292428253,-0.5273709937636573 l 11.634768645770299 -5.280448647952332" fill="#ffa00e" stroke="none" /><path d="M 80.87730276802145 108.67885076344099 l -11.762381714504444 5.338365936793588 a33.917111692357025,33.917111692357025 0 0,0 -0.23670738565142235,-0.5337126657191626 l 11.852530184887147 -5.1351049345817295" fill="#ffa20f" stroke="none" /><path d="M 80.73074385275274 108.34839909993369 l -11.867373188676616 5.1415356612547995 a33.933287878775275,33.933287878775275 0 0,0 -0.22759382393545205,-0.5379645696546687 l 11.954117993804376 -4.936496565933972" fill="#ffa20f" stroke="none" /><path d="M 80.58989483394504 108.01547362559985 l -11.77683214322269 4.863285728209369 a33.74148042434034,33.74148042434034 0 0,0 -0.21706599030542406,-0.5387399864857583 l 11.858800747785502 -4.6598463738808045" fill="#ffa00e" stroke="none" /><path d="M 80.45479744820244 107.68017299344265 l -12.173478272755826 4.783497066295768 a34.07958017065221,34.07958017065221 0 0,0 -0.20984212691033077,-0.5478315770396293 l 12.254014679259667 -4.573241922422981" fill="#ffa40f" stroke="none" /><path d="M 80.32549172779594 107.34259656027581 l -12.634566047516953 4.715265048435328 a34.4857696734767,34.4857696734767 0 0,0 -0.20276932834457892,-0.5579341056430165 l 12.713859636866756 -4.497083145786195" fill="#ffa90f" stroke="none" /><path d="M 80.20201598880116 107.00284435728193 l -12.115334127328515 4.285375681794492 a33.85090525025092,33.85090525025092 0 0,0 -0.18957984944292933,-0.5510077828416 l 12.187304807714673 -4.076195195863596" fill="#ffa10e" stroke="none" /><path d="M 80.0844068197444 106.66101706037122 l -12.344849643033989 4.128888019338004 a34.01702842377435,34.01702842377435 0 0,0 -0.18095074630171892,-0.5569091329323785 l 12.414092640351958 -3.915779986427822" fill="#ffa30f" stroke="none" /><path d="M 79.97269907076064 106.31721596034903 l -12.208499406902249 3.850929667342035 a33.801449803485056,33.801449803485056 0 0,0 -0.17025183046126857,-0.5563928326524128 l 12.272978009869648 -3.6402098621375742" fill="#ffa00e" stroke="none" /><path d="M 79.86692584326677 105.97154293290107 l -12.321883119318462 3.6547152952591304 a33.852460756428954,33.852460756428954 0 0,0 -0.16089165919122936,-0.5600849726473939 l 12.382967415395797 -3.4420728471071405" fill="#ffa10e" stroke="none" /><path d="M 79.76711848015287 105.62410040840567 l -12.370898810356193 3.438718157046531 a33.839934576923426,33.839934576923426 0 0,0 -0.15117092186331774,-0.5625632372166929 l 12.428257808561286 -3.225263986654299" fill="#ffa10e" stroke="none" /><path d="M 79.67330655649465 105.27499134158121 l -28.11057599435243 7.294990962952125 a50.041717853526094,50.041717853526094 0 0,0 -0.20919507813231242,-0.835630348569624 l 28.2319823867798 -6.810032774985109" fill="#99ff23" stroke="none" /><path d="M 79.58551787078972 104.9243191809786 l -12.413464213536336 2.99433801662022 a33.76950092754311,33.76950092754311 0 0,0 -0.1314428521249984,-0.566252366775444 l 12.46316763159189 -2.7802169924962015" fill="#ffa00e" stroke="none" /><path d="M 79.29508885075956 103.50808413554451 l -9.696841439134234 1.6429597486471383 a30.835041974053063,30.835041974053063 0 0,0 -0.0841624052451754,-0.5240793778010051 l 9.723685598740701 -1.4758011411529195" fill="#ff790b" stroke="none" /><path d="M 79.23777060512086 103.15116336523772 l -12.687929603901624 1.9256958483654547 a33.833232723440155,33.833232723440155 0 0,0 -0.08243378378433676,-0.5765416917916163 l 12.719197438702562 -1.7070086845934378" fill="#ffa10e" stroke="none" /><path d="M 79.04373962182676 101.35467743843564 l -12.995754229586177 0.8400857181852591 a34.022878791177696,34.022878791177696 0 0,0 -0.03274888255623371,-0.5847532974965337 l 13.008289463029943 -0.6162607043532878" fill="#ffa30f" stroke="none" /><path d="M 79.0235259727143 100.99374915477108 l -18.143453751516603 0.8595363456577464 a39.16380237623523,39.16380237623523 0 0,0 -0.02610522393830308,-0.6736598338925459 l 18.15556110830611 -0.5470992647512036" fill="#ffe515" stroke="none" /><line stroke="#e1ed5e" stroke-width="0.3" x1="15.007084014347285" x2="10.007500721073583" y1="101.09737516637583" y2="101.16192664675087" /><path d="M 14.007167355692545 101.11028546245083 a86.0,86.0 0 0,1 10.666146001902534,-42.60595125391555" fill="none" id="id94" stroke="none" /><text fill="#e1ed5e" style="font-size:6.75px; font-family:Arial;" text-anchor="middle"><textPath startOffset="22.20632615414155" xlink:href="#id94">October</textPath></text><path d="M 79.00175016825051 100.2711162175752 l -23.280975936267545 0.3005893437726724 a44.2829163658391,44.2829163658391 0 0,0 -0.0032805263342403457,-0.7622787877976276 l 23.282700759891288 0.10019892222863058" fill="#dbff1b" stroke="none" /><path d="M 79.00019446554 99.90962569577889 l -5.840867646174845 -0.025136630370433472 a26.840921734651,26.840921734651 0 0,0 0.005965066223312865,-0.4620009527291885 l 5.839569572833817 0.12567384116009395" fill="#ff4206" stroke="none" /><path d="M 79.00486145842228 99.54816195383935 l -2.134604613620199 -0.04593899564099651 a23.135098884784764,23.135098884784764 0 0,0 0.011995334545542937,-0.39806675568321215 l 2.1334975846190107 0.08267589874920306" fill="#ff0d01" stroke="none" /><path d="M 79.01574976396665 99.18683210126434 l -6.700018134944039 -0.25963470731623806 a27.70504684471497,27.70504684471497 0 0,0 0.022568256439760098,-0.4763802241007535 l 6.69455627027078 0.3749260380400006" fill="#ff4e07" stroke="none" /><path d="M 79.12142395522702 97.74499172005258 l -11.761672874036812 -1.2703294353077328 a32.83007547186672,32.83007547186672 0 0,0 0.0655188987567366,-0.5613259128305292 l 11.738063622276487 1.4725990864631238" fill="#ff940d" stroke="none" /><path d="M 79.21141760316559 97.0276538004421 l -11.316878207092277 -1.6180843545557282 a32.431969617376446,32.431969617376446 0 0,0 0.0837734864713467,-0.5519626061010974 l 11.287348827181628 1.8126460730489178" fill="#ff8e0d" stroke="none" /><path d="M 79.26566170972629 96.67025291283419 l -16.81335968428991 -2.700073407237553 a38.02878328823809,38.02878328823809 0 0,0 0.10935654435369287,-0.6454285150945521 l 16.764391278415996 2.989087710647933" fill="#ffd714" stroke="none" /><path d="M 79.32604984820605 96.31383870115002 l -5.787480464732051 -1.0319066433994677 a26.878755093584616,26.878755093584616 0 0,0 0.08513433034542382,-0.4547909969173882 l 5.768860410476765 1.1313757177794286" fill="#ff4206" stroke="none" /><path d="M 79.3925641242962 95.95851677861259 l -13.00408219920174 -2.5503308773887716 a34.25180521392305,34.25180521392305 0 0,0 0.1184471528960739,-0.5775903831714023 l 12.95825575039067 2.7737969167235765" fill="#ffa60f" stroke="none" /><path d="M 79.54389044137918 95.25157060432595 l -12.168403370530173 -2.8246233281779647 a33.49193890210872,33.49193890210872 0 0,0 0.1351913273603637,-0.5604553309791511 l 12.117979242908994 3.0336638908165123" fill="#ff9c0e" stroke="none" /><path d="M 80.14247586403 93.16781622104843 l -11.371605597579027 -3.912516926703922 a33.025855585721764,33.025855585721764 0 0,0 0.1895792925942334,-0.5359661891859973 l 11.302573224174983 4.10768074231653" fill="#ff960d" stroke="none" /><path d="M 80.2630227832202 92.82701384747504 l -23.543450263362978 -8.556368123999682 a46.0500595962733,46.0500595962733 0 0,0 0.27716743962835894,-0.7426709392227483 l 23.392678235232992 8.960362200251772" fill="#c6ff1e" stroke="none" /><path d="M 80.38941819471856 92.48833698450439 l -4.531094898874915 -1.7355965421899473 a25.85212493036525,25.85212493036525 0 0,0 0.16275322214564872,-0.41418919801811577 l 4.500548126847575 1.8133347451038264" fill="#ff3404" stroke="none" /><path d="M 80.52162464483688 92.15188598940014 l -2.289927540826913 -0.9226443216506983 a23.46881361923331,23.46881361923331 0 0,0 0.15419939590304732,-0.37340606816559563 l 2.273706458037666 0.9619249602696052" fill="#ff1101" stroke="none" /><path d="M 80.65960295795068 91.81776055985345 l -10.888447606515289 -4.606517914513215 a32.822787259210905,32.822787259210905 0 0,0 0.2246161646669477,-0.5184450767110632 l 10.807540732005661 4.793262135810878" fill="#ff940d" stroke="none" /><path d="M 80.803312248108 91.48605970444005 l -11.031212570090123 -4.892463034417022 a33.06747054314413,33.06747054314413 0 0,0 0.23524778490611206,-0.5183373107650562 l 10.945362468220658 5.081622354024149" fill="#ff970d" stroke="none" /><path d="M 80.95270993114464 91.15688171328213 l -16.400529797611004 -7.614302320216141 a39.0818964012621,39.0818964012621 0 0,0 0.28853941934005845,-0.6077376038563395 l 16.267032184429194 7.895482339713013" fill="#ffe415" stroke="none" /><path d="M 81.26839172434947 90.50648371742162 l -12.023542138402355 -6.093747604874355 a34.479589215768,34.479589215768 0 0,0 0.27286583219880495,-0.5270899363580902 l 11.916866873043436 6.29981026349278" fill="#ffa90f" stroke="none" /><path d="M 81.43458229118936 90.18545643968196 l -4.823071718492796 -2.549700104685555 a26.455546849359703,26.455546849359703 0 0,0 0.21629538689434935,-0.40076250233904803 l 4.778468232379974 2.6323435903570758" fill="#ff3c05" stroke="none" /><line stroke="#e1ed5e" stroke-width="0.3" x1="26.266209847984243" x2="21.928928074336255" y1="57.711370442889674" y2="55.22380399835377" /><path d="M 25.398753493254645 57.213857153982495 a86.0,86.0 0 0,1 29.58750427330803,-30.492523968695096" fill="none" id="id95" stroke="none" /><text fill="#e1ed5e" style="font-size:6.75px; font-family:Arial;" text-anchor="middle"><textPath startOffset="21.46611528233685" xlink:href="#id95">November</textPath></text><path d="M 81.78341655067845 89.55222093294921 l -10.419869451560047 -5.976120288432328 a33.01198123081146,33.01198123081146 0 0,0 0.2869532285834212,-0.4904960849047659 l 10.315456548506301 6.154595785690986" fill="#ff960d" stroke="none" /><path d="M 82.15384107792192 88.93136811851018 l -10.474266149195714 -6.496400527441747 a33.325318299221834,33.325318299221834 0 0,0 0.30654913532043276,-0.4848871141428443 l 10.360889417629318 6.675735289298806" fill="#ff9a0e" stroke="none" /><path d="M 82.34701348167596 88.62581576622439 l -10.016279174256308 -6.453695783807642 a32.915369812413594,32.915369812413594 0 0,0 0.3109771485343428,-0.47363953213362836 l 9.903705390364046 6.625153379918937" fill="#ff950d" stroke="none" /><path d="M 82.54541684631803 88.32363383020206 l -10.288537851088291 -6.8825897612909435 a33.37837036671239,33.37837036671239 0 0,0 0.32357236107191223,-0.4748025131407858 l 10.168541024347638 7.058670297702145" fill="#ff9b0e" stroke="none" /><path d="M 82.95767976084542 87.72973835380427 l -3.784776916013549 -2.7249929810186324 a25.663702718933727,25.663702718933727 0 0,0 0.2612044177319837,-0.35628253223900014 l 3.7373098857679317 2.7897379569291334" fill="#ff3104" stroke="none" /><path d="M 83.39014120810768 87.1503855733568 l -7.8776579952187795 -6.0942642012667045 a30.959796767227495,30.959796767227495 0 0,0 0.3297158196490665,-0.41870560778859306 l 7.771588094975741 6.228962203008345" fill="#ff7b0b" stroke="none" /><path d="M 83.84228863543731 86.58626213691792 l -18.19287380273302 -15.103280078465415 a44.64507826865328,44.64507826865328 0 0,0 0.49596299619587836,-0.587063752714107 l 17.930200193050016 15.414202780808639" fill="#d6ff1c" stroke="none" /><path d="M 84.07557802195018 86.31012108654704 l -9.949114583139155 -8.553037223390891 a34.12018775525497,34.12018775525497 0 0,0 0.3867086810477294,-0.4420748717923666 l 9.800414038513582 8.723027651386202" fill="#ffa50f" stroke="none" /><path d="M 84.31358615837235 86.03803664274999 l -4.427688698503493 -3.940940739543902 a26.92751559453473,26.92751559453473 0 0,0 0.31114918578211775,-0.34357870234814974 l 4.359195872105331 4.016572229161608" fill="#ff4306" stroke="none" /><path d="M 84.5562425177563 85.77008943001954 l -12.300759370966952 -11.3339455111852 a37.72623693342129,37.72623693342129 0 0,0 0.4441504090012781,-0.47378868883085895 l 12.103841639995219 11.544003616894111" fill="#ffd313" stroke="none" /><path d="M 84.80347519578584 85.50635884689758 l -8.512403194710531 -8.118679687900986 a32.76324649168137,32.76324649168137 0 0,0 0.3927466656695064,-0.4047599623789974 l 8.371392265337906 8.264003845830107" fill="#ff930d" stroke="none" /><path d="M 85.05521093208273 85.24692304244772 l -5.436613933664142 -5.366872920544062 a28.639377985738122,28.639377985738122 0 0,0 0.3493515878772605,-0.3478513611353466 l 5.343426545619568 5.459660132329518" fill="#ff5b08" stroke="none" /><path d="M 85.31137513191541 84.99185889309783 l -5.699480411008734 -5.82345910612109 a29.148420271202077,29.148420271202077 0 0,0 0.3616024715654919,-0.3478612911487367 l 5.598394695830814 5.920703484032141" fill="#ff6209" stroke="none" /><path d="M 85.57189188830299 84.74124197986013 l -17.436654151478617 -18.44051100244948 a46.378915540852745,46.378915540852745 0 0,0 0.5847986282553349,-0.5435065913064343 l 17.11664763942843 18.737922179830562" fill="#c2ff1e" stroke="none" /><path d="M 85.83668400450813 84.49514656593479 l -8.067658961167657 -8.831820866578303 a32.96194720490927,32.96194720490927 0 0,0 0.42220960121725126,-0.37906394870858523 l 7.914438372354434 8.969383824056168" fill="#ff950d" stroke="none" /><path d="M 86.10567301691215 84.25364557470407 l -6.438544158905997 -7.296762083723577 a30.73126856029822,30.73126856029822 0 0,0 0.3996619056794707,-0.34658286627141865 l 6.311988454579753 7.406509943414676" fill="#ff770b" stroke="none" /><path d="M 86.65592168130627 83.78471172551755 l -8.336750999461229 -10.130547610730504 a34.11980991174397,34.11980991174397 0 0,0 0.4567125051341191,-0.3692964169260076 l 8.161135095762608 10.272550124920647" fill="#ffa50f" stroke="none" /><path d="M 86.93701828274178 83.55741782278169 l -7.738867288047876 -9.741034941065623 a33.44097378122303,33.44097378122303 0 0,0 0.4537899453055127,-0.35419025020779216 l 7.570044787582938 9.872803580496637" fill="#ff9c0e" stroke="none" /><path d="M 87.51073957382395 83.11751280151077 l -7.238944995854839 -9.785318910233155 a33.17188526186385,33.17188526186385 0 0,0 0.46196539096224015,-0.33563750300069184 l 7.069434288538817 9.908475648050514" fill="#ff980e" stroke="none" /><path d="M 88.39885842347998 82.49532879139004 l -7.357674184496221 -11.10180981847114 a34.3186166943382,34.3186166943382 0 0,0 0.4952224994216343,-0.3221064891338382 l 7.1654846592903 11.226815231764512" fill="#ffa70f" stroke="none" /><path d="M 88.70189139769569 82.29822771554957 l -4.58553657489311 -7.184576384247277 a29.523220254150782,29.523220254150782 0 0,0 0.4307309164841763,-0.2697236603870622 l 4.461186506036691 7.26244438595727" fill="#ff6709" stroke="none" /><path d="M 89.00827224532344 82.1063720568725 l -4.550677700158258 -7.408128683052075 a29.694195656607718,29.694195656607718 0 0,0 0.43783092325908907,-0.26378823233996723 l 4.42248471068152 7.485363524850661" fill="#ff6909" stroke="none" /><line stroke="#e1ed5e" stroke-width="0.3" x1="56.762969772571076" x2="54.21961505331055" y1="26.818313649435495" y2="22.513508569990535" /><path d="M 56.25429882871897 25.957352633546506 a86.0,86.0 0 0,1 42.265352541879196,-11.944610805530505" fill="none" id="id96" stroke="none" /><text fill="#e1ed5e" style="font-size:6.75px; font-family:Arial;" text-anchor="middle"><textPath startOffset="22.20632615414155" xlink:href="#id96">December</textPath></text><path d="M 89.63071344664047 81.73862282372117 l -6.017614304508774 -10.59763600422466 a33.18694263529075,33.18694263529075 0 0,0 0.49918836837315395,-0.2777977865398831 l 5.834301847063574 10.699649188324726" fill="#ff980e" stroke="none" /><path d="M 89.94658935756843 81.56283822128135 l -5.440266554308448 -9.97701955571142 a32.36386463299239,32.36386463299239 0 0,0 0.4913989786531911,-0.2624883161722026 l 5.267722529126952 10.069186598385373" fill="#ff8d0d" stroke="none" /><path d="M 90.26544431104013 81.39251694778311 l -4.6011922745724165 -8.795122243349718 a30.925983357987754,30.925983357987754 0 0,0 0.47381480030652323,-0.2427063437836882 l 4.449116986677129 8.873021112445912" fill="#ff7a0b" stroke="none" /><path d="M 90.91171255644093 81.06846463323043 l -5.240028007246146 -10.915343089456137 a33.107956403838834,33.107956403838834 0 0,0 0.5158878435561298,-0.24221625985036435 l 5.051361952390407 11.003924331946509" fill="#ff970e" stroke="none" /><path d="M 91.23893434514133 80.91482961587045 l -4.890828267931943 -10.654216563396371 a32.723162189705974,32.723162189705974 0 0,0 0.5139373347846178,-0.23058870120412894 l 4.706708814680551 10.736825595117029" fill="#ff920d" stroke="none" /><path d="M 91.90106846888425 80.62456947434976 l -7.5207125679612234 -17.992131839129456 a40.500716029072,40.500716029072 0 0,0 0.6455353784833731,-0.26333008931143287 l 7.20989331988947 18.118922814624465" fill="#fff617" stroke="none" /><path d="M 92.23578459929587 80.48803036053334 l -4.459376586088088 -11.206698432247025 a33.06134856837653,33.06134856837653 0 0,0 0.5305824312074637,-0.20585774021585249 l 4.265810989880948 11.28179887635343" fill="#ff970d" stroke="none" /><path d="M 92.57280143429618 80.3572730644239 l -2.232366747650492 -5.903944812602903 a27.311895566806882,27.311895566806882 0 0,0 0.4411751282340334,-0.16248852295865918 l 2.130409293643889 5.941496603367885" fill="#ff4806" stroke="none" /><path d="M 93.59665428221793 80.00007090966166 l -3.8053389996402625 -11.885428885427297 a33.479744576421936,33.479744576421936 0 0,0 0.5503665497947381,-0.17100156606831066 l 3.6001870771347955 11.949170586378132" fill="#ff9c0e" stroke="none" /><path d="M 93.94186890950719 79.89281104454417 l -3.4299101933014016 -11.384014529693044 a32.889494133325236,32.889494133325236 0 0,0 0.5434750570662858,-0.15865527222497608 l 3.2334449185116947 11.44136813083672" fill="#ff940d" stroke="none" /><path d="M 94.28887869178378 79.79150937346287 l -5.564330678078594 -19.68908000415509 a41.460245533840165,41.460245533840165 0 0,0 0.6884416729025141,-0.18817711523911523 l 5.224591115952357 19.781943660220502" fill="#fcff18" stroke="none" /><path d="M 94.63758080256005 79.69619591428918 l -2.3342754940544865 -8.838300507350233 a30.141356460633766,30.141356460633766 0 0,0 0.5027737738636655,-0.12816822968289876 l 2.1817928315058217 8.877171733201994" fill="#ff6f0a" stroke="none" /><path d="M 95.33964822691252 79.52364482259891 l -1.9636993228680772 -8.627976331930418 a29.84862083123602,29.84862083123602 0 0,0 0.5019646485968466,-0.109710029934567 l 1.8148919501177097 8.660499859960854" fill="#ff6b09" stroke="none" /><path d="M 96.40284397218896 79.31037775812273 l -0.5437745087530752 -3.127606665899821 a24.17452581859884,24.17452581859884 0 0,0 0.4105879673778883,-0.06775053267081022 l 0.48985733523630126 3.1365034615102583" fill="#ff1c02" stroke="none" /><path d="M 96.75951476605007 79.25152402106235 l -2.7003129300043756 -17.289811222351155 a38.499407476382984,38.499407476382984 0 0,0 0.6556467785081785,-0.09662529193046732 l 2.4022971710675485 17.33373099844259" fill="#ffdd14" stroke="none" /><path d="M 97.11714578562143 79.19881850522333 l -1.9763148996542972 -14.260063763717598 a35.39636201017074,35.39636201017074 0 0,0 0.6042416402404861,-0.0784479067544093 l 1.7305585309059532 14.291969993636146" fill="#ffb510" stroke="none" /><path d="M 97.83486435360386 79.11191278185805 l -1.209244708050504 -11.66615540780489 a32.72865954672585,32.72865954672585 0 0,0 0.560867723565947,-0.05326114851225685 l 1.0082518573943207 11.685242100832328" fill="#ff920d" stroke="none" /><path d="M 98.19473922651362 79.07773832637324 l -1.036539611588607 -12.013086035683417 a33.05772161177742,33.05772161177742 0 0,0 0.5673489136292081,-0.04403719498744192 l 0.8296005085970647 12.02914849285932" fill="#ff970d" stroke="none" /><path d="M 98.55514903715128 79.0497635885617 l -0.8384997950161952 -12.158187514300183 a33.18706714263637,33.18706714263637 0 0,0 0.5702453958462275,-0.034398759550069054 l 0.6290923503303447 12.170819543230559" fill="#ff980e" stroke="none" /><path d="M 99.63851952072746 79.00311137660856 l -0.2468989877060274 -14.34132918193613 a35.34345431947211,35.34345431947211 0 0,0 0.6083794669785596,-0.005236514144536878 l 3.513133084211559e-15 14.343454319472109" fill="#ffb510" stroke="none" /></svg>