<?xml version="1.0" encoding="utf-8" ?>
<svg baseProfile="full" height="200mm" version="1.1" viewBox="0,0,200,200" width="200mm" xmlns="http://www.w3.org/2000/svg" xmlns:ev="http://www.w3.org/2001/xml-events" xmlns:xlink="http://www.w3.org/1999/xlink"><defs /><rect fill="#1a1a1a" height="200" width="200" x="0" y="0" /><text alignment-baseline="middle" fill="#e1ed5e" style="dominant-baseline: central; font-size:9.0px; font-family:Arial;" text-anchor="middle" x="100.0" y="100.0">2025</text><line stroke="#e1ed5e" stroke-width="0.3" x1="100.0" x2="100.0" y1="15.0" y2="10.0" /><path d="M 100.0 14.0 a86.0,86.0 0 0,1 42.46469731375804,11.215312516191453" fill="none" id="id133" stroke="none" /><text fill="#e1ed5e" style="font-size:6.75px; font-family:Arial;" text-anchor="middle"><textPath startOffset="22.20632615414155" xlink:href="#id133">January</textPath></text><path d="M 100.0 79.0 l 0.0 -7.114725141622735 a28.114725141622735,28.114725141622735 0 0,0 0.48394877708615186,0.004165499912462234 l -0.1224682978136235 7.113671018318832" fill="#ff4f07" stroke="none" /><path d="M 100.36148047927253 79.00311137660856 l 0.12311793313721697 -7.1514056162223305 a28.15246533114256,28.15246533114256 0 0,0 0.48445481544165797,0.012512038601931787 l -0.24619938377374276 7.148226785478039" fill="#ff4f07" stroke="none" /><path d="M 102.16513564639614 79.11191278185805 l 1.60280245713012 -15.4629930802316 a36.54583965940318,36.54583965940318 0 0,0 0.6251658311358297,0.07024466535562436 l -1.868734991775675 15.433112461405376" fill="#ffc011" stroke="none" /><path d="M 102.52436894288641 79.15227682838746 l 1.9429696935392018 -16.04618628187618 a37.16339151981054,37.16339151981054 0 0,0 0.6344061189784995,0.08236412182093737 l -2.2188905410255475 16.01036383689111" fill="#ffc812" stroke="none" /><path d="M 103.2404852339499 79.25152402106235 l 0.7107226589493248 -4.550680207520035 a25.605845964538826,25.605845964538826 0 0,0 0.4348979717932258,0.07176189169549718 l -0.7889498368814258 4.537772052884914" fill="#ff2b04" stroke="none" /><path d="M 105.01212808612495 79.60689891045804 l 3.722988272058117 -15.147912200695416 a36.59871423271352,36.59871423271352 0 0,0 0.6104859181560195,0.15562645357395857 l -3.9831830788991613 15.08158275095259" fill="#ffc112" stroke="none" /><path d="M 105.36241919743992 79.69619591428918 l 1.8506931615314572 -7.007305842937215 a28.247578930553384,28.247578930553384 0 0,0 0.4690471617811332,0.12820830767396896 l -1.9710382125363013 6.974410994436952" fill="#ff5107" stroke="none" /><path d="M 105.71112130821622 79.79150937346287 l 6.686950073334727 -23.66140738119138 a45.588157729727726,45.588157729727726 0 0,0 0.7533112708658515,0.21991221712091158 l -7.0932515619240055 23.542796835151766" fill="#ceff1d" stroke="none" /><path d="M 106.0581310904928 79.89281104454417 l 4.482030113041819 -14.876044285077388 a36.53657901552968,36.53657901552968 0 0,0 0.6006172146319749,0.1866146922409449 l -4.737432700384512 14.796689457953923" fill="#ffc011" stroke="none" /><path d="M 106.40334571778207 80.00007090966166 l 4.7386887510153155 -14.800612551389309 a36.540698278241614,36.540698278241614 0 0,0 0.5973833050560603,0.19694788338481467 l -4.992754878313794 14.716850943745257" fill="#ffc011" stroke="none" /><path d="M 106.74666289553966 80.11325718540242 l 5.265896914872864 -15.521975716838158 a37.39089382773804,37.39089382773804 0 0,0 0.6077230927412599,0.21202265410169616 l -5.532302011677398 15.429032209564253" fill="#ffcb12" stroke="none" /><path d="M 107.08798089147638 80.2323363322302 l 5.151295081879498 -14.366442318500697 a36.262060998154986,36.262060998154986 0 0,0 0.5857491425946237,0.21573635255796225 l -5.397826550246698 14.27564269813641" fill="#ffbd11" stroke="none" /><path d="M 108.43124777332544 80.76684994638697 l 5.988089347240216 -13.659878590483856 a35.914740934300234,35.914740934300234 0 0,0 0.5640630367031102,0.25307864252581685 l -6.222334502410106 13.55477961744151" fill="#ffb811" stroke="none" /><path d="M 109.73455568895987 81.39251694778311 l 1.7775199205702479 -3.3977073894086356 a24.834578539039995,24.834578539039995 0 0,0 0.3770775421216476,0.20142176397911898 l -1.8357425092202067 3.3666068989277624" fill="#ff2003" stroke="none" /><line stroke="#e1ed5e" stroke-width="0.3" x1="143.23703022742887" x2="145.7803849466894" y1="26.81831364943548" y2="22.513508569990506" /><path d="M 143.74570117128098 25.957352633546492 a86.0,86.0 0 0,1 28.547481713284135,27.462654790039103" fill="none" id="id134" stroke="none" /><text fill="#e1ed5e" style="font-size:6.75px; font-family:Arial;" text-anchor="middle"><textPath startOffset="19.985693538727396" xlink:href="#id134">February</textPath></text><path d="M 110.68208982089419 81.91981866633111 l 8.047925379609381 -13.621674472214199 a36.82147649060393,36.82147649060393 0 0,0 0.5429202809222112,0.3271033944791465 l -8.28120772674923 13.481124468276438" fill="#ffc412" stroke="none" /><path d="M 111.2981086023043 82.29822771554956 l 0.8901927786872249 -1.394745829790443 a22.654617512582504,22.654617512582504 0 0,0 0.32690933926463855,0.2126309278325909 l -0.9140691437361437 1.3792159777983242" fill="#ff0000" stroke="none" /><path d="M 113.06298171725822 83.55741782278167 l 9.488173884719865 -11.942914886356284 a36.25315244955713,36.25315244955713 0 0,0 0.48526847356637626,0.39238669079706273 l -9.692345756850731 11.777822098295092" fill="#ffbd11" stroke="none" /><path d="M 114.42810811169701 84.74124197986012 l 2.519662982383922 -2.6647241234164953 a24.667350024024657,24.667350024024657 0 0,0 0.30601228652076384,0.29438357717975794 l -2.565158512517104 2.6209574594744356" fill="#ff1d03" stroke="none" /><path d="M 114.68862486808459 84.99185889309783 l 10.712600064065873 -10.945627301888834 a36.315565845390054,36.315565845390054 0 0,0 0.4429879936312026,0.4410856624054294 l -10.899423857864399 10.759605788833285" fill="#ffbd11" stroke="none" /><path d="M 115.19652480421416 85.50635884689758 l 14.330354142032526 -13.667533413553675 a40.803043186507345,40.803043186507345 0 0,0 0.4803736018454794,0.5124290653679759 l -14.563495065848468 13.418834931307645" fill="#fff617" stroke="none" /><path d="M 115.4437574822437 85.77008943001954 l 11.379529797691639 -10.485122648148094 a36.47357409790188,36.47357409790188 0 0,0 0.4214545097294349,0.46538059608811344 l -11.558327948037109 10.287689264790432" fill="#ffbf11" stroke="none" /><path d="M 115.68641384162765 86.03803664274999 l 11.22643493034066 -9.992282156550825 a36.02925626707113,36.02925626707113 0 0,0 0.4083455305143683,0.4668095310403575 l -11.396772324432877 9.797557069307521" fill="#ffba11" stroke="none" /><path d="M 115.9244219780498 86.31012108654704 l 15.17529370449405 -13.04586964456028 a41.012102683139425,41.012102683139425 0 0,0 0.4556042035501405,0.5392916720400504 l -15.397608521531307 12.782719022891124" fill="#fff917" stroke="none" /><path d="M 116.38621287248628 86.86637796730983 l 23.073753292811187 -18.493715233747096 a50.570519003974965,50.570519003974965 0 0,0 0.5385662008325902,0.6839243828033956 l -23.38867357423774 18.093798456990662" fill="#95ff23" stroke="none" /><path d="M 117.65298651832404 88.62581576622439 l 14.157875865637854 -9.122212170022026 a37.84221493455385,37.84221493455385 0 0,0 0.3480986486802363,0.5506084661408346 l -14.312802110564046 8.877156056166985" fill="#ffd113" stroke="none" /><line stroke="#e1ed5e" stroke-width="0.3" x1="172.23445277983987" x2="176.4835382374775" y1="55.19839476539836" y2="52.563006222186495" /><path d="M 173.08426987136738 54.67131705675599 a86.0,86.0 0 0,1 12.851231095245387,41.99856678651699" fill="none" id="id135" stroke="none" /><text fill="#e1ed5e" style="font-size:6.75px; font-family:Arial;" text-anchor="middle"><textPath startOffset="22.20632615414155" xlink:href="#id135">March</textPath></text><path d="M 117.84615892207809 88.93136811851018 l 5.361911875758394 -3.3255911814354375 a27.30948933507618,27.30948933507618 0 0,0 0.2443343620443652,0.4016214478061446 l -5.4183620360889835 3.2328019604222114" fill="#ff4306" stroke="none" /><path d="M 118.3937258080291 89.86733742301442 l 13.262198279414594 -7.3058270845663955 a36.14136759318957,36.14136759318957 0 0,0 0.29548476661518547,0.5474883961793148 l -13.385991145248244 7.076457705054622" fill="#ffbb11" stroke="none" /><path d="M 118.56541770881063 90.18545643968196 l 12.098015419790482 -6.395573813272407 a34.6844927380778,34.6844927380778 0 0,0 0.2744874051759513,0.5302222992136169 l -12.20631225812655 6.186378791798445" fill="#ffa80f" stroke="none" /><path d="M 119.04729006885535 91.15688171328212 l 16.998158283071835 -7.891764330262591 a39.74079318654279,39.74079318654279 0 0,0 0.2827229725765857,0.6229425937223425 l -17.131483572611767 7.597999727698186" fill="#ffe915" stroke="none" /><path d="M 119.196687751892 91.48605970444005 l 27.37505786088396 -12.141136597489004 a50.94663571698216,50.94663571698216 0 0,0 0.3486430883233826,0.8047163165598913 l -27.57999165905002 11.668121136342508" fill="#91ff24" stroke="none" /><path d="M 119.7369772167798 92.82701384747503 l 10.575699673792776 -3.843513952525871 a32.252467422459915,32.252467422459915 0 0,0 0.18513978971712025,0.5234151167225061 l -10.640292544319706 3.66090120937675" fill="#ff880c" stroke="none" /><path d="M 120.08093135843002 93.85539295169968 l 37.85776975733195 -11.584179773921571 a60.59045278894511,60.59045278894511 0 0,0 0.29658767800168423,0.999946208589054 l -38.05156333244534 10.930804178585987" fill="#30ff32" stroke="none" /><path d="M 120.28053869075195 94.5502522615342 l 14.669744841462784 -3.9420258994445816 a36.190160693867455,36.190160693867455 0 0,0 0.15648568291458842,0.6030031707974152 l -14.735426856247674 3.6889263030983157" fill="#ffbc11" stroke="none" /><path d="M 120.45610955862082 95.25157060432595 l 14.488902335483877 -3.3632753854638926 a35.87413567928091,35.87413567928091 0 0,0 0.13445218282904187,0.6027227721988972 l -14.544648905314956 3.1133744437150312" fill="#ffb811" stroke="none" /><path d="M 120.6074358757038 95.95851677861258 l 21.119779234611222 -4.141962829869673 a42.522103312704765,42.522103312704765 0 0,0 0.13468223427022533,0.719477880924085 l -21.187947192791306 3.777806871483025" fill="#f3ff19" stroke="none" /><path d="M 120.67395015179393 96.31383870115 l 61.83122192816033 -11.024494867151084 a83.80636506123608,83.80636506123608 0 0,0 0.24099573232403176,1.4223704541626458 l -62.01182952200459 9.9585386246726" fill="#4dd4ff" stroke="none" /><path d="M 120.94382443527127 98.46500227214037 l 3.029250269026768 -0.22201734427468936 a24.03737532971438,24.03737532971438 0 0,0 0.02669225649971344,0.4129173937781986 l -3.032623116530897 0.1698408862434555" fill="#ff1402" stroke="none" /><path d="M 120.96714384426684 98.82574320788733 l 62.90143153280055 -3.5227703763380056 a84.0,84.0 0 0,0 0.0684255670660141,1.444355573508001 l -62.95275070810006 2.4395036962070047" fill="#4dd2ff" stroke="none" /><line stroke="#e1ed5e" stroke-width="0.3" x1="184.98032266829074" x2="189.97916517819016" y1="98.17113171792111" y2="98.06355123074" /><path d="M 185.9800911702706 98.14961562048488 a86.0,86.0 0 0,1 -9.607161424134198,41.387399972396054" fill="none" id="id136" stroke="none" /><text fill="#e1ed5e" style="font-size:6.75px; font-family:Arial;" text-anchor="middle"><textPath startOffset="21.466115282336823" xlink:href="#id136">April</textPath></text><path d="M 120.95626037817324 101.35467743843564 l 14.852811666380855 0.9601316503366406 a35.88381225301359,35.88381225301359 0 0,0 -0.04515113371273454,0.616051346767512 l -14.834083974003784 -1.2156561336009228" fill="#ffb811" stroke="none" /><path d="M 120.8583938346157 102.4346265915055 l 9.711988522203656 1.1335995331199935 a30.777922527659207,30.777922527659207 0 0,0 -0.06595047915533798,0.5256902081233039 l -9.69103653380147 -1.3006074955306923" fill="#ff740a" stroke="none" /><line stroke="#e1ed5e" stroke-width="0.3" x1="174.80103733775053" x2="179.2010983576182" y1="140.37084112569926" y2="142.7455964860345" /><path d="M 175.68104954172406 140.8457921977663 a86.0,86.0 0 0,1 -30.038265399797805,32.042727171017184" fill="none" id="id137" stroke="none" /><text fill="#e1ed5e" style="font-size:6.75px; font-family:Arial;" text-anchor="middle"><textPath startOffset="22.206326154141568" xlink:href="#id137">May</textPath></text><line stroke="#e1ed5e" stroke-width="0.3" x1="143.8653032363475" x2="146.44561519142675" y1="172.8068346515853" y2="177.08958963109032" /><path d="M 144.38136562736335 173.6633856474863 a86.0,86.0 0 0,1 -40.68145358897372,12.25698825130547" fill="none" id="id138" stroke="none" /><text fill="#e1ed5e" style="font-size:6.75px; font-family:Arial;" text-anchor="middle"><textPath startOffset="21.466115282336833" xlink:href="#id138">June</textPath></text><line stroke="#e1ed5e" stroke-width="0.3" x1="102.19456741930631" x2="102.32365962044197" y1="184.97166512339345" y2="189.96999836594603" /><path d="M 102.22038585953345 185.97133177190398 a86.0,86.0 0 0,1 -42.740103519485714,-10.115201625700543" fill="none" id="id139" stroke="none" /><text fill="#e1ed5e" style="font-size:6.75px; font-family:Arial;" text-anchor="middle"><textPath startOffset="22.20632615414155" xlink:href="#id139">July</textPath></text><line stroke="#e1ed5e" stroke-width="0.3" x1="58.666819895761336" x2="56.23545636021788" y1="174.27360380694188" y2="178.64263932499728" /><path d="M 58.180547188652646 175.14741091055294 a86.0,86.0 0 0,1 -31.652253787137756,-30.449443065178592" fill="none" id="id140" stroke="none" /><text fill="#e1ed5e" style="font-size:6.75px; font-family:Arial;" text-anchor="middle"><textPath startOffset="22.20632615414155" xlink:href="#id140">August</textPath></text><line stroke="#e1ed5e" stroke-width="0.3" x1="26.63291911575756" x2="22.317208475507996" y1="142.92168965132927" y2="145.44649492493687" /><path d="M 25.769776987707644 143.4266507060508 a86.0,86.0 0 0,1 -11.730757126820373,-40.83630448921669" fill="none" id="id141" stroke="none" /><text fill="#e1ed5e" style="font-size:6.75px; font-family:Arial;" text-anchor="middle"><textPath startOffset="21.46611528233685" xlink:href="#id141">September</textPath></text><line stroke="#e1ed5e" stroke-width="0.3" x1="15.007084014347285" x2="10.007500721073583" y1="101.09737516637583" y2="101.16192664675087" /><path d="M 14.007167355692545 101.11028546245083 a86.0,86.0 0 0,1 10.666146001902534,-42.60595125391555" fill="none" id="id142" stroke="none" /><text fill="#e1ed5e" style="font-size:6.75px; font-family:Arial;" text-anchor="middle"><textPath startOffset="22.20632615414155" xlink:href="#id142">October</textPath></text><line stroke="#e1ed5e" stroke-width="0.3" x1="26.266209847984243" x2="21.928928074336255" y1="57.711370442889674" y2="55.22380399835377" /><path d="M 25.398753493254645 57.213857153982495 a86.0,86.0 0 0,1 29.58750427330803,-30.492523968695096" fill="none" id="id143" stroke="none" /><text fill="#e1ed5e" style="font-size:6.75px; font-family:Arial;" text-anchor="middle"><textPath startOffset="21.46611528233685" xlink:href="#id143">November</textPath></text><line stroke="#e1ed5e" stroke-width="0.3" x1="56.762969772571076" x2="54.21961505331055" y1="26.818313649435495" y2="22.513508569990535" /><path d="M 56.25429882871897 25.957352633546506 a86.0,86.0 0 0,1 42.265352541879196,-11.944610805530505" fill="none" id="id144" stroke="none" /><text fill="#e1ed5e" style="font-size:6.75px; font-family:Arial;" text-anchor="middle"><textPath startOffset="22.20632615414155" xlink:href="#id144">December</textPath></text></svg>