<?xml version="1.0" encoding="utf-8" ?>
<svg baseProfile="full" height="200mm" version="1.1" viewBox="0,0,200,200" width="200mm" xmlns="http://www.w3.org/2000/svg" xmlns:ev="http://www.w3.org/2001/xml-events" xmlns:xlink="http://www.w3.org/1999/xlink"><defs /><rect fill="#1a1a1a" height="200" width="200" x="0" y="0" /><text alignment-baseline="middle" fill="#e1ed5e" style="dominant-baseline: central; font-size:9.0px; font-family:Arial;" text-anchor="middle" x="100.0" y="100.0">2015</text><line stroke="#e1ed5e" stroke-width="0.3" x1="100.0" x2="100.0" y1="15.0" y2="10.0" /><path d="M 100.0 14.0 a86.0,86.0 0 0,1 42.46469731375804,11.215312516191453" fill="none" id="id13" stroke="none" /><text fill="#e1ed5e" style="font-size:6.75px; font-family:Arial;" text-anchor="middle"><textPath startOffset="22.20632615414155" xlink:href="#id13">January</textPath></text><path d="M 110.36928655335952 81.73862282372117 l 12.969351444096576 -22.840358132029 a47.26568172501588,47.26568172501588 0 0,0 0.7040409374208946,0.40782595365228524 l -13.3605891139828 22.613728020986667" fill="#caff1d" stroke="none" /><line stroke="#e1ed5e" stroke-width="0.3" x1="143.23703022742887" x2="145.7803849466894" y1="26.81831364943548" y2="22.513508569990506" /><path d="M 143.74570117128098 25.957352633546492 a86.0,86.0 0 0,1 28.547481713284135,27.462654790039103" fill="none" id="id14" stroke="none" /><text fill="#e1ed5e" style="font-size:6.75px; font-family:Arial;" text-anchor="middle"><textPath startOffset="19.985693538727396" xlink:href="#id14">February</textPath></text><path d="M 111.2981086023043 82.29822771554956 l 11.225445877391516 -17.587924997683228 a41.86494047128764,41.86494047128764 0 0,0 0.6041170203037312,0.39293451461371953 l -11.526529923479528 17.392091558909982" fill="#fff116" stroke="none" /><path d="M 111.60114157652 82.49532879139004 l 5.314561315848278 -8.019008115564063 a30.62024184401792,30.62024184401792 0 0,0 0.43684193869543536,0.29495762702755374 l -5.451807948950255 7.926338576237839" fill="#ff5708" stroke="none" /><path d="M 111.90073688211348 82.69761687909136 l 5.29794114425076 -7.702632898944696 a30.348729001519416,30.348729001519416 0 0,0 0.42787207669354554,0.29975173322689797 l -5.429744360527956 7.610296322953862" fill="#ff5307" stroke="none" /><path d="M 112.48926042617603 83.11751280151076 l 32.00674734816361 -43.265452391250804 a74.81757376943676,74.81757376943676 0 0,0 1.0287553424947993,0.7748371956321412 l -32.74674884441679 42.70809860611281" fill="#41ffcf" stroke="none" /><path d="M 113.34407831869373 83.78471172551755 l 10.722968978479006 -13.030201786269993 a37.87507695699006,37.87507695699006 0 0,0 0.4998472436058668,0.418607691682734 l -10.94567375904399 12.843692937193438" fill="#ffbc11" stroke="none" /><path d="M 113.6212207817346 84.01681056812373 l 16.3601433087919 -19.197050971209983 a46.222629820766954,46.222629820766954 0 0,0 0.6011279450907839,0.5212922303695925 l -16.68816505252945 18.91259374742072" fill="#d7ff1c" stroke="none" /><path d="M 114.16331599549186 84.49514656593476 l 6.340066469496734 -6.940592259825841 a30.40043955114819,30.40043955114819 0 0,0 0.3833236534435889,0.3562575597548897 l -6.45859800673517 6.830430113996312" fill="#ff5407" stroke="none" /><path d="M 114.94478906791727 85.2469230424477 l 6.751005869889186 -6.66440380568333 a30.4863248068198,30.4863248068198 0 0,0 0.365452258201474,0.3766306762370381 l -6.8647223917937685 6.547208933896178" fill="#ff5507" stroke="none" /><path d="M 115.19652480421416 85.50635884689758 l 6.859374879415981 -6.54210875958238 a30.478935106781115,30.478935106781115 0 0,0 0.35882803571133187,0.3827727299355862 l -6.9709702370977755 6.423066612768739" fill="#ff5507" stroke="none" /><path d="M 115.4437574822437 85.77008943001954 l 22.82748386029941 -21.033291557654064 a52.04018964409708,52.04018964409708 0 0,0 0.6013277600327468,0.6640011316714235 l -23.18615526094819 20.637237638713092" fill="#92ff23" stroke="none" /><path d="M 116.15771136456269 86.58626213691792 l 7.571752125771115 -6.2858839279728045 a30.840923077133883,30.840923077133883 0 0,0 0.33558082994669397,0.4113824179906687 l -7.678831447794218 6.154617340374035" fill="#ff5a08" stroke="none" /><line stroke="#e1ed5e" stroke-width="0.3" x1="172.23445277983987" x2="176.4835382374775" y1="55.19839476539836" y2="52.563006222186495" /><path d="M 173.08426987136738 54.67131705675599 a86.0,86.0 0 0,1 12.851231095245387,41.99856678651699" fill="none" id="id15" stroke="none" /><text fill="#e1ed5e" style="font-size:6.75px; font-family:Arial;" text-anchor="middle"><textPath startOffset="22.20632615414155" xlink:href="#id15">March</textPath></text><path d="M 119.04729006885535 91.15688171328212 l 14.27175855498088 -6.625974015460466 a36.73488557013451,36.73488557013451 0 0,0 0.2613384186092702,0.5758245636854082 l -14.383699290553496 6.379327442932995" fill="#ffad10" stroke="none" /><path d="M 119.34039704204932 91.81776055985345 l 8.838498006216952 -3.7392565840758976 a30.596931114030983,30.596931114030983 0 0,0 0.20103394959872456,0.48681965482315703 l -8.901553642701874 3.5865623587994375" fill="#ff5608" stroke="none" /><path d="M 119.85752413597 93.16781622104841 l 14.849929882093337 -5.109269885021873 a36.70430056580299,36.70430056580299 0 0,0 0.20041021109949153,0.5992010224943329 l -14.9356773869646 4.852895759605226" fill="#ffac0f" stroke="none" /><path d="M 120.08093135843002 93.85539295169968 l 9.217964481105467 -2.8206246269451394 a30.63985437966007,30.63985437966007 0 0,0 0.14998077826596362,0.5056606248740863 l -9.265151156483133 2.661534615324523" fill="#ff5708" stroke="none" /><path d="M 120.18372546131832 94.20196356495316 l 21.420033305866873 -6.153181868498385 a43.286306870615945,43.286306870615945 0 0,0 0.19955653135236928,0.7179110190368617 l -21.522776607785605 5.7835595460425715" fill="#fbff18" stroke="none" /><path d="M 120.37134235888165 94.90015583598534 l 9.28371330239818 -2.3241223023763316 a30.57020779071844,30.57020779071844 0 0,0 0.12339766237448019,0.5115629756618638 l -9.322343765033478 2.1639740950550617" fill="#ff5608" stroke="none" /><path d="M 120.53481517161879 95.60439243477599 l 15.614212706586697 -3.3423213661522793 a36.96792881250325,36.96792881250325 0 0,0 0.12783985804420278,0.6233925492250199 l -15.669431860545897 3.073053160763848" fill="#ffb010" stroke="none" /><path d="M 120.6074358757038 95.95851677861258 l 45.98842671117161 -9.019145130536913 a67.86448943768075,67.86448943768075 0 0,0 0.21495035177020644,1.148273374238968 l -46.13686278685167 8.226193678835381" fill="#38ff81" stroke="none" /><path d="M 120.73433829027371 96.67025291283417 l 14.694145095512766 -2.3597467228132993 a35.882415955879274,35.882415955879274 0 0,0 0.09268617117933721,0.610686062483227 l -14.732587160131404 2.1064615479379905" fill="#ffa10e" stroke="none" /><path d="M 120.78858239683441 97.02765380044208 l 20.406319833610123 -2.917690395937267 a41.6138498684291,41.6138498684291 0 0,0 0.09528382839431467,0.7099751963777584 l -20.453519661062273 2.565996857494844" fill="#ffed16" stroke="none" /><path d="M 120.83666639777658 97.38593545837742 l 9.567399016785947 -1.200278300179705 a30.64239555008396,30.64239555008396 0 0,0 0.06115295145849604,0.5239211426183007 l -9.586642321248032 1.0354134192365516" fill="#ff5708" stroke="none" /><path d="M 120.96714384426684 98.82574320788733 l 26.35819365255924 -1.4761804542492267 a47.39949774823987,47.39949774823987 0 0,0 0.03861116085794728,0.8150205804065499 l -26.379698421650687 1.0222487672196772" fill="#c8ff1d" stroke="none" /><line stroke="#e1ed5e" stroke-width="0.3" x1="184.98032266829074" x2="189.97916517819016" y1="98.17113171792111" y2="98.06355123074" /><path d="M 185.9800911702706 98.14961562048488 a86.0,86.0 0 0,1 -9.607161424134198,41.387399972396054" fill="none" id="id16" stroke="none" /><text fill="#e1ed5e" style="font-size:6.75px; font-family:Arial;" text-anchor="middle"><textPath startOffset="21.466115282336823" xlink:href="#id16">April</textPath></text><path d="M 120.99513854157772 99.54816195383933 l 12.956823818847012 -0.2788448357776778 a33.959823992442224,33.959823992442224 0 0,0 0.007547155088398119,0.5845354788531544 l -12.959703981053124 0.05577309886406066" fill="#ff860c" stroke="none" /><path d="M 120.92983693683757 101.71520430193887 l 9.491262830320764 0.7778108776732039 a30.523080377464808,30.523080377464808 0 0,0 -0.04742037238962234,0.5232798578435834 l -9.476467861654067 -0.941072124065358" fill="#ff5507" stroke="none" /><path d="M 118.81262510543309 109.33194174019688 l 56.43787531629926 27.995825220590632 a84.0,84.0 0 0,0 -0.6536853208549238,1.2897831531892228 l -55.94761132565807 -28.96316258548255" fill="#4dd2ff" stroke="none" /><line stroke="#e1ed5e" stroke-width="0.3" x1="174.80103733775053" x2="179.2010983576182" y1="140.37084112569926" y2="142.7455964860345" /><path d="M 175.68104954172406 140.8457921977663 a86.0,86.0 0 0,1 -30.038265399797805,32.042727171017184" fill="none" id="id17" stroke="none" /><text fill="#e1ed5e" style="font-size:6.75px; font-family:Arial;" text-anchor="middle"><textPath startOffset="22.206326154141568" xlink:href="#id17">May</textPath></text><path d="M 118.48025628344425 109.97397251340804 l 7.4868380049138885 4.040718663639259 a29.507652474713904,29.507652474713904 0 0,0 -0.245087175871269,0.44490441458887564 l -7.416174419591109 -4.16899359662594" fill="#ff4706" stroke="none" /><path d="M 115.32070863581623 114.36230785411682 l 40.2982378161193 37.77734511186222 a76.2365438345417,76.2365438345417 0 0,0 -0.9057389634394549,0.949663682069612 l -39.64199230130088 -38.46541591051433" fill="#43ffde" stroke="none" /><path d="M 112.92097659922987 116.55440617244103 l 5.6579160437661935 7.248944347105991 a30.195608087872536,30.195608087872536 0 0,0 -0.41248821362286375,0.3162783728062471 l -5.532299101649836 -7.34526206173961" fill="#ff5107" stroke="none" /><path d="M 112.63410532772338 116.77436683061366 l 13.324769792966135 17.69136560467243 a43.14800006758465,43.14800006758465 0 0,0 -0.5971170150486144,0.4417328926812606 l -13.018267807498956 -17.918108446093463" fill="#fdff18" stroke="none" /><path d="M 112.34349029814194 116.9893568818739 l 5.494697727519899 7.5628026106124295 a30.348138127129836,30.348138127129836 0 0,0 -0.4252679857848402,0.3034174162921494 l -5.363702413886174 -7.656264288748798" fill="#ff5307" stroke="none" /><path d="M 112.04921762599082 117.19931262002967 l 21.053521119641427 30.052249260402384 a57.69316608231761,57.69316608231761 0 0,0 -0.8182624915203277,0.5628084029834338 l -20.533101743498218 -30.410198452750915" fill="#54ff2b" stroke="none" /><line stroke="#e1ed5e" stroke-width="0.3" x1="143.8653032363475" x2="146.44561519142675" y1="172.8068346515853" y2="177.08958963109032" /><path d="M 144.38136562736335 173.6633856474863 a86.0,86.0 0 0,1 -40.68145358897372,12.25698825130547" fill="none" id="id18" stroke="none" /><text fill="#e1ed5e" style="font-size:6.75px; font-family:Arial;" text-anchor="middle"><textPath startOffset="21.466115282336833" xlink:href="#id18">June</textPath></text><path d="M 105.53697534728816 120.25689768951611 l 2.6742068262000354 9.783524520381167 a31.14242250106918,31.14242250106918 0 0,0 -0.5183130618155214,0.13689119049959056 l -2.505403321573017 -9.828107060184342" fill="#ff5e08" stroke="none" /><path d="M 101.26447882468166 120.96189622390904 l 0.22831620376798498 3.784911598520637 a24.791791673802646,24.791791673802646 0 0,0 -0.4261967904595289,0.022029505873542455 l -0.16313134489497647 -3.7882809111563818" fill="#ff0000" stroke="none" /><line stroke="#e1ed5e" stroke-width="0.3" x1="102.19456741930631" x2="102.32365962044197" y1="184.97166512339345" y2="189.96999836594603" /><path d="M 102.22038585953345 185.97133177190398 a86.0,86.0 0 0,1 -42.740103519485714,-10.115201625700543" fill="none" id="id19" stroke="none" /><text fill="#e1ed5e" style="font-size:6.75px; font-family:Arial;" text-anchor="middle"><textPath startOffset="22.20632615414155" xlink:href="#id19">July</textPath></text><path d="M 99.45781275523022 120.99299961872073 l -0.7282087150759555 28.195582661539433 a49.20498483524527,49.20498483524527 0 0,0 -0.8465123627205683,-0.029155597368855018 l 1.2134414294711668 -28.178870265744486" fill="#b3ff20" stroke="none" /><path d="M 98.37488393609728 120.93702456842531 l -2.057661769344767 26.50968504663049 a47.58942220561717,47.58942220561717 0 0,0 -0.8161714677499942,-0.07042270850790155 l 2.5136775548363026 -26.470338085843927" fill="#c6ff1e" stroke="none" /><path d="M 97.65516085044442 120.86867818915974 l -2.968478509632341 26.41896470412262 a47.58521319643357,47.58521319643357 0 0,0 -0.813191813545388,-0.09846620380678979 l 3.4227977462291186 -26.36395297159048" fill="#c6ff1e" stroke="none" /><path d="M 95.51606077576429 120.51570834832081 l -5.717718617449639 26.160713093374984 a47.77826013284305,47.77826013284305 0 0,0 -0.8019463806615936,-0.18252038532531695 l 6.167185147504095 -26.05841597447198" fill="#c4ff1e" stroke="none" /><path d="M 94.81253420990036 120.34920634021253 l -6.36273606167826 24.95951477010419 a46.757751993324845,46.757751993324845 0 0,0 -0.7782038663960558,-0.20553071410007534 l 6.791430370885806 -24.84629270670053" fill="#d0ff1d" stroke="none" /><path d="M 93.08242187328487 119.8279376855182 l -3.563637338686994 10.214496719941627 a31.818292578932333,31.818292578932333 0 0,0 -0.5155782180367144,-0.18486800559359984 l 3.738935117353435 -10.15164117330807" fill="#ff6809" stroke="none" /><path d="M 91.40352486487194 119.15986991738527 l -8.289709383717948 18.476148764268835 a41.250613690105645,41.250613690105645 0 0,0 -0.6453403234016349,-0.29624409052962725 l 8.606517702887002 -18.330717603405134" fill="#ffe915" stroke="none" /><line stroke="#e1ed5e" stroke-width="0.3" x1="58.666819895761336" x2="56.23545636021788" y1="174.27360380694188" y2="178.64263932499728" /><path d="M 58.180547188652646 175.14741091055294 a86.0,86.0 0 0,1 -31.652253787137756,-30.449443065178592" fill="none" id="id20" stroke="none" /><text fill="#e1ed5e" style="font-size:6.75px; font-family:Arial;" text-anchor="middle"><textPath startOffset="22.20632615414155" xlink:href="#id20">August</textPath></text><path d="M 87.36589467227662 116.77436683061367 l -8.595062217983395 11.411708453944135 a35.28643357765771,35.28643357765771 0 0,0 -0.4820316222548948,-0.369601293062214 l 8.790222568731778 -11.262067819054554" fill="#ff990e" stroke="none" /><path d="M 83.50135304334701 112.99209946851258 l -20.81020530504805 16.387298788421433 a47.487887919183905,47.487887919183905 0 0,0 -0.5001903367826631,-0.6465634366275285 l 21.08920245904878 -16.02665735768065" fill="#c7ff1e" stroke="none" /><path d="M 83.28015986056508 112.70617746262583 l -8.807565687636805 6.693275277010491 a32.062239704321954,32.062239704321954 0 0,0 -0.3301475285991014,-0.4422865664965411 l 8.921474482930991 -6.540675831004642" fill="#ff6c09" stroke="none" /><path d="M 82.85270091963577 112.12312394758628 l -11.149592350756402 7.882751061831286 a34.65471251586235,34.65471251586235 0 0,0 -0.3401757619322338,-0.4900485565705915 l 11.28362901985077 -7.689661243073682" fill="#ff900d" stroke="none" /><line stroke="#e1ed5e" stroke-width="0.3" x1="26.63291911575756" x2="22.317208475507996" y1="142.92168965132927" y2="145.44649492493687" /><path d="M 25.769776987707644 143.4266507060508 a86.0,86.0 0 0,1 -11.730757126820373,-40.83630448921669" fill="none" id="id21" stroke="none" /><text fill="#e1ed5e" style="font-size:6.75px; font-family:Arial;" text-anchor="middle"><textPath startOffset="21.46611528233685" xlink:href="#id21">September</textPath></text><path d="M 80.87730276802145 108.67885076344099 l -24.30288489097849 11.029882894195891 a47.68873415289353,47.68873415289353 0 0,0 -0.33281948323744964,-0.750420072922917 l 24.489145458947217 -10.609914484780278" fill="#c5ff1e" stroke="none" /><path d="M 80.58989483394504 108.01547362559985 l -24.826216372689622 10.252076475440019 a47.859748536460145,47.859748536460145 0 0,0 -0.30789175759878934,-0.7641620923409266 l 24.9990107445458 -9.823215015256288" fill="#c3ff1e" stroke="none" /><path d="M 79.67330655649465 105.27499134158121 l -25.704711851075707 6.670643842252062 a47.55616125529078,47.55616125529078 0 0,0 -0.1988044235130589,-0.79412484844566 l 25.815727588883824 -6.2271911544090095" fill="#c7ff1e" stroke="none" /><path d="M 79.04373962182676 101.35467743843564 l -11.636047168606732 0.7521900514417323 a32.66033376810152,32.66033376810152 0 0,0 -0.0314373584135479,-0.561335152896792 l 11.647270877907811 -0.5517831822095027" fill="#ff740a" stroke="none" /><line stroke="#e1ed5e" stroke-width="0.3" x1="15.007084014347285" x2="10.007500721073583" y1="101.09737516637583" y2="101.16192664675087" /><path d="M 14.007167355692545 101.11028546245083 a86.0,86.0 0 0,1 10.666146001902534,-42.60595125391555" fill="none" id="id22" stroke="none" /><text fill="#e1ed5e" style="font-size:6.75px; font-family:Arial;" text-anchor="middle"><textPath startOffset="22.20632615414155" xlink:href="#id22">October</textPath></text><path d="M 79.32604984820605 96.31383870115002 l -26.145784781892555 -4.66178835120729 a47.5581311935252,47.5581311935252 0 0,0 0.15063307945415036,-0.804687933712884 l 26.06166597852854 5.111154362382747" fill="#c6ff1e" stroke="none" /><path d="M 79.54389044137918 95.25157060432595 l -26.046317494391484 -6.046071433329099 a47.73884131363141,47.73884131363141 0 0,0 0.1926994236642791,-0.798863517194219 l 25.938385270466387 6.493520182182715" fill="#c4ff1e" stroke="none" /><path d="M 79.81627453868168 94.20196356495316 l -19.476266016903814 -5.594809550946859 a41.26392932953944,41.26392932953944 0 0,0 0.20198517128933,-0.6809935853802833 l 19.377074948502777 5.929232523073682" fill="#ffe915" stroke="none" /><path d="M 81.10775173730289 90.83032412892265 l -8.865110613250215 -4.302833085528536 a30.85416453825897,30.85416453825897 0 0,0 0.2360196472266282,-0.4758012066947873 l 8.789730953070174 4.454793880722285" fill="#ff5a08" stroke="none" /><line stroke="#e1ed5e" stroke-width="0.3" x1="26.266209847984243" x2="21.928928074336255" y1="57.711370442889674" y2="55.22380399835377" /><path d="M 25.398753493254645 57.213857153982495 a86.0,86.0 0 0,1 29.58750427330803,-30.492523968695096" fill="none" id="id23" stroke="none" /><text fill="#e1ed5e" style="font-size:6.75px; font-family:Arial;" text-anchor="middle"><textPath startOffset="21.46611528233685" xlink:href="#id23">November</textPath></text><line stroke="#e1ed5e" stroke-width="0.3" x1="56.762969772571076" x2="54.21961505331055" y1="26.818313649435495" y2="22.513508569990535" /><path d="M 56.25429882871897 25.957352633546506 a86.0,86.0 0 0,1 42.265352541879196,-11.944610805530505" fill="none" id="id24" stroke="none" /><text fill="#e1ed5e" style="font-size:6.75px; font-family:Arial;" text-anchor="middle"><textPath startOffset="22.20632615414155" xlink:href="#id24">December</textPath></text></svg>